<?xml version="1.0" encoding="UTF-8" standalone="no"?>
<svg
   xmlns:dc="http://purl.org/dc/elements/1.1/"
   xmlns:cc="http://creativecommons.org/ns#"
   xmlns:rdf="http://www.w3.org/1999/02/22-rdf-syntax-ns#"
   xmlns:svg="http://www.w3.org/2000/svg"
   xmlns="http://www.w3.org/2000/svg"
   viewBox="0 0 355.64258 274.3125"
   height="274.3125"
   width="355.64258"
   xml:space="preserve"
   version="1.1"
   id="svg2"><metadata
     id="metadata8"><rdf:RDF><cc:Work
         rdf:about=""><dc:format>image/svg+xml</dc:format><dc:type
           rdf:resource="http://purl.org/dc/dcmitype/StillImage" /></cc:Work></rdf:RDF></metadata><defs
     id="defs6"><clipPath
       id="clipPath20"
       clipPathUnits="userSpaceOnUse"><path
         id="path22"
         d="m 45.45,39.45 223.2,0 0,172.8 -223.2,0 0,-172.8 z" /></clipPath><clipPath
       id="clipPath30"
       clipPathUnits="userSpaceOnUse"><path
         id="path32"
         d="m 45.45,39.45 223.2,0 0,172.8 -223.2,0 0,-172.8 z" /></clipPath><clipPath
       id="clipPath40"
       clipPathUnits="userSpaceOnUse"><path
         id="path42"
         d="m 45.45,39.45 223.2,0 0,172.8 -223.2,0 0,-172.8 z" /></clipPath><clipPath
       id="clipPath50"
       clipPathUnits="userSpaceOnUse"><path
         id="path52"
         d="m -3.25,-3.25 6.5,0 0,6.5 -6.5,0 0,-6.5 z" /></clipPath><clipPath
       id="clipPath60"
       clipPathUnits="userSpaceOnUse"><path
         id="path62"
         d="m 45.45,39.45 223.2,0 0,172.8 -223.2,0 0,-172.8 z" /></clipPath><clipPath
       id="clipPath70"
       clipPathUnits="userSpaceOnUse"><path
         id="path72"
         d="m 45.45,39.45 223.2,0 0,172.8 -223.2,0 0,-172.8 z" /></clipPath><clipPath
       id="clipPath80"
       clipPathUnits="userSpaceOnUse"><path
         id="path82"
         d="m 45.45,39.45 223.2,0 0,172.8 -223.2,0 0,-172.8 z" /></clipPath><clipPath
       id="clipPath90"
       clipPathUnits="userSpaceOnUse"><path
         id="path92"
         d="m 45.45,39.45 223.2,0 0,172.8 -223.2,0 0,-172.8 z" /></clipPath><clipPath
       id="clipPath100"
       clipPathUnits="userSpaceOnUse"><path
         id="path102"
         d="m -3.1031695,-2.677051 6.206339,0 0,5.927051 -6.206339,0 0,-5.927051 z" /></clipPath><clipPath
       id="clipPath110"
       clipPathUnits="userSpaceOnUse"><path
         id="path112"
         d="m 45.45,39.45 223.2,0 0,172.8 -223.2,0 0,-172.8 z" /></clipPath><clipPath
       id="clipPath120"
       clipPathUnits="userSpaceOnUse"><path
         id="path122"
         d="m 45.45,39.45 223.2,0 0,172.8 -223.2,0 0,-172.8 z" /></clipPath><clipPath
       id="clipPath130"
       clipPathUnits="userSpaceOnUse"><path
         id="path132"
         d="m 45.45,39.45 223.2,0 0,172.8 -223.2,0 0,-172.8 z" /></clipPath><clipPath
       id="clipPath140"
       clipPathUnits="userSpaceOnUse"><path
         id="path142"
         d="m 45.45,39.45 223.2,0 0,172.8 -223.2,0 0,-172.8 z" /></clipPath><clipPath
       id="clipPath260"
       clipPathUnits="userSpaceOnUse"><path
         id="path262"
         d="m -3.25,-3.25 6.5,0 0,6.5 -6.5,0 0,-6.5 z" /></clipPath><clipPath
       id="clipPath318"
       clipPathUnits="userSpaceOnUse"><path
         id="path320"
         d="m -3.1031695,-2.677051 6.206339,0 0,5.927051 -6.206339,0 0,-5.927051 z" /></clipPath></defs><g
     transform="matrix(1.25,0,0,-1.25,0,274.3125)"
     id="g10"><path
       id="path12"
       style="fill:#ffffff;fill-opacity:1;fill-rule:nonzero;stroke:none"
       d="m 0,0 284.51406,0 0,219.45 L 0,219.45 0,0 Z" /><path
       id="path14"
       style="fill:#ffffff;fill-opacity:1;fill-rule:nonzero;stroke:none"
       d="m 45.45,39.45 223.2,0 0,172.8 -223.2,0 0,-172.8 z" /><g
       id="g16"><g
         clip-path="url(#clipPath20)"
         id="g18"><path
           id="path24"
           style="fill:none;stroke:#000000;stroke-width:1;stroke-linecap:square;stroke-linejoin:round;stroke-miterlimit:10;stroke-dasharray:none;stroke-opacity:1"
           d="m 77.335714,39.45 0,172.8" /></g></g><g
       id="g26"><g
         clip-path="url(#clipPath30)"
         id="g28"><path
           id="path34"
           style="fill:none;stroke:#000000;stroke-width:2;stroke-linecap:butt;stroke-linejoin:round;stroke-miterlimit:10;stroke-dasharray:1, 3;stroke-dashoffset:0;stroke-opacity:1"
           d="M 45.45,89.905374 268.65,203.83697" /></g></g><g
       id="g36"><g
         clip-path="url(#clipPath40)"
         id="g38"><g
           transform="translate(66.010144,92.524343)"
           id="g44"><g
             id="g46"><g
               clip-path="url(#clipPath50)"
               id="g48"><path
                 id="path54"
                 style="fill:#e41a1c;fill-opacity:1;fill-rule:nonzero;stroke:#000000;stroke-width:0.5;stroke-linecap:butt;stroke-linejoin:round;stroke-miterlimit:10;stroke-dasharray:none;stroke-opacity:1"
                 d="m 0,-3 c 0.7956093,0 1.5587396,0.3160989 2.1213203,0.8786797 C 2.6839011,-1.5587396 3,-0.7956093 3,0 3,0.7956093 2.6839011,1.5587396 2.1213203,2.1213203 1.5587396,2.6839011 0.7956093,3 0,3 -0.7956093,3 -1.5587396,2.6839011 -2.1213203,2.1213203 -2.6839011,1.5587396 -3,0.7956093 -3,0 -3,-0.7956093 -2.6839011,-1.5587396 -2.1213203,-2.1213203 -1.5587396,-2.6839011 -0.7956093,-3 0,-3 Z" /></g></g></g></g></g><g
       id="g56"><g
         clip-path="url(#clipPath60)"
         id="g58"><path
           id="path64"
           style="fill:#377eb8;fill-opacity:1;fill-rule:nonzero;stroke:#000000;stroke-width:0.5;stroke-linecap:butt;stroke-linejoin:miter;stroke-miterlimit:10;stroke-dasharray:none;stroke-opacity:1"
           d="m 82.197099,100.82649 6,0 0,6 -6,0 0,-6 z" /></g></g><g
       id="g66"><g
         clip-path="url(#clipPath70)"
         id="g68"><path
           id="path74"
           style="fill:#4daf4a;fill-opacity:1;fill-rule:nonzero;stroke:#000000;stroke-width:0.5;stroke-linecap:butt;stroke-linejoin:miter;stroke-miterlimit:10;stroke-dasharray:none;stroke-opacity:1"
           d="m 70.811206,114.94579 -3,-6 6,0 -3,6 z" /></g></g><g
       id="g76"><g
         clip-path="url(#clipPath80)"
         id="g78"><path
           id="path84"
           style="fill:#984ea3;fill-opacity:1;fill-rule:nonzero;stroke:#000000;stroke-width:0.5;stroke-linecap:butt;stroke-linejoin:miter;stroke-miterlimit:10;stroke-dasharray:none;stroke-opacity:1"
           d="m 240.0623,197.23625 4.24264,4.24264 -4.24264,4.24264 -4.24264,-4.24264 4.24264,-4.24264 z" /></g></g><g
       id="g86"><g
         clip-path="url(#clipPath90)"
         id="g88"><g
           transform="translate(84.139623,103.24753)"
           id="g94"><g
             id="g96"><g
               clip-path="url(#clipPath100)"
               id="g98"><path
                 id="path104"
                 style="fill:#ff7f00;fill-opacity:1;fill-rule:nonzero;stroke:#000000;stroke-width:0.5;stroke-linecap:butt;stroke-linejoin:bevel;stroke-miterlimit:10;stroke-dasharray:none;stroke-opacity:1"
                 d="m 0,3 -0.67354195,-2.07294904 -2.17962755,2e-8 1.7633557,-1.28115294 L -1.7633558,-2.427051 0,-1.145898 l 1.7633558,-1.281153 -0.673542,2.07294904 1.7633557,1.28115294 -2.17962755,-2e-8 L 0,3 Z" /></g></g></g></g></g><g
       id="g106"><g
         clip-path="url(#clipPath110)"
         id="g108"><path
           id="path114"
           style="fill:#a65628;fill-opacity:1;fill-rule:nonzero;stroke:#000000;stroke-width:0.5;stroke-linecap:butt;stroke-linejoin:miter;stroke-miterlimit:10;stroke-dasharray:none;stroke-opacity:1"
           d="m 109.64299,141.70679 -2.85317,-2.07295 1.08981,-3.3541 3.52671,0 1.08982,3.3541 -2.85317,2.07295 z" /></g></g><g
       id="g116"><g
         clip-path="url(#clipPath120)"
         id="g118"><path
           id="path124"
           style="fill:#f781bf;fill-opacity:1;fill-rule:nonzero;stroke:#000000;stroke-width:0.5;stroke-linecap:butt;stroke-linejoin:miter;stroke-miterlimit:10;stroke-dasharray:none;stroke-opacity:1"
           d="m 167.22877,166.62916 -1.5,-2.59807 1.5,-2.59808 3,0 1.5,2.59808 -1.5,2.59807 -3,0 z" /></g></g><g
       id="g126"><g
         clip-path="url(#clipPath130)"
         id="g128"><path
           id="path134"
           style="fill:#999999;fill-opacity:1;fill-rule:nonzero;stroke:#000000;stroke-width:0.5;stroke-linecap:butt;stroke-linejoin:miter;stroke-miterlimit:10;stroke-dasharray:none;stroke-opacity:1"
           d="m 203.35548,145.46811 6,-3 0,6 -6,-3 z" /></g></g><g
       id="g136"><g
         clip-path="url(#clipPath140)"
         id="g138"><path
           id="path144"
           style="fill:#ffff33;fill-opacity:1;fill-rule:nonzero;stroke:#000000;stroke-width:0.5;stroke-linecap:butt;stroke-linejoin:miter;stroke-miterlimit:10;stroke-dasharray:none;stroke-opacity:1"
           d="m 166.75748,150.17299 -6,3 0,-6 6,3 z" /></g></g><g
       id="g146"><path
         id="path148"
         style="fill:#000000;fill-opacity:1;fill-rule:nonzero;stroke:#000000;stroke-width:0.5;stroke-linecap:butt;stroke-linejoin:round;stroke-miterlimit:10;stroke-dasharray:none;stroke-opacity:1"
         d="m 77.335714,39.45 0,4" /><path
         id="path150"
         style="fill:#000000;fill-opacity:1;fill-rule:nonzero;stroke:#000000;stroke-width:0.5;stroke-linecap:butt;stroke-linejoin:round;stroke-miterlimit:10;stroke-dasharray:none;stroke-opacity:1"
         d="m 77.335714,212.25 0,-4" /><text
         id="text152"
         style="font-variant:normal;font-weight:normal;font-size:12px;font-family:'Bitstream Vera Sans';-inkscape-font-specification:BitstreamVeraSans-Roman;writing-mode:lr-tb;fill:#000000;fill-opacity:1;fill-rule:nonzero;stroke:none"
         transform="matrix(1,0,0,-1,68.585714,26.325)"><tspan
           id="tspan154"
           y="0"
           x="0 7.632 11.448">0.0</tspan></text>
<path
         id="path156"
         style="fill:#000000;fill-opacity:1;fill-rule:nonzero;stroke:#000000;stroke-width:0.5;stroke-linecap:butt;stroke-linejoin:round;stroke-miterlimit:10;stroke-dasharray:none;stroke-opacity:1"
         d="m 141.10714,39.45 0,4" /><path
         id="path158"
         style="fill:#000000;fill-opacity:1;fill-rule:nonzero;stroke:#000000;stroke-width:0.5;stroke-linecap:butt;stroke-linejoin:round;stroke-miterlimit:10;stroke-dasharray:none;stroke-opacity:1"
         d="m 141.10714,212.25 0,-4" /><text
         id="text160"
         style="font-variant:normal;font-weight:normal;font-size:12px;font-family:'Bitstream Vera Sans';-inkscape-font-specification:BitstreamVeraSans-Roman;writing-mode:lr-tb;fill:#000000;fill-opacity:1;fill-rule:nonzero;stroke:none"
         transform="matrix(1,0,0,-1,132.51339,26.325)"><tspan
           id="tspan162"
           y="0"
           x="0 7.632 11.448">0.1</tspan></text>
<path
         id="path164"
         style="fill:#000000;fill-opacity:1;fill-rule:nonzero;stroke:#000000;stroke-width:0.5;stroke-linecap:butt;stroke-linejoin:round;stroke-miterlimit:10;stroke-dasharray:none;stroke-opacity:1"
         d="m 204.87857,39.45 0,4" /><path
         id="path166"
         style="fill:#000000;fill-opacity:1;fill-rule:nonzero;stroke:#000000;stroke-width:0.5;stroke-linecap:butt;stroke-linejoin:round;stroke-miterlimit:10;stroke-dasharray:none;stroke-opacity:1"
         d="m 204.87857,212.25 0,-4" /><text
         id="text168"
         style="font-variant:normal;font-weight:normal;font-size:12px;font-family:'Bitstream Vera Sans';-inkscape-font-specification:BitstreamVeraSans-Roman;writing-mode:lr-tb;fill:#000000;fill-opacity:1;fill-rule:nonzero;stroke:none"
         transform="matrix(1,0,0,-1,196.3317,26.325)"><tspan
           id="tspan170"
           y="0"
           x="0 7.632 11.448">0.2</tspan></text>
<path
         id="path172"
         style="fill:#000000;fill-opacity:1;fill-rule:nonzero;stroke:#000000;stroke-width:0.5;stroke-linecap:butt;stroke-linejoin:round;stroke-miterlimit:10;stroke-dasharray:none;stroke-opacity:1"
         d="m 268.65,39.45 0,4" /><path
         id="path174"
         style="fill:#000000;fill-opacity:1;fill-rule:nonzero;stroke:#000000;stroke-width:0.5;stroke-linecap:butt;stroke-linejoin:round;stroke-miterlimit:10;stroke-dasharray:none;stroke-opacity:1"
         d="m 268.65,212.25 0,-4" /><text
         id="text176"
         style="font-variant:normal;font-weight:normal;font-size:12px;font-family:'Bitstream Vera Sans';-inkscape-font-specification:BitstreamVeraSans-Roman;writing-mode:lr-tb;fill:#000000;fill-opacity:1;fill-rule:nonzero;stroke:none"
         transform="matrix(1,0,0,-1,259.98594,26.325)"><tspan
           id="tspan178"
           y="0"
           x="0 7.632 11.448">0.3</tspan></text>
<path
         id="path180"
         style="fill:#000000;fill-opacity:1;fill-rule:nonzero;stroke:#000000;stroke-width:0.5;stroke-linecap:butt;stroke-linejoin:round;stroke-miterlimit:10;stroke-dasharray:none;stroke-opacity:1"
         d="m 45.45,39.45 0,2" /><path
         id="path182"
         style="fill:#000000;fill-opacity:1;fill-rule:nonzero;stroke:#000000;stroke-width:0.5;stroke-linecap:butt;stroke-linejoin:round;stroke-miterlimit:10;stroke-dasharray:none;stroke-opacity:1"
         d="m 45.45,212.25 0,-2" /><path
         id="path184"
         style="fill:#000000;fill-opacity:1;fill-rule:nonzero;stroke:#000000;stroke-width:0.5;stroke-linecap:butt;stroke-linejoin:round;stroke-miterlimit:10;stroke-dasharray:none;stroke-opacity:1"
         d="m 109.22143,39.45 0,2" /><path
         id="path186"
         style="fill:#000000;fill-opacity:1;fill-rule:nonzero;stroke:#000000;stroke-width:0.5;stroke-linecap:butt;stroke-linejoin:round;stroke-miterlimit:10;stroke-dasharray:none;stroke-opacity:1"
         d="m 109.22143,212.25 0,-2" /><path
         id="path188"
         style="fill:#000000;fill-opacity:1;fill-rule:nonzero;stroke:#000000;stroke-width:0.5;stroke-linecap:butt;stroke-linejoin:round;stroke-miterlimit:10;stroke-dasharray:none;stroke-opacity:1"
         d="m 172.99286,39.45 0,2" /><path
         id="path190"
         style="fill:#000000;fill-opacity:1;fill-rule:nonzero;stroke:#000000;stroke-width:0.5;stroke-linecap:butt;stroke-linejoin:round;stroke-miterlimit:10;stroke-dasharray:none;stroke-opacity:1"
         d="m 172.99286,212.25 0,-2" /><g
         transform="translate(153.55,9.7)"
         id="g192"><text
           id="text194"
           style="font-variant:normal;font-weight:normal;font-size:12px;font-family:Cmmi10;-inkscape-font-specification:Cmmi10;writing-mode:lr-tb;fill:#000000;fill-opacity:1;fill-rule:nonzero;stroke:none"
           transform="matrix(1,0,0,-1,0,0.671875)"><tspan
             id="tspan196"
             y="0"
             x="0">d</tspan></text>
</g><path
         id="path198"
         style="fill:#000000;fill-opacity:1;fill-rule:nonzero;stroke:#000000;stroke-width:0.5;stroke-linecap:butt;stroke-linejoin:round;stroke-miterlimit:10;stroke-dasharray:none;stroke-opacity:1"
         d="m 45.45,39.45 4,0" /><path
         id="path200"
         style="fill:#000000;fill-opacity:1;fill-rule:nonzero;stroke:#000000;stroke-width:0.5;stroke-linecap:butt;stroke-linejoin:round;stroke-miterlimit:10;stroke-dasharray:none;stroke-opacity:1"
         d="m 268.65,39.45 -4,0" /><text
         id="text202"
         style="font-variant:normal;font-weight:normal;font-size:12px;font-family:'Bitstream Vera Sans';-inkscape-font-specification:BitstreamVeraSans-Roman;writing-mode:lr-tb;fill:#000000;fill-opacity:1;fill-rule:nonzero;stroke:none"
         transform="matrix(1,0,0,-1,24.121875,36.1375)"><tspan
           id="tspan204"
           y="0"
           x="0 7.632 11.448">0.3</tspan></text>
<path
         id="path206"
         style="fill:#000000;fill-opacity:1;fill-rule:nonzero;stroke:#000000;stroke-width:0.5;stroke-linecap:butt;stroke-linejoin:round;stroke-miterlimit:10;stroke-dasharray:none;stroke-opacity:1"
         d="m 45.45,77.85 4,0" /><path
         id="path208"
         style="fill:#000000;fill-opacity:1;fill-rule:nonzero;stroke:#000000;stroke-width:0.5;stroke-linecap:butt;stroke-linejoin:round;stroke-miterlimit:10;stroke-dasharray:none;stroke-opacity:1"
         d="m 268.65,77.85 -4,0" /><text
         id="text210"
         style="font-variant:normal;font-weight:normal;font-size:12px;font-family:'Bitstream Vera Sans';-inkscape-font-specification:BitstreamVeraSans-Roman;writing-mode:lr-tb;fill:#000000;fill-opacity:1;fill-rule:nonzero;stroke:none"
         transform="matrix(1,0,0,-1,23.825,74.5375)"><tspan
           id="tspan212"
           y="0"
           x="0 7.632 11.448">0.4</tspan></text>
<path
         id="path214"
         style="fill:#000000;fill-opacity:1;fill-rule:nonzero;stroke:#000000;stroke-width:0.5;stroke-linecap:butt;stroke-linejoin:round;stroke-miterlimit:10;stroke-dasharray:none;stroke-opacity:1"
         d="m 45.45,116.25 4,0" /><path
         id="path216"
         style="fill:#000000;fill-opacity:1;fill-rule:nonzero;stroke:#000000;stroke-width:0.5;stroke-linecap:butt;stroke-linejoin:round;stroke-miterlimit:10;stroke-dasharray:none;stroke-opacity:1"
         d="m 268.65,116.25 -4,0" /><text
         id="text218"
         style="font-variant:normal;font-weight:normal;font-size:12px;font-family:'Bitstream Vera Sans';-inkscape-font-specification:BitstreamVeraSans-Roman;writing-mode:lr-tb;fill:#000000;fill-opacity:1;fill-rule:nonzero;stroke:none"
         transform="matrix(1,0,0,-1,24.2,112.9375)"><tspan
           id="tspan220"
           y="0"
           x="0 7.632 11.448">0.5</tspan></text>
<path
         id="path222"
         style="fill:#000000;fill-opacity:1;fill-rule:nonzero;stroke:#000000;stroke-width:0.5;stroke-linecap:butt;stroke-linejoin:round;stroke-miterlimit:10;stroke-dasharray:none;stroke-opacity:1"
         d="m 45.45,154.65 4,0" /><path
         id="path224"
         style="fill:#000000;fill-opacity:1;fill-rule:nonzero;stroke:#000000;stroke-width:0.5;stroke-linecap:butt;stroke-linejoin:round;stroke-miterlimit:10;stroke-dasharray:none;stroke-opacity:1"
         d="m 268.65,154.65 -4,0" /><text
         id="text226"
         style="font-variant:normal;font-weight:normal;font-size:12px;font-family:'Bitstream Vera Sans';-inkscape-font-specification:BitstreamVeraSans-Roman;writing-mode:lr-tb;fill:#000000;fill-opacity:1;fill-rule:nonzero;stroke:none"
         transform="matrix(1,0,0,-1,23.91875,151.3375)"><tspan
           id="tspan228"
           y="0"
           x="0 7.632 11.448">0.6</tspan></text>
<path
         id="path230"
         style="fill:#000000;fill-opacity:1;fill-rule:nonzero;stroke:#000000;stroke-width:0.5;stroke-linecap:butt;stroke-linejoin:round;stroke-miterlimit:10;stroke-dasharray:none;stroke-opacity:1"
         d="m 45.45,193.05 4,0" /><path
         id="path232"
         style="fill:#000000;fill-opacity:1;fill-rule:nonzero;stroke:#000000;stroke-width:0.5;stroke-linecap:butt;stroke-linejoin:round;stroke-miterlimit:10;stroke-dasharray:none;stroke-opacity:1"
         d="m 268.65,193.05 -4,0" /><text
         id="text234"
         style="font-variant:normal;font-weight:normal;font-size:12px;font-family:'Bitstream Vera Sans';-inkscape-font-specification:BitstreamVeraSans-Roman;writing-mode:lr-tb;fill:#000000;fill-opacity:1;fill-rule:nonzero;stroke:none"
         transform="matrix(1,0,0,-1,24.184375,189.7375)"><tspan
           id="tspan236"
           y="0"
           x="0 7.632 11.448">0.7</tspan></text>
<g
         transform="matrix(0,1,-1,0,16.325,122.85)"
         id="g238"><text
           id="text240"
           style="font-variant:normal;font-weight:normal;font-size:12px;font-family:Cmmi10;-inkscape-font-specification:Cmmi10;writing-mode:lr-tb;fill:#000000;fill-opacity:1;fill-rule:nonzero;stroke:none"
           transform="matrix(1,0,0,-1,0,0.703125)"><tspan
             id="tspan242"
             y="0"
             x="0">ν</tspan></text>
</g><path
         id="path244"
         style="fill:none;stroke:#000000;stroke-width:1;stroke-linecap:butt;stroke-linejoin:round;stroke-miterlimit:10;stroke-dasharray:none;stroke-opacity:1"
         d="m 45.45,39.45 223.2,0" /><path
         id="path246"
         style="fill:none;stroke:#000000;stroke-width:1;stroke-linecap:butt;stroke-linejoin:round;stroke-miterlimit:10;stroke-dasharray:none;stroke-opacity:1"
         d="m 268.65,39.45 0,172.8" /><path
         id="path248"
         style="fill:none;stroke:#000000;stroke-width:1;stroke-linecap:butt;stroke-linejoin:round;stroke-miterlimit:10;stroke-dasharray:none;stroke-opacity:1"
         d="m 45.45,212.25 223.2,0" /><path
         id="path250"
         style="fill:none;stroke:#000000;stroke-width:1;stroke-linecap:butt;stroke-linejoin:round;stroke-miterlimit:10;stroke-dasharray:none;stroke-opacity:1"
         d="m 45.45,39.45 0,172.8" /><path
         id="path252"
         style="fill:#ffffff;fill-opacity:1;fill-rule:nonzero;stroke:#000000;stroke-width:1;stroke-linecap:butt;stroke-linejoin:round;stroke-miterlimit:10;stroke-dasharray:none;stroke-opacity:1"
         d="m 148.28057,44.448 115.37143,0 0,78.00443 -115.37143,0 0,-78.00443 z" /><g
         transform="translate(159.77597,114.35887)"
         id="g254"><g
           id="g256"><g
             clip-path="url(#clipPath260)"
             id="g258"><path
               id="path264"
               style="fill:#e41a1c;fill-opacity:1;fill-rule:nonzero;stroke:#000000;stroke-width:0.5;stroke-linecap:butt;stroke-linejoin:round;stroke-miterlimit:10;stroke-dasharray:none;stroke-opacity:1"
               d="m 0,-3 c 0.7956093,0 1.5587396,0.3160989 2.1213203,0.8786797 C 2.6839011,-1.5587396 3,-0.7956093 3,0 3,0.7956093 2.6839011,1.5587396 2.1213203,2.1213203 1.5587396,2.6839011 0.7956093,3 0,3 -0.7956093,3 -1.5587396,2.6839011 -2.1213203,2.1213203 -2.6839011,1.5587396 -3,0.7956093 -3,0 -3,-0.7956093 -2.6839011,-1.5587396 -2.1213203,-2.1213203 -1.5587396,-2.6839011 -0.7956093,-3 0,-3 Z" /></g></g></g><g
         transform="translate(167.27297,110.86028)"
         id="g266"><text
           id="text268"
           style="font-variant:normal;font-weight:normal;font-size:9.99600029px;font-family:Cmmi10;-inkscape-font-specification:Cmmi10;writing-mode:lr-tb;fill:#000000;fill-opacity:1;fill-rule:nonzero;stroke:none"
           transform="matrix(1,0,0,-1,0,0.578125)"><tspan
             id="tspan270"
             y="0"
             x="0">α</tspan></text>
<text
           id="text272"
           style="font-variant:normal;font-weight:normal;font-size:9.99600029px;font-family:'Bitstream Vera Sans';-inkscape-font-specification:BitstreamVeraSans-Roman;writing-mode:lr-tb;fill:#000000;fill-opacity:1;fill-rule:nonzero;stroke:none"
           transform="matrix(1,0,0,-1,6.3816071,0.578125)"><tspan
             id="tspan274"
             y="0"
             x="0">S</tspan></text>
</g><path
         id="path276"
         style="fill:#377eb8;fill-opacity:1;fill-rule:nonzero;stroke:#000000;stroke-width:0.5;stroke-linecap:butt;stroke-linejoin:miter;stroke-miterlimit:10;stroke-dasharray:none;stroke-opacity:1"
         d="m 156.77597,96.360875 6,0 0,5.999995 -6,0 0,-5.999995 z" /><g
         transform="translate(167.27297,95.862275)"
         id="g278"><text
           id="text280"
           style="font-variant:normal;font-weight:normal;font-size:9.99600029px;font-family:Cmmi10;-inkscape-font-specification:Cmmi10;writing-mode:lr-tb;fill:#000000;fill-opacity:1;fill-rule:nonzero;stroke:none"
           transform="matrix(1,0,0,-1,0,0.578125)"><tspan
             id="tspan282"
             y="0"
             x="0">β</tspan></text>
<text
           id="text284"
           style="font-variant:normal;font-weight:normal;font-size:9.99600029px;font-family:'Bitstream Vera Sans';-inkscape-font-specification:BitstreamVeraSans-Roman;writing-mode:lr-tb;fill:#000000;fill-opacity:1;fill-rule:nonzero;stroke:none"
           transform="matrix(1,0,0,-1,5.6405792,0.578125)"><tspan
             id="tspan286"
             y="0"
             x="0">S</tspan></text>
</g><path
         id="path288"
         style="fill:#4daf4a;fill-opacity:1;fill-rule:nonzero;stroke:#000000;stroke-width:0.5;stroke-linecap:butt;stroke-linejoin:miter;stroke-miterlimit:10;stroke-dasharray:none;stroke-opacity:1"
         d="m 159.77597,87.28475 -3,-6 6,0 -3,6 z" /><g
         transform="translate(167.27297,80.78615)"
         id="g290"><text
           id="text292"
           style="font-variant:normal;font-weight:normal;font-size:9.99600029px;font-family:Cmmi10;-inkscape-font-specification:Cmmi10;writing-mode:lr-tb;fill:#000000;fill-opacity:1;fill-rule:nonzero;stroke:none"
           transform="matrix(1,0,0,-1,0,0.578125)"><tspan
             id="tspan294"
             y="0"
             x="0">γ</tspan></text>
<text
           id="text296"
           style="font-variant:normal;font-weight:normal;font-size:9.99600029px;font-family:'Bitstream Vera Sans';-inkscape-font-specification:BitstreamVeraSans-Roman;writing-mode:lr-tb;fill:#000000;fill-opacity:1;fill-rule:nonzero;stroke:none"
           transform="matrix(1,0,0,-1,5.1628113,0.578125)"><tspan
             id="tspan298"
             y="0"
             x="0">S</tspan></text>
</g><path
         id="path300"
         style="fill:#984ea3;fill-opacity:1;fill-rule:nonzero;stroke:#000000;stroke-width:0.5;stroke-linecap:butt;stroke-linejoin:miter;stroke-miterlimit:10;stroke-dasharray:none;stroke-opacity:1"
         d="m 159.77597,64.450359 4.24265,4.242641 -4.24265,4.242641 -4.24264,-4.242641 4.24264,-4.242641 z" /><g
         transform="translate(167.27297,65.1944)"
         id="g302"><text
           id="text304"
           style="font-variant:normal;font-weight:normal;font-size:9.99600029px;font-family:'Bitstream Vera Sans';-inkscape-font-specification:BitstreamVeraSans-Roman;writing-mode:lr-tb;fill:#000000;fill-opacity:1;fill-rule:nonzero;stroke:none"
           transform="matrix(1,0,0,-1,0,0.703125)"><tspan
             id="tspan306"
             y="0"
             x="0 6.0302734 10.141602 16.259766">ProT</tspan></text>
<text
           id="text308"
           style="font-variant:normal;font-weight:normal;font-size:9.99600029px;font-family:Cmmi10;-inkscape-font-specification:Cmmi10;writing-mode:lr-tb;fill:#000000;fill-opacity:1;fill-rule:nonzero;stroke:none"
           transform="matrix(1,0,0,-1,22.368164,0.703125)"><tspan
             id="tspan310"
             y="0"
             x="0">α</tspan></text>
</g><g
         transform="translate(159.77597,54.023125)"
         id="g312"><g
           id="g314"><g
             clip-path="url(#clipPath318)"
             id="g316"><path
               id="path322"
               style="fill:#ff7f00;fill-opacity:1;fill-rule:nonzero;stroke:#000000;stroke-width:0.5;stroke-linecap:butt;stroke-linejoin:bevel;stroke-miterlimit:10;stroke-dasharray:none;stroke-opacity:1"
               d="m 0,3 -0.67354195,-2.07294904 -2.17962755,2e-8 1.7633557,-1.28115294 L -1.7633558,-2.427051 0,-1.145898 l 1.7633558,-1.281153 -0.673542,2.07294904 1.7633557,1.28115294 -2.17962755,-2e-8 L 0,3 Z" /></g></g></g><text
         id="text324"
         style="font-variant:normal;font-weight:normal;font-size:9.99600029px;font-family:'Bitstream Vera Sans';-inkscape-font-specification:BitstreamVeraSans-Roman;writing-mode:lr-tb;fill:#000000;fill-opacity:1;fill-rule:nonzero;stroke:none"
         transform="matrix(1,0,0,-1,167.27297,50.524525)"><tspan
           id="tspan326"
           y="0"
           x="0 8.6265478 15.463812 21.4914">MAPT</tspan></text>
<path
         id="path328"
         style="fill:#a65628;fill-opacity:1;fill-rule:nonzero;stroke:#000000;stroke-width:0.5;stroke-linecap:butt;stroke-linejoin:miter;stroke-miterlimit:10;stroke-dasharray:none;stroke-opacity:1"
         d="m 213.76597,117.35887 -2.85316,-2.07294 1.08981,-3.35411 3.52671,0 1.08981,3.35411 -2.85317,2.07294 z" /><text
         id="text330"
         style="font-variant:normal;font-weight:normal;font-size:9.99600029px;font-family:'Bitstream Vera Sans';-inkscape-font-specification:BitstreamVeraSans-Roman;writing-mode:lr-tb;fill:#000000;fill-opacity:1;fill-rule:nonzero;stroke:none"
         transform="matrix(1,0,0,-1,221.26297,110.86028)"><tspan
           id="tspan332"
           y="0"
           x="0 6.8372641 12.94482">ATN</tspan></text>
<path
         id="path334"
         style="fill:#f781bf;fill-opacity:1;fill-rule:nonzero;stroke:#000000;stroke-width:0.5;stroke-linecap:butt;stroke-linejoin:miter;stroke-miterlimit:10;stroke-dasharray:none;stroke-opacity:1"
         d="m 212.26597,102.28708 -1.5,-2.59808 1.5,-2.598076 3,0 1.5,2.598076 -1.5,2.59808 -3,0 z" /><text
         id="text336"
         style="font-variant:normal;font-weight:normal;font-size:9.99600029px;font-family:'Bitstream Vera Sans';-inkscape-font-specification:BitstreamVeraSans-Roman;writing-mode:lr-tb;fill:#000000;fill-opacity:1;fill-rule:nonzero;stroke:none"
         transform="matrix(1,0,0,-1,221.26297,96.1904)"><tspan
           id="tspan338"
           y="0"
           x="0 7.5169921 16.143539 23.89044 27.498997 33.856453">HMG-17</tspan></text>
<path
         id="path340"
         style="fill:#999999;fill-opacity:1;fill-rule:nonzero;stroke:#000000;stroke-width:0.5;stroke-linecap:butt;stroke-linejoin:miter;stroke-miterlimit:10;stroke-dasharray:none;stroke-opacity:1"
         d="m 210.76597,85.019125 6,-3 0,6 -6,-3 z" /><text
         id="text342"
         style="font-variant:normal;font-weight:normal;font-size:9.99600029px;font-family:'Bitstream Vera Sans';-inkscape-font-specification:BitstreamVeraSans-Roman;writing-mode:lr-tb;fill:#000000;fill-opacity:1;fill-rule:nonzero;stroke:none"
         transform="matrix(1,0,0,-1,221.26297,81.520525)"><tspan
           id="tspan344"
           y="0"
           x="0 6.1075559 13.974408 20.001995 27.868849 31.477404">TOPO-1</tspan></text>
<path
         id="path346"
         style="fill:#ffff33;fill-opacity:1;fill-rule:nonzero;stroke:#000000;stroke-width:0.5;stroke-linecap:butt;stroke-linejoin:miter;stroke-miterlimit:10;stroke-dasharray:none;stroke-opacity:1"
         d="m 216.76597,70.34925 -6,3 0,-6 6,3 z" /><text
         id="text348"
         style="font-variant:normal;font-weight:normal;font-size:9.99600029px;font-family:'Bitstream Vera Sans';-inkscape-font-specification:BitstreamVeraSans-Roman;writing-mode:lr-tb;fill:#000000;fill-opacity:1;fill-rule:nonzero;stroke:none"
         transform="matrix(1,0,0,-1,221.26297,66.85065)"><tspan
           id="tspan350"
           y="0"
           x="0 6.3474598 12.375048 19.322268">SPRP</tspan></text>
</g></g></svg>