<?xml version="1.0" encoding="UTF-8" standalone="no"?>
<!-- Created with Inkscape (http://www.inkscape.org/) -->

<svg
   xmlns:dc="http://purl.org/dc/elements/1.1/"
   xmlns:cc="http://creativecommons.org/ns#"
   xmlns:rdf="http://www.w3.org/1999/02/22-rdf-syntax-ns#"
   xmlns:svg="http://www.w3.org/2000/svg"
   xmlns="http://www.w3.org/2000/svg"
   xmlns:sodipodi="http://sodipodi.sourceforge.net/DTD/sodipodi-0.dtd"
   xmlns:inkscape="http://www.inkscape.org/namespaces/inkscape"
   id="svg4999"
   version="1.1"
   inkscape:version="0.91 r13725"
   xml:space="preserve"
   width="227.25"
   height="162"
   viewBox="0 0 227.25 162"
   sodipodi:docname="demo-caging-labeled.svg"><metadata
     id="metadata5005"><rdf:RDF><cc:Work
         rdf:about=""><dc:format>image/svg+xml</dc:format><dc:type
           rdf:resource="http://purl.org/dc/dcmitype/StillImage" /><dc:title></dc:title></cc:Work></rdf:RDF></metadata><defs
     id="defs5003"><marker
       inkscape:stockid="StopM"
       orient="auto"
       refY="0.0"
       refX="0.0"
       id="marker6225"
       style="overflow:visible"
       inkscape:isstock="true"><path
         id="path6227"
         d="M 0.0,5.65 L 0.0,-5.65"
         style="fill:none;fill-opacity:0.75;fill-rule:evenodd;stroke:#000000;stroke-width:1pt;stroke-opacity:1"
         transform="scale(0.4)" /></marker><marker
       inkscape:stockid="StopL"
       orient="auto"
       refY="0.0"
       refX="0.0"
       id="StopL"
       style="overflow:visible"
       inkscape:isstock="true"><path
         id="path6016"
         d="M 0.0,5.65 L 0.0,-5.65"
         style="fill:none;fill-opacity:0.75;fill-rule:evenodd;stroke:#000000;stroke-width:1pt;stroke-opacity:1"
         transform="scale(0.8)" /></marker><marker
       inkscape:stockid="StopM"
       orient="auto"
       refY="0.0"
       refX="0.0"
       id="StopM"
       style="overflow:visible"
       inkscape:isstock="true"><path
         id="path6019"
         d="M 0.0,5.65 L 0.0,-5.65"
         style="fill:none;fill-opacity:0.75;fill-rule:evenodd;stroke:#000000;stroke-width:1pt;stroke-opacity:1"
         transform="scale(0.4)" /></marker><marker
       inkscape:stockid="TriangleInS"
       orient="auto"
       refY="0.0"
       refX="0.0"
       id="TriangleInS"
       style="overflow:visible"
       inkscape:isstock="true"><path
         id="path5986"
         d="M 5.77,0.0 L -2.88,5.0 L -2.88,-5.0 L 5.77,0.0 z "
         style="fill-rule:evenodd;stroke:#000000;stroke-width:1pt;stroke-opacity:1;fill:#000000;fill-opacity:1"
         transform="scale(-0.2)" /></marker><marker
       inkscape:stockid="DiamondSstart"
       orient="auto"
       refY="0.0"
       refX="0.0"
       id="DiamondSstart"
       style="overflow:visible"
       inkscape:isstock="true"><path
         id="path5941"
         d="M 0,-7.0710768 L -7.0710894,0 L 0,7.0710589 L 7.0710462,0 L 0,-7.0710768 z "
         style="fill-rule:evenodd;stroke:#000000;stroke-width:1pt;stroke-opacity:1;fill:#000000;fill-opacity:1"
         transform="scale(0.2) translate(6,0)" /></marker><clipPath
       clipPathUnits="userSpaceOnUse"
       id="clipPath5015"><path
         d="m 7.2,7.2 167.4,0 0,115.2 -167.4,0 0,-115.2 z"
         id="path5017"
         inkscape:connector-curvature="0" /></clipPath><clipPath
       clipPathUnits="userSpaceOnUse"
       id="clipPath5025"><path
         d="m 7.2,7.2 167.4,0 0,115.2 -167.4,0 0,-115.2 z"
         id="path5027"
         inkscape:connector-curvature="0" /></clipPath><clipPath
       clipPathUnits="userSpaceOnUse"
       id="clipPath5035"><path
         d="m 7.2,7.2 167.4,0 0,115.2 -167.4,0 0,-115.2 z"
         id="path5037"
         inkscape:connector-curvature="0" /></clipPath><marker
       inkscape:stockid="StopM"
       orient="auto"
       refY="0"
       refX="0"
       id="marker6225-0"
       style="overflow:visible"
       inkscape:isstock="true"><path
         inkscape:connector-curvature="0"
         id="path6227-9"
         d="M 0,5.65 0,-5.65"
         style="fill:none;fill-opacity:0.75;fill-rule:evenodd;stroke:#000000;stroke-width:1pt;stroke-opacity:1"
         transform="scale(0.4,0.4)" /></marker><marker
       inkscape:stockid="StopM"
       orient="auto"
       refY="0"
       refX="0"
       id="StopM-7"
       style="overflow:visible"
       inkscape:isstock="true"><path
         inkscape:connector-curvature="0"
         id="path6019-5"
         d="M 0,5.65 0,-5.65"
         style="fill:none;fill-opacity:0.75;fill-rule:evenodd;stroke:#000000;stroke-width:1pt;stroke-opacity:1"
         transform="scale(0.4,0.4)" /></marker><marker
       inkscape:stockid="StopM"
       orient="auto"
       refY="0"
       refX="0"
       id="marker6225-0-0"
       style="overflow:visible"
       inkscape:isstock="true"><path
         inkscape:connector-curvature="0"
         id="path6227-9-2"
         d="M 0,5.65 0,-5.65"
         style="fill:none;fill-opacity:0.75;fill-rule:evenodd;stroke:#000000;stroke-width:1pt;stroke-opacity:1"
         transform="scale(0.4,0.4)" /></marker><marker
       inkscape:stockid="StopM"
       orient="auto"
       refY="0"
       refX="0"
       id="StopM-7-6"
       style="overflow:visible"
       inkscape:isstock="true"><path
         inkscape:connector-curvature="0"
         id="path6019-5-4"
         d="M 0,5.65 0,-5.65"
         style="fill:none;fill-opacity:0.75;fill-rule:evenodd;stroke:#000000;stroke-width:1pt;stroke-opacity:1"
         transform="scale(0.4,0.4)" /></marker><filter
       inkscape:label="Opacity"
       style="color-interpolation-filters:sRGB;"
       id="filter7951"><feColorMatrix
         values="1 0 0 0 0 0 1 0 0 0 0 0 1 0 0 0 0 0 1 -0 "
         result="colormatrix"
         id="feColorMatrix7953" /><feComposite
         in2="colormatrix"
         operator="arithmetic"
         k2="0.5"
         result="composite"
         id="feComposite7955" /></filter><filter
       inkscape:label="Opacity"
       style="color-interpolation-filters:sRGB;"
       id="filter7957"><feColorMatrix
         values="1 0 0 0 0 0 1 0 0 0 0 0 1 0 0 0 0 0 1 -0 "
         result="colormatrix"
         id="feColorMatrix7959" /><feComposite
         in2="colormatrix"
         operator="arithmetic"
         k2="0.5"
         result="composite"
         id="feComposite7961" /></filter><filter
       inkscape:label="Opacity"
       style="color-interpolation-filters:sRGB;"
       id="filter7963"><feColorMatrix
         values="1 0 0 0 0 0 1 0 0 0 0 0 1 0 0 0 0 0 1 -0 "
         result="colormatrix"
         id="feColorMatrix7965" /><feComposite
         in2="colormatrix"
         operator="arithmetic"
         k2="0.5"
         result="composite"
         id="feComposite7967" /></filter></defs><sodipodi:namedview
     pagecolor="#ffffff"
     bordercolor="#666666"
     borderopacity="1"
     objecttolerance="10"
     gridtolerance="10"
     guidetolerance="10"
     inkscape:pageopacity="0"
     inkscape:pageshadow="2"
     inkscape:window-width="2560"
     inkscape:window-height="1497"
     id="namedview5001"
     showgrid="false"
     inkscape:zoom="2"
     inkscape:cx="136.45975"
     inkscape:cy="77.860327"
     inkscape:window-x="0"
     inkscape:window-y="55"
     inkscape:window-maximized="1"
     inkscape:current-layer="g5007" /><g
     id="g5007"
     inkscape:groupmode="layer"
     inkscape:label="demo-caging"
     transform="matrix(1.25,0,0,-1.25,0,162)"><g
       id="g5011"
       style="filter:url(#filter7951)"><g
         id="g5013"
         clip-path="url(#clipPath5015)"><path
           d="m 60.199103,26.93085 c 8.800177,0 17.241105,3.496347 23.463769,9.719012 6.222664,6.222664 9.719012,14.663592 9.719012,23.463768 0,8.800177 -3.496348,17.241105 -9.719012,23.463769 -6.222664,6.222665 -14.663592,9.719012 -23.463769,9.719012 -8.800176,0 -17.241104,-3.496347 -23.463768,-9.719012 -6.222665,-6.222664 -9.719012,-14.663592 -9.719012,-23.463769 0,-8.800176 3.496347,-17.241104 9.719012,-23.463768 6.222664,-6.222665 14.663592,-9.719012 23.463768,-9.719012 z"
           style="fill:#984ea3;fill-opacity:0.6;fill-rule:nonzero;stroke:none"
           id="path5019"
           inkscape:connector-curvature="0" /></g></g><g
       id="g5021"
       style="filter:url(#filter7957)"><g
         id="g5023"
         clip-path="url(#clipPath5025)"><path
           d="m 141.41722,40.520955 c 8.80018,0 17.2411,3.496347 23.46377,9.719011 6.22266,6.222664 9.71901,14.663593 9.71901,23.463769 0,8.800176 -3.49635,17.241105 -9.71901,23.463769 -6.22267,6.222666 -14.66359,9.719016 -23.46377,9.719016 -8.80018,0 -17.2411,-3.49635 -23.46377,-9.719016 -6.22266,-6.222664 -9.71901,-14.663593 -9.71901,-23.463769 0,-8.800176 3.49635,-17.241105 9.71901,-23.463769 6.22267,-6.222664 14.66359,-9.719011 23.46377,-9.719011 z"
           style="fill:#984ea3;fill-opacity:0.6;fill-rule:nonzero;stroke:none"
           id="path5029"
           inkscape:connector-curvature="0" /></g></g><g
       id="g5031"
       style="filter:url(#filter7963)"><g
         id="g5033"
         clip-path="url(#clipPath5035)"><path
           d="M 68.999496,72.915696 58.799973,39.83156 48.452407,78.769247 64.544538,48.938018 7.2,56.674034 47.464839,66.852509 67.70063,48.706747 85.825005,36.509801 23.412677,55.222501 51.59142,43.731526 58.718873,72.687051 64.775033,50.33833 58.453505,44.809289 52.557188,50.668135 62.047802,68.756951 47.35437,27.977122 59.324076,56.473003 48.408222,38.428778 82.495234,54.355913 74.384733,56.44136 62.05366,56.336353 61.090244,46.162964 63.910425,39.227309 40.807904,57.791961 60.447523,59.869102 57.81435,42.517573 l 1.665112,-0.496514 -30.967066,-1.473796 43.624517,7.663053 3.329638,8.16642 -29.637664,-5.036656 2.528592,9.543436 27.432779,0.460426 -3.848123,-28.192149 -27.326,25.433782 -1.075762,-26.052344 6.078499,2.270704 -15.576903,5.893347 -1.201298,-17.983797 35.182292,29.314866 -23.236508,1.591056 12.949024,-21.251263 6.786154,5.138594 2.772642,10.169717 L 38.83372,39.0757 54.007134,47.325697 39.833991,66.155599 48.355325,50.306224 32.797744,69.300774 35.398657,67.6245 l 102.698533,0.515872 -20.49399,0.570984 1.56347,15.568391 16.99661,4.15919 10.26312,-26.374707 -11.84626,25.739556 5.94115,8.878948 -38.3737,-17.249381 37.07075,2.744593 3.02799,-16.318298 5.69923,16.893147 -10.40321,3.013026 28.71849,-1.381527 -43.87953,-5.490835 18.44202,-12.727172 -26.67019,-12.381789 0.46427,27.176416 14.72352,7.041579 17.64182,-19.209854 -36.18873,0.227855 23.94893,3.662117 6.8692,25.057665 3.33203,-34.48486 -48.157929,17.560869 39.126859,-9.694824 1.84416,19.398881 -10.58008,-7.556323 -18.10337,2.659841 16.068,-10.09482 -1.42233,-20.062412 7.27682,7.670524 16.82292,19.809873 -16.37488,-2.240623 9.77923,3.094487 -21.13581,-5.328651 27.5985,-17.80759 -30.51656,31.272677 10.96113,-19.806192 6.73951,-1.884734 6.41909,-10.849473 7.45828,18.634428 -1.67441,-1.814208 -23.07795,-20.444173 33.35779,16.655042 -6.5303,10.506303 -21.17789,-10.921593 11.24631,7.0506 -10.35248,5.434649 13.73924,-28.037675 5.68276,18.333043"
           style="fill:none;stroke:#984ea3;stroke-width:2;stroke-linecap:square;stroke-linejoin:round;stroke-miterlimit:10;stroke-dasharray:none;stroke-opacity:1"
           id="path5039"
           inkscape:connector-curvature="0" /></g></g><path
       style="fill:none;fill-rule:evenodd;stroke:#000000;stroke-width:2.4000001;stroke-linecap:butt;stroke-linejoin:miter;stroke-miterlimit:16;stroke-dasharray:none;stroke-opacity:1;marker-start:url(#marker6225);marker-end:url(#StopM)"
       d="m 8.8632622,88.846255 77.9351338,0"
       id="path5041"
       inkscape:connector-curvature="0" /><text
       xml:space="preserve"
       style="font-style:normal;font-weight:normal;font-size:32px;line-height:125%;font-family:Sans;letter-spacing:0px;word-spacing:0px;fill:#000000;fill-opacity:1;stroke:none;stroke-width:1px;stroke-linecap:butt;stroke-linejoin:miter;stroke-opacity:1"
       x="7.219501"
       y="-98.54834"
       id="text6385"
       sodipodi:linespacing="125%"
       transform="scale(1,-1)"><tspan
         sodipodi:role="line"
         id="tspan6387"
         x="7.219501"
         y="-98.54834"
         style="font-size:12px">Stuck in cage</tspan></text>
<path
       style="fill:none;fill-rule:evenodd;stroke:#000000;stroke-width:2.4000001;stroke-linecap:butt;stroke-linejoin:miter;stroke-miterlimit:16;stroke-dasharray:none;stroke-opacity:1;marker-start:url(#marker6225-0);marker-end:url(#StopM-7)"
       d="m 96.020374,94.606628 77.935136,0"
       id="path5041-7"
       inkscape:connector-curvature="0" /><text
       xml:space="preserve"
       style="font-style:normal;font-weight:normal;font-size:32px;line-height:125%;font-family:Sans;letter-spacing:0px;word-spacing:0px;fill:#000000;fill-opacity:1;stroke:none;stroke-width:1px;stroke-linecap:butt;stroke-linejoin:miter;stroke-opacity:1"
       x="93.485992"
       y="-102.77628"
       id="text6385-8"
       sodipodi:linespacing="125%"
       transform="scale(1,-1)"><tspan
         sodipodi:role="line"
         id="tspan6387-6"
         x="93.485992"
         y="-102.77628"
         style="font-size:12px">Stuck in cage</tspan></text>
<path
       style="fill:none;fill-rule:evenodd;stroke:#000000;stroke-width:2.4000001;stroke-linecap:butt;stroke-linejoin:miter;stroke-miterlimit:16;stroke-dasharray:none;stroke-opacity:1;marker-start:url(#marker6225-0-0);marker-end:url(#StopM-7-6)"
       d="m 37.131185,56.748927 104.643235,0"
       id="path5041-7-6"
       inkscape:connector-curvature="0"
       sodipodi:nodetypes="cc" /><text
       xml:space="preserve"
       style="font-style:normal;font-weight:normal;font-size:32px;line-height:125%;font-family:Sans;letter-spacing:0px;word-spacing:0px;fill:#000000;fill-opacity:1;stroke:none;stroke-width:1px;stroke-linecap:butt;stroke-linejoin:miter;stroke-opacity:1"
       x="56.92448"
       y="-41.901539"
       id="text6385-8-6"
       sodipodi:linespacing="125%"
       transform="scale(1,-1)"><tspan
         sodipodi:role="line"
         x="56.92448"
         y="-41.901539"
         style="font-size:12px"
         id="tspan7291">Cage Jump</tspan></text>
</g></svg>