<?xml version="1.0" encoding="utf-8" standalone="no"?>
<!DOCTYPE svg PUBLIC "-//W3C//DTD SVG 1.1//EN"
  "http://www.w3.org/Graphics/SVG/1.1/DTD/svg11.dtd">
<!-- Created with matplotlib (http://matplotlib.org/) -->
<svg height="232pt" version="1.1" viewBox="0 0 282 232" width="282pt" xmlns="http://www.w3.org/2000/svg" xmlns:xlink="http://www.w3.org/1999/xlink">
 <defs>
  <style type="text/css">
*{stroke-linecap:butt;stroke-linejoin:round;}
  </style>
 </defs>
 <g id="figure_1">
  <g id="patch_1">
   <path d="
M0 232.634
L282.547 232.634
L282.547 0
L0 0
z
" style="fill:#ffffff;"/>
  </g>
  <g id="axes_1">
   <g id="patch_2">
    <path d="
M42.4966 194.12
L265.697 194.12
L265.697 21.32
L42.4966 21.32
z
" style="fill:#ffffff;"/>
   </g>
   <g id="line2d_1">
    <path clip-path="url(#p1b866bbbbd)" d="
M42.4966 194.12
L44.7511 194.12
L47.0057 194.001
L49.2602 194.12
L51.5147 194.001
L53.7693 193.764
L56.0238 193.408
L58.2784 193.764
L60.5329 193.17
L62.7875 192.221
L65.042 192.696
L67.2966 191.983
L69.5511 191.39
L71.8057 190.44
L74.0602 191.152
L76.3147 185.811
L78.5693 187.116
L80.8238 183.08
L83.0784 179.163
L85.3329 177.976
L87.5875 170.142
L89.842 166.937
L92.0966 158.271
L94.3511 153.167
L96.6057 143.789
L98.8602 125.271
L101.115 113.519
L103.369 104.616
L105.624 86.0984
L107.878 61.8826
L110.133 59.8646
L112.387 43.9581
L114.642 39.0912
L116.897 33.0373
L119.151 40.9905
L121.406 43.4833
L123.66 56.7783
L125.915 77.6704
L128.169 95.3574
L130.424 104.023
L132.678 129.188
L134.933 142.483
L137.187 153.285
L139.442 164.444
L141.697 170.616
L143.951 176.552
L146.206 182.131
L148.46 184.03
L150.715 182.012
L152.969 185.811
L155.224 184.505
L157.478 187.591
L159.733 189.134
L161.987 191.152
L164.242 193.17
L166.497 193.408
L168.751 193.883
L171.006 194.12
L173.26 194.12
L175.515 194.12
L177.769 194.12
L180.024 194.12
L182.278 194.12
L184.533 194.12
L186.787 194.12
L189.042 194.12
L191.297 194.12
L193.551 194.12
L195.806 194.12
L198.06 194.12
L200.315 194.12
L202.569 194.12
L204.824 194.12
L207.078 194.12
L209.333 194.12
L211.587 194.12
L213.842 194.12
L216.097 194.12
L218.351 194.12
L220.606 194.12
L222.86 194.12
L225.115 194.12
L227.369 194.12
L229.624 194.12
L231.878 194.12
L234.133 194.12
L236.387 194.12
L238.642 194.12
L240.897 194.12
L243.151 194.12
L245.406 194.12
L247.66 194.12
L249.915 194.12
L252.169 194.12
L254.424 194.12
L256.678 194.12
L258.933 194.12
L261.187 194.12
L263.442 194.12
L265.697 194.12
L265.697 194.12" style="fill:none;stroke:#4daf4a;stroke-linecap:square;stroke-width:2.0;"/>
   </g>
   <g id="line2d_2">
    <path clip-path="url(#p1b866bbbbd)" d="
M42.4966 194.12
L44.7511 194.001
L47.0057 193.764
L49.2602 193.882
L51.5147 193.882
L53.7693 193.526
L56.0238 193.882
L58.2784 193.645
L60.5329 192.575
L62.7875 192.813
L65.042 192.219
L67.2966 192.338
L69.5511 191.506
L71.8057 191.269
L74.0602 190.08
L76.3147 188.417
L78.5693 185.803
L80.8238 186.041
L83.0784 182.833
L85.3329 177.13
L87.5875 172.496
L89.842 167.506
L92.0966 161.566
L94.3511 152.536
L96.6057 145.407
L98.8602 130.437
L101.115 122.001
L103.369 102.991
L105.624 86.0012
L107.878 74.2388
L110.133 52.4962
L112.387 49.7636
L114.642 41.0903
L116.897 31.4665
L119.151 32.5358
L121.406 45.0111
L123.66 54.0408
L125.915 66.2784
L128.169 87.0705
L130.424 110.001
L132.678 130.912
L134.933 142.318
L137.187 157.645
L139.442 164.892
L141.697 170.833
L143.951 176.417
L146.206 178.556
L148.46 180.575
L150.715 183.189
L152.969 182.001
L155.224 181.882
L157.478 183.546
L159.733 188.061
L161.987 189.962
L164.242 193.17
L166.497 193.051
L168.751 193.526
L171.006 194.12
L173.26 193.882
L175.515 194.12
L177.769 194.001
L180.024 194.12
L182.278 194.12
L184.533 194.12
L186.787 194.12
L189.042 194.12
L191.297 194.12
L193.551 194.12
L195.806 194.12
L198.06 194.12
L200.315 194.12
L202.569 194.12
L204.824 194.12
L207.078 194.12
L209.333 194.12
L211.587 194.12
L213.842 194.12
L216.097 194.12
L218.351 194.12
L220.606 194.12
L222.86 194.12
L225.115 194.12
L227.369 194.12
L229.624 194.12
L231.878 194.12
L234.133 194.12
L236.387 194.12
L238.642 194.12
L240.897 194.12
L243.151 194.12
L245.406 194.12
L247.66 194.12
L249.915 194.12
L252.169 194.12
L254.424 194.12
L256.678 194.12
L258.933 194.12
L261.187 194.12
L263.442 194.12
L265.697 194.12
L265.697 194.12" style="fill:none;stroke:#459d72;stroke-linecap:square;stroke-width:2.0;"/>
   </g>
   <g id="line2d_3">
    <path clip-path="url(#p1b866bbbbd)" d="
M42.4966 194.12
L44.7511 194.12
L47.0057 194.002
L49.2602 194.002
L51.5147 194.002
L53.7693 193.884
L56.0238 193.293
L58.2784 193.411
L60.5329 193.411
L62.7875 193.175
L65.042 192.466
L67.2966 192.348
L69.5511 190.694
L71.8057 190.931
L74.0602 190.576
L76.3147 188.096
L78.5693 187.86
L80.8238 184.316
L83.0784 180.89
L85.3329 176.048
L87.5875 173.921
L89.842 168.96
L92.0966 160.574
L94.3511 154.313
L96.6057 142.619
L98.8602 127.618
L101.115 116.869
L103.369 99.3871
L105.624 91.8274
L107.878 77.2985
L110.133 66.3133
L112.387 53.32
L114.642 41.9804
L116.897 36.0744
L119.151 39.9723
L121.406 52.4932
L123.66 60.7616
L125.915 79.1885
L128.169 92.5361
L130.424 106.356
L132.678 120.058
L134.933 140.021
L137.187 150.297
L139.442 165.889
L141.697 166.834
L143.951 173.803
L146.206 176.874
L148.46 178.528
L150.715 178.41
L152.969 180.536
L155.224 177.701
L157.478 180.654
L159.733 183.607
L161.987 187.741
L164.242 190.458
L166.497 191.403
L168.751 193.057
L171.006 193.648
L173.26 193.648
L175.515 194.002
L177.769 194.12
L180.024 194.12
L182.278 194.12
L184.533 194.12
L186.787 194.12
L189.042 194.12
L191.297 194.12
L193.551 194.12
L195.806 194.12
L198.06 194.12
L200.315 194.12
L202.569 194.12
L204.824 194.12
L207.078 194.12
L209.333 194.12
L211.587 194.12
L213.842 194.12
L216.097 194.12
L218.351 194.12
L220.606 194.12
L222.86 194.12
L225.115 194.12
L227.369 194.12
L229.624 194.12
L231.878 194.12
L234.133 194.12
L236.387 194.12
L238.642 194.12
L240.897 194.12
L243.151 194.12
L245.406 194.12
L247.66 194.12
L249.915 194.12
L252.169 194.12
L254.424 194.12
L256.678 194.12
L258.933 194.12
L261.187 194.12
L263.442 194.12
L265.697 194.12
L265.697 194.12" style="fill:none;stroke:#3d8c99;stroke-linecap:square;stroke-width:2.0;"/>
   </g>
   <g id="line2d_4">
    <path clip-path="url(#p1b866bbbbd)" d="
M42.4966 194.12
L44.7511 194.001
L47.0057 194.12
L49.2602 193.882
L51.5147 193.882
L53.7693 193.882
L56.0238 193.645
L58.2784 193.526
L60.5329 193.526
L62.7875 192.575
L65.042 192.694
L67.2966 192.338
L69.5511 192.219
L71.8057 190.674
L74.0602 189.724
L76.3147 187.11
L78.5693 187.941
L80.8238 185.446
L83.0784 183.545
L85.3329 179.505
L87.5875 176.773
L89.842 169.049
L92.0966 164.772
L94.3511 154.91
L96.6057 146.118
L98.8602 138.157
L101.115 123.067
L103.369 112.967
L105.624 91.3426
L107.878 78.2726
L110.133 62.1134
L112.387 54.3902
L114.642 39.4192
L116.897 28.488
L119.151 38.231
L121.406 46.1918
L123.66 53.915
L125.915 70.193
L128.169 87.184
L130.424 105.244
L132.678 124.612
L134.933 142.197
L137.187 152.771
L139.442 163.584
L141.697 172.495
L143.951 174.396
L146.206 174.277
L148.46 177.842
L150.715 176.416
L152.969 178.317
L155.224 176.773
L157.478 177.367
L159.733 180.931
L161.987 187.466
L164.242 189.605
L166.497 190.793
L168.751 192.1
L171.006 193.051
L173.26 193.407
L175.515 194.001
L177.769 193.882
L180.024 194.12
L182.278 194.001
L184.533 194.12
L186.787 194.12
L189.042 194.12
L191.297 194.12
L193.551 194.12
L195.806 194.12
L198.06 194.12
L200.315 194.12
L202.569 194.12
L204.824 194.12
L207.078 194.12
L209.333 194.12
L211.587 194.12
L213.842 194.12
L216.097 194.12
L218.351 194.12
L220.606 194.12
L222.86 194.12
L225.115 194.12
L227.369 194.12
L229.624 194.12
L231.878 194.12
L234.133 194.12
L236.387 194.12
L238.642 194.12
L240.897 194.12
L243.151 194.12
L245.406 194.12
L247.66 194.12
L249.915 194.12
L252.169 194.12
L254.424 194.12
L256.678 194.12
L258.933 194.12
L261.187 194.12
L263.442 194.12
L265.697 194.12
L265.697 194.12" style="fill:none;stroke:#3f7ab6;stroke-linecap:square;stroke-width:2.0;"/>
   </g>
   <g id="line2d_5">
    <path clip-path="url(#p1b866bbbbd)" d="
M42.4966 194.12
L44.7511 194.12
L47.0057 194.12
L49.2602 193.763
L51.5147 193.882
L53.7693 194.001
L56.0238 193.882
L58.2784 193.763
L60.5329 193.763
L62.7875 193.288
L65.042 191.981
L67.2966 191.624
L69.5511 192.219
L71.8057 191.743
L74.0602 190.555
L76.3147 189.129
L78.5693 188.416
L80.8238 186.633
L83.0784 183.187
L85.3329 179.979
L87.5875 176.77
L89.842 173.205
L92.0966 162.747
L94.3511 156.449
L96.6057 149.081
L98.8602 136.128
L101.115 125.671
L103.369 112.48
L105.624 99.5268
L107.878 91.5648
L110.133 73.0265
L112.387 66.6093
L114.642 51.5172
L116.897 40.5843
L119.151 34.6426
L121.406 49.7347
L123.66 62.2124
L125.915 72.3135
L128.169 93.3474
L130.424 99.5268
L132.678 125.076
L134.933 139.456
L137.187 151.815
L139.442 160.371
L141.697 166.55
L143.951 168.808
L146.206 172.017
L148.46 175.225
L150.715 172.73
L152.969 171.66
L155.224 164.768
L157.478 162.747
L159.733 169.402
L161.987 179.741
L164.242 185.326
L166.497 187.703
L168.751 189.723
L171.006 191.743
L173.26 192.932
L175.515 192.813
L177.769 194.001
L180.024 193.645
L182.278 194.001
L184.533 194.12
L186.787 194.12
L189.042 194.12
L191.297 194.12
L193.551 194.12
L195.806 194.12
L198.06 194.12
L200.315 194.12
L202.569 194.12
L204.824 194.12
L207.078 194.12
L209.333 194.12
L211.587 194.12
L213.842 194.12
L216.097 194.12
L218.351 194.12
L220.606 194.12
L222.86 194.12
L225.115 194.12
L227.369 194.12
L229.624 194.12
L231.878 194.12
L234.133 194.12
L236.387 194.12
L238.642 194.12
L240.897 194.12
L243.151 194.12
L245.406 194.12
L247.66 194.12
L249.915 194.12
L252.169 194.12
L254.424 194.12
L256.678 194.12
L258.933 194.12
L261.187 194.12
L263.442 194.12
L265.697 194.12
L265.697 194.12" style="fill:none;stroke:#6468ae;stroke-linecap:square;stroke-width:2.0;"/>
   </g>
   <g id="line2d_6">
    <path clip-path="url(#p1b866bbbbd)" d="
M42.4966 194.12
L44.7511 194.12
L47.0057 193.885
L49.2602 193.885
L51.5147 193.885
L53.7693 194.002
L56.0238 193.414
L58.2784 193.649
L60.5329 193.414
L62.7875 194.002
L65.042 193.767
L67.2966 192.12
L69.5511 191.767
L71.8057 191.179
L74.0602 189.061
L76.3147 189.296
L78.5693 189.061
L80.8238 185.884
L83.0784 182.001
L85.3329 179.883
L87.5875 176.236
L89.842 175.059
L92.0966 166.941
L94.3511 161.646
L96.6057 149.645
L98.8602 141.997
L101.115 126.937
L103.369 115.759
L105.624 105.994
L107.878 86.6976
L110.133 84.1091
L112.387 64.3424
L114.642 64.3424
L116.897 53.6355
L119.151 50.1057
L121.406 58.2242
L123.66 65.519
L125.915 84.6974
L128.169 94.9337
L130.424 109.994
L132.678 121.878
L134.933 134.82
L137.187 147.998
L139.442 157.293
L141.697 159.411
L143.951 165.058
L146.206 169.882
L148.46 170.353
L150.715 169.176
L152.969 163.529
L155.224 152.822
L157.478 152.116
L159.733 159.293
L161.987 173.294
L164.242 179.648
L166.497 180.942
L168.751 186.119
L171.006 187.766
L173.26 190.12
L175.515 192.59
L177.769 192.943
L180.024 193.649
L182.278 193.885
L184.533 194.12
L186.787 194.002
L189.042 194.002
L191.297 194.12
L193.551 194.12
L195.806 194.12
L198.06 194.12
L200.315 194.12
L202.569 194.12
L204.824 194.12
L207.078 194.12
L209.333 194.12
L211.587 194.12
L213.842 194.12
L216.097 194.12
L218.351 194.12
L220.606 194.12
L222.86 194.12
L225.115 194.12
L227.369 194.12
L229.624 194.12
L231.878 194.12
L234.133 194.12
L236.387 194.12
L238.642 194.12
L240.897 194.12
L243.151 194.12
L245.406 194.12
L247.66 194.12
L249.915 194.12
L252.169 194.12
L254.424 194.12
L256.678 194.12
L258.933 194.12
L261.187 194.12
L263.442 194.12
L265.697 194.12
L265.697 194.12" style="fill:none;stroke:#8757a7;stroke-linecap:square;stroke-width:2.0;"/>
   </g>
   <g id="line2d_7">
    <path clip-path="url(#p1b866bbbbd)" d="
M42.4966 194.12
L44.7511 194.001
L47.0057 194.12
L49.2602 194.12
L51.5147 194.12
L53.7693 193.407
L56.0238 193.764
L58.2784 193.764
L60.5329 193.288
L62.7875 193.526
L65.042 192.813
L67.2966 192.932
L69.5511 191.506
L71.8057 191.269
L74.0602 191.269
L76.3147 189.843
L78.5693 189.012
L80.8238 187.348
L83.0784 184.497
L85.3329 182.715
L87.5875 179.27
L89.842 174.518
L92.0966 168.934
L94.3511 157.648
L96.6057 159.074
L98.8602 142.68
L101.115 132.463
L103.369 129.018
L105.624 114.049
L107.878 94.328
L110.133 84.9428
L112.387 77.4584
L114.642 60.9452
L116.897 59.282
L119.151 56.0744
L121.406 66.0536
L123.66 73.6568
L125.915 85.7744
L128.169 98.486
L130.424 105.376
L132.678 120.939
L134.933 139.947
L137.187 149.095
L139.442 151.59
L141.697 162.994
L143.951 167.152
L146.206 168.697
L148.46 167.984
L150.715 163.232
L152.969 155.035
L155.224 145.412
L157.478 135.908
L159.733 149.095
L161.987 162.519
L164.242 170.954
L166.497 176.419
L168.751 178.082
L171.006 184.854
L173.26 185.804
L175.515 189.487
L177.769 191.982
L180.024 192.576
L182.278 193.288
L184.533 193.526
L186.787 193.882
L189.042 194.001
L191.297 194.12
L193.551 194.12
L195.806 194.12
L198.06 194.12
L200.315 194.12
L202.569 194.12
L204.824 194.12
L207.078 194.12
L209.333 194.12
L211.587 194.12
L213.842 194.12
L216.097 194.12
L218.351 194.12
L220.606 194.12
L222.86 194.12
L225.115 194.12
L227.369 194.12
L229.624 194.12
L231.878 194.12
L234.133 194.12
L236.387 194.12
L238.642 194.12
L240.897 194.12
L243.151 194.12
L245.406 194.12
L247.66 194.12
L249.915 194.12
L252.169 194.12
L254.424 194.12
L256.678 194.12
L258.933 194.12
L261.187 194.12
L263.442 194.12
L265.697 194.12
L265.697 194.12" style="fill:none;stroke:#a6458b;stroke-linecap:square;stroke-width:2.0;"/>
   </g>
   <g id="line2d_8">
    <path clip-path="url(#p1b866bbbbd)" d="
M42.4966 194.12
L44.7511 194.004
L47.0057 194.004
L49.2602 193.771
L51.5147 193.654
L53.7693 193.654
L56.0238 193.887
L58.2784 193.305
L60.5329 193.421
L62.7875 192.722
L65.042 193.538
L67.2966 192.839
L69.5511 192.839
L71.8057 192.14
L74.0602 191.557
L76.3147 188.878
L78.5693 188.878
L80.8238 187.48
L83.0784 186.198
L85.3329 183.985
L87.5875 178.044
L89.842 170.938
L92.0966 171.404
L94.3511 163.366
L96.6057 154.512
L98.8602 143.562
L101.115 139.485
L103.369 130.282
L105.624 121.894
L107.878 102.207
L110.133 92.1882
L112.387 83.6842
L114.642 73.4328
L116.897 74.0153
L119.151 65.5113
L121.406 65.0453
L123.66 79.8399
L125.915 91.7223
L128.169 102.789
L130.424 118.399
L132.678 129.583
L134.933 139.135
L137.187 141.465
L139.442 153.58
L141.697 161.968
L143.951 162.434
L146.206 163.482
L148.46 165.579
L150.715 159.172
L152.969 151.483
L155.224 134.126
L157.478 128.301
L159.733 135.291
L161.987 150.318
L164.242 164.647
L166.497 166.162
L168.751 171.87
L171.006 177.112
L173.26 183.17
L175.515 185.732
L177.769 190.392
L180.024 190.043
L182.278 192.722
L184.533 193.305
L186.787 193.771
L189.042 194.004
L191.297 194.004
L193.551 194.12
L195.806 194.12
L198.06 194.12
L200.315 194.12
L202.569 194.12
L204.824 194.12
L207.078 194.12
L209.333 194.12
L211.587 194.12
L213.842 194.12
L216.097 194.12
L218.351 194.12
L220.606 194.12
L222.86 194.12
L225.115 194.12
L227.369 194.12
L229.624 194.12
L231.878 194.12
L234.133 194.12
L236.387 194.12
L238.642 194.12
L240.897 194.12
L243.151 194.12
L245.406 194.12
L247.66 194.12
L249.915 194.12
L252.169 194.12
L254.424 194.12
L256.678 194.12
L258.933 194.12
L261.187 194.12
L263.442 194.12
L265.697 194.12
L265.697 194.12" style="fill:none;stroke:#c1325a;stroke-linecap:square;stroke-width:2.0;"/>
   </g>
   <g id="line2d_9">
    <path clip-path="url(#p1b866bbbbd)" d="
M42.4966 194.12
L44.7511 194.12
L47.0057 194.001
L49.2602 194.001
L51.5147 193.764
L53.7693 193.645
L56.0238 193.764
L58.2784 194.001
L60.5329 193.288
L62.7875 193.526
L65.042 192.694
L67.2966 192.694
L69.5511 192.457
L71.8057 190.675
L74.0602 191.031
L76.3147 190.081
L78.5693 189.011
L80.8238 188.893
L83.0784 184.378
L85.3329 183.19
L87.5875 180.101
L89.842 180.22
L92.0966 173.567
L94.3511 169.052
L96.6057 160.736
L98.8602 154.676
L101.115 141.489
L103.369 131.747
L105.624 124.737
L107.878 105.847
L110.133 90.64
L112.387 93.9666
L114.642 79.3535
L116.897 71.3935
L119.151 76.8585
L121.406 78.0466
L123.66 80.5415
L125.915 87.9075
L128.169 103.709
L130.424 118.203
L132.678 129.133
L134.933 137.806
L137.187 147.904
L139.442 155.033
L141.697 162.993
L143.951 163.706
L146.206 165.25
L148.46 160.617
L150.715 154.201
L152.969 147.31
L155.224 123.312
L157.478 122.242
L159.733 124.381
L161.987 144.934
L164.242 157.053
L166.497 163.468
L168.751 166.082
L171.006 170.478
L173.26 176.774
L175.515 183.071
L177.769 186.279
L180.024 188.299
L182.278 190.437
L184.533 192.576
L186.787 192.932
L189.042 194.001
L191.297 193.882
L193.551 194.001
L195.806 194.12
L198.06 194.001
L200.315 194.12
L202.569 194.12
L204.824 194.12
L207.078 194.12
L209.333 194.12
L211.587 194.12
L213.842 194.12
L216.097 194.12
L218.351 194.12
L220.606 194.12
L222.86 194.12
L225.115 194.12
L227.369 194.12
L229.624 194.12
L231.878 194.12
L234.133 194.12
L236.387 194.12
L238.642 194.12
L240.897 194.12
L243.151 194.12
L245.406 194.12
L247.66 194.12
L249.915 194.12
L252.169 194.12
L254.424 194.12
L256.678 194.12
L258.933 194.12
L261.187 194.12
L263.442 194.12
L265.697 194.12
L265.697 194.12" style="fill:none;stroke:#de1e27;stroke-linecap:square;stroke-width:2.0;"/>
   </g>
   <g id="line2d_10">
    <path clip-path="url(#p1b866bbbbd)" d="
M42.4966 194.12
L44.7511 194.12
L47.0057 194.001
L49.2602 194.12
L51.5147 194.001
L53.7693 193.882
L56.0238 193.764
L58.2784 193.764
L60.5329 193.882
L62.7875 193.407
L65.042 193.288
L67.2966 193.288
L69.5511 193.17
L71.8057 192.219
L74.0602 192.338
L76.3147 190.556
L78.5693 189.724
L80.8238 188.774
L83.0784 187.111
L85.3329 184.26
L87.5875 182.834
L89.842 179.27
L92.0966 176.775
L94.3511 170.954
L96.6057 167.39
L98.8602 160.5
L101.115 152.778
L103.369 146.362
L105.624 134.482
L107.878 125.216
L110.133 114.168
L112.387 108.822
L114.642 102.288
L116.897 90.4076
L119.151 91.8332
L121.406 105.258
L123.66 107.277
L125.915 103.594
L128.169 119.514
L130.424 121.771
L132.678 130.681
L134.933 148.263
L137.187 153.372
L139.442 159.074
L141.697 160.856
L143.951 160.975
L146.206 158.955
L148.46 153.609
L150.715 150.996
L152.969 136.977
L155.224 109.534
L157.478 93.8528
L159.733 103.832
L161.987 118.207
L164.242 128.424
L166.497 141.373
L168.751 145.65
L171.006 150.996
L173.26 154.797
L175.515 165.489
L177.769 174.399
L180.024 180.22
L182.278 182.359
L184.533 186.517
L186.787 191.744
L189.042 191.625
L191.297 192.932
L193.551 193.288
L195.806 194.12
L198.06 194.001
L200.315 194.12
L202.569 194.12
L204.824 194.12
L207.078 194.12
L209.333 194.12
L211.587 194.12
L213.842 194.12
L216.097 194.12
L218.351 194.12
L220.606 194.12
L222.86 194.12
L225.115 194.12
L227.369 194.12
L229.624 194.12
L231.878 194.12
L234.133 194.12
L236.387 194.12
L238.642 194.12
L240.897 194.12
L243.151 194.12
L245.406 194.12
L247.66 194.12
L249.915 194.12
L252.169 194.12
L254.424 194.12
L256.678 194.12
L258.933 194.12
L261.187 194.12
L263.442 194.12
L265.697 194.12
L265.697 194.12" style="fill:none;stroke:#ec3614;stroke-linecap:square;stroke-width:2.0;"/>
   </g>
   <g id="line2d_11">
    <path clip-path="url(#p1b866bbbbd)" d="
M42.4966 194.12
L44.7511 194.013
L47.0057 194.013
L49.2602 194.12
L51.5147 193.906
L53.7693 193.799
L56.0238 194.013
L58.2784 193.906
L60.5329 194.013
L62.7875 193.371
L65.042 193.585
L67.2966 193.585
L69.5511 192.515
L71.8057 192.194
L74.0602 192.836
L76.3147 191.444
L78.5693 189.946
L80.8238 190.909
L83.0784 187.912
L85.3329 187.377
L87.5875 183.952
L89.842 183.31
L92.0966 176.996
L94.3511 176.032
L96.6057 168.648
L98.8602 162.975
L101.115 157.41
L103.369 149.704
L105.624 143.389
L107.878 134.185
L110.133 129.262
L112.387 121.128
L114.642 112.672
L116.897 111.281
L119.151 108.391
L121.406 109.141
L123.66 116.204
L125.915 115.776
L128.169 123.803
L130.424 138.894
L132.678 143.175
L134.933 144.031
L137.187 156.554
L139.442 158.373
L141.697 162.547
L143.951 163.617
L146.206 159.871
L148.46 155.162
L150.715 147.349
L152.969 125.623
L155.224 103.468
L157.478 87.6281
L159.733 92.7654
L161.987 111.174
L164.242 123.589
L166.497 127.977
L168.751 128.726
L171.006 130.011
L173.26 137.182
L175.515 146.707
L177.769 159.871
L180.024 169.397
L182.278 176.461
L184.533 181.598
L186.787 185.344
L189.042 188.126
L191.297 191.23
L193.551 192.729
L195.806 193.692
L198.06 193.799
L200.315 194.013
L202.569 194.12
L204.824 194.12
L207.078 194.12
L209.333 194.12
L211.587 194.12
L213.842 194.12
L216.097 194.12
L218.351 194.12
L220.606 194.12
L222.86 194.12
L225.115 194.12
L227.369 194.12
L229.624 194.12
L231.878 194.12
L234.133 194.12
L236.387 194.12
L238.642 194.12
L240.897 194.12
L243.151 194.12
L245.406 194.12
L247.66 194.12
L249.915 194.12
L252.169 194.12
L254.424 194.12
L256.678 194.12
L258.933 194.12
L261.187 194.12
L263.442 194.12
L265.697 194.12
L265.697 194.12" style="fill:none;stroke:#f55b0a;stroke-linecap:square;stroke-width:2.0;"/>
   </g>
   <g id="line2d_12">
    <path clip-path="url(#p1b866bbbbd)" d="
M42.4966 194.12
L44.7511 194.12
L47.0057 194.12
L49.2602 194.061
L51.5147 194.001
L53.7693 194.12
L56.0238 193.942
L58.2784 194.001
L60.5329 193.942
L62.7875 193.942
L65.042 193.288
L67.2966 193.585
L69.5511 193.11
L71.8057 192.813
L74.0602 193.051
L76.3147 191.506
L78.5693 191.328
L80.8238 190.734
L83.0784 189.843
L85.3329 188.774
L87.5875 185.626
L89.842 183.784
L92.0966 181.705
L94.3511 177.25
L96.6057 175.409
L98.8602 169.468
L101.115 160.736
L103.369 160.202
L105.624 150.935
L107.878 146.836
L110.133 141.55
L112.387 134.125
L114.642 125.571
L116.897 122.838
L119.151 126.878
L121.406 122.482
L123.66 127.769
L125.915 132.996
L128.169 139.708
L130.424 143.51
L132.678 153.727
L134.933 158.836
L137.187 162.162
L139.442 163.944
L141.697 164.835
L143.951 165.132
L146.206 163.647
L148.46 158.479
L150.715 150.044
L152.969 129.729
L155.224 98.4242
L157.478 79.4157
L159.733 85.7717
L161.987 100.8
L164.242 112.799
L166.497 116.363
L168.751 109.77
L171.006 106.919
L173.26 115.769
L175.515 129.432
L177.769 137.273
L180.024 146.777
L182.278 157.766
L184.533 164.835
L186.787 173.329
L189.042 180.814
L191.297 185.507
L193.551 188.061
L195.806 191.982
L198.06 193.051
L200.315 193.764
L202.569 193.764
L204.824 194.061
L207.078 194.12
L209.333 194.12
L211.587 194.12
L213.842 194.12
L216.097 194.12
L218.351 194.12
L220.606 194.12
L222.86 194.12
L225.115 194.12
L227.369 194.12
L229.624 194.12
L231.878 194.12
L234.133 194.12
L236.387 194.12
L238.642 194.12
L240.897 194.12
L243.151 194.12
L245.406 194.12
L247.66 194.12
L249.915 194.12
L252.169 194.12
L254.424 194.12
L256.678 194.12
L258.933 194.12
L261.187 194.12
L263.442 194.12
L265.697 194.12
L265.697 194.12" style="fill:none;stroke:#ff7f00;stroke-linecap:square;stroke-width:2.0;"/>
   </g>
   <g id="patch_3">
    <path d="
M42.4966 194.12
L42.4966 21.32" style="fill:none;stroke:#000000;stroke-linecap:square;stroke-linejoin:miter;"/>
   </g>
   <g id="patch_4">
    <path d="
M42.4966 21.32
L265.697 21.32" style="fill:none;stroke:#000000;stroke-linecap:square;stroke-linejoin:miter;"/>
   </g>
   <g id="patch_5">
    <path d="
M42.4966 194.12
L265.697 194.12" style="fill:none;stroke:#000000;stroke-linecap:square;stroke-linejoin:miter;"/>
   </g>
   <g id="patch_6">
    <path d="
M265.697 194.12
L265.697 21.32" style="fill:none;stroke:#000000;stroke-linecap:square;stroke-linejoin:miter;"/>
   </g>
   <g id="matplotlib.axis_1">
    <g id="xtick_1">
     <g id="line2d_13">
      <defs>
       <path d="
M0 0
L0 -4" id="mc7db9fdffb" style="stroke:#000000;stroke-width:0.5;"/>
      </defs>
      <g>
       <use style="stroke:#000000;stroke-width:0.5;" x="42.4965625" xlink:href="#mc7db9fdffb" y="194.12"/>
      </g>
     </g>
     <g id="line2d_14">
      <defs>
       <path d="
M0 0
L0 4" id="m5a7d422ac3" style="stroke:#000000;stroke-width:0.5;"/>
      </defs>
      <g>
       <use style="stroke:#000000;stroke-width:0.5;" x="42.4965625" xlink:href="#m5a7d422ac3" y="21.32"/>
      </g>
     </g>
     <g id="text_1">
      <!-- $\mathdefault{10^{-2}}$ -->
      <defs>
       <path d="
M31.7812 66.4062
Q24.1719 66.4062 20.3281 58.9062
Q16.5 51.4219 16.5 36.375
Q16.5 21.3906 20.3281 13.8906
Q24.1719 6.39062 31.7812 6.39062
Q39.4531 6.39062 43.2812 13.8906
Q47.125 21.3906 47.125 36.375
Q47.125 51.4219 43.2812 58.9062
Q39.4531 66.4062 31.7812 66.4062
M31.7812 74.2188
Q44.0469 74.2188 50.5156 64.5156
Q56.9844 54.8281 56.9844 36.375
Q56.9844 17.9688 50.5156 8.26562
Q44.0469 -1.42188 31.7812 -1.42188
Q19.5312 -1.42188 13.0625 8.26562
Q6.59375 17.9688 6.59375 36.375
Q6.59375 54.8281 13.0625 64.5156
Q19.5312 74.2188 31.7812 74.2188" id="BitstreamVeraSans-Roman-30"/>
       <path d="
M12.4062 8.29688
L28.5156 8.29688
L28.5156 63.9219
L10.9844 60.4062
L10.9844 69.3906
L28.4219 72.9062
L38.2812 72.9062
L38.2812 8.29688
L54.3906 8.29688
L54.3906 0
L12.4062 0
z
" id="BitstreamVeraSans-Roman-31"/>
       <path d="
M4.89062 31.3906
L31.2031 31.3906
L31.2031 23.3906
L4.89062 23.3906
z
" id="BitstreamVeraSans-Roman-2d"/>
       <path d="
M19.1875 8.29688
L53.6094 8.29688
L53.6094 0
L7.32812 0
L7.32812 8.29688
Q12.9375 14.1094 22.625 23.8906
Q32.3281 33.6875 34.8125 36.5312
Q39.5469 41.8438 41.4219 45.5312
Q43.3125 49.2188 43.3125 52.7812
Q43.3125 58.5938 39.2344 62.25
Q35.1562 65.9219 28.6094 65.9219
Q23.9688 65.9219 18.8125 64.3125
Q13.6719 62.7031 7.8125 59.4219
L7.8125 69.3906
Q13.7656 71.7812 18.9375 73
Q24.125 74.2188 28.4219 74.2188
Q39.75 74.2188 46.4844 68.5469
Q53.2188 62.8906 53.2188 53.4219
Q53.2188 48.9219 51.5312 44.8906
Q49.8594 40.875 45.4062 35.4062
Q44.1875 33.9844 37.6406 27.2188
Q31.1094 20.4531 19.1875 8.29688" id="BitstreamVeraSans-Roman-32"/>
      </defs>
      <g transform="translate(31.5465625 206.7403125)scale(0.1 -0.1)">
       <use transform="translate(0.0 0.546875)" xlink:href="#BitstreamVeraSans-Roman-31"/>
       <use transform="translate(63.623046875 0.546875)" xlink:href="#BitstreamVeraSans-Roman-30"/>
       <use transform="translate(127.24609375 53.046875)scale(0.7)" xlink:href="#BitstreamVeraSans-Roman-2d"/>
       <use transform="translate(152.5048828125 53.046875)scale(0.7)" xlink:href="#BitstreamVeraSans-Roman-32"/>
      </g>
     </g>
    </g>
    <g id="xtick_2">
     <g id="line2d_15">
      <g>
       <use style="stroke:#000000;stroke-width:0.5;" x="98.2965625" xlink:href="#mc7db9fdffb" y="194.12"/>
      </g>
     </g>
     <g id="line2d_16">
      <g>
       <use style="stroke:#000000;stroke-width:0.5;" x="98.2965625" xlink:href="#m5a7d422ac3" y="21.32"/>
      </g>
     </g>
     <g id="text_2">
      <!-- $\mathdefault{10^{-1}}$ -->
      <g transform="translate(87.3465625 206.6403125)scale(0.1 -0.1)">
       <use transform="translate(0.0 0.46562500000000284)" xlink:href="#BitstreamVeraSans-Roman-31"/>
       <use transform="translate(63.623046875 0.46562500000000284)" xlink:href="#BitstreamVeraSans-Roman-30"/>
       <use transform="translate(127.24609375 52.965625)scale(0.7)" xlink:href="#BitstreamVeraSans-Roman-2d"/>
       <use transform="translate(152.5048828125 52.965625)scale(0.7)" xlink:href="#BitstreamVeraSans-Roman-31"/>
      </g>
     </g>
    </g>
    <g id="xtick_3">
     <g id="line2d_17">
      <g>
       <use style="stroke:#000000;stroke-width:0.5;" x="154.0965625" xlink:href="#mc7db9fdffb" y="194.12"/>
      </g>
     </g>
     <g id="line2d_18">
      <g>
       <use style="stroke:#000000;stroke-width:0.5;" x="154.0965625" xlink:href="#m5a7d422ac3" y="21.32"/>
      </g>
     </g>
     <g id="text_3">
      <!-- $\mathdefault{10^{0}}$ -->
      <g transform="translate(144.4465625 206.7403125)scale(0.1 -0.1)">
       <use transform="translate(0.0 0.546875)" xlink:href="#BitstreamVeraSans-Roman-31"/>
       <use transform="translate(63.623046875 0.546875)" xlink:href="#BitstreamVeraSans-Roman-30"/>
       <use transform="translate(127.24609375 53.046875)scale(0.7)" xlink:href="#BitstreamVeraSans-Roman-30"/>
      </g>
     </g>
    </g>
    <g id="xtick_4">
     <g id="line2d_19">
      <g>
       <use style="stroke:#000000;stroke-width:0.5;" x="209.8965625" xlink:href="#mc7db9fdffb" y="194.12"/>
      </g>
     </g>
     <g id="line2d_20">
      <g>
       <use style="stroke:#000000;stroke-width:0.5;" x="209.8965625" xlink:href="#m5a7d422ac3" y="21.32"/>
      </g>
     </g>
     <g id="text_4">
      <!-- $\mathdefault{10^{1}}$ -->
      <g transform="translate(200.2465625 206.6403125)scale(0.1 -0.1)">
       <use transform="translate(0.0 0.46562500000000284)" xlink:href="#BitstreamVeraSans-Roman-31"/>
       <use transform="translate(63.623046875 0.46562500000000284)" xlink:href="#BitstreamVeraSans-Roman-30"/>
       <use transform="translate(127.24609375 52.965625)scale(0.7)" xlink:href="#BitstreamVeraSans-Roman-31"/>
      </g>
     </g>
    </g>
    <g id="xtick_5">
     <g id="line2d_21">
      <g>
       <use style="stroke:#000000;stroke-width:0.5;" x="265.6965625" xlink:href="#mc7db9fdffb" y="194.12"/>
      </g>
     </g>
     <g id="line2d_22">
      <g>
       <use style="stroke:#000000;stroke-width:0.5;" x="265.6965625" xlink:href="#m5a7d422ac3" y="21.32"/>
      </g>
     </g>
     <g id="text_5">
      <!-- $\mathdefault{10^{2}}$ -->
      <g transform="translate(256.0465625 206.7403125)scale(0.1 -0.1)">
       <use transform="translate(0.0 0.546875)" xlink:href="#BitstreamVeraSans-Roman-31"/>
       <use transform="translate(63.623046875 0.546875)" xlink:href="#BitstreamVeraSans-Roman-30"/>
       <use transform="translate(127.24609375 53.046875)scale(0.7)" xlink:href="#BitstreamVeraSans-Roman-32"/>
      </g>
     </g>
    </g>
    <g id="xtick_6">
     <g id="line2d_23">
      <defs>
       <path d="
M0 0
L0 -2" id="mc21db286a6" style="stroke:#000000;stroke-width:0.5;"/>
      </defs>
      <g>
       <use style="stroke:#000000;stroke-width:0.5;" x="59.2940362581" xlink:href="#mc21db286a6" y="194.12"/>
      </g>
     </g>
     <g id="line2d_24">
      <defs>
       <path d="
M0 0
L0 2" id="ma9c915e141" style="stroke:#000000;stroke-width:0.5;"/>
      </defs>
      <g>
       <use style="stroke:#000000;stroke-width:0.5;" x="59.2940362581" xlink:href="#ma9c915e141" y="21.32"/>
      </g>
     </g>
    </g>
    <g id="xtick_7">
     <g id="line2d_25">
      <g>
       <use style="stroke:#000000;stroke-width:0.5;" x="69.1199285134" xlink:href="#mc21db286a6" y="194.12"/>
      </g>
     </g>
     <g id="line2d_26">
      <g>
       <use style="stroke:#000000;stroke-width:0.5;" x="69.1199285134" xlink:href="#ma9c915e141" y="21.32"/>
      </g>
     </g>
    </g>
    <g id="xtick_8">
     <g id="line2d_27">
      <g>
       <use style="stroke:#000000;stroke-width:0.5;" x="76.0915100161" xlink:href="#mc21db286a6" y="194.12"/>
      </g>
     </g>
     <g id="line2d_28">
      <g>
       <use style="stroke:#000000;stroke-width:0.5;" x="76.0915100161" xlink:href="#ma9c915e141" y="21.32"/>
      </g>
     </g>
    </g>
    <g id="xtick_9">
     <g id="line2d_29">
      <g>
       <use style="stroke:#000000;stroke-width:0.5;" x="81.4990887419" xlink:href="#mc21db286a6" y="194.12"/>
      </g>
     </g>
     <g id="line2d_30">
      <g>
       <use style="stroke:#000000;stroke-width:0.5;" x="81.4990887419" xlink:href="#ma9c915e141" y="21.32"/>
      </g>
     </g>
    </g>
    <g id="xtick_10">
     <g id="line2d_31">
      <g>
       <use style="stroke:#000000;stroke-width:0.5;" x="85.9174022714" xlink:href="#mc21db286a6" y="194.12"/>
      </g>
     </g>
     <g id="line2d_32">
      <g>
       <use style="stroke:#000000;stroke-width:0.5;" x="85.9174022714" xlink:href="#ma9c915e141" y="21.32"/>
      </g>
     </g>
    </g>
    <g id="xtick_11">
     <g id="line2d_33">
      <g>
       <use style="stroke:#000000;stroke-width:0.5;" x="89.6530331328" xlink:href="#mc21db286a6" y="194.12"/>
      </g>
     </g>
     <g id="line2d_34">
      <g>
       <use style="stroke:#000000;stroke-width:0.5;" x="89.6530331328" xlink:href="#ma9c915e141" y="21.32"/>
      </g>
     </g>
    </g>
    <g id="xtick_12">
     <g id="line2d_35">
      <g>
       <use style="stroke:#000000;stroke-width:0.5;" x="92.8889837742" xlink:href="#mc21db286a6" y="194.12"/>
      </g>
     </g>
     <g id="line2d_36">
      <g>
       <use style="stroke:#000000;stroke-width:0.5;" x="92.8889837742" xlink:href="#ma9c915e141" y="21.32"/>
      </g>
     </g>
    </g>
    <g id="xtick_13">
     <g id="line2d_37">
      <g>
       <use style="stroke:#000000;stroke-width:0.5;" x="95.7432945267" xlink:href="#mc21db286a6" y="194.12"/>
      </g>
     </g>
     <g id="line2d_38">
      <g>
       <use style="stroke:#000000;stroke-width:0.5;" x="95.7432945267" xlink:href="#ma9c915e141" y="21.32"/>
      </g>
     </g>
    </g>
    <g id="xtick_14">
     <g id="line2d_39">
      <g>
       <use style="stroke:#000000;stroke-width:0.5;" x="115.094036258" xlink:href="#mc21db286a6" y="194.12"/>
      </g>
     </g>
     <g id="line2d_40">
      <g>
       <use style="stroke:#000000;stroke-width:0.5;" x="115.094036258" xlink:href="#ma9c915e141" y="21.32"/>
      </g>
     </g>
    </g>
    <g id="xtick_15">
     <g id="line2d_41">
      <g>
       <use style="stroke:#000000;stroke-width:0.5;" x="124.919928513" xlink:href="#mc21db286a6" y="194.12"/>
      </g>
     </g>
     <g id="line2d_42">
      <g>
       <use style="stroke:#000000;stroke-width:0.5;" x="124.919928513" xlink:href="#ma9c915e141" y="21.32"/>
      </g>
     </g>
    </g>
    <g id="xtick_16">
     <g id="line2d_43">
      <g>
       <use style="stroke:#000000;stroke-width:0.5;" x="131.891510016" xlink:href="#mc21db286a6" y="194.12"/>
      </g>
     </g>
     <g id="line2d_44">
      <g>
       <use style="stroke:#000000;stroke-width:0.5;" x="131.891510016" xlink:href="#ma9c915e141" y="21.32"/>
      </g>
     </g>
    </g>
    <g id="xtick_17">
     <g id="line2d_45">
      <g>
       <use style="stroke:#000000;stroke-width:0.5;" x="137.299088742" xlink:href="#mc21db286a6" y="194.12"/>
      </g>
     </g>
     <g id="line2d_46">
      <g>
       <use style="stroke:#000000;stroke-width:0.5;" x="137.299088742" xlink:href="#ma9c915e141" y="21.32"/>
      </g>
     </g>
    </g>
    <g id="xtick_18">
     <g id="line2d_47">
      <g>
       <use style="stroke:#000000;stroke-width:0.5;" x="141.717402271" xlink:href="#mc21db286a6" y="194.12"/>
      </g>
     </g>
     <g id="line2d_48">
      <g>
       <use style="stroke:#000000;stroke-width:0.5;" x="141.717402271" xlink:href="#ma9c915e141" y="21.32"/>
      </g>
     </g>
    </g>
    <g id="xtick_19">
     <g id="line2d_49">
      <g>
       <use style="stroke:#000000;stroke-width:0.5;" x="145.453033133" xlink:href="#mc21db286a6" y="194.12"/>
      </g>
     </g>
     <g id="line2d_50">
      <g>
       <use style="stroke:#000000;stroke-width:0.5;" x="145.453033133" xlink:href="#ma9c915e141" y="21.32"/>
      </g>
     </g>
    </g>
    <g id="xtick_20">
     <g id="line2d_51">
      <g>
       <use style="stroke:#000000;stroke-width:0.5;" x="148.688983774" xlink:href="#mc21db286a6" y="194.12"/>
      </g>
     </g>
     <g id="line2d_52">
      <g>
       <use style="stroke:#000000;stroke-width:0.5;" x="148.688983774" xlink:href="#ma9c915e141" y="21.32"/>
      </g>
     </g>
    </g>
    <g id="xtick_21">
     <g id="line2d_53">
      <g>
       <use style="stroke:#000000;stroke-width:0.5;" x="151.543294527" xlink:href="#mc21db286a6" y="194.12"/>
      </g>
     </g>
     <g id="line2d_54">
      <g>
       <use style="stroke:#000000;stroke-width:0.5;" x="151.543294527" xlink:href="#ma9c915e141" y="21.32"/>
      </g>
     </g>
    </g>
    <g id="xtick_22">
     <g id="line2d_55">
      <g>
       <use style="stroke:#000000;stroke-width:0.5;" x="170.894036258" xlink:href="#mc21db286a6" y="194.12"/>
      </g>
     </g>
     <g id="line2d_56">
      <g>
       <use style="stroke:#000000;stroke-width:0.5;" x="170.894036258" xlink:href="#ma9c915e141" y="21.32"/>
      </g>
     </g>
    </g>
    <g id="xtick_23">
     <g id="line2d_57">
      <g>
       <use style="stroke:#000000;stroke-width:0.5;" x="180.719928513" xlink:href="#mc21db286a6" y="194.12"/>
      </g>
     </g>
     <g id="line2d_58">
      <g>
       <use style="stroke:#000000;stroke-width:0.5;" x="180.719928513" xlink:href="#ma9c915e141" y="21.32"/>
      </g>
     </g>
    </g>
    <g id="xtick_24">
     <g id="line2d_59">
      <g>
       <use style="stroke:#000000;stroke-width:0.5;" x="187.691510016" xlink:href="#mc21db286a6" y="194.12"/>
      </g>
     </g>
     <g id="line2d_60">
      <g>
       <use style="stroke:#000000;stroke-width:0.5;" x="187.691510016" xlink:href="#ma9c915e141" y="21.32"/>
      </g>
     </g>
    </g>
    <g id="xtick_25">
     <g id="line2d_61">
      <g>
       <use style="stroke:#000000;stroke-width:0.5;" x="193.099088742" xlink:href="#mc21db286a6" y="194.12"/>
      </g>
     </g>
     <g id="line2d_62">
      <g>
       <use style="stroke:#000000;stroke-width:0.5;" x="193.099088742" xlink:href="#ma9c915e141" y="21.32"/>
      </g>
     </g>
    </g>
    <g id="xtick_26">
     <g id="line2d_63">
      <g>
       <use style="stroke:#000000;stroke-width:0.5;" x="197.517402271" xlink:href="#mc21db286a6" y="194.12"/>
      </g>
     </g>
     <g id="line2d_64">
      <g>
       <use style="stroke:#000000;stroke-width:0.5;" x="197.517402271" xlink:href="#ma9c915e141" y="21.32"/>
      </g>
     </g>
    </g>
    <g id="xtick_27">
     <g id="line2d_65">
      <g>
       <use style="stroke:#000000;stroke-width:0.5;" x="201.253033133" xlink:href="#mc21db286a6" y="194.12"/>
      </g>
     </g>
     <g id="line2d_66">
      <g>
       <use style="stroke:#000000;stroke-width:0.5;" x="201.253033133" xlink:href="#ma9c915e141" y="21.32"/>
      </g>
     </g>
    </g>
    <g id="xtick_28">
     <g id="line2d_67">
      <g>
       <use style="stroke:#000000;stroke-width:0.5;" x="204.488983774" xlink:href="#mc21db286a6" y="194.12"/>
      </g>
     </g>
     <g id="line2d_68">
      <g>
       <use style="stroke:#000000;stroke-width:0.5;" x="204.488983774" xlink:href="#ma9c915e141" y="21.32"/>
      </g>
     </g>
    </g>
    <g id="xtick_29">
     <g id="line2d_69">
      <g>
       <use style="stroke:#000000;stroke-width:0.5;" x="207.343294527" xlink:href="#mc21db286a6" y="194.12"/>
      </g>
     </g>
     <g id="line2d_70">
      <g>
       <use style="stroke:#000000;stroke-width:0.5;" x="207.343294527" xlink:href="#ma9c915e141" y="21.32"/>
      </g>
     </g>
    </g>
    <g id="xtick_30">
     <g id="line2d_71">
      <g>
       <use style="stroke:#000000;stroke-width:0.5;" x="226.694036258" xlink:href="#mc21db286a6" y="194.12"/>
      </g>
     </g>
     <g id="line2d_72">
      <g>
       <use style="stroke:#000000;stroke-width:0.5;" x="226.694036258" xlink:href="#ma9c915e141" y="21.32"/>
      </g>
     </g>
    </g>
    <g id="xtick_31">
     <g id="line2d_73">
      <g>
       <use style="stroke:#000000;stroke-width:0.5;" x="236.519928513" xlink:href="#mc21db286a6" y="194.12"/>
      </g>
     </g>
     <g id="line2d_74">
      <g>
       <use style="stroke:#000000;stroke-width:0.5;" x="236.519928513" xlink:href="#ma9c915e141" y="21.32"/>
      </g>
     </g>
    </g>
    <g id="xtick_32">
     <g id="line2d_75">
      <g>
       <use style="stroke:#000000;stroke-width:0.5;" x="243.491510016" xlink:href="#mc21db286a6" y="194.12"/>
      </g>
     </g>
     <g id="line2d_76">
      <g>
       <use style="stroke:#000000;stroke-width:0.5;" x="243.491510016" xlink:href="#ma9c915e141" y="21.32"/>
      </g>
     </g>
    </g>
    <g id="xtick_33">
     <g id="line2d_77">
      <g>
       <use style="stroke:#000000;stroke-width:0.5;" x="248.899088742" xlink:href="#mc21db286a6" y="194.12"/>
      </g>
     </g>
     <g id="line2d_78">
      <g>
       <use style="stroke:#000000;stroke-width:0.5;" x="248.899088742" xlink:href="#ma9c915e141" y="21.32"/>
      </g>
     </g>
    </g>
    <g id="xtick_34">
     <g id="line2d_79">
      <g>
       <use style="stroke:#000000;stroke-width:0.5;" x="253.317402271" xlink:href="#mc21db286a6" y="194.12"/>
      </g>
     </g>
     <g id="line2d_80">
      <g>
       <use style="stroke:#000000;stroke-width:0.5;" x="253.317402271" xlink:href="#ma9c915e141" y="21.32"/>
      </g>
     </g>
    </g>
    <g id="xtick_35">
     <g id="line2d_81">
      <g>
       <use style="stroke:#000000;stroke-width:0.5;" x="257.053033133" xlink:href="#mc21db286a6" y="194.12"/>
      </g>
     </g>
     <g id="line2d_82">
      <g>
       <use style="stroke:#000000;stroke-width:0.5;" x="257.053033133" xlink:href="#ma9c915e141" y="21.32"/>
      </g>
     </g>
    </g>
    <g id="xtick_36">
     <g id="line2d_83">
      <g>
       <use style="stroke:#000000;stroke-width:0.5;" x="260.288983774" xlink:href="#mc21db286a6" y="194.12"/>
      </g>
     </g>
     <g id="line2d_84">
      <g>
       <use style="stroke:#000000;stroke-width:0.5;" x="260.288983774" xlink:href="#ma9c915e141" y="21.32"/>
      </g>
     </g>
    </g>
    <g id="xtick_37">
     <g id="line2d_85">
      <g>
       <use style="stroke:#000000;stroke-width:0.5;" x="263.143294527" xlink:href="#mc21db286a6" y="194.12"/>
      </g>
     </g>
     <g id="line2d_86">
      <g>
       <use style="stroke:#000000;stroke-width:0.5;" x="263.143294527" xlink:href="#ma9c915e141" y="21.32"/>
      </g>
     </g>
    </g>
    <g id="text_6">
     <!-- $\Delta r$ -->
     <defs>
      <path d="
M5.42188 0
Q4.59375 0 4.59375 0.78125
Q4.64062 0.875 4.65625 0.921875
Q4.6875 0.984375 4.6875 1.125
L39.1094 70.5156
Q39.5469 71.5781 40.9219 71.5781
L42.2812 71.5781
Q43.6562 71.5781 44.0938 70.5156
L78.5156 1.125
Q78.5625 1.03125 78.5781 0.953125
Q78.6094 0.875 78.6094 0.78125
Q78.6094 0 77.7812 0
z

M12.0156 8.01562
L64.7031 8.01562
L38.375 61.0781
z
" id="Cmr10-a2"/>
      <path d="
M7.71875 1.70312
Q7.71875 2.29688 7.8125 2.59375
L15.2812 32.4219
Q16.0156 35.2031 16.0156 37.3125
Q16.0156 41.6094 13.0938 41.6094
Q9.96875 41.6094 8.45312 37.8594
Q6.9375 34.125 5.51562 28.4219
Q5.51562 28.125 5.21875 27.9531
Q4.9375 27.7812 4.6875 27.7812
L3.51562 27.7812
Q3.17188 27.7812 2.92188 28.1406
Q2.6875 28.5156 2.6875 28.8125
Q3.76562 33.1562 4.76562 36.1719
Q5.76562 39.2031 7.89062 41.6875
Q10.0156 44.1875 13.1875 44.1875
Q16.6562 44.1875 19.2656 42.1875
Q21.875 40.1875 22.5156 36.9219
Q25.0469 40.2344 28.2969 42.2031
Q31.5469 44.1875 35.4062 44.1875
Q38.5781 44.1875 40.9844 42.3281
Q43.4062 40.4844 43.4062 37.3125
Q43.4062 34.7656 41.8125 32.875
Q40.2344 31 37.5938 31
Q35.9844 31 34.8906 32
Q33.7969 33.0156 33.7969 34.625
Q33.7969 36.8125 35.4062 38.5469
Q37.0156 40.2812 39.1094 40.2812
Q37.5 41.6094 35.2031 41.6094
Q30.9062 41.6094 27.7344 38.5469
Q24.5625 35.5 22.0156 30.8125
L14.8906 2.20312
Q14.5469 0.828125 13.3438 -0.140625
Q12.1562 -1.125 10.6875 -1.125
Q9.46875 -1.125 8.59375 -0.34375
Q7.71875 0.4375 7.71875 1.70312" id="Cmmi10-72"/>
     </defs>
     <g transform="translate(146.3565625 222.938125)scale(0.12 -0.12)">
      <use transform="translate(0.0 0.421875)" xlink:href="#Cmr10-a2"/>
      <use transform="translate(83.30078125 0.421875)" xlink:href="#Cmmi10-72"/>
     </g>
    </g>
   </g>
   <g id="matplotlib.axis_2">
    <g id="ytick_1">
     <g id="line2d_87">
      <defs>
       <path d="
M0 0
L4 0" id="md7965d1ba0" style="stroke:#000000;stroke-width:0.5;"/>
      </defs>
      <g>
       <use style="stroke:#000000;stroke-width:0.5;" x="42.4965625" xlink:href="#md7965d1ba0" y="194.12"/>
      </g>
     </g>
     <g id="line2d_88">
      <defs>
       <path d="
M0 0
L-4 0" id="md9a1c1a7cd" style="stroke:#000000;stroke-width:0.5;"/>
      </defs>
      <g>
       <use style="stroke:#000000;stroke-width:0.5;" x="265.6965625" xlink:href="#md9a1c1a7cd" y="194.12"/>
      </g>
     </g>
     <g id="text_7">
      <!-- 0.0 -->
      <defs>
       <path d="
M10.6875 12.4062
L21 12.4062
L21 0
L10.6875 0
z
" id="BitstreamVeraSans-Roman-2e"/>
      </defs>
      <g transform="translate(23.916875 196.879375)scale(0.1 -0.1)">
       <use xlink:href="#BitstreamVeraSans-Roman-30"/>
       <use x="63.623046875" xlink:href="#BitstreamVeraSans-Roman-2e"/>
       <use x="95.41015625" xlink:href="#BitstreamVeraSans-Roman-30"/>
      </g>
     </g>
    </g>
    <g id="ytick_2">
     <g id="line2d_89">
      <g>
       <use style="stroke:#000000;stroke-width:0.5;" x="42.4965625" xlink:href="#md7965d1ba0" y="174.92"/>
      </g>
     </g>
     <g id="line2d_90">
      <g>
       <use style="stroke:#000000;stroke-width:0.5;" x="265.6965625" xlink:href="#md9a1c1a7cd" y="174.92"/>
      </g>
     </g>
     <g id="text_8">
      <!-- 0.2 -->
      <g transform="translate(24.254375 177.679375)scale(0.1 -0.1)">
       <use xlink:href="#BitstreamVeraSans-Roman-30"/>
       <use x="63.623046875" xlink:href="#BitstreamVeraSans-Roman-2e"/>
       <use x="95.41015625" xlink:href="#BitstreamVeraSans-Roman-32"/>
      </g>
     </g>
    </g>
    <g id="ytick_3">
     <g id="line2d_91">
      <g>
       <use style="stroke:#000000;stroke-width:0.5;" x="42.4965625" xlink:href="#md7965d1ba0" y="155.72"/>
      </g>
     </g>
     <g id="line2d_92">
      <g>
       <use style="stroke:#000000;stroke-width:0.5;" x="265.6965625" xlink:href="#md9a1c1a7cd" y="155.72"/>
      </g>
     </g>
     <g id="text_9">
      <!-- 0.4 -->
      <defs>
       <path d="
M37.7969 64.3125
L12.8906 25.3906
L37.7969 25.3906
z

M35.2031 72.9062
L47.6094 72.9062
L47.6094 25.3906
L58.0156 25.3906
L58.0156 17.1875
L47.6094 17.1875
L47.6094 0
L37.7969 0
L37.7969 17.1875
L4.89062 17.1875
L4.89062 26.7031
z
" id="BitstreamVeraSans-Roman-34"/>
      </defs>
      <g transform="translate(23.81375 158.479375)scale(0.1 -0.1)">
       <use xlink:href="#BitstreamVeraSans-Roman-30"/>
       <use x="63.623046875" xlink:href="#BitstreamVeraSans-Roman-2e"/>
       <use x="95.41015625" xlink:href="#BitstreamVeraSans-Roman-34"/>
      </g>
     </g>
    </g>
    <g id="ytick_4">
     <g id="line2d_93">
      <g>
       <use style="stroke:#000000;stroke-width:0.5;" x="42.4965625" xlink:href="#md7965d1ba0" y="136.52"/>
      </g>
     </g>
     <g id="line2d_94">
      <g>
       <use style="stroke:#000000;stroke-width:0.5;" x="265.6965625" xlink:href="#md9a1c1a7cd" y="136.52"/>
      </g>
     </g>
     <g id="text_10">
      <!-- 0.6 -->
      <defs>
       <path d="
M33.0156 40.375
Q26.375 40.375 22.4844 35.8281
Q18.6094 31.2969 18.6094 23.3906
Q18.6094 15.5312 22.4844 10.9531
Q26.375 6.39062 33.0156 6.39062
Q39.6562 6.39062 43.5312 10.9531
Q47.4062 15.5312 47.4062 23.3906
Q47.4062 31.2969 43.5312 35.8281
Q39.6562 40.375 33.0156 40.375
M52.5938 71.2969
L52.5938 62.3125
Q48.875 64.0625 45.0938 64.9844
Q41.3125 65.9219 37.5938 65.9219
Q27.8281 65.9219 22.6719 59.3281
Q17.5312 52.7344 16.7969 39.4062
Q19.6719 43.6562 24.0156 45.9219
Q28.375 48.1875 33.5938 48.1875
Q44.5781 48.1875 50.9531 41.5156
Q57.3281 34.8594 57.3281 23.3906
Q57.3281 12.1562 50.6875 5.35938
Q44.0469 -1.42188 33.0156 -1.42188
Q20.3594 -1.42188 13.6719 8.26562
Q6.98438 17.9688 6.98438 36.375
Q6.98438 53.6562 15.1875 63.9375
Q23.3906 74.2188 37.2031 74.2188
Q40.9219 74.2188 44.7031 73.4844
Q48.4844 72.75 52.5938 71.2969" id="BitstreamVeraSans-Roman-36"/>
      </defs>
      <g transform="translate(23.8825 139.279375)scale(0.1 -0.1)">
       <use xlink:href="#BitstreamVeraSans-Roman-30"/>
       <use x="63.623046875" xlink:href="#BitstreamVeraSans-Roman-2e"/>
       <use x="95.41015625" xlink:href="#BitstreamVeraSans-Roman-36"/>
      </g>
     </g>
    </g>
    <g id="ytick_5">
     <g id="line2d_95">
      <g>
       <use style="stroke:#000000;stroke-width:0.5;" x="42.4965625" xlink:href="#md7965d1ba0" y="117.32"/>
      </g>
     </g>
     <g id="line2d_96">
      <g>
       <use style="stroke:#000000;stroke-width:0.5;" x="265.6965625" xlink:href="#md9a1c1a7cd" y="117.32"/>
      </g>
     </g>
     <g id="text_11">
      <!-- 0.8 -->
      <defs>
       <path d="
M31.7812 34.625
Q24.75 34.625 20.7188 30.8594
Q16.7031 27.0938 16.7031 20.5156
Q16.7031 13.9219 20.7188 10.1562
Q24.75 6.39062 31.7812 6.39062
Q38.8125 6.39062 42.8594 10.1719
Q46.9219 13.9688 46.9219 20.5156
Q46.9219 27.0938 42.8906 30.8594
Q38.875 34.625 31.7812 34.625
M21.9219 38.8125
Q15.5781 40.375 12.0312 44.7188
Q8.5 49.0781 8.5 55.3281
Q8.5 64.0625 14.7188 69.1406
Q20.9531 74.2188 31.7812 74.2188
Q42.6719 74.2188 48.875 69.1406
Q55.0781 64.0625 55.0781 55.3281
Q55.0781 49.0781 51.5312 44.7188
Q48 40.375 41.7031 38.8125
Q48.8281 37.1562 52.7969 32.3125
Q56.7812 27.4844 56.7812 20.5156
Q56.7812 9.90625 50.3125 4.23438
Q43.8438 -1.42188 31.7812 -1.42188
Q19.7344 -1.42188 13.25 4.23438
Q6.78125 9.90625 6.78125 20.5156
Q6.78125 27.4844 10.7812 32.3125
Q14.7969 37.1562 21.9219 38.8125
M18.3125 54.3906
Q18.3125 48.7344 21.8438 45.5625
Q25.3906 42.3906 31.7812 42.3906
Q38.1406 42.3906 41.7188 45.5625
Q45.3125 48.7344 45.3125 54.3906
Q45.3125 60.0625 41.7188 63.2344
Q38.1406 66.4062 31.7812 66.4062
Q25.3906 66.4062 21.8438 63.2344
Q18.3125 60.0625 18.3125 54.3906" id="BitstreamVeraSans-Roman-38"/>
      </defs>
      <g transform="translate(23.9371875 120.079375)scale(0.1 -0.1)">
       <use xlink:href="#BitstreamVeraSans-Roman-30"/>
       <use x="63.623046875" xlink:href="#BitstreamVeraSans-Roman-2e"/>
       <use x="95.41015625" xlink:href="#BitstreamVeraSans-Roman-38"/>
      </g>
     </g>
    </g>
    <g id="ytick_6">
     <g id="line2d_97">
      <g>
       <use style="stroke:#000000;stroke-width:0.5;" x="42.4965625" xlink:href="#md7965d1ba0" y="98.12"/>
      </g>
     </g>
     <g id="line2d_98">
      <g>
       <use style="stroke:#000000;stroke-width:0.5;" x="265.6965625" xlink:href="#md9a1c1a7cd" y="98.12"/>
      </g>
     </g>
     <g id="text_12">
      <!-- 1.0 -->
      <g transform="translate(24.3559375 100.879375)scale(0.1 -0.1)">
       <use xlink:href="#BitstreamVeraSans-Roman-31"/>
       <use x="63.623046875" xlink:href="#BitstreamVeraSans-Roman-2e"/>
       <use x="95.41015625" xlink:href="#BitstreamVeraSans-Roman-30"/>
      </g>
     </g>
    </g>
    <g id="ytick_7">
     <g id="line2d_99">
      <g>
       <use style="stroke:#000000;stroke-width:0.5;" x="42.4965625" xlink:href="#md7965d1ba0" y="78.92"/>
      </g>
     </g>
     <g id="line2d_100">
      <g>
       <use style="stroke:#000000;stroke-width:0.5;" x="265.6965625" xlink:href="#md9a1c1a7cd" y="78.92"/>
      </g>
     </g>
     <g id="text_13">
      <!-- 1.2 -->
      <g transform="translate(24.6934375 81.679375)scale(0.1 -0.1)">
       <use xlink:href="#BitstreamVeraSans-Roman-31"/>
       <use x="63.623046875" xlink:href="#BitstreamVeraSans-Roman-2e"/>
       <use x="95.41015625" xlink:href="#BitstreamVeraSans-Roman-32"/>
      </g>
     </g>
    </g>
    <g id="ytick_8">
     <g id="line2d_101">
      <g>
       <use style="stroke:#000000;stroke-width:0.5;" x="42.4965625" xlink:href="#md7965d1ba0" y="59.72"/>
      </g>
     </g>
     <g id="line2d_102">
      <g>
       <use style="stroke:#000000;stroke-width:0.5;" x="265.6965625" xlink:href="#md9a1c1a7cd" y="59.72"/>
      </g>
     </g>
     <g id="text_14">
      <!-- 1.4 -->
      <g transform="translate(24.2528125 62.479375)scale(0.1 -0.1)">
       <use xlink:href="#BitstreamVeraSans-Roman-31"/>
       <use x="63.623046875" xlink:href="#BitstreamVeraSans-Roman-2e"/>
       <use x="95.41015625" xlink:href="#BitstreamVeraSans-Roman-34"/>
      </g>
     </g>
    </g>
    <g id="ytick_9">
     <g id="line2d_103">
      <g>
       <use style="stroke:#000000;stroke-width:0.5;" x="42.4965625" xlink:href="#md7965d1ba0" y="40.52"/>
      </g>
     </g>
     <g id="line2d_104">
      <g>
       <use style="stroke:#000000;stroke-width:0.5;" x="265.6965625" xlink:href="#md9a1c1a7cd" y="40.52"/>
      </g>
     </g>
     <g id="text_15">
      <!-- 1.6 -->
      <g transform="translate(24.3215625 43.279375)scale(0.1 -0.1)">
       <use xlink:href="#BitstreamVeraSans-Roman-31"/>
       <use x="63.623046875" xlink:href="#BitstreamVeraSans-Roman-2e"/>
       <use x="95.41015625" xlink:href="#BitstreamVeraSans-Roman-36"/>
      </g>
     </g>
    </g>
    <g id="ytick_10">
     <g id="line2d_105">
      <g>
       <use style="stroke:#000000;stroke-width:0.5;" x="42.4965625" xlink:href="#md7965d1ba0" y="21.32"/>
      </g>
     </g>
     <g id="line2d_106">
      <g>
       <use style="stroke:#000000;stroke-width:0.5;" x="265.6965625" xlink:href="#md9a1c1a7cd" y="21.32"/>
      </g>
     </g>
     <g id="text_16">
      <!-- 1.8 -->
      <g transform="translate(24.37625 24.079375)scale(0.1 -0.1)">
       <use xlink:href="#BitstreamVeraSans-Roman-31"/>
       <use x="63.623046875" xlink:href="#BitstreamVeraSans-Roman-2e"/>
       <use x="95.41015625" xlink:href="#BitstreamVeraSans-Roman-38"/>
      </g>
     </g>
    </g>
    <g id="text_17">
     <!-- $P\left(\log\left(\Delta r\right)\right)$ -->
     <defs>
      <path d="
M2.78125 -7.8125
Q2.78125 -4.25 5.35938 -1.57812
Q7.95312 1.07812 11.5312 2.20312
Q9.51562 3.71875 8.46875 6
Q7.42188 8.29688 7.42188 10.8906
Q7.42188 15.5781 10.4062 19.1875
Q5.8125 23.6875 5.8125 29.5
Q5.8125 32.625 7.15625 35.3594
Q8.5 38.0938 10.8906 40.0938
Q13.2812 42.0938 16.2031 43.1406
Q19.1406 44.1875 22.2188 44.1875
Q28.1719 44.1875 32.9062 40.7188
Q34.9688 42.9219 37.7656 44.1094
Q40.5781 45.3125 43.6094 45.3125
Q45.75 45.3125 47.1094 43.7656
Q48.4844 42.2344 48.4844 40.0938
Q48.4844 38.875 47.5469 37.9375
Q46.625 37.0156 45.4062 37.0156
Q44.1406 37.0156 43.2031 37.9375
Q42.2812 38.875 42.2812 40.0938
Q42.2812 41.9375 43.5 42.6719
Q38.3281 42.6719 34.625 39.1094
Q36.4219 37.3125 37.5156 34.6875
Q38.625 32.0781 38.625 29.5
Q38.625 25.25 36.2812 21.8438
Q33.9375 18.4531 30.0938 16.5781
Q26.2656 14.7031 22.2188 14.7031
Q16.75 14.7031 12.2031 17.6719
Q10.7969 15.7188 10.7969 13.2812
Q10.7969 10.6406 12.5312 8.65625
Q14.2656 6.6875 16.8906 6.6875
L25.0938 6.6875
Q31.0625 6.6875 35.8438 5.60938
Q40.625 4.54688 43.875 1.3125
Q47.125 -1.90625 47.125 -7.8125
Q47.125 -12.2031 43.4062 -15.1094
Q39.7031 -18.0156 34.5469 -19.3125
Q29.3906 -20.6094 25 -20.6094
Q20.5625 -20.6094 15.375 -19.3125
Q10.2031 -18.0156 6.48438 -15.1094
Q2.78125 -12.2031 2.78125 -7.8125
M8.40625 -7.8125
Q8.40625 -11.1875 11.1406 -13.4531
Q13.875 -15.7188 17.7188 -16.8125
Q21.5781 -17.9219 25 -17.9219
Q28.375 -17.9219 32.2188 -16.8125
Q36.0781 -15.7188 38.7812 -13.4531
Q41.5 -11.1875 41.5 -7.8125
Q41.5 -2.59375 36.7188 -1.04688
Q31.9375 0.484375 25.0938 0.484375
L16.8906 0.484375
Q14.5938 0.484375 12.6719 -0.609375
Q10.75 -1.70312 9.57812 -3.6875
Q8.40625 -5.67188 8.40625 -7.8125
M22.2188 17.3906
Q30.7188 17.3906 30.7188 29.5
Q30.7188 34.7188 28.9062 38.1094
Q27.0938 41.5 22.2188 41.5
Q17.3281 41.5 15.5156 38.1094
Q13.7188 34.7188 13.7188 29.5
Q13.7188 26.1719 14.4062 23.4844
Q15.0938 20.7969 16.9375 19.0938
Q18.7969 17.3906 22.2188 17.3906" id="Cmr10-67"/>
      <path d="
M25 -1.125
Q19 -1.125 13.8594 1.92188
Q8.73438 4.98438 5.75 10.1094
Q2.78125 15.2344 2.78125 21.2969
Q2.78125 25.875 4.42188 30.125
Q6.0625 34.375 9.10938 37.7188
Q12.1562 41.0625 16.2031 42.9375
Q20.2656 44.8281 25 44.8281
Q31.1562 44.8281 36.2031 41.5781
Q41.2656 38.3281 44.1875 32.875
Q47.125 27.4375 47.125 21.2969
Q47.125 15.2812 44.1406 10.125
Q41.1562 4.98438 36.0469 1.92188
Q30.9531 -1.125 25 -1.125
M25 1.8125
Q33.0156 1.8125 35.6875 7.60938
Q38.375 13.4219 38.375 22.4062
Q38.375 27.4375 37.8438 30.7344
Q37.3125 34.0312 35.5 36.7188
Q34.375 38.375 32.6406 39.625
Q30.9062 40.875 28.9688 41.5312
Q27.0469 42.1875 25 42.1875
Q21.875 42.1875 19.0625 40.7656
Q16.2656 39.3594 14.4062 36.7188
Q12.5469 33.8906 12.0312 30.4844
Q11.5312 27.0938 11.5312 22.4062
Q11.5312 16.7969 12.5 12.3281
Q13.4844 7.85938 16.4375 4.82812
Q19.3906 1.8125 25 1.8125" id="Cmr10-6f"/>
      <path d="
M3.07812 0
L3.07812 3.51562
Q6.5 3.51562 8.6875 4.04688
Q10.8906 4.59375 10.8906 6.6875
L10.8906 59.1875
Q10.8906 61.8594 10.0781 63.0625
Q9.28125 64.2656 7.76562 64.5312
Q6.25 64.7969 3.07812 64.7969
L3.07812 68.3125
L17.9219 69.3906
L17.9219 6.6875
Q17.9219 4.59375 20.1094 4.04688
Q22.3125 3.51562 25.6875 3.51562
L25.6875 0
z
" id="Cmr10-6c"/>
      <path d="
M31 -24.8125
Q25.4375 -20.4062 21.4062 -14.7188
Q17.3906 -9.03125 14.8125 -2.57812
Q12.25 3.85938 10.9844 10.8906
Q9.71875 17.9219 9.71875 25
Q9.71875 32.1719 10.9844 39.2031
Q12.25 46.2344 14.8594 52.7344
Q17.4844 59.2344 21.5312 64.8906
Q25.5938 70.5625 31 74.8125
Q31 75 31.5 75
L32.4219 75
Q32.7188 75 32.9531 74.7344
Q33.2031 74.4688 33.2031 74.125
Q33.2031 73.6875 33.0156 73.4844
Q28.125 68.7031 24.875 63.2344
Q21.625 57.7656 19.6406 51.5781
Q17.6719 45.4062 16.7969 38.7812
Q15.9219 32.1719 15.9219 25
Q15.9219 -6.78125 32.9062 -23.2969
Q33.2031 -23.5781 33.2031 -24.125
Q33.2031 -24.3594 32.9375 -24.6719
Q32.6719 -25 32.4219 -25
L31.5 -25
Q31 -25 31 -24.8125" id="Cmr10-28"/>
      <path d="
M6.5 -25
Q5.60938 -25 5.60938 -24.125
Q5.60938 -23.6875 5.8125 -23.4844
Q22.9062 -6.78125 22.9062 25
Q22.9062 56.7812 6 73.2969
Q5.60938 73.5312 5.60938 74.125
Q5.60938 74.4688 5.875 74.7344
Q6.15625 75 6.5 75
L7.42188 75
Q7.71875 75 7.90625 74.8125
Q15.0938 69.1406 19.875 61.0312
Q24.6562 52.9375 26.875 43.75
Q29.1094 34.5781 29.1094 25
Q29.1094 17.9219 27.9062 11.0625
Q26.7031 4.20312 24.0938 -2.45312
Q21.4844 -9.125 17.4844 -14.7656
Q13.4844 -20.4062 7.90625 -24.8125
Q7.71875 -25 7.42188 -25
z
" id="Cmr10-29"/>
      <path d="
M4.89062 0
Q3.90625 0 3.90625 1.3125
Q3.95312 1.5625 4.09375 2.17188
Q4.25 2.78125 4.51562 3.14062
Q4.78125 3.51562 5.17188 3.51562
Q11.2812 3.51562 13.7188 4.20312
Q14.9844 4.64062 15.5781 6.89062
L29.2969 61.8125
Q29.5 62.7969 29.5 63.1875
Q29.5 64.2656 28.3281 64.4062
Q26.4219 64.7969 21.0938 64.7969
Q20.125 64.7969 20.125 66.1094
Q20.1719 66.3594 20.3125 66.9688
Q20.4531 67.5781 20.7188 67.9375
Q21 68.3125 21.3906 68.3125
L55.9062 68.3125
Q60.6406 68.3125 65.0781 66.625
Q69.5312 64.9375 72.3594 61.4688
Q75.2031 58.0156 75.2031 53.0781
Q75.2031 46.7344 70.7344 41.75
Q66.2656 36.7656 59.5938 33.9844
Q52.9375 31.2031 46.6875 31.2031
L30.4219 31.2031
L24.3125 6.5
Q24.125 5.51562 24.125 5.07812
Q24.125 4.6875 24.2344 4.42188
Q24.3594 4.15625 24.5781 4.07812
Q24.8125 4 25.2969 3.90625
Q27.2031 3.51562 32.5156 3.51562
Q33.5 3.51562 33.5 2.20312
Q33.1562 0.78125 32.9531 0.390625
Q32.7656 0 31.7812 0
z

M30.9062 34.1875
L44.9219 34.1875
Q54.6406 34.1875 59.7188 39.4062
Q62.3125 42 63.9375 46.875
Q65.5781 51.7656 65.5781 55.7188
Q65.5781 60.6406 61.8125 62.7188
Q58.0625 64.7969 52.4844 64.7969
L42.9219 64.7969
Q40.1875 64.7969 39.2969 64.3281
Q38.4219 63.875 37.7031 61.375
z
" id="Cmmi10-50"/>
     </defs>
     <g transform="translate(16.29375 134.66)rotate(-90.0)scale(0.12 -0.12)">
      <use transform="translate(0.0 0.421875)" xlink:href="#Cmmi10-50"/>
      <use transform="translate(64.208984375 2.859375)scale(0.921875)" xlink:href="#Cmr10-28"/>
      <use transform="translate(99.99465942382812 0.421875)" xlink:href="#Cmr10-6c"/>
      <use transform="translate(127.68020629882812 0.421875)" xlink:href="#Cmr10-6f"/>
      <use transform="translate(177.68020629882812 0.421875)" xlink:href="#Cmr10-67"/>
      <use transform="translate(227.68020629882812 17.46875)scale(0.72703125)" xlink:href="#Cmr10-28"/>
      <use transform="translate(255.90235900878906 0.421875)" xlink:href="#Cmr10-a2"/>
      <use transform="translate(339.20314025878906 0.421875)" xlink:href="#Cmmi10-72"/>
      <use transform="translate(384.32032775878906 17.46875)scale(0.72703125)" xlink:href="#Cmr10-29"/>
      <use transform="translate(412.54248046875 2.859375)scale(0.921875)" xlink:href="#Cmr10-29"/>
     </g>
    </g>
   </g>
   <g id="text_18">
    <!-- Hard Spheres, at $\phi = 0.59$ -->
    <defs>
     <path id="BitstreamVeraSans-Roman-20"/>
     <path d="
M8.6875 11.375
Q9.71875 8.45312 11.8438 6.04688
Q13.9688 3.65625 16.875 2.3125
Q19.7812 0.984375 22.9062 0.984375
Q30.125 0.984375 32.8594 6.59375
Q35.5938 12.2031 35.5938 20.2188
Q35.5938 23.6875 35.4688 26.0469
Q35.3594 28.4219 34.8125 30.6094
Q33.8906 34.125 31.5625 36.7656
Q29.25 39.4062 25.875 39.4062
Q22.5156 39.4062 20.0938 38.375
Q17.6719 37.3594 16.1562 35.9844
Q14.6562 34.625 13.4844 33.1094
Q12.3125 31.5938 12.0156 31.5
L10.8906 31.5
Q10.6406 31.5 10.2656 31.8125
Q9.90625 32.125 9.90625 32.4219
L9.90625 65.8281
Q9.90625 66.0625 10.2188 66.3281
Q10.5469 66.6094 10.8906 66.6094
L11.1875 66.6094
Q17.9219 63.375 25.4844 63.375
Q32.9062 63.375 39.7969 66.6094
L40.0938 66.6094
Q40.4375 66.6094 40.7188 66.3594
Q41.0156 66.1094 41.0156 65.8281
L41.0156 64.8906
Q41.0156 64.4062 40.8281 64.4062
Q37.4062 59.8594 32.25 57.3125
Q27.0938 54.7812 21.5781 54.7812
Q17.5781 54.7812 13.375 55.9062
L13.375 37.0156
Q16.7031 39.7031 19.3125 40.8438
Q21.9219 42 25.9844 42
Q31.5 42 35.8594 38.8125
Q40.2344 35.6406 42.5781 30.5312
Q44.9219 25.4375 44.9219 20.125
Q44.9219 14.1094 41.9688 8.98438
Q39.0156 3.85938 33.9375 0.828125
Q28.8594 -2.20312 22.9062 -2.20312
Q17.9688 -2.20312 13.8438 0.328125
Q9.71875 2.875 7.34375 7.17188
Q4.98438 11.4688 4.98438 16.3125
Q4.98438 18.5625 6.4375 19.9688
Q7.90625 21.3906 10.1094 21.3906
Q12.3125 21.3906 13.7969 19.9375
Q15.2812 18.5 15.2812 16.3125
Q15.2812 14.1562 13.7969 12.6719
Q12.3125 11.1875 10.1094 11.1875
Q9.76562 11.1875 9.32812 11.25
Q8.89062 11.3281 8.6875 11.375" id="Cmr10-35"/>
     <path d="
M19.3906 -19.4844
L23.875 -1.42188
Q18.7969 -1.42188 14.4062 0.953125
Q10.0156 3.32812 7.34375 7.5625
Q4.6875 11.8125 4.6875 16.7969
Q4.6875 22.2188 7.375 27.1406
Q10.0625 32.0781 14.7188 36.1094
Q19.3906 40.1406 24.75 42.3125
Q30.125 44.4844 35.4062 44.4844
L41.4062 68.7969
Q41.6094 69.3906 42.1875 69.3906
L43.4062 69.3906
Q43.7969 69.3906 44.0312 69.0469
Q44.2812 68.7031 44.2812 68.4062
L38.2812 44.4844
Q42.0469 44.4844 45.5625 43.1094
Q49.0781 41.75 51.7812 39.2812
Q54.5 36.8125 56 33.4688
Q57.5156 30.125 57.5156 26.3125
Q57.5156 20.9062 54.8281 15.9688
Q52.1562 11.0312 47.6094 7.07812
Q43.0625 3.125 37.4688 0.84375
Q31.8906 -1.42188 26.8125 -1.42188
L22.2188 -19.9219
Q22.0156 -20.5156 21.3906 -20.5156
L20.2188 -20.5156
Q19.8281 -20.5156 19.6094 -20.1406
Q19.3906 -19.7812 19.3906 -19.4844
M24.5156 1.21875
L34.7188 41.8906
Q32.1719 41.8906 29.3906 40.8594
Q26.6094 39.8438 24.1406 38.2812
Q21.6875 36.7188 19.6719 34.7188
Q17.2344 32.2812 15.375 28.9531
Q13.5312 25.6406 12.5781 21.9531
Q11.625 18.2656 11.625 14.7031
Q11.625 10.9375 13.2344 7.85938
Q14.8438 4.78125 17.7656 3
Q20.7031 1.21875 24.5156 1.21875
M27.4844 1.21875
Q31.25 1.21875 35.5 3.35938
Q39.75 5.51562 42.4844 8.40625
Q46.2344 12.1094 48.4062 17.5
Q50.5938 22.9062 50.5938 28.4219
Q50.5938 32.125 48.9688 35.2188
Q47.3594 38.3281 44.4219 40.1094
Q41.5 41.8906 37.7031 41.8906
z
" id="Cmmi10-c1"/>
     <path d="
M8.40625 5.51562
Q8.40625 7.76562 10.0625 9.375
Q11.7188 10.9844 13.9219 10.9844
Q15.2812 10.9844 16.5938 10.25
Q17.9219 9.51562 18.6562 8.20312
Q19.3906 6.89062 19.3906 5.51562
Q19.3906 3.32812 17.7656 1.65625
Q16.1562 0 13.9219 0
Q11.7188 0 10.0625 1.65625
Q8.40625 3.32812 8.40625 5.51562" id="Cmmi10-3a"/>
     <path d="
M18.3125 70.2188
L18.3125 54.6875
L36.8125 54.6875
L36.8125 47.7031
L18.3125 47.7031
L18.3125 18.0156
Q18.3125 11.3281 20.1406 9.42188
Q21.9688 7.51562 27.5938 7.51562
L36.8125 7.51562
L36.8125 0
L27.5938 0
Q17.1875 0 13.2344 3.875
Q9.28125 7.76562 9.28125 18.0156
L9.28125 47.7031
L2.6875 47.7031
L2.6875 54.6875
L9.28125 54.6875
L9.28125 70.2188
z
" id="BitstreamVeraSans-Roman-74"/>
     <path d="
M25 -2.20312
Q12.75 -2.20312 8.32812 7.875
Q3.90625 17.9688 3.90625 31.8906
Q3.90625 40.5781 5.48438 48.2344
Q7.07812 55.9062 11.7812 61.25
Q16.5 66.6094 25 66.6094
Q31.5938 66.6094 35.7812 63.375
Q39.9844 60.1562 42.1875 55.0469
Q44.3906 49.9531 45.1875 44.1094
Q46 38.2812 46 31.8906
Q46 23.2969 44.4062 15.7969
Q42.8281 8.29688 38.1875 3.04688
Q33.5469 -2.20312 25 -2.20312
M25 0.390625
Q30.5625 0.390625 33.2969 6.09375
Q36.0312 11.8125 36.6719 18.75
Q37.3125 25.6875 37.3125 33.5
Q37.3125 41.0156 36.6719 47.3594
Q36.0312 53.7188 33.3125 58.8594
Q30.6094 64.0156 25 64.0156
Q19.3438 64.0156 16.6094 58.8281
Q13.875 53.6562 13.2344 47.3281
Q12.5938 41.0156 12.5938 33.5
Q12.5938 27.9375 12.8594 23
Q13.1406 18.0625 14.3125 12.8125
Q15.4844 7.5625 18.0938 3.96875
Q20.7031 0.390625 25 0.390625" id="Cmr10-30"/>
     <path d="
M45.4062 46.3906
L45.4062 75.9844
L54.3906 75.9844
L54.3906 0
L45.4062 0
L45.4062 8.20312
Q42.5781 3.32812 38.25 0.953125
Q33.9375 -1.42188 27.875 -1.42188
Q17.9688 -1.42188 11.7344 6.48438
Q5.51562 14.4062 5.51562 27.2969
Q5.51562 40.1875 11.7344 48.0938
Q17.9688 56 27.875 56
Q33.9375 56 38.25 53.625
Q42.5781 51.2656 45.4062 46.3906
M14.7969 27.2969
Q14.7969 17.3906 18.875 11.75
Q22.9531 6.10938 30.0781 6.10938
Q37.2031 6.10938 41.2969 11.75
Q45.4062 17.3906 45.4062 27.2969
Q45.4062 37.2031 41.2969 42.8438
Q37.2031 48.4844 30.0781 48.4844
Q22.9531 48.4844 18.875 42.8438
Q14.7969 37.2031 14.7969 27.2969" id="BitstreamVeraSans-Roman-64"/>
     <path d="
M44.2812 53.0781
L44.2812 44.5781
Q40.4844 46.5312 36.375 47.5
Q32.2812 48.4844 27.875 48.4844
Q21.1875 48.4844 17.8438 46.4375
Q14.5 44.3906 14.5 40.2812
Q14.5 37.1562 16.8906 35.375
Q19.2812 33.5938 26.5156 31.9844
L29.5938 31.2969
Q39.1562 29.25 43.1875 25.5156
Q47.2188 21.7812 47.2188 15.0938
Q47.2188 7.46875 41.1875 3.01562
Q35.1562 -1.42188 24.6094 -1.42188
Q20.2188 -1.42188 15.4531 -0.5625
Q10.6875 0.296875 5.42188 2
L5.42188 11.2812
Q10.4062 8.6875 15.2344 7.39062
Q20.0625 6.10938 24.8125 6.10938
Q31.1562 6.10938 34.5625 8.28125
Q37.9844 10.4531 37.9844 14.4062
Q37.9844 18.0625 35.5156 20.0156
Q33.0625 21.9688 24.7031 23.7812
L21.5781 24.5156
Q13.2344 26.2656 9.51562 29.9062
Q5.8125 33.5469 5.8125 39.8906
Q5.8125 47.6094 11.2812 51.7969
Q16.75 56 26.8125 56
Q31.7812 56 36.1719 55.2656
Q40.5781 54.5469 44.2812 53.0781" id="BitstreamVeraSans-Roman-73"/>
     <path d="
M7.51562 13.2812
Q6.6875 13.2812 6.14062 13.9062
Q5.60938 14.5469 5.60938 15.2812
Q5.60938 16.1094 6.14062 16.6875
Q6.6875 17.2812 7.51562 17.2812
L70.3125 17.2812
Q71.0469 17.2812 71.5781 16.6875
Q72.125 16.1094 72.125 15.2812
Q72.125 14.5469 71.5781 13.9062
Q71.0469 13.2812 70.3125 13.2812
z

M7.51562 32.7188
Q6.6875 32.7188 6.14062 33.2969
Q5.60938 33.8906 5.60938 34.7188
Q5.60938 35.4531 6.14062 36.0781
Q6.6875 36.7188 7.51562 36.7188
L70.3125 36.7188
Q71.0469 36.7188 71.5781 36.0781
Q72.125 35.4531 72.125 34.7188
Q72.125 33.8906 71.5781 33.2969
Q71.0469 32.7188 70.3125 32.7188
z
" id="Cmr10-3d"/>
     <path d="
M56.2031 29.5938
L56.2031 25.2031
L14.8906 25.2031
Q15.4844 15.9219 20.4844 11.0625
Q25.4844 6.20312 34.4219 6.20312
Q39.5938 6.20312 44.4531 7.46875
Q49.3125 8.73438 54.1094 11.2812
L54.1094 2.78125
Q49.2656 0.734375 44.1875 -0.34375
Q39.1094 -1.42188 33.8906 -1.42188
Q20.7969 -1.42188 13.1562 6.1875
Q5.51562 13.8125 5.51562 26.8125
Q5.51562 40.2344 12.7656 48.1094
Q20.0156 56 32.3281 56
Q43.3594 56 49.7812 48.8906
Q56.2031 41.7969 56.2031 29.5938
M47.2188 32.2344
Q47.125 39.5938 43.0938 43.9844
Q39.0625 48.3906 32.4219 48.3906
Q24.9062 48.3906 20.3906 44.1406
Q15.875 39.8906 15.1875 32.1719
z
" id="BitstreamVeraSans-Roman-65"/>
     <path d="
M54.8906 33.0156
L54.8906 0
L45.9062 0
L45.9062 32.7188
Q45.9062 40.4844 42.875 44.3281
Q39.8438 48.1875 33.7969 48.1875
Q26.5156 48.1875 22.3125 43.5469
Q18.1094 38.9219 18.1094 30.9062
L18.1094 0
L9.07812 0
L9.07812 75.9844
L18.1094 75.9844
L18.1094 46.1875
Q21.3438 51.125 25.7031 53.5625
Q30.0781 56 35.7969 56
Q45.2188 56 50.0469 50.1719
Q54.8906 44.3438 54.8906 33.0156" id="BitstreamVeraSans-Roman-68"/>
     <path d="
M18.1094 8.20312
L18.1094 -20.7969
L9.07812 -20.7969
L9.07812 54.6875
L18.1094 54.6875
L18.1094 46.3906
Q20.9531 51.2656 25.2656 53.625
Q29.5938 56 35.5938 56
Q45.5625 56 51.7812 48.0938
Q58.0156 40.1875 58.0156 27.2969
Q58.0156 14.4062 51.7812 6.48438
Q45.5625 -1.42188 35.5938 -1.42188
Q29.5938 -1.42188 25.2656 0.953125
Q20.9531 3.32812 18.1094 8.20312
M48.6875 27.2969
Q48.6875 37.2031 44.6094 42.8438
Q40.5312 48.4844 33.4062 48.4844
Q26.2656 48.4844 22.1875 42.8438
Q18.1094 37.2031 18.1094 27.2969
Q18.1094 17.3906 22.1875 11.75
Q26.2656 6.10938 33.4062 6.10938
Q40.5312 6.10938 44.6094 11.75
Q48.6875 17.3906 48.6875 27.2969" id="BitstreamVeraSans-Roman-70"/>
     <path d="
M9.8125 72.9062
L19.6719 72.9062
L19.6719 43.0156
L55.5156 43.0156
L55.5156 72.9062
L65.375 72.9062
L65.375 0
L55.5156 0
L55.5156 34.7188
L19.6719 34.7188
L19.6719 0
L9.8125 0
z
" id="BitstreamVeraSans-Roman-48"/>
     <path d="
M41.1094 46.2969
Q39.5938 47.1719 37.8125 47.5781
Q36.0312 48 33.8906 48
Q26.2656 48 22.1875 43.0469
Q18.1094 38.0938 18.1094 28.8125
L18.1094 0
L9.07812 0
L9.07812 54.6875
L18.1094 54.6875
L18.1094 46.1875
Q20.9531 51.1719 25.4844 53.5781
Q30.0312 56 36.5312 56
Q37.4531 56 38.5781 55.875
Q39.7031 55.7656 41.0625 55.5156
z
" id="BitstreamVeraSans-Roman-72"/>
     <path d="
M34.2812 27.4844
Q23.3906 27.4844 19.1875 25
Q14.9844 22.5156 14.9844 16.5
Q14.9844 11.7188 18.1406 8.90625
Q21.2969 6.10938 26.7031 6.10938
Q34.1875 6.10938 38.7031 11.4062
Q43.2188 16.7031 43.2188 25.4844
L43.2188 27.4844
z

M52.2031 31.2031
L52.2031 0
L43.2188 0
L43.2188 8.29688
Q40.1406 3.32812 35.5469 0.953125
Q30.9531 -1.42188 24.3125 -1.42188
Q15.9219 -1.42188 10.9531 3.29688
Q6 8.01562 6 15.9219
Q6 25.1406 12.1719 29.8281
Q18.3594 34.5156 30.6094 34.5156
L43.2188 34.5156
L43.2188 35.4062
Q43.2188 41.6094 39.1406 45
Q35.0625 48.3906 27.6875 48.3906
Q23 48.3906 18.5469 47.2656
Q14.1094 46.1406 10.0156 43.8906
L10.0156 52.2031
Q14.9375 54.1094 19.5781 55.0469
Q24.2188 56 28.6094 56
Q40.4844 56 46.3438 49.8438
Q52.2031 43.7031 52.2031 31.2031" id="BitstreamVeraSans-Roman-61"/>
     <path d="
M11.2812 4.20312
Q14.0156 0.984375 20.7969 0.984375
Q24.6094 0.984375 27.9062 3.5625
Q31.2031 6.15625 33.0156 9.90625
Q35.1094 14.1562 35.6875 18.9688
Q36.2812 23.7812 36.2812 30.9062
Q34.5781 26.8594 31.375 24.2656
Q28.1719 21.6875 24.0312 21.6875
Q18.2188 21.6875 13.6406 24.8281
Q9.07812 27.9844 6.64062 33.125
Q4.20312 38.2812 4.20312 44.0938
Q4.20312 50.0938 6.9375 55.2969
Q9.67188 60.5 14.5 63.5469
Q19.3438 66.6094 25.4844 66.6094
Q31.5469 66.6094 35.625 63.3125
Q39.7031 60.0156 41.8438 54.8125
Q44 49.6094 44.8438 43.7969
Q45.7031 37.9844 45.7031 32.3281
Q45.7031 24.6094 42.875 16.5781
Q40.0469 8.54688 34.4062 3.17188
Q28.7656 -2.20312 20.7969 -2.20312
Q14.8906 -2.20312 10.7812 0.578125
Q6.6875 3.375 6.6875 8.98438
Q6.6875 11.0312 8.07812 12.4219
Q9.46875 13.8125 11.5312 13.8125
Q13.5312 13.8125 14.9219 12.4219
Q16.3125 11.0312 16.3125 8.98438
Q16.3125 7.03125 14.8906 5.60938
Q13.4844 4.20312 11.5312 4.20312
z

M24.4219 24.3125
Q28.5156 24.3125 31.125 27.0625
Q33.7344 29.8281 34.9062 33.9219
Q36.0781 38.0312 36.0781 42.0938
L36.0781 44
L36.0781 44.3906
Q36.0781 51.9062 33.875 57.8125
Q31.6875 63.7188 25.4844 63.7188
Q21.5312 63.7188 19.0625 61.9844
Q16.6094 60.25 15.4375 57.375
Q14.2656 54.5 13.9375 51.2188
Q13.625 47.9531 13.625 44.0938
Q13.625 38.4219 14.1562 34.4219
Q14.7031 30.4219 17.0938 27.3594
Q19.4844 24.3125 24.4219 24.3125" id="Cmr10-39"/>
     <path d="
M53.5156 70.5156
L53.5156 60.8906
Q47.9062 63.5781 42.9219 64.8906
Q37.9375 66.2188 33.2969 66.2188
Q25.25 66.2188 20.875 63.0938
Q16.5 59.9688 16.5 54.2031
Q16.5 49.3594 19.4062 46.8906
Q22.3125 44.4375 30.4219 42.9219
L36.375 41.7031
Q47.4062 39.5938 52.6562 34.2969
Q57.9062 29 57.9062 20.125
Q57.9062 9.51562 50.7969 4.04688
Q43.7031 -1.42188 29.9844 -1.42188
Q24.8125 -1.42188 18.9688 -0.25
Q13.1406 0.921875 6.89062 3.21875
L6.89062 13.375
Q12.8906 10.0156 18.6562 8.29688
Q24.4219 6.59375 29.9844 6.59375
Q38.4219 6.59375 43.0156 9.90625
Q47.6094 13.2344 47.6094 19.3906
Q47.6094 24.75 44.3125 27.7812
Q41.0156 30.8125 33.5 32.3281
L27.4844 33.5
Q16.4531 35.6875 11.5156 40.375
Q6.59375 45.0625 6.59375 53.4219
Q6.59375 63.0938 13.4062 68.6562
Q20.2188 74.2188 32.1719 74.2188
Q37.3125 74.2188 42.625 73.2812
Q47.9531 72.3594 53.5156 70.5156" id="BitstreamVeraSans-Roman-53"/>
     <path d="
M11.7188 12.4062
L22.0156 12.4062
L22.0156 4
L14.0156 -11.625
L7.71875 -11.625
L11.7188 4
z
" id="BitstreamVeraSans-Roman-2c"/>
    </defs>
    <g transform="translate(81.1965625 16.32)scale(0.12 -0.12)">
     <use transform="translate(0.0 0.015625)" xlink:href="#BitstreamVeraSans-Roman-48"/>
     <use transform="translate(75.1953125 0.015625)" xlink:href="#BitstreamVeraSans-Roman-61"/>
     <use transform="translate(136.474609375 0.015625)" xlink:href="#BitstreamVeraSans-Roman-72"/>
     <use transform="translate(177.587890625 0.015625)" xlink:href="#BitstreamVeraSans-Roman-64"/>
     <use transform="translate(241.064453125 0.015625)" xlink:href="#BitstreamVeraSans-Roman-20"/>
     <use transform="translate(272.8515625 0.015625)" xlink:href="#BitstreamVeraSans-Roman-53"/>
     <use transform="translate(336.328125 0.015625)" xlink:href="#BitstreamVeraSans-Roman-70"/>
     <use transform="translate(399.8046875 0.015625)" xlink:href="#BitstreamVeraSans-Roman-68"/>
     <use transform="translate(463.18359375 0.015625)" xlink:href="#BitstreamVeraSans-Roman-65"/>
     <use transform="translate(524.70703125 0.015625)" xlink:href="#BitstreamVeraSans-Roman-72"/>
     <use transform="translate(565.8203125 0.015625)" xlink:href="#BitstreamVeraSans-Roman-65"/>
     <use transform="translate(627.34375 0.015625)" xlink:href="#BitstreamVeraSans-Roman-73"/>
     <use transform="translate(679.443359375 0.015625)" xlink:href="#BitstreamVeraSans-Roman-2c"/>
     <use transform="translate(711.23046875 0.015625)" xlink:href="#BitstreamVeraSans-Roman-20"/>
     <use transform="translate(743.017578125 0.015625)" xlink:href="#BitstreamVeraSans-Roman-61"/>
     <use transform="translate(804.296875 0.015625)" xlink:href="#BitstreamVeraSans-Roman-74"/>
     <use transform="translate(843.505859375 0.015625)" xlink:href="#BitstreamVeraSans-Roman-20"/>
     <use transform="translate(875.29296875 0.015625)" xlink:href="#Cmmi10-c1"/>
     <use transform="translate(952.373046875 0.015625)" xlink:href="#Cmr10-3d"/>
     <use transform="translate(1036.431640625 0.015625)" xlink:href="#Cmr10-30"/>
     <use transform="translate(1086.431640625 0.015625)" xlink:href="#Cmmi10-3a"/>
     <use transform="translate(1114.974609375 0.015625)" xlink:href="#Cmr10-35"/>
     <use transform="translate(1164.974609375 0.015625)" xlink:href="#Cmr10-39"/>
    </g>
   </g>
   <g id="legend_1">
    <g id="patch_7">
     <path d="
M211.507 188.55
L261.532 188.55
L261.532 25.485
L211.507 25.485
z
" style="fill:#ffffff;stroke:#000000;stroke-linejoin:miter;"/>
    </g>
    <g id="text_19">
     <!-- $\Delta t$ -->
     <defs>
      <path d="
M6.20312 8.10938
Q6.20312 9.57812 6.5 10.8906
L13.7188 39.5938
L3.21875 39.5938
Q2.20312 39.5938 2.20312 40.9219
Q2.59375 43.1094 3.51562 43.1094
L14.5938 43.1094
L18.6094 59.4219
Q19 60.75 20.1719 61.6719
Q21.3438 62.5938 22.7969 62.5938
Q24.0781 62.5938 24.9219 61.8281
Q25.7812 61.0781 25.7812 59.8125
Q25.7812 59.5156 25.75 59.3438
Q25.7344 59.1875 25.6875 58.9844
L21.6875 43.1094
L31.9844 43.1094
Q33.0156 43.1094 33.0156 41.7969
Q32.9531 41.5469 32.8125 40.9531
Q32.6719 40.375 32.4219 39.9844
Q32.1719 39.5938 31.6875 39.5938
L20.7969 39.5938
L13.625 10.6875
Q12.8906 7.85938 12.8906 5.8125
Q12.8906 1.51562 15.8281 1.51562
Q20.2188 1.51562 23.6094 5.64062
Q27 9.76562 28.8125 14.7031
Q29.2031 15.2812 29.5938 15.2812
L30.8125 15.2812
Q31.2031 15.2812 31.4375 15.0156
Q31.6875 14.75 31.6875 14.4062
Q31.6875 14.2031 31.5938 14.1094
Q29.3906 8.0625 25.1875 3.46875
Q21 -1.125 15.5781 -1.125
Q11.625 -1.125 8.90625 1.45312
Q6.20312 4.04688 6.20312 8.10938" id="Cmmi10-74"/>
     </defs>
     <g transform="translate(230.519435937 36.4154375)scale(0.1 -0.1)">
      <use transform="translate(0.0 0.421875)" xlink:href="#Cmr10-a2"/>
      <use transform="translate(83.30078125 0.421875)" xlink:href="#Cmmi10-74"/>
     </g>
    </g>
    <g id="line2d_107">
     <path d="
M217.338 46.0741
L229 46.0741" style="fill:none;stroke:#4daf4a;stroke-linecap:square;stroke-width:2.0;"/>
    </g>
    <g id="line2d_108"/>
    <g id="text_20">
     <!-- 30 -->
     <defs>
      <path d="
M40.5781 39.3125
Q47.6562 37.7969 51.625 33
Q55.6094 28.2188 55.6094 21.1875
Q55.6094 10.4062 48.1875 4.48438
Q40.7656 -1.42188 27.0938 -1.42188
Q22.5156 -1.42188 17.6562 -0.515625
Q12.7969 0.390625 7.625 2.20312
L7.625 11.7188
Q11.7188 9.32812 16.5938 8.10938
Q21.4844 6.89062 26.8125 6.89062
Q36.0781 6.89062 40.9375 10.5469
Q45.7969 14.2031 45.7969 21.1875
Q45.7969 27.6406 41.2812 31.2656
Q36.7656 34.9062 28.7188 34.9062
L20.2188 34.9062
L20.2188 43.0156
L29.1094 43.0156
Q36.375 43.0156 40.2344 45.9219
Q44.0938 48.8281 44.0938 54.2969
Q44.0938 59.9062 40.1094 62.9062
Q36.1406 65.9219 28.7188 65.9219
Q24.6562 65.9219 20.0156 65.0312
Q15.375 64.1562 9.8125 62.3125
L9.8125 71.0938
Q15.4375 72.6562 20.3438 73.4375
Q25.25 74.2188 29.5938 74.2188
Q40.8281 74.2188 47.3594 69.1094
Q53.9062 64.0156 53.9062 55.3281
Q53.9062 49.2656 50.4375 45.0938
Q46.9688 40.9219 40.5781 39.3125" id="BitstreamVeraSans-Roman-33"/>
     </defs>
     <g transform="translate(238.163309375 48.9896234375)scale(0.0833 -0.0833)">
      <use xlink:href="#BitstreamVeraSans-Roman-33"/>
      <use x="63.623046875" xlink:href="#BitstreamVeraSans-Roman-30"/>
     </g>
    </g>
    <g id="line2d_109">
     <path d="
M217.338 58.301
L229 58.301" style="fill:none;stroke:#459d72;stroke-linecap:square;stroke-width:2.0;"/>
    </g>
    <g id="line2d_110"/>
    <g id="text_21">
     <!-- 50 -->
     <defs>
      <path d="
M10.7969 72.9062
L49.5156 72.9062
L49.5156 64.5938
L19.8281 64.5938
L19.8281 46.7344
Q21.9688 47.4688 24.1094 47.8281
Q26.2656 48.1875 28.4219 48.1875
Q40.625 48.1875 47.75 41.5
Q54.8906 34.8125 54.8906 23.3906
Q54.8906 11.625 47.5625 5.09375
Q40.2344 -1.42188 26.9062 -1.42188
Q22.3125 -1.42188 17.5469 -0.640625
Q12.7969 0.140625 7.71875 1.70312
L7.71875 11.625
Q12.1094 9.23438 16.7969 8.0625
Q21.4844 6.89062 26.7031 6.89062
Q35.1562 6.89062 40.0781 11.3281
Q45.0156 15.7656 45.0156 23.3906
Q45.0156 31 40.0781 35.4375
Q35.1562 39.8906 26.7031 39.8906
Q22.75 39.8906 18.8125 39.0156
Q14.8906 38.1406 10.7969 36.2812
z
" id="BitstreamVeraSans-Roman-35"/>
     </defs>
     <g transform="translate(238.163309375 61.2165015625)scale(0.0833 -0.0833)">
      <use xlink:href="#BitstreamVeraSans-Roman-35"/>
      <use x="63.623046875" xlink:href="#BitstreamVeraSans-Roman-30"/>
     </g>
    </g>
    <g id="line2d_111">
     <path d="
M217.338 70.5279
L229 70.5279" style="fill:none;stroke:#3d8c99;stroke-linecap:square;stroke-width:2.0;"/>
    </g>
    <g id="line2d_112"/>
    <g id="text_22">
     <!-- 70 -->
     <defs>
      <path d="
M8.20312 72.9062
L55.0781 72.9062
L55.0781 68.7031
L28.6094 0
L18.3125 0
L43.2188 64.5938
L8.20312 64.5938
z
" id="BitstreamVeraSans-Roman-37"/>
     </defs>
     <g transform="translate(238.163309375 73.4433796875)scale(0.0833 -0.0833)">
      <use xlink:href="#BitstreamVeraSans-Roman-37"/>
      <use x="63.623046875" xlink:href="#BitstreamVeraSans-Roman-30"/>
     </g>
    </g>
    <g id="line2d_113">
     <path d="
M217.338 82.7548
L229 82.7548" style="fill:none;stroke:#3f7ab6;stroke-linecap:square;stroke-width:2.0;"/>
    </g>
    <g id="line2d_114"/>
    <g id="text_23">
     <!-- 100 -->
     <g transform="translate(238.163309375 85.6702578125)scale(0.0833 -0.0833)">
      <use xlink:href="#BitstreamVeraSans-Roman-31"/>
      <use x="63.623046875" xlink:href="#BitstreamVeraSans-Roman-30"/>
      <use x="127.24609375" xlink:href="#BitstreamVeraSans-Roman-30"/>
     </g>
    </g>
    <g id="line2d_115">
     <path d="
M217.338 94.9816
L229 94.9816" style="fill:none;stroke:#6468ae;stroke-linecap:square;stroke-width:2.0;"/>
    </g>
    <g id="line2d_116"/>
    <g id="text_24">
     <!-- 200 -->
     <g transform="translate(238.163309375 97.8971359375)scale(0.0833 -0.0833)">
      <use xlink:href="#BitstreamVeraSans-Roman-32"/>
      <use x="63.623046875" xlink:href="#BitstreamVeraSans-Roman-30"/>
      <use x="127.24609375" xlink:href="#BitstreamVeraSans-Roman-30"/>
     </g>
    </g>
    <g id="line2d_117">
     <path d="
M217.338 107.209
L229 107.209" style="fill:none;stroke:#8757a7;stroke-linecap:square;stroke-width:2.0;"/>
    </g>
    <g id="line2d_118"/>
    <g id="text_25">
     <!-- 300 -->
     <g transform="translate(238.163309375 110.124014062)scale(0.0833 -0.0833)">
      <use xlink:href="#BitstreamVeraSans-Roman-33"/>
      <use x="63.623046875" xlink:href="#BitstreamVeraSans-Roman-30"/>
      <use x="127.24609375" xlink:href="#BitstreamVeraSans-Roman-30"/>
     </g>
    </g>
    <g id="line2d_119">
     <path d="
M217.338 119.435
L229 119.435" style="fill:none;stroke:#a6458b;stroke-linecap:square;stroke-width:2.0;"/>
    </g>
    <g id="line2d_120"/>
    <g id="text_26">
     <!-- 500 -->
     <g transform="translate(238.163309375 122.350892187)scale(0.0833 -0.0833)">
      <use xlink:href="#BitstreamVeraSans-Roman-35"/>
      <use x="63.623046875" xlink:href="#BitstreamVeraSans-Roman-30"/>
      <use x="127.24609375" xlink:href="#BitstreamVeraSans-Roman-30"/>
     </g>
    </g>
    <g id="line2d_121">
     <path d="
M217.338 131.662
L229 131.662" style="fill:none;stroke:#c1325a;stroke-linecap:square;stroke-width:2.0;"/>
    </g>
    <g id="line2d_122"/>
    <g id="text_27">
     <!-- 700 -->
     <g transform="translate(238.163309375 134.577770312)scale(0.0833 -0.0833)">
      <use xlink:href="#BitstreamVeraSans-Roman-37"/>
      <use x="63.623046875" xlink:href="#BitstreamVeraSans-Roman-30"/>
      <use x="127.24609375" xlink:href="#BitstreamVeraSans-Roman-30"/>
     </g>
    </g>
    <g id="line2d_123">
     <path d="
M217.338 143.889
L229 143.889" style="fill:none;stroke:#de1e27;stroke-linecap:square;stroke-width:2.0;"/>
    </g>
    <g id="line2d_124"/>
    <g id="text_28">
     <!-- 1000 -->
     <g transform="translate(238.163309375 146.804648437)scale(0.0833 -0.0833)">
      <use xlink:href="#BitstreamVeraSans-Roman-31"/>
      <use x="63.623046875" xlink:href="#BitstreamVeraSans-Roman-30"/>
      <use x="127.24609375" xlink:href="#BitstreamVeraSans-Roman-30"/>
      <use x="190.869140625" xlink:href="#BitstreamVeraSans-Roman-30"/>
     </g>
    </g>
    <g id="line2d_125">
     <path d="
M217.338 156.116
L229 156.116" style="fill:none;stroke:#ec3614;stroke-linecap:square;stroke-width:2.0;"/>
    </g>
    <g id="line2d_126"/>
    <g id="text_29">
     <!-- 2000 -->
     <g transform="translate(238.163309375 159.031526562)scale(0.0833 -0.0833)">
      <use xlink:href="#BitstreamVeraSans-Roman-32"/>
      <use x="63.623046875" xlink:href="#BitstreamVeraSans-Roman-30"/>
      <use x="127.24609375" xlink:href="#BitstreamVeraSans-Roman-30"/>
      <use x="190.869140625" xlink:href="#BitstreamVeraSans-Roman-30"/>
     </g>
    </g>
    <g id="line2d_127">
     <path d="
M217.338 168.343
L229 168.343" style="fill:none;stroke:#f55b0a;stroke-linecap:square;stroke-width:2.0;"/>
    </g>
    <g id="line2d_128"/>
    <g id="text_30">
     <!-- 3000 -->
     <g transform="translate(238.163309375 171.258404687)scale(0.0833 -0.0833)">
      <use xlink:href="#BitstreamVeraSans-Roman-33"/>
      <use x="63.623046875" xlink:href="#BitstreamVeraSans-Roman-30"/>
      <use x="127.24609375" xlink:href="#BitstreamVeraSans-Roman-30"/>
      <use x="190.869140625" xlink:href="#BitstreamVeraSans-Roman-30"/>
     </g>
    </g>
    <g id="line2d_129">
     <path d="
M217.338 180.57
L229 180.57" style="fill:none;stroke:#ff7f00;stroke-linecap:square;stroke-width:2.0;"/>
    </g>
    <g id="line2d_130"/>
    <g id="text_31">
     <!-- 5000 -->
     <g transform="translate(238.163309375 183.485282813)scale(0.0833 -0.0833)">
      <use xlink:href="#BitstreamVeraSans-Roman-35"/>
      <use x="63.623046875" xlink:href="#BitstreamVeraSans-Roman-30"/>
      <use x="127.24609375" xlink:href="#BitstreamVeraSans-Roman-30"/>
      <use x="190.869140625" xlink:href="#BitstreamVeraSans-Roman-30"/>
     </g>
    </g>
   </g>
  </g>
 </g>
 <defs>
  <clipPath id="p1b866bbbbd">
   <rect height="172.8" width="223.2" x="42.4965625" y="21.32"/>
  </clipPath>
 </defs>
</svg>
