<?xml version="1.0" encoding="utf-8" standalone="no"?>
<!DOCTYPE svg PUBLIC "-//W3C//DTD SVG 1.1//EN"
  "http://www.w3.org/Graphics/SVG/1.1/DTD/svg11.dtd">
<!-- Created with matplotlib (http://matplotlib.org/) -->
<svg height="232pt" version="1.1" viewBox="0 0 282 232" width="282pt" xmlns="http://www.w3.org/2000/svg" xmlns:xlink="http://www.w3.org/1999/xlink">
 <defs>
  <style type="text/css">
*{stroke-linecap:butt;stroke-linejoin:round;}
  </style>
 </defs>
 <g id="figure_1">
  <g id="patch_1">
   <path d="
M0 232.634
L282.443 232.634
L282.443 0
L0 0
z
" style="fill:#ffffff;"/>
  </g>
  <g id="axes_1">
   <g id="patch_2">
    <path d="
M42.3934 194.12
L265.593 194.12
L265.593 21.32
L42.3934 21.32
z
" style="fill:#ffffff;"/>
   </g>
   <g id="line2d_1">
    <path clip-path="url(#p652fd3abf2)" d="
M42.3934 194.12
L44.648 194.12
L46.9025 194.12
L49.1571 193.95
L51.4116 194.12
L53.6662 194.12
L55.9207 194.12
L58.1753 194.12
L60.4298 194.12
L62.6843 194.12
L64.9389 193.864
L67.1934 194.035
L69.448 194.035
L71.7025 193.609
L73.9571 193.694
L76.2116 193.609
L78.4662 193.438
L80.7207 192.415
L82.9753 192.415
L85.2298 191.819
L87.4843 190.625
L89.7389 190.881
L91.9934 189.262
L94.248 187.131
L96.5025 186.023
L98.7571 181.846
L101.012 180.483
L103.266 177.073
L105.521 174.857
L107.775 166.931
L110.03 163.01
L112.284 157.384
L114.539 149.628
L116.793 143.832
L119.048 133.178
L121.303 126.53
L123.557 118.774
L125.812 110.762
L128.066 112.978
L130.321 108.29
L132.575 107.097
L134.83 109.568
L137.084 107.097
L139.339 109.057
L141.593 115.279
L143.848 122.694
L146.103 128.916
L148.357 132.07
L150.612 132.667
L152.866 136.587
L155.121 141.446
L157.375 143.321
L159.63 153.293
L161.884 164.118
L164.139 173.323
L166.393 179.375
L168.648 184.574
L170.903 189.603
L173.157 191.137
L175.412 192.33
L177.666 193.864
L179.921 194.035
L182.175 193.95
L184.43 194.12
L186.684 194.12
L188.939 194.12
L191.193 194.12
L193.448 194.12
L195.703 194.12
L197.957 194.12
L200.212 194.12
L202.466 194.12
L204.721 194.12
L206.975 194.12
L209.23 194.12
L211.484 194.12
L213.739 194.12
L215.993 194.12
L218.248 194.12
L220.503 194.12
L222.757 194.12
L225.012 194.12
L227.266 194.12
L229.521 194.12
L231.775 194.12
L234.03 194.12
L236.284 194.12
L238.539 194.12
L240.793 194.12
L243.048 194.12
L245.303 194.12
L247.557 194.12
L249.812 194.12
L252.066 194.12
L254.321 194.12
L256.575 194.12
L258.83 194.12
L261.084 194.12
L263.339 194.12
L265.593 194.12
L265.593 194.12" style="fill:none;stroke:#4daf4a;stroke-linecap:square;stroke-width:2.0;"/>
   </g>
   <g id="line2d_2">
    <path clip-path="url(#p652fd3abf2)" d="
M42.3934 194.12
L44.648 194.12
L46.9025 194.12
L49.1571 194.12
L51.4116 194.12
L53.6662 194.034
L55.9207 194.12
L58.1753 194.12
L60.4298 194.12
L62.6843 194.12
L64.9389 193.692
L67.1934 193.949
L69.448 193.778
L71.7025 193.949
L73.9571 193.778
L76.2116 193.692
L78.4662 193.863
L80.7207 193.521
L82.9753 193.35
L85.2298 192.153
L87.4843 191.896
L89.7389 191.896
L91.9934 190.442
L94.248 189.843
L96.5025 188.56
L98.7571 187.79
L101.012 185.053
L103.266 183.77
L105.521 178.98
L107.775 178.125
L110.03 170.17
L112.284 167.347
L114.539 160.932
L116.793 156.484
L119.048 146.391
L121.303 143.483
L123.557 139.976
L125.812 129.968
L128.066 124.237
L130.321 121.329
L132.575 116.197
L134.83 112.519
L137.084 110.808
L139.339 110.979
L141.593 116.795
L143.848 118.763
L146.103 118.677
L148.357 117.052
L150.612 118.763
L152.866 119.447
L155.121 126.974
L157.375 124.408
L159.63 131.422
L161.884 141.943
L164.139 151.352
L166.393 167.262
L168.648 174.361
L170.903 182.487
L173.157 186.764
L175.412 189.929
L177.666 191.554
L179.921 193.179
L182.175 193.863
L184.43 194.034
L186.684 194.034
L188.939 194.12
L191.193 194.12
L193.448 194.12
L195.703 194.12
L197.957 194.12
L200.212 194.12
L202.466 194.12
L204.721 194.12
L206.975 194.12
L209.23 194.12
L211.484 194.12
L213.739 194.12
L215.993 194.12
L218.248 194.12
L220.503 194.12
L222.757 194.12
L225.012 194.12
L227.266 194.12
L229.521 194.12
L231.775 194.12
L234.03 194.12
L236.284 194.12
L238.539 194.12
L240.793 194.12
L243.048 194.12
L245.303 194.12
L247.557 194.12
L249.812 194.12
L252.066 194.12
L254.321 194.12
L256.575 194.12
L258.83 194.12
L261.084 194.12
L263.339 194.12
L265.593 194.12
L265.593 194.12" style="fill:none;stroke:#459d72;stroke-linecap:square;stroke-width:2.0;"/>
   </g>
   <g id="line2d_3">
    <path clip-path="url(#p652fd3abf2)" d="
M42.3934 194.12
L44.648 194.037
L46.9025 194.12
L49.1571 194.12
L51.4116 194.12
L53.6662 194.037
L55.9207 194.12
L58.1753 194.037
L60.4298 193.786
L62.6843 194.037
L64.9389 194.12
L67.1934 193.87
L69.448 193.87
L71.7025 194.037
L73.9571 193.953
L76.2116 193.453
L78.4662 193.786
L80.7207 193.786
L82.9753 193.036
L85.2298 192.952
L87.4843 193.036
L89.7389 191.701
L91.9934 192.202
L94.248 189.866
L96.5025 189.366
L98.7571 188.031
L101.012 188.281
L103.266 186.53
L105.521 183.11
L107.775 182.109
L110.03 176.938
L112.284 172.434
L114.539 169.598
L116.793 164.343
L119.048 158.671
L121.303 153.583
L123.557 148.495
L125.812 142.073
L128.066 137.819
L130.321 133.398
L132.575 127.226
L134.83 124.223
L137.084 127.81
L139.339 116.133
L141.593 120.136
L143.848 113.046
L146.103 114.548
L148.357 115.632
L150.612 116.216
L152.866 112.463
L155.121 113.13
L157.375 109.043
L159.63 115.215
L161.884 125.725
L164.139 135.817
L166.393 149.83
L168.648 159.922
L170.903 170.932
L173.157 176.521
L175.412 184.278
L177.666 188.532
L179.921 191.117
L182.175 192.869
L184.43 193.786
L186.684 193.953
L188.939 194.12
L191.193 194.12
L193.448 194.12
L195.703 194.12
L197.957 194.12
L200.212 194.12
L202.466 194.12
L204.721 194.12
L206.975 194.12
L209.23 194.12
L211.484 194.12
L213.739 194.12
L215.993 194.12
L218.248 194.12
L220.503 194.12
L222.757 194.12
L225.012 194.12
L227.266 194.12
L229.521 194.12
L231.775 194.12
L234.03 194.12
L236.284 194.12
L238.539 194.12
L240.793 194.12
L243.048 194.12
L245.303 194.12
L247.557 194.12
L249.812 194.12
L252.066 194.12
L254.321 194.12
L256.575 194.12
L258.83 194.12
L261.084 194.12
L263.339 194.12
L265.593 194.12
L265.593 194.12" style="fill:none;stroke:#3d8c99;stroke-linecap:square;stroke-width:2.0;"/>
   </g>
   <g id="line2d_4">
    <path clip-path="url(#p652fd3abf2)" d="
M42.3934 194.12
L44.648 194.12
L46.9025 194.034
L49.1571 194.12
L51.4116 194.12
L53.6662 194.12
L55.9207 194.034
L58.1753 194.034
L60.4298 194.034
L62.6843 194.034
L64.9389 194.12
L67.1934 194.12
L69.448 193.949
L71.7025 194.12
L73.9571 193.863
L76.2116 194.034
L78.4662 193.607
L80.7207 193.521
L82.9753 193.35
L85.2298 193.521
L87.4843 193.179
L89.7389 192.666
L91.9934 192.837
L94.248 191.126
L96.5025 190.698
L98.7571 189.757
L101.012 188.902
L103.266 187.448
L105.521 187.876
L107.775 185.138
L110.03 182.743
L112.284 181.374
L114.539 179.835
L116.793 174.788
L119.048 167.089
L121.303 164.181
L123.557 158.877
L125.812 159.048
L128.066 153.232
L130.321 148.099
L132.575 140.572
L134.83 133.9
L137.084 136.808
L139.339 129.537
L141.593 126.543
L143.848 119.871
L146.103 116.706
L148.357 116.449
L150.612 104.987
L152.866 103.618
L155.121 96.7752
L157.375 98.486
L159.63 105.415
L161.884 105.757
L164.139 119.358
L166.393 129.623
L168.648 136.808
L170.903 149.896
L173.157 167.603
L175.412 173.163
L177.666 182.572
L179.921 188.56
L182.175 190.869
L184.43 192.153
L186.684 193.521
L188.939 193.863
L191.193 194.034
L193.448 194.12
L195.703 194.12
L197.957 194.12
L200.212 194.12
L202.466 194.12
L204.721 194.12
L206.975 194.12
L209.23 194.12
L211.484 194.12
L213.739 194.12
L215.993 194.12
L218.248 194.12
L220.503 194.12
L222.757 194.12
L225.012 194.12
L227.266 194.12
L229.521 194.12
L231.775 194.12
L234.03 194.12
L236.284 194.12
L238.539 194.12
L240.793 194.12
L243.048 194.12
L245.303 194.12
L247.557 194.12
L249.812 194.12
L252.066 194.12
L254.321 194.12
L256.575 194.12
L258.83 194.12
L261.084 194.12
L263.339 194.12
L265.593 194.12
L265.593 194.12" style="fill:none;stroke:#3f7ab6;stroke-linecap:square;stroke-width:2.0;"/>
   </g>
   <g id="line2d_5">
    <path clip-path="url(#p652fd3abf2)" d="
M42.3934 194.12
L44.648 194.12
L46.9025 194.12
L49.1571 194.12
L51.4116 194.12
L53.6662 194.12
L55.9207 194.12
L58.1753 194.12
L60.4298 194.12
L62.6843 194.12
L64.9389 194.034
L67.1934 194.12
L69.448 194.12
L71.7025 194.034
L73.9571 194.12
L76.2116 193.778
L78.4662 194.12
L80.7207 193.949
L82.9753 193.692
L85.2298 193.778
L87.4843 193.863
L89.7389 193.949
L91.9934 193.265
L94.248 193.521
L96.5025 193.436
L98.7571 192.409
L101.012 192.58
L103.266 191.896
L105.521 191.468
L107.775 190.442
L110.03 188.988
L112.284 188.132
L114.539 187.961
L116.793 183.77
L119.048 182.059
L121.303 181.888
L123.557 179.75
L125.812 174.789
L128.066 173.934
L130.321 169.229
L132.575 163.669
L134.83 165.637
L137.084 158.195
L139.339 152.293
L141.593 152.635
L143.848 143.226
L146.103 136.811
L148.357 128.942
L150.612 124.237
L152.866 113.117
L155.121 100.458
L157.375 95.3259
L159.63 91.0491
L161.884 91.1347
L164.139 83.2653
L166.393 86.9434
L168.648 92.5032
L170.903 108.926
L173.157 119.19
L175.412 138.607
L177.666 148.786
L179.921 158.366
L182.175 171.111
L184.43 180.862
L186.684 188.218
L188.939 190.955
L191.193 193.179
L193.448 193.692
L195.703 193.949
L197.957 194.12
L200.212 194.12
L202.466 194.12
L204.721 194.12
L206.975 194.12
L209.23 194.12
L211.484 194.12
L213.739 194.12
L215.993 194.12
L218.248 194.12
L220.503 194.12
L222.757 194.12
L225.012 194.12
L227.266 194.12
L229.521 194.12
L231.775 194.12
L234.03 194.12
L236.284 194.12
L238.539 194.12
L240.793 194.12
L243.048 194.12
L245.303 194.12
L247.557 194.12
L249.812 194.12
L252.066 194.12
L254.321 194.12
L256.575 194.12
L258.83 194.12
L261.084 194.12
L263.339 194.12
L265.593 194.12
L265.593 194.12" style="fill:none;stroke:#6468ae;stroke-linecap:square;stroke-width:2.0;"/>
   </g>
   <g id="line2d_6">
    <path clip-path="url(#p652fd3abf2)" d="
M42.3934 194.12
L44.648 194.12
L46.9025 194.12
L49.1571 194.12
L51.4116 194.12
L53.6662 194.12
L55.9207 194.037
L58.1753 194.12
L60.4298 194.12
L62.6843 194.12
L64.9389 194.12
L67.1934 194.12
L69.448 194.12
L71.7025 194.037
L73.9571 194.12
L76.2116 194.037
L78.4662 194.12
L80.7207 194.12
L82.9753 194.12
L85.2298 194.037
L87.4843 193.955
L89.7389 193.707
L91.9934 193.955
L94.248 193.377
L96.5025 193.625
L98.7571 193.46
L101.012 193.625
L103.266 193.047
L105.521 192.8
L107.775 191.975
L110.03 192.305
L112.284 191.562
L114.539 190.737
L116.793 189.582
L119.048 187.849
L121.303 187.354
L123.557 186.859
L125.812 184.384
L128.066 181.744
L130.321 181.001
L132.575 177.371
L134.83 174.153
L137.084 172.668
L139.339 168.213
L141.593 159.962
L143.848 160.374
L146.103 148.823
L148.357 144.368
L150.612 137.85
L152.866 127.536
L155.121 115.737
L157.375 106.002
L159.63 98.2458
L161.884 89.6649
L164.139 79.1039
L166.393 80.8366
L168.648 83.7244
L170.903 82.4867
L173.157 90.7375
L175.412 100.886
L177.666 116.563
L179.921 135.704
L182.175 149.483
L184.43 162.437
L186.684 174.483
L188.939 182.816
L191.193 189.087
L193.448 192.057
L195.703 193.377
L197.957 193.955
L200.212 194.12
L202.466 194.12
L204.721 194.12
L206.975 194.12
L209.23 194.12
L211.484 194.12
L213.739 194.12
L215.993 194.12
L218.248 194.12
L220.503 194.12
L222.757 194.12
L225.012 194.12
L227.266 194.12
L229.521 194.12
L231.775 194.12
L234.03 194.12
L236.284 194.12
L238.539 194.12
L240.793 194.12
L243.048 194.12
L245.303 194.12
L247.557 194.12
L249.812 194.12
L252.066 194.12
L254.321 194.12
L256.575 194.12
L258.83 194.12
L261.084 194.12
L263.339 194.12
L265.593 194.12
L265.593 194.12" style="fill:none;stroke:#8757a7;stroke-linecap:square;stroke-width:2.0;"/>
   </g>
   <g id="line2d_7">
    <path clip-path="url(#p652fd3abf2)" d="
M42.3934 194.12
L44.648 194.12
L46.9025 194.12
L49.1571 194.12
L51.4116 194.12
L53.6662 194.12
L55.9207 194.12
L58.1753 194.12
L60.4298 194.12
L62.6843 194.12
L64.9389 194.12
L67.1934 194.12
L69.448 194.12
L71.7025 194.044
L73.9571 194.044
L76.2116 194.12
L78.4662 194.044
L80.7207 194.12
L82.9753 194.12
L85.2298 194.12
L87.4843 194.12
L89.7389 194.044
L91.9934 193.967
L94.248 194.12
L96.5025 193.967
L98.7571 193.891
L101.012 193.738
L103.266 193.433
L105.521 193.967
L107.775 193.738
L110.03 193.662
L112.284 193.433
L114.539 192.822
L116.793 192.363
L119.048 191.905
L121.303 191.6
L123.557 191.447
L125.812 190.607
L128.066 189.232
L130.321 188.087
L132.575 186.483
L134.83 186.33
L137.084 181.519
L139.339 182.97
L141.593 178.769
L143.848 174.798
L146.103 169.681
L148.357 165.557
L150.612 160.287
L152.866 149.443
L155.121 145.777
L157.375 132.106
L159.63 118.283
L161.884 107.057
L164.139 98.4266
L166.393 86.8945
L168.648 83.4578
L170.903 75.3624
L173.157 70.0164
L175.412 76.6607
L177.666 78.2645
L179.921 89.0329
L182.175 101.863
L184.43 123.171
L186.684 138.369
L188.939 153.949
L191.193 168.841
L193.448 180.679
L195.703 186.865
L197.957 191.371
L200.212 193.585
L202.466 193.891
L204.721 193.967
L206.975 194.12
L209.23 194.12
L211.484 194.12
L213.739 194.12
L215.993 194.12
L218.248 194.12
L220.503 194.12
L222.757 194.12
L225.012 194.12
L227.266 194.12
L229.521 194.12
L231.775 194.12
L234.03 194.12
L236.284 194.12
L238.539 194.12
L240.793 194.12
L243.048 194.12
L245.303 194.12
L247.557 194.12
L249.812 194.12
L252.066 194.12
L254.321 194.12
L256.575 194.12
L258.83 194.12
L261.084 194.12
L263.339 194.12
L265.593 194.12
L265.593 194.12" style="fill:none;stroke:#a6458b;stroke-linecap:square;stroke-width:2.0;"/>
   </g>
   <g id="line2d_8">
    <path clip-path="url(#p652fd3abf2)" d="
M42.3934 194.12
L44.648 194.12
L46.9025 194.12
L49.1571 194.12
L51.4116 194.12
L53.6662 194.12
L55.9207 194.12
L58.1753 194.12
L60.4298 194.12
L62.6843 194.12
L64.9389 194.12
L67.1934 194.12
L69.448 194.12
L71.7025 194.12
L73.9571 194.12
L76.2116 194.12
L78.4662 194.12
L80.7207 194.12
L82.9753 194.12
L85.2298 194.12
L87.4843 194.12
L89.7389 194.12
L91.9934 194.12
L94.248 194.056
L96.5025 194.056
L98.7571 193.992
L101.012 193.992
L103.266 193.799
L105.521 194.056
L107.775 193.992
L110.03 193.992
L112.284 193.414
L114.539 193.735
L116.793 193.606
L119.048 192.965
L121.303 192.515
L123.557 192.836
L125.812 193.221
L128.066 191.809
L130.321 191.231
L132.575 190.975
L134.83 189.883
L137.084 189.177
L139.339 187.444
L141.593 184.876
L143.848 182.501
L146.103 178.906
L148.357 176.981
L150.612 171.46
L152.866 164.014
L155.121 159.777
L157.375 145.976
L159.63 143.472
L161.884 128.259
L164.139 117.796
L166.393 107.91
L168.648 94.7506
L170.903 86.9834
L173.157 75.1078
L175.412 70.9353
L177.666 63.2323
L179.921 69.3947
L182.175 70.6786
L184.43 86.855
L186.684 105.535
L188.939 126.397
L191.193 142.51
L193.448 160.098
L195.703 175.954
L197.957 184.812
L200.212 189.627
L202.466 192.258
L204.721 193.735
L206.975 193.992
L209.23 193.992
L211.484 194.12
L213.739 194.12
L215.993 194.12
L218.248 194.12
L220.503 194.12
L222.757 194.12
L225.012 194.12
L227.266 194.12
L229.521 194.12
L231.775 194.12
L234.03 194.12
L236.284 194.12
L238.539 194.12
L240.793 194.12
L243.048 194.12
L245.303 194.12
L247.557 194.12
L249.812 194.12
L252.066 194.12
L254.321 194.12
L256.575 194.12
L258.83 194.12
L261.084 194.12
L263.339 194.12
L265.593 194.12
L265.593 194.12" style="fill:none;stroke:#c1325a;stroke-linecap:square;stroke-width:2.0;"/>
   </g>
   <g id="line2d_9">
    <path clip-path="url(#p652fd3abf2)" d="
M42.3934 194.12
L44.648 194.12
L46.9025 194.12
L49.1571 194.12
L51.4116 194.12
L53.6662 194.12
L55.9207 194.12
L58.1753 194.12
L60.4298 194.12
L62.6843 194.12
L64.9389 194.12
L67.1934 194.12
L69.448 194.12
L71.7025 194.12
L73.9571 194.12
L76.2116 194.12
L78.4662 194.12
L80.7207 194.059
L82.9753 194.12
L85.2298 194.12
L87.4843 194.12
L89.7389 194.12
L91.9934 194.12
L94.248 194.12
L96.5025 194.12
L98.7571 193.998
L101.012 194.12
L103.266 194.059
L105.521 193.998
L107.775 193.937
L110.03 193.937
L112.284 193.998
L114.539 193.937
L116.793 193.998
L119.048 193.753
L121.303 193.631
L123.557 193.448
L125.812 193.265
L128.066 193.387
L130.321 192.593
L132.575 192.104
L134.83 191.921
L137.084 190.332
L139.339 189.354
L141.593 188.988
L143.848 187.522
L146.103 186.177
L148.357 184.344
L150.612 181.901
L152.866 177.624
L155.121 171.636
L157.375 165.832
L159.63 158.317
L161.884 151.535
L164.139 142.187
L166.393 131.068
L168.648 118.237
L170.903 111.028
L173.157 89.2162
L175.412 81.7013
L177.666 71.6813
L179.921 58.3621
L182.175 57.018
L184.43 66.4881
L186.684 74.9195
L188.939 87.6888
L191.193 103.085
L193.448 125.874
L195.703 147.197
L197.957 162.899
L200.212 179.396
L202.466 186.422
L204.721 190.943
L206.975 192.531
L209.23 193.753
L211.484 194.12
L213.739 194.12
L215.993 194.12
L218.248 194.12
L220.503 194.12
L222.757 194.12
L225.012 194.12
L227.266 194.12
L229.521 194.12
L231.775 194.12
L234.03 194.12
L236.284 194.12
L238.539 194.12
L240.793 194.12
L243.048 194.12
L245.303 194.12
L247.557 194.12
L249.812 194.12
L252.066 194.12
L254.321 194.12
L256.575 194.12
L258.83 194.12
L261.084 194.12
L263.339 194.12
L265.593 194.12
L265.593 194.12" style="fill:none;stroke:#de1e27;stroke-linecap:square;stroke-width:2.0;"/>
   </g>
   <g id="line2d_10">
    <path clip-path="url(#p652fd3abf2)" d="
M42.3934 194.12
L44.648 194.12
L46.9025 194.12
L49.1571 194.12
L51.4116 194.12
L53.6662 194.12
L55.9207 194.12
L58.1753 194.12
L60.4298 194.12
L62.6843 194.12
L64.9389 194.12
L67.1934 194.12
L69.448 194.12
L71.7025 194.12
L73.9571 194.12
L76.2116 194.12
L78.4662 194.12
L80.7207 194.12
L82.9753 194.12
L85.2298 194.12
L87.4843 194.12
L89.7389 194.12
L91.9934 194.12
L94.248 194.12
L96.5025 194.12
L98.7571 194.12
L101.012 193.998
L103.266 194.12
L105.521 194.059
L107.775 194.12
L110.03 194.12
L112.284 194.12
L114.539 194.12
L116.793 194.059
L119.048 194.059
L121.303 194.12
L123.557 193.937
L125.812 193.815
L128.066 193.876
L130.321 193.265
L132.575 193.57
L134.83 193.265
L137.084 193.326
L139.339 192.593
L141.593 192.898
L143.848 191.982
L146.103 191.371
L148.357 189.416
L150.612 188.682
L152.866 188.743
L155.121 185.933
L157.375 184.711
L159.63 180.434
L161.884 176.035
L164.139 172.98
L166.393 166.626
L168.648 158.561
L170.903 150.924
L173.157 142.371
L175.412 127.219
L177.666 117.015
L179.921 102.291
L182.175 87.6277
L184.43 76.508
L186.684 67.5267
L188.939 53.5966
L191.193 55.3684
L193.448 59.9507
L195.703 69.5429
L197.957 87.6277
L200.212 108.828
L202.466 136.444
L204.721 154.712
L206.975 171.758
L209.23 182.145
L211.484 189.66
L213.739 192.287
L215.993 193.265
L218.248 194.059
L220.503 194.12
L222.757 194.12
L225.012 194.12
L227.266 194.12
L229.521 194.12
L231.775 194.12
L234.03 194.12
L236.284 194.12
L238.539 194.12
L240.793 194.12
L243.048 194.12
L245.303 194.12
L247.557 194.12
L249.812 194.12
L252.066 194.12
L254.321 194.12
L256.575 194.12
L258.83 194.12
L261.084 194.12
L263.339 194.12
L265.593 194.12
L265.593 194.12" style="fill:none;stroke:#ec3614;stroke-linecap:square;stroke-width:2.0;"/>
   </g>
   <g id="line2d_11">
    <path clip-path="url(#p652fd3abf2)" d="
M42.3934 194.12
L44.648 194.12
L46.9025 194.12
L49.1571 194.12
L51.4116 194.12
L53.6662 194.12
L55.9207 194.12
L58.1753 194.12
L60.4298 194.12
L62.6843 194.12
L64.9389 194.12
L67.1934 194.12
L69.448 194.12
L71.7025 194.12
L73.9571 194.12
L76.2116 194.12
L78.4662 194.12
L80.7207 194.12
L82.9753 194.12
L85.2298 194.12
L87.4843 194.12
L89.7389 194.12
L91.9934 194.12
L94.248 194.12
L96.5025 194.12
L98.7571 194.12
L101.012 194.12
L103.266 194.12
L105.521 194.12
L107.775 194.12
L110.03 194.12
L112.284 194.12
L114.539 194.12
L116.793 194.12
L119.048 194.12
L121.303 194.028
L123.557 194.028
L125.812 194.12
L128.066 194.028
L130.321 193.752
L132.575 193.844
L134.83 193.936
L137.084 193.568
L139.339 193.476
L141.593 193.384
L143.848 192.648
L146.103 193.016
L148.357 192.189
L150.612 191.545
L152.866 189.797
L155.121 190.533
L157.375 187.958
L159.63 186.118
L161.884 185.29
L164.139 182.807
L166.393 178.208
L168.648 173.702
L170.903 166.988
L173.157 164.044
L175.412 153.191
L177.666 145.098
L179.921 133.601
L182.175 116.954
L184.43 106.469
L186.684 98.6508
L188.939 67.5635
L191.193 62.321
L193.448 59.1019
L195.703 48.8008
L197.957 52.8476
L200.212 68.9431
L202.466 86.3262
L204.721 108.216
L206.975 123.852
L209.23 150.708
L211.484 170.575
L213.739 182.991
L215.993 189.061
L218.248 192.464
L220.503 193.936
L222.757 194.12
L225.012 194.12
L227.266 194.12
L229.521 194.12
L231.775 194.12
L234.03 194.12
L236.284 194.12
L238.539 194.12
L240.793 194.12
L243.048 194.12
L245.303 194.12
L247.557 194.12
L249.812 194.12
L252.066 194.12
L254.321 194.12
L256.575 194.12
L258.83 194.12
L261.084 194.12
L263.339 194.12
L265.593 194.12
L265.593 194.12" style="fill:none;stroke:#f55b0a;stroke-linecap:square;stroke-width:2.0;"/>
   </g>
   <g id="line2d_12">
    <path clip-path="url(#p652fd3abf2)" d="
M42.3934 194.12
L44.648 194.12
L46.9025 194.12
L49.1571 194.12
L51.4116 194.12
L53.6662 194.12
L55.9207 194.12
L58.1753 194.12
L60.4298 194.12
L62.6843 194.12
L64.9389 194.12
L67.1934 194.12
L69.448 194.12
L71.7025 194.12
L73.9571 194.12
L76.2116 194.12
L78.4662 194.12
L80.7207 194.12
L82.9753 194.12
L85.2298 194.12
L87.4843 194.12
L89.7389 194.12
L91.9934 194.12
L94.248 194.12
L96.5025 194.12
L98.7571 194.12
L101.012 194.12
L103.266 194.12
L105.521 194.12
L107.775 194.12
L110.03 194.12
L112.284 194.12
L114.539 194.12
L116.793 194.12
L119.048 194.12
L121.303 194.12
L123.557 193.967
L125.812 194.12
L128.066 193.967
L130.321 193.967
L132.575 194.12
L134.83 193.815
L137.084 193.815
L139.339 193.815
L141.593 193.815
L143.848 193.815
L146.103 193.509
L148.357 193.356
L150.612 193.204
L152.866 192.287
L155.121 191.371
L157.375 191.676
L159.63 190.912
L161.884 189.69
L164.139 187.399
L166.393 186.025
L168.648 187.399
L170.903 182.206
L173.157 177.471
L175.412 174.416
L177.666 163.877
L179.921 160.822
L182.175 155.323
L184.43 136.994
L186.684 130.884
L188.939 120.803
L191.193 99.2667
L193.448 84.9089
L195.703 84.6034
L197.957 58.1789
L200.212 51.3054
L202.466 42.4463
L204.721 50.389
L206.975 69.0236
L209.23 93.4625
L211.484 110.57
L213.739 132.717
L215.993 159.906
L218.248 174.111
L220.503 185.261
L222.757 190.301
L225.012 193.509
L227.266 194.12
L229.521 194.12
L231.775 194.12
L234.03 194.12
L236.284 194.12
L238.539 194.12
L240.793 194.12
L243.048 194.12
L245.303 194.12
L247.557 194.12
L249.812 194.12
L252.066 194.12
L254.321 194.12
L256.575 194.12
L258.83 194.12
L261.084 194.12
L263.339 194.12
L265.593 194.12
L265.593 194.12" style="fill:none;stroke:#ff7f00;stroke-linecap:square;stroke-width:2.0;"/>
   </g>
   <g id="patch_3">
    <path d="
M42.3934 194.12
L42.3934 21.32" style="fill:none;stroke:#000000;stroke-linecap:square;stroke-linejoin:miter;"/>
   </g>
   <g id="patch_4">
    <path d="
M42.3934 21.32
L265.593 21.32" style="fill:none;stroke:#000000;stroke-linecap:square;stroke-linejoin:miter;"/>
   </g>
   <g id="patch_5">
    <path d="
M42.3934 194.12
L265.593 194.12" style="fill:none;stroke:#000000;stroke-linecap:square;stroke-linejoin:miter;"/>
   </g>
   <g id="patch_6">
    <path d="
M265.593 194.12
L265.593 21.32" style="fill:none;stroke:#000000;stroke-linecap:square;stroke-linejoin:miter;"/>
   </g>
   <g id="matplotlib.axis_1">
    <g id="xtick_1">
     <g id="line2d_13">
      <defs>
       <path d="
M0 0
L0 -4" id="mc7db9fdffb" style="stroke:#000000;stroke-width:0.5;"/>
      </defs>
      <g>
       <use style="stroke:#000000;stroke-width:0.5;" x="42.3934375" xlink:href="#mc7db9fdffb" y="194.12"/>
      </g>
     </g>
     <g id="line2d_14">
      <defs>
       <path d="
M0 0
L0 4" id="m5a7d422ac3" style="stroke:#000000;stroke-width:0.5;"/>
      </defs>
      <g>
       <use style="stroke:#000000;stroke-width:0.5;" x="42.3934375" xlink:href="#m5a7d422ac3" y="21.32"/>
      </g>
     </g>
     <g id="text_1">
      <!-- $\mathdefault{10^{-2}}$ -->
      <defs>
       <path d="
M31.7812 66.4062
Q24.1719 66.4062 20.3281 58.9062
Q16.5 51.4219 16.5 36.375
Q16.5 21.3906 20.3281 13.8906
Q24.1719 6.39062 31.7812 6.39062
Q39.4531 6.39062 43.2812 13.8906
Q47.125 21.3906 47.125 36.375
Q47.125 51.4219 43.2812 58.9062
Q39.4531 66.4062 31.7812 66.4062
M31.7812 74.2188
Q44.0469 74.2188 50.5156 64.5156
Q56.9844 54.8281 56.9844 36.375
Q56.9844 17.9688 50.5156 8.26562
Q44.0469 -1.42188 31.7812 -1.42188
Q19.5312 -1.42188 13.0625 8.26562
Q6.59375 17.9688 6.59375 36.375
Q6.59375 54.8281 13.0625 64.5156
Q19.5312 74.2188 31.7812 74.2188" id="BitstreamVeraSans-Roman-30"/>
       <path d="
M12.4062 8.29688
L28.5156 8.29688
L28.5156 63.9219
L10.9844 60.4062
L10.9844 69.3906
L28.4219 72.9062
L38.2812 72.9062
L38.2812 8.29688
L54.3906 8.29688
L54.3906 0
L12.4062 0
z
" id="BitstreamVeraSans-Roman-31"/>
       <path d="
M4.89062 31.3906
L31.2031 31.3906
L31.2031 23.3906
L4.89062 23.3906
z
" id="BitstreamVeraSans-Roman-2d"/>
       <path d="
M19.1875 8.29688
L53.6094 8.29688
L53.6094 0
L7.32812 0
L7.32812 8.29688
Q12.9375 14.1094 22.625 23.8906
Q32.3281 33.6875 34.8125 36.5312
Q39.5469 41.8438 41.4219 45.5312
Q43.3125 49.2188 43.3125 52.7812
Q43.3125 58.5938 39.2344 62.25
Q35.1562 65.9219 28.6094 65.9219
Q23.9688 65.9219 18.8125 64.3125
Q13.6719 62.7031 7.8125 59.4219
L7.8125 69.3906
Q13.7656 71.7812 18.9375 73
Q24.125 74.2188 28.4219 74.2188
Q39.75 74.2188 46.4844 68.5469
Q53.2188 62.8906 53.2188 53.4219
Q53.2188 48.9219 51.5312 44.8906
Q49.8594 40.875 45.4062 35.4062
Q44.1875 33.9844 37.6406 27.2188
Q31.1094 20.4531 19.1875 8.29688" id="BitstreamVeraSans-Roman-32"/>
      </defs>
      <g transform="translate(31.4434375 206.7403125)scale(0.1 -0.1)">
       <use transform="translate(0.0 0.546875)" xlink:href="#BitstreamVeraSans-Roman-31"/>
       <use transform="translate(63.623046875 0.546875)" xlink:href="#BitstreamVeraSans-Roman-30"/>
       <use transform="translate(127.24609375 53.046875)scale(0.7)" xlink:href="#BitstreamVeraSans-Roman-2d"/>
       <use transform="translate(152.5048828125 53.046875)scale(0.7)" xlink:href="#BitstreamVeraSans-Roman-32"/>
      </g>
     </g>
    </g>
    <g id="xtick_2">
     <g id="line2d_15">
      <g>
       <use style="stroke:#000000;stroke-width:0.5;" x="98.1934375" xlink:href="#mc7db9fdffb" y="194.12"/>
      </g>
     </g>
     <g id="line2d_16">
      <g>
       <use style="stroke:#000000;stroke-width:0.5;" x="98.1934375" xlink:href="#m5a7d422ac3" y="21.32"/>
      </g>
     </g>
     <g id="text_2">
      <!-- $\mathdefault{10^{-1}}$ -->
      <g transform="translate(87.2434375 206.6403125)scale(0.1 -0.1)">
       <use transform="translate(0.0 0.46562500000000284)" xlink:href="#BitstreamVeraSans-Roman-31"/>
       <use transform="translate(63.623046875 0.46562500000000284)" xlink:href="#BitstreamVeraSans-Roman-30"/>
       <use transform="translate(127.24609375 52.965625)scale(0.7)" xlink:href="#BitstreamVeraSans-Roman-2d"/>
       <use transform="translate(152.5048828125 52.965625)scale(0.7)" xlink:href="#BitstreamVeraSans-Roman-31"/>
      </g>
     </g>
    </g>
    <g id="xtick_3">
     <g id="line2d_17">
      <g>
       <use style="stroke:#000000;stroke-width:0.5;" x="153.9934375" xlink:href="#mc7db9fdffb" y="194.12"/>
      </g>
     </g>
     <g id="line2d_18">
      <g>
       <use style="stroke:#000000;stroke-width:0.5;" x="153.9934375" xlink:href="#m5a7d422ac3" y="21.32"/>
      </g>
     </g>
     <g id="text_3">
      <!-- $\mathdefault{10^{0}}$ -->
      <g transform="translate(144.3434375 206.7403125)scale(0.1 -0.1)">
       <use transform="translate(0.0 0.546875)" xlink:href="#BitstreamVeraSans-Roman-31"/>
       <use transform="translate(63.623046875 0.546875)" xlink:href="#BitstreamVeraSans-Roman-30"/>
       <use transform="translate(127.24609375 53.046875)scale(0.7)" xlink:href="#BitstreamVeraSans-Roman-30"/>
      </g>
     </g>
    </g>
    <g id="xtick_4">
     <g id="line2d_19">
      <g>
       <use style="stroke:#000000;stroke-width:0.5;" x="209.7934375" xlink:href="#mc7db9fdffb" y="194.12"/>
      </g>
     </g>
     <g id="line2d_20">
      <g>
       <use style="stroke:#000000;stroke-width:0.5;" x="209.7934375" xlink:href="#m5a7d422ac3" y="21.32"/>
      </g>
     </g>
     <g id="text_4">
      <!-- $\mathdefault{10^{1}}$ -->
      <g transform="translate(200.1434375 206.6403125)scale(0.1 -0.1)">
       <use transform="translate(0.0 0.46562500000000284)" xlink:href="#BitstreamVeraSans-Roman-31"/>
       <use transform="translate(63.623046875 0.46562500000000284)" xlink:href="#BitstreamVeraSans-Roman-30"/>
       <use transform="translate(127.24609375 52.965625)scale(0.7)" xlink:href="#BitstreamVeraSans-Roman-31"/>
      </g>
     </g>
    </g>
    <g id="xtick_5">
     <g id="line2d_21">
      <g>
       <use style="stroke:#000000;stroke-width:0.5;" x="265.5934375" xlink:href="#mc7db9fdffb" y="194.12"/>
      </g>
     </g>
     <g id="line2d_22">
      <g>
       <use style="stroke:#000000;stroke-width:0.5;" x="265.5934375" xlink:href="#m5a7d422ac3" y="21.32"/>
      </g>
     </g>
     <g id="text_5">
      <!-- $\mathdefault{10^{2}}$ -->
      <g transform="translate(255.9434375 206.7403125)scale(0.1 -0.1)">
       <use transform="translate(0.0 0.546875)" xlink:href="#BitstreamVeraSans-Roman-31"/>
       <use transform="translate(63.623046875 0.546875)" xlink:href="#BitstreamVeraSans-Roman-30"/>
       <use transform="translate(127.24609375 53.046875)scale(0.7)" xlink:href="#BitstreamVeraSans-Roman-32"/>
      </g>
     </g>
    </g>
    <g id="xtick_6">
     <g id="line2d_23">
      <defs>
       <path d="
M0 0
L0 -2" id="mc21db286a6" style="stroke:#000000;stroke-width:0.5;"/>
      </defs>
      <g>
       <use style="stroke:#000000;stroke-width:0.5;" x="59.1909112581" xlink:href="#mc21db286a6" y="194.12"/>
      </g>
     </g>
     <g id="line2d_24">
      <defs>
       <path d="
M0 0
L0 2" id="ma9c915e141" style="stroke:#000000;stroke-width:0.5;"/>
      </defs>
      <g>
       <use style="stroke:#000000;stroke-width:0.5;" x="59.1909112581" xlink:href="#ma9c915e141" y="21.32"/>
      </g>
     </g>
    </g>
    <g id="xtick_7">
     <g id="line2d_25">
      <g>
       <use style="stroke:#000000;stroke-width:0.5;" x="69.0168035134" xlink:href="#mc21db286a6" y="194.12"/>
      </g>
     </g>
     <g id="line2d_26">
      <g>
       <use style="stroke:#000000;stroke-width:0.5;" x="69.0168035134" xlink:href="#ma9c915e141" y="21.32"/>
      </g>
     </g>
    </g>
    <g id="xtick_8">
     <g id="line2d_27">
      <g>
       <use style="stroke:#000000;stroke-width:0.5;" x="75.9883850161" xlink:href="#mc21db286a6" y="194.12"/>
      </g>
     </g>
     <g id="line2d_28">
      <g>
       <use style="stroke:#000000;stroke-width:0.5;" x="75.9883850161" xlink:href="#ma9c915e141" y="21.32"/>
      </g>
     </g>
    </g>
    <g id="xtick_9">
     <g id="line2d_29">
      <g>
       <use style="stroke:#000000;stroke-width:0.5;" x="81.3959637419" xlink:href="#mc21db286a6" y="194.12"/>
      </g>
     </g>
     <g id="line2d_30">
      <g>
       <use style="stroke:#000000;stroke-width:0.5;" x="81.3959637419" xlink:href="#ma9c915e141" y="21.32"/>
      </g>
     </g>
    </g>
    <g id="xtick_10">
     <g id="line2d_31">
      <g>
       <use style="stroke:#000000;stroke-width:0.5;" x="85.8142772714" xlink:href="#mc21db286a6" y="194.12"/>
      </g>
     </g>
     <g id="line2d_32">
      <g>
       <use style="stroke:#000000;stroke-width:0.5;" x="85.8142772714" xlink:href="#ma9c915e141" y="21.32"/>
      </g>
     </g>
    </g>
    <g id="xtick_11">
     <g id="line2d_33">
      <g>
       <use style="stroke:#000000;stroke-width:0.5;" x="89.5499081328" xlink:href="#mc21db286a6" y="194.12"/>
      </g>
     </g>
     <g id="line2d_34">
      <g>
       <use style="stroke:#000000;stroke-width:0.5;" x="89.5499081328" xlink:href="#ma9c915e141" y="21.32"/>
      </g>
     </g>
    </g>
    <g id="xtick_12">
     <g id="line2d_35">
      <g>
       <use style="stroke:#000000;stroke-width:0.5;" x="92.7858587742" xlink:href="#mc21db286a6" y="194.12"/>
      </g>
     </g>
     <g id="line2d_36">
      <g>
       <use style="stroke:#000000;stroke-width:0.5;" x="92.7858587742" xlink:href="#ma9c915e141" y="21.32"/>
      </g>
     </g>
    </g>
    <g id="xtick_13">
     <g id="line2d_37">
      <g>
       <use style="stroke:#000000;stroke-width:0.5;" x="95.6401695267" xlink:href="#mc21db286a6" y="194.12"/>
      </g>
     </g>
     <g id="line2d_38">
      <g>
       <use style="stroke:#000000;stroke-width:0.5;" x="95.6401695267" xlink:href="#ma9c915e141" y="21.32"/>
      </g>
     </g>
    </g>
    <g id="xtick_14">
     <g id="line2d_39">
      <g>
       <use style="stroke:#000000;stroke-width:0.5;" x="114.990911258" xlink:href="#mc21db286a6" y="194.12"/>
      </g>
     </g>
     <g id="line2d_40">
      <g>
       <use style="stroke:#000000;stroke-width:0.5;" x="114.990911258" xlink:href="#ma9c915e141" y="21.32"/>
      </g>
     </g>
    </g>
    <g id="xtick_15">
     <g id="line2d_41">
      <g>
       <use style="stroke:#000000;stroke-width:0.5;" x="124.816803513" xlink:href="#mc21db286a6" y="194.12"/>
      </g>
     </g>
     <g id="line2d_42">
      <g>
       <use style="stroke:#000000;stroke-width:0.5;" x="124.816803513" xlink:href="#ma9c915e141" y="21.32"/>
      </g>
     </g>
    </g>
    <g id="xtick_16">
     <g id="line2d_43">
      <g>
       <use style="stroke:#000000;stroke-width:0.5;" x="131.788385016" xlink:href="#mc21db286a6" y="194.12"/>
      </g>
     </g>
     <g id="line2d_44">
      <g>
       <use style="stroke:#000000;stroke-width:0.5;" x="131.788385016" xlink:href="#ma9c915e141" y="21.32"/>
      </g>
     </g>
    </g>
    <g id="xtick_17">
     <g id="line2d_45">
      <g>
       <use style="stroke:#000000;stroke-width:0.5;" x="137.195963742" xlink:href="#mc21db286a6" y="194.12"/>
      </g>
     </g>
     <g id="line2d_46">
      <g>
       <use style="stroke:#000000;stroke-width:0.5;" x="137.195963742" xlink:href="#ma9c915e141" y="21.32"/>
      </g>
     </g>
    </g>
    <g id="xtick_18">
     <g id="line2d_47">
      <g>
       <use style="stroke:#000000;stroke-width:0.5;" x="141.614277271" xlink:href="#mc21db286a6" y="194.12"/>
      </g>
     </g>
     <g id="line2d_48">
      <g>
       <use style="stroke:#000000;stroke-width:0.5;" x="141.614277271" xlink:href="#ma9c915e141" y="21.32"/>
      </g>
     </g>
    </g>
    <g id="xtick_19">
     <g id="line2d_49">
      <g>
       <use style="stroke:#000000;stroke-width:0.5;" x="145.349908133" xlink:href="#mc21db286a6" y="194.12"/>
      </g>
     </g>
     <g id="line2d_50">
      <g>
       <use style="stroke:#000000;stroke-width:0.5;" x="145.349908133" xlink:href="#ma9c915e141" y="21.32"/>
      </g>
     </g>
    </g>
    <g id="xtick_20">
     <g id="line2d_51">
      <g>
       <use style="stroke:#000000;stroke-width:0.5;" x="148.585858774" xlink:href="#mc21db286a6" y="194.12"/>
      </g>
     </g>
     <g id="line2d_52">
      <g>
       <use style="stroke:#000000;stroke-width:0.5;" x="148.585858774" xlink:href="#ma9c915e141" y="21.32"/>
      </g>
     </g>
    </g>
    <g id="xtick_21">
     <g id="line2d_53">
      <g>
       <use style="stroke:#000000;stroke-width:0.5;" x="151.440169527" xlink:href="#mc21db286a6" y="194.12"/>
      </g>
     </g>
     <g id="line2d_54">
      <g>
       <use style="stroke:#000000;stroke-width:0.5;" x="151.440169527" xlink:href="#ma9c915e141" y="21.32"/>
      </g>
     </g>
    </g>
    <g id="xtick_22">
     <g id="line2d_55">
      <g>
       <use style="stroke:#000000;stroke-width:0.5;" x="170.790911258" xlink:href="#mc21db286a6" y="194.12"/>
      </g>
     </g>
     <g id="line2d_56">
      <g>
       <use style="stroke:#000000;stroke-width:0.5;" x="170.790911258" xlink:href="#ma9c915e141" y="21.32"/>
      </g>
     </g>
    </g>
    <g id="xtick_23">
     <g id="line2d_57">
      <g>
       <use style="stroke:#000000;stroke-width:0.5;" x="180.616803513" xlink:href="#mc21db286a6" y="194.12"/>
      </g>
     </g>
     <g id="line2d_58">
      <g>
       <use style="stroke:#000000;stroke-width:0.5;" x="180.616803513" xlink:href="#ma9c915e141" y="21.32"/>
      </g>
     </g>
    </g>
    <g id="xtick_24">
     <g id="line2d_59">
      <g>
       <use style="stroke:#000000;stroke-width:0.5;" x="187.588385016" xlink:href="#mc21db286a6" y="194.12"/>
      </g>
     </g>
     <g id="line2d_60">
      <g>
       <use style="stroke:#000000;stroke-width:0.5;" x="187.588385016" xlink:href="#ma9c915e141" y="21.32"/>
      </g>
     </g>
    </g>
    <g id="xtick_25">
     <g id="line2d_61">
      <g>
       <use style="stroke:#000000;stroke-width:0.5;" x="192.995963742" xlink:href="#mc21db286a6" y="194.12"/>
      </g>
     </g>
     <g id="line2d_62">
      <g>
       <use style="stroke:#000000;stroke-width:0.5;" x="192.995963742" xlink:href="#ma9c915e141" y="21.32"/>
      </g>
     </g>
    </g>
    <g id="xtick_26">
     <g id="line2d_63">
      <g>
       <use style="stroke:#000000;stroke-width:0.5;" x="197.414277271" xlink:href="#mc21db286a6" y="194.12"/>
      </g>
     </g>
     <g id="line2d_64">
      <g>
       <use style="stroke:#000000;stroke-width:0.5;" x="197.414277271" xlink:href="#ma9c915e141" y="21.32"/>
      </g>
     </g>
    </g>
    <g id="xtick_27">
     <g id="line2d_65">
      <g>
       <use style="stroke:#000000;stroke-width:0.5;" x="201.149908133" xlink:href="#mc21db286a6" y="194.12"/>
      </g>
     </g>
     <g id="line2d_66">
      <g>
       <use style="stroke:#000000;stroke-width:0.5;" x="201.149908133" xlink:href="#ma9c915e141" y="21.32"/>
      </g>
     </g>
    </g>
    <g id="xtick_28">
     <g id="line2d_67">
      <g>
       <use style="stroke:#000000;stroke-width:0.5;" x="204.385858774" xlink:href="#mc21db286a6" y="194.12"/>
      </g>
     </g>
     <g id="line2d_68">
      <g>
       <use style="stroke:#000000;stroke-width:0.5;" x="204.385858774" xlink:href="#ma9c915e141" y="21.32"/>
      </g>
     </g>
    </g>
    <g id="xtick_29">
     <g id="line2d_69">
      <g>
       <use style="stroke:#000000;stroke-width:0.5;" x="207.240169527" xlink:href="#mc21db286a6" y="194.12"/>
      </g>
     </g>
     <g id="line2d_70">
      <g>
       <use style="stroke:#000000;stroke-width:0.5;" x="207.240169527" xlink:href="#ma9c915e141" y="21.32"/>
      </g>
     </g>
    </g>
    <g id="xtick_30">
     <g id="line2d_71">
      <g>
       <use style="stroke:#000000;stroke-width:0.5;" x="226.590911258" xlink:href="#mc21db286a6" y="194.12"/>
      </g>
     </g>
     <g id="line2d_72">
      <g>
       <use style="stroke:#000000;stroke-width:0.5;" x="226.590911258" xlink:href="#ma9c915e141" y="21.32"/>
      </g>
     </g>
    </g>
    <g id="xtick_31">
     <g id="line2d_73">
      <g>
       <use style="stroke:#000000;stroke-width:0.5;" x="236.416803513" xlink:href="#mc21db286a6" y="194.12"/>
      </g>
     </g>
     <g id="line2d_74">
      <g>
       <use style="stroke:#000000;stroke-width:0.5;" x="236.416803513" xlink:href="#ma9c915e141" y="21.32"/>
      </g>
     </g>
    </g>
    <g id="xtick_32">
     <g id="line2d_75">
      <g>
       <use style="stroke:#000000;stroke-width:0.5;" x="243.388385016" xlink:href="#mc21db286a6" y="194.12"/>
      </g>
     </g>
     <g id="line2d_76">
      <g>
       <use style="stroke:#000000;stroke-width:0.5;" x="243.388385016" xlink:href="#ma9c915e141" y="21.32"/>
      </g>
     </g>
    </g>
    <g id="xtick_33">
     <g id="line2d_77">
      <g>
       <use style="stroke:#000000;stroke-width:0.5;" x="248.795963742" xlink:href="#mc21db286a6" y="194.12"/>
      </g>
     </g>
     <g id="line2d_78">
      <g>
       <use style="stroke:#000000;stroke-width:0.5;" x="248.795963742" xlink:href="#ma9c915e141" y="21.32"/>
      </g>
     </g>
    </g>
    <g id="xtick_34">
     <g id="line2d_79">
      <g>
       <use style="stroke:#000000;stroke-width:0.5;" x="253.214277271" xlink:href="#mc21db286a6" y="194.12"/>
      </g>
     </g>
     <g id="line2d_80">
      <g>
       <use style="stroke:#000000;stroke-width:0.5;" x="253.214277271" xlink:href="#ma9c915e141" y="21.32"/>
      </g>
     </g>
    </g>
    <g id="xtick_35">
     <g id="line2d_81">
      <g>
       <use style="stroke:#000000;stroke-width:0.5;" x="256.949908133" xlink:href="#mc21db286a6" y="194.12"/>
      </g>
     </g>
     <g id="line2d_82">
      <g>
       <use style="stroke:#000000;stroke-width:0.5;" x="256.949908133" xlink:href="#ma9c915e141" y="21.32"/>
      </g>
     </g>
    </g>
    <g id="xtick_36">
     <g id="line2d_83">
      <g>
       <use style="stroke:#000000;stroke-width:0.5;" x="260.185858774" xlink:href="#mc21db286a6" y="194.12"/>
      </g>
     </g>
     <g id="line2d_84">
      <g>
       <use style="stroke:#000000;stroke-width:0.5;" x="260.185858774" xlink:href="#ma9c915e141" y="21.32"/>
      </g>
     </g>
    </g>
    <g id="xtick_37">
     <g id="line2d_85">
      <g>
       <use style="stroke:#000000;stroke-width:0.5;" x="263.040169527" xlink:href="#mc21db286a6" y="194.12"/>
      </g>
     </g>
     <g id="line2d_86">
      <g>
       <use style="stroke:#000000;stroke-width:0.5;" x="263.040169527" xlink:href="#ma9c915e141" y="21.32"/>
      </g>
     </g>
    </g>
    <g id="text_6">
     <!-- $\Delta r$ -->
     <defs>
      <path d="
M5.42188 0
Q4.59375 0 4.59375 0.78125
Q4.64062 0.875 4.65625 0.921875
Q4.6875 0.984375 4.6875 1.125
L39.1094 70.5156
Q39.5469 71.5781 40.9219 71.5781
L42.2812 71.5781
Q43.6562 71.5781 44.0938 70.5156
L78.5156 1.125
Q78.5625 1.03125 78.5781 0.953125
Q78.6094 0.875 78.6094 0.78125
Q78.6094 0 77.7812 0
z

M12.0156 8.01562
L64.7031 8.01562
L38.375 61.0781
z
" id="Cmr10-a2"/>
      <path d="
M7.71875 1.70312
Q7.71875 2.29688 7.8125 2.59375
L15.2812 32.4219
Q16.0156 35.2031 16.0156 37.3125
Q16.0156 41.6094 13.0938 41.6094
Q9.96875 41.6094 8.45312 37.8594
Q6.9375 34.125 5.51562 28.4219
Q5.51562 28.125 5.21875 27.9531
Q4.9375 27.7812 4.6875 27.7812
L3.51562 27.7812
Q3.17188 27.7812 2.92188 28.1406
Q2.6875 28.5156 2.6875 28.8125
Q3.76562 33.1562 4.76562 36.1719
Q5.76562 39.2031 7.89062 41.6875
Q10.0156 44.1875 13.1875 44.1875
Q16.6562 44.1875 19.2656 42.1875
Q21.875 40.1875 22.5156 36.9219
Q25.0469 40.2344 28.2969 42.2031
Q31.5469 44.1875 35.4062 44.1875
Q38.5781 44.1875 40.9844 42.3281
Q43.4062 40.4844 43.4062 37.3125
Q43.4062 34.7656 41.8125 32.875
Q40.2344 31 37.5938 31
Q35.9844 31 34.8906 32
Q33.7969 33.0156 33.7969 34.625
Q33.7969 36.8125 35.4062 38.5469
Q37.0156 40.2812 39.1094 40.2812
Q37.5 41.6094 35.2031 41.6094
Q30.9062 41.6094 27.7344 38.5469
Q24.5625 35.5 22.0156 30.8125
L14.8906 2.20312
Q14.5469 0.828125 13.3438 -0.140625
Q12.1562 -1.125 10.6875 -1.125
Q9.46875 -1.125 8.59375 -0.34375
Q7.71875 0.4375 7.71875 1.70312" id="Cmmi10-72"/>
     </defs>
     <g transform="translate(146.2534375 222.938125)scale(0.12 -0.12)">
      <use transform="translate(0.0 0.421875)" xlink:href="#Cmr10-a2"/>
      <use transform="translate(83.30078125 0.421875)" xlink:href="#Cmmi10-72"/>
     </g>
    </g>
   </g>
   <g id="matplotlib.axis_2">
    <g id="ytick_1">
     <g id="line2d_87">
      <defs>
       <path d="
M0 0
L4 0" id="md7965d1ba0" style="stroke:#000000;stroke-width:0.5;"/>
      </defs>
      <g>
       <use style="stroke:#000000;stroke-width:0.5;" x="42.3934375" xlink:href="#md7965d1ba0" y="194.12"/>
      </g>
     </g>
     <g id="line2d_88">
      <defs>
       <path d="
M0 0
L-4 0" id="md9a1c1a7cd" style="stroke:#000000;stroke-width:0.5;"/>
      </defs>
      <g>
       <use style="stroke:#000000;stroke-width:0.5;" x="265.5934375" xlink:href="#md9a1c1a7cd" y="194.12"/>
      </g>
     </g>
     <g id="text_7">
      <!-- 0.0 -->
      <defs>
       <path d="
M10.6875 12.4062
L21 12.4062
L21 0
L10.6875 0
z
" id="BitstreamVeraSans-Roman-2e"/>
      </defs>
      <g transform="translate(23.81375 196.879375)scale(0.1 -0.1)">
       <use xlink:href="#BitstreamVeraSans-Roman-30"/>
       <use x="63.623046875" xlink:href="#BitstreamVeraSans-Roman-2e"/>
       <use x="95.41015625" xlink:href="#BitstreamVeraSans-Roman-30"/>
      </g>
     </g>
    </g>
    <g id="ytick_2">
     <g id="line2d_89">
      <g>
       <use style="stroke:#000000;stroke-width:0.5;" x="42.3934375" xlink:href="#md7965d1ba0" y="159.56"/>
      </g>
     </g>
     <g id="line2d_90">
      <g>
       <use style="stroke:#000000;stroke-width:0.5;" x="265.5934375" xlink:href="#md9a1c1a7cd" y="159.56"/>
      </g>
     </g>
     <g id="text_8">
      <!-- 0.5 -->
      <defs>
       <path d="
M10.7969 72.9062
L49.5156 72.9062
L49.5156 64.5938
L19.8281 64.5938
L19.8281 46.7344
Q21.9688 47.4688 24.1094 47.8281
Q26.2656 48.1875 28.4219 48.1875
Q40.625 48.1875 47.75 41.5
Q54.8906 34.8125 54.8906 23.3906
Q54.8906 11.625 47.5625 5.09375
Q40.2344 -1.42188 26.9062 -1.42188
Q22.3125 -1.42188 17.5469 -0.640625
Q12.7969 0.140625 7.71875 1.70312
L7.71875 11.625
Q12.1094 9.23438 16.7969 8.0625
Q21.4844 6.89062 26.7031 6.89062
Q35.1562 6.89062 40.0781 11.3281
Q45.0156 15.7656 45.0156 23.3906
Q45.0156 31 40.0781 35.4375
Q35.1562 39.8906 26.7031 39.8906
Q22.75 39.8906 18.8125 39.0156
Q14.8906 38.1406 10.7969 36.2812
z
" id="BitstreamVeraSans-Roman-35"/>
      </defs>
      <g transform="translate(24.023125 162.319375)scale(0.1 -0.1)">
       <use xlink:href="#BitstreamVeraSans-Roman-30"/>
       <use x="63.623046875" xlink:href="#BitstreamVeraSans-Roman-2e"/>
       <use x="95.41015625" xlink:href="#BitstreamVeraSans-Roman-35"/>
      </g>
     </g>
    </g>
    <g id="ytick_3">
     <g id="line2d_91">
      <g>
       <use style="stroke:#000000;stroke-width:0.5;" x="42.3934375" xlink:href="#md7965d1ba0" y="125.0"/>
      </g>
     </g>
     <g id="line2d_92">
      <g>
       <use style="stroke:#000000;stroke-width:0.5;" x="265.5934375" xlink:href="#md9a1c1a7cd" y="125.0"/>
      </g>
     </g>
     <g id="text_9">
      <!-- 1.0 -->
      <g transform="translate(24.2528125 127.759375)scale(0.1 -0.1)">
       <use xlink:href="#BitstreamVeraSans-Roman-31"/>
       <use x="63.623046875" xlink:href="#BitstreamVeraSans-Roman-2e"/>
       <use x="95.41015625" xlink:href="#BitstreamVeraSans-Roman-30"/>
      </g>
     </g>
    </g>
    <g id="ytick_4">
     <g id="line2d_93">
      <g>
       <use style="stroke:#000000;stroke-width:0.5;" x="42.3934375" xlink:href="#md7965d1ba0" y="90.44"/>
      </g>
     </g>
     <g id="line2d_94">
      <g>
       <use style="stroke:#000000;stroke-width:0.5;" x="265.5934375" xlink:href="#md9a1c1a7cd" y="90.44"/>
      </g>
     </g>
     <g id="text_10">
      <!-- 1.5 -->
      <g transform="translate(24.4621875 93.199375)scale(0.1 -0.1)">
       <use xlink:href="#BitstreamVeraSans-Roman-31"/>
       <use x="63.623046875" xlink:href="#BitstreamVeraSans-Roman-2e"/>
       <use x="95.41015625" xlink:href="#BitstreamVeraSans-Roman-35"/>
      </g>
     </g>
    </g>
    <g id="ytick_5">
     <g id="line2d_95">
      <g>
       <use style="stroke:#000000;stroke-width:0.5;" x="42.3934375" xlink:href="#md7965d1ba0" y="55.88"/>
      </g>
     </g>
     <g id="line2d_96">
      <g>
       <use style="stroke:#000000;stroke-width:0.5;" x="265.5934375" xlink:href="#md9a1c1a7cd" y="55.88"/>
      </g>
     </g>
     <g id="text_11">
      <!-- 2.0 -->
      <g transform="translate(23.8871875 58.639375)scale(0.1 -0.1)">
       <use xlink:href="#BitstreamVeraSans-Roman-32"/>
       <use x="63.623046875" xlink:href="#BitstreamVeraSans-Roman-2e"/>
       <use x="95.41015625" xlink:href="#BitstreamVeraSans-Roman-30"/>
      </g>
     </g>
    </g>
    <g id="ytick_6">
     <g id="line2d_97">
      <g>
       <use style="stroke:#000000;stroke-width:0.5;" x="42.3934375" xlink:href="#md7965d1ba0" y="21.32"/>
      </g>
     </g>
     <g id="line2d_98">
      <g>
       <use style="stroke:#000000;stroke-width:0.5;" x="265.5934375" xlink:href="#md9a1c1a7cd" y="21.32"/>
      </g>
     </g>
     <g id="text_12">
      <!-- 2.5 -->
      <g transform="translate(24.0965625 24.079375)scale(0.1 -0.1)">
       <use xlink:href="#BitstreamVeraSans-Roman-32"/>
       <use x="63.623046875" xlink:href="#BitstreamVeraSans-Roman-2e"/>
       <use x="95.41015625" xlink:href="#BitstreamVeraSans-Roman-35"/>
      </g>
     </g>
    </g>
    <g id="text_13">
     <!-- $P\left(\log\left(\Delta r\right)\right)$ -->
     <defs>
      <path d="
M2.78125 -7.8125
Q2.78125 -4.25 5.35938 -1.57812
Q7.95312 1.07812 11.5312 2.20312
Q9.51562 3.71875 8.46875 6
Q7.42188 8.29688 7.42188 10.8906
Q7.42188 15.5781 10.4062 19.1875
Q5.8125 23.6875 5.8125 29.5
Q5.8125 32.625 7.15625 35.3594
Q8.5 38.0938 10.8906 40.0938
Q13.2812 42.0938 16.2031 43.1406
Q19.1406 44.1875 22.2188 44.1875
Q28.1719 44.1875 32.9062 40.7188
Q34.9688 42.9219 37.7656 44.1094
Q40.5781 45.3125 43.6094 45.3125
Q45.75 45.3125 47.1094 43.7656
Q48.4844 42.2344 48.4844 40.0938
Q48.4844 38.875 47.5469 37.9375
Q46.625 37.0156 45.4062 37.0156
Q44.1406 37.0156 43.2031 37.9375
Q42.2812 38.875 42.2812 40.0938
Q42.2812 41.9375 43.5 42.6719
Q38.3281 42.6719 34.625 39.1094
Q36.4219 37.3125 37.5156 34.6875
Q38.625 32.0781 38.625 29.5
Q38.625 25.25 36.2812 21.8438
Q33.9375 18.4531 30.0938 16.5781
Q26.2656 14.7031 22.2188 14.7031
Q16.75 14.7031 12.2031 17.6719
Q10.7969 15.7188 10.7969 13.2812
Q10.7969 10.6406 12.5312 8.65625
Q14.2656 6.6875 16.8906 6.6875
L25.0938 6.6875
Q31.0625 6.6875 35.8438 5.60938
Q40.625 4.54688 43.875 1.3125
Q47.125 -1.90625 47.125 -7.8125
Q47.125 -12.2031 43.4062 -15.1094
Q39.7031 -18.0156 34.5469 -19.3125
Q29.3906 -20.6094 25 -20.6094
Q20.5625 -20.6094 15.375 -19.3125
Q10.2031 -18.0156 6.48438 -15.1094
Q2.78125 -12.2031 2.78125 -7.8125
M8.40625 -7.8125
Q8.40625 -11.1875 11.1406 -13.4531
Q13.875 -15.7188 17.7188 -16.8125
Q21.5781 -17.9219 25 -17.9219
Q28.375 -17.9219 32.2188 -16.8125
Q36.0781 -15.7188 38.7812 -13.4531
Q41.5 -11.1875 41.5 -7.8125
Q41.5 -2.59375 36.7188 -1.04688
Q31.9375 0.484375 25.0938 0.484375
L16.8906 0.484375
Q14.5938 0.484375 12.6719 -0.609375
Q10.75 -1.70312 9.57812 -3.6875
Q8.40625 -5.67188 8.40625 -7.8125
M22.2188 17.3906
Q30.7188 17.3906 30.7188 29.5
Q30.7188 34.7188 28.9062 38.1094
Q27.0938 41.5 22.2188 41.5
Q17.3281 41.5 15.5156 38.1094
Q13.7188 34.7188 13.7188 29.5
Q13.7188 26.1719 14.4062 23.4844
Q15.0938 20.7969 16.9375 19.0938
Q18.7969 17.3906 22.2188 17.3906" id="Cmr10-67"/>
      <path d="
M25 -1.125
Q19 -1.125 13.8594 1.92188
Q8.73438 4.98438 5.75 10.1094
Q2.78125 15.2344 2.78125 21.2969
Q2.78125 25.875 4.42188 30.125
Q6.0625 34.375 9.10938 37.7188
Q12.1562 41.0625 16.2031 42.9375
Q20.2656 44.8281 25 44.8281
Q31.1562 44.8281 36.2031 41.5781
Q41.2656 38.3281 44.1875 32.875
Q47.125 27.4375 47.125 21.2969
Q47.125 15.2812 44.1406 10.125
Q41.1562 4.98438 36.0469 1.92188
Q30.9531 -1.125 25 -1.125
M25 1.8125
Q33.0156 1.8125 35.6875 7.60938
Q38.375 13.4219 38.375 22.4062
Q38.375 27.4375 37.8438 30.7344
Q37.3125 34.0312 35.5 36.7188
Q34.375 38.375 32.6406 39.625
Q30.9062 40.875 28.9688 41.5312
Q27.0469 42.1875 25 42.1875
Q21.875 42.1875 19.0625 40.7656
Q16.2656 39.3594 14.4062 36.7188
Q12.5469 33.8906 12.0312 30.4844
Q11.5312 27.0938 11.5312 22.4062
Q11.5312 16.7969 12.5 12.3281
Q13.4844 7.85938 16.4375 4.82812
Q19.3906 1.8125 25 1.8125" id="Cmr10-6f"/>
      <path d="
M3.07812 0
L3.07812 3.51562
Q6.5 3.51562 8.6875 4.04688
Q10.8906 4.59375 10.8906 6.6875
L10.8906 59.1875
Q10.8906 61.8594 10.0781 63.0625
Q9.28125 64.2656 7.76562 64.5312
Q6.25 64.7969 3.07812 64.7969
L3.07812 68.3125
L17.9219 69.3906
L17.9219 6.6875
Q17.9219 4.59375 20.1094 4.04688
Q22.3125 3.51562 25.6875 3.51562
L25.6875 0
z
" id="Cmr10-6c"/>
      <path d="
M31 -24.8125
Q25.4375 -20.4062 21.4062 -14.7188
Q17.3906 -9.03125 14.8125 -2.57812
Q12.25 3.85938 10.9844 10.8906
Q9.71875 17.9219 9.71875 25
Q9.71875 32.1719 10.9844 39.2031
Q12.25 46.2344 14.8594 52.7344
Q17.4844 59.2344 21.5312 64.8906
Q25.5938 70.5625 31 74.8125
Q31 75 31.5 75
L32.4219 75
Q32.7188 75 32.9531 74.7344
Q33.2031 74.4688 33.2031 74.125
Q33.2031 73.6875 33.0156 73.4844
Q28.125 68.7031 24.875 63.2344
Q21.625 57.7656 19.6406 51.5781
Q17.6719 45.4062 16.7969 38.7812
Q15.9219 32.1719 15.9219 25
Q15.9219 -6.78125 32.9062 -23.2969
Q33.2031 -23.5781 33.2031 -24.125
Q33.2031 -24.3594 32.9375 -24.6719
Q32.6719 -25 32.4219 -25
L31.5 -25
Q31 -25 31 -24.8125" id="Cmr10-28"/>
      <path d="
M6.5 -25
Q5.60938 -25 5.60938 -24.125
Q5.60938 -23.6875 5.8125 -23.4844
Q22.9062 -6.78125 22.9062 25
Q22.9062 56.7812 6 73.2969
Q5.60938 73.5312 5.60938 74.125
Q5.60938 74.4688 5.875 74.7344
Q6.15625 75 6.5 75
L7.42188 75
Q7.71875 75 7.90625 74.8125
Q15.0938 69.1406 19.875 61.0312
Q24.6562 52.9375 26.875 43.75
Q29.1094 34.5781 29.1094 25
Q29.1094 17.9219 27.9062 11.0625
Q26.7031 4.20312 24.0938 -2.45312
Q21.4844 -9.125 17.4844 -14.7656
Q13.4844 -20.4062 7.90625 -24.8125
Q7.71875 -25 7.42188 -25
z
" id="Cmr10-29"/>
      <path d="
M4.89062 0
Q3.90625 0 3.90625 1.3125
Q3.95312 1.5625 4.09375 2.17188
Q4.25 2.78125 4.51562 3.14062
Q4.78125 3.51562 5.17188 3.51562
Q11.2812 3.51562 13.7188 4.20312
Q14.9844 4.64062 15.5781 6.89062
L29.2969 61.8125
Q29.5 62.7969 29.5 63.1875
Q29.5 64.2656 28.3281 64.4062
Q26.4219 64.7969 21.0938 64.7969
Q20.125 64.7969 20.125 66.1094
Q20.1719 66.3594 20.3125 66.9688
Q20.4531 67.5781 20.7188 67.9375
Q21 68.3125 21.3906 68.3125
L55.9062 68.3125
Q60.6406 68.3125 65.0781 66.625
Q69.5312 64.9375 72.3594 61.4688
Q75.2031 58.0156 75.2031 53.0781
Q75.2031 46.7344 70.7344 41.75
Q66.2656 36.7656 59.5938 33.9844
Q52.9375 31.2031 46.6875 31.2031
L30.4219 31.2031
L24.3125 6.5
Q24.125 5.51562 24.125 5.07812
Q24.125 4.6875 24.2344 4.42188
Q24.3594 4.15625 24.5781 4.07812
Q24.8125 4 25.2969 3.90625
Q27.2031 3.51562 32.5156 3.51562
Q33.5 3.51562 33.5 2.20312
Q33.1562 0.78125 32.9531 0.390625
Q32.7656 0 31.7812 0
z

M30.9062 34.1875
L44.9219 34.1875
Q54.6406 34.1875 59.7188 39.4062
Q62.3125 42 63.9375 46.875
Q65.5781 51.7656 65.5781 55.7188
Q65.5781 60.6406 61.8125 62.7188
Q58.0625 64.7969 52.4844 64.7969
L42.9219 64.7969
Q40.1875 64.7969 39.2969 64.3281
Q38.4219 63.875 37.7031 61.375
z
" id="Cmmi10-50"/>
     </defs>
     <g transform="translate(16.29375 134.66)rotate(-90.0)scale(0.12 -0.12)">
      <use transform="translate(0.0 0.421875)" xlink:href="#Cmmi10-50"/>
      <use transform="translate(64.208984375 2.859375)scale(0.921875)" xlink:href="#Cmr10-28"/>
      <use transform="translate(99.99465942382812 0.421875)" xlink:href="#Cmr10-6c"/>
      <use transform="translate(127.68020629882812 0.421875)" xlink:href="#Cmr10-6f"/>
      <use transform="translate(177.68020629882812 0.421875)" xlink:href="#Cmr10-67"/>
      <use transform="translate(227.68020629882812 17.46875)scale(0.72703125)" xlink:href="#Cmr10-28"/>
      <use transform="translate(255.90235900878906 0.421875)" xlink:href="#Cmr10-a2"/>
      <use transform="translate(339.20314025878906 0.421875)" xlink:href="#Cmmi10-72"/>
      <use transform="translate(384.32032775878906 17.46875)scale(0.72703125)" xlink:href="#Cmr10-29"/>
      <use transform="translate(412.54248046875 2.859375)scale(0.921875)" xlink:href="#Cmr10-29"/>
     </g>
    </g>
   </g>
   <g id="text_14">
    <!-- Hard Spheres, at $\phi = 0.57$ -->
    <defs>
     <path id="BitstreamVeraSans-Roman-20"/>
     <path d="
M8.6875 11.375
Q9.71875 8.45312 11.8438 6.04688
Q13.9688 3.65625 16.875 2.3125
Q19.7812 0.984375 22.9062 0.984375
Q30.125 0.984375 32.8594 6.59375
Q35.5938 12.2031 35.5938 20.2188
Q35.5938 23.6875 35.4688 26.0469
Q35.3594 28.4219 34.8125 30.6094
Q33.8906 34.125 31.5625 36.7656
Q29.25 39.4062 25.875 39.4062
Q22.5156 39.4062 20.0938 38.375
Q17.6719 37.3594 16.1562 35.9844
Q14.6562 34.625 13.4844 33.1094
Q12.3125 31.5938 12.0156 31.5
L10.8906 31.5
Q10.6406 31.5 10.2656 31.8125
Q9.90625 32.125 9.90625 32.4219
L9.90625 65.8281
Q9.90625 66.0625 10.2188 66.3281
Q10.5469 66.6094 10.8906 66.6094
L11.1875 66.6094
Q17.9219 63.375 25.4844 63.375
Q32.9062 63.375 39.7969 66.6094
L40.0938 66.6094
Q40.4375 66.6094 40.7188 66.3594
Q41.0156 66.1094 41.0156 65.8281
L41.0156 64.8906
Q41.0156 64.4062 40.8281 64.4062
Q37.4062 59.8594 32.25 57.3125
Q27.0938 54.7812 21.5781 54.7812
Q17.5781 54.7812 13.375 55.9062
L13.375 37.0156
Q16.7031 39.7031 19.3125 40.8438
Q21.9219 42 25.9844 42
Q31.5 42 35.8594 38.8125
Q40.2344 35.6406 42.5781 30.5312
Q44.9219 25.4375 44.9219 20.125
Q44.9219 14.1094 41.9688 8.98438
Q39.0156 3.85938 33.9375 0.828125
Q28.8594 -2.20312 22.9062 -2.20312
Q17.9688 -2.20312 13.8438 0.328125
Q9.71875 2.875 7.34375 7.17188
Q4.98438 11.4688 4.98438 16.3125
Q4.98438 18.5625 6.4375 19.9688
Q7.90625 21.3906 10.1094 21.3906
Q12.3125 21.3906 13.7969 19.9375
Q15.2812 18.5 15.2812 16.3125
Q15.2812 14.1562 13.7969 12.6719
Q12.3125 11.1875 10.1094 11.1875
Q9.76562 11.1875 9.32812 11.25
Q8.89062 11.3281 8.6875 11.375" id="Cmr10-35"/>
     <path d="
M19.3906 -19.4844
L23.875 -1.42188
Q18.7969 -1.42188 14.4062 0.953125
Q10.0156 3.32812 7.34375 7.5625
Q4.6875 11.8125 4.6875 16.7969
Q4.6875 22.2188 7.375 27.1406
Q10.0625 32.0781 14.7188 36.1094
Q19.3906 40.1406 24.75 42.3125
Q30.125 44.4844 35.4062 44.4844
L41.4062 68.7969
Q41.6094 69.3906 42.1875 69.3906
L43.4062 69.3906
Q43.7969 69.3906 44.0312 69.0469
Q44.2812 68.7031 44.2812 68.4062
L38.2812 44.4844
Q42.0469 44.4844 45.5625 43.1094
Q49.0781 41.75 51.7812 39.2812
Q54.5 36.8125 56 33.4688
Q57.5156 30.125 57.5156 26.3125
Q57.5156 20.9062 54.8281 15.9688
Q52.1562 11.0312 47.6094 7.07812
Q43.0625 3.125 37.4688 0.84375
Q31.8906 -1.42188 26.8125 -1.42188
L22.2188 -19.9219
Q22.0156 -20.5156 21.3906 -20.5156
L20.2188 -20.5156
Q19.8281 -20.5156 19.6094 -20.1406
Q19.3906 -19.7812 19.3906 -19.4844
M24.5156 1.21875
L34.7188 41.8906
Q32.1719 41.8906 29.3906 40.8594
Q26.6094 39.8438 24.1406 38.2812
Q21.6875 36.7188 19.6719 34.7188
Q17.2344 32.2812 15.375 28.9531
Q13.5312 25.6406 12.5781 21.9531
Q11.625 18.2656 11.625 14.7031
Q11.625 10.9375 13.2344 7.85938
Q14.8438 4.78125 17.7656 3
Q20.7031 1.21875 24.5156 1.21875
M27.4844 1.21875
Q31.25 1.21875 35.5 3.35938
Q39.75 5.51562 42.4844 8.40625
Q46.2344 12.1094 48.4062 17.5
Q50.5938 22.9062 50.5938 28.4219
Q50.5938 32.125 48.9688 35.2188
Q47.3594 38.3281 44.4219 40.1094
Q41.5 41.8906 37.7031 41.8906
z
" id="Cmmi10-c1"/>
     <path d="
M8.40625 5.51562
Q8.40625 7.76562 10.0625 9.375
Q11.7188 10.9844 13.9219 10.9844
Q15.2812 10.9844 16.5938 10.25
Q17.9219 9.51562 18.6562 8.20312
Q19.3906 6.89062 19.3906 5.51562
Q19.3906 3.32812 17.7656 1.65625
Q16.1562 0 13.9219 0
Q11.7188 0 10.0625 1.65625
Q8.40625 3.32812 8.40625 5.51562" id="Cmmi10-3a"/>
     <path d="
M18.3125 70.2188
L18.3125 54.6875
L36.8125 54.6875
L36.8125 47.7031
L18.3125 47.7031
L18.3125 18.0156
Q18.3125 11.3281 20.1406 9.42188
Q21.9688 7.51562 27.5938 7.51562
L36.8125 7.51562
L36.8125 0
L27.5938 0
Q17.1875 0 13.2344 3.875
Q9.28125 7.76562 9.28125 18.0156
L9.28125 47.7031
L2.6875 47.7031
L2.6875 54.6875
L9.28125 54.6875
L9.28125 70.2188
z
" id="BitstreamVeraSans-Roman-74"/>
     <path d="
M25 -2.20312
Q12.75 -2.20312 8.32812 7.875
Q3.90625 17.9688 3.90625 31.8906
Q3.90625 40.5781 5.48438 48.2344
Q7.07812 55.9062 11.7812 61.25
Q16.5 66.6094 25 66.6094
Q31.5938 66.6094 35.7812 63.375
Q39.9844 60.1562 42.1875 55.0469
Q44.3906 49.9531 45.1875 44.1094
Q46 38.2812 46 31.8906
Q46 23.2969 44.4062 15.7969
Q42.8281 8.29688 38.1875 3.04688
Q33.5469 -2.20312 25 -2.20312
M25 0.390625
Q30.5625 0.390625 33.2969 6.09375
Q36.0312 11.8125 36.6719 18.75
Q37.3125 25.6875 37.3125 33.5
Q37.3125 41.0156 36.6719 47.3594
Q36.0312 53.7188 33.3125 58.8594
Q30.6094 64.0156 25 64.0156
Q19.3438 64.0156 16.6094 58.8281
Q13.875 53.6562 13.2344 47.3281
Q12.5938 41.0156 12.5938 33.5
Q12.5938 27.9375 12.8594 23
Q13.1406 18.0625 14.3125 12.8125
Q15.4844 7.5625 18.0938 3.96875
Q20.7031 0.390625 25 0.390625" id="Cmr10-30"/>
     <path d="
M45.4062 46.3906
L45.4062 75.9844
L54.3906 75.9844
L54.3906 0
L45.4062 0
L45.4062 8.20312
Q42.5781 3.32812 38.25 0.953125
Q33.9375 -1.42188 27.875 -1.42188
Q17.9688 -1.42188 11.7344 6.48438
Q5.51562 14.4062 5.51562 27.2969
Q5.51562 40.1875 11.7344 48.0938
Q17.9688 56 27.875 56
Q33.9375 56 38.25 53.625
Q42.5781 51.2656 45.4062 46.3906
M14.7969 27.2969
Q14.7969 17.3906 18.875 11.75
Q22.9531 6.10938 30.0781 6.10938
Q37.2031 6.10938 41.2969 11.75
Q45.4062 17.3906 45.4062 27.2969
Q45.4062 37.2031 41.2969 42.8438
Q37.2031 48.4844 30.0781 48.4844
Q22.9531 48.4844 18.875 42.8438
Q14.7969 37.2031 14.7969 27.2969" id="BitstreamVeraSans-Roman-64"/>
     <path d="
M44.2812 53.0781
L44.2812 44.5781
Q40.4844 46.5312 36.375 47.5
Q32.2812 48.4844 27.875 48.4844
Q21.1875 48.4844 17.8438 46.4375
Q14.5 44.3906 14.5 40.2812
Q14.5 37.1562 16.8906 35.375
Q19.2812 33.5938 26.5156 31.9844
L29.5938 31.2969
Q39.1562 29.25 43.1875 25.5156
Q47.2188 21.7812 47.2188 15.0938
Q47.2188 7.46875 41.1875 3.01562
Q35.1562 -1.42188 24.6094 -1.42188
Q20.2188 -1.42188 15.4531 -0.5625
Q10.6875 0.296875 5.42188 2
L5.42188 11.2812
Q10.4062 8.6875 15.2344 7.39062
Q20.0625 6.10938 24.8125 6.10938
Q31.1562 6.10938 34.5625 8.28125
Q37.9844 10.4531 37.9844 14.4062
Q37.9844 18.0625 35.5156 20.0156
Q33.0625 21.9688 24.7031 23.7812
L21.5781 24.5156
Q13.2344 26.2656 9.51562 29.9062
Q5.8125 33.5469 5.8125 39.8906
Q5.8125 47.6094 11.2812 51.7969
Q16.75 56 26.8125 56
Q31.7812 56 36.1719 55.2656
Q40.5781 54.5469 44.2812 53.0781" id="BitstreamVeraSans-Roman-73"/>
     <path d="
M7.51562 13.2812
Q6.6875 13.2812 6.14062 13.9062
Q5.60938 14.5469 5.60938 15.2812
Q5.60938 16.1094 6.14062 16.6875
Q6.6875 17.2812 7.51562 17.2812
L70.3125 17.2812
Q71.0469 17.2812 71.5781 16.6875
Q72.125 16.1094 72.125 15.2812
Q72.125 14.5469 71.5781 13.9062
Q71.0469 13.2812 70.3125 13.2812
z

M7.51562 32.7188
Q6.6875 32.7188 6.14062 33.2969
Q5.60938 33.8906 5.60938 34.7188
Q5.60938 35.4531 6.14062 36.0781
Q6.6875 36.7188 7.51562 36.7188
L70.3125 36.7188
Q71.0469 36.7188 71.5781 36.0781
Q72.125 35.4531 72.125 34.7188
Q72.125 33.8906 71.5781 33.2969
Q71.0469 32.7188 70.3125 32.7188
z
" id="Cmr10-3d"/>
     <path d="
M56.2031 29.5938
L56.2031 25.2031
L14.8906 25.2031
Q15.4844 15.9219 20.4844 11.0625
Q25.4844 6.20312 34.4219 6.20312
Q39.5938 6.20312 44.4531 7.46875
Q49.3125 8.73438 54.1094 11.2812
L54.1094 2.78125
Q49.2656 0.734375 44.1875 -0.34375
Q39.1094 -1.42188 33.8906 -1.42188
Q20.7969 -1.42188 13.1562 6.1875
Q5.51562 13.8125 5.51562 26.8125
Q5.51562 40.2344 12.7656 48.1094
Q20.0156 56 32.3281 56
Q43.3594 56 49.7812 48.8906
Q56.2031 41.7969 56.2031 29.5938
M47.2188 32.2344
Q47.125 39.5938 43.0938 43.9844
Q39.0625 48.3906 32.4219 48.3906
Q24.9062 48.3906 20.3906 44.1406
Q15.875 39.8906 15.1875 32.1719
z
" id="BitstreamVeraSans-Roman-65"/>
     <path d="
M54.8906 33.0156
L54.8906 0
L45.9062 0
L45.9062 32.7188
Q45.9062 40.4844 42.875 44.3281
Q39.8438 48.1875 33.7969 48.1875
Q26.5156 48.1875 22.3125 43.5469
Q18.1094 38.9219 18.1094 30.9062
L18.1094 0
L9.07812 0
L9.07812 75.9844
L18.1094 75.9844
L18.1094 46.1875
Q21.3438 51.125 25.7031 53.5625
Q30.0781 56 35.7969 56
Q45.2188 56 50.0469 50.1719
Q54.8906 44.3438 54.8906 33.0156" id="BitstreamVeraSans-Roman-68"/>
     <path d="
M18.1094 8.20312
L18.1094 -20.7969
L9.07812 -20.7969
L9.07812 54.6875
L18.1094 54.6875
L18.1094 46.3906
Q20.9531 51.2656 25.2656 53.625
Q29.5938 56 35.5938 56
Q45.5625 56 51.7812 48.0938
Q58.0156 40.1875 58.0156 27.2969
Q58.0156 14.4062 51.7812 6.48438
Q45.5625 -1.42188 35.5938 -1.42188
Q29.5938 -1.42188 25.2656 0.953125
Q20.9531 3.32812 18.1094 8.20312
M48.6875 27.2969
Q48.6875 37.2031 44.6094 42.8438
Q40.5312 48.4844 33.4062 48.4844
Q26.2656 48.4844 22.1875 42.8438
Q18.1094 37.2031 18.1094 27.2969
Q18.1094 17.3906 22.1875 11.75
Q26.2656 6.10938 33.4062 6.10938
Q40.5312 6.10938 44.6094 11.75
Q48.6875 17.3906 48.6875 27.2969" id="BitstreamVeraSans-Roman-70"/>
     <path d="
M17.3906 2.59375
Q17.3906 8.15625 18.3594 13.4688
Q19.3438 18.7969 21.2188 24
Q23.0938 29.2031 25.75 34.2031
Q28.4219 39.2031 31.5938 43.6094
L40.7188 56.2969
L29.2969 56.2969
Q11.5312 56.2969 10.9844 55.8125
Q9.67188 54.2031 8.5 46.5781
L5.60938 46.5781
L8.89062 67.5781
L11.8125 67.5781
L11.8125 67.2812
Q11.8125 65.4844 17.9219 64.9375
Q24.0312 64.4062 29.8906 64.4062
L48.4844 64.4062
L48.4844 61.8125
Q48.4844 61.7188 48.4531 61.6719
Q48.4375 61.625 48.3906 61.5312
L34.625 42.1875
Q29.5469 34.6719 28.2656 25.4844
Q27 16.3125 27 2.59375
Q27 0.640625 25.5781 -0.78125
Q24.1719 -2.20312 22.2188 -2.20312
Q20.2188 -2.20312 18.7969 -0.78125
Q17.3906 0.640625 17.3906 2.59375" id="Cmr10-37"/>
     <path d="
M9.8125 72.9062
L19.6719 72.9062
L19.6719 43.0156
L55.5156 43.0156
L55.5156 72.9062
L65.375 72.9062
L65.375 0
L55.5156 0
L55.5156 34.7188
L19.6719 34.7188
L19.6719 0
L9.8125 0
z
" id="BitstreamVeraSans-Roman-48"/>
     <path d="
M41.1094 46.2969
Q39.5938 47.1719 37.8125 47.5781
Q36.0312 48 33.8906 48
Q26.2656 48 22.1875 43.0469
Q18.1094 38.0938 18.1094 28.8125
L18.1094 0
L9.07812 0
L9.07812 54.6875
L18.1094 54.6875
L18.1094 46.1875
Q20.9531 51.1719 25.4844 53.5781
Q30.0312 56 36.5312 56
Q37.4531 56 38.5781 55.875
Q39.7031 55.7656 41.0625 55.5156
z
" id="BitstreamVeraSans-Roman-72"/>
     <path d="
M34.2812 27.4844
Q23.3906 27.4844 19.1875 25
Q14.9844 22.5156 14.9844 16.5
Q14.9844 11.7188 18.1406 8.90625
Q21.2969 6.10938 26.7031 6.10938
Q34.1875 6.10938 38.7031 11.4062
Q43.2188 16.7031 43.2188 25.4844
L43.2188 27.4844
z

M52.2031 31.2031
L52.2031 0
L43.2188 0
L43.2188 8.29688
Q40.1406 3.32812 35.5469 0.953125
Q30.9531 -1.42188 24.3125 -1.42188
Q15.9219 -1.42188 10.9531 3.29688
Q6 8.01562 6 15.9219
Q6 25.1406 12.1719 29.8281
Q18.3594 34.5156 30.6094 34.5156
L43.2188 34.5156
L43.2188 35.4062
Q43.2188 41.6094 39.1406 45
Q35.0625 48.3906 27.6875 48.3906
Q23 48.3906 18.5469 47.2656
Q14.1094 46.1406 10.0156 43.8906
L10.0156 52.2031
Q14.9375 54.1094 19.5781 55.0469
Q24.2188 56 28.6094 56
Q40.4844 56 46.3438 49.8438
Q52.2031 43.7031 52.2031 31.2031" id="BitstreamVeraSans-Roman-61"/>
     <path d="
M53.5156 70.5156
L53.5156 60.8906
Q47.9062 63.5781 42.9219 64.8906
Q37.9375 66.2188 33.2969 66.2188
Q25.25 66.2188 20.875 63.0938
Q16.5 59.9688 16.5 54.2031
Q16.5 49.3594 19.4062 46.8906
Q22.3125 44.4375 30.4219 42.9219
L36.375 41.7031
Q47.4062 39.5938 52.6562 34.2969
Q57.9062 29 57.9062 20.125
Q57.9062 9.51562 50.7969 4.04688
Q43.7031 -1.42188 29.9844 -1.42188
Q24.8125 -1.42188 18.9688 -0.25
Q13.1406 0.921875 6.89062 3.21875
L6.89062 13.375
Q12.8906 10.0156 18.6562 8.29688
Q24.4219 6.59375 29.9844 6.59375
Q38.4219 6.59375 43.0156 9.90625
Q47.6094 13.2344 47.6094 19.3906
Q47.6094 24.75 44.3125 27.7812
Q41.0156 30.8125 33.5 32.3281
L27.4844 33.5
Q16.4531 35.6875 11.5156 40.375
Q6.59375 45.0625 6.59375 53.4219
Q6.59375 63.0938 13.4062 68.6562
Q20.2188 74.2188 32.1719 74.2188
Q37.3125 74.2188 42.625 73.2812
Q47.9531 72.3594 53.5156 70.5156" id="BitstreamVeraSans-Roman-53"/>
     <path d="
M11.7188 12.4062
L22.0156 12.4062
L22.0156 4
L14.0156 -11.625
L7.71875 -11.625
L11.7188 4
z
" id="BitstreamVeraSans-Roman-2c"/>
    </defs>
    <g transform="translate(81.0934375 16.32)scale(0.12 -0.12)">
     <use transform="translate(0.0 0.015625)" xlink:href="#BitstreamVeraSans-Roman-48"/>
     <use transform="translate(75.1953125 0.015625)" xlink:href="#BitstreamVeraSans-Roman-61"/>
     <use transform="translate(136.474609375 0.015625)" xlink:href="#BitstreamVeraSans-Roman-72"/>
     <use transform="translate(177.587890625 0.015625)" xlink:href="#BitstreamVeraSans-Roman-64"/>
     <use transform="translate(241.064453125 0.015625)" xlink:href="#BitstreamVeraSans-Roman-20"/>
     <use transform="translate(272.8515625 0.015625)" xlink:href="#BitstreamVeraSans-Roman-53"/>
     <use transform="translate(336.328125 0.015625)" xlink:href="#BitstreamVeraSans-Roman-70"/>
     <use transform="translate(399.8046875 0.015625)" xlink:href="#BitstreamVeraSans-Roman-68"/>
     <use transform="translate(463.18359375 0.015625)" xlink:href="#BitstreamVeraSans-Roman-65"/>
     <use transform="translate(524.70703125 0.015625)" xlink:href="#BitstreamVeraSans-Roman-72"/>
     <use transform="translate(565.8203125 0.015625)" xlink:href="#BitstreamVeraSans-Roman-65"/>
     <use transform="translate(627.34375 0.015625)" xlink:href="#BitstreamVeraSans-Roman-73"/>
     <use transform="translate(679.443359375 0.015625)" xlink:href="#BitstreamVeraSans-Roman-2c"/>
     <use transform="translate(711.23046875 0.015625)" xlink:href="#BitstreamVeraSans-Roman-20"/>
     <use transform="translate(743.017578125 0.015625)" xlink:href="#BitstreamVeraSans-Roman-61"/>
     <use transform="translate(804.296875 0.015625)" xlink:href="#BitstreamVeraSans-Roman-74"/>
     <use transform="translate(843.505859375 0.015625)" xlink:href="#BitstreamVeraSans-Roman-20"/>
     <use transform="translate(875.29296875 0.015625)" xlink:href="#Cmmi10-c1"/>
     <use transform="translate(952.373046875 0.015625)" xlink:href="#Cmr10-3d"/>
     <use transform="translate(1036.431640625 0.015625)" xlink:href="#Cmr10-30"/>
     <use transform="translate(1086.431640625 0.015625)" xlink:href="#Cmmi10-3a"/>
     <use transform="translate(1114.974609375 0.015625)" xlink:href="#Cmr10-35"/>
     <use transform="translate(1164.974609375 0.015625)" xlink:href="#Cmr10-37"/>
    </g>
   </g>
   <g id="legend_1">
    <g id="patch_7">
     <path d="
M46.5584 188.55
L96.5827 188.55
L96.5827 25.485
L46.5584 25.485
z
" style="fill:#ffffff;stroke:#000000;stroke-linejoin:miter;"/>
    </g>
    <g id="text_15">
     <!-- $\Delta t$ -->
     <defs>
      <path d="
M6.20312 8.10938
Q6.20312 9.57812 6.5 10.8906
L13.7188 39.5938
L3.21875 39.5938
Q2.20312 39.5938 2.20312 40.9219
Q2.59375 43.1094 3.51562 43.1094
L14.5938 43.1094
L18.6094 59.4219
Q19 60.75 20.1719 61.6719
Q21.3438 62.5938 22.7969 62.5938
Q24.0781 62.5938 24.9219 61.8281
Q25.7812 61.0781 25.7812 59.8125
Q25.7812 59.5156 25.75 59.3438
Q25.7344 59.1875 25.6875 58.9844
L21.6875 43.1094
L31.9844 43.1094
Q33.0156 43.1094 33.0156 41.7969
Q32.9531 41.5469 32.8125 40.9531
Q32.6719 40.375 32.4219 39.9844
Q32.1719 39.5938 31.6875 39.5938
L20.7969 39.5938
L13.625 10.6875
Q12.8906 7.85938 12.8906 5.8125
Q12.8906 1.51562 15.8281 1.51562
Q20.2188 1.51562 23.6094 5.64062
Q27 9.76562 28.8125 14.7031
Q29.2031 15.2812 29.5938 15.2812
L30.8125 15.2812
Q31.2031 15.2812 31.4375 15.0156
Q31.6875 14.75 31.6875 14.4062
Q31.6875 14.2031 31.5938 14.1094
Q29.3906 8.0625 25.1875 3.46875
Q21 -1.125 15.5781 -1.125
Q11.625 -1.125 8.90625 1.45312
Q6.20312 4.04688 6.20312 8.10938" id="Cmmi10-74"/>
     </defs>
     <g transform="translate(65.5705640625 36.4154375)scale(0.1 -0.1)">
      <use transform="translate(0.0 0.421875)" xlink:href="#Cmr10-a2"/>
      <use transform="translate(83.30078125 0.421875)" xlink:href="#Cmmi10-74"/>
     </g>
    </g>
    <g id="line2d_99">
     <path d="
M52.3894 46.0741
L64.0514 46.0741" style="fill:none;stroke:#4daf4a;stroke-linecap:square;stroke-width:2.0;"/>
    </g>
    <g id="line2d_100"/>
    <g id="text_16">
     <!-- 30 -->
     <defs>
      <path d="
M40.5781 39.3125
Q47.6562 37.7969 51.625 33
Q55.6094 28.2188 55.6094 21.1875
Q55.6094 10.4062 48.1875 4.48438
Q40.7656 -1.42188 27.0938 -1.42188
Q22.5156 -1.42188 17.6562 -0.515625
Q12.7969 0.390625 7.625 2.20312
L7.625 11.7188
Q11.7188 9.32812 16.5938 8.10938
Q21.4844 6.89062 26.8125 6.89062
Q36.0781 6.89062 40.9375 10.5469
Q45.7969 14.2031 45.7969 21.1875
Q45.7969 27.6406 41.2812 31.2656
Q36.7656 34.9062 28.7188 34.9062
L20.2188 34.9062
L20.2188 43.0156
L29.1094 43.0156
Q36.375 43.0156 40.2344 45.9219
Q44.0938 48.8281 44.0938 54.2969
Q44.0938 59.9062 40.1094 62.9062
Q36.1406 65.9219 28.7188 65.9219
Q24.6562 65.9219 20.0156 65.0312
Q15.375 64.1562 9.8125 62.3125
L9.8125 71.0938
Q15.4375 72.6562 20.3438 73.4375
Q25.25 74.2188 29.5938 74.2188
Q40.8281 74.2188 47.3594 69.1094
Q53.9062 64.0156 53.9062 55.3281
Q53.9062 49.2656 50.4375 45.0938
Q46.9688 40.9219 40.5781 39.3125" id="BitstreamVeraSans-Roman-33"/>
     </defs>
     <g transform="translate(73.2144375 48.9896234375)scale(0.0833 -0.0833)">
      <use xlink:href="#BitstreamVeraSans-Roman-33"/>
      <use x="63.623046875" xlink:href="#BitstreamVeraSans-Roman-30"/>
     </g>
    </g>
    <g id="line2d_101">
     <path d="
M52.3894 58.301
L64.0514 58.301" style="fill:none;stroke:#459d72;stroke-linecap:square;stroke-width:2.0;"/>
    </g>
    <g id="line2d_102"/>
    <g id="text_17">
     <!-- 50 -->
     <g transform="translate(73.2144375 61.2165015625)scale(0.0833 -0.0833)">
      <use xlink:href="#BitstreamVeraSans-Roman-35"/>
      <use x="63.623046875" xlink:href="#BitstreamVeraSans-Roman-30"/>
     </g>
    </g>
    <g id="line2d_103">
     <path d="
M52.3894 70.5279
L64.0514 70.5279" style="fill:none;stroke:#3d8c99;stroke-linecap:square;stroke-width:2.0;"/>
    </g>
    <g id="line2d_104"/>
    <g id="text_18">
     <!-- 70 -->
     <defs>
      <path d="
M8.20312 72.9062
L55.0781 72.9062
L55.0781 68.7031
L28.6094 0
L18.3125 0
L43.2188 64.5938
L8.20312 64.5938
z
" id="BitstreamVeraSans-Roman-37"/>
     </defs>
     <g transform="translate(73.2144375 73.4433796875)scale(0.0833 -0.0833)">
      <use xlink:href="#BitstreamVeraSans-Roman-37"/>
      <use x="63.623046875" xlink:href="#BitstreamVeraSans-Roman-30"/>
     </g>
    </g>
    <g id="line2d_105">
     <path d="
M52.3894 82.7548
L64.0514 82.7548" style="fill:none;stroke:#3f7ab6;stroke-linecap:square;stroke-width:2.0;"/>
    </g>
    <g id="line2d_106"/>
    <g id="text_19">
     <!-- 100 -->
     <g transform="translate(73.2144375 85.6702578125)scale(0.0833 -0.0833)">
      <use xlink:href="#BitstreamVeraSans-Roman-31"/>
      <use x="63.623046875" xlink:href="#BitstreamVeraSans-Roman-30"/>
      <use x="127.24609375" xlink:href="#BitstreamVeraSans-Roman-30"/>
     </g>
    </g>
    <g id="line2d_107">
     <path d="
M52.3894 94.9816
L64.0514 94.9816" style="fill:none;stroke:#6468ae;stroke-linecap:square;stroke-width:2.0;"/>
    </g>
    <g id="line2d_108"/>
    <g id="text_20">
     <!-- 200 -->
     <g transform="translate(73.2144375 97.8971359375)scale(0.0833 -0.0833)">
      <use xlink:href="#BitstreamVeraSans-Roman-32"/>
      <use x="63.623046875" xlink:href="#BitstreamVeraSans-Roman-30"/>
      <use x="127.24609375" xlink:href="#BitstreamVeraSans-Roman-30"/>
     </g>
    </g>
    <g id="line2d_109">
     <path d="
M52.3894 107.209
L64.0514 107.209" style="fill:none;stroke:#8757a7;stroke-linecap:square;stroke-width:2.0;"/>
    </g>
    <g id="line2d_110"/>
    <g id="text_21">
     <!-- 300 -->
     <g transform="translate(73.2144375 110.124014062)scale(0.0833 -0.0833)">
      <use xlink:href="#BitstreamVeraSans-Roman-33"/>
      <use x="63.623046875" xlink:href="#BitstreamVeraSans-Roman-30"/>
      <use x="127.24609375" xlink:href="#BitstreamVeraSans-Roman-30"/>
     </g>
    </g>
    <g id="line2d_111">
     <path d="
M52.3894 119.435
L64.0514 119.435" style="fill:none;stroke:#a6458b;stroke-linecap:square;stroke-width:2.0;"/>
    </g>
    <g id="line2d_112"/>
    <g id="text_22">
     <!-- 500 -->
     <g transform="translate(73.2144375 122.350892187)scale(0.0833 -0.0833)">
      <use xlink:href="#BitstreamVeraSans-Roman-35"/>
      <use x="63.623046875" xlink:href="#BitstreamVeraSans-Roman-30"/>
      <use x="127.24609375" xlink:href="#BitstreamVeraSans-Roman-30"/>
     </g>
    </g>
    <g id="line2d_113">
     <path d="
M52.3894 131.662
L64.0514 131.662" style="fill:none;stroke:#c1325a;stroke-linecap:square;stroke-width:2.0;"/>
    </g>
    <g id="line2d_114"/>
    <g id="text_23">
     <!-- 700 -->
     <g transform="translate(73.2144375 134.577770312)scale(0.0833 -0.0833)">
      <use xlink:href="#BitstreamVeraSans-Roman-37"/>
      <use x="63.623046875" xlink:href="#BitstreamVeraSans-Roman-30"/>
      <use x="127.24609375" xlink:href="#BitstreamVeraSans-Roman-30"/>
     </g>
    </g>
    <g id="line2d_115">
     <path d="
M52.3894 143.889
L64.0514 143.889" style="fill:none;stroke:#de1e27;stroke-linecap:square;stroke-width:2.0;"/>
    </g>
    <g id="line2d_116"/>
    <g id="text_24">
     <!-- 1000 -->
     <g transform="translate(73.2144375 146.804648437)scale(0.0833 -0.0833)">
      <use xlink:href="#BitstreamVeraSans-Roman-31"/>
      <use x="63.623046875" xlink:href="#BitstreamVeraSans-Roman-30"/>
      <use x="127.24609375" xlink:href="#BitstreamVeraSans-Roman-30"/>
      <use x="190.869140625" xlink:href="#BitstreamVeraSans-Roman-30"/>
     </g>
    </g>
    <g id="line2d_117">
     <path d="
M52.3894 156.116
L64.0514 156.116" style="fill:none;stroke:#ec3614;stroke-linecap:square;stroke-width:2.0;"/>
    </g>
    <g id="line2d_118"/>
    <g id="text_25">
     <!-- 2000 -->
     <g transform="translate(73.2144375 159.031526562)scale(0.0833 -0.0833)">
      <use xlink:href="#BitstreamVeraSans-Roman-32"/>
      <use x="63.623046875" xlink:href="#BitstreamVeraSans-Roman-30"/>
      <use x="127.24609375" xlink:href="#BitstreamVeraSans-Roman-30"/>
      <use x="190.869140625" xlink:href="#BitstreamVeraSans-Roman-30"/>
     </g>
    </g>
    <g id="line2d_119">
     <path d="
M52.3894 168.343
L64.0514 168.343" style="fill:none;stroke:#f55b0a;stroke-linecap:square;stroke-width:2.0;"/>
    </g>
    <g id="line2d_120"/>
    <g id="text_26">
     <!-- 3000 -->
     <g transform="translate(73.2144375 171.258404687)scale(0.0833 -0.0833)">
      <use xlink:href="#BitstreamVeraSans-Roman-33"/>
      <use x="63.623046875" xlink:href="#BitstreamVeraSans-Roman-30"/>
      <use x="127.24609375" xlink:href="#BitstreamVeraSans-Roman-30"/>
      <use x="190.869140625" xlink:href="#BitstreamVeraSans-Roman-30"/>
     </g>
    </g>
    <g id="line2d_121">
     <path d="
M52.3894 180.57
L64.0514 180.57" style="fill:none;stroke:#ff7f00;stroke-linecap:square;stroke-width:2.0;"/>
    </g>
    <g id="line2d_122"/>
    <g id="text_27">
     <!-- 5000 -->
     <g transform="translate(73.2144375 183.485282813)scale(0.0833 -0.0833)">
      <use xlink:href="#BitstreamVeraSans-Roman-35"/>
      <use x="63.623046875" xlink:href="#BitstreamVeraSans-Roman-30"/>
      <use x="127.24609375" xlink:href="#BitstreamVeraSans-Roman-30"/>
      <use x="190.869140625" xlink:href="#BitstreamVeraSans-Roman-30"/>
     </g>
    </g>
   </g>
  </g>
 </g>
 <defs>
  <clipPath id="p652fd3abf2">
   <rect height="172.8" width="223.2" x="42.3934375" y="21.32"/>
  </clipPath>
 </defs>
</svg>
