<?xml version="1.0" encoding="UTF-8" standalone="no"?>
<!-- Created with matplotlib (http://matplotlib.org/) -->

<svg
   xmlns:dc="http://purl.org/dc/elements/1.1/"
   xmlns:cc="http://creativecommons.org/ns#"
   xmlns:rdf="http://www.w3.org/1999/02/22-rdf-syntax-ns#"
   xmlns:svg="http://www.w3.org/2000/svg"
   xmlns="http://www.w3.org/2000/svg"
   xmlns:sodipodi="http://sodipodi.sourceforge.net/DTD/sodipodi-0.dtd"
   xmlns:inkscape="http://www.inkscape.org/namespaces/inkscape"
   height="172pt"
   version="1.1"
   viewBox="0 0 576 172"
   width="576pt"
   id="svg4350"
   inkscape:version="0.91 r13725"
   sodipodi:docname="nucleoid-cartoon.svg">
  <metadata
     id="metadata4383">
    <rdf:RDF>
      <cc:Work
         rdf:about="">
        <dc:format>image/svg+xml</dc:format>
        <dc:type
           rdf:resource="http://purl.org/dc/dcmitype/StillImage" />
        <dc:title></dc:title>
      </cc:Work>
    </rdf:RDF>
  </metadata>
  <sodipodi:namedview
     pagecolor="#ffffff"
     bordercolor="#666666"
     borderopacity="1"
     objecttolerance="10"
     gridtolerance="10"
     guidetolerance="10"
     inkscape:pageopacity="0"
     inkscape:pageshadow="2"
     inkscape:window-width="2560"
     inkscape:window-height="1545"
     id="namedview4381"
     showgrid="false"
     inkscape:zoom="1.95"
     inkscape:cx="390.90476"
     inkscape:cy="38.07909"
     inkscape:window-x="0"
     inkscape:window-y="55"
     inkscape:window-maximized="1"
     inkscape:current-layer="svg4350" />
  <defs
     id="defs4352">
    <inkscape:path-effect
       effect="spiro"
       id="path-effect4970"
       is_visible="true" />
    <style
       type="text/css"
       id="style4354">
*{stroke-linecap:butt;stroke-linejoin:round;stroke-miterlimit:100000;}
  </style>
  </defs>
  <g
     style="stroke-linecap:butt;stroke-linejoin:round;stroke-miterlimit:100000"
     id="patch_1">
    <path
       inkscape:connector-curvature="0"
       id="path4358"
       style="fill:#ffffff;stroke-linecap:butt;stroke-linejoin:round;stroke-miterlimit:100000"
       d="m 0,172.6183 576,0 L 576,0 0,0 Z" />
  </g>
  <g
     id="line2d_1"
     style="stroke-linecap:butt;stroke-linejoin:round;stroke-miterlimit:100000">
    <path
       clip-path="url(#p0e5613724d)"
       d="m 485.73613,1.692336 -396.804693,0.010492 -2.663546,0.083915 -3.987064,0.283009 -3.96925,0.47098 -3.94258,0.6579 -3.907113,0.843353 -3.862926,1.026922 -3.810121,1.208202 -3.748813,1.386784 -3.679141,1.562272 -3.601258,1.734275 -3.515341,1.902407 -3.421578,2.066294 -3.320181,2.225571 -3.211376,2.379882 -3.095404,2.528882 -2.972526,2.672239 -2.843014,2.809634 -2.707159,2.940758 -2.565263,3.065322 -2.417643,3.183045 -2.264628,3.293665 -2.10656,3.396936 -1.943791,3.492627 -1.776685,3.580525 -1.605615,3.660434 -1.430962,3.732173 -1.253115,3.795586 -1.072473,3.850529 -0.889438,3.89688 -0.704417,3.934535 -0.517825,3.963411 -0.330077,3.983443 -0.141594,3.994587 0.047207,3.996816 0.235901,3.990128 0.42407,3.974536 0.611291,3.950075 0.79715,3.9168 0.981229,3.87479 1.163118,3.82412 1.342413,3.76493 1.518712,3.69734 1.691622,3.62148 1.860758,3.53757 2.025741,3.44574 2.186204,3.34623 2.341788,3.23926 2.492148,3.12506 2.636947,3.00388 2.775861,2.87599 2.908581,2.7417 3.034812,2.60129 3.15427,2.45507 3.266689,2.30337 3.371821,2.14653 3.469427,1.9849 3.559292,1.81885 3.641215,1.64873 3.715014,1.47494 3.780521,1.29786 3.837594,1.11787 3.886104,0.9354 3.925941,0.75084 3.957019,0.5646 3.979267,0.37709 3.992636,0.18876 1.33231,0.021 399.468857,-0.0629 3.98917,-0.25161 3.97284,-0.43972 3.94763,-0.62683 3.91363,-0.81257 3.8709,-0.99647 3.81951,-1.17817 3.75962,-1.35722 3.69133,-1.53326 3.6148,-1.70586 3.53021,-1.87467 3.43774,-2.03929 3.3376,-2.19936 3.23001,-2.35453 3.11522,-2.50443 2.99348,-2.64875 2.86505,-2.78716 2.73022,-2.91935 2.58932,-3.04503 2.44263,-3.16391 2.29049,-3.27574 2.13324,-3.38024 1.97124,-3.47721 1.80482,-3.56643 1.63438,-3.64768 1.46031,-3.72079 1.28296,-3.7856 1.10275,-3.84196 0.9201,-3.88976 0.73537,-3.928868 0.54902,-3.959211 0.36143,-3.980721 0.17304,-3.993348 -0.0157,-3.997064 -0.20447,-3.991862 -0.39277,-3.977752 -0.58017,-3.954765 -0.76628,-3.922955 -0.95069,-3.882391 -1.13298,-3.833164 -1.31273,-3.775383 -1.48955,-3.709178 -1.66305,-3.634696 -1.83285,-3.552104 -1.99855,-3.461586 -2.15979,-3.363344 -2.31621,-3.257596 -2.46746,-3.144581 -2.61322,-3.024547 -2.75313,-2.897765 -2.8869,-2.764517 -3.01424,-2.625101 -3.13484,-2.479826 -3.24845,-2.329018 -3.35482,-2.173013 -3.45369,-2.01216 -3.54486,-1.846816 -3.62812,-1.677352 -3.70329,-1.504144 -3.77018,-1.327581 -3.82868,-1.148055 -3.87861,-0.965967 -3.91991,-0.781724 -3.95245,-0.595736 -3.97618,-0.408419 -3.99102,-0.220191 -2.66454,-0.041963 0,0"
       style="fill:none;stroke:#000000;stroke-width:3.2;stroke-linecap:square;stroke-linejoin:round;stroke-miterlimit:100;stroke-dasharray:none"
       id="path4362"
       inkscape:connector-curvature="0" />
  </g>
  <defs
     id="defs4376">
    <clipPath
       id="p0e5613724d">
      <rect
         height="172.61829653"
         width="576.0"
         x="0.0"
         y="0.0"
         id="rect4379" />
    </clipPath>
  </defs>
  <path
     style="fill:none;fill-rule:evenodd;stroke:#ff7f00;stroke-width:8;stroke-linecap:butt;stroke-linejoin:miter;stroke-miterlimit:100;stroke-opacity:1;stroke-dasharray:none"
     d="m 189.53846,42.153846 c -5.30328,-2.968251 -11.40873,-4.486785 -17.48461,-4.348736 -6.07588,0.13805 -12.10606,1.932318 -17.26906,5.138373 -5.16299,3.206055 -9.44511,7.815389 -12.26299,13.200077 -2.81789,5.384688 -4.16406,11.530442 -3.85514,17.60003 0.22525,4.425637 1.36756,8.905471 3.96299,12.497229 1.29772,1.795879 2.94951,3.347534 4.87462,4.444452 1.9251,1.096918 4.1262,1.730214 6.34188,1.724985 3.20366,-0.0076 6.37239,-1.390209 8.59152,-3.700815 2.21914,-2.310607 3.46998,-5.512301 3.45305,-8.715921 -0.0169,-3.203619 -1.29029,-6.375822 -3.45765,-8.735061 -2.16737,-2.359239 -5.20223,-3.891841 -8.38179,-4.2841 -2.36981,-0.292361 -4.80481,0.0343 -7.04017,0.873732 -2.23536,0.839432 -4.27088,2.185216 -5.97067,3.862177 -3.39958,3.35392 -5.39467,7.971865 -6.06608,12.699988 -1.04806,7.380474 1.11274,15.181433 5.8938,20.900814 4.78105,5.71938 12.12583,9.23886 19.58027,9.27252 7.45444,0.0337 14.87138,-3.45393 19.51592,-9.28471 4.64455,-5.830785 6.38181,-13.894996 4.44591,-21.093752 -1.14851,-4.270784 -3.47233,-8.122318 -5.90749,-11.814018 -2.43516,-3.6917 -5.02677,-7.31861 -6.81047,-11.365469 -3.27014,-7.419268 -3.55595,-16.254855 -0.0947,-23.586888 1.73066,-3.666016 4.36243,-6.915702 7.64722,-9.29161 3.2848,-2.375909 7.22132,-3.863479 11.2647,-4.15661 4.04337,-0.293131 8.18044,0.622307 11.67467,2.677834 3.49423,2.055527 6.32053,5.254257 7.84172,9.012024 1.52119,3.757767 1.71044,8.055779 0.43502,11.903913 -1.27542,3.848134 -4.02329,7.20512 -7.58919,9.133645 -3.71606,2.009736 -8.09203,2.437104 -11.94545,4.168951 -1.92671,0.865923 -3.74134,2.087805 -4.98655,3.79412 -0.6226,0.853157 -1.09514,1.821089 -1.33875,2.848786 -0.24362,1.027697 -0.25449,2.11547 0.0143,3.13686 0.35055,1.331843 1.17097,2.518701 2.22827,3.401192 1.05731,0.882491 2.3428,1.469753 3.68035,1.797811 2.67512,0.656115 5.48784,0.29359 8.19736,-0.2016 2.70953,-0.49519 5.4323,-1.122775 8.18332,-0.986254 1.37551,0.06826 2.7505,0.331858 4.01405,0.879713 1.26354,0.547855 2.41351,1.388474 3.23512,2.493754 1.24131,1.669883 1.66089,3.881888 1.29665,5.93047 -0.36424,2.048581 -1.47121,3.92796 -2.95915,5.382399 -1.48794,1.454438 -3.3425,2.500349 -5.29879,3.209061 -1.95629,0.708713 -4.01731,1.09088 -6.08416,1.330656 -4.1337,0.479552 -8.3485,0.404454 -12.39605,1.371279 -2.02378,0.483412 -4.00061,1.232701 -5.73472,2.382577 -1.73411,1.149876 -3.21987,2.716026 -4.10584,4.598686 -1.36144,2.89302 -1.1905,6.39777 0.20259,9.27568 1.39309,2.87791 3.92802,5.12988 6.84364,6.44221 2.91562,1.31234 6.19001,1.72252 9.37701,1.46551 3.18701,-0.25701 6.29594,-1.16131 9.2529,-2.37764 5.9139,-2.43268 11.24425,-6.09517 17.05966,-8.75474 2.9077,-1.32978 5.95038,-2.41035 9.10799,-2.91291 3.15761,-0.50256 6.44159,-0.41171 9.48955,0.5542 3.78725,1.2002 7.1127,3.75391 9.33718,7.04563 2.22448,3.29172 3.35071,7.29417 3.2749,11.26632 -0.0758,3.97215 -1.33866,7.89997 -3.50324,11.23138 -2.16459,3.33142 -5.21572,6.0653 -8.71412,7.9481 -6.9968,3.7656 -15.62109,3.99255 -23.11396,1.34835 -7.49288,-2.64419 -13.87174,-7.97914 -18.51153,-14.42952 -2.733,-3.79951 -4.93622,-8.02745 -8.25102,-11.33164 -1.6574,-1.65209 -3.59556,-3.05811 -5.78522,-3.88382 -2.18965,-0.82571 -4.64454,-1.04398 -6.88684,-0.37429 -1.7764,0.53054 -3.37571,1.60645 -4.59144,3.00612 -1.21572,1.39967 -2.05152,3.11508 -2.47523,4.91994 -0.84742,3.60973 -0.0321,7.48001 1.73334,10.74061 2.15005,3.97095 5.71613,7.16265 9.91327,8.82854 4.19713,1.6659 8.99424,1.7861 13.25822,0.29961 4.26398,-1.48648 7.95491,-4.57348 10.14158,-8.52438 2.18667,-3.9509 2.84136,-8.73137 1.76385,-13.11659 -1.41699,-5.76683 -5.53947,-10.40549 -8.72538,-15.41689 -1.59296,-2.5057 -2.98452,-5.18302 -3.6573,-8.07498 -0.67277,-2.891958 -0.58163,-6.030343 0.69038,-8.713258 1.19792,-2.526652 3.38921,-4.515196 5.91274,-5.719689 2.52352,-1.204493 5.36237,-1.659567 8.15779,-1.591488 5.59084,0.136159 10.90438,2.278139 16.205,4.061243 5.30061,1.783104 10.9899,3.241327 16.43816,1.979408 2.72413,-0.630959 5.32204,-1.966586 7.22302,-4.017256 1.90099,-2.05067 3.05478,-4.844284 2.8838,-7.635298 -0.12271,-2.003116 -0.91446,-3.940794 -2.12659,-5.540254 -1.21213,-1.599461 -2.83203,-2.86826 -4.61754,-3.784495 -3.57102,-1.832469 -7.69997,-2.248818 -11.71366,-2.229246 -4.01369,0.01957 -8.03153,0.441725 -12.03468,0.150393 -4.00316,-0.291333 -8.09603,-1.374829 -11.14856,-3.981014 -2.33063,-1.989844 -3.92665,-4.796932 -4.55071,-7.797245 -0.62405,-3.000314 -0.28996,-6.176981 0.84378,-9.024075 1.13374,-2.847095 3.05199,-5.362449 5.42947,-7.296077 2.37748,-1.933628 5.20514,-3.291038 8.17532,-4.045595 5.94036,-1.509113 12.32548,-0.58777 17.98434,1.766484 5.65887,2.354254 10.65729,6.071078 15.19473,10.19138 8.83408,8.021939 16.32313,18.117004 18.73556,29.803436 1.20621,5.843217 1.09135,11.999518 -0.68372,17.695768 -1.77507,5.696251 -5.2518,10.905828 -10.05184,14.449518 -5.02405,3.70907 -11.37728,5.48952 -17.61714,5.23949 -6.23986,-0.25002 -12.34262,-2.48049 -17.45979,-6.06 -5.54579,-3.87933 -9.96332,-9.340529 -12.64616,-15.554005 -2.68285,-6.213476 -3.62905,-13.158893 -2.75799,-19.87054 0.87106,-6.711646 3.55131,-13.173187 7.64491,-18.562749 4.0936,-5.389562 9.58692,-9.698388 15.77534,-12.43854 12.37683,-5.480304 27.38711,-4.314592 38.9726,2.68514 11.58548,6.999733 19.54351,19.552535 21.31899,32.971456 1.93989,14.661515 -3.27815,29.723058 -12.30769,41.435898 -1.96568,2.54982 -4.12483,4.9803 -6.6858,6.93143 -2.56096,1.95114 -5.55125,3.41251 -8.74029,3.85463 -3.18904,0.44212 -6.58259,-0.19831 -9.19193,-2.08427 -1.30466,-0.94298 -2.39881,-2.18485 -3.12682,-3.6206 -0.72801,-1.43575 -1.08404,-3.06499 -0.97311,-4.67093 0.16583,-2.40059 1.3758,-4.66725 3.11304,-6.33229 1.73723,-1.66504 3.97117,-2.75622 6.30032,-3.36073 4.65828,-1.20901 9.56481,-0.53249 14.36033,-0.12708 2.39776,0.2027 4.81162,0.33542 7.2087,0.12482 2.39708,-0.21059 4.78767,-0.77492 6.91422,-1.90102 2.12655,-1.1261 3.97986,-2.84132 5.04171,-5.000674 1.06184,-2.159354 1.27449,-4.773761 0.34373,-6.992774 -0.69784,-1.663707 -1.97116,-3.015433 -3.30128,-4.234312 -1.33013,-1.218879 -2.75329,-2.355207 -3.87821,-3.765688 -1.01492,-1.272557 -1.77106,-2.762688 -2.1143,-4.353803 -0.34324,-1.591116 -0.26403,-3.283044 0.30725,-4.807217 0.57128,-1.524173 1.64487,-2.869548 3.0486,-3.693565 1.40373,-0.824017 3.13452,-1.103666 4.70717,-0.683876 1.67606,0.447393 3.05022,1.613842 4.37871,2.729384 1.3285,1.115543 2.74389,2.248441 4.44181,2.60395 1.09828,0.229956 2.26292,0.110256 3.3027,-0.311581 1.03978,-0.421836 1.95288,-1.141026 2.63013,-2.035695 0.67724,-0.894669 1.11974,-1.961175 1.30392,-3.068049 0.18418,-1.106874 0.11228,-2.252411 -0.18032,-3.335683 -0.5852,-2.166546 -2.04703,-4.043748 -3.88299,-5.334335 -1.83597,-1.290587 -4.02686,-2.020874 -6.25036,-2.324914 -4.03699,-0.552016 -8.11702,0.253301 -12.15574,0.792516 -4.03872,0.539215 -8.2932,0.78642 -12.04939,-0.792516 -2.2793,-0.958117 -4.27293,-2.569507 -5.72615,-4.569842 -1.45322,-2.000334 -2.36685,-4.381796 -2.67159,-6.835431 -0.60949,-4.907269 1.28629,-9.990334 4.71539,-13.553204 3.42909,-3.562871 8.27958,-5.627565 13.21096,-5.993927 4.93138,-0.366362 9.91896,0.90345 14.26626,3.260097 6.41163,3.475709 11.48341,9.354513 13.98165,16.206397 2.49824,6.851884 2.40056,14.615505 -0.26927,21.402368 -2.66983,6.786862 -7.88792,12.536205 -14.38496,15.849505 -6.49704,3.3133 -14.21487,4.160894 -21.27614,2.336605 -4.6189,-1.42538 -8.62095,-4.747838 -10.8718,-9.025648 -2.11667,-4.022811 -2.67397,-8.796576 -1.78912,-13.255315 0.88485,-4.458739 3.16908,-8.593369 6.28862,-11.899694 3.11954,-3.306324 7.05226,-5.799714 11.28395,-7.459876 4.23169,-1.660163 8.75912,-2.502689 13.29841,-2.744008 9.07856,-0.48264 18.1033,1.403623 26.9576,3.466308 C 334.02196,49.452147 342.91313,51.713582 352,52 c 11.76732,0.370906 23.38452,-2.583089 35.14208,-3.18917 5.87878,-0.303041 11.83977,-0.0081 17.51434,1.557499 5.67456,1.565629 11.06922,4.461745 15.03589,8.811158 3.12802,3.429841 5.30429,7.7102 6.28344,12.247775 0.97915,4.537575 0.76439,9.320868 -0.56761,13.767676 -2.664,8.893616 -9.89437,16.199172 -18.63891,19.317882 -7.89005,2.81396 -16.85931,2.2956 -24.4902,-1.15994 -7.63089,-3.455536 -13.87951,-9.762295 -17.51755,-17.307884 -3.63803,-7.54559 -4.68887,-16.264243 -3.22541,-24.512242 1.46347,-8.247999 5.39672,-16.002945 10.97675,-22.250703 6.31463,-7.070257 14.81204,-12.25095 24.08817,-14.204522 9.27613,-1.953572 19.28793,-0.588157 27.49812,4.1506 8.21019,4.738756 14.47331,12.886719 16.53713,22.138943 2.06383,9.252225 -0.23526,19.465672 -6.37983,26.68421 -5.39939,6.34311 -13.26869,10.09618 -21.25771,12.454995 -7.98902,2.358814 -16.28927,3.499555 -24.33549,5.655167 -8.04623,2.155613 -16.04675,5.474986 -21.91233,11.389656 -2.9328,2.95734 -5.27552,6.5408 -6.54568,10.50738 -1.27015,3.96659 -1.43494,8.3212 -0.20519,12.3005 0.91805,2.97067 2.59636,5.69216 4.77619,7.90937 2.17983,2.21721 4.85381,3.9329 7.74609,5.07414 5.78454,2.28248 12.34178,2.2231 18.31297,0.48654 5.97119,-1.73656 11.38972,-5.07188 16.124,-9.10391 4.73428,-4.03203 8.82629,-8.75874 12.73305,-13.59691 7.44442,-9.21926 14.3755,-19.07734 18.3828,-30.228829 4.00731,-11.151485 4.86099,-23.811852 0.25339,-34.729002 -2.30379,-5.458575 -5.95294,-10.382985 -10.68574,-13.947267 -4.7328,-3.564283 -10.55932,-5.727179 -16.48328,-5.828071 -5.92397,-0.100893 -11.90931,1.914044 -16.38724,5.793696 -4.47793,3.879652 -7.35165,9.63165 -7.49019,15.554853 -0.15323,6.551269 2.85891,12.70041 5.59536,18.654775 1.36822,2.977182 2.68925,5.992524 3.5461,9.155034 0.85684,3.16251 1.239,6.495975 0.7047,9.728649 -0.63351,3.832958 -2.57313,7.426782 -5.38015,10.112582 -2.80701,2.68581 -6.45996,4.45881 -10.29586,5.07426 -3.8359,0.61545 -7.83893,0.081 -11.40847,-1.45242 -3.56954,-1.53339 -6.69913,-4.05338 -9.01809,-7.17032 -4.23904,-5.697739 -5.63047,-13.322098 -4.05686,-20.247226 1.57361,-6.925128 5.99132,-13.087473 11.82448,-17.138145 5.83316,-4.050673 13.00383,-6.028398 20.10509,-5.952268 7.10125,0.07613 14.1197,2.153738 20.33242,5.594053 4.58793,2.540583 8.7934,5.850553 12.0254,9.980667 3.232,4.130114 5.46135,9.105946 5.99161,14.323465 0.53027,5.217518 -0.70739,10.664022 -3.76776,14.922884 -3.06036,4.25885 -7.98919,7.21897 -13.22361,7.54221 -3.76242,0.23234 -7.54373,-0.86855 -10.78568,-2.79196 -3.24196,-1.9234 -5.96666,-4.64027 -8.19912,-7.67768 -4.46492,-6.074818 -6.969,-13.322449 -10.02754,-20.213341 -3.05853,-6.890891 -6.96018,-13.780245 -13.23896,-17.953493 -3.13938,-2.086624 -6.83542,-3.414212 -10.60482,-3.451635 -3.76939,-0.03742 -7.59727,1.279504 -10.32337,3.882985 -1.96572,1.8773 -3.31091,4.3624 -3.96979,6.999479 -0.65889,2.637079 -0.64744,5.420166 -0.13149,8.088895 1.03189,5.337457 4.00974,10.106138 7.42534,14.335431 3.4156,4.229292 7.31733,8.053269 10.63648,12.358669 3.31916,4.3054 6.08951,9.23268 6.75741,14.62778 0.50283,4.06169 -0.23036,8.25269 -1.97989,11.9526 -1.74953,3.6999 -4.49915,6.90537 -7.82391,9.29202 -6.64951,4.77332 -15.4444,6.11041 -23.44087,4.36199 -7.99648,-1.74842 -15.19264,-6.38899 -20.77916,-12.37158 -5.58652,-5.98259 -9.64448,-13.26145 -12.68305,-20.86195 -6.07714,-15.201011 -8.20606,-31.703749 -13.65194,-47.142167 -2.72293,-7.71921 -6.30914,-15.209285 -11.38429,-21.631384 -5.07516,-6.4221 -11.71646,-11.750389 -19.43638,-14.47132 -7.1276,-2.512165 -15.20537,-2.677593 -22.14886,0.305964 -3.47174,1.491779 -6.62434,3.750554 -9.07275,6.6287 -2.44841,2.878146 -4.18085,6.377718 -4.88094,10.090976 -0.69538,3.68827 -0.36605,7.549659 0.83344,11.106077 1.1995,3.556418 3.25716,6.806425 5.87543,9.495582 5.23653,5.378315 12.60808,8.399093 20.07712,9.148142 7.46904,0.749049 15.03645,-0.648992 22.1151,-3.147044 7.07865,-2.498052 13.72401,-6.073444 20.2425,-9.795921 13.03699,-7.444955 26.28155,-15.739715 41.22056,-17.22844 7.4695,-0.744363 15.24254,0.340789 21.8307,3.938518 6.58817,3.597729 11.86517,9.862914 13.44617,17.201035 0.94441,4.383428 0.56265,9.019828 -0.91982,13.251684 -1.48248,4.231857 -4.04571,8.058426 -7.27298,11.171472 -6.45455,6.22609 -15.38835,9.46472 -24.32582,10.204386 -8.93746,0.73966 -17.92299,-0.853898 -26.56267,-3.258347 -8.63967,-2.404448 -17.0326,-5.617707 -25.61417,-8.221932 -8.58157,-2.604225 -17.44957,-4.608611 -26.41684,-4.492286 -8.96726,0.116324 -18.09968,2.490202 -25.23146,7.927398 -3.56589,2.718598 -6.58776,6.178889 -8.64307,10.164117 -2.05531,3.98523 -3.12641,8.49821 -2.90317,12.97666 0.22323,4.47845 1.76315,8.90837 4.50694,12.45491 2.74379,3.54655 6.70037,6.1725 11.07536,7.15527 3.7997,0.85354 7.81735,0.47019 11.51977,-0.73741 3.70243,-1.20759 7.10724,-3.21398 10.20443,-5.57484 6.19436,-4.72173 11.18415,-10.82921 17.02617,-15.98049 2.92101,-2.57565 6.07468,-4.92285 9.56775,-6.64469 3.49307,-1.72183 7.34549,-2.80459 11.23978,-2.7776 3.89429,0.027 7.82923,1.21224 10.87673,3.6369 3.0475,2.42466 5.12777,6.13463 5.25768,10.02685 0.10304,3.08723 -0.96875,6.07423 -1.60336,9.09729 -0.3173,1.51153 -0.52712,3.05826 -0.42359,4.59927 0.10353,1.541 0.5346,3.08337 1.41157,4.35472 1.15749,1.67802 3.06468,2.79209 5.08254,3.08152 2.01787,0.28944 4.12171,-0.22335 5.84092,-1.31872 1.71922,-1.09538 3.05543,-2.75187 3.86524,-4.62264 0.80981,-1.87076 1.10388,-3.9474 0.95778,-5.98068 -0.29218,-4.06654 -2.30112,-7.84906 -4.88996,-10.99867 -2.58885,-3.14961 -5.75503,-5.76325 -8.80524,-8.4685 -14.59979,-12.948673 -27.03762,-28.478009 -43.26825,-39.312617 -8.11532,-5.417305 -17.18925,-9.60148 -26.82474,-11.138601 -9.6355,-1.537122 -19.86971,-0.290751 -28.36855,4.502499 -7.53414,4.249169 -13.48768,11.23108 -16.49308,19.341953 -3.00539,8.110873 -3.03882,17.286421 -0.0926,25.418976 2.94622,8.13255 8.84874,15.15765 16.35173,19.4616 7.50298,4.30394 16.54695,5.85262 25.05446,4.29029"
     id="path4968"
     inkscape:path-effect="#path-effect4970"
     inkscape:original-d="m 189.53846,42.153846 c -8.41026,24.615385 -70.61264,17.011899 -50.8718,31.589744 26.66667,19.692306 14.76924,44.10256 15.17949,18.666666 0.41026,-25.435897 19.28206,-42.871794 0.20513,-25.435897 C 134.97436,84.410256 85.538464,84 134.97436,84.410256 c 49.4359,0.410256 62.15385,22.974364 49.4359,-0.205128 C 171.6923,61.025641 140.51282,65.333334 171.6923,61.025641 c 31.17949,-4.307692 49.84616,-18.871795 31.17949,-4.307692 -18.66666,14.564102 -47.79487,6.564102 -18.25641,13.948717 29.53847,7.384616 64.82052,-16.820512 29.53847,7.384616 -35.28206,24.205128 -96.61539,20.307694 -35.28206,24.205128 61.33334,3.89744 102.56411,-20.923074 61.33334,3.69231 -41.23077,24.61538 -20.30769,40 -41.23077,24.41026 -20.92308,-15.58975 -15.58974,-34.666676 -20.92308,-15.58975 -5.33333,19.07692 -40.41026,30.56411 -5.33333,18.66667 35.07692,-11.89744 46.76923,20.51282 35.07692,-12.51282 -11.6923,-33.025648 -68.51282,-19.28206 -11.6923,-32.205128 56.82051,-12.92308 98.46153,1.230768 56.82051,-12.92308 -41.64103,-14.153846 -84.71795,1.230769 -41.64103,-15.384616 43.07693,-16.615384 34.05129,-78.76923 43.07693,-16.205128 9.02564,62.564102 43.07692,62.153852 8,61.948722 -35.07693,-0.20513 -103.38462,30.76923 -35.07693,-0.82051 C 295.58974,73.74359 307.89744,32.51282 295.58974,74.564102 283.28205,116.61538 312,115.58974 283.28205,116 c -28.71795,0.41026 -72,24 -28.71795,0.41026 43.28205,-23.589748 50.46154,-16.615388 43.28205,-23.589748 -7.17949,-6.97436 -12.51281,5.538464 -7.17949,-8 5.33334,-13.538461 -2.87179,-18.871794 5.94872,-13.538461 8.82052,5.333334 11.69232,21.743589 8.82052,5.333334 -2.8718,-16.410257 21.33333,-16.410257 -3.07692,-16.410257 -24.41026,0 -54.15385,6.564102 -24.20513,0 29.94872,-6.564102 20.51282,-41.230769 23.79487,-27.692307 C 305.23077,46.051283 280,88.307696 280,88.307696 474.92181,140.03454 257.1903,93.410455 269.1282,79.282048 289.62798,55.020732 337.64102,22.666666 352,52 c 14.35898,29.333336 66.05128,-19.076923 67.69231,7.179487 1.64103,26.256409 19.48718,69.948723 -12.92308,45.333333 -32.41025,-24.615384 -63.38461,-61.743589 -34.25641,-65.230769 29.1282,-3.487179 98.46154,26.25641 61.74359,38.769231 -36.71795,12.512818 -116.92307,49.025638 -74.2564,52.307698 42.66666,3.28205 119.58973,26.66666 59.6923,-9.23077 -59.89744,-35.897442 -45.94872,-100.307697 -32.41026,-63.38462 13.53846,36.923074 45.74359,27.897434 9.84616,37.538458 -35.89744,9.641032 -39.58975,48.000002 -36.10257,6.564102 3.48718,-41.435894 47.17949,-84.512817 48.20513,-37.743586 1.02564,46.769226 80.41025,38.769226 1.02564,46.769226 -79.38462,8 -25.02564,-67.487175 -63.17949,-48.205124 -38.15384,19.282054 88.41026,49.025634 20.71795,56.410254 -67.6923,7.38462 -102.35897,-102.358971 -111.17949,-90.871791 -39.98666,52.075635 -63.99999,-2.666667 -36.10255,17.02564 54.76483,38.657523 189.33332,-20.102564 145.64102,20.717949 -43.69231,40.820512 -229.74359,75.487182 -132.3077,69.333332 97.4359,-6.15384 102.56411,-19.07692 75.69231,-18.05128 -26.8718,1.02564 -48.20512,17.84615 -0.61538,18.05128 47.58974,0.20513 -45.53846,-14.76923 2.05128,-28.30769 47.58974,-13.538464 -151.58974,-80.410258 -98.46154,-45.948719 53.1282,34.461535 24.82052,68.512819 24.82052,68.512819"
     inkscape:connector-curvature="0"
     sodipodi:nodetypes="cssssssssssssssssssssssssssssssscsssssssssssssssssssssssc" />
</svg>
