<?xml version="1.0" encoding="UTF-8" standalone="no"?>
<svg
   xmlns:dc="http://purl.org/dc/elements/1.1/"
   xmlns:cc="http://creativecommons.org/ns#"
   xmlns:rdf="http://www.w3.org/1999/02/22-rdf-syntax-ns#"
   xmlns:svg="http://www.w3.org/2000/svg"
   xmlns="http://www.w3.org/2000/svg"
   viewBox="0 0 588.75 562.5"
   height="562.5"
   width="588.75"
   xml:space="preserve"
   version="1.1"
   id="svg2"><metadata
     id="metadata8"><rdf:RDF><cc:Work
         rdf:about=""><dc:format>image/svg+xml</dc:format><dc:type
           rdf:resource="http://purl.org/dc/dcmitype/StillImage" /></cc:Work></rdf:RDF></metadata><defs
     id="defs6"><clipPath
       id="clipPath18"
       clipPathUnits="userSpaceOnUse"><path
         id="path20"
         d="M 0,4495.24 0,0 l 4709.59,0 0,4495.24 -4709.59,0 z" /></clipPath></defs><g
     transform="matrix(1.25,0,0,-1.25,0,562.5)"
     id="g10"><g
       transform="scale(0.1,0.1)"
       id="g12"><g
         id="g14"><g
           clip-path="url(#clipPath18)"
           id="g16"><path
             id="path22"
             style="fill:#deddde;fill-opacity:1;fill-rule:nonzero;stroke:none"
             d="m 782.98,2465.33 0,1172.1 3855.58,0 0,-1172.1 -3855.58,0 0,0" /><path
             id="path24"
             style="fill:#deddde;fill-opacity:1;fill-rule:nonzero;stroke:none"
             d="m 782.969,3051.38 3855.591,0 -3855.591,0 0,0" /><path
             id="path26"
             style="fill:none;stroke:#918f90;stroke-width:22.63999939;stroke-linecap:butt;stroke-linejoin:miter;stroke-miterlimit:10;stroke-dasharray:none;stroke-opacity:1"
             d="m 782.969,3051.38 3855.591,0 -3855.591,0 0,0 z" /><path
             id="path28"
             style="fill:none;stroke:#100f0d;stroke-width:22.6439991;stroke-linecap:butt;stroke-linejoin:miter;stroke-miterlimit:10;stroke-dasharray:none;stroke-opacity:1"
             d="m 782.965,506.48 0,3855.61 3855.595,0 0,-3855.61 -3855.595,0 0,0 z" /><path
             id="path30"
             style="fill:none;stroke:#100f0d;stroke-width:9.18000031;stroke-linecap:butt;stroke-linejoin:miter;stroke-miterlimit:10;stroke-dasharray:none;stroke-opacity:1"
             d="m 782.965,506.48 3855.595,0" /><path
             id="path32"
             style="fill:none;stroke:#100f0d;stroke-width:22.6439991;stroke-linecap:butt;stroke-linejoin:miter;stroke-miterlimit:10;stroke-dasharray:none;stroke-opacity:1"
             d="m 4638.56,506.48 0,122.399 m -963.91,-122.399 0,122.399 m -963.88,-122.399 0,122.399 m -963.91,-122.399 0,122.399 M 782.965,506.48 l 0,122.399" /><g
             transform="scale(10,10)"
             id="g34"><text
               id="text36"
               style="font-variant:normal;font-weight:normal;font-size:23.99040031px;font-family:Helvetica;-inkscape-font-specification:Helvetica;writing-mode:lr-tb;fill:#100f0d;fill-opacity:1;fill-rule:nonzero;stroke:none"
               transform="matrix(1,0,0,-1,72.1797,27.5078)"><tspan
                 id="tspan38"
                 y="0"
                 x="0 98.412216 192.77367 289.17117 385.43768">01234</tspan></text>
<text
               id="text40"
               style="font-variant:normal;font-weight:normal;font-size:25.70400047px;font-family:Symbol;-inkscape-font-specification:Symbol;writing-mode:lr-tb;fill:#100f0d;fill-opacity:1;fill-rule:nonzero;stroke:none"
               transform="matrix(1,0,0,-1,263.0627,7.6801)"><tspan
                 id="tspan42"
                 y="0"
                 x="0">α</tspan></text>
</g><path
             id="path44"
             style="fill:none;stroke:#100f0d;stroke-width:22.6439991;stroke-linecap:butt;stroke-linejoin:miter;stroke-miterlimit:10;stroke-dasharray:none;stroke-opacity:1"
             d="m 782.965,4362.09 122.394,0 m -122.394,-771.13 122.394,0 m -122.394,-771.12 122.394,0 m -122.394,-771.11 122.394,0 m -122.394,-771.13 122.394,0 m -122.394,-771.12 122.394,0 m -122.394,3470.04 61.195,0 m -61.195,-771.11 61.195,0 m -61.195,-771.13 61.195,0 m -61.195,-771.12 61.195,0 m -61.195,-771.109 61.195,0" /><g
             transform="scale(10,10)"
             id="g46"><text
               id="text48"
               style="font-variant:normal;font-weight:normal;font-size:25.70400047px;font-family:Helvetica;-inkscape-font-specification:Helvetica;writing-mode:lr-tb;fill:#100f0d;fill-opacity:1;fill-rule:nonzero;stroke:none"
               transform="matrix(1,0,0,-1,59.2109,41.8988)"><tspan
                 id="tspan50"
                 y="0"
                 x="0">0</tspan><tspan
                 id="tspan52"
                 y="-76.969101"
                 x="-14.3828 -0.087402597">10</tspan><tspan
                 id="tspan54"
                 y="-154.2191"
                 x="-14.3828 -0.087402597">20</tspan><tspan
                 id="tspan56"
                 y="-231.32809"
                 x="-14.3828 -0.087402597">30</tspan><tspan
                 id="tspan58"
                 y="-308.32031"
                 x="-14.3828 -0.087402597">40</tspan><tspan
                 id="tspan60"
                 y="-385.55469"
                 x="-14.3828 -0.087402597">50</tspan></text>
<text
               id="text62"
               style="font-variant:normal;font-weight:normal;font-size:25.70400047px;font-family:Helvetica;-inkscape-font-specification:Helvetica;writing-mode:lr-tb;fill:#100f0d;fill-opacity:1;fill-rule:nonzero;stroke:none"
               transform="matrix(0,1,1,0,22.0703,215.126)"><tspan
                 id="tspan64"
                 y="0"
                 x="0 15.011136 33.573647 47.856869">&lt;R &gt;</tspan></text>
<text
               id="text66"
               style="font-variant:normal;font-weight:normal;font-size:18.17639923px;font-family:Helvetica;-inkscape-font-specification:Helvetica;writing-mode:lr-tb;fill:#100f0d;fill-opacity:1;fill-rule:nonzero;stroke:none"
               transform="matrix(0,1,1,0,32.3437,247.6178)"><tspan
                 id="tspan68"
                 y="0"
                 x="0">g</tspan></text>
</g><path
             id="path70"
             style="fill:none;stroke:#100f0d;stroke-width:22.6439991;stroke-linecap:butt;stroke-linejoin:miter;stroke-miterlimit:10;stroke-dasharray:none;stroke-opacity:1"
             d="m 782.805,4284.36 70.379,-99.75 104.648,-42.23 175.648,-50.19 350.06,-291.92 350.68,-631.58 350.67,-1143.23 350.68,-361.07 350.06,-113.84 350.68,-61.2 350.67,-36.72 350.68,-26.92 350.06,-18.36 351.29,-9.18" /><path
             id="path72"
             style="fill:#100f0d;fill-opacity:1;fill-rule:nonzero;stroke:none"
             d="m 801.16,4284.08 c 0,10.14 -8.222,18.36 -18.355,18.36 -10.137,0 -18.364,-8.22 -18.364,-18.36 0,-10.13 8.227,-18.36 18.364,-18.36 10.133,0 18.355,8.23 18.355,18.36 l 0,0" /><path
             id="path74"
             style="fill:none;stroke:#100f0d;stroke-width:18.36000061;stroke-linecap:butt;stroke-linejoin:miter;stroke-miterlimit:10;stroke-dasharray:none;stroke-opacity:1"
             d="m 801.16,4284.08 c 0,10.14 -8.222,18.36 -18.355,18.36 -10.137,0 -18.364,-8.22 -18.364,-18.36 0,-10.13 8.227,-18.36 18.364,-18.36 10.133,0 18.355,8.23 18.355,18.36" /><path
             id="path76"
             style="fill:#100f0d;fill-opacity:1;fill-rule:nonzero;stroke:none"
             d="m 870.762,4184.48 c 0,10.14 -8.235,18.36 -18.36,18.36 -10.136,0 -18.359,-8.22 -18.359,-18.36 0,-10.13 8.223,-18.36 18.359,-18.36 10.125,0 18.36,8.23 18.36,18.36 l 0,0" /><path
             id="path78"
             style="fill:none;stroke:#100f0d;stroke-width:18.36000061;stroke-linecap:butt;stroke-linejoin:miter;stroke-miterlimit:10;stroke-dasharray:none;stroke-opacity:1"
             d="m 870.762,4184.48 c 0,10.14 -8.235,18.36 -18.36,18.36 -10.136,0 -18.359,-8.22 -18.359,-18.36 0,-10.13 8.223,-18.36 18.359,-18.36 10.125,0 18.36,8.23 18.36,18.36" /><path
             id="path80"
             style="fill:#100f0d;fill-opacity:1;fill-rule:nonzero;stroke:none"
             d="m 976.355,4142.48 c 0,10.14 -8.218,18.36 -18.359,18.36 -10.137,0 -18.355,-8.22 -18.355,-18.36 0,-10.13 8.218,-18.35 18.355,-18.35 10.141,0 18.359,8.22 18.359,18.35 l 0,0" /><path
             id="path82"
             style="fill:none;stroke:#100f0d;stroke-width:18.36000061;stroke-linecap:butt;stroke-linejoin:miter;stroke-miterlimit:10;stroke-dasharray:none;stroke-opacity:1"
             d="m 976.355,4142.48 c 0,10.14 -8.218,18.36 -18.359,18.36 -10.137,0 -18.355,-8.22 -18.355,-18.36 0,-10.13 8.218,-18.35 18.355,-18.35 10.141,0 18.359,8.22 18.359,18.35" /><path
             id="path84"
             style="fill:#100f0d;fill-opacity:1;fill-rule:nonzero;stroke:none"
             d="m 1151.56,4092.09 c 0,10.13 -8.23,18.36 -18.36,18.36 -10.13,0 -18.37,-8.23 -18.37,-18.36 0,-10.14 8.24,-18.36 18.37,-18.36 10.13,0 18.36,8.22 18.36,18.36 l 0,0" /><path
             id="path86"
             style="fill:none;stroke:#100f0d;stroke-width:18.36000061;stroke-linecap:butt;stroke-linejoin:miter;stroke-miterlimit:10;stroke-dasharray:none;stroke-opacity:1"
             d="m 1151.56,4092.09 c 0,10.13 -8.23,18.36 -18.36,18.36 -10.13,0 -18.37,-8.23 -18.37,-18.36 0,-10.14 8.24,-18.36 18.37,-18.36 10.13,0 18.36,8.22 18.36,18.36" /><path
             id="path88"
             style="fill:#100f0d;fill-opacity:1;fill-rule:nonzero;stroke:none"
             d="m 1501.96,3800.48 c 0,10.14 -8.22,18.36 -18.36,18.36 -10.13,0 -18.36,-8.22 -18.36,-18.36 0,-10.13 8.23,-18.36 18.36,-18.36 10.14,0 18.36,8.23 18.36,18.36 l 0,0" /><path
             id="path90"
             style="fill:none;stroke:#100f0d;stroke-width:18.36000061;stroke-linecap:butt;stroke-linejoin:miter;stroke-miterlimit:10;stroke-dasharray:none;stroke-opacity:1"
             d="m 1501.96,3800.48 c 0,10.14 -8.22,18.36 -18.36,18.36 -10.13,0 -18.36,-8.22 -18.36,-18.36 0,-10.13 8.23,-18.36 18.36,-18.36 10.14,0 18.36,8.23 18.36,18.36" /><path
             id="path92"
             style="fill:#100f0d;fill-opacity:1;fill-rule:nonzero;stroke:none"
             d="m 1852.36,3168.08 c 0,10.14 -8.23,18.36 -18.37,18.36 -10.12,0 -18.36,-8.22 -18.36,-18.36 0,-10.13 8.24,-18.36 18.36,-18.36 10.14,0 18.37,8.23 18.37,18.36 l 0,0" /><path
             id="path94"
             style="fill:none;stroke:#100f0d;stroke-width:18.36000061;stroke-linecap:butt;stroke-linejoin:miter;stroke-miterlimit:10;stroke-dasharray:none;stroke-opacity:1"
             d="m 1852.36,3168.08 c 0,10.14 -8.23,18.36 -18.37,18.36 -10.12,0 -18.36,-8.22 -18.36,-18.36 0,-10.13 8.24,-18.36 18.36,-18.36 10.14,0 18.37,8.23 18.37,18.36" /><path
             id="path96"
             style="fill:#100f0d;fill-opacity:1;fill-rule:nonzero;stroke:none"
             d="m 2202.76,2025.68 c 0,10.14 -8.22,18.37 -18.36,18.37 -10.13,0 -18.36,-8.23 -18.36,-18.37 0,-10.13 8.23,-18.36 18.36,-18.36 10.14,0 18.36,8.23 18.36,18.36 l 0,0" /><path
             id="path98"
             style="fill:none;stroke:#100f0d;stroke-width:18.36000061;stroke-linecap:butt;stroke-linejoin:miter;stroke-miterlimit:10;stroke-dasharray:none;stroke-opacity:1"
             d="m 2202.76,2025.68 c 0,10.14 -8.22,18.37 -18.36,18.37 -10.13,0 -18.36,-8.23 -18.36,-18.37 0,-10.13 8.23,-18.36 18.36,-18.36 10.14,0 18.36,8.23 18.36,18.36" /><path
             id="path100"
             style="fill:#100f0d;fill-opacity:1;fill-rule:nonzero;stroke:none"
             d="m 2553.15,1664.49 c 0,10.12 -8.22,18.36 -18.36,18.36 -10.12,0 -18.36,-8.24 -18.36,-18.36 0,-10.14 8.24,-18.36 18.36,-18.36 10.14,0 18.36,8.22 18.36,18.36 l 0,0" /><path
             id="path102"
             style="fill:none;stroke:#100f0d;stroke-width:18.36000061;stroke-linecap:butt;stroke-linejoin:miter;stroke-miterlimit:10;stroke-dasharray:none;stroke-opacity:1"
             d="m 2553.15,1664.49 c 0,10.12 -8.22,18.36 -18.36,18.36 -10.12,0 -18.36,-8.24 -18.36,-18.36 0,-10.14 8.24,-18.36 18.36,-18.36 10.14,0 18.36,8.22 18.36,18.36" /><path
             id="path104"
             style="fill:#100f0d;fill-opacity:1;fill-rule:nonzero;stroke:none"
             d="m 2903.56,1550.48 c 0,10.14 -8.22,18.36 -18.36,18.36 -10.14,0 -18.36,-8.22 -18.36,-18.36 0,-10.13 8.22,-18.36 18.36,-18.36 10.14,0 18.36,8.23 18.36,18.36 l 0,0" /><path
             id="path106"
             style="fill:none;stroke:#100f0d;stroke-width:18.36000061;stroke-linecap:butt;stroke-linejoin:miter;stroke-miterlimit:10;stroke-dasharray:none;stroke-opacity:1"
             d="m 2903.56,1550.48 c 0,10.14 -8.22,18.36 -18.36,18.36 -10.14,0 -18.36,-8.22 -18.36,-18.36 0,-10.13 8.22,-18.36 18.36,-18.36 10.14,0 18.36,8.23 18.36,18.36" /><path
             id="path108"
             style="fill:#100f0d;fill-opacity:1;fill-rule:nonzero;stroke:none"
             d="m 3253.95,1489.28 c 0,10.14 -8.22,18.36 -18.36,18.36 -10.14,0 -18.36,-8.22 -18.36,-18.36 0,-10.13 8.22,-18.36 18.36,-18.36 10.14,0 18.36,8.23 18.36,18.36 l 0,0" /><path
             id="path110"
             style="fill:none;stroke:#100f0d;stroke-width:18.36000061;stroke-linecap:butt;stroke-linejoin:miter;stroke-miterlimit:10;stroke-dasharray:none;stroke-opacity:1"
             d="m 3253.95,1489.28 c 0,10.14 -8.22,18.36 -18.36,18.36 -10.14,0 -18.36,-8.22 -18.36,-18.36 0,-10.13 8.22,-18.36 18.36,-18.36 10.14,0 18.36,8.23 18.36,18.36" /><path
             id="path112"
             style="fill:#100f0d;fill-opacity:1;fill-rule:nonzero;stroke:none"
             d="m 3605.55,1452.09 c 0,10.13 -8.22,18.36 -18.36,18.36 -10.13,0 -18.36,-8.23 -18.36,-18.36 0,-10.14 8.23,-18.36 18.36,-18.36 10.14,0 18.36,8.22 18.36,18.36 l 0,0" /><path
             id="path114"
             style="fill:none;stroke:#100f0d;stroke-width:18.36000061;stroke-linecap:butt;stroke-linejoin:miter;stroke-miterlimit:10;stroke-dasharray:none;stroke-opacity:1"
             d="m 3605.55,1452.09 c 0,10.13 -8.22,18.36 -18.36,18.36 -10.13,0 -18.36,-8.23 -18.36,-18.36 0,-10.14 8.23,-18.36 18.36,-18.36 10.14,0 18.36,8.22 18.36,18.36" /><path
             id="path116"
             style="fill:#100f0d;fill-opacity:1;fill-rule:nonzero;stroke:none"
             d="m 3955.96,1425.68 c 0,10.14 -8.22,18.37 -18.36,18.37 -10.13,0 -18.36,-8.23 -18.36,-18.37 0,-10.13 8.23,-18.36 18.36,-18.36 10.14,0 18.36,8.23 18.36,18.36 l 0,0" /><path
             id="path118"
             style="fill:none;stroke:#100f0d;stroke-width:18.36000061;stroke-linecap:butt;stroke-linejoin:miter;stroke-miterlimit:10;stroke-dasharray:none;stroke-opacity:1"
             d="m 3955.96,1425.68 c 0,10.14 -8.22,18.37 -18.36,18.37 -10.13,0 -18.36,-8.23 -18.36,-18.37 0,-10.13 8.23,-18.36 18.36,-18.36 10.14,0 18.36,8.23 18.36,18.36" /><path
             id="path120"
             style="fill:#100f0d;fill-opacity:1;fill-rule:nonzero;stroke:none"
             d="m 4306.35,1407.68 c 0,10.14 -8.22,18.36 -18.36,18.36 -10.13,0 -18.36,-8.22 -18.36,-18.36 0,-10.14 8.23,-18.36 18.36,-18.36 10.14,0 18.36,8.22 18.36,18.36 l 0,0" /><path
             id="path122"
             style="fill:none;stroke:#100f0d;stroke-width:18.36000061;stroke-linecap:butt;stroke-linejoin:miter;stroke-miterlimit:10;stroke-dasharray:none;stroke-opacity:1"
             d="m 4306.35,1407.68 c 0,10.14 -8.22,18.36 -18.36,18.36 -10.13,0 -18.36,-8.22 -18.36,-18.36 0,-10.14 8.23,-18.36 18.36,-18.36 10.14,0 18.36,8.22 18.36,18.36" /><path
             id="path124"
             style="fill:none;stroke:#ed1e24;stroke-width:22.6439991;stroke-linecap:butt;stroke-linejoin:miter;stroke-miterlimit:10;stroke-dasharray:114.444, 68.544;stroke-dashoffset:0;stroke-opacity:1"
             d="m 782.805,4302.72 181.148,-196.45 91.197,183.6 90.56,-141.98 90.59,-61.82 90.57,3.06 181.76,-175.64 181.16,-362.92 181.15,-496.94 362.92,-883.12 362.9,-401.47 1813.97,-135.86 228.28,4.28" /><path
             id="path126"
             style="fill:#ed1e24;fill-opacity:1;fill-rule:nonzero;stroke:none"
             d="m 801.16,4303.29 c 0,10.13 -8.222,18.35 -18.355,18.35 -10.137,0 -18.364,-8.22 -18.364,-18.35 0,-10.14 8.227,-18.37 18.364,-18.37 10.133,0 18.355,8.23 18.355,18.37 l 0,0" /><path
             id="path128"
             style="fill:none;stroke:#ed1e24;stroke-width:18.36000061;stroke-linecap:butt;stroke-linejoin:miter;stroke-miterlimit:10;stroke-dasharray:none;stroke-opacity:1"
             d="m 801.16,4303.29 c 0,10.13 -8.222,18.35 -18.355,18.35 -10.137,0 -18.364,-8.22 -18.364,-18.35 0,-10.14 8.227,-18.37 18.364,-18.37 10.133,0 18.355,8.23 18.355,18.37" /><path
             id="path130"
             style="fill:#ed1e24;fill-opacity:1;fill-rule:nonzero;stroke:none"
             d="m 982.363,4106.48 c 0,10.14 -8.23,18.36 -18.371,18.36 -10.125,0 -18.355,-8.22 -18.355,-18.36 0,-10.13 8.23,-18.36 18.355,-18.36 10.141,0 18.371,8.23 18.371,18.36 l 0,0" /><path
             id="path132"
             style="fill:none;stroke:#ed1e24;stroke-width:18.36000061;stroke-linecap:butt;stroke-linejoin:miter;stroke-miterlimit:10;stroke-dasharray:none;stroke-opacity:1"
             d="m 982.363,4106.48 c 0,10.14 -8.23,18.36 -18.371,18.36 -10.125,0 -18.355,-8.22 -18.355,-18.36 0,-10.13 8.23,-18.36 18.355,-18.36 10.141,0 18.371,8.23 18.371,18.36" /><path
             id="path134"
             style="fill:#ed1e24;fill-opacity:1;fill-rule:nonzero;stroke:none"
             d="m 1073.56,4290.09 c 0,10.13 -8.22,18.35 -18.35,18.35 -10.14,0 -18.36,-8.22 -18.36,-18.35 0,-10.14 8.22,-18.37 18.36,-18.37 10.13,0 18.35,8.23 18.35,18.37 l 0,0" /><path
             id="path136"
             style="fill:none;stroke:#ed1e24;stroke-width:18.36000061;stroke-linecap:butt;stroke-linejoin:miter;stroke-miterlimit:10;stroke-dasharray:none;stroke-opacity:1"
             d="m 1073.56,4290.09 c 0,10.13 -8.22,18.35 -18.35,18.35 -10.14,0 -18.36,-8.22 -18.36,-18.35 0,-10.14 8.22,-18.37 18.36,-18.37 10.13,0 18.35,8.23 18.35,18.37" /><path
             id="path138"
             style="fill:#ed1e24;fill-opacity:1;fill-rule:nonzero;stroke:none"
             d="m 1163.56,4147.29 c 0,10.13 -8.22,18.35 -18.35,18.35 -10.14,0 -18.36,-8.22 -18.36,-18.35 0,-10.14 8.22,-18.37 18.36,-18.37 10.13,0 18.35,8.23 18.35,18.37 l 0,0" /><path
             id="path140"
             style="fill:none;stroke:#ed1e24;stroke-width:18.36000061;stroke-linecap:butt;stroke-linejoin:miter;stroke-miterlimit:10;stroke-dasharray:none;stroke-opacity:1"
             d="m 1163.56,4147.29 c 0,10.13 -8.22,18.35 -18.35,18.35 -10.14,0 -18.36,-8.22 -18.36,-18.35 0,-10.14 8.22,-18.37 18.36,-18.37 10.13,0 18.35,8.23 18.35,18.37" /><path
             id="path142"
             style="fill:#ed1e24;fill-opacity:1;fill-rule:nonzero;stroke:none"
             d="m 1254.76,4086.09 c 0,10.13 -8.23,18.36 -18.36,18.36 -10.14,0 -18.36,-8.23 -18.36,-18.36 0,-10.14 8.22,-18.36 18.36,-18.36 10.13,0 18.36,8.22 18.36,18.36 l 0,0" /><path
             id="path144"
             style="fill:none;stroke:#ed1e24;stroke-width:18.36000061;stroke-linecap:butt;stroke-linejoin:miter;stroke-miterlimit:10;stroke-dasharray:none;stroke-opacity:1"
             d="m 1254.76,4086.09 c 0,10.13 -8.23,18.36 -18.36,18.36 -10.14,0 -18.36,-8.23 -18.36,-18.36 0,-10.14 8.22,-18.36 18.36,-18.36 10.13,0 18.36,8.22 18.36,18.36" /><path
             id="path146"
             style="fill:#ed1e24;fill-opacity:1;fill-rule:nonzero;stroke:none"
             d="m 1345.97,4089.68 c 0,10.14 -8.24,18.36 -18.36,18.36 -10.14,0 -18.36,-8.22 -18.36,-18.36 0,-10.13 8.22,-18.36 18.36,-18.36 10.12,0 18.36,8.23 18.36,18.36 l 0,0" /><path
             id="path148"
             style="fill:none;stroke:#ed1e24;stroke-width:18.36000061;stroke-linecap:butt;stroke-linejoin:miter;stroke-miterlimit:10;stroke-dasharray:none;stroke-opacity:1"
             d="m 1345.97,4089.68 c 0,10.14 -8.24,18.36 -18.36,18.36 -10.14,0 -18.36,-8.22 -18.36,-18.36 0,-10.13 8.22,-18.36 18.36,-18.36 10.12,0 18.36,8.23 18.36,18.36" /><path
             id="path150"
             style="fill:#ed1e24;fill-opacity:1;fill-rule:nonzero;stroke:none"
             d="m 1527.16,3913.28 c 0,10.14 -8.22,18.36 -18.36,18.36 -10.14,0 -18.36,-8.22 -18.36,-18.36 0,-10.13 8.22,-18.36 18.36,-18.36 10.14,0 18.36,8.23 18.36,18.36 l 0,0" /><path
             id="path152"
             style="fill:none;stroke:#ed1e24;stroke-width:18.36000061;stroke-linecap:butt;stroke-linejoin:miter;stroke-miterlimit:10;stroke-dasharray:none;stroke-opacity:1"
             d="m 1527.16,3913.28 c 0,10.14 -8.22,18.36 -18.36,18.36 -10.14,0 -18.36,-8.22 -18.36,-18.36 0,-10.13 8.22,-18.36 18.36,-18.36 10.14,0 18.36,8.23 18.36,18.36" /><path
             id="path154"
             style="fill:#ed1e24;fill-opacity:1;fill-rule:nonzero;stroke:none"
             d="m 1708.36,3550.89 c 0,10.13 -8.22,18.35 -18.36,18.35 -10.13,0 -18.36,-8.22 -18.36,-18.35 0,-10.14 8.23,-18.37 18.36,-18.37 10.14,0 18.36,8.23 18.36,18.37 l 0,0" /><path
             id="path156"
             style="fill:none;stroke:#ed1e24;stroke-width:18.36000061;stroke-linecap:butt;stroke-linejoin:miter;stroke-miterlimit:10;stroke-dasharray:none;stroke-opacity:1"
             d="m 1708.36,3550.89 c 0,10.13 -8.22,18.35 -18.36,18.35 -10.13,0 -18.36,-8.22 -18.36,-18.35 0,-10.14 8.23,-18.37 18.36,-18.37 10.14,0 18.36,8.23 18.36,18.37" /><path
             id="path158"
             style="fill:#ed1e24;fill-opacity:1;fill-rule:nonzero;stroke:none"
             d="m 1889.56,3052.89 c 0,10.13 -8.22,18.36 -18.36,18.36 -10.14,0 -18.36,-8.23 -18.36,-18.36 0,-10.14 8.22,-18.36 18.36,-18.36 10.14,0 18.36,8.22 18.36,18.36 l 0,0" /><path
             id="path160"
             style="fill:none;stroke:#ed1e24;stroke-width:18.36000061;stroke-linecap:butt;stroke-linejoin:miter;stroke-miterlimit:10;stroke-dasharray:none;stroke-opacity:1"
             d="m 1889.56,3052.89 c 0,10.13 -8.22,18.36 -18.36,18.36 -10.14,0 -18.36,-8.23 -18.36,-18.36 0,-10.14 8.22,-18.36 18.36,-18.36 10.14,0 18.36,8.22 18.36,18.36" /><path
             id="path162"
             style="fill:#ed1e24;fill-opacity:1;fill-rule:nonzero;stroke:none"
             d="m 2251.96,2169.68 c 0,10.14 -8.22,18.36 -18.36,18.36 -10.13,0 -18.36,-8.22 -18.36,-18.36 0,-10.13 8.23,-18.36 18.36,-18.36 10.14,0 18.36,8.23 18.36,18.36 l 0,0" /><path
             id="path164"
             style="fill:none;stroke:#ed1e24;stroke-width:18.36000061;stroke-linecap:butt;stroke-linejoin:miter;stroke-miterlimit:10;stroke-dasharray:none;stroke-opacity:1"
             d="m 2251.96,2169.68 c 0,10.14 -8.22,18.36 -18.36,18.36 -10.13,0 -18.36,-8.22 -18.36,-18.36 0,-10.13 8.23,-18.36 18.36,-18.36 10.14,0 18.36,8.23 18.36,18.36" /><path
             id="path166"
             style="fill:#ed1e24;fill-opacity:1;fill-rule:nonzero;stroke:none"
             d="m 2615.55,1768.88 c 0,10.14 -8.22,18.36 -18.36,18.36 -10.13,0 -18.36,-8.22 -18.36,-18.36 0,-10.13 8.23,-18.36 18.36,-18.36 10.14,0 18.36,8.23 18.36,18.36 l 0,0" /><path
             id="path168"
             style="fill:none;stroke:#ed1e24;stroke-width:18.36000061;stroke-linecap:butt;stroke-linejoin:miter;stroke-miterlimit:10;stroke-dasharray:none;stroke-opacity:1"
             d="m 2615.55,1768.88 c 0,10.14 -8.22,18.36 -18.36,18.36 -10.13,0 -18.36,-8.22 -18.36,-18.36 0,-10.13 8.23,-18.36 18.36,-18.36 10.14,0 18.36,8.23 18.36,18.36" /><path
             id="path170"
             style="fill:#ed1e24;fill-opacity:1;fill-rule:nonzero;stroke:none"
             d="m 4428.75,1633.29 c 0,10.13 -8.22,18.36 -18.35,18.36 -10.14,0 -18.36,-8.23 -18.36,-18.36 0,-10.14 8.22,-18.36 18.36,-18.36 10.13,0 18.35,8.22 18.35,18.36 l 0,0" /><path
             id="path172"
             style="fill:none;stroke:#ed1e24;stroke-width:18.36000061;stroke-linecap:butt;stroke-linejoin:miter;stroke-miterlimit:10;stroke-dasharray:none;stroke-opacity:1"
             d="m 4428.75,1633.29 c 0,10.13 -8.22,18.36 -18.35,18.36 -10.14,0 -18.36,-8.23 -18.36,-18.36 0,-10.14 8.22,-18.36 18.36,-18.36 10.13,0 18.35,8.22 18.35,18.36" /><path
             id="path174"
             style="fill:none;stroke:#5fc232;stroke-width:22.6439991;stroke-linecap:butt;stroke-linejoin:miter;stroke-miterlimit:10;stroke-dasharray:22.644, 68.544;stroke-dashoffset:0;stroke-opacity:1"
             d="m 782.805,3799.04 362.905,-159.73 181.16,-81.4 181.76,-168.91 181.16,-199.51 181.15,-170.74 362.92,-554.48 362.9,-425.34 725.84,-316.4 1088.13,-217.26" /><path
             id="path176"
             style="fill:#5fc232;fill-opacity:1;fill-rule:nonzero;stroke:none"
             d="m 801.16,3799.28 c 0,10.14 -8.222,18.36 -18.355,18.36 -10.137,0 -18.364,-8.22 -18.364,-18.36 0,-10.13 8.227,-18.35 18.364,-18.35 10.133,0 18.355,8.22 18.355,18.35 l 0,0" /><path
             id="path178"
             style="fill:none;stroke:#5fc232;stroke-width:18.36000061;stroke-linecap:butt;stroke-linejoin:miter;stroke-miterlimit:10;stroke-dasharray:none;stroke-opacity:1"
             d="m 801.16,3799.28 c 0,10.14 -8.222,18.36 -18.355,18.36 -10.137,0 -18.364,-8.22 -18.364,-18.36 0,-10.13 8.227,-18.35 18.364,-18.35 10.133,0 18.355,8.22 18.355,18.35" /><path
             id="path180"
             style="fill:#5fc232;fill-opacity:1;fill-rule:nonzero;stroke:none"
             d="m 1163.56,3638.48 c 0,10.14 -8.22,18.36 -18.35,18.36 -10.14,0 -18.36,-8.22 -18.36,-18.36 0,-10.14 8.22,-18.36 18.36,-18.36 10.13,0 18.35,8.22 18.35,18.36 l 0,0" /><path
             id="path182"
             style="fill:none;stroke:#5fc232;stroke-width:18.36000061;stroke-linecap:butt;stroke-linejoin:miter;stroke-miterlimit:10;stroke-dasharray:none;stroke-opacity:1"
             d="m 1163.56,3638.48 c 0,10.14 -8.22,18.36 -18.35,18.36 -10.14,0 -18.36,-8.22 -18.36,-18.36 0,-10.14 8.22,-18.36 18.36,-18.36 10.13,0 18.35,8.22 18.35,18.36" /><path
             id="path184"
             style="fill:#5fc232;fill-opacity:1;fill-rule:nonzero;stroke:none"
             d="m 1345.97,3558.08 c 0,10.14 -8.24,18.36 -18.36,18.36 -10.14,0 -18.36,-8.22 -18.36,-18.36 0,-10.13 8.22,-18.36 18.36,-18.36 10.12,0 18.36,8.23 18.36,18.36 l 0,0" /><path
             id="path186"
             style="fill:none;stroke:#5fc232;stroke-width:18.36000061;stroke-linecap:butt;stroke-linejoin:miter;stroke-miterlimit:10;stroke-dasharray:none;stroke-opacity:1"
             d="m 1345.97,3558.08 c 0,10.14 -8.24,18.36 -18.36,18.36 -10.14,0 -18.36,-8.22 -18.36,-18.36 0,-10.13 8.22,-18.36 18.36,-18.36 10.12,0 18.36,8.23 18.36,18.36" /><path
             id="path188"
             style="fill:#5fc232;fill-opacity:1;fill-rule:nonzero;stroke:none"
             d="m 1527.16,3388.88 c 0,10.14 -8.22,18.36 -18.36,18.36 -10.14,0 -18.36,-8.22 -18.36,-18.36 0,-10.13 8.22,-18.36 18.36,-18.36 10.14,0 18.36,8.23 18.36,18.36 l 0,0" /><path
             id="path190"
             style="fill:none;stroke:#5fc232;stroke-width:18.36000061;stroke-linecap:butt;stroke-linejoin:miter;stroke-miterlimit:10;stroke-dasharray:none;stroke-opacity:1"
             d="m 1527.16,3388.88 c 0,10.14 -8.22,18.36 -18.36,18.36 -10.14,0 -18.36,-8.22 -18.36,-18.36 0,-10.13 8.22,-18.36 18.36,-18.36 10.14,0 18.36,8.23 18.36,18.36" /><path
             id="path192"
             style="fill:#5fc232;fill-opacity:1;fill-rule:nonzero;stroke:none"
             d="m 1708.36,3189.68 c 0,10.14 -8.22,18.36 -18.36,18.36 -10.13,0 -18.36,-8.22 -18.36,-18.36 0,-10.13 8.23,-18.36 18.36,-18.36 10.14,0 18.36,8.23 18.36,18.36 l 0,0" /><path
             id="path194"
             style="fill:none;stroke:#5fc232;stroke-width:18.36000061;stroke-linecap:butt;stroke-linejoin:miter;stroke-miterlimit:10;stroke-dasharray:none;stroke-opacity:1"
             d="m 1708.36,3189.68 c 0,10.14 -8.22,18.36 -18.36,18.36 -10.13,0 -18.36,-8.22 -18.36,-18.36 0,-10.13 8.23,-18.36 18.36,-18.36 10.14,0 18.36,8.23 18.36,18.36" /><path
             id="path196"
             style="fill:#5fc232;fill-opacity:1;fill-rule:nonzero;stroke:none"
             d="m 1889.56,3019.28 c 0,10.14 -8.22,18.36 -18.36,18.36 -10.14,0 -18.36,-8.22 -18.36,-18.36 0,-10.13 8.22,-18.36 18.36,-18.36 10.14,0 18.36,8.23 18.36,18.36 l 0,0" /><path
             id="path198"
             style="fill:none;stroke:#5fc232;stroke-width:18.36000061;stroke-linecap:butt;stroke-linejoin:miter;stroke-miterlimit:10;stroke-dasharray:none;stroke-opacity:1"
             d="m 1889.56,3019.28 c 0,10.14 -8.22,18.36 -18.36,18.36 -10.14,0 -18.36,-8.22 -18.36,-18.36 0,-10.13 8.22,-18.36 18.36,-18.36 10.14,0 18.36,8.23 18.36,18.36" /><path
             id="path200"
             style="fill:#5fc232;fill-opacity:1;fill-rule:nonzero;stroke:none"
             d="m 2251.96,2464.89 c 0,10.13 -8.22,18.36 -18.36,18.36 -10.13,0 -18.36,-8.23 -18.36,-18.36 0,-10.14 8.23,-18.36 18.36,-18.36 10.14,0 18.36,8.22 18.36,18.36 l 0,0" /><path
             id="path202"
             style="fill:none;stroke:#5fc232;stroke-width:18.36000061;stroke-linecap:butt;stroke-linejoin:miter;stroke-miterlimit:10;stroke-dasharray:none;stroke-opacity:1"
             d="m 2251.96,2464.89 c 0,10.13 -8.22,18.36 -18.36,18.36 -10.13,0 -18.36,-8.23 -18.36,-18.36 0,-10.14 8.23,-18.36 18.36,-18.36 10.14,0 18.36,8.22 18.36,18.36" /><path
             id="path204"
             style="fill:#5fc232;fill-opacity:1;fill-rule:nonzero;stroke:none"
             d="m 2615.55,2038.88 c 0,10.14 -8.22,18.36 -18.36,18.36 -10.13,0 -18.36,-8.22 -18.36,-18.36 0,-10.13 8.23,-18.36 18.36,-18.36 10.14,0 18.36,8.23 18.36,18.36 l 0,0" /><path
             id="path206"
             style="fill:none;stroke:#5fc232;stroke-width:18.36000061;stroke-linecap:butt;stroke-linejoin:miter;stroke-miterlimit:10;stroke-dasharray:none;stroke-opacity:1"
             d="m 2615.55,2038.88 c 0,10.14 -8.22,18.36 -18.36,18.36 -10.13,0 -18.36,-8.22 -18.36,-18.36 0,-10.13 8.23,-18.36 18.36,-18.36 10.14,0 18.36,8.23 18.36,18.36" /><path
             id="path208"
             style="fill:#5fc232;fill-opacity:1;fill-rule:nonzero;stroke:none"
             d="m 3340.36,1723.29 c 0,10.13 -8.23,18.36 -18.36,18.36 -10.14,0 -18.36,-8.23 -18.36,-18.36 0,-10.14 8.22,-18.36 18.36,-18.36 10.13,0 18.36,8.22 18.36,18.36 l 0,0" /><path
             id="path210"
             style="fill:none;stroke:#5fc232;stroke-width:18.36000061;stroke-linecap:butt;stroke-linejoin:miter;stroke-miterlimit:10;stroke-dasharray:none;stroke-opacity:1"
             d="m 3340.36,1723.29 c 0,10.13 -8.23,18.36 -18.36,18.36 -10.14,0 -18.36,-8.23 -18.36,-18.36 0,-10.14 8.22,-18.36 18.36,-18.36 10.13,0 18.36,8.22 18.36,18.36" /><path
             id="path212"
             style="fill:#5fc232;fill-opacity:1;fill-rule:nonzero;stroke:none"
             d="m 4428.75,1504.89 c 0,10.13 -8.22,18.36 -18.35,18.36 -10.14,0 -18.36,-8.23 -18.36,-18.36 0,-10.14 8.22,-18.37 18.36,-18.37 10.13,0 18.35,8.23 18.35,18.37 l 0,0" /><path
             id="path214"
             style="fill:none;stroke:#5fc232;stroke-width:18.36000061;stroke-linecap:butt;stroke-linejoin:miter;stroke-miterlimit:10;stroke-dasharray:none;stroke-opacity:1"
             d="m 4428.75,1504.89 c 0,10.13 -8.22,18.36 -18.35,18.36 -10.14,0 -18.36,-8.23 -18.36,-18.36 0,-10.14 8.22,-18.37 18.36,-18.37 10.13,0 18.35,8.23 18.35,18.37" /></g></g></g></g></svg>