<?xml version="1.0" encoding="utf-8" standalone="no"?>
<!DOCTYPE svg PUBLIC "-//W3C//DTD SVG 1.1//EN"
  "http://www.w3.org/Graphics/SVG/1.1/DTD/svg11.dtd">
<!-- Created with matplotlib (http://matplotlib.org/) -->
<svg height="93pt" version="1.1" viewBox="0 0 288 93" width="288pt" xmlns="http://www.w3.org/2000/svg" xmlns:xlink="http://www.w3.org/1999/xlink">
 <defs>
  <style type="text/css">
*{stroke-linecap:butt;stroke-linejoin:round;stroke-miterlimit:100000;}
  </style>
 </defs>
 <g id="figure_1">
  <g id="patch_1">
   <path d="M 0 93.6 
L 288 93.6 
L 288 0 
L 0 0 
z
" style="fill:#ffffff;"/>
  </g>
  <g id="axes_1">
   <g id="QuadMesh_1">
    <path clip-path="url(#p5d2f273c4e)" d="M 0 91.107692 
L 7.384615 91.107692 
L 7.384615 83.723077 
L 0 83.723077 
L 0 91.107692 
" style="fill:#ffffff;"/>
    <path clip-path="url(#p5d2f273c4e)" d="M 7.384615 91.107692 
L 14.769231 91.107692 
L 14.769231 83.723077 
L 7.384615 83.723077 
L 7.384615 91.107692 
" style="fill:#ffffff;"/>
    <path clip-path="url(#p5d2f273c4e)" d="M 14.769231 91.107692 
L 22.153846 91.107692 
L 22.153846 83.723077 
L 14.769231 83.723077 
L 14.769231 91.107692 
" style="fill:#ffffff;"/>
    <path clip-path="url(#p5d2f273c4e)" d="M 22.153846 91.107692 
L 29.538462 91.107692 
L 29.538462 83.723077 
L 22.153846 83.723077 
L 22.153846 91.107692 
" style="fill:#ffffff;"/>
    <path clip-path="url(#p5d2f273c4e)" d="M 29.538462 91.107692 
L 36.923077 91.107692 
L 36.923077 83.723077 
L 29.538462 83.723077 
L 29.538462 91.107692 
" style="fill:#fffff9;"/>
    <path clip-path="url(#p5d2f273c4e)" d="M 36.923077 91.107692 
L 44.307692 91.107692 
L 44.307692 83.723077 
L 36.923077 83.723077 
L 36.923077 91.107692 
" style="fill:#ffffff;"/>
    <path clip-path="url(#p5d2f273c4e)" d="M 44.307692 91.107692 
L 51.692308 91.107692 
L 51.692308 83.723077 
L 44.307692 83.723077 
L 44.307692 91.107692 
" style="fill:#ffffe5;"/>
    <path clip-path="url(#p5d2f273c4e)" d="M 51.692308 91.107692 
L 59.076923 91.107692 
L 59.076923 83.723077 
L 51.692308 83.723077 
L 51.692308 91.107692 
" style="fill:#fffff3;"/>
    <path clip-path="url(#p5d2f273c4e)" d="M 59.076923 91.107692 
L 66.461538 91.107692 
L 66.461538 83.723077 
L 59.076923 83.723077 
L 59.076923 91.107692 
" style="fill:#fffff9;"/>
    <path clip-path="url(#p5d2f273c4e)" d="M 66.461538 91.107692 
L 73.846154 91.107692 
L 73.846154 83.723077 
L 66.461538 83.723077 
L 66.461538 91.107692 
" style="fill:#fffff3;"/>
    <path clip-path="url(#p5d2f273c4e)" d="M 73.846154 91.107692 
L 81.230769 91.107692 
L 81.230769 83.723077 
L 73.846154 83.723077 
L 73.846154 91.107692 
" style="fill:#ffffe5;"/>
    <path clip-path="url(#p5d2f273c4e)" d="M 81.230769 91.107692 
L 88.615385 91.107692 
L 88.615385 83.723077 
L 81.230769 83.723077 
L 81.230769 91.107692 
" style="fill:#fffff9;"/>
    <path clip-path="url(#p5d2f273c4e)" d="M 88.615385 91.107692 
L 96 91.107692 
L 96 83.723077 
L 88.615385 83.723077 
L 88.615385 91.107692 
" style="fill:#fffff9;"/>
    <path clip-path="url(#p5d2f273c4e)" d="M 96 91.107692 
L 103.384615 91.107692 
L 103.384615 83.723077 
L 96 83.723077 
L 96 91.107692 
" style="fill:#ffffe5;"/>
    <path clip-path="url(#p5d2f273c4e)" d="M 103.384615 91.107692 
L 110.769231 91.107692 
L 110.769231 83.723077 
L 103.384615 83.723077 
L 103.384615 91.107692 
" style="fill:#ffffe5;"/>
    <path clip-path="url(#p5d2f273c4e)" d="M 110.769231 91.107692 
L 118.153846 91.107692 
L 118.153846 83.723077 
L 110.769231 83.723077 
L 110.769231 91.107692 
" style="fill:#fffff9;"/>
    <path clip-path="url(#p5d2f273c4e)" d="M 118.153846 91.107692 
L 125.538462 91.107692 
L 125.538462 83.723077 
L 118.153846 83.723077 
L 118.153846 91.107692 
" style="fill:#ffffed;"/>
    <path clip-path="url(#p5d2f273c4e)" d="M 125.538462 91.107692 
L 132.923077 91.107692 
L 132.923077 83.723077 
L 125.538462 83.723077 
L 125.538462 91.107692 
" style="fill:#fffff9;"/>
    <path clip-path="url(#p5d2f273c4e)" d="M 132.923077 91.107692 
L 140.307692 91.107692 
L 140.307692 83.723077 
L 132.923077 83.723077 
L 132.923077 91.107692 
" style="fill:#ffffed;"/>
    <path clip-path="url(#p5d2f273c4e)" d="M 140.307692 91.107692 
L 147.692308 91.107692 
L 147.692308 83.723077 
L 140.307692 83.723077 
L 140.307692 91.107692 
" style="fill:#ffffff;"/>
    <path clip-path="url(#p5d2f273c4e)" d="M 147.692308 91.107692 
L 155.076923 91.107692 
L 155.076923 83.723077 
L 147.692308 83.723077 
L 147.692308 91.107692 
" style="fill:#ffffdf;"/>
    <path clip-path="url(#p5d2f273c4e)" d="M 155.076923 91.107692 
L 162.461538 91.107692 
L 162.461538 83.723077 
L 155.076923 83.723077 
L 155.076923 91.107692 
" style="fill:#ffffe5;"/>
    <path clip-path="url(#p5d2f273c4e)" d="M 162.461538 91.107692 
L 169.846154 91.107692 
L 169.846154 83.723077 
L 162.461538 83.723077 
L 162.461538 91.107692 
" style="fill:#ffffff;"/>
    <path clip-path="url(#p5d2f273c4e)" d="M 169.846154 91.107692 
L 177.230769 91.107692 
L 177.230769 83.723077 
L 169.846154 83.723077 
L 169.846154 91.107692 
" style="fill:#ffffff;"/>
    <path clip-path="url(#p5d2f273c4e)" d="M 177.230769 91.107692 
L 184.615385 91.107692 
L 184.615385 83.723077 
L 177.230769 83.723077 
L 177.230769 91.107692 
" style="fill:#ffffe5;"/>
    <path clip-path="url(#p5d2f273c4e)" d="M 184.615385 91.107692 
L 192 91.107692 
L 192 83.723077 
L 184.615385 83.723077 
L 184.615385 91.107692 
" style="fill:#ffffed;"/>
    <path clip-path="url(#p5d2f273c4e)" d="M 192 91.107692 
L 199.384615 91.107692 
L 199.384615 83.723077 
L 192 83.723077 
L 192 91.107692 
" style="fill:#ffffed;"/>
    <path clip-path="url(#p5d2f273c4e)" d="M 199.384615 91.107692 
L 206.769231 91.107692 
L 206.769231 83.723077 
L 199.384615 83.723077 
L 199.384615 91.107692 
" style="fill:#ffffe5;"/>
    <path clip-path="url(#p5d2f273c4e)" d="M 206.769231 91.107692 
L 214.153846 91.107692 
L 214.153846 83.723077 
L 206.769231 83.723077 
L 206.769231 91.107692 
" style="fill:#fffff3;"/>
    <path clip-path="url(#p5d2f273c4e)" d="M 214.153846 91.107692 
L 221.538462 91.107692 
L 221.538462 83.723077 
L 214.153846 83.723077 
L 214.153846 91.107692 
" style="fill:#ffffe5;"/>
    <path clip-path="url(#p5d2f273c4e)" d="M 221.538462 91.107692 
L 228.923077 91.107692 
L 228.923077 83.723077 
L 221.538462 83.723077 
L 221.538462 91.107692 
" style="fill:#ffffed;"/>
    <path clip-path="url(#p5d2f273c4e)" d="M 228.923077 91.107692 
L 236.307692 91.107692 
L 236.307692 83.723077 
L 228.923077 83.723077 
L 228.923077 91.107692 
" style="fill:#fffff3;"/>
    <path clip-path="url(#p5d2f273c4e)" d="M 236.307692 91.107692 
L 243.692308 91.107692 
L 243.692308 83.723077 
L 236.307692 83.723077 
L 236.307692 91.107692 
" style="fill:#ffffed;"/>
    <path clip-path="url(#p5d2f273c4e)" d="M 243.692308 91.107692 
L 251.076923 91.107692 
L 251.076923 83.723077 
L 243.692308 83.723077 
L 243.692308 91.107692 
" style="fill:#ffffff;"/>
    <path clip-path="url(#p5d2f273c4e)" d="M 251.076923 91.107692 
L 258.461538 91.107692 
L 258.461538 83.723077 
L 251.076923 83.723077 
L 251.076923 91.107692 
" style="fill:#fffff9;"/>
    <path clip-path="url(#p5d2f273c4e)" d="M 258.461538 91.107692 
L 265.846154 91.107692 
L 265.846154 83.723077 
L 258.461538 83.723077 
L 258.461538 91.107692 
" style="fill:#fffff9;"/>
    <path clip-path="url(#p5d2f273c4e)" d="M 265.846154 91.107692 
L 273.230769 91.107692 
L 273.230769 83.723077 
L 265.846154 83.723077 
L 265.846154 91.107692 
" style="fill:#ffffff;"/>
    <path clip-path="url(#p5d2f273c4e)" d="M 273.230769 91.107692 
L 280.615385 91.107692 
L 280.615385 83.723077 
L 273.230769 83.723077 
L 273.230769 91.107692 
" style="fill:#ffffff;"/>
    <path clip-path="url(#p5d2f273c4e)" d="M 280.615385 91.107692 
L 288 91.107692 
L 288 83.723077 
L 280.615385 83.723077 
L 280.615385 91.107692 
" style="fill:#ffffff;"/>
    <path clip-path="url(#p5d2f273c4e)" d="M 0 83.723077 
L 7.384615 83.723077 
L 7.384615 76.338462 
L 0 76.338462 
L 0 83.723077 
" style="fill:#ffffff;"/>
    <path clip-path="url(#p5d2f273c4e)" d="M 7.384615 83.723077 
L 14.769231 83.723077 
L 14.769231 76.338462 
L 7.384615 76.338462 
L 7.384615 83.723077 
" style="fill:#fffff9;"/>
    <path clip-path="url(#p5d2f273c4e)" d="M 14.769231 83.723077 
L 22.153846 83.723077 
L 22.153846 76.338462 
L 14.769231 76.338462 
L 14.769231 83.723077 
" style="fill:#fffff9;"/>
    <path clip-path="url(#p5d2f273c4e)" d="M 22.153846 83.723077 
L 29.538462 83.723077 
L 29.538462 76.338462 
L 22.153846 76.338462 
L 22.153846 83.723077 
" style="fill:#fffff3;"/>
    <path clip-path="url(#p5d2f273c4e)" d="M 29.538462 83.723077 
L 36.923077 83.723077 
L 36.923077 76.338462 
L 29.538462 76.338462 
L 29.538462 83.723077 
" style="fill:#ffffed;"/>
    <path clip-path="url(#p5d2f273c4e)" d="M 36.923077 83.723077 
L 44.307692 83.723077 
L 44.307692 76.338462 
L 36.923077 76.338462 
L 36.923077 83.723077 
" style="fill:#ffffd3;"/>
    <path clip-path="url(#p5d2f273c4e)" d="M 44.307692 83.723077 
L 51.692308 83.723077 
L 51.692308 76.338462 
L 44.307692 76.338462 
L 44.307692 83.723077 
" style="fill:#ffffd9;"/>
    <path clip-path="url(#p5d2f273c4e)" d="M 51.692308 83.723077 
L 59.076923 83.723077 
L 59.076923 76.338462 
L 51.692308 76.338462 
L 51.692308 83.723077 
" style="fill:#ffffe5;"/>
    <path clip-path="url(#p5d2f273c4e)" d="M 59.076923 83.723077 
L 66.461538 83.723077 
L 66.461538 76.338462 
L 59.076923 76.338462 
L 59.076923 83.723077 
" style="fill:#ffffdf;"/>
    <path clip-path="url(#p5d2f273c4e)" d="M 66.461538 83.723077 
L 73.846154 83.723077 
L 73.846154 76.338462 
L 66.461538 76.338462 
L 66.461538 83.723077 
" style="fill:#ffffcb;"/>
    <path clip-path="url(#p5d2f273c4e)" d="M 73.846154 83.723077 
L 81.230769 83.723077 
L 81.230769 76.338462 
L 73.846154 76.338462 
L 73.846154 83.723077 
" style="fill:#ffffdf;"/>
    <path clip-path="url(#p5d2f273c4e)" d="M 81.230769 83.723077 
L 88.615385 83.723077 
L 88.615385 76.338462 
L 81.230769 76.338462 
L 81.230769 83.723077 
" style="fill:#fffff3;"/>
    <path clip-path="url(#p5d2f273c4e)" d="M 88.615385 83.723077 
L 96 83.723077 
L 96 76.338462 
L 88.615385 76.338462 
L 88.615385 83.723077 
" style="fill:#ffffed;"/>
    <path clip-path="url(#p5d2f273c4e)" d="M 96 83.723077 
L 103.384615 83.723077 
L 103.384615 76.338462 
L 96 76.338462 
L 96 83.723077 
" style="fill:#ffffc5;"/>
    <path clip-path="url(#p5d2f273c4e)" d="M 103.384615 83.723077 
L 110.769231 83.723077 
L 110.769231 76.338462 
L 103.384615 76.338462 
L 103.384615 83.723077 
" style="fill:#fffff9;"/>
    <path clip-path="url(#p5d2f273c4e)" d="M 110.769231 83.723077 
L 118.153846 83.723077 
L 118.153846 76.338462 
L 110.769231 76.338462 
L 110.769231 83.723077 
" style="fill:#ffffe5;"/>
    <path clip-path="url(#p5d2f273c4e)" d="M 118.153846 83.723077 
L 125.538462 83.723077 
L 125.538462 76.338462 
L 118.153846 76.338462 
L 118.153846 83.723077 
" style="fill:#ffffdf;"/>
    <path clip-path="url(#p5d2f273c4e)" d="M 125.538462 83.723077 
L 132.923077 83.723077 
L 132.923077 76.338462 
L 125.538462 76.338462 
L 125.538462 83.723077 
" style="fill:#ffffd9;"/>
    <path clip-path="url(#p5d2f273c4e)" d="M 132.923077 83.723077 
L 140.307692 83.723077 
L 140.307692 76.338462 
L 132.923077 76.338462 
L 132.923077 83.723077 
" style="fill:#ffffdf;"/>
    <path clip-path="url(#p5d2f273c4e)" d="M 140.307692 83.723077 
L 147.692308 83.723077 
L 147.692308 76.338462 
L 140.307692 76.338462 
L 140.307692 83.723077 
" style="fill:#ffffed;"/>
    <path clip-path="url(#p5d2f273c4e)" d="M 147.692308 83.723077 
L 155.076923 83.723077 
L 155.076923 76.338462 
L 147.692308 76.338462 
L 147.692308 83.723077 
" style="fill:#ffffe5;"/>
    <path clip-path="url(#p5d2f273c4e)" d="M 155.076923 83.723077 
L 162.461538 83.723077 
L 162.461538 76.338462 
L 155.076923 76.338462 
L 155.076923 83.723077 
" style="fill:#ffffdf;"/>
    <path clip-path="url(#p5d2f273c4e)" d="M 162.461538 83.723077 
L 169.846154 83.723077 
L 169.846154 76.338462 
L 162.461538 76.338462 
L 162.461538 83.723077 
" style="fill:#ffffed;"/>
    <path clip-path="url(#p5d2f273c4e)" d="M 169.846154 83.723077 
L 177.230769 83.723077 
L 177.230769 76.338462 
L 169.846154 76.338462 
L 169.846154 83.723077 
" style="fill:#ffffbf;"/>
    <path clip-path="url(#p5d2f273c4e)" d="M 177.230769 83.723077 
L 184.615385 83.723077 
L 184.615385 76.338462 
L 177.230769 76.338462 
L 177.230769 83.723077 
" style="fill:#ffffcb;"/>
    <path clip-path="url(#p5d2f273c4e)" d="M 184.615385 83.723077 
L 192 83.723077 
L 192 76.338462 
L 184.615385 76.338462 
L 184.615385 83.723077 
" style="fill:#ffffd9;"/>
    <path clip-path="url(#p5d2f273c4e)" d="M 192 83.723077 
L 199.384615 83.723077 
L 199.384615 76.338462 
L 192 76.338462 
L 192 83.723077 
" style="fill:#fffff3;"/>
    <path clip-path="url(#p5d2f273c4e)" d="M 199.384615 83.723077 
L 206.769231 83.723077 
L 206.769231 76.338462 
L 199.384615 76.338462 
L 199.384615 83.723077 
" style="fill:#ffffd3;"/>
    <path clip-path="url(#p5d2f273c4e)" d="M 206.769231 83.723077 
L 214.153846 83.723077 
L 214.153846 76.338462 
L 206.769231 76.338462 
L 206.769231 83.723077 
" style="fill:#ffffed;"/>
    <path clip-path="url(#p5d2f273c4e)" d="M 214.153846 83.723077 
L 221.538462 83.723077 
L 221.538462 76.338462 
L 214.153846 76.338462 
L 214.153846 83.723077 
" style="fill:#ffffd3;"/>
    <path clip-path="url(#p5d2f273c4e)" d="M 221.538462 83.723077 
L 228.923077 83.723077 
L 228.923077 76.338462 
L 221.538462 76.338462 
L 221.538462 83.723077 
" style="fill:#ffffdf;"/>
    <path clip-path="url(#p5d2f273c4e)" d="M 228.923077 83.723077 
L 236.307692 83.723077 
L 236.307692 76.338462 
L 228.923077 76.338462 
L 228.923077 83.723077 
" style="fill:#ffffe5;"/>
    <path clip-path="url(#p5d2f273c4e)" d="M 236.307692 83.723077 
L 243.692308 83.723077 
L 243.692308 76.338462 
L 236.307692 76.338462 
L 236.307692 83.723077 
" style="fill:#ffffdf;"/>
    <path clip-path="url(#p5d2f273c4e)" d="M 243.692308 83.723077 
L 251.076923 83.723077 
L 251.076923 76.338462 
L 243.692308 76.338462 
L 243.692308 83.723077 
" style="fill:#ffffd9;"/>
    <path clip-path="url(#p5d2f273c4e)" d="M 251.076923 83.723077 
L 258.461538 83.723077 
L 258.461538 76.338462 
L 251.076923 76.338462 
L 251.076923 83.723077 
" style="fill:#ffffe5;"/>
    <path clip-path="url(#p5d2f273c4e)" d="M 258.461538 83.723077 
L 265.846154 83.723077 
L 265.846154 76.338462 
L 258.461538 76.338462 
L 258.461538 83.723077 
" style="fill:#ffffe5;"/>
    <path clip-path="url(#p5d2f273c4e)" d="M 265.846154 83.723077 
L 273.230769 83.723077 
L 273.230769 76.338462 
L 265.846154 76.338462 
L 265.846154 83.723077 
" style="fill:#fffff3;"/>
    <path clip-path="url(#p5d2f273c4e)" d="M 273.230769 83.723077 
L 280.615385 83.723077 
L 280.615385 76.338462 
L 273.230769 76.338462 
L 273.230769 83.723077 
" style="fill:#fffff9;"/>
    <path clip-path="url(#p5d2f273c4e)" d="M 280.615385 83.723077 
L 288 83.723077 
L 288 76.338462 
L 280.615385 76.338462 
L 280.615385 83.723077 
" style="fill:#ffffff;"/>
    <path clip-path="url(#p5d2f273c4e)" d="M 0 76.338462 
L 7.384615 76.338462 
L 7.384615 68.953846 
L 0 68.953846 
L 0 76.338462 
" style="fill:#ffffff;"/>
    <path clip-path="url(#p5d2f273c4e)" d="M 7.384615 76.338462 
L 14.769231 76.338462 
L 14.769231 68.953846 
L 7.384615 68.953846 
L 7.384615 76.338462 
" style="fill:#ffffff;"/>
    <path clip-path="url(#p5d2f273c4e)" d="M 14.769231 76.338462 
L 22.153846 76.338462 
L 22.153846 68.953846 
L 14.769231 68.953846 
L 14.769231 76.338462 
" style="fill:#ffffd9;"/>
    <path clip-path="url(#p5d2f273c4e)" d="M 22.153846 76.338462 
L 29.538462 76.338462 
L 29.538462 68.953846 
L 22.153846 68.953846 
L 22.153846 76.338462 
" style="fill:#ffffed;"/>
    <path clip-path="url(#p5d2f273c4e)" d="M 29.538462 76.338462 
L 36.923077 76.338462 
L 36.923077 68.953846 
L 29.538462 68.953846 
L 29.538462 76.338462 
" style="fill:#ffff83;"/>
    <path clip-path="url(#p5d2f273c4e)" d="M 36.923077 76.338462 
L 44.307692 76.338462 
L 44.307692 68.953846 
L 36.923077 68.953846 
L 36.923077 76.338462 
" style="fill:#ffc041;"/>
    <path clip-path="url(#p5d2f273c4e)" d="M 44.307692 76.338462 
L 51.692308 76.338462 
L 51.692308 68.953846 
L 44.307692 68.953846 
L 44.307692 76.338462 
" style="fill:#ffff89;"/>
    <path clip-path="url(#p5d2f273c4e)" d="M 51.692308 76.338462 
L 59.076923 76.338462 
L 59.076923 68.953846 
L 51.692308 68.953846 
L 51.692308 76.338462 
" style="fill:#ffff97;"/>
    <path clip-path="url(#p5d2f273c4e)" d="M 59.076923 76.338462 
L 66.461538 76.338462 
L 66.461538 68.953846 
L 59.076923 68.953846 
L 59.076923 76.338462 
" style="fill:#fff777;"/>
    <path clip-path="url(#p5d2f273c4e)" d="M 66.461538 76.338462 
L 73.846154 76.338462 
L 73.846154 68.953846 
L 66.461538 68.953846 
L 66.461538 76.338462 
" style="fill:#ffe263;"/>
    <path clip-path="url(#p5d2f273c4e)" d="M 73.846154 76.338462 
L 81.230769 76.338462 
L 81.230769 68.953846 
L 73.846154 68.953846 
L 73.846154 76.338462 
" style="fill:#ffff91;"/>
    <path clip-path="url(#p5d2f273c4e)" d="M 81.230769 76.338462 
L 88.615385 76.338462 
L 88.615385 68.953846 
L 81.230769 68.953846 
L 81.230769 76.338462 
" style="fill:#ffffcb;"/>
    <path clip-path="url(#p5d2f273c4e)" d="M 88.615385 76.338462 
L 96 76.338462 
L 96 68.953846 
L 88.615385 68.953846 
L 88.615385 76.338462 
" style="fill:#ffffb1;"/>
    <path clip-path="url(#p5d2f273c4e)" d="M 96 76.338462 
L 103.384615 76.338462 
L 103.384615 68.953846 
L 96 68.953846 
L 96 76.338462 
" style="fill:#ffff83;"/>
    <path clip-path="url(#p5d2f273c4e)" d="M 103.384615 76.338462 
L 110.769231 76.338462 
L 110.769231 68.953846 
L 103.384615 68.953846 
L 103.384615 76.338462 
" style="fill:#ffff89;"/>
    <path clip-path="url(#p5d2f273c4e)" d="M 110.769231 76.338462 
L 118.153846 76.338462 
L 118.153846 68.953846 
L 110.769231 68.953846 
L 110.769231 76.338462 
" style="fill:#fffc7d;"/>
    <path clip-path="url(#p5d2f273c4e)" d="M 118.153846 76.338462 
L 125.538462 76.338462 
L 125.538462 68.953846 
L 118.153846 68.953846 
L 118.153846 76.338462 
" style="fill:#ffffbf;"/>
    <path clip-path="url(#p5d2f273c4e)" d="M 125.538462 76.338462 
L 132.923077 76.338462 
L 132.923077 68.953846 
L 125.538462 68.953846 
L 125.538462 76.338462 
" style="fill:#ffff83;"/>
    <path clip-path="url(#p5d2f273c4e)" d="M 132.923077 76.338462 
L 140.307692 76.338462 
L 140.307692 68.953846 
L 132.923077 68.953846 
L 132.923077 76.338462 
" style="fill:#ffffb1;"/>
    <path clip-path="url(#p5d2f273c4e)" d="M 140.307692 76.338462 
L 147.692308 76.338462 
L 147.692308 68.953846 
L 140.307692 68.953846 
L 140.307692 76.338462 
" style="fill:#ffff9d;"/>
    <path clip-path="url(#p5d2f273c4e)" d="M 147.692308 76.338462 
L 155.076923 76.338462 
L 155.076923 68.953846 
L 147.692308 68.953846 
L 147.692308 76.338462 
" style="fill:#ffffa5;"/>
    <path clip-path="url(#p5d2f273c4e)" d="M 155.076923 76.338462 
L 162.461538 76.338462 
L 162.461538 68.953846 
L 155.076923 68.953846 
L 155.076923 76.338462 
" style="fill:#ffffab;"/>
    <path clip-path="url(#p5d2f273c4e)" d="M 162.461538 76.338462 
L 169.846154 76.338462 
L 169.846154 68.953846 
L 162.461538 68.953846 
L 162.461538 76.338462 
" style="fill:#ffff89;"/>
    <path clip-path="url(#p5d2f273c4e)" d="M 169.846154 76.338462 
L 177.230769 76.338462 
L 177.230769 68.953846 
L 169.846154 68.953846 
L 169.846154 76.338462 
" style="fill:#ffffab;"/>
    <path clip-path="url(#p5d2f273c4e)" d="M 177.230769 76.338462 
L 184.615385 76.338462 
L 184.615385 68.953846 
L 177.230769 68.953846 
L 177.230769 76.338462 
" style="fill:#fff777;"/>
    <path clip-path="url(#p5d2f273c4e)" d="M 184.615385 76.338462 
L 192 76.338462 
L 192 68.953846 
L 184.615385 68.953846 
L 184.615385 76.338462 
" style="fill:#ffff83;"/>
    <path clip-path="url(#p5d2f273c4e)" d="M 192 76.338462 
L 199.384615 76.338462 
L 199.384615 68.953846 
L 192 68.953846 
L 192 76.338462 
" style="fill:#fff777;"/>
    <path clip-path="url(#p5d2f273c4e)" d="M 199.384615 76.338462 
L 206.769231 76.338462 
L 206.769231 68.953846 
L 199.384615 68.953846 
L 199.384615 76.338462 
" style="fill:#ffdb5b;"/>
    <path clip-path="url(#p5d2f273c4e)" d="M 206.769231 76.338462 
L 214.153846 76.338462 
L 214.153846 68.953846 
L 206.769231 68.953846 
L 206.769231 76.338462 
" style="fill:#fffc7d;"/>
    <path clip-path="url(#p5d2f273c4e)" d="M 214.153846 76.338462 
L 221.538462 76.338462 
L 221.538462 68.953846 
L 214.153846 68.953846 
L 214.153846 76.338462 
" style="fill:#ffff9d;"/>
    <path clip-path="url(#p5d2f273c4e)" d="M 221.538462 76.338462 
L 228.923077 76.338462 
L 228.923077 68.953846 
L 221.538462 68.953846 
L 221.538462 76.338462 
" style="fill:#fffc7d;"/>
    <path clip-path="url(#p5d2f273c4e)" d="M 228.923077 76.338462 
L 236.307692 76.338462 
L 236.307692 68.953846 
L 228.923077 68.953846 
L 228.923077 76.338462 
" style="fill:#fffc7d;"/>
    <path clip-path="url(#p5d2f273c4e)" d="M 236.307692 76.338462 
L 243.692308 76.338462 
L 243.692308 68.953846 
L 236.307692 68.953846 
L 236.307692 76.338462 
" style="fill:#fffc7d;"/>
    <path clip-path="url(#p5d2f273c4e)" d="M 243.692308 76.338462 
L 251.076923 76.338462 
L 251.076923 68.953846 
L 243.692308 68.953846 
L 243.692308 76.338462 
" style="fill:#ffff91;"/>
    <path clip-path="url(#p5d2f273c4e)" d="M 251.076923 76.338462 
L 258.461538 76.338462 
L 258.461538 68.953846 
L 251.076923 68.953846 
L 251.076923 76.338462 
" style="fill:#ffffbf;"/>
    <path clip-path="url(#p5d2f273c4e)" d="M 258.461538 76.338462 
L 265.846154 76.338462 
L 265.846154 68.953846 
L 258.461538 68.953846 
L 258.461538 76.338462 
" style="fill:#ffffc5;"/>
    <path clip-path="url(#p5d2f273c4e)" d="M 265.846154 76.338462 
L 273.230769 76.338462 
L 273.230769 68.953846 
L 265.846154 68.953846 
L 265.846154 76.338462 
" style="fill:#fffff3;"/>
    <path clip-path="url(#p5d2f273c4e)" d="M 273.230769 76.338462 
L 280.615385 76.338462 
L 280.615385 68.953846 
L 273.230769 68.953846 
L 273.230769 76.338462 
" style="fill:#fffff9;"/>
    <path clip-path="url(#p5d2f273c4e)" d="M 280.615385 76.338462 
L 288 76.338462 
L 288 68.953846 
L 280.615385 68.953846 
L 280.615385 76.338462 
" style="fill:#ffffff;"/>
    <path clip-path="url(#p5d2f273c4e)" d="M 0 68.953846 
L 7.384615 68.953846 
L 7.384615 61.569231 
L 0 61.569231 
L 0 68.953846 
" style="fill:#ffffff;"/>
    <path clip-path="url(#p5d2f273c4e)" d="M 7.384615 68.953846 
L 14.769231 68.953846 
L 14.769231 61.569231 
L 7.384615 61.569231 
L 7.384615 68.953846 
" style="fill:#fffff9;"/>
    <path clip-path="url(#p5d2f273c4e)" d="M 14.769231 68.953846 
L 22.153846 68.953846 
L 22.153846 61.569231 
L 14.769231 61.569231 
L 14.769231 68.953846 
" style="fill:#ffffcb;"/>
    <path clip-path="url(#p5d2f273c4e)" d="M 22.153846 68.953846 
L 29.538462 68.953846 
L 29.538462 61.569231 
L 22.153846 61.569231 
L 22.153846 68.953846 
" style="fill:#ffee6f;"/>
    <path clip-path="url(#p5d2f273c4e)" d="M 29.538462 68.953846 
L 36.923077 68.953846 
L 36.923077 61.569231 
L 29.538462 61.569231 
L 29.538462 68.953846 
" style="fill:#ff9213;"/>
    <path clip-path="url(#p5d2f273c4e)" d="M 36.923077 68.953846 
L 44.307692 68.953846 
L 44.307692 61.569231 
L 36.923077 61.569231 
L 36.923077 68.953846 
" style="fill:#f27200;"/>
    <path clip-path="url(#p5d2f273c4e)" d="M 44.307692 68.953846 
L 51.692308 68.953846 
L 51.692308 61.569231 
L 44.307692 61.569231 
L 44.307692 68.953846 
" style="fill:#ff9b1b;"/>
    <path clip-path="url(#p5d2f273c4e)" d="M 51.692308 68.953846 
L 59.076923 68.953846 
L 59.076923 61.569231 
L 51.692308 61.569231 
L 51.692308 68.953846 
" style="fill:#ffb535;"/>
    <path clip-path="url(#p5d2f273c4e)" d="M 59.076923 68.953846 
L 66.461538 68.953846 
L 66.461538 61.569231 
L 59.076923 61.569231 
L 59.076923 68.953846 
" style="fill:#ffc041;"/>
    <path clip-path="url(#p5d2f273c4e)" d="M 66.461538 68.953846 
L 73.846154 68.953846 
L 73.846154 61.569231 
L 66.461538 61.569231 
L 66.461538 68.953846 
" style="fill:#ffdb5b;"/>
    <path clip-path="url(#p5d2f273c4e)" d="M 73.846154 68.953846 
L 81.230769 68.953846 
L 81.230769 61.569231 
L 73.846154 61.569231 
L 73.846154 68.953846 
" style="fill:#ffb535;"/>
    <path clip-path="url(#p5d2f273c4e)" d="M 81.230769 68.953846 
L 88.615385 68.953846 
L 88.615385 61.569231 
L 81.230769 61.569231 
L 81.230769 68.953846 
" style="fill:#ffe869;"/>
    <path clip-path="url(#p5d2f273c4e)" d="M 88.615385 68.953846 
L 96 68.953846 
L 96 61.569231 
L 88.615385 61.569231 
L 88.615385 68.953846 
" style="fill:#ffc849;"/>
    <path clip-path="url(#p5d2f273c4e)" d="M 96 68.953846 
L 103.384615 68.953846 
L 103.384615 61.569231 
L 96 61.569231 
L 96 68.953846 
" style="fill:#ffdb5b;"/>
    <path clip-path="url(#p5d2f273c4e)" d="M 103.384615 68.953846 
L 110.769231 68.953846 
L 110.769231 61.569231 
L 103.384615 61.569231 
L 103.384615 68.953846 
" style="fill:#ffbb3b;"/>
    <path clip-path="url(#p5d2f273c4e)" d="M 110.769231 68.953846 
L 118.153846 68.953846 
L 118.153846 61.569231 
L 110.769231 61.569231 
L 110.769231 68.953846 
" style="fill:#fffc7d;"/>
    <path clip-path="url(#p5d2f273c4e)" d="M 118.153846 68.953846 
L 125.538462 68.953846 
L 125.538462 61.569231 
L 118.153846 61.569231 
L 118.153846 68.953846 
" style="fill:#ffff89;"/>
    <path clip-path="url(#p5d2f273c4e)" d="M 125.538462 68.953846 
L 132.923077 68.953846 
L 132.923077 61.569231 
L 125.538462 61.569231 
L 125.538462 68.953846 
" style="fill:#ffe869;"/>
    <path clip-path="url(#p5d2f273c4e)" d="M 132.923077 68.953846 
L 140.307692 68.953846 
L 140.307692 61.569231 
L 132.923077 61.569231 
L 132.923077 68.953846 
" style="fill:#ffff83;"/>
    <path clip-path="url(#p5d2f273c4e)" d="M 140.307692 68.953846 
L 147.692308 68.953846 
L 147.692308 61.569231 
L 140.307692 61.569231 
L 140.307692 68.953846 
" style="fill:#ffce4f;"/>
    <path clip-path="url(#p5d2f273c4e)" d="M 147.692308 68.953846 
L 155.076923 68.953846 
L 155.076923 61.569231 
L 147.692308 61.569231 
L 147.692308 68.953846 
" style="fill:#ffe869;"/>
    <path clip-path="url(#p5d2f273c4e)" d="M 155.076923 68.953846 
L 162.461538 68.953846 
L 162.461538 61.569231 
L 155.076923 61.569231 
L 155.076923 68.953846 
" style="fill:#ffce4f;"/>
    <path clip-path="url(#p5d2f273c4e)" d="M 162.461538 68.953846 
L 169.846154 68.953846 
L 169.846154 61.569231 
L 162.461538 61.569231 
L 162.461538 68.953846 
" style="fill:#ffe263;"/>
    <path clip-path="url(#p5d2f273c4e)" d="M 169.846154 68.953846 
L 177.230769 68.953846 
L 177.230769 61.569231 
L 169.846154 61.569231 
L 169.846154 68.953846 
" style="fill:#ffce4f;"/>
    <path clip-path="url(#p5d2f273c4e)" d="M 177.230769 68.953846 
L 184.615385 68.953846 
L 184.615385 61.569231 
L 177.230769 61.569231 
L 177.230769 68.953846 
" style="fill:#ffc041;"/>
    <path clip-path="url(#p5d2f273c4e)" d="M 184.615385 68.953846 
L 192 68.953846 
L 192 61.569231 
L 184.615385 61.569231 
L 184.615385 68.953846 
" style="fill:#ffdb5b;"/>
    <path clip-path="url(#p5d2f273c4e)" d="M 192 68.953846 
L 199.384615 68.953846 
L 199.384615 61.569231 
L 192 61.569231 
L 192 68.953846 
" style="fill:#fffc7d;"/>
    <path clip-path="url(#p5d2f273c4e)" d="M 199.384615 68.953846 
L 206.769231 68.953846 
L 206.769231 61.569231 
L 199.384615 61.569231 
L 199.384615 68.953846 
" style="fill:#ffbb3b;"/>
    <path clip-path="url(#p5d2f273c4e)" d="M 206.769231 68.953846 
L 214.153846 68.953846 
L 214.153846 61.569231 
L 206.769231 61.569231 
L 206.769231 68.953846 
" style="fill:#ffffab;"/>
    <path clip-path="url(#p5d2f273c4e)" d="M 214.153846 68.953846 
L 221.538462 68.953846 
L 221.538462 61.569231 
L 214.153846 61.569231 
L 214.153846 68.953846 
" style="fill:#ffee6f;"/>
    <path clip-path="url(#p5d2f273c4e)" d="M 221.538462 68.953846 
L 228.923077 68.953846 
L 228.923077 61.569231 
L 221.538462 61.569231 
L 221.538462 68.953846 
" style="fill:#ffee6f;"/>
    <path clip-path="url(#p5d2f273c4e)" d="M 228.923077 68.953846 
L 236.307692 68.953846 
L 236.307692 61.569231 
L 228.923077 61.569231 
L 228.923077 68.953846 
" style="fill:#ffff89;"/>
    <path clip-path="url(#p5d2f273c4e)" d="M 236.307692 68.953846 
L 243.692308 68.953846 
L 243.692308 61.569231 
L 236.307692 61.569231 
L 236.307692 68.953846 
" style="fill:#ff8607;"/>
    <path clip-path="url(#p5d2f273c4e)" d="M 243.692308 68.953846 
L 251.076923 68.953846 
L 251.076923 61.569231 
L 243.692308 61.569231 
L 243.692308 68.953846 
" style="fill:#f87900;"/>
    <path clip-path="url(#p5d2f273c4e)" d="M 251.076923 68.953846 
L 258.461538 68.953846 
L 258.461538 61.569231 
L 251.076923 61.569231 
L 251.076923 68.953846 
" style="fill:#ff8607;"/>
    <path clip-path="url(#p5d2f273c4e)" d="M 258.461538 68.953846 
L 265.846154 68.953846 
L 265.846154 61.569231 
L 258.461538 61.569231 
L 258.461538 68.953846 
" style="fill:#ffdb5b;"/>
    <path clip-path="url(#p5d2f273c4e)" d="M 265.846154 68.953846 
L 273.230769 68.953846 
L 273.230769 61.569231 
L 265.846154 61.569231 
L 265.846154 68.953846 
" style="fill:#ffff83;"/>
    <path clip-path="url(#p5d2f273c4e)" d="M 273.230769 68.953846 
L 280.615385 68.953846 
L 280.615385 61.569231 
L 273.230769 61.569231 
L 273.230769 68.953846 
" style="fill:#ffffbf;"/>
    <path clip-path="url(#p5d2f273c4e)" d="M 280.615385 68.953846 
L 288 68.953846 
L 288 61.569231 
L 280.615385 61.569231 
L 280.615385 68.953846 
" style="fill:#ffffed;"/>
    <path clip-path="url(#p5d2f273c4e)" d="M 0 61.569231 
L 7.384615 61.569231 
L 7.384615 54.184615 
L 0 54.184615 
L 0 61.569231 
" style="fill:#fffff9;"/>
    <path clip-path="url(#p5d2f273c4e)" d="M 7.384615 61.569231 
L 14.769231 61.569231 
L 14.769231 54.184615 
L 7.384615 54.184615 
L 7.384615 61.569231 
" style="fill:#ffffff;"/>
    <path clip-path="url(#p5d2f273c4e)" d="M 14.769231 61.569231 
L 22.153846 61.569231 
L 22.153846 54.184615 
L 14.769231 54.184615 
L 14.769231 61.569231 
" style="fill:#ffee6f;"/>
    <path clip-path="url(#p5d2f273c4e)" d="M 22.153846 61.569231 
L 29.538462 61.569231 
L 29.538462 54.184615 
L 22.153846 54.184615 
L 22.153846 61.569231 
" style="fill:#de5e00;"/>
    <path clip-path="url(#p5d2f273c4e)" d="M 29.538462 61.569231 
L 36.923077 61.569231 
L 36.923077 54.184615 
L 29.538462 54.184615 
L 29.538462 61.569231 
" style="fill:#ca4b00;"/>
    <path clip-path="url(#p5d2f273c4e)" d="M 36.923077 61.569231 
L 44.307692 61.569231 
L 44.307692 54.184615 
L 36.923077 54.184615 
L 36.923077 61.569231 
" style="fill:#b03000;"/>
    <path clip-path="url(#p5d2f273c4e)" d="M 44.307692 61.569231 
L 51.692308 61.569231 
L 51.692308 54.184615 
L 44.307692 54.184615 
L 44.307692 61.569231 
" style="fill:#ffb535;"/>
    <path clip-path="url(#p5d2f273c4e)" d="M 51.692308 61.569231 
L 59.076923 61.569231 
L 59.076923 54.184615 
L 51.692308 54.184615 
L 51.692308 61.569231 
" style="fill:#ff9b1b;"/>
    <path clip-path="url(#p5d2f273c4e)" d="M 59.076923 61.569231 
L 66.461538 61.569231 
L 66.461538 54.184615 
L 59.076923 54.184615 
L 59.076923 61.569231 
" style="fill:#ffce4f;"/>
    <path clip-path="url(#p5d2f273c4e)" d="M 66.461538 61.569231 
L 73.846154 61.569231 
L 73.846154 54.184615 
L 66.461538 54.184615 
L 66.461538 61.569231 
" style="fill:#ffc041;"/>
    <path clip-path="url(#p5d2f273c4e)" d="M 73.846154 61.569231 
L 81.230769 61.569231 
L 81.230769 54.184615 
L 73.846154 54.184615 
L 73.846154 61.569231 
" style="fill:#ffa021;"/>
    <path clip-path="url(#p5d2f273c4e)" d="M 81.230769 61.569231 
L 88.615385 61.569231 
L 88.615385 54.184615 
L 81.230769 54.184615 
L 81.230769 61.569231 
" style="fill:#fffc7d;"/>
    <path clip-path="url(#p5d2f273c4e)" d="M 88.615385 61.569231 
L 96 61.569231 
L 96 54.184615 
L 88.615385 54.184615 
L 88.615385 61.569231 
" style="fill:#fffc7d;"/>
    <path clip-path="url(#p5d2f273c4e)" d="M 96 61.569231 
L 103.384615 61.569231 
L 103.384615 54.184615 
L 96 54.184615 
L 96 61.569231 
" style="fill:#ffff89;"/>
    <path clip-path="url(#p5d2f273c4e)" d="M 103.384615 61.569231 
L 110.769231 61.569231 
L 110.769231 54.184615 
L 103.384615 54.184615 
L 103.384615 61.569231 
" style="fill:#ffa627;"/>
    <path clip-path="url(#p5d2f273c4e)" d="M 110.769231 61.569231 
L 118.153846 61.569231 
L 118.153846 54.184615 
L 110.769231 54.184615 
L 110.769231 61.569231 
" style="fill:#ffdb5b;"/>
    <path clip-path="url(#p5d2f273c4e)" d="M 118.153846 61.569231 
L 125.538462 61.569231 
L 125.538462 54.184615 
L 118.153846 54.184615 
L 118.153846 61.569231 
" style="fill:#fff777;"/>
    <path clip-path="url(#p5d2f273c4e)" d="M 125.538462 61.569231 
L 132.923077 61.569231 
L 132.923077 54.184615 
L 125.538462 54.184615 
L 125.538462 61.569231 
" style="fill:#fff777;"/>
    <path clip-path="url(#p5d2f273c4e)" d="M 132.923077 61.569231 
L 140.307692 61.569231 
L 140.307692 54.184615 
L 132.923077 54.184615 
L 132.923077 61.569231 
" style="fill:#ffe869;"/>
    <path clip-path="url(#p5d2f273c4e)" d="M 140.307692 61.569231 
L 147.692308 61.569231 
L 147.692308 54.184615 
L 140.307692 54.184615 
L 140.307692 61.569231 
" style="fill:#ffc849;"/>
    <path clip-path="url(#p5d2f273c4e)" d="M 147.692308 61.569231 
L 155.076923 61.569231 
L 155.076923 54.184615 
L 147.692308 54.184615 
L 147.692308 61.569231 
" style="fill:#fff777;"/>
    <path clip-path="url(#p5d2f273c4e)" d="M 155.076923 61.569231 
L 162.461538 61.569231 
L 162.461538 54.184615 
L 155.076923 54.184615 
L 155.076923 61.569231 
" style="fill:#fff777;"/>
    <path clip-path="url(#p5d2f273c4e)" d="M 162.461538 61.569231 
L 169.846154 61.569231 
L 169.846154 54.184615 
L 162.461538 54.184615 
L 162.461538 61.569231 
" style="fill:#ffdb5b;"/>
    <path clip-path="url(#p5d2f273c4e)" d="M 169.846154 61.569231 
L 177.230769 61.569231 
L 177.230769 54.184615 
L 169.846154 54.184615 
L 169.846154 61.569231 
" style="fill:#ffee6f;"/>
    <path clip-path="url(#p5d2f273c4e)" d="M 177.230769 61.569231 
L 184.615385 61.569231 
L 184.615385 54.184615 
L 177.230769 54.184615 
L 177.230769 61.569231 
" style="fill:#ffe263;"/>
    <path clip-path="url(#p5d2f273c4e)" d="M 184.615385 61.569231 
L 192 61.569231 
L 192 54.184615 
L 184.615385 54.184615 
L 184.615385 61.569231 
" style="fill:#ffff89;"/>
    <path clip-path="url(#p5d2f273c4e)" d="M 192 61.569231 
L 199.384615 61.569231 
L 199.384615 54.184615 
L 192 54.184615 
L 192 61.569231 
" style="fill:#fffc7d;"/>
    <path clip-path="url(#p5d2f273c4e)" d="M 199.384615 61.569231 
L 206.769231 61.569231 
L 206.769231 54.184615 
L 199.384615 54.184615 
L 199.384615 61.569231 
" style="fill:#fffc7d;"/>
    <path clip-path="url(#p5d2f273c4e)" d="M 206.769231 61.569231 
L 214.153846 61.569231 
L 214.153846 54.184615 
L 206.769231 54.184615 
L 206.769231 61.569231 
" style="fill:#ffff83;"/>
    <path clip-path="url(#p5d2f273c4e)" d="M 214.153846 61.569231 
L 221.538462 61.569231 
L 221.538462 54.184615 
L 214.153846 54.184615 
L 214.153846 61.569231 
" style="fill:#ffce4f;"/>
    <path clip-path="url(#p5d2f273c4e)" d="M 221.538462 61.569231 
L 228.923077 61.569231 
L 228.923077 54.184615 
L 221.538462 54.184615 
L 221.538462 61.569231 
" style="fill:#ffe263;"/>
    <path clip-path="url(#p5d2f273c4e)" d="M 228.923077 61.569231 
L 236.307692 61.569231 
L 236.307692 54.184615 
L 228.923077 54.184615 
L 228.923077 61.569231 
" style="fill:#ffa627;"/>
    <path clip-path="url(#p5d2f273c4e)" d="M 236.307692 61.569231 
L 243.692308 61.569231 
L 243.692308 54.184615 
L 236.307692 54.184615 
L 236.307692 61.569231 
" style="fill:#ff8c0d;"/>
    <path clip-path="url(#p5d2f273c4e)" d="M 243.692308 61.569231 
L 251.076923 61.569231 
L 251.076923 54.184615 
L 243.692308 54.184615 
L 243.692308 61.569231 
" style="fill:#ffbb3b;"/>
    <path clip-path="url(#p5d2f273c4e)" d="M 251.076923 61.569231 
L 258.461538 61.569231 
L 258.461538 54.184615 
L 251.076923 54.184615 
L 251.076923 61.569231 
" style="fill:#d85900;"/>
    <path clip-path="url(#p5d2f273c4e)" d="M 258.461538 61.569231 
L 265.846154 61.569231 
L 265.846154 54.184615 
L 258.461538 54.184615 
L 258.461538 61.569231 
" style="fill:#ff9213;"/>
    <path clip-path="url(#p5d2f273c4e)" d="M 265.846154 61.569231 
L 273.230769 61.569231 
L 273.230769 54.184615 
L 265.846154 54.184615 
L 265.846154 61.569231 
" style="fill:#ffb535;"/>
    <path clip-path="url(#p5d2f273c4e)" d="M 273.230769 61.569231 
L 280.615385 61.569231 
L 280.615385 54.184615 
L 273.230769 54.184615 
L 273.230769 61.569231 
" style="fill:#ffffbf;"/>
    <path clip-path="url(#p5d2f273c4e)" d="M 280.615385 61.569231 
L 288 61.569231 
L 288 54.184615 
L 280.615385 54.184615 
L 280.615385 61.569231 
" style="fill:#ffffff;"/>
    <path clip-path="url(#p5d2f273c4e)" d="M 0 54.184615 
L 7.384615 54.184615 
L 7.384615 46.8 
L 0 46.8 
L 0 54.184615 
" style="fill:#ffffff;"/>
    <path clip-path="url(#p5d2f273c4e)" d="M 7.384615 54.184615 
L 14.769231 54.184615 
L 14.769231 46.8 
L 7.384615 46.8 
L 7.384615 54.184615 
" style="fill:#ffffd9;"/>
    <path clip-path="url(#p5d2f273c4e)" d="M 14.769231 54.184615 
L 22.153846 54.184615 
L 22.153846 46.8 
L 14.769231 46.8 
L 14.769231 54.184615 
" style="fill:#ffa627;"/>
    <path clip-path="url(#p5d2f273c4e)" d="M 22.153846 54.184615 
L 29.538462 54.184615 
L 29.538462 46.8 
L 22.153846 46.8 
L 22.153846 54.184615 
" style="fill:#d85900;"/>
    <path clip-path="url(#p5d2f273c4e)" d="M 29.538462 54.184615 
L 36.923077 54.184615 
L 36.923077 46.8 
L 29.538462 46.8 
L 29.538462 54.184615 
" style="fill:#961700;"/>
    <path clip-path="url(#p5d2f273c4e)" d="M 36.923077 54.184615 
L 44.307692 54.184615 
L 44.307692 46.8 
L 36.923077 46.8 
L 36.923077 54.184615 
" style="fill:#901000;"/>
    <path clip-path="url(#p5d2f273c4e)" d="M 44.307692 54.184615 
L 51.692308 54.184615 
L 51.692308 46.8 
L 44.307692 46.8 
L 44.307692 54.184615 
" style="fill:#ff9b1b;"/>
    <path clip-path="url(#p5d2f273c4e)" d="M 51.692308 54.184615 
L 59.076923 54.184615 
L 59.076923 46.8 
L 51.692308 46.8 
L 51.692308 54.184615 
" style="fill:#ff9213;"/>
    <path clip-path="url(#p5d2f273c4e)" d="M 59.076923 54.184615 
L 66.461538 54.184615 
L 66.461538 46.8 
L 59.076923 46.8 
L 59.076923 54.184615 
" style="fill:#fff777;"/>
    <path clip-path="url(#p5d2f273c4e)" d="M 66.461538 54.184615 
L 73.846154 54.184615 
L 73.846154 46.8 
L 66.461538 46.8 
L 66.461538 54.184615 
" style="fill:#ffe263;"/>
    <path clip-path="url(#p5d2f273c4e)" d="M 73.846154 54.184615 
L 81.230769 54.184615 
L 81.230769 46.8 
L 73.846154 46.8 
L 73.846154 54.184615 
" style="fill:#ffc849;"/>
    <path clip-path="url(#p5d2f273c4e)" d="M 81.230769 54.184615 
L 88.615385 54.184615 
L 88.615385 46.8 
L 81.230769 46.8 
L 81.230769 54.184615 
" style="fill:#ffffab;"/>
    <path clip-path="url(#p5d2f273c4e)" d="M 88.615385 54.184615 
L 96 54.184615 
L 96 46.8 
L 88.615385 46.8 
L 88.615385 54.184615 
" style="fill:#ffff83;"/>
    <path clip-path="url(#p5d2f273c4e)" d="M 96 54.184615 
L 103.384615 54.184615 
L 103.384615 46.8 
L 96 46.8 
L 96 54.184615 
" style="fill:#fffc7d;"/>
    <path clip-path="url(#p5d2f273c4e)" d="M 103.384615 54.184615 
L 110.769231 54.184615 
L 110.769231 46.8 
L 103.384615 46.8 
L 103.384615 54.184615 
" style="fill:#ffff89;"/>
    <path clip-path="url(#p5d2f273c4e)" d="M 110.769231 54.184615 
L 118.153846 54.184615 
L 118.153846 46.8 
L 110.769231 46.8 
L 110.769231 54.184615 
" style="fill:#ffd555;"/>
    <path clip-path="url(#p5d2f273c4e)" d="M 118.153846 54.184615 
L 125.538462 54.184615 
L 125.538462 46.8 
L 118.153846 46.8 
L 118.153846 54.184615 
" style="fill:#fffc7d;"/>
    <path clip-path="url(#p5d2f273c4e)" d="M 125.538462 54.184615 
L 132.923077 54.184615 
L 132.923077 46.8 
L 125.538462 46.8 
L 125.538462 54.184615 
" style="fill:#ffe263;"/>
    <path clip-path="url(#p5d2f273c4e)" d="M 132.923077 54.184615 
L 140.307692 54.184615 
L 140.307692 46.8 
L 132.923077 46.8 
L 132.923077 54.184615 
" style="fill:#ffff91;"/>
    <path clip-path="url(#p5d2f273c4e)" d="M 140.307692 54.184615 
L 147.692308 54.184615 
L 147.692308 46.8 
L 140.307692 46.8 
L 140.307692 54.184615 
" style="fill:#ffc041;"/>
    <path clip-path="url(#p5d2f273c4e)" d="M 147.692308 54.184615 
L 155.076923 54.184615 
L 155.076923 46.8 
L 147.692308 46.8 
L 147.692308 54.184615 
" style="fill:#ffff97;"/>
    <path clip-path="url(#p5d2f273c4e)" d="M 155.076923 54.184615 
L 162.461538 54.184615 
L 162.461538 46.8 
L 155.076923 46.8 
L 155.076923 54.184615 
" style="fill:#ffee6f;"/>
    <path clip-path="url(#p5d2f273c4e)" d="M 162.461538 54.184615 
L 169.846154 54.184615 
L 169.846154 46.8 
L 162.461538 46.8 
L 162.461538 54.184615 
" style="fill:#ffd555;"/>
    <path clip-path="url(#p5d2f273c4e)" d="M 169.846154 54.184615 
L 177.230769 54.184615 
L 177.230769 46.8 
L 169.846154 46.8 
L 169.846154 54.184615 
" style="fill:#ffd555;"/>
    <path clip-path="url(#p5d2f273c4e)" d="M 177.230769 54.184615 
L 184.615385 54.184615 
L 184.615385 46.8 
L 177.230769 46.8 
L 177.230769 54.184615 
" style="fill:#ffe869;"/>
    <path clip-path="url(#p5d2f273c4e)" d="M 184.615385 54.184615 
L 192 54.184615 
L 192 46.8 
L 184.615385 46.8 
L 184.615385 54.184615 
" style="fill:#ffe869;"/>
    <path clip-path="url(#p5d2f273c4e)" d="M 192 54.184615 
L 199.384615 54.184615 
L 199.384615 46.8 
L 192 46.8 
L 192 54.184615 
" style="fill:#ffee6f;"/>
    <path clip-path="url(#p5d2f273c4e)" d="M 199.384615 54.184615 
L 206.769231 54.184615 
L 206.769231 46.8 
L 199.384615 46.8 
L 199.384615 54.184615 
" style="fill:#fff777;"/>
    <path clip-path="url(#p5d2f273c4e)" d="M 206.769231 54.184615 
L 214.153846 54.184615 
L 214.153846 46.8 
L 206.769231 46.8 
L 206.769231 54.184615 
" style="fill:#ffe869;"/>
    <path clip-path="url(#p5d2f273c4e)" d="M 214.153846 54.184615 
L 221.538462 54.184615 
L 221.538462 46.8 
L 214.153846 46.8 
L 214.153846 54.184615 
" style="fill:#ffff83;"/>
    <path clip-path="url(#p5d2f273c4e)" d="M 221.538462 54.184615 
L 228.923077 54.184615 
L 228.923077 46.8 
L 221.538462 46.8 
L 221.538462 54.184615 
" style="fill:#ffb535;"/>
    <path clip-path="url(#p5d2f273c4e)" d="M 228.923077 54.184615 
L 236.307692 54.184615 
L 236.307692 46.8 
L 228.923077 46.8 
L 228.923077 54.184615 
" style="fill:#ffb535;"/>
    <path clip-path="url(#p5d2f273c4e)" d="M 236.307692 54.184615 
L 243.692308 54.184615 
L 243.692308 46.8 
L 236.307692 46.8 
L 236.307692 54.184615 
" style="fill:#ffb535;"/>
    <path clip-path="url(#p5d2f273c4e)" d="M 243.692308 54.184615 
L 251.076923 54.184615 
L 251.076923 46.8 
L 243.692308 46.8 
L 243.692308 54.184615 
" style="fill:#d85900;"/>
    <path clip-path="url(#p5d2f273c4e)" d="M 251.076923 54.184615 
L 258.461538 54.184615 
L 258.461538 46.8 
L 251.076923 46.8 
L 251.076923 54.184615 
" style="fill:#d85900;"/>
    <path clip-path="url(#p5d2f273c4e)" d="M 258.461538 54.184615 
L 265.846154 54.184615 
L 265.846154 46.8 
L 258.461538 46.8 
L 258.461538 54.184615 
" style="fill:#e46400;"/>
    <path clip-path="url(#p5d2f273c4e)" d="M 265.846154 54.184615 
L 273.230769 54.184615 
L 273.230769 46.8 
L 265.846154 46.8 
L 265.846154 54.184615 
" style="fill:#fe7e00;"/>
    <path clip-path="url(#p5d2f273c4e)" d="M 273.230769 54.184615 
L 280.615385 54.184615 
L 280.615385 46.8 
L 273.230769 46.8 
L 273.230769 54.184615 
" style="fill:#ffe869;"/>
    <path clip-path="url(#p5d2f273c4e)" d="M 280.615385 54.184615 
L 288 54.184615 
L 288 46.8 
L 280.615385 46.8 
L 280.615385 54.184615 
" style="fill:#ffffdf;"/>
    <path clip-path="url(#p5d2f273c4e)" d="M 0 46.8 
L 7.384615 46.8 
L 7.384615 39.415385 
L 0 39.415385 
L 0 46.8 
" style="fill:#fffff9;"/>
    <path clip-path="url(#p5d2f273c4e)" d="M 7.384615 46.8 
L 14.769231 46.8 
L 14.769231 39.415385 
L 7.384615 39.415385 
L 7.384615 46.8 
" style="fill:#fffff3;"/>
    <path clip-path="url(#p5d2f273c4e)" d="M 14.769231 46.8 
L 22.153846 46.8 
L 22.153846 39.415385 
L 14.769231 39.415385 
L 14.769231 46.8 
" style="fill:#ffa627;"/>
    <path clip-path="url(#p5d2f273c4e)" d="M 22.153846 46.8 
L 29.538462 46.8 
L 29.538462 39.415385 
L 22.153846 39.415385 
L 22.153846 46.8 
" style="fill:#760000;"/>
    <path clip-path="url(#p5d2f273c4e)" d="M 29.538462 46.8 
L 36.923077 46.8 
L 36.923077 39.415385 
L 29.538462 39.415385 
L 29.538462 46.8 
" style="fill:#260000;"/>
    <path clip-path="url(#p5d2f273c4e)" d="M 36.923077 46.8 
L 44.307692 46.8 
L 44.307692 39.415385 
L 36.923077 39.415385 
L 36.923077 46.8 
" style="fill:#961700;"/>
    <path clip-path="url(#p5d2f273c4e)" d="M 44.307692 46.8 
L 51.692308 46.8 
L 51.692308 39.415385 
L 44.307692 39.415385 
L 44.307692 46.8 
" style="fill:#ff9b1b;"/>
    <path clip-path="url(#p5d2f273c4e)" d="M 51.692308 46.8 
L 59.076923 46.8 
L 59.076923 39.415385 
L 51.692308 39.415385 
L 51.692308 46.8 
" style="fill:#ffac2d;"/>
    <path clip-path="url(#p5d2f273c4e)" d="M 59.076923 46.8 
L 66.461538 46.8 
L 66.461538 39.415385 
L 59.076923 39.415385 
L 59.076923 46.8 
" style="fill:#ffd555;"/>
    <path clip-path="url(#p5d2f273c4e)" d="M 66.461538 46.8 
L 73.846154 46.8 
L 73.846154 39.415385 
L 66.461538 39.415385 
L 66.461538 46.8 
" style="fill:#ffb535;"/>
    <path clip-path="url(#p5d2f273c4e)" d="M 73.846154 46.8 
L 81.230769 46.8 
L 81.230769 39.415385 
L 73.846154 39.415385 
L 73.846154 46.8 
" style="fill:#ffee6f;"/>
    <path clip-path="url(#p5d2f273c4e)" d="M 81.230769 46.8 
L 88.615385 46.8 
L 88.615385 39.415385 
L 81.230769 39.415385 
L 81.230769 46.8 
" style="fill:#ffff97;"/>
    <path clip-path="url(#p5d2f273c4e)" d="M 88.615385 46.8 
L 96 46.8 
L 96 39.415385 
L 88.615385 39.415385 
L 88.615385 46.8 
" style="fill:#fff777;"/>
    <path clip-path="url(#p5d2f273c4e)" d="M 96 46.8 
L 103.384615 46.8 
L 103.384615 39.415385 
L 96 39.415385 
L 96 46.8 
" style="fill:#ffff97;"/>
    <path clip-path="url(#p5d2f273c4e)" d="M 103.384615 46.8 
L 110.769231 46.8 
L 110.769231 39.415385 
L 103.384615 39.415385 
L 103.384615 46.8 
" style="fill:#ffffa5;"/>
    <path clip-path="url(#p5d2f273c4e)" d="M 110.769231 46.8 
L 118.153846 46.8 
L 118.153846 39.415385 
L 110.769231 39.415385 
L 110.769231 46.8 
" style="fill:#ffff83;"/>
    <path clip-path="url(#p5d2f273c4e)" d="M 118.153846 46.8 
L 125.538462 46.8 
L 125.538462 39.415385 
L 118.153846 39.415385 
L 118.153846 46.8 
" style="fill:#ffce4f;"/>
    <path clip-path="url(#p5d2f273c4e)" d="M 125.538462 46.8 
L 132.923077 46.8 
L 132.923077 39.415385 
L 125.538462 39.415385 
L 125.538462 46.8 
" style="fill:#ffc849;"/>
    <path clip-path="url(#p5d2f273c4e)" d="M 132.923077 46.8 
L 140.307692 46.8 
L 140.307692 39.415385 
L 132.923077 39.415385 
L 132.923077 46.8 
" style="fill:#ffd555;"/>
    <path clip-path="url(#p5d2f273c4e)" d="M 140.307692 46.8 
L 147.692308 46.8 
L 147.692308 39.415385 
L 140.307692 39.415385 
L 140.307692 46.8 
" style="fill:#ff9b1b;"/>
    <path clip-path="url(#p5d2f273c4e)" d="M 147.692308 46.8 
L 155.076923 46.8 
L 155.076923 39.415385 
L 147.692308 39.415385 
L 147.692308 46.8 
" style="fill:#ffffa5;"/>
    <path clip-path="url(#p5d2f273c4e)" d="M 155.076923 46.8 
L 162.461538 46.8 
L 162.461538 39.415385 
L 155.076923 39.415385 
L 155.076923 46.8 
" style="fill:#ffff83;"/>
    <path clip-path="url(#p5d2f273c4e)" d="M 162.461538 46.8 
L 169.846154 46.8 
L 169.846154 39.415385 
L 162.461538 39.415385 
L 162.461538 46.8 
" style="fill:#ffa627;"/>
    <path clip-path="url(#p5d2f273c4e)" d="M 169.846154 46.8 
L 177.230769 46.8 
L 177.230769 39.415385 
L 169.846154 39.415385 
L 169.846154 46.8 
" style="fill:#ffdb5b;"/>
    <path clip-path="url(#p5d2f273c4e)" d="M 177.230769 46.8 
L 184.615385 46.8 
L 184.615385 39.415385 
L 177.230769 39.415385 
L 177.230769 46.8 
" style="fill:#ffff91;"/>
    <path clip-path="url(#p5d2f273c4e)" d="M 184.615385 46.8 
L 192 46.8 
L 192 39.415385 
L 184.615385 39.415385 
L 184.615385 46.8 
" style="fill:#ffffa5;"/>
    <path clip-path="url(#p5d2f273c4e)" d="M 192 46.8 
L 199.384615 46.8 
L 199.384615 39.415385 
L 192 39.415385 
L 192 46.8 
" style="fill:#ffdb5b;"/>
    <path clip-path="url(#p5d2f273c4e)" d="M 199.384615 46.8 
L 206.769231 46.8 
L 206.769231 39.415385 
L 199.384615 39.415385 
L 199.384615 46.8 
" style="fill:#fffc7d;"/>
    <path clip-path="url(#p5d2f273c4e)" d="M 206.769231 46.8 
L 214.153846 46.8 
L 214.153846 39.415385 
L 206.769231 39.415385 
L 206.769231 46.8 
" style="fill:#ffffab;"/>
    <path clip-path="url(#p5d2f273c4e)" d="M 214.153846 46.8 
L 221.538462 46.8 
L 221.538462 39.415385 
L 214.153846 39.415385 
L 214.153846 46.8 
" style="fill:#ffce4f;"/>
    <path clip-path="url(#p5d2f273c4e)" d="M 221.538462 46.8 
L 228.923077 46.8 
L 228.923077 39.415385 
L 221.538462 39.415385 
L 221.538462 46.8 
" style="fill:#fff777;"/>
    <path clip-path="url(#p5d2f273c4e)" d="M 228.923077 46.8 
L 236.307692 46.8 
L 236.307692 39.415385 
L 228.923077 39.415385 
L 228.923077 46.8 
" style="fill:#ffa627;"/>
    <path clip-path="url(#p5d2f273c4e)" d="M 236.307692 46.8 
L 243.692308 46.8 
L 243.692308 39.415385 
L 236.307692 39.415385 
L 236.307692 46.8 
" style="fill:#d85900;"/>
    <path clip-path="url(#p5d2f273c4e)" d="M 243.692308 46.8 
L 251.076923 46.8 
L 251.076923 39.415385 
L 243.692308 39.415385 
L 243.692308 46.8 
" style="fill:#fe7e00;"/>
    <path clip-path="url(#p5d2f273c4e)" d="M 251.076923 46.8 
L 258.461538 46.8 
L 258.461538 39.415385 
L 251.076923 39.415385 
L 251.076923 46.8 
" style="fill:#ff8c0d;"/>
    <path clip-path="url(#p5d2f273c4e)" d="M 258.461538 46.8 
L 265.846154 46.8 
L 265.846154 39.415385 
L 258.461538 39.415385 
L 258.461538 46.8 
" style="fill:#e46400;"/>
    <path clip-path="url(#p5d2f273c4e)" d="M 265.846154 46.8 
L 273.230769 46.8 
L 273.230769 39.415385 
L 265.846154 39.415385 
L 265.846154 46.8 
" style="fill:#ff9213;"/>
    <path clip-path="url(#p5d2f273c4e)" d="M 273.230769 46.8 
L 280.615385 46.8 
L 280.615385 39.415385 
L 273.230769 39.415385 
L 273.230769 46.8 
" style="fill:#ffce4f;"/>
    <path clip-path="url(#p5d2f273c4e)" d="M 280.615385 46.8 
L 288 46.8 
L 288 39.415385 
L 280.615385 39.415385 
L 280.615385 46.8 
" style="fill:#ffffcb;"/>
    <path clip-path="url(#p5d2f273c4e)" d="M 0 39.415385 
L 7.384615 39.415385 
L 7.384615 32.030769 
L 0 32.030769 
L 0 39.415385 
" style="fill:#ffffff;"/>
    <path clip-path="url(#p5d2f273c4e)" d="M 7.384615 39.415385 
L 14.769231 39.415385 
L 14.769231 32.030769 
L 7.384615 32.030769 
L 7.384615 39.415385 
" style="fill:#ffffbf;"/>
    <path clip-path="url(#p5d2f273c4e)" d="M 14.769231 39.415385 
L 22.153846 39.415385 
L 22.153846 32.030769 
L 14.769231 32.030769 
L 14.769231 39.415385 
" style="fill:#ca4b00;"/>
    <path clip-path="url(#p5d2f273c4e)" d="M 22.153846 39.415385 
L 29.538462 39.415385 
L 29.538462 32.030769 
L 22.153846 32.030769 
L 22.153846 39.415385 
"/>
    <path clip-path="url(#p5d2f273c4e)" d="M 29.538462 39.415385 
L 36.923077 39.415385 
L 36.923077 32.030769 
L 29.538462 32.030769 
L 29.538462 39.415385 
" style="fill:#3a0000;"/>
    <path clip-path="url(#p5d2f273c4e)" d="M 36.923077 39.415385 
L 44.307692 39.415385 
L 44.307692 32.030769 
L 36.923077 32.030769 
L 36.923077 39.415385 
" style="fill:#a42400;"/>
    <path clip-path="url(#p5d2f273c4e)" d="M 44.307692 39.415385 
L 51.692308 39.415385 
L 51.692308 32.030769 
L 44.307692 32.030769 
L 44.307692 39.415385 
" style="fill:#d85900;"/>
    <path clip-path="url(#p5d2f273c4e)" d="M 51.692308 39.415385 
L 59.076923 39.415385 
L 59.076923 32.030769 
L 51.692308 32.030769 
L 51.692308 39.415385 
" style="fill:#aa2b00;"/>
    <path clip-path="url(#p5d2f273c4e)" d="M 59.076923 39.415385 
L 66.461538 39.415385 
L 66.461538 32.030769 
L 59.076923 32.030769 
L 59.076923 39.415385 
" style="fill:#ffce4f;"/>
    <path clip-path="url(#p5d2f273c4e)" d="M 66.461538 39.415385 
L 73.846154 39.415385 
L 73.846154 32.030769 
L 66.461538 32.030769 
L 66.461538 39.415385 
" style="fill:#ffe263;"/>
    <path clip-path="url(#p5d2f273c4e)" d="M 73.846154 39.415385 
L 81.230769 39.415385 
L 81.230769 32.030769 
L 73.846154 32.030769 
L 73.846154 39.415385 
" style="fill:#ffc041;"/>
    <path clip-path="url(#p5d2f273c4e)" d="M 81.230769 39.415385 
L 88.615385 39.415385 
L 88.615385 32.030769 
L 81.230769 32.030769 
L 81.230769 39.415385 
" style="fill:#ffce4f;"/>
    <path clip-path="url(#p5d2f273c4e)" d="M 88.615385 39.415385 
L 96 39.415385 
L 96 32.030769 
L 88.615385 32.030769 
L 88.615385 39.415385 
" style="fill:#ffff89;"/>
    <path clip-path="url(#p5d2f273c4e)" d="M 96 39.415385 
L 103.384615 39.415385 
L 103.384615 32.030769 
L 96 32.030769 
L 96 39.415385 
" style="fill:#ffff83;"/>
    <path clip-path="url(#p5d2f273c4e)" d="M 103.384615 39.415385 
L 110.769231 39.415385 
L 110.769231 32.030769 
L 103.384615 32.030769 
L 103.384615 39.415385 
" style="fill:#ffff89;"/>
    <path clip-path="url(#p5d2f273c4e)" d="M 110.769231 39.415385 
L 118.153846 39.415385 
L 118.153846 32.030769 
L 110.769231 32.030769 
L 110.769231 39.415385 
" style="fill:#ffd555;"/>
    <path clip-path="url(#p5d2f273c4e)" d="M 118.153846 39.415385 
L 125.538462 39.415385 
L 125.538462 32.030769 
L 118.153846 32.030769 
L 118.153846 39.415385 
" style="fill:#fff777;"/>
    <path clip-path="url(#p5d2f273c4e)" d="M 125.538462 39.415385 
L 132.923077 39.415385 
L 132.923077 32.030769 
L 125.538462 32.030769 
L 125.538462 39.415385 
" style="fill:#ffce4f;"/>
    <path clip-path="url(#p5d2f273c4e)" d="M 132.923077 39.415385 
L 140.307692 39.415385 
L 140.307692 32.030769 
L 132.923077 32.030769 
L 132.923077 39.415385 
" style="fill:#fffc7d;"/>
    <path clip-path="url(#p5d2f273c4e)" d="M 140.307692 39.415385 
L 147.692308 39.415385 
L 147.692308 32.030769 
L 140.307692 32.030769 
L 140.307692 39.415385 
" style="fill:#ffff83;"/>
    <path clip-path="url(#p5d2f273c4e)" d="M 147.692308 39.415385 
L 155.076923 39.415385 
L 155.076923 32.030769 
L 147.692308 32.030769 
L 147.692308 39.415385 
" style="fill:#ffffb1;"/>
    <path clip-path="url(#p5d2f273c4e)" d="M 155.076923 39.415385 
L 162.461538 39.415385 
L 162.461538 32.030769 
L 155.076923 32.030769 
L 155.076923 39.415385 
" style="fill:#ffd555;"/>
    <path clip-path="url(#p5d2f273c4e)" d="M 162.461538 39.415385 
L 169.846154 39.415385 
L 169.846154 32.030769 
L 162.461538 32.030769 
L 162.461538 39.415385 
" style="fill:#ffd555;"/>
    <path clip-path="url(#p5d2f273c4e)" d="M 169.846154 39.415385 
L 177.230769 39.415385 
L 177.230769 32.030769 
L 169.846154 32.030769 
L 169.846154 39.415385 
" style="fill:#fffc7d;"/>
    <path clip-path="url(#p5d2f273c4e)" d="M 177.230769 39.415385 
L 184.615385 39.415385 
L 184.615385 32.030769 
L 177.230769 32.030769 
L 177.230769 39.415385 
" style="fill:#ffffa5;"/>
    <path clip-path="url(#p5d2f273c4e)" d="M 184.615385 39.415385 
L 192 39.415385 
L 192 32.030769 
L 184.615385 32.030769 
L 184.615385 39.415385 
" style="fill:#ffff97;"/>
    <path clip-path="url(#p5d2f273c4e)" d="M 192 39.415385 
L 199.384615 39.415385 
L 199.384615 32.030769 
L 192 32.030769 
L 192 39.415385 
" style="fill:#ffff89;"/>
    <path clip-path="url(#p5d2f273c4e)" d="M 199.384615 39.415385 
L 206.769231 39.415385 
L 206.769231 32.030769 
L 199.384615 32.030769 
L 199.384615 39.415385 
" style="fill:#ffce4f;"/>
    <path clip-path="url(#p5d2f273c4e)" d="M 206.769231 39.415385 
L 214.153846 39.415385 
L 214.153846 32.030769 
L 206.769231 32.030769 
L 206.769231 39.415385 
" style="fill:#ffe263;"/>
    <path clip-path="url(#p5d2f273c4e)" d="M 214.153846 39.415385 
L 221.538462 39.415385 
L 221.538462 32.030769 
L 214.153846 32.030769 
L 214.153846 39.415385 
" style="fill:#ffff97;"/>
    <path clip-path="url(#p5d2f273c4e)" d="M 221.538462 39.415385 
L 228.923077 39.415385 
L 228.923077 32.030769 
L 221.538462 32.030769 
L 221.538462 39.415385 
" style="fill:#ffe263;"/>
    <path clip-path="url(#p5d2f273c4e)" d="M 228.923077 39.415385 
L 236.307692 39.415385 
L 236.307692 32.030769 
L 228.923077 32.030769 
L 228.923077 39.415385 
" style="fill:#ff8607;"/>
    <path clip-path="url(#p5d2f273c4e)" d="M 236.307692 39.415385 
L 243.692308 39.415385 
L 243.692308 32.030769 
L 236.307692 32.030769 
L 236.307692 39.415385 
" style="fill:#ffe263;"/>
    <path clip-path="url(#p5d2f273c4e)" d="M 243.692308 39.415385 
L 251.076923 39.415385 
L 251.076923 32.030769 
L 243.692308 32.030769 
L 243.692308 39.415385 
" style="fill:#ca4b00;"/>
    <path clip-path="url(#p5d2f273c4e)" d="M 251.076923 39.415385 
L 258.461538 39.415385 
L 258.461538 32.030769 
L 251.076923 32.030769 
L 251.076923 39.415385 
" style="fill:#680000;"/>
    <path clip-path="url(#p5d2f273c4e)" d="M 258.461538 39.415385 
L 265.846154 39.415385 
L 265.846154 32.030769 
L 258.461538 32.030769 
L 258.461538 39.415385 
" style="fill:#f27200;"/>
    <path clip-path="url(#p5d2f273c4e)" d="M 265.846154 39.415385 
L 273.230769 39.415385 
L 273.230769 32.030769 
L 265.846154 32.030769 
L 265.846154 39.415385 
" style="fill:#901000;"/>
    <path clip-path="url(#p5d2f273c4e)" d="M 273.230769 39.415385 
L 280.615385 39.415385 
L 280.615385 32.030769 
L 273.230769 32.030769 
L 273.230769 39.415385 
" style="fill:#ffb535;"/>
    <path clip-path="url(#p5d2f273c4e)" d="M 280.615385 39.415385 
L 288 39.415385 
L 288 32.030769 
L 280.615385 32.030769 
L 280.615385 39.415385 
" style="fill:#ffffd3;"/>
    <path clip-path="url(#p5d2f273c4e)" d="M 0 32.030769 
L 7.384615 32.030769 
L 7.384615 24.646154 
L 0 24.646154 
L 0 32.030769 
" style="fill:#ffffff;"/>
    <path clip-path="url(#p5d2f273c4e)" d="M 7.384615 32.030769 
L 14.769231 32.030769 
L 14.769231 24.646154 
L 7.384615 24.646154 
L 7.384615 32.030769 
" style="fill:#ffffed;"/>
    <path clip-path="url(#p5d2f273c4e)" d="M 14.769231 32.030769 
L 22.153846 32.030769 
L 22.153846 24.646154 
L 14.769231 24.646154 
L 14.769231 32.030769 
" style="fill:#ffe869;"/>
    <path clip-path="url(#p5d2f273c4e)" d="M 22.153846 32.030769 
L 29.538462 32.030769 
L 29.538462 24.646154 
L 22.153846 24.646154 
L 22.153846 32.030769 
" style="fill:#f27200;"/>
    <path clip-path="url(#p5d2f273c4e)" d="M 29.538462 32.030769 
L 36.923077 32.030769 
L 36.923077 24.646154 
L 29.538462 24.646154 
L 29.538462 32.030769 
" style="fill:#ff8c0d;"/>
    <path clip-path="url(#p5d2f273c4e)" d="M 36.923077 32.030769 
L 44.307692 32.030769 
L 44.307692 24.646154 
L 36.923077 24.646154 
L 36.923077 32.030769 
" style="fill:#aa2b00;"/>
    <path clip-path="url(#p5d2f273c4e)" d="M 44.307692 32.030769 
L 51.692308 32.030769 
L 51.692308 24.646154 
L 44.307692 24.646154 
L 44.307692 32.030769 
" style="fill:#ff8607;"/>
    <path clip-path="url(#p5d2f273c4e)" d="M 51.692308 32.030769 
L 59.076923 32.030769 
L 59.076923 24.646154 
L 51.692308 24.646154 
L 51.692308 32.030769 
" style="fill:#d85900;"/>
    <path clip-path="url(#p5d2f273c4e)" d="M 59.076923 32.030769 
L 66.461538 32.030769 
L 66.461538 24.646154 
L 59.076923 24.646154 
L 59.076923 32.030769 
" style="fill:#ffdb5b;"/>
    <path clip-path="url(#p5d2f273c4e)" d="M 66.461538 32.030769 
L 73.846154 32.030769 
L 73.846154 24.646154 
L 66.461538 24.646154 
L 66.461538 32.030769 
" style="fill:#ffa627;"/>
    <path clip-path="url(#p5d2f273c4e)" d="M 73.846154 32.030769 
L 81.230769 32.030769 
L 81.230769 24.646154 
L 73.846154 24.646154 
L 73.846154 32.030769 
" style="fill:#ffdb5b;"/>
    <path clip-path="url(#p5d2f273c4e)" d="M 81.230769 32.030769 
L 88.615385 32.030769 
L 88.615385 24.646154 
L 81.230769 24.646154 
L 81.230769 32.030769 
" style="fill:#ffe263;"/>
    <path clip-path="url(#p5d2f273c4e)" d="M 88.615385 32.030769 
L 96 32.030769 
L 96 24.646154 
L 88.615385 24.646154 
L 88.615385 32.030769 
" style="fill:#ffdb5b;"/>
    <path clip-path="url(#p5d2f273c4e)" d="M 96 32.030769 
L 103.384615 32.030769 
L 103.384615 24.646154 
L 96 24.646154 
L 96 32.030769 
" style="fill:#ffff89;"/>
    <path clip-path="url(#p5d2f273c4e)" d="M 103.384615 32.030769 
L 110.769231 32.030769 
L 110.769231 24.646154 
L 103.384615 24.646154 
L 103.384615 32.030769 
" style="fill:#ffd555;"/>
    <path clip-path="url(#p5d2f273c4e)" d="M 110.769231 32.030769 
L 118.153846 32.030769 
L 118.153846 24.646154 
L 110.769231 24.646154 
L 110.769231 32.030769 
" style="fill:#ffc849;"/>
    <path clip-path="url(#p5d2f273c4e)" d="M 118.153846 32.030769 
L 125.538462 32.030769 
L 125.538462 24.646154 
L 118.153846 24.646154 
L 118.153846 32.030769 
" style="fill:#ffff91;"/>
    <path clip-path="url(#p5d2f273c4e)" d="M 125.538462 32.030769 
L 132.923077 32.030769 
L 132.923077 24.646154 
L 125.538462 24.646154 
L 125.538462 32.030769 
" style="fill:#ffd555;"/>
    <path clip-path="url(#p5d2f273c4e)" d="M 132.923077 32.030769 
L 140.307692 32.030769 
L 140.307692 24.646154 
L 132.923077 24.646154 
L 132.923077 32.030769 
" style="fill:#fff777;"/>
    <path clip-path="url(#p5d2f273c4e)" d="M 140.307692 32.030769 
L 147.692308 32.030769 
L 147.692308 24.646154 
L 140.307692 24.646154 
L 140.307692 32.030769 
" style="fill:#ffc041;"/>
    <path clip-path="url(#p5d2f273c4e)" d="M 147.692308 32.030769 
L 155.076923 32.030769 
L 155.076923 24.646154 
L 147.692308 24.646154 
L 147.692308 32.030769 
" style="fill:#fffc7d;"/>
    <path clip-path="url(#p5d2f273c4e)" d="M 155.076923 32.030769 
L 162.461538 32.030769 
L 162.461538 24.646154 
L 155.076923 24.646154 
L 155.076923 32.030769 
" style="fill:#ffff89;"/>
    <path clip-path="url(#p5d2f273c4e)" d="M 162.461538 32.030769 
L 169.846154 32.030769 
L 169.846154 24.646154 
L 162.461538 24.646154 
L 162.461538 32.030769 
" style="fill:#ffe869;"/>
    <path clip-path="url(#p5d2f273c4e)" d="M 169.846154 32.030769 
L 177.230769 32.030769 
L 177.230769 24.646154 
L 169.846154 24.646154 
L 169.846154 32.030769 
" style="fill:#ffff89;"/>
    <path clip-path="url(#p5d2f273c4e)" d="M 177.230769 32.030769 
L 184.615385 32.030769 
L 184.615385 24.646154 
L 177.230769 24.646154 
L 177.230769 32.030769 
" style="fill:#ffff83;"/>
    <path clip-path="url(#p5d2f273c4e)" d="M 184.615385 32.030769 
L 192 32.030769 
L 192 24.646154 
L 184.615385 24.646154 
L 184.615385 32.030769 
" style="fill:#ffff91;"/>
    <path clip-path="url(#p5d2f273c4e)" d="M 192 32.030769 
L 199.384615 32.030769 
L 199.384615 24.646154 
L 192 24.646154 
L 192 32.030769 
" style="fill:#ffff91;"/>
    <path clip-path="url(#p5d2f273c4e)" d="M 199.384615 32.030769 
L 206.769231 32.030769 
L 206.769231 24.646154 
L 199.384615 24.646154 
L 199.384615 32.030769 
" style="fill:#ffff9d;"/>
    <path clip-path="url(#p5d2f273c4e)" d="M 206.769231 32.030769 
L 214.153846 32.030769 
L 214.153846 24.646154 
L 206.769231 24.646154 
L 206.769231 32.030769 
" style="fill:#ffe869;"/>
    <path clip-path="url(#p5d2f273c4e)" d="M 214.153846 32.030769 
L 221.538462 32.030769 
L 221.538462 24.646154 
L 214.153846 24.646154 
L 214.153846 32.030769 
" style="fill:#ffff97;"/>
    <path clip-path="url(#p5d2f273c4e)" d="M 221.538462 32.030769 
L 228.923077 32.030769 
L 228.923077 24.646154 
L 221.538462 24.646154 
L 221.538462 32.030769 
" style="fill:#ffff91;"/>
    <path clip-path="url(#p5d2f273c4e)" d="M 228.923077 32.030769 
L 236.307692 32.030769 
L 236.307692 24.646154 
L 228.923077 24.646154 
L 228.923077 32.030769 
" style="fill:#ffa627;"/>
    <path clip-path="url(#p5d2f273c4e)" d="M 236.307692 32.030769 
L 243.692308 32.030769 
L 243.692308 24.646154 
L 236.307692 24.646154 
L 236.307692 32.030769 
" style="fill:#fe7e00;"/>
    <path clip-path="url(#p5d2f273c4e)" d="M 243.692308 32.030769 
L 251.076923 32.030769 
L 251.076923 24.646154 
L 243.692308 24.646154 
L 243.692308 32.030769 
" style="fill:#b03000;"/>
    <path clip-path="url(#p5d2f273c4e)" d="M 251.076923 32.030769 
L 258.461538 32.030769 
L 258.461538 24.646154 
L 251.076923 24.646154 
L 251.076923 32.030769 
" style="fill:#fe7e00;"/>
    <path clip-path="url(#p5d2f273c4e)" d="M 258.461538 32.030769 
L 265.846154 32.030769 
L 265.846154 24.646154 
L 258.461538 24.646154 
L 258.461538 32.030769 
" style="fill:#ffac2d;"/>
    <path clip-path="url(#p5d2f273c4e)" d="M 265.846154 32.030769 
L 273.230769 32.030769 
L 273.230769 24.646154 
L 265.846154 24.646154 
L 265.846154 32.030769 
" style="fill:#f87900;"/>
    <path clip-path="url(#p5d2f273c4e)" d="M 273.230769 32.030769 
L 280.615385 32.030769 
L 280.615385 24.646154 
L 273.230769 24.646154 
L 273.230769 32.030769 
" style="fill:#ffff9d;"/>
    <path clip-path="url(#p5d2f273c4e)" d="M 280.615385 32.030769 
L 288 32.030769 
L 288 24.646154 
L 280.615385 24.646154 
L 280.615385 32.030769 
" style="fill:#ffffed;"/>
    <path clip-path="url(#p5d2f273c4e)" d="M 0 24.646154 
L 7.384615 24.646154 
L 7.384615 17.261538 
L 0 17.261538 
L 0 24.646154 
" style="fill:#fffff9;"/>
    <path clip-path="url(#p5d2f273c4e)" d="M 7.384615 24.646154 
L 14.769231 24.646154 
L 14.769231 17.261538 
L 7.384615 17.261538 
L 7.384615 24.646154 
" style="fill:#fffff9;"/>
    <path clip-path="url(#p5d2f273c4e)" d="M 14.769231 24.646154 
L 22.153846 24.646154 
L 22.153846 17.261538 
L 14.769231 17.261538 
L 14.769231 24.646154 
" style="fill:#ffff89;"/>
    <path clip-path="url(#p5d2f273c4e)" d="M 22.153846 24.646154 
L 29.538462 24.646154 
L 29.538462 17.261538 
L 22.153846 17.261538 
L 22.153846 24.646154 
" style="fill:#ffc041;"/>
    <path clip-path="url(#p5d2f273c4e)" d="M 29.538462 24.646154 
L 36.923077 24.646154 
L 36.923077 17.261538 
L 29.538462 17.261538 
L 29.538462 24.646154 
" style="fill:#ffac2d;"/>
    <path clip-path="url(#p5d2f273c4e)" d="M 36.923077 24.646154 
L 44.307692 24.646154 
L 44.307692 17.261538 
L 36.923077 17.261538 
L 36.923077 24.646154 
" style="fill:#f27200;"/>
    <path clip-path="url(#p5d2f273c4e)" d="M 44.307692 24.646154 
L 51.692308 24.646154 
L 51.692308 17.261538 
L 44.307692 17.261538 
L 44.307692 24.646154 
" style="fill:#d85900;"/>
    <path clip-path="url(#p5d2f273c4e)" d="M 51.692308 24.646154 
L 59.076923 24.646154 
L 59.076923 17.261538 
L 51.692308 17.261538 
L 51.692308 24.646154 
" style="fill:#f87900;"/>
    <path clip-path="url(#p5d2f273c4e)" d="M 59.076923 24.646154 
L 66.461538 24.646154 
L 66.461538 17.261538 
L 59.076923 17.261538 
L 59.076923 24.646154 
" style="fill:#ffbb3b;"/>
    <path clip-path="url(#p5d2f273c4e)" d="M 66.461538 24.646154 
L 73.846154 24.646154 
L 73.846154 17.261538 
L 66.461538 17.261538 
L 66.461538 24.646154 
" style="fill:#ffdb5b;"/>
    <path clip-path="url(#p5d2f273c4e)" d="M 73.846154 24.646154 
L 81.230769 24.646154 
L 81.230769 17.261538 
L 73.846154 17.261538 
L 73.846154 24.646154 
" style="fill:#ffc041;"/>
    <path clip-path="url(#p5d2f273c4e)" d="M 81.230769 24.646154 
L 88.615385 24.646154 
L 88.615385 17.261538 
L 81.230769 17.261538 
L 81.230769 24.646154 
" style="fill:#ffac2d;"/>
    <path clip-path="url(#p5d2f273c4e)" d="M 88.615385 24.646154 
L 96 24.646154 
L 96 17.261538 
L 88.615385 17.261538 
L 88.615385 24.646154 
" style="fill:#ffac2d;"/>
    <path clip-path="url(#p5d2f273c4e)" d="M 96 24.646154 
L 103.384615 24.646154 
L 103.384615 17.261538 
L 96 17.261538 
L 96 24.646154 
" style="fill:#ffffab;"/>
    <path clip-path="url(#p5d2f273c4e)" d="M 103.384615 24.646154 
L 110.769231 24.646154 
L 110.769231 17.261538 
L 103.384615 17.261538 
L 103.384615 24.646154 
" style="fill:#ffc041;"/>
    <path clip-path="url(#p5d2f273c4e)" d="M 110.769231 24.646154 
L 118.153846 24.646154 
L 118.153846 17.261538 
L 110.769231 17.261538 
L 110.769231 24.646154 
" style="fill:#ffdb5b;"/>
    <path clip-path="url(#p5d2f273c4e)" d="M 118.153846 24.646154 
L 125.538462 24.646154 
L 125.538462 17.261538 
L 118.153846 17.261538 
L 118.153846 24.646154 
" style="fill:#ffce4f;"/>
    <path clip-path="url(#p5d2f273c4e)" d="M 125.538462 24.646154 
L 132.923077 24.646154 
L 132.923077 17.261538 
L 125.538462 17.261538 
L 125.538462 24.646154 
" style="fill:#ffe263;"/>
    <path clip-path="url(#p5d2f273c4e)" d="M 132.923077 24.646154 
L 140.307692 24.646154 
L 140.307692 17.261538 
L 132.923077 17.261538 
L 132.923077 24.646154 
" style="fill:#ffc849;"/>
    <path clip-path="url(#p5d2f273c4e)" d="M 140.307692 24.646154 
L 147.692308 24.646154 
L 147.692308 17.261538 
L 140.307692 17.261538 
L 140.307692 24.646154 
" style="fill:#fff777;"/>
    <path clip-path="url(#p5d2f273c4e)" d="M 147.692308 24.646154 
L 155.076923 24.646154 
L 155.076923 17.261538 
L 147.692308 17.261538 
L 147.692308 24.646154 
" style="fill:#ffdb5b;"/>
    <path clip-path="url(#p5d2f273c4e)" d="M 155.076923 24.646154 
L 162.461538 24.646154 
L 162.461538 17.261538 
L 155.076923 17.261538 
L 155.076923 24.646154 
" style="fill:#ffee6f;"/>
    <path clip-path="url(#p5d2f273c4e)" d="M 162.461538 24.646154 
L 169.846154 24.646154 
L 169.846154 17.261538 
L 162.461538 17.261538 
L 162.461538 24.646154 
" style="fill:#fff777;"/>
    <path clip-path="url(#p5d2f273c4e)" d="M 169.846154 24.646154 
L 177.230769 24.646154 
L 177.230769 17.261538 
L 169.846154 17.261538 
L 169.846154 24.646154 
" style="fill:#ffe869;"/>
    <path clip-path="url(#p5d2f273c4e)" d="M 177.230769 24.646154 
L 184.615385 24.646154 
L 184.615385 17.261538 
L 177.230769 17.261538 
L 177.230769 24.646154 
" style="fill:#ffce4f;"/>
    <path clip-path="url(#p5d2f273c4e)" d="M 184.615385 24.646154 
L 192 24.646154 
L 192 17.261538 
L 184.615385 17.261538 
L 184.615385 24.646154 
" style="fill:#ffff89;"/>
    <path clip-path="url(#p5d2f273c4e)" d="M 192 24.646154 
L 199.384615 24.646154 
L 199.384615 17.261538 
L 192 17.261538 
L 192 24.646154 
" style="fill:#ffff91;"/>
    <path clip-path="url(#p5d2f273c4e)" d="M 199.384615 24.646154 
L 206.769231 24.646154 
L 206.769231 17.261538 
L 199.384615 17.261538 
L 199.384615 24.646154 
" style="fill:#fff777;"/>
    <path clip-path="url(#p5d2f273c4e)" d="M 206.769231 24.646154 
L 214.153846 24.646154 
L 214.153846 17.261538 
L 206.769231 17.261538 
L 206.769231 24.646154 
" style="fill:#ffce4f;"/>
    <path clip-path="url(#p5d2f273c4e)" d="M 214.153846 24.646154 
L 221.538462 24.646154 
L 221.538462 17.261538 
L 214.153846 17.261538 
L 214.153846 24.646154 
" style="fill:#ffd555;"/>
    <path clip-path="url(#p5d2f273c4e)" d="M 221.538462 24.646154 
L 228.923077 24.646154 
L 228.923077 17.261538 
L 221.538462 17.261538 
L 221.538462 24.646154 
" style="fill:#ffff91;"/>
    <path clip-path="url(#p5d2f273c4e)" d="M 228.923077 24.646154 
L 236.307692 24.646154 
L 236.307692 17.261538 
L 228.923077 17.261538 
L 228.923077 24.646154 
" style="fill:#ffff83;"/>
    <path clip-path="url(#p5d2f273c4e)" d="M 236.307692 24.646154 
L 243.692308 24.646154 
L 243.692308 17.261538 
L 236.307692 17.261538 
L 236.307692 24.646154 
" style="fill:#ffa627;"/>
    <path clip-path="url(#p5d2f273c4e)" d="M 243.692308 24.646154 
L 251.076923 24.646154 
L 251.076923 17.261538 
L 243.692308 17.261538 
L 243.692308 24.646154 
" style="fill:#ff8c0d;"/>
    <path clip-path="url(#p5d2f273c4e)" d="M 251.076923 24.646154 
L 258.461538 24.646154 
L 258.461538 17.261538 
L 251.076923 17.261538 
L 251.076923 24.646154 
" style="fill:#ec6d00;"/>
    <path clip-path="url(#p5d2f273c4e)" d="M 258.461538 24.646154 
L 265.846154 24.646154 
L 265.846154 17.261538 
L 258.461538 17.261538 
L 258.461538 24.646154 
" style="fill:#ffdb5b;"/>
    <path clip-path="url(#p5d2f273c4e)" d="M 265.846154 24.646154 
L 273.230769 24.646154 
L 273.230769 17.261538 
L 265.846154 17.261538 
L 265.846154 24.646154 
" style="fill:#ffff89;"/>
    <path clip-path="url(#p5d2f273c4e)" d="M 273.230769 24.646154 
L 280.615385 24.646154 
L 280.615385 17.261538 
L 273.230769 17.261538 
L 273.230769 24.646154 
" style="fill:#ffffcb;"/>
    <path clip-path="url(#p5d2f273c4e)" d="M 280.615385 24.646154 
L 288 24.646154 
L 288 17.261538 
L 280.615385 17.261538 
L 280.615385 24.646154 
" style="fill:#fffff3;"/>
    <path clip-path="url(#p5d2f273c4e)" d="M 0 17.261538 
L 7.384615 17.261538 
L 7.384615 9.876923 
L 0 9.876923 
L 0 17.261538 
" style="fill:#ffffff;"/>
    <path clip-path="url(#p5d2f273c4e)" d="M 7.384615 17.261538 
L 14.769231 17.261538 
L 14.769231 9.876923 
L 7.384615 9.876923 
L 7.384615 17.261538 
" style="fill:#fffff3;"/>
    <path clip-path="url(#p5d2f273c4e)" d="M 14.769231 17.261538 
L 22.153846 17.261538 
L 22.153846 9.876923 
L 14.769231 9.876923 
L 14.769231 17.261538 
" style="fill:#fffff3;"/>
    <path clip-path="url(#p5d2f273c4e)" d="M 22.153846 17.261538 
L 29.538462 17.261538 
L 29.538462 9.876923 
L 22.153846 9.876923 
L 22.153846 17.261538 
" style="fill:#ffffb7;"/>
    <path clip-path="url(#p5d2f273c4e)" d="M 29.538462 17.261538 
L 36.923077 17.261538 
L 36.923077 9.876923 
L 29.538462 9.876923 
L 29.538462 17.261538 
" style="fill:#ffffab;"/>
    <path clip-path="url(#p5d2f273c4e)" d="M 36.923077 17.261538 
L 44.307692 17.261538 
L 44.307692 9.876923 
L 36.923077 9.876923 
L 36.923077 17.261538 
" style="fill:#ffc041;"/>
    <path clip-path="url(#p5d2f273c4e)" d="M 44.307692 17.261538 
L 51.692308 17.261538 
L 51.692308 9.876923 
L 44.307692 9.876923 
L 44.307692 17.261538 
" style="fill:#fff777;"/>
    <path clip-path="url(#p5d2f273c4e)" d="M 51.692308 17.261538 
L 59.076923 17.261538 
L 59.076923 9.876923 
L 51.692308 9.876923 
L 51.692308 17.261538 
" style="fill:#ffbb3b;"/>
    <path clip-path="url(#p5d2f273c4e)" d="M 59.076923 17.261538 
L 66.461538 17.261538 
L 66.461538 9.876923 
L 59.076923 9.876923 
L 59.076923 17.261538 
" style="fill:#ffee6f;"/>
    <path clip-path="url(#p5d2f273c4e)" d="M 66.461538 17.261538 
L 73.846154 17.261538 
L 73.846154 9.876923 
L 66.461538 9.876923 
L 66.461538 17.261538 
" style="fill:#ffbb3b;"/>
    <path clip-path="url(#p5d2f273c4e)" d="M 73.846154 17.261538 
L 81.230769 17.261538 
L 81.230769 9.876923 
L 73.846154 9.876923 
L 73.846154 17.261538 
" style="fill:#ffff83;"/>
    <path clip-path="url(#p5d2f273c4e)" d="M 81.230769 17.261538 
L 88.615385 17.261538 
L 88.615385 9.876923 
L 81.230769 9.876923 
L 81.230769 17.261538 
" style="fill:#ffe869;"/>
    <path clip-path="url(#p5d2f273c4e)" d="M 88.615385 17.261538 
L 96 17.261538 
L 96 9.876923 
L 88.615385 9.876923 
L 88.615385 17.261538 
" style="fill:#ffe869;"/>
    <path clip-path="url(#p5d2f273c4e)" d="M 96 17.261538 
L 103.384615 17.261538 
L 103.384615 9.876923 
L 96 9.876923 
L 96 17.261538 
" style="fill:#fffc7d;"/>
    <path clip-path="url(#p5d2f273c4e)" d="M 103.384615 17.261538 
L 110.769231 17.261538 
L 110.769231 9.876923 
L 103.384615 9.876923 
L 103.384615 17.261538 
" style="fill:#ffff89;"/>
    <path clip-path="url(#p5d2f273c4e)" d="M 110.769231 17.261538 
L 118.153846 17.261538 
L 118.153846 9.876923 
L 110.769231 9.876923 
L 110.769231 17.261538 
" style="fill:#ffee6f;"/>
    <path clip-path="url(#p5d2f273c4e)" d="M 118.153846 17.261538 
L 125.538462 17.261538 
L 125.538462 9.876923 
L 118.153846 9.876923 
L 118.153846 17.261538 
" style="fill:#ffe263;"/>
    <path clip-path="url(#p5d2f273c4e)" d="M 125.538462 17.261538 
L 132.923077 17.261538 
L 132.923077 9.876923 
L 125.538462 9.876923 
L 125.538462 17.261538 
" style="fill:#ffff83;"/>
    <path clip-path="url(#p5d2f273c4e)" d="M 132.923077 17.261538 
L 140.307692 17.261538 
L 140.307692 9.876923 
L 132.923077 9.876923 
L 132.923077 17.261538 
" style="fill:#ffff91;"/>
    <path clip-path="url(#p5d2f273c4e)" d="M 140.307692 17.261538 
L 147.692308 17.261538 
L 147.692308 9.876923 
L 140.307692 9.876923 
L 140.307692 17.261538 
" style="fill:#ffff89;"/>
    <path clip-path="url(#p5d2f273c4e)" d="M 147.692308 17.261538 
L 155.076923 17.261538 
L 155.076923 9.876923 
L 147.692308 9.876923 
L 147.692308 17.261538 
" style="fill:#fff777;"/>
    <path clip-path="url(#p5d2f273c4e)" d="M 155.076923 17.261538 
L 162.461538 17.261538 
L 162.461538 9.876923 
L 155.076923 9.876923 
L 155.076923 17.261538 
" style="fill:#ffff97;"/>
    <path clip-path="url(#p5d2f273c4e)" d="M 162.461538 17.261538 
L 169.846154 17.261538 
L 169.846154 9.876923 
L 162.461538 9.876923 
L 162.461538 17.261538 
" style="fill:#ffff89;"/>
    <path clip-path="url(#p5d2f273c4e)" d="M 169.846154 17.261538 
L 177.230769 17.261538 
L 177.230769 9.876923 
L 169.846154 9.876923 
L 169.846154 17.261538 
" style="fill:#ffee6f;"/>
    <path clip-path="url(#p5d2f273c4e)" d="M 177.230769 17.261538 
L 184.615385 17.261538 
L 184.615385 9.876923 
L 177.230769 9.876923 
L 177.230769 17.261538 
" style="fill:#ffff97;"/>
    <path clip-path="url(#p5d2f273c4e)" d="M 184.615385 17.261538 
L 192 17.261538 
L 192 9.876923 
L 184.615385 9.876923 
L 184.615385 17.261538 
" style="fill:#ffdb5b;"/>
    <path clip-path="url(#p5d2f273c4e)" d="M 192 17.261538 
L 199.384615 17.261538 
L 199.384615 9.876923 
L 192 9.876923 
L 192 17.261538 
" style="fill:#ffdb5b;"/>
    <path clip-path="url(#p5d2f273c4e)" d="M 199.384615 17.261538 
L 206.769231 17.261538 
L 206.769231 9.876923 
L 199.384615 9.876923 
L 199.384615 17.261538 
" style="fill:#fffc7d;"/>
    <path clip-path="url(#p5d2f273c4e)" d="M 206.769231 17.261538 
L 214.153846 17.261538 
L 214.153846 9.876923 
L 206.769231 9.876923 
L 206.769231 17.261538 
" style="fill:#fffc7d;"/>
    <path clip-path="url(#p5d2f273c4e)" d="M 214.153846 17.261538 
L 221.538462 17.261538 
L 221.538462 9.876923 
L 214.153846 9.876923 
L 214.153846 17.261538 
" style="fill:#fff777;"/>
    <path clip-path="url(#p5d2f273c4e)" d="M 221.538462 17.261538 
L 228.923077 17.261538 
L 228.923077 9.876923 
L 221.538462 9.876923 
L 221.538462 17.261538 
" style="fill:#ffbb3b;"/>
    <path clip-path="url(#p5d2f273c4e)" d="M 228.923077 17.261538 
L 236.307692 17.261538 
L 236.307692 9.876923 
L 228.923077 9.876923 
L 228.923077 17.261538 
" style="fill:#ffffa5;"/>
    <path clip-path="url(#p5d2f273c4e)" d="M 236.307692 17.261538 
L 243.692308 17.261538 
L 243.692308 9.876923 
L 236.307692 9.876923 
L 236.307692 17.261538 
" style="fill:#ffff89;"/>
    <path clip-path="url(#p5d2f273c4e)" d="M 243.692308 17.261538 
L 251.076923 17.261538 
L 251.076923 9.876923 
L 243.692308 9.876923 
L 243.692308 17.261538 
" style="fill:#ffff89;"/>
    <path clip-path="url(#p5d2f273c4e)" d="M 251.076923 17.261538 
L 258.461538 17.261538 
L 258.461538 9.876923 
L 251.076923 9.876923 
L 251.076923 17.261538 
" style="fill:#ffffab;"/>
    <path clip-path="url(#p5d2f273c4e)" d="M 258.461538 17.261538 
L 265.846154 17.261538 
L 265.846154 9.876923 
L 258.461538 9.876923 
L 258.461538 17.261538 
" style="fill:#ffffc5;"/>
    <path clip-path="url(#p5d2f273c4e)" d="M 265.846154 17.261538 
L 273.230769 17.261538 
L 273.230769 9.876923 
L 265.846154 9.876923 
L 265.846154 17.261538 
" style="fill:#ffffc5;"/>
    <path clip-path="url(#p5d2f273c4e)" d="M 273.230769 17.261538 
L 280.615385 17.261538 
L 280.615385 9.876923 
L 273.230769 9.876923 
L 273.230769 17.261538 
" style="fill:#fffff3;"/>
    <path clip-path="url(#p5d2f273c4e)" d="M 280.615385 17.261538 
L 288 17.261538 
L 288 9.876923 
L 280.615385 9.876923 
L 280.615385 17.261538 
" style="fill:#ffffff;"/>
    <path clip-path="url(#p5d2f273c4e)" d="M 0 9.876923 
L 7.384615 9.876923 
L 7.384615 2.492308 
L 0 2.492308 
L 0 9.876923 
" style="fill:#fffff9;"/>
    <path clip-path="url(#p5d2f273c4e)" d="M 7.384615 9.876923 
L 14.769231 9.876923 
L 14.769231 2.492308 
L 7.384615 2.492308 
L 7.384615 9.876923 
" style="fill:#ffffff;"/>
    <path clip-path="url(#p5d2f273c4e)" d="M 14.769231 9.876923 
L 22.153846 9.876923 
L 22.153846 2.492308 
L 14.769231 2.492308 
L 14.769231 9.876923 
" style="fill:#fffff9;"/>
    <path clip-path="url(#p5d2f273c4e)" d="M 22.153846 9.876923 
L 29.538462 9.876923 
L 29.538462 2.492308 
L 22.153846 2.492308 
L 22.153846 9.876923 
" style="fill:#fffff3;"/>
    <path clip-path="url(#p5d2f273c4e)" d="M 29.538462 9.876923 
L 36.923077 9.876923 
L 36.923077 2.492308 
L 29.538462 2.492308 
L 29.538462 9.876923 
" style="fill:#ffffdf;"/>
    <path clip-path="url(#p5d2f273c4e)" d="M 36.923077 9.876923 
L 44.307692 9.876923 
L 44.307692 2.492308 
L 36.923077 2.492308 
L 36.923077 9.876923 
" style="fill:#fffff9;"/>
    <path clip-path="url(#p5d2f273c4e)" d="M 44.307692 9.876923 
L 51.692308 9.876923 
L 51.692308 2.492308 
L 44.307692 2.492308 
L 44.307692 9.876923 
" style="fill:#ffffd9;"/>
    <path clip-path="url(#p5d2f273c4e)" d="M 51.692308 9.876923 
L 59.076923 9.876923 
L 59.076923 2.492308 
L 51.692308 2.492308 
L 51.692308 9.876923 
" style="fill:#ffffd9;"/>
    <path clip-path="url(#p5d2f273c4e)" d="M 59.076923 9.876923 
L 66.461538 9.876923 
L 66.461538 2.492308 
L 59.076923 2.492308 
L 59.076923 9.876923 
" style="fill:#ffffc5;"/>
    <path clip-path="url(#p5d2f273c4e)" d="M 66.461538 9.876923 
L 73.846154 9.876923 
L 73.846154 2.492308 
L 66.461538 2.492308 
L 66.461538 9.876923 
" style="fill:#ffffdf;"/>
    <path clip-path="url(#p5d2f273c4e)" d="M 73.846154 9.876923 
L 81.230769 9.876923 
L 81.230769 2.492308 
L 73.846154 2.492308 
L 73.846154 9.876923 
" style="fill:#ffffb7;"/>
    <path clip-path="url(#p5d2f273c4e)" d="M 81.230769 9.876923 
L 88.615385 9.876923 
L 88.615385 2.492308 
L 81.230769 2.492308 
L 81.230769 9.876923 
" style="fill:#fffff3;"/>
    <path clip-path="url(#p5d2f273c4e)" d="M 88.615385 9.876923 
L 96 9.876923 
L 96 2.492308 
L 88.615385 2.492308 
L 88.615385 9.876923 
" style="fill:#ffffd9;"/>
    <path clip-path="url(#p5d2f273c4e)" d="M 96 9.876923 
L 103.384615 9.876923 
L 103.384615 2.492308 
L 96 2.492308 
L 96 9.876923 
" style="fill:#ffffd3;"/>
    <path clip-path="url(#p5d2f273c4e)" d="M 103.384615 9.876923 
L 110.769231 9.876923 
L 110.769231 2.492308 
L 103.384615 2.492308 
L 103.384615 9.876923 
" style="fill:#ffffbf;"/>
    <path clip-path="url(#p5d2f273c4e)" d="M 110.769231 9.876923 
L 118.153846 9.876923 
L 118.153846 2.492308 
L 110.769231 2.492308 
L 110.769231 9.876923 
" style="fill:#ffffdf;"/>
    <path clip-path="url(#p5d2f273c4e)" d="M 118.153846 9.876923 
L 125.538462 9.876923 
L 125.538462 2.492308 
L 118.153846 2.492308 
L 118.153846 9.876923 
" style="fill:#ffffd9;"/>
    <path clip-path="url(#p5d2f273c4e)" d="M 125.538462 9.876923 
L 132.923077 9.876923 
L 132.923077 2.492308 
L 125.538462 2.492308 
L 125.538462 9.876923 
" style="fill:#ffffb7;"/>
    <path clip-path="url(#p5d2f273c4e)" d="M 132.923077 9.876923 
L 140.307692 9.876923 
L 140.307692 2.492308 
L 132.923077 2.492308 
L 132.923077 9.876923 
" style="fill:#ffffdf;"/>
    <path clip-path="url(#p5d2f273c4e)" d="M 140.307692 9.876923 
L 147.692308 9.876923 
L 147.692308 2.492308 
L 140.307692 2.492308 
L 140.307692 9.876923 
" style="fill:#ffffe5;"/>
    <path clip-path="url(#p5d2f273c4e)" d="M 147.692308 9.876923 
L 155.076923 9.876923 
L 155.076923 2.492308 
L 147.692308 2.492308 
L 147.692308 9.876923 
" style="fill:#ffffdf;"/>
    <path clip-path="url(#p5d2f273c4e)" d="M 155.076923 9.876923 
L 162.461538 9.876923 
L 162.461538 2.492308 
L 155.076923 2.492308 
L 155.076923 9.876923 
" style="fill:#ffffd9;"/>
    <path clip-path="url(#p5d2f273c4e)" d="M 162.461538 9.876923 
L 169.846154 9.876923 
L 169.846154 2.492308 
L 162.461538 2.492308 
L 162.461538 9.876923 
" style="fill:#ffffbf;"/>
    <path clip-path="url(#p5d2f273c4e)" d="M 169.846154 9.876923 
L 177.230769 9.876923 
L 177.230769 2.492308 
L 169.846154 2.492308 
L 169.846154 9.876923 
" style="fill:#ffffdf;"/>
    <path clip-path="url(#p5d2f273c4e)" d="M 177.230769 9.876923 
L 184.615385 9.876923 
L 184.615385 2.492308 
L 177.230769 2.492308 
L 177.230769 9.876923 
" style="fill:#ffffe5;"/>
    <path clip-path="url(#p5d2f273c4e)" d="M 184.615385 9.876923 
L 192 9.876923 
L 192 2.492308 
L 184.615385 2.492308 
L 184.615385 9.876923 
" style="fill:#ffffd3;"/>
    <path clip-path="url(#p5d2f273c4e)" d="M 192 9.876923 
L 199.384615 9.876923 
L 199.384615 2.492308 
L 192 2.492308 
L 192 9.876923 
" style="fill:#ffffab;"/>
    <path clip-path="url(#p5d2f273c4e)" d="M 199.384615 9.876923 
L 206.769231 9.876923 
L 206.769231 2.492308 
L 199.384615 2.492308 
L 199.384615 9.876923 
" style="fill:#ffffab;"/>
    <path clip-path="url(#p5d2f273c4e)" d="M 206.769231 9.876923 
L 214.153846 9.876923 
L 214.153846 2.492308 
L 206.769231 2.492308 
L 206.769231 9.876923 
" style="fill:#ffffc5;"/>
    <path clip-path="url(#p5d2f273c4e)" d="M 214.153846 9.876923 
L 221.538462 9.876923 
L 221.538462 2.492308 
L 214.153846 2.492308 
L 214.153846 9.876923 
" style="fill:#ffffcb;"/>
    <path clip-path="url(#p5d2f273c4e)" d="M 221.538462 9.876923 
L 228.923077 9.876923 
L 228.923077 2.492308 
L 221.538462 2.492308 
L 221.538462 9.876923 
" style="fill:#ffffd3;"/>
    <path clip-path="url(#p5d2f273c4e)" d="M 228.923077 9.876923 
L 236.307692 9.876923 
L 236.307692 2.492308 
L 228.923077 2.492308 
L 228.923077 9.876923 
" style="fill:#ffffd3;"/>
    <path clip-path="url(#p5d2f273c4e)" d="M 236.307692 9.876923 
L 243.692308 9.876923 
L 243.692308 2.492308 
L 236.307692 2.492308 
L 236.307692 9.876923 
" style="fill:#ffffd9;"/>
    <path clip-path="url(#p5d2f273c4e)" d="M 243.692308 9.876923 
L 251.076923 9.876923 
L 251.076923 2.492308 
L 243.692308 2.492308 
L 243.692308 9.876923 
" style="fill:#ffffe5;"/>
    <path clip-path="url(#p5d2f273c4e)" d="M 251.076923 9.876923 
L 258.461538 9.876923 
L 258.461538 2.492308 
L 251.076923 2.492308 
L 251.076923 9.876923 
" style="fill:#ffffdf;"/>
    <path clip-path="url(#p5d2f273c4e)" d="M 258.461538 9.876923 
L 265.846154 9.876923 
L 265.846154 2.492308 
L 258.461538 2.492308 
L 258.461538 9.876923 
" style="fill:#ffffe5;"/>
    <path clip-path="url(#p5d2f273c4e)" d="M 265.846154 9.876923 
L 273.230769 9.876923 
L 273.230769 2.492308 
L 265.846154 2.492308 
L 265.846154 9.876923 
" style="fill:#fffff3;"/>
    <path clip-path="url(#p5d2f273c4e)" d="M 273.230769 9.876923 
L 280.615385 9.876923 
L 280.615385 2.492308 
L 273.230769 2.492308 
L 273.230769 9.876923 
" style="fill:#ffffff;"/>
    <path clip-path="url(#p5d2f273c4e)" d="M 280.615385 9.876923 
L 288 9.876923 
L 288 2.492308 
L 280.615385 2.492308 
L 280.615385 9.876923 
" style="fill:#ffffff;"/>
   </g>
  </g>
 </g>
 <defs>
  <clipPath id="p5d2f273c4e">
   <rect height="88.6153846154" width="288.0" x="0.0" y="2.49230769231"/>
  </clipPath>
 </defs>
</svg>
