<?xml version="1.0" encoding="utf-8" standalone="no"?>
<!DOCTYPE svg PUBLIC "-//W3C//DTD SVG 1.1//EN"
  "http://www.w3.org/Graphics/SVG/1.1/DTD/svg11.dtd">
<!-- Created with matplotlib (http://matplotlib.org/) -->
<svg height="226pt" version="1.1" viewBox="0 0 282 226" width="282pt" xmlns="http://www.w3.org/2000/svg" xmlns:xlink="http://www.w3.org/1999/xlink">
 <defs>
  <style type="text/css">
*{stroke-linecap:butt;stroke-linejoin:round;stroke-miterlimit:100000;}
  </style>
 </defs>
 <g id="figure_1">
  <g id="patch_1">
   <path d="M 0 226.40325 
L 282.9232 226.40325 
L 282.9232 0 
L 0 0 
z
" style="fill:#ffffff;"/>
  </g>
  <g id="axes_1">
   <g id="patch_2">
    <path d="M 44.7763 184.20665 
L 267.9763 184.20665 
L 267.9763 11.40665 
L 44.7763 11.40665 
z
" style="fill:#ffffff;"/>
   </g>
   <g id="line2d_1">
    <path clip-path="url(#pae8b5cd98f)" d="M 44.7763 44.931264 
L 267.9763 44.931264 
" style="fill:none;stroke:#000000;stroke-dasharray:1.000000,3.000000;stroke-dashoffset:0.0;stroke-width:2.0;"/>
   </g>
   <g id="line2d_2">
    <path clip-path="url(#pae8b5cd98f)" d="M 44.7763 81.840174 
L 267.9763 81.840174 
" style="fill:none;stroke:#000000;stroke-dasharray:1.000000,3.000000;stroke-dashoffset:0.0;stroke-width:2.0;"/>
   </g>
   <g id="line2d_3">
    <path clip-path="url(#pae8b5cd98f)" d="M 1.879732 194.468539 
L 216.803596 -1 
L 216.803596 -1 
" style="fill:none;stroke:#4daf4a;stroke-dasharray:1.000000,3.000000;stroke-dashoffset:0.0;"/>
   </g>
   <g id="line2d_4">
    <path clip-path="url(#pae8b5cd98f)" d="M 1.879732 187.54764 
L 232.228749 -1 
L 232.228749 -1 
" style="fill:none;stroke:#4daf4a;stroke-dasharray:6.000000,6.000000;stroke-dashoffset:0.0;"/>
   </g>
   <g id="line2d_5">
    <path clip-path="url(#pae8b5cd98f)" d="M 1.879732 213.335691 
L 7.85551 204.224368 
L 13.258289 196.364535 
L 18.516433 189.098885 
L 23.871965 182.110945 
L 28.577208 176.315799 
L 33.891823 170.135021 
L 39.223261 164.27063 
L 45.225215 157.996943 
L 52.568889 150.666349 
L 59.904062 143.616211 
L 68.569992 135.526161 
L 83.909714 121.657234 
L 112.586959 96.958058 
L 121.256487 89.749751 
L 124.590991 87.057993 
L 128.592363 83.792251 
L 131.260093 81.680859 
L 144.598194 71.320464 
L 145.93195 70.413902 
L 147.265767 69.426491 
L 153.934877 64.632629 
L 155.26874 63.669451 
L 158.603255 61.467844 
L 161.270918 59.8692 
L 162.604732 58.883269 
L 163.271663 58.608743 
L 164.605448 57.741291 
L 172.608356 53.380144 
L 176.609794 51.467943 
L 177.276727 51.359793 
L 178.610544 50.660382 
L 179.277432 50.494687 
L 179.944341 50.169033 
L 180.611261 50.040918 
L 181.278162 49.618723 
L 182.611982 49.536156 
L 183.278895 49.058895 
L 183.945805 48.825268 
L 184.612704 48.796325 
L 186.613432 48.159437 
L 187.280358 48.147968 
L 187.947253 47.804056 
L 188.614171 47.846038 
L 189.281083 47.409702 
L 189.947977 47.391435 
L 190.614893 47.108576 
L 191.948705 46.991547 
L 192.615617 46.7562 
L 193.282528 46.799695 
L 193.94943 46.977129 
L 194.61634 46.623023 
L 195.95016 46.342436 
L 196.617075 46.289492 
L 197.283977 46.361881 
L 197.950893 46.239675 
L 199.951608 46.357339 
L 201.285434 45.896088 
L 201.952343 46.14491 
L 203.286158 45.764989 
L 203.953062 45.920067 
L 204.619975 45.711459 
L 205.286879 45.998481 
L 206.620702 45.724137 
L 207.28761 46.014598 
L 207.954515 45.807134 
L 209.955247 45.96492 
L 210.622154 45.846237 
L 211.28906 46.045896 
L 211.955972 45.62047 
L 212.622879 45.856351 
L 213.28979 45.626925 
L 213.956695 46.191874 
L 214.623606 45.585028 
L 215.290516 45.6596 
L 215.957423 46.004603 
L 216.624329 46.128252 
L 217.291241 45.997663 
L 217.95815 45.606413 
L 218.625057 45.914321 
L 219.291965 45.436239 
L 219.958875 45.921608 
L 221.292693 46.381931 
L 221.959602 45.848811 
L 222.626509 46.297972 
L 224.627235 45.823865 
L 228.628686 46.099328 
L 229.295597 45.838852 
L 229.962504 46.287367 
L 230.629414 46.047217 
L 231.963232 46.206605 
L 232.630138 45.913471 
L 233.297047 45.942017 
L 233.963956 46.296906 
L 234.630865 45.695538 
L 235.297775 46.415595 
L 236.631591 45.380485 
L 237.965408 45.470599 
L 238.632318 46.423604 
L 239.299226 45.735106 
L 239.966134 46.009156 
L 240.633044 45.544056 
L 241.299952 46.195471 
L 241.966861 46.172866 
L 242.633769 45.507441 
L 243.300678 46.341277 
L 243.967587 46.597421 
L 244.634496 46.309543 
L 245.301404 45.616883 
L 245.968313 45.61657 
L 246.635222 46.096465 
L 247.30213 45.671462 
L 247.969039 46.09227 
L 248.635948 45.919515 
L 249.969765 45.955583 
L 250.636674 46.290475 
L 251.303583 45.847956 
L 252.6374 46.211811 
L 253.304309 45.013054 
L 253.971218 46.226617 
L 255.305035 46.525275 
L 255.971943 46.619231 
L 256.638852 46.200002 
L 257.305761 45.261677 
L 257.97267 46.704416 
L 258.639578 46.079374 
L 259.306487 47.129184 
L 259.973396 46.239763 
L 260.640304 44.691605 
L 261.307213 46.245831 
L 261.974122 46.167304 
L 262.641031 46.291914 
L 263.307939 46.984385 
L 263.974848 45.365377 
L 265.308665 46.437109 
L 265.975574 47.357505 
L 266.642483 46.015995 
L 267.309391 47.361764 
L 267.9763 45.879651 
L 267.9763 45.879651 
" style="fill:none;stroke:#4daf4a;stroke-linecap:square;stroke-width:2.0;"/>
   </g>
   <g id="line2d_6">
    <path clip-path="url(#pae8b5cd98f)" d="M 1.879732 220.333117 
L 245.242519 -1 
L 245.242519 -1 
" style="fill:none;stroke:#984ea3;stroke-dasharray:1.000000,3.000000;stroke-dashoffset:0.0;"/>
   </g>
   <g id="line2d_7">
    <path clip-path="url(#pae8b5cd98f)" d="M 1.879732 213.412218 
L 263.827553 -1 
L 263.827553 -1 
" style="fill:none;stroke:#984ea3;stroke-dasharray:6.000000,6.000000;stroke-dashoffset:0.0;"/>
   </g>
   <g id="line2d_8">
    <path clip-path="url(#pae8b5cd98f)" d="M 9.671432 227.40325 
L 14.548015 220.414542 
L 19.870801 213.167183 
L 24.542883 207.147639 
L 29.891594 200.641684 
L 35.212252 194.548231 
L 40.556307 188.755842 
L 46.55405 182.551811 
L 54.562007 174.646134 
L 64.566629 165.163166 
L 73.903509 156.58395 
L 84.576546 147.004944 
L 92.579142 139.939847 
L 114.587614 121.112023 
L 133.927741 105.321401 
L 159.270195 85.460601 
L 161.937791 83.443739 
L 163.938562 81.829078 
L 173.275274 74.639117 
L 177.943634 71.250328 
L 178.610544 70.414909 
L 179.944341 69.686699 
L 181.945075 67.983948 
L 182.611982 67.64208 
L 183.945805 66.527514 
L 184.612704 66.144226 
L 186.613432 64.508539 
L 187.280358 64.200073 
L 187.947253 63.519389 
L 188.614171 63.246258 
L 189.281083 62.433033 
L 190.614893 61.689285 
L 196.617075 57.389588 
L 197.283977 57.184139 
L 199.284703 55.566968 
L 199.951608 55.133517 
L 200.61852 55.01422 
L 201.952343 53.734251 
L 202.619251 53.553464 
L 203.286158 52.880745 
L 203.953062 52.813294 
L 205.286879 51.690528 
L 207.954515 50.441955 
L 208.621425 49.922191 
L 209.288338 49.744039 
L 210.622154 48.67227 
L 211.28906 48.590403 
L 211.955972 48.178792 
L 213.28979 47.695306 
L 214.623606 46.730767 
L 215.290516 46.681862 
L 216.624329 46.236523 
L 217.291241 46.001793 
L 217.95815 45.416996 
L 218.625057 45.355392 
L 219.291965 44.734768 
L 219.958875 44.823195 
L 220.625782 44.353372 
L 221.959602 43.905342 
L 223.293418 44.141695 
L 224.627235 42.840995 
L 225.961051 42.669744 
L 227.961778 42.01148 
L 229.295597 42.081002 
L 229.962504 41.675812 
L 230.629414 41.555978 
L 231.296322 41.291991 
L 231.963232 41.213386 
L 232.630138 41.455293 
L 233.297047 41.333499 
L 233.963956 41.828261 
L 234.630865 41.437908 
L 235.297775 41.4949 
L 235.964684 41.314811 
L 236.631591 40.618874 
L 237.298501 40.777162 
L 237.965408 41.113482 
L 239.299226 40.930925 
L 239.966134 41.464012 
L 241.299952 40.606714 
L 241.966861 41.354358 
L 243.967587 40.588091 
L 245.301404 40.539172 
L 245.968313 40.447886 
L 246.635222 40.480443 
L 247.30213 39.902247 
L 247.969039 39.927632 
L 248.635948 40.220868 
L 249.302856 39.553836 
L 249.969765 39.949443 
L 251.970492 39.86331 
L 252.6374 39.905899 
L 253.304309 39.632241 
L 253.971218 39.667569 
L 254.638126 40.40587 
L 255.305035 40.481206 
L 255.971943 40.206398 
L 256.638852 40.781341 
L 257.305761 41.182472 
L 257.97267 40.925246 
L 258.639578 41.174997 
L 259.306487 41.2448 
L 259.973396 41.615581 
L 260.640304 40.455896 
L 261.307213 39.575058 
L 261.974122 39.083987 
L 262.641031 39.79589 
L 263.974848 40.017021 
L 264.641757 39.861129 
L 265.308665 39.579024 
L 265.975574 39.973101 
L 266.642483 39.395018 
L 267.309391 39.388307 
L 267.9763 39.70496 
L 267.9763 39.70496 
" style="fill:none;stroke:#984ea3;stroke-linecap:square;stroke-width:2.0;"/>
   </g>
   <g id="line2d_9">
    <path clip-path="url(#pae8b5cd98f)" d="M 22.373151 227.40325 
L 267.9763 4.032573 
L 267.9763 4.032573 
" style="fill:none;stroke:#ff7f00;stroke-dasharray:1.000000,3.000000;stroke-dashoffset:0.0;"/>
   </g>
   <g id="line2d_10">
    <path clip-path="url(#pae8b5cd98f)" d="M 16.194921 227.40325 
L 267.9763 21.312573 
L 267.9763 21.312573 
" style="fill:none;stroke:#ff7f00;stroke-dasharray:6.000000,6.000000;stroke-dashoffset:0.0;"/>
   </g>
   <g id="line2d_11">
    <path clip-path="url(#pae8b5cd98f)" d="M 28.896917 227.40325 
L 33.891823 221.594002 
L 39.887481 215.015395 
L 45.225215 209.431708 
L 53.896712 200.782787 
L 63.236325 191.833858 
L 73.239486 182.535886 
L 81.240697 175.245141 
L 91.246157 166.247117 
L 95.913016 162.104044 
L 101.248796 157.411999 
L 133.260807 130.003914 
L 144.598194 120.792848 
L 149.9334 116.601179 
L 151.934208 114.910928 
L 159.270195 109.316972 
L 161.270918 107.657326 
L 165.272378 104.752488 
L 166.606174 103.608465 
L 167.940001 102.671287 
L 169.940727 101.149568 
L 172.608356 99.089117 
L 173.275274 98.542928 
L 173.942182 98.178904 
L 176.609794 96.04185 
L 186.613432 88.528406 
L 187.280358 88.214912 
L 187.947253 87.347306 
L 189.281083 86.447401 
L 191.281793 84.988066 
L 191.948705 84.346079 
L 192.615617 83.869087 
L 193.282528 83.561938 
L 194.61634 82.369934 
L 195.28325 82.039771 
L 196.617075 81.00762 
L 197.283977 80.584154 
L 198.6178 79.156535 
L 199.284703 78.950289 
L 199.951608 78.141611 
L 200.61852 77.878011 
L 201.285434 77.132428 
L 201.952343 76.946085 
L 204.619975 74.697115 
L 205.286879 74.408445 
L 205.953794 73.701061 
L 206.620702 73.540439 
L 207.28761 72.733592 
L 210.622154 70.040114 
L 211.28906 69.553595 
L 211.955972 69.265088 
L 212.622879 68.41557 
L 213.28979 68.232435 
L 213.956695 67.800993 
L 215.290516 66.445946 
L 217.95815 64.623953 
L 219.291965 63.431027 
L 219.958875 63.019205 
L 220.625782 62.365123 
L 221.292693 62.167069 
L 221.959602 61.74817 
L 222.626509 61.050233 
L 223.293418 60.546281 
L 223.960328 59.842557 
L 224.627235 59.824694 
L 225.294145 59.127199 
L 225.961051 59.075787 
L 226.627962 58.155122 
L 227.294869 57.450176 
L 227.961778 57.676462 
L 228.628686 56.535123 
L 229.295597 56.351448 
L 229.962504 55.476276 
L 231.296322 55.712316 
L 231.963232 55.146636 
L 232.630138 54.408268 
L 233.297047 53.867224 
L 233.963956 53.52653 
L 234.630865 52.874971 
L 235.297775 53.145179 
L 235.964684 52.516784 
L 239.299226 50.283524 
L 239.966134 50.789239 
L 240.633044 50.470601 
L 241.299952 49.74573 
L 241.966861 49.478138 
L 243.300678 47.923056 
L 243.967587 47.893593 
L 244.634496 47.525074 
L 245.968313 47.475635 
L 246.635222 47.575684 
L 247.30213 47.141859 
L 247.969039 46.481157 
L 249.302856 45.714271 
L 249.969765 45.316048 
L 250.636674 45.401601 
L 251.303583 44.25204 
L 252.6374 44.690055 
L 253.971218 43.415634 
L 254.638126 43.37249 
L 255.305035 42.629573 
L 255.971943 42.362197 
L 256.638852 42.499981 
L 257.305761 42.416243 
L 257.97267 42.112709 
L 259.306487 41.991557 
L 259.973396 41.681596 
L 260.640304 41.608593 
L 261.307213 41.160527 
L 261.974122 41.191984 
L 262.641031 40.488004 
L 263.307939 40.207709 
L 263.974848 40.535483 
L 265.308665 40.168293 
L 265.975574 40.215143 
L 266.642483 40.102148 
L 267.309391 39.707953 
L 267.9763 40.324425 
L 267.9763 40.324425 
" style="fill:none;stroke:#ff7f00;stroke-linecap:square;stroke-width:2.0;"/>
   </g>
   <g id="patch_3">
    <path d="M 267.9763 184.20665 
L 267.9763 11.40665 
" style="fill:none;stroke:#000000;stroke-linecap:square;stroke-linejoin:miter;"/>
   </g>
   <g id="patch_4">
    <path d="M 44.7763 184.20665 
L 267.9763 184.20665 
" style="fill:none;stroke:#000000;stroke-linecap:square;stroke-linejoin:miter;"/>
   </g>
   <g id="patch_5">
    <path d="M 44.7763 11.40665 
L 267.9763 11.40665 
" style="fill:none;stroke:#000000;stroke-linecap:square;stroke-linejoin:miter;"/>
   </g>
   <g id="patch_6">
    <path d="M 44.7763 184.20665 
L 44.7763 11.40665 
" style="fill:none;stroke:#000000;stroke-linecap:square;stroke-linejoin:miter;"/>
   </g>
   <g id="matplotlib.axis_1">
    <g id="xtick_1">
     <g id="line2d_12">
      <defs>
       <path d="M 0 0 
L 0 -4 
" id="m82567a1b43" style="stroke:#000000;stroke-width:0.5;"/>
      </defs>
      <g>
       <use style="stroke:#000000;stroke-width:0.5;" x="77.9772152695" xlink:href="#m82567a1b43" y="184.20665"/>
      </g>
     </g>
     <g id="line2d_13">
      <defs>
       <path d="M 0 0 
L 0 4 
" id="m30240c78bc" style="stroke:#000000;stroke-width:0.5;"/>
      </defs>
      <g>
       <use style="stroke:#000000;stroke-width:0.5;" x="77.9772152695" xlink:href="#m30240c78bc" y="11.40665"/>
      </g>
     </g>
     <g id="text_1">
      <!-- $\mathdefault{10^{0}}$ -->
      <defs>
       <path d="M 12.40625 8.296875 
L 28.515625 8.296875 
L 28.515625 63.921875 
L 10.984375 60.40625 
L 10.984375 69.390625 
L 28.421875 72.90625 
L 38.28125 72.90625 
L 38.28125 8.296875 
L 54.390625 8.296875 
L 54.390625 0 
L 12.40625 0 
z
" id="BitstreamVeraSans-Roman-31"/>
       <path d="M 31.78125 66.40625 
Q 24.171875 66.40625 20.328125 58.90625 
Q 16.5 51.421875 16.5 36.375 
Q 16.5 21.390625 20.328125 13.890625 
Q 24.171875 6.390625 31.78125 6.390625 
Q 39.453125 6.390625 43.28125 13.890625 
Q 47.125 21.390625 47.125 36.375 
Q 47.125 51.421875 43.28125 58.90625 
Q 39.453125 66.40625 31.78125 66.40625 
M 31.78125 74.21875 
Q 44.046875 74.21875 50.515625 64.515625 
Q 56.984375 54.828125 56.984375 36.375 
Q 56.984375 17.96875 50.515625 8.265625 
Q 44.046875 -1.421875 31.78125 -1.421875 
Q 19.53125 -1.421875 13.0625 8.265625 
Q 6.59375 17.96875 6.59375 36.375 
Q 6.59375 54.828125 13.0625 64.515625 
Q 19.53125 74.21875 31.78125 74.21875 
" id="BitstreamVeraSans-Roman-30"/>
      </defs>
      <g transform="translate(70.2303152695 194.970870313)scale(0.0833 -0.0833)">
       <use transform="translate(0.0 0.796875)" xlink:href="#BitstreamVeraSans-Roman-31"/>
       <use transform="translate(63.623046875 0.796875)" xlink:href="#BitstreamVeraSans-Roman-30"/>
       <use transform="translate(132.75859375 48.046875)scale(0.7)" xlink:href="#BitstreamVeraSans-Roman-30"/>
      </g>
     </g>
    </g>
    <g id="xtick_2">
     <g id="line2d_14">
      <g>
       <use style="stroke:#000000;stroke-width:0.5;" x="125.476986452" xlink:href="#m82567a1b43" y="184.20665"/>
      </g>
     </g>
     <g id="line2d_15">
      <g>
       <use style="stroke:#000000;stroke-width:0.5;" x="125.476986452" xlink:href="#m30240c78bc" y="11.40665"/>
      </g>
     </g>
     <g id="text_2">
      <!-- $\mathdefault{10^{1}}$ -->
      <g transform="translate(117.730086452 194.887570313)scale(0.0833 -0.0833)">
       <use transform="translate(0.0 0.7156250000000028)" xlink:href="#BitstreamVeraSans-Roman-31"/>
       <use transform="translate(63.623046875 0.7156250000000028)" xlink:href="#BitstreamVeraSans-Roman-30"/>
       <use transform="translate(132.75859375 47.965625)scale(0.7)" xlink:href="#BitstreamVeraSans-Roman-31"/>
      </g>
     </g>
    </g>
    <g id="xtick_3">
     <g id="line2d_16">
      <g>
       <use style="stroke:#000000;stroke-width:0.5;" x="172.976757635" xlink:href="#m82567a1b43" y="184.20665"/>
      </g>
     </g>
     <g id="line2d_17">
      <g>
       <use style="stroke:#000000;stroke-width:0.5;" x="172.976757635" xlink:href="#m30240c78bc" y="11.40665"/>
      </g>
     </g>
     <g id="text_3">
      <!-- $\mathdefault{10^{2}}$ -->
      <defs>
       <path d="M 19.1875 8.296875 
L 53.609375 8.296875 
L 53.609375 0 
L 7.328125 0 
L 7.328125 8.296875 
Q 12.9375 14.109375 22.625 23.890625 
Q 32.328125 33.6875 34.8125 36.53125 
Q 39.546875 41.84375 41.421875 45.53125 
Q 43.3125 49.21875 43.3125 52.78125 
Q 43.3125 58.59375 39.234375 62.25 
Q 35.15625 65.921875 28.609375 65.921875 
Q 23.96875 65.921875 18.8125 64.3125 
Q 13.671875 62.703125 7.8125 59.421875 
L 7.8125 69.390625 
Q 13.765625 71.78125 18.9375 73 
Q 24.125 74.21875 28.421875 74.21875 
Q 39.75 74.21875 46.484375 68.546875 
Q 53.21875 62.890625 53.21875 53.421875 
Q 53.21875 48.921875 51.53125 44.890625 
Q 49.859375 40.875 45.40625 35.40625 
Q 44.1875 33.984375 37.640625 27.21875 
Q 31.109375 20.453125 19.1875 8.296875 
" id="BitstreamVeraSans-Roman-32"/>
      </defs>
      <g transform="translate(165.229857635 194.970870313)scale(0.0833 -0.0833)">
       <use transform="translate(0.0 0.796875)" xlink:href="#BitstreamVeraSans-Roman-31"/>
       <use transform="translate(63.623046875 0.796875)" xlink:href="#BitstreamVeraSans-Roman-30"/>
       <use transform="translate(132.75859375 48.046875)scale(0.7)" xlink:href="#BitstreamVeraSans-Roman-32"/>
      </g>
     </g>
    </g>
    <g id="xtick_4">
     <g id="line2d_18">
      <g>
       <use style="stroke:#000000;stroke-width:0.5;" x="220.476528817" xlink:href="#m82567a1b43" y="184.20665"/>
      </g>
     </g>
     <g id="line2d_19">
      <g>
       <use style="stroke:#000000;stroke-width:0.5;" x="220.476528817" xlink:href="#m30240c78bc" y="11.40665"/>
      </g>
     </g>
     <g id="text_4">
      <!-- $\mathdefault{10^{3}}$ -->
      <defs>
       <path d="M 40.578125 39.3125 
Q 47.65625 37.796875 51.625 33 
Q 55.609375 28.21875 55.609375 21.1875 
Q 55.609375 10.40625 48.1875 4.484375 
Q 40.765625 -1.421875 27.09375 -1.421875 
Q 22.515625 -1.421875 17.65625 -0.515625 
Q 12.796875 0.390625 7.625 2.203125 
L 7.625 11.71875 
Q 11.71875 9.328125 16.59375 8.109375 
Q 21.484375 6.890625 26.8125 6.890625 
Q 36.078125 6.890625 40.9375 10.546875 
Q 45.796875 14.203125 45.796875 21.1875 
Q 45.796875 27.640625 41.28125 31.265625 
Q 36.765625 34.90625 28.71875 34.90625 
L 20.21875 34.90625 
L 20.21875 43.015625 
L 29.109375 43.015625 
Q 36.375 43.015625 40.234375 45.921875 
Q 44.09375 48.828125 44.09375 54.296875 
Q 44.09375 59.90625 40.109375 62.90625 
Q 36.140625 65.921875 28.71875 65.921875 
Q 24.65625 65.921875 20.015625 65.03125 
Q 15.375 64.15625 9.8125 62.3125 
L 9.8125 71.09375 
Q 15.4375 72.65625 20.34375 73.4375 
Q 25.25 74.21875 29.59375 74.21875 
Q 40.828125 74.21875 47.359375 69.109375 
Q 53.90625 64.015625 53.90625 55.328125 
Q 53.90625 49.265625 50.4375 45.09375 
Q 46.96875 40.921875 40.578125 39.3125 
" id="BitstreamVeraSans-Roman-33"/>
      </defs>
      <g transform="translate(212.729628817 194.970870313)scale(0.0833 -0.0833)">
       <use transform="translate(0.0 0.796875)" xlink:href="#BitstreamVeraSans-Roman-31"/>
       <use transform="translate(63.623046875 0.796875)" xlink:href="#BitstreamVeraSans-Roman-30"/>
       <use transform="translate(132.75859375 48.046875)scale(0.7)" xlink:href="#BitstreamVeraSans-Roman-33"/>
      </g>
     </g>
    </g>
    <g id="xtick_5">
     <g id="line2d_20">
      <g>
       <use style="stroke:#000000;stroke-width:0.5;" x="267.9763" xlink:href="#m82567a1b43" y="184.20665"/>
      </g>
     </g>
     <g id="line2d_21">
      <g>
       <use style="stroke:#000000;stroke-width:0.5;" x="267.9763" xlink:href="#m30240c78bc" y="11.40665"/>
      </g>
     </g>
     <g id="text_5">
      <!-- $\mathdefault{10^{4}}$ -->
      <defs>
       <path d="M 37.796875 64.3125 
L 12.890625 25.390625 
L 37.796875 25.390625 
z
M 35.203125 72.90625 
L 47.609375 72.90625 
L 47.609375 25.390625 
L 58.015625 25.390625 
L 58.015625 17.1875 
L 47.609375 17.1875 
L 47.609375 0 
L 37.796875 0 
L 37.796875 17.1875 
L 4.890625 17.1875 
L 4.890625 26.703125 
z
" id="BitstreamVeraSans-Roman-34"/>
      </defs>
      <g transform="translate(260.2294 194.887570313)scale(0.0833 -0.0833)">
       <use transform="translate(0.0 0.7156250000000028)" xlink:href="#BitstreamVeraSans-Roman-31"/>
       <use transform="translate(63.623046875 0.7156250000000028)" xlink:href="#BitstreamVeraSans-Roman-30"/>
       <use transform="translate(132.75859375 47.965625)scale(0.7)" xlink:href="#BitstreamVeraSans-Roman-34"/>
      </g>
     </g>
    </g>
    <g id="xtick_6">
     <g id="line2d_22">
      <defs>
       <path d="M 0 0 
L 0 -2 
" id="me41d1591b5" style="stroke:#000000;stroke-width:0.5;"/>
      </defs>
      <g>
       <use style="stroke:#000000;stroke-width:0.5;" x="44.7763" xlink:href="#me41d1591b5" y="184.20665"/>
      </g>
     </g>
     <g id="line2d_23">
      <defs>
       <path d="M 0 0 
L 0 2 
" id="mfd8b376eaa" style="stroke:#000000;stroke-width:0.5;"/>
      </defs>
      <g>
       <use style="stroke:#000000;stroke-width:0.5;" x="44.7763" xlink:href="#mfd8b376eaa" y="11.40665"/>
      </g>
     </g>
    </g>
    <g id="xtick_7">
     <g id="line2d_24">
      <g>
       <use style="stroke:#000000;stroke-width:0.5;" x="53.1405945124" xlink:href="#me41d1591b5" y="184.20665"/>
      </g>
     </g>
     <g id="line2d_25">
      <g>
       <use style="stroke:#000000;stroke-width:0.5;" x="53.1405945124" xlink:href="#mfd8b376eaa" y="11.40665"/>
      </g>
     </g>
    </g>
    <g id="xtick_8">
     <g id="line2d_26">
      <g>
       <use style="stroke:#000000;stroke-width:0.5;" x="59.0751559131" xlink:href="#me41d1591b5" y="184.20665"/>
      </g>
     </g>
     <g id="line2d_27">
      <g>
       <use style="stroke:#000000;stroke-width:0.5;" x="59.0751559131" xlink:href="#mfd8b376eaa" y="11.40665"/>
      </g>
     </g>
    </g>
    <g id="xtick_9">
     <g id="line2d_28">
      <g>
       <use style="stroke:#000000;stroke-width:0.5;" x="63.6783593563" xlink:href="#me41d1591b5" y="184.20665"/>
      </g>
     </g>
     <g id="line2d_29">
      <g>
       <use style="stroke:#000000;stroke-width:0.5;" x="63.6783593563" xlink:href="#mfd8b376eaa" y="11.40665"/>
      </g>
     </g>
    </g>
    <g id="xtick_10">
     <g id="line2d_30">
      <g>
       <use style="stroke:#000000;stroke-width:0.5;" x="67.4394504256" xlink:href="#me41d1591b5" y="184.20665"/>
      </g>
     </g>
     <g id="line2d_31">
      <g>
       <use style="stroke:#000000;stroke-width:0.5;" x="67.4394504256" xlink:href="#mfd8b376eaa" y="11.40665"/>
      </g>
     </g>
    </g>
    <g id="xtick_11">
     <g id="line2d_32">
      <g>
       <use style="stroke:#000000;stroke-width:0.5;" x="70.6194076144" xlink:href="#me41d1591b5" y="184.20665"/>
      </g>
     </g>
     <g id="line2d_33">
      <g>
       <use style="stroke:#000000;stroke-width:0.5;" x="70.6194076144" xlink:href="#mfd8b376eaa" y="11.40665"/>
      </g>
     </g>
    </g>
    <g id="xtick_12">
     <g id="line2d_34">
      <g>
       <use style="stroke:#000000;stroke-width:0.5;" x="73.3740118263" xlink:href="#me41d1591b5" y="184.20665"/>
      </g>
     </g>
     <g id="line2d_35">
      <g>
       <use style="stroke:#000000;stroke-width:0.5;" x="73.3740118263" xlink:href="#mfd8b376eaa" y="11.40665"/>
      </g>
     </g>
    </g>
    <g id="xtick_13">
     <g id="line2d_36">
      <g>
       <use style="stroke:#000000;stroke-width:0.5;" x="75.803744938" xlink:href="#me41d1591b5" y="184.20665"/>
      </g>
     </g>
     <g id="line2d_37">
      <g>
       <use style="stroke:#000000;stroke-width:0.5;" x="75.803744938" xlink:href="#mfd8b376eaa" y="11.40665"/>
      </g>
     </g>
    </g>
    <g id="xtick_14">
     <g id="line2d_38">
      <g>
       <use style="stroke:#000000;stroke-width:0.5;" x="92.2760711826" xlink:href="#me41d1591b5" y="184.20665"/>
      </g>
     </g>
     <g id="line2d_39">
      <g>
       <use style="stroke:#000000;stroke-width:0.5;" x="92.2760711826" xlink:href="#mfd8b376eaa" y="11.40665"/>
      </g>
     </g>
    </g>
    <g id="xtick_15">
     <g id="line2d_40">
      <g>
       <use style="stroke:#000000;stroke-width:0.5;" x="100.640365695" xlink:href="#me41d1591b5" y="184.20665"/>
      </g>
     </g>
     <g id="line2d_41">
      <g>
       <use style="stroke:#000000;stroke-width:0.5;" x="100.640365695" xlink:href="#mfd8b376eaa" y="11.40665"/>
      </g>
     </g>
    </g>
    <g id="xtick_16">
     <g id="line2d_42">
      <g>
       <use style="stroke:#000000;stroke-width:0.5;" x="106.574927096" xlink:href="#me41d1591b5" y="184.20665"/>
      </g>
     </g>
     <g id="line2d_43">
      <g>
       <use style="stroke:#000000;stroke-width:0.5;" x="106.574927096" xlink:href="#mfd8b376eaa" y="11.40665"/>
      </g>
     </g>
    </g>
    <g id="xtick_17">
     <g id="line2d_44">
      <g>
       <use style="stroke:#000000;stroke-width:0.5;" x="111.178130539" xlink:href="#me41d1591b5" y="184.20665"/>
      </g>
     </g>
     <g id="line2d_45">
      <g>
       <use style="stroke:#000000;stroke-width:0.5;" x="111.178130539" xlink:href="#mfd8b376eaa" y="11.40665"/>
      </g>
     </g>
    </g>
    <g id="xtick_18">
     <g id="line2d_46">
      <g>
       <use style="stroke:#000000;stroke-width:0.5;" x="114.939221608" xlink:href="#me41d1591b5" y="184.20665"/>
      </g>
     </g>
     <g id="line2d_47">
      <g>
       <use style="stroke:#000000;stroke-width:0.5;" x="114.939221608" xlink:href="#mfd8b376eaa" y="11.40665"/>
      </g>
     </g>
    </g>
    <g id="xtick_19">
     <g id="line2d_48">
      <g>
       <use style="stroke:#000000;stroke-width:0.5;" x="118.119178797" xlink:href="#me41d1591b5" y="184.20665"/>
      </g>
     </g>
     <g id="line2d_49">
      <g>
       <use style="stroke:#000000;stroke-width:0.5;" x="118.119178797" xlink:href="#mfd8b376eaa" y="11.40665"/>
      </g>
     </g>
    </g>
    <g id="xtick_20">
     <g id="line2d_50">
      <g>
       <use style="stroke:#000000;stroke-width:0.5;" x="120.873783009" xlink:href="#me41d1591b5" y="184.20665"/>
      </g>
     </g>
     <g id="line2d_51">
      <g>
       <use style="stroke:#000000;stroke-width:0.5;" x="120.873783009" xlink:href="#mfd8b376eaa" y="11.40665"/>
      </g>
     </g>
    </g>
    <g id="xtick_21">
     <g id="line2d_52">
      <g>
       <use style="stroke:#000000;stroke-width:0.5;" x="123.303516121" xlink:href="#me41d1591b5" y="184.20665"/>
      </g>
     </g>
     <g id="line2d_53">
      <g>
       <use style="stroke:#000000;stroke-width:0.5;" x="123.303516121" xlink:href="#mfd8b376eaa" y="11.40665"/>
      </g>
     </g>
    </g>
    <g id="xtick_22">
     <g id="line2d_54">
      <g>
       <use style="stroke:#000000;stroke-width:0.5;" x="139.775842365" xlink:href="#me41d1591b5" y="184.20665"/>
      </g>
     </g>
     <g id="line2d_55">
      <g>
       <use style="stroke:#000000;stroke-width:0.5;" x="139.775842365" xlink:href="#mfd8b376eaa" y="11.40665"/>
      </g>
     </g>
    </g>
    <g id="xtick_23">
     <g id="line2d_56">
      <g>
       <use style="stroke:#000000;stroke-width:0.5;" x="148.140136878" xlink:href="#me41d1591b5" y="184.20665"/>
      </g>
     </g>
     <g id="line2d_57">
      <g>
       <use style="stroke:#000000;stroke-width:0.5;" x="148.140136878" xlink:href="#mfd8b376eaa" y="11.40665"/>
      </g>
     </g>
    </g>
    <g id="xtick_24">
     <g id="line2d_58">
      <g>
       <use style="stroke:#000000;stroke-width:0.5;" x="154.074698278" xlink:href="#me41d1591b5" y="184.20665"/>
      </g>
     </g>
     <g id="line2d_59">
      <g>
       <use style="stroke:#000000;stroke-width:0.5;" x="154.074698278" xlink:href="#mfd8b376eaa" y="11.40665"/>
      </g>
     </g>
    </g>
    <g id="xtick_25">
     <g id="line2d_60">
      <g>
       <use style="stroke:#000000;stroke-width:0.5;" x="158.677901722" xlink:href="#me41d1591b5" y="184.20665"/>
      </g>
     </g>
     <g id="line2d_61">
      <g>
       <use style="stroke:#000000;stroke-width:0.5;" x="158.677901722" xlink:href="#mfd8b376eaa" y="11.40665"/>
      </g>
     </g>
    </g>
    <g id="xtick_26">
     <g id="line2d_62">
      <g>
       <use style="stroke:#000000;stroke-width:0.5;" x="162.438992791" xlink:href="#me41d1591b5" y="184.20665"/>
      </g>
     </g>
     <g id="line2d_63">
      <g>
       <use style="stroke:#000000;stroke-width:0.5;" x="162.438992791" xlink:href="#mfd8b376eaa" y="11.40665"/>
      </g>
     </g>
    </g>
    <g id="xtick_27">
     <g id="line2d_64">
      <g>
       <use style="stroke:#000000;stroke-width:0.5;" x="165.61894998" xlink:href="#me41d1591b5" y="184.20665"/>
      </g>
     </g>
     <g id="line2d_65">
      <g>
       <use style="stroke:#000000;stroke-width:0.5;" x="165.61894998" xlink:href="#mfd8b376eaa" y="11.40665"/>
      </g>
     </g>
    </g>
    <g id="xtick_28">
     <g id="line2d_66">
      <g>
       <use style="stroke:#000000;stroke-width:0.5;" x="168.373554192" xlink:href="#me41d1591b5" y="184.20665"/>
      </g>
     </g>
     <g id="line2d_67">
      <g>
       <use style="stroke:#000000;stroke-width:0.5;" x="168.373554192" xlink:href="#mfd8b376eaa" y="11.40665"/>
      </g>
     </g>
    </g>
    <g id="xtick_29">
     <g id="line2d_68">
      <g>
       <use style="stroke:#000000;stroke-width:0.5;" x="170.803287303" xlink:href="#me41d1591b5" y="184.20665"/>
      </g>
     </g>
     <g id="line2d_69">
      <g>
       <use style="stroke:#000000;stroke-width:0.5;" x="170.803287303" xlink:href="#mfd8b376eaa" y="11.40665"/>
      </g>
     </g>
    </g>
    <g id="xtick_30">
     <g id="line2d_70">
      <g>
       <use style="stroke:#000000;stroke-width:0.5;" x="187.275613548" xlink:href="#me41d1591b5" y="184.20665"/>
      </g>
     </g>
     <g id="line2d_71">
      <g>
       <use style="stroke:#000000;stroke-width:0.5;" x="187.275613548" xlink:href="#mfd8b376eaa" y="11.40665"/>
      </g>
     </g>
    </g>
    <g id="xtick_31">
     <g id="line2d_72">
      <g>
       <use style="stroke:#000000;stroke-width:0.5;" x="195.63990806" xlink:href="#me41d1591b5" y="184.20665"/>
      </g>
     </g>
     <g id="line2d_73">
      <g>
       <use style="stroke:#000000;stroke-width:0.5;" x="195.63990806" xlink:href="#mfd8b376eaa" y="11.40665"/>
      </g>
     </g>
    </g>
    <g id="xtick_32">
     <g id="line2d_74">
      <g>
       <use style="stroke:#000000;stroke-width:0.5;" x="201.574469461" xlink:href="#me41d1591b5" y="184.20665"/>
      </g>
     </g>
     <g id="line2d_75">
      <g>
       <use style="stroke:#000000;stroke-width:0.5;" x="201.574469461" xlink:href="#mfd8b376eaa" y="11.40665"/>
      </g>
     </g>
    </g>
    <g id="xtick_33">
     <g id="line2d_76">
      <g>
       <use style="stroke:#000000;stroke-width:0.5;" x="206.177672904" xlink:href="#me41d1591b5" y="184.20665"/>
      </g>
     </g>
     <g id="line2d_77">
      <g>
       <use style="stroke:#000000;stroke-width:0.5;" x="206.177672904" xlink:href="#mfd8b376eaa" y="11.40665"/>
      </g>
     </g>
    </g>
    <g id="xtick_34">
     <g id="line2d_78">
      <g>
       <use style="stroke:#000000;stroke-width:0.5;" x="209.938763973" xlink:href="#me41d1591b5" y="184.20665"/>
      </g>
     </g>
     <g id="line2d_79">
      <g>
       <use style="stroke:#000000;stroke-width:0.5;" x="209.938763973" xlink:href="#mfd8b376eaa" y="11.40665"/>
      </g>
     </g>
    </g>
    <g id="xtick_35">
     <g id="line2d_80">
      <g>
       <use style="stroke:#000000;stroke-width:0.5;" x="213.118721162" xlink:href="#me41d1591b5" y="184.20665"/>
      </g>
     </g>
     <g id="line2d_81">
      <g>
       <use style="stroke:#000000;stroke-width:0.5;" x="213.118721162" xlink:href="#mfd8b376eaa" y="11.40665"/>
      </g>
     </g>
    </g>
    <g id="xtick_36">
     <g id="line2d_82">
      <g>
       <use style="stroke:#000000;stroke-width:0.5;" x="215.873325374" xlink:href="#me41d1591b5" y="184.20665"/>
      </g>
     </g>
     <g id="line2d_83">
      <g>
       <use style="stroke:#000000;stroke-width:0.5;" x="215.873325374" xlink:href="#mfd8b376eaa" y="11.40665"/>
      </g>
     </g>
    </g>
    <g id="xtick_37">
     <g id="line2d_84">
      <g>
       <use style="stroke:#000000;stroke-width:0.5;" x="218.303058486" xlink:href="#me41d1591b5" y="184.20665"/>
      </g>
     </g>
     <g id="line2d_85">
      <g>
       <use style="stroke:#000000;stroke-width:0.5;" x="218.303058486" xlink:href="#mfd8b376eaa" y="11.40665"/>
      </g>
     </g>
    </g>
    <g id="xtick_38">
     <g id="line2d_86">
      <g>
       <use style="stroke:#000000;stroke-width:0.5;" x="234.775384731" xlink:href="#me41d1591b5" y="184.20665"/>
      </g>
     </g>
     <g id="line2d_87">
      <g>
       <use style="stroke:#000000;stroke-width:0.5;" x="234.775384731" xlink:href="#mfd8b376eaa" y="11.40665"/>
      </g>
     </g>
    </g>
    <g id="xtick_39">
     <g id="line2d_88">
      <g>
       <use style="stroke:#000000;stroke-width:0.5;" x="243.139679243" xlink:href="#me41d1591b5" y="184.20665"/>
      </g>
     </g>
     <g id="line2d_89">
      <g>
       <use style="stroke:#000000;stroke-width:0.5;" x="243.139679243" xlink:href="#mfd8b376eaa" y="11.40665"/>
      </g>
     </g>
    </g>
    <g id="xtick_40">
     <g id="line2d_90">
      <g>
       <use style="stroke:#000000;stroke-width:0.5;" x="249.074240644" xlink:href="#me41d1591b5" y="184.20665"/>
      </g>
     </g>
     <g id="line2d_91">
      <g>
       <use style="stroke:#000000;stroke-width:0.5;" x="249.074240644" xlink:href="#mfd8b376eaa" y="11.40665"/>
      </g>
     </g>
    </g>
    <g id="xtick_41">
     <g id="line2d_92">
      <g>
       <use style="stroke:#000000;stroke-width:0.5;" x="253.677444087" xlink:href="#me41d1591b5" y="184.20665"/>
      </g>
     </g>
     <g id="line2d_93">
      <g>
       <use style="stroke:#000000;stroke-width:0.5;" x="253.677444087" xlink:href="#mfd8b376eaa" y="11.40665"/>
      </g>
     </g>
    </g>
    <g id="xtick_42">
     <g id="line2d_94">
      <g>
       <use style="stroke:#000000;stroke-width:0.5;" x="257.438535156" xlink:href="#me41d1591b5" y="184.20665"/>
      </g>
     </g>
     <g id="line2d_95">
      <g>
       <use style="stroke:#000000;stroke-width:0.5;" x="257.438535156" xlink:href="#mfd8b376eaa" y="11.40665"/>
      </g>
     </g>
    </g>
    <g id="xtick_43">
     <g id="line2d_96">
      <g>
       <use style="stroke:#000000;stroke-width:0.5;" x="260.618492345" xlink:href="#me41d1591b5" y="184.20665"/>
      </g>
     </g>
     <g id="line2d_97">
      <g>
       <use style="stroke:#000000;stroke-width:0.5;" x="260.618492345" xlink:href="#mfd8b376eaa" y="11.40665"/>
      </g>
     </g>
    </g>
    <g id="xtick_44">
     <g id="line2d_98">
      <g>
       <use style="stroke:#000000;stroke-width:0.5;" x="263.373096557" xlink:href="#me41d1591b5" y="184.20665"/>
      </g>
     </g>
     <g id="line2d_99">
      <g>
       <use style="stroke:#000000;stroke-width:0.5;" x="263.373096557" xlink:href="#mfd8b376eaa" y="11.40665"/>
      </g>
     </g>
    </g>
    <g id="xtick_45">
     <g id="line2d_100">
      <g>
       <use style="stroke:#000000;stroke-width:0.5;" x="265.802829668" xlink:href="#me41d1591b5" y="184.20665"/>
      </g>
     </g>
     <g id="line2d_101">
      <g>
       <use style="stroke:#000000;stroke-width:0.5;" x="265.802829668" xlink:href="#mfd8b376eaa" y="11.40665"/>
      </g>
     </g>
    </g>
    <g id="text_6">
     <!-- Time $\left(\sqrt{\frac{\rho \mathrm{\mu m}^5}{\epsilon}}\right)$ -->
     <defs>
      <path d="M 4.390625 -175.875 
Q 3.515625 -175.875 3.515625 -175 
Q 3.515625 -174.609375 3.71875 -174.421875 
Q 12.203125 -165.921875 18.0625 -155.546875 
Q 23.921875 -145.171875 27.296875 -133.84375 
Q 30.671875 -122.515625 32.125 -110.546875 
Q 33.59375 -98.578125 33.59375 -85.890625 
Q 33.59375 -72.90625 32.09375 -61.03125 
Q 30.609375 -49.171875 27.234375 -37.890625 
Q 23.875 -26.609375 18.03125 -16.234375 
Q 12.203125 -5.859375 3.71875 2.484375 
Q 3.515625 2.6875 3.515625 3.078125 
Q 3.515625 4 4.390625 4 
L 6.6875 4 
Q 6.984375 4 7.171875 3.8125 
Q 16.40625 -4.15625 23.09375 -14.578125 
Q 29.78125 -25 33.859375 -36.6875 
Q 37.9375 -48.390625 39.765625 -60.734375 
Q 41.609375 -73.09375 41.609375 -85.984375 
Q 41.609375 -98.828125 39.765625 -111.15625 
Q 37.9375 -123.484375 33.859375 -135.203125 
Q 29.78125 -146.921875 23.09375 -157.3125 
Q 16.40625 -167.71875 7.171875 -175.6875 
Q 6.984375 -175.875 6.6875 -175.875 
z
" id="Cmex10-b4"/>
      <path d="M 56.203125 29.59375 
L 56.203125 25.203125 
L 14.890625 25.203125 
Q 15.484375 15.921875 20.484375 11.0625 
Q 25.484375 6.203125 34.421875 6.203125 
Q 39.59375 6.203125 44.453125 7.46875 
Q 49.3125 8.734375 54.109375 11.28125 
L 54.109375 2.78125 
Q 49.265625 0.734375 44.1875 -0.34375 
Q 39.109375 -1.421875 33.890625 -1.421875 
Q 20.796875 -1.421875 13.15625 6.1875 
Q 5.515625 13.8125 5.515625 26.8125 
Q 5.515625 40.234375 12.765625 48.109375 
Q 20.015625 56 32.328125 56 
Q 43.359375 56 49.78125 48.890625 
Q 56.203125 41.796875 56.203125 29.59375 
M 47.21875 32.234375 
Q 47.125 39.59375 43.09375 43.984375 
Q 39.0625 48.390625 32.421875 48.390625 
Q 24.90625 48.390625 20.390625 44.140625 
Q 15.875 39.890625 15.1875 32.171875 
z
" id="BitstreamVeraSans-Roman-65"/>
      <path d="M 12.3125 14.109375 
Q 12.3125 10.75 13.53125 7.859375 
Q 14.75 4.984375 17.203125 3.25 
Q 19.671875 1.515625 23 1.515625 
Q 25.25 1.515625 27.78125 2.484375 
Q 30.328125 3.46875 32.5 4.640625 
Q 34.671875 5.8125 34.71875 5.8125 
Q 35.25 5.8125 35.5625 5.203125 
Q 35.890625 4.59375 35.890625 4 
Q 35.890625 3.46875 35.59375 3.328125 
Q 29.34375 -1.125 22.90625 -1.125 
Q 17.625 -1.125 13.375 1.34375 
Q 9.125 3.8125 6.8125 8.203125 
Q 4.5 12.59375 4.5 17.828125 
Q 4.5 23 6.59375 27.65625 
Q 8.6875 32.328125 12.390625 35.796875 
Q 16.109375 39.265625 20.796875 41.1875 
Q 25.484375 43.109375 30.609375 43.109375 
L 36.28125 43.109375 
Q 37.796875 43.109375 37.796875 41.609375 
Q 37.796875 40.765625 37.234375 40.171875 
Q 36.671875 39.59375 35.890625 39.59375 
L 30.421875 39.59375 
Q 26.421875 39.59375 23.171875 37.828125 
Q 19.921875 36.078125 17.71875 32.953125 
Q 15.53125 29.828125 14.3125 25.875 
L 31.984375 25.875 
Q 32.671875 25.875 33.078125 25.453125 
Q 33.5 25.046875 33.5 24.421875 
Q 33.5 23.578125 32.953125 22.984375 
Q 32.421875 22.40625 31.59375 22.40625 
L 13.375 22.40625 
Q 12.3125 17.234375 12.3125 14.109375 
" id="Cmmi10-b2"/>
      <path d="M 52 44.1875 
Q 55.375 50.25 60.0625 53.125 
Q 64.75 56 71.09375 56 
Q 79.640625 56 84.28125 50.015625 
Q 88.921875 44.046875 88.921875 33.015625 
L 88.921875 0 
L 79.890625 0 
L 79.890625 32.71875 
Q 79.890625 40.578125 77.09375 44.375 
Q 74.3125 48.1875 68.609375 48.1875 
Q 61.625 48.1875 57.5625 43.546875 
Q 53.515625 38.921875 53.515625 30.90625 
L 53.515625 0 
L 44.484375 0 
L 44.484375 32.71875 
Q 44.484375 40.625 41.703125 44.40625 
Q 38.921875 48.1875 33.109375 48.1875 
Q 26.21875 48.1875 22.15625 43.53125 
Q 18.109375 38.875 18.109375 30.90625 
L 18.109375 0 
L 9.078125 0 
L 9.078125 54.6875 
L 18.109375 54.6875 
L 18.109375 46.1875 
Q 21.1875 51.21875 25.484375 53.609375 
Q 29.78125 56 35.6875 56 
Q 41.65625 56 45.828125 52.96875 
Q 50 49.953125 52 44.1875 
" id="BitstreamVeraSans-Roman-6d"/>
      <path d="M 42.390625 -175.984375 
L 19.671875 -96.6875 
L 12.796875 -104.6875 
L 10.984375 -102.78125 
L 25.296875 -85.984375 
L 46.578125 -160.40625 
L 98.1875 2.78125 
Q 98.53125 4 100 4 
Q 100.828125 4 101.40625 3.40625 
Q 102 2.828125 102 2 
L 102 1.609375 
L 46.296875 -174.8125 
Q 45.703125 -175.984375 44.578125 -175.984375 
z
" id="Cmex10-71"/>
      <path id="BitstreamVeraSans-Roman-20"/>
      <path d="M 2.78125 -18.796875 
Q 2.78125 -18.21875 2.875 -18.015625 
L 12.796875 21.921875 
Q 14.203125 27.296875 17.640625 32.4375 
Q 21.09375 37.59375 25.96875 40.890625 
Q 30.859375 44.1875 36.28125 44.1875 
Q 40.625 44.1875 43.875 41.921875 
Q 47.125 39.65625 48.75 35.96875 
Q 50.390625 32.28125 50.390625 27.875 
Q 50.390625 23.046875 48.40625 17.875 
Q 46.4375 12.703125 42.9375 8.40625 
Q 39.453125 4.109375 34.90625 1.484375 
Q 30.375 -1.125 25.390625 -1.125 
Q 22.46875 -1.125 19.875 0.609375 
Q 17.28125 2.34375 15.828125 5.171875 
L 9.90625 -18.40625 
Q 9.625 -19.828125 8.453125 -20.703125 
Q 7.28125 -21.578125 5.8125 -21.578125 
Q 4.59375 -21.578125 3.6875 -20.8125 
Q 2.78125 -20.0625 2.78125 -18.796875 
M 25.59375 1.515625 
Q 30.90625 1.515625 34.828125 6.953125 
Q 38.765625 12.40625 40.84375 19.75 
Q 42.921875 27.09375 42.921875 32.171875 
Q 42.921875 35.984375 41.25 38.796875 
Q 39.59375 41.609375 36.078125 41.609375 
Q 31.734375 41.609375 28.40625 38.3125 
Q 25.09375 35.015625 23.09375 30.5625 
Q 21.09375 26.125 19.828125 21.296875 
L 17.09375 10.109375 
Q 17.71875 6.5 19.9375 4 
Q 22.171875 1.515625 25.59375 1.515625 
" id="Cmmi10-bd"/>
      <path d="M 52.484375 -175.6875 
Q 43.171875 -167.578125 36.546875 -157.265625 
Q 29.9375 -146.96875 25.859375 -135.25 
Q 21.78125 -123.53125 19.890625 -111.171875 
Q 18.015625 -98.828125 18.015625 -85.984375 
Q 18.015625 -73.09375 19.890625 -60.71875 
Q 21.78125 -48.34375 25.859375 -36.625 
Q 29.9375 -24.90625 36.546875 -14.59375 
Q 43.171875 -4.296875 52.484375 3.8125 
Q 52.484375 4 52.984375 4 
L 55.328125 4 
Q 55.609375 4 55.859375 3.6875 
Q 56.109375 3.375 56.109375 3.078125 
Q 56.109375 2.6875 55.90625 2.484375 
Q 47.359375 -6.0625 41.59375 -16.265625 
Q 35.84375 -26.46875 32.375 -38.109375 
Q 28.90625 -49.75 27.4375 -61.6875 
Q 25.984375 -73.640625 25.984375 -86.078125 
Q 25.984375 -98.484375 27.4375 -110.46875 
Q 28.90625 -122.46875 32.375 -133.984375 
Q 35.84375 -145.515625 41.671875 -155.765625 
Q 47.515625 -166.015625 55.90625 -174.421875 
Q 56.109375 -174.609375 56.109375 -175 
Q 56.109375 -175.25 55.828125 -175.5625 
Q 55.5625 -175.875 55.328125 -175.875 
L 52.984375 -175.875 
Q 52.484375 -175.875 52.484375 -175.6875 
" id="Cmex10-b3"/>
      <path d="M 8.6875 11.375 
Q 9.71875 8.453125 11.84375 6.046875 
Q 13.96875 3.65625 16.875 2.3125 
Q 19.78125 0.984375 22.90625 0.984375 
Q 30.125 0.984375 32.859375 6.59375 
Q 35.59375 12.203125 35.59375 20.21875 
Q 35.59375 23.6875 35.46875 26.046875 
Q 35.359375 28.421875 34.8125 30.609375 
Q 33.890625 34.125 31.5625 36.765625 
Q 29.25 39.40625 25.875 39.40625 
Q 22.515625 39.40625 20.09375 38.375 
Q 17.671875 37.359375 16.15625 35.984375 
Q 14.65625 34.625 13.484375 33.109375 
Q 12.3125 31.59375 12.015625 31.5 
L 10.890625 31.5 
Q 10.640625 31.5 10.265625 31.8125 
Q 9.90625 32.125 9.90625 32.421875 
L 9.90625 65.828125 
Q 9.90625 66.0625 10.21875 66.328125 
Q 10.546875 66.609375 10.890625 66.609375 
L 11.1875 66.609375 
Q 17.921875 63.375 25.484375 63.375 
Q 32.90625 63.375 39.796875 66.609375 
L 40.09375 66.609375 
Q 40.4375 66.609375 40.71875 66.359375 
Q 41.015625 66.109375 41.015625 65.828125 
L 41.015625 64.890625 
Q 41.015625 64.40625 40.828125 64.40625 
Q 37.40625 59.859375 32.25 57.3125 
Q 27.09375 54.78125 21.578125 54.78125 
Q 17.578125 54.78125 13.375 55.90625 
L 13.375 37.015625 
Q 16.703125 39.703125 19.3125 40.84375 
Q 21.921875 42 25.984375 42 
Q 31.5 42 35.859375 38.8125 
Q 40.234375 35.640625 42.578125 30.53125 
Q 44.921875 25.4375 44.921875 20.125 
Q 44.921875 14.109375 41.96875 8.984375 
Q 39.015625 3.859375 33.9375 0.828125 
Q 28.859375 -2.203125 22.90625 -2.203125 
Q 17.96875 -2.203125 13.84375 0.328125 
Q 9.71875 2.875 7.34375 7.171875 
Q 4.984375 11.46875 4.984375 16.3125 
Q 4.984375 18.5625 6.4375 19.96875 
Q 7.90625 21.390625 10.109375 21.390625 
Q 12.3125 21.390625 13.796875 19.9375 
Q 15.28125 18.5 15.28125 16.3125 
Q 15.28125 14.15625 13.796875 12.671875 
Q 12.3125 11.1875 10.109375 11.1875 
Q 9.765625 11.1875 9.328125 11.25 
Q 8.890625 11.328125 8.6875 11.375 
" id="Cmr10-35"/>
      <path d="M 9.421875 54.6875 
L 18.40625 54.6875 
L 18.40625 0 
L 9.421875 0 
z
M 9.421875 75.984375 
L 18.40625 75.984375 
L 18.40625 64.59375 
L 9.421875 64.59375 
z
" id="BitstreamVeraSans-Roman-69"/>
      <path d="M 2.78125 -18.796875 
Q 2.78125 -18.21875 2.875 -18.015625 
L 17.578125 41.015625 
Q 18.015625 42.4375 19.15625 43.3125 
Q 20.3125 44.1875 21.78125 44.1875 
Q 23.046875 44.1875 23.921875 43.421875 
Q 24.8125 42.671875 24.8125 41.40625 
Q 24.8125 41.109375 24.78125 40.9375 
Q 24.75 40.765625 24.703125 40.578125 
L 18.796875 17.1875 
Q 17.828125 13.03125 17.828125 10.015625 
Q 17.828125 6.296875 19.578125 3.90625 
Q 21.34375 1.515625 24.90625 1.515625 
Q 32.171875 1.515625 37.703125 10.59375 
Q 37.75 10.6875 37.765625 10.734375 
Q 37.796875 10.796875 37.796875 10.890625 
L 45.015625 39.890625 
Q 45.359375 41.21875 46.578125 42.15625 
Q 47.796875 43.109375 49.21875 43.109375 
Q 50.390625 43.109375 51.296875 42.328125 
Q 52.203125 41.546875 52.203125 40.28125 
Q 52.203125 39.703125 52.09375 39.5 
L 44.921875 10.6875 
Q 44.1875 7.859375 44.1875 5.8125 
Q 44.1875 1.515625 47.125 1.515625 
Q 50.25 1.515625 51.828125 5.375 
Q 53.421875 9.234375 54.59375 14.703125 
Q 54.78125 15.28125 55.421875 15.28125 
L 56.59375 15.28125 
Q 56.984375 15.28125 57.25 14.96875 
Q 57.515625 14.65625 57.515625 14.3125 
Q 55.765625 7.328125 53.6875 3.09375 
Q 51.609375 -1.125 46.921875 -1.125 
Q 43.609375 -1.125 41.046875 0.78125 
Q 38.484375 2.6875 37.703125 5.90625 
Q 35.203125 2.78125 31.859375 0.828125 
Q 28.515625 -1.125 24.8125 -1.125 
Q 18.5625 -1.125 14.984375 1.8125 
L 9.90625 -18.40625 
Q 9.625 -19.828125 8.453125 -20.703125 
Q 7.28125 -21.578125 5.8125 -21.578125 
Q 4.59375 -21.578125 3.6875 -20.8125 
Q 2.78125 -20.0625 2.78125 -18.796875 
" id="Cmmi10-b9"/>
      <path d="M -0.296875 72.90625 
L 61.375 72.90625 
L 61.375 64.59375 
L 35.5 64.59375 
L 35.5 0 
L 25.59375 0 
L 25.59375 64.59375 
L -0.296875 64.59375 
z
" id="BitstreamVeraSans-Roman-54"/>
      <path d="M 2.984375 0 
L 2.984375 3.515625 
Q 6.390625 3.515625 8.59375 4.046875 
Q 10.796875 4.59375 10.796875 6.6875 
L 10.796875 33.984375 
Q 10.796875 36.671875 9.984375 37.859375 
Q 9.1875 39.0625 7.671875 39.328125 
Q 6.15625 39.59375 2.984375 39.59375 
L 2.984375 43.109375 
L 17.484375 44.1875 
L 17.484375 34.421875 
Q 19.484375 38.71875 23.40625 41.453125 
Q 27.34375 44.1875 31.984375 44.1875 
Q 43.5 44.1875 45.515625 34.8125 
Q 47.515625 39.015625 51.359375 41.59375 
Q 55.21875 44.1875 59.8125 44.1875 
Q 64.359375 44.1875 67.453125 42.71875 
Q 70.5625 41.265625 72.125 38.25 
Q 73.6875 35.25 73.6875 30.71875 
L 73.6875 6.6875 
Q 73.6875 4.59375 75.90625 4.046875 
Q 78.125 3.515625 81.5 3.515625 
L 81.5 0 
L 58.59375 0 
L 58.59375 3.515625 
Q 62.015625 3.515625 64.203125 4.046875 
Q 66.40625 4.59375 66.40625 6.6875 
L 66.40625 30.421875 
Q 66.40625 35.453125 64.984375 38.53125 
Q 63.578125 41.609375 59.1875 41.609375 
Q 53.421875 41.609375 49.65625 36.96875 
Q 45.90625 32.328125 45.90625 26.421875 
L 45.90625 6.6875 
Q 45.90625 4.59375 48.09375 4.046875 
Q 50.296875 3.515625 53.71875 3.515625 
L 53.71875 0 
L 30.8125 0 
L 30.8125 3.515625 
Q 34.234375 3.515625 36.421875 4.046875 
Q 38.625 4.59375 38.625 6.6875 
L 38.625 30.421875 
Q 38.625 35.296875 37.203125 38.453125 
Q 35.796875 41.609375 31.390625 41.609375 
Q 25.59375 41.609375 21.84375 36.96875 
Q 18.109375 32.328125 18.109375 26.421875 
L 18.109375 6.6875 
Q 18.109375 4.59375 20.3125 4.046875 
Q 22.515625 3.515625 25.875 3.515625 
L 25.875 0 
z
" id="Cmr10-6d"/>
     </defs>
     <g transform="translate(121.6263 216.70325)scale(0.1 -0.1)">
      <use transform="translate(0.0 0.7453125000000114)" xlink:href="#BitstreamVeraSans-Roman-54"/>
      <use transform="translate(61.083984375 0.7453125000000114)" xlink:href="#BitstreamVeraSans-Roman-69"/>
      <use transform="translate(88.8671875 0.7453125000000114)" xlink:href="#BitstreamVeraSans-Roman-6d"/>
      <use transform="translate(186.279296875 0.7453125000000114)" xlink:href="#BitstreamVeraSans-Roman-65"/>
      <use transform="translate(247.802734375 0.7453125000000114)" xlink:href="#BitstreamVeraSans-Roman-20"/>
      <use transform="translate(279.58984375 146.109375)scale(0.9671646977067409)" xlink:href="#Cmex10-b3"/>
      <use transform="translate(337.3378448486328 140.265625)scale(0.9333709523396128)" xlink:href="#Cmex10-71"/>
      <use transform="translate(443.1659698486328 53.326562499999994)scale(0.7)" xlink:href="#Cmmi10-bd"/>
      <use transform="translate(479.3622589111328 53.326562499999994)scale(0.7)" xlink:href="#Cmmi10-b9"/>
      <use transform="translate(521.5058135986328 53.326562499999994)scale(0.7)" xlink:href="#Cmr10-6d"/>
      <use transform="translate(582.9412589111328 80.11140625)scale(0.49)" xlink:href="#Cmr10-35"/>
      <use transform="translate(513.1659698486328 -23.204687500000006)scale(0.7)" xlink:href="#Cmmi10-b2"/>
      <use transform="translate(636.9053995361328 146.109375)scale(0.9671646977067409)" xlink:href="#Cmex10-b4"/>
      <path d="M 430.66597 137.5 
L 430.66597 143.75 
L 636.9054 143.75 
L 636.9054 137.5 
L 430.66597 137.5 
z
"/>
      <path d="M 443.16597 13.221875 
L 443.16597 19.471875 
L 611.9054 19.471875 
L 611.9054 13.221875 
L 443.16597 13.221875 
z
"/>
     </g>
    </g>
   </g>
   <g id="matplotlib.axis_2">
    <g id="ytick_1">
     <g id="line2d_102">
      <defs>
       <path d="M 0 0 
L 4 0 
" id="m16ba88efb6" style="stroke:#000000;stroke-width:0.5;"/>
      </defs>
      <g>
       <use style="stroke:#000000;stroke-width:0.5;" x="44.7763" xlink:href="#m16ba88efb6" y="184.20665"/>
      </g>
     </g>
     <g id="line2d_103">
      <defs>
       <path d="M 0 0 
L -4 0 
" id="m8233a343bc" style="stroke:#000000;stroke-width:0.5;"/>
      </defs>
      <g>
       <use style="stroke:#000000;stroke-width:0.5;" x="267.9763" xlink:href="#m8233a343bc" y="184.20665"/>
      </g>
     </g>
     <g id="text_7">
      <!-- $\mathdefault{10^{-3}}$ -->
      <defs>
       <path d="M 4.890625 31.390625 
L 31.203125 31.390625 
L 31.203125 23.390625 
L 4.890625 23.390625 
z
" id="BitstreamVeraSans-Roman-2d"/>
      </defs>
      <g transform="translate(23.2 186.722570313)scale(0.0833 -0.0833)">
       <use transform="translate(0.0 0.796875)" xlink:href="#BitstreamVeraSans-Roman-31"/>
       <use transform="translate(63.623046875 0.796875)" xlink:href="#BitstreamVeraSans-Roman-30"/>
       <use transform="translate(132.75859375 48.046875)scale(0.7)" xlink:href="#BitstreamVeraSans-Roman-2d"/>
       <use transform="translate(158.0173828125 48.046875)scale(0.7)" xlink:href="#BitstreamVeraSans-Roman-33"/>
      </g>
     </g>
    </g>
    <g id="ytick_2">
     <g id="line2d_104">
      <g>
       <use style="stroke:#000000;stroke-width:0.5;" x="44.7763" xlink:href="#m16ba88efb6" y="141.00665"/>
      </g>
     </g>
     <g id="line2d_105">
      <g>
       <use style="stroke:#000000;stroke-width:0.5;" x="267.9763" xlink:href="#m8233a343bc" y="141.00665"/>
      </g>
     </g>
     <g id="text_8">
      <!-- $\mathdefault{10^{-2}}$ -->
      <g transform="translate(23.2 143.522570312)scale(0.0833 -0.0833)">
       <use transform="translate(0.0 0.796875)" xlink:href="#BitstreamVeraSans-Roman-31"/>
       <use transform="translate(63.623046875 0.796875)" xlink:href="#BitstreamVeraSans-Roman-30"/>
       <use transform="translate(132.75859375 48.046875)scale(0.7)" xlink:href="#BitstreamVeraSans-Roman-2d"/>
       <use transform="translate(158.0173828125 48.046875)scale(0.7)" xlink:href="#BitstreamVeraSans-Roman-32"/>
      </g>
     </g>
    </g>
    <g id="ytick_3">
     <g id="line2d_106">
      <g>
       <use style="stroke:#000000;stroke-width:0.5;" x="44.7763" xlink:href="#m16ba88efb6" y="97.80665"/>
      </g>
     </g>
     <g id="line2d_107">
      <g>
       <use style="stroke:#000000;stroke-width:0.5;" x="267.9763" xlink:href="#m8233a343bc" y="97.80665"/>
      </g>
     </g>
     <g id="text_9">
      <!-- $\mathdefault{10^{-1}}$ -->
      <g transform="translate(23.2 100.280920312)scale(0.0833 -0.0833)">
       <use transform="translate(0.0 0.7156250000000028)" xlink:href="#BitstreamVeraSans-Roman-31"/>
       <use transform="translate(63.623046875 0.7156250000000028)" xlink:href="#BitstreamVeraSans-Roman-30"/>
       <use transform="translate(132.75859375 47.965625)scale(0.7)" xlink:href="#BitstreamVeraSans-Roman-2d"/>
       <use transform="translate(158.0173828125 47.965625)scale(0.7)" xlink:href="#BitstreamVeraSans-Roman-31"/>
      </g>
     </g>
    </g>
    <g id="ytick_4">
     <g id="line2d_108">
      <g>
       <use style="stroke:#000000;stroke-width:0.5;" x="44.7763" xlink:href="#m16ba88efb6" y="54.60665"/>
      </g>
     </g>
     <g id="line2d_109">
      <g>
       <use style="stroke:#000000;stroke-width:0.5;" x="267.9763" xlink:href="#m8233a343bc" y="54.60665"/>
      </g>
     </g>
     <g id="text_10">
      <!-- $\mathdefault{10^{0}}$ -->
      <g transform="translate(25.2825 57.1225703125)scale(0.0833 -0.0833)">
       <use transform="translate(0.0 0.796875)" xlink:href="#BitstreamVeraSans-Roman-31"/>
       <use transform="translate(63.623046875 0.796875)" xlink:href="#BitstreamVeraSans-Roman-30"/>
       <use transform="translate(132.75859375 48.046875)scale(0.7)" xlink:href="#BitstreamVeraSans-Roman-30"/>
      </g>
     </g>
    </g>
    <g id="ytick_5">
     <g id="line2d_110">
      <g>
       <use style="stroke:#000000;stroke-width:0.5;" x="44.7763" xlink:href="#m16ba88efb6" y="11.40665"/>
      </g>
     </g>
     <g id="line2d_111">
      <g>
       <use style="stroke:#000000;stroke-width:0.5;" x="267.9763" xlink:href="#m8233a343bc" y="11.40665"/>
      </g>
     </g>
     <g id="text_11">
      <!-- $\mathdefault{10^{1}}$ -->
      <g transform="translate(25.2825 13.8809203125)scale(0.0833 -0.0833)">
       <use transform="translate(0.0 0.7156250000000028)" xlink:href="#BitstreamVeraSans-Roman-31"/>
       <use transform="translate(63.623046875 0.7156250000000028)" xlink:href="#BitstreamVeraSans-Roman-30"/>
       <use transform="translate(132.75859375 47.965625)scale(0.7)" xlink:href="#BitstreamVeraSans-Roman-31"/>
      </g>
     </g>
    </g>
    <g id="ytick_6">
     <g id="line2d_112">
      <defs>
       <path d="M 0 0 
L 2 0 
" id="mbc05f016fd" style="stroke:#000000;stroke-width:0.5;"/>
      </defs>
      <g>
       <use style="stroke:#000000;stroke-width:0.5;" x="44.7763" xlink:href="#mbc05f016fd" y="171.202154187"/>
      </g>
     </g>
     <g id="line2d_113">
      <defs>
       <path d="M 0 0 
L -2 0 
" id="ma712a32151" style="stroke:#000000;stroke-width:0.5;"/>
      </defs>
      <g>
       <use style="stroke:#000000;stroke-width:0.5;" x="267.9763" xlink:href="#ma712a32151" y="171.202154187"/>
      </g>
     </g>
    </g>
    <g id="ytick_7">
     <g id="line2d_114">
      <g>
       <use style="stroke:#000000;stroke-width:0.5;" x="44.7763" xlink:href="#mbc05f016fd" y="163.595011796"/>
      </g>
     </g>
     <g id="line2d_115">
      <g>
       <use style="stroke:#000000;stroke-width:0.5;" x="267.9763" xlink:href="#ma712a32151" y="163.595011796"/>
      </g>
     </g>
    </g>
    <g id="ytick_8">
     <g id="line2d_116">
      <g>
       <use style="stroke:#000000;stroke-width:0.5;" x="44.7763" xlink:href="#mbc05f016fd" y="158.197658375"/>
      </g>
     </g>
     <g id="line2d_117">
      <g>
       <use style="stroke:#000000;stroke-width:0.5;" x="267.9763" xlink:href="#ma712a32151" y="158.197658375"/>
      </g>
     </g>
    </g>
    <g id="ytick_9">
     <g id="line2d_118">
      <g>
       <use style="stroke:#000000;stroke-width:0.5;" x="44.7763" xlink:href="#mbc05f016fd" y="154.011145813"/>
      </g>
     </g>
     <g id="line2d_119">
      <g>
       <use style="stroke:#000000;stroke-width:0.5;" x="267.9763" xlink:href="#ma712a32151" y="154.011145813"/>
      </g>
     </g>
    </g>
    <g id="ytick_10">
     <g id="line2d_120">
      <g>
       <use style="stroke:#000000;stroke-width:0.5;" x="44.7763" xlink:href="#mbc05f016fd" y="150.590515983"/>
      </g>
     </g>
     <g id="line2d_121">
      <g>
       <use style="stroke:#000000;stroke-width:0.5;" x="267.9763" xlink:href="#ma712a32151" y="150.590515983"/>
      </g>
     </g>
    </g>
    <g id="ytick_11">
     <g id="line2d_122">
      <g>
       <use style="stroke:#000000;stroke-width:0.5;" x="44.7763" xlink:href="#mbc05f016fd" y="147.698414671"/>
      </g>
     </g>
     <g id="line2d_123">
      <g>
       <use style="stroke:#000000;stroke-width:0.5;" x="267.9763" xlink:href="#ma712a32151" y="147.698414671"/>
      </g>
     </g>
    </g>
    <g id="ytick_12">
     <g id="line2d_124">
      <g>
       <use style="stroke:#000000;stroke-width:0.5;" x="44.7763" xlink:href="#mbc05f016fd" y="145.193162562"/>
      </g>
     </g>
     <g id="line2d_125">
      <g>
       <use style="stroke:#000000;stroke-width:0.5;" x="267.9763" xlink:href="#ma712a32151" y="145.193162562"/>
      </g>
     </g>
    </g>
    <g id="ytick_13">
     <g id="line2d_126">
      <g>
       <use style="stroke:#000000;stroke-width:0.5;" x="44.7763" xlink:href="#mbc05f016fd" y="142.983373592"/>
      </g>
     </g>
     <g id="line2d_127">
      <g>
       <use style="stroke:#000000;stroke-width:0.5;" x="267.9763" xlink:href="#ma712a32151" y="142.983373592"/>
      </g>
     </g>
    </g>
    <g id="ytick_14">
     <g id="line2d_128">
      <g>
       <use style="stroke:#000000;stroke-width:0.5;" x="44.7763" xlink:href="#mbc05f016fd" y="128.002154187"/>
      </g>
     </g>
     <g id="line2d_129">
      <g>
       <use style="stroke:#000000;stroke-width:0.5;" x="267.9763" xlink:href="#ma712a32151" y="128.002154187"/>
      </g>
     </g>
    </g>
    <g id="ytick_15">
     <g id="line2d_130">
      <g>
       <use style="stroke:#000000;stroke-width:0.5;" x="44.7763" xlink:href="#mbc05f016fd" y="120.395011796"/>
      </g>
     </g>
     <g id="line2d_131">
      <g>
       <use style="stroke:#000000;stroke-width:0.5;" x="267.9763" xlink:href="#ma712a32151" y="120.395011796"/>
      </g>
     </g>
    </g>
    <g id="ytick_16">
     <g id="line2d_132">
      <g>
       <use style="stroke:#000000;stroke-width:0.5;" x="44.7763" xlink:href="#mbc05f016fd" y="114.997658375"/>
      </g>
     </g>
     <g id="line2d_133">
      <g>
       <use style="stroke:#000000;stroke-width:0.5;" x="267.9763" xlink:href="#ma712a32151" y="114.997658375"/>
      </g>
     </g>
    </g>
    <g id="ytick_17">
     <g id="line2d_134">
      <g>
       <use style="stroke:#000000;stroke-width:0.5;" x="44.7763" xlink:href="#mbc05f016fd" y="110.811145813"/>
      </g>
     </g>
     <g id="line2d_135">
      <g>
       <use style="stroke:#000000;stroke-width:0.5;" x="267.9763" xlink:href="#ma712a32151" y="110.811145813"/>
      </g>
     </g>
    </g>
    <g id="ytick_18">
     <g id="line2d_136">
      <g>
       <use style="stroke:#000000;stroke-width:0.5;" x="44.7763" xlink:href="#mbc05f016fd" y="107.390515983"/>
      </g>
     </g>
     <g id="line2d_137">
      <g>
       <use style="stroke:#000000;stroke-width:0.5;" x="267.9763" xlink:href="#ma712a32151" y="107.390515983"/>
      </g>
     </g>
    </g>
    <g id="ytick_19">
     <g id="line2d_138">
      <g>
       <use style="stroke:#000000;stroke-width:0.5;" x="44.7763" xlink:href="#mbc05f016fd" y="104.498414671"/>
      </g>
     </g>
     <g id="line2d_139">
      <g>
       <use style="stroke:#000000;stroke-width:0.5;" x="267.9763" xlink:href="#ma712a32151" y="104.498414671"/>
      </g>
     </g>
    </g>
    <g id="ytick_20">
     <g id="line2d_140">
      <g>
       <use style="stroke:#000000;stroke-width:0.5;" x="44.7763" xlink:href="#mbc05f016fd" y="101.993162562"/>
      </g>
     </g>
     <g id="line2d_141">
      <g>
       <use style="stroke:#000000;stroke-width:0.5;" x="267.9763" xlink:href="#ma712a32151" y="101.993162562"/>
      </g>
     </g>
    </g>
    <g id="ytick_21">
     <g id="line2d_142">
      <g>
       <use style="stroke:#000000;stroke-width:0.5;" x="44.7763" xlink:href="#mbc05f016fd" y="99.7833735922"/>
      </g>
     </g>
     <g id="line2d_143">
      <g>
       <use style="stroke:#000000;stroke-width:0.5;" x="267.9763" xlink:href="#ma712a32151" y="99.7833735922"/>
      </g>
     </g>
    </g>
    <g id="ytick_22">
     <g id="line2d_144">
      <g>
       <use style="stroke:#000000;stroke-width:0.5;" x="44.7763" xlink:href="#mbc05f016fd" y="84.8021541873"/>
      </g>
     </g>
     <g id="line2d_145">
      <g>
       <use style="stroke:#000000;stroke-width:0.5;" x="267.9763" xlink:href="#ma712a32151" y="84.8021541873"/>
      </g>
     </g>
    </g>
    <g id="ytick_23">
     <g id="line2d_146">
      <g>
       <use style="stroke:#000000;stroke-width:0.5;" x="44.7763" xlink:href="#mbc05f016fd" y="77.1950117961"/>
      </g>
     </g>
     <g id="line2d_147">
      <g>
       <use style="stroke:#000000;stroke-width:0.5;" x="267.9763" xlink:href="#ma712a32151" y="77.1950117961"/>
      </g>
     </g>
    </g>
    <g id="ytick_24">
     <g id="line2d_148">
      <g>
       <use style="stroke:#000000;stroke-width:0.5;" x="44.7763" xlink:href="#mbc05f016fd" y="71.7976583746"/>
      </g>
     </g>
     <g id="line2d_149">
      <g>
       <use style="stroke:#000000;stroke-width:0.5;" x="267.9763" xlink:href="#ma712a32151" y="71.7976583746"/>
      </g>
     </g>
    </g>
    <g id="ytick_25">
     <g id="line2d_150">
      <g>
       <use style="stroke:#000000;stroke-width:0.5;" x="44.7763" xlink:href="#mbc05f016fd" y="67.6111458127"/>
      </g>
     </g>
     <g id="line2d_151">
      <g>
       <use style="stroke:#000000;stroke-width:0.5;" x="267.9763" xlink:href="#ma712a32151" y="67.6111458127"/>
      </g>
     </g>
    </g>
    <g id="ytick_26">
     <g id="line2d_152">
      <g>
       <use style="stroke:#000000;stroke-width:0.5;" x="44.7763" xlink:href="#mbc05f016fd" y="64.1905159834"/>
      </g>
     </g>
     <g id="line2d_153">
      <g>
       <use style="stroke:#000000;stroke-width:0.5;" x="267.9763" xlink:href="#ma712a32151" y="64.1905159834"/>
      </g>
     </g>
    </g>
    <g id="ytick_27">
     <g id="line2d_154">
      <g>
       <use style="stroke:#000000;stroke-width:0.5;" x="44.7763" xlink:href="#mbc05f016fd" y="61.2984146714"/>
      </g>
     </g>
     <g id="line2d_155">
      <g>
       <use style="stroke:#000000;stroke-width:0.5;" x="267.9763" xlink:href="#ma712a32151" y="61.2984146714"/>
      </g>
     </g>
    </g>
    <g id="ytick_28">
     <g id="line2d_156">
      <g>
       <use style="stroke:#000000;stroke-width:0.5;" x="44.7763" xlink:href="#mbc05f016fd" y="58.7931625619"/>
      </g>
     </g>
     <g id="line2d_157">
      <g>
       <use style="stroke:#000000;stroke-width:0.5;" x="267.9763" xlink:href="#ma712a32151" y="58.7931625619"/>
      </g>
     </g>
    </g>
    <g id="ytick_29">
     <g id="line2d_158">
      <g>
       <use style="stroke:#000000;stroke-width:0.5;" x="44.7763" xlink:href="#mbc05f016fd" y="56.5833735922"/>
      </g>
     </g>
     <g id="line2d_159">
      <g>
       <use style="stroke:#000000;stroke-width:0.5;" x="267.9763" xlink:href="#ma712a32151" y="56.5833735922"/>
      </g>
     </g>
    </g>
    <g id="ytick_30">
     <g id="line2d_160">
      <g>
       <use style="stroke:#000000;stroke-width:0.5;" x="44.7763" xlink:href="#mbc05f016fd" y="41.6021541873"/>
      </g>
     </g>
     <g id="line2d_161">
      <g>
       <use style="stroke:#000000;stroke-width:0.5;" x="267.9763" xlink:href="#ma712a32151" y="41.6021541873"/>
      </g>
     </g>
    </g>
    <g id="ytick_31">
     <g id="line2d_162">
      <g>
       <use style="stroke:#000000;stroke-width:0.5;" x="44.7763" xlink:href="#mbc05f016fd" y="33.9950117961"/>
      </g>
     </g>
     <g id="line2d_163">
      <g>
       <use style="stroke:#000000;stroke-width:0.5;" x="267.9763" xlink:href="#ma712a32151" y="33.9950117961"/>
      </g>
     </g>
    </g>
    <g id="ytick_32">
     <g id="line2d_164">
      <g>
       <use style="stroke:#000000;stroke-width:0.5;" x="44.7763" xlink:href="#mbc05f016fd" y="28.5976583746"/>
      </g>
     </g>
     <g id="line2d_165">
      <g>
       <use style="stroke:#000000;stroke-width:0.5;" x="267.9763" xlink:href="#ma712a32151" y="28.5976583746"/>
      </g>
     </g>
    </g>
    <g id="ytick_33">
     <g id="line2d_166">
      <g>
       <use style="stroke:#000000;stroke-width:0.5;" x="44.7763" xlink:href="#mbc05f016fd" y="24.4111458127"/>
      </g>
     </g>
     <g id="line2d_167">
      <g>
       <use style="stroke:#000000;stroke-width:0.5;" x="267.9763" xlink:href="#ma712a32151" y="24.4111458127"/>
      </g>
     </g>
    </g>
    <g id="ytick_34">
     <g id="line2d_168">
      <g>
       <use style="stroke:#000000;stroke-width:0.5;" x="44.7763" xlink:href="#mbc05f016fd" y="20.9905159834"/>
      </g>
     </g>
     <g id="line2d_169">
      <g>
       <use style="stroke:#000000;stroke-width:0.5;" x="267.9763" xlink:href="#ma712a32151" y="20.9905159834"/>
      </g>
     </g>
    </g>
    <g id="ytick_35">
     <g id="line2d_170">
      <g>
       <use style="stroke:#000000;stroke-width:0.5;" x="44.7763" xlink:href="#mbc05f016fd" y="18.0984146714"/>
      </g>
     </g>
     <g id="line2d_171">
      <g>
       <use style="stroke:#000000;stroke-width:0.5;" x="267.9763" xlink:href="#ma712a32151" y="18.0984146714"/>
      </g>
     </g>
    </g>
    <g id="ytick_36">
     <g id="line2d_172">
      <g>
       <use style="stroke:#000000;stroke-width:0.5;" x="44.7763" xlink:href="#mbc05f016fd" y="15.5931625619"/>
      </g>
     </g>
     <g id="line2d_173">
      <g>
       <use style="stroke:#000000;stroke-width:0.5;" x="267.9763" xlink:href="#ma712a32151" y="15.5931625619"/>
      </g>
     </g>
    </g>
    <g id="ytick_37">
     <g id="line2d_174">
      <g>
       <use style="stroke:#000000;stroke-width:0.5;" x="44.7763" xlink:href="#mbc05f016fd" y="13.3833735922"/>
      </g>
     </g>
     <g id="line2d_175">
      <g>
       <use style="stroke:#000000;stroke-width:0.5;" x="267.9763" xlink:href="#ma712a32151" y="13.3833735922"/>
      </g>
     </g>
    </g>
    <g id="text_12">
     <!-- MSD $(\mathrm{\mu m}^2)$ -->
     <defs>
      <path d="M 6.5 -25 
Q 5.609375 -25 5.609375 -24.125 
Q 5.609375 -23.6875 5.8125 -23.484375 
Q 22.90625 -6.78125 22.90625 25 
Q 22.90625 56.78125 6 73.296875 
Q 5.609375 73.53125 5.609375 74.125 
Q 5.609375 74.46875 5.875 74.734375 
Q 6.15625 75 6.5 75 
L 7.421875 75 
Q 7.71875 75 7.90625 74.8125 
Q 15.09375 69.140625 19.875 61.03125 
Q 24.65625 52.9375 26.875 43.75 
Q 29.109375 34.578125 29.109375 25 
Q 29.109375 17.921875 27.90625 11.0625 
Q 26.703125 4.203125 24.09375 -2.453125 
Q 21.484375 -9.125 17.484375 -14.765625 
Q 13.484375 -20.40625 7.90625 -24.8125 
Q 7.71875 -25 7.421875 -25 
z
" id="Cmr10-29"/>
      <path d="M 53.515625 70.515625 
L 53.515625 60.890625 
Q 47.90625 63.578125 42.921875 64.890625 
Q 37.9375 66.21875 33.296875 66.21875 
Q 25.25 66.21875 20.875 63.09375 
Q 16.5 59.96875 16.5 54.203125 
Q 16.5 49.359375 19.40625 46.890625 
Q 22.3125 44.4375 30.421875 42.921875 
L 36.375 41.703125 
Q 47.40625 39.59375 52.65625 34.296875 
Q 57.90625 29 57.90625 20.125 
Q 57.90625 9.515625 50.796875 4.046875 
Q 43.703125 -1.421875 29.984375 -1.421875 
Q 24.8125 -1.421875 18.96875 -0.25 
Q 13.140625 0.921875 6.890625 3.21875 
L 6.890625 13.375 
Q 12.890625 10.015625 18.65625 8.296875 
Q 24.421875 6.59375 29.984375 6.59375 
Q 38.421875 6.59375 43.015625 9.90625 
Q 47.609375 13.234375 47.609375 19.390625 
Q 47.609375 24.75 44.3125 27.78125 
Q 41.015625 30.8125 33.5 32.328125 
L 27.484375 33.5 
Q 16.453125 35.6875 11.515625 40.375 
Q 6.59375 45.0625 6.59375 53.421875 
Q 6.59375 63.09375 13.40625 68.65625 
Q 20.21875 74.21875 32.171875 74.21875 
Q 37.3125 74.21875 42.625 73.28125 
Q 47.953125 72.359375 53.515625 70.515625 
" id="BitstreamVeraSans-Roman-53"/>
      <path d="M 4.984375 0 
L 4.984375 2.6875 
Q 4.984375 2.9375 5.171875 3.21875 
L 20.703125 20.40625 
Q 24.21875 24.21875 26.40625 26.796875 
Q 28.609375 29.390625 30.75 32.765625 
Q 32.90625 36.140625 34.15625 39.625 
Q 35.40625 43.109375 35.40625 47.015625 
Q 35.40625 51.125 33.890625 54.859375 
Q 32.375 58.59375 29.375 60.84375 
Q 26.375 63.09375 22.125 63.09375 
Q 17.78125 63.09375 14.3125 60.46875 
Q 10.84375 57.859375 9.421875 53.71875 
Q 9.8125 53.8125 10.5 53.8125 
Q 12.75 53.8125 14.328125 52.296875 
Q 15.921875 50.78125 15.921875 48.390625 
Q 15.921875 46.09375 14.328125 44.5 
Q 12.75 42.921875 10.5 42.921875 
Q 8.15625 42.921875 6.5625 44.546875 
Q 4.984375 46.1875 4.984375 48.390625 
Q 4.984375 52.15625 6.390625 55.4375 
Q 7.8125 58.734375 10.46875 61.296875 
Q 13.140625 63.875 16.484375 65.234375 
Q 19.828125 66.609375 23.578125 66.609375 
Q 29.296875 66.609375 34.21875 64.1875 
Q 39.15625 61.765625 42.03125 57.34375 
Q 44.921875 52.9375 44.921875 47.015625 
Q 44.921875 42.671875 43.015625 38.765625 
Q 41.109375 34.859375 38.125 31.65625 
Q 35.15625 28.46875 30.515625 24.40625 
Q 25.875 20.359375 24.421875 19 
L 13.09375 8.109375 
L 22.703125 8.109375 
Q 29.78125 8.109375 34.546875 8.21875 
Q 39.3125 8.34375 39.59375 8.59375 
Q 40.765625 9.859375 42 17.828125 
L 44.921875 17.828125 
L 42.09375 0 
z
" id="Cmr10-32"/>
      <path d="M 9.8125 72.90625 
L 24.515625 72.90625 
L 43.109375 23.296875 
L 61.8125 72.90625 
L 76.515625 72.90625 
L 76.515625 0 
L 66.890625 0 
L 66.890625 64.015625 
L 48.09375 14.015625 
L 38.1875 14.015625 
L 19.390625 64.015625 
L 19.390625 0 
L 9.8125 0 
z
" id="BitstreamVeraSans-Roman-4d"/>
      <path d="M 31 -24.8125 
Q 25.4375 -20.40625 21.40625 -14.71875 
Q 17.390625 -9.03125 14.8125 -2.578125 
Q 12.25 3.859375 10.984375 10.890625 
Q 9.71875 17.921875 9.71875 25 
Q 9.71875 32.171875 10.984375 39.203125 
Q 12.25 46.234375 14.859375 52.734375 
Q 17.484375 59.234375 21.53125 64.890625 
Q 25.59375 70.5625 31 74.8125 
Q 31 75 31.5 75 
L 32.421875 75 
Q 32.71875 75 32.953125 74.734375 
Q 33.203125 74.46875 33.203125 74.125 
Q 33.203125 73.6875 33.015625 73.484375 
Q 28.125 68.703125 24.875 63.234375 
Q 21.625 57.765625 19.640625 51.578125 
Q 17.671875 45.40625 16.796875 38.78125 
Q 15.921875 32.171875 15.921875 25 
Q 15.921875 -6.78125 32.90625 -23.296875 
Q 33.203125 -23.578125 33.203125 -24.125 
Q 33.203125 -24.359375 32.9375 -24.671875 
Q 32.671875 -25 32.421875 -25 
L 31.5 -25 
Q 31 -25 31 -24.8125 
" id="Cmr10-28"/>
      <path d="M 19.671875 64.796875 
L 19.671875 8.109375 
L 31.59375 8.109375 
Q 46.6875 8.109375 53.6875 14.9375 
Q 60.6875 21.78125 60.6875 36.53125 
Q 60.6875 51.171875 53.6875 57.984375 
Q 46.6875 64.796875 31.59375 64.796875 
z
M 9.8125 72.90625 
L 30.078125 72.90625 
Q 51.265625 72.90625 61.171875 64.09375 
Q 71.09375 55.28125 71.09375 36.53125 
Q 71.09375 17.671875 61.125 8.828125 
Q 51.171875 0 30.078125 0 
L 9.8125 0 
z
" id="BitstreamVeraSans-Roman-44"/>
     </defs>
     <g transform="translate(15.7 124.10665)rotate(-90.0)scale(0.1 -0.1)">
      <use transform="translate(0.0 0.109375)" xlink:href="#BitstreamVeraSans-Roman-4d"/>
      <use transform="translate(86.279296875 0.109375)" xlink:href="#BitstreamVeraSans-Roman-53"/>
      <use transform="translate(149.755859375 0.109375)" xlink:href="#BitstreamVeraSans-Roman-44"/>
      <use transform="translate(226.7578125 0.109375)" xlink:href="#BitstreamVeraSans-Roman-20"/>
      <use transform="translate(258.544921875 0.109375)" xlink:href="#Cmr10-28"/>
      <use transform="translate(297.36328125 0.109375)" xlink:href="#Cmmi10-b9"/>
      <use transform="translate(357.568359375 0.109375)" xlink:href="#Cmr10-6d"/>
      <use transform="translate(445.33328125 38.3734375)scale(0.7)" xlink:href="#Cmr10-32"/>
      <use transform="translate(486.710625 0.109375)" xlink:href="#Cmr10-29"/>
     </g>
    </g>
   </g>
   <g id="legend_1">
    <g id="patch_7">
     <path d="M 171.560175 180.04165 
L 262.1453 180.04165 
Q 263.8113 180.04165 263.8113 178.37565 
L 263.8113 128.684891 
Q 263.8113 127.018891 262.1453 127.018891 
L 171.560175 127.018891 
Q 169.894175 127.018891 169.894175 128.684891 
L 169.894175 178.37565 
Q 169.894175 180.04165 171.560175 180.04165 
z
" style="fill:#ffffff;stroke:#000000;stroke-linejoin:miter;"/>
    </g>
    <g id="text_13">
     <!-- Particle Diameter -->
     <defs>
      <path d="M 41.109375 46.296875 
Q 39.59375 47.171875 37.8125 47.578125 
Q 36.03125 48 33.890625 48 
Q 26.265625 48 22.1875 43.046875 
Q 18.109375 38.09375 18.109375 28.8125 
L 18.109375 0 
L 9.078125 0 
L 9.078125 54.6875 
L 18.109375 54.6875 
L 18.109375 46.1875 
Q 20.953125 51.171875 25.484375 53.578125 
Q 30.03125 56 36.53125 56 
Q 37.453125 56 38.578125 55.875 
Q 39.703125 55.765625 41.0625 55.515625 
z
" id="BitstreamVeraSans-Roman-72"/>
      <path d="M 18.3125 70.21875 
L 18.3125 54.6875 
L 36.8125 54.6875 
L 36.8125 47.703125 
L 18.3125 47.703125 
L 18.3125 18.015625 
Q 18.3125 11.328125 20.140625 9.421875 
Q 21.96875 7.515625 27.59375 7.515625 
L 36.8125 7.515625 
L 36.8125 0 
L 27.59375 0 
Q 17.1875 0 13.234375 3.875 
Q 9.28125 7.765625 9.28125 18.015625 
L 9.28125 47.703125 
L 2.6875 47.703125 
L 2.6875 54.6875 
L 9.28125 54.6875 
L 9.28125 70.21875 
z
" id="BitstreamVeraSans-Roman-74"/>
      <path d="M 48.78125 52.59375 
L 48.78125 44.1875 
Q 44.96875 46.296875 41.140625 47.34375 
Q 37.3125 48.390625 33.40625 48.390625 
Q 24.65625 48.390625 19.8125 42.84375 
Q 14.984375 37.3125 14.984375 27.296875 
Q 14.984375 17.28125 19.8125 11.734375 
Q 24.65625 6.203125 33.40625 6.203125 
Q 37.3125 6.203125 41.140625 7.25 
Q 44.96875 8.296875 48.78125 10.40625 
L 48.78125 2.09375 
Q 45.015625 0.34375 40.984375 -0.53125 
Q 36.96875 -1.421875 32.421875 -1.421875 
Q 20.0625 -1.421875 12.78125 6.34375 
Q 5.515625 14.109375 5.515625 27.296875 
Q 5.515625 40.671875 12.859375 48.328125 
Q 20.21875 56 33.015625 56 
Q 37.15625 56 41.109375 55.140625 
Q 45.0625 54.296875 48.78125 52.59375 
" id="BitstreamVeraSans-Roman-63"/>
      <path d="M 19.671875 64.796875 
L 19.671875 37.40625 
L 32.078125 37.40625 
Q 38.96875 37.40625 42.71875 40.96875 
Q 46.484375 44.53125 46.484375 51.125 
Q 46.484375 57.671875 42.71875 61.234375 
Q 38.96875 64.796875 32.078125 64.796875 
z
M 9.8125 72.90625 
L 32.078125 72.90625 
Q 44.34375 72.90625 50.609375 67.359375 
Q 56.890625 61.8125 56.890625 51.125 
Q 56.890625 40.328125 50.609375 34.8125 
Q 44.34375 29.296875 32.078125 29.296875 
L 19.671875 29.296875 
L 19.671875 0 
L 9.8125 0 
z
" id="BitstreamVeraSans-Roman-50"/>
      <path d="M 9.421875 75.984375 
L 18.40625 75.984375 
L 18.40625 0 
L 9.421875 0 
z
" id="BitstreamVeraSans-Roman-6c"/>
      <path d="M 34.28125 27.484375 
Q 23.390625 27.484375 19.1875 25 
Q 14.984375 22.515625 14.984375 16.5 
Q 14.984375 11.71875 18.140625 8.90625 
Q 21.296875 6.109375 26.703125 6.109375 
Q 34.1875 6.109375 38.703125 11.40625 
Q 43.21875 16.703125 43.21875 25.484375 
L 43.21875 27.484375 
z
M 52.203125 31.203125 
L 52.203125 0 
L 43.21875 0 
L 43.21875 8.296875 
Q 40.140625 3.328125 35.546875 0.953125 
Q 30.953125 -1.421875 24.3125 -1.421875 
Q 15.921875 -1.421875 10.953125 3.296875 
Q 6 8.015625 6 15.921875 
Q 6 25.140625 12.171875 29.828125 
Q 18.359375 34.515625 30.609375 34.515625 
L 43.21875 34.515625 
L 43.21875 35.40625 
Q 43.21875 41.609375 39.140625 45 
Q 35.0625 48.390625 27.6875 48.390625 
Q 23 48.390625 18.546875 47.265625 
Q 14.109375 46.140625 10.015625 43.890625 
L 10.015625 52.203125 
Q 14.9375 54.109375 19.578125 55.046875 
Q 24.21875 56 28.609375 56 
Q 40.484375 56 46.34375 49.84375 
Q 52.203125 43.703125 52.203125 31.203125 
" id="BitstreamVeraSans-Roman-61"/>
     </defs>
     <g transform="translate(173.226175 137.949328125)scale(0.1 -0.1)">
      <use xlink:href="#BitstreamVeraSans-Roman-50"/>
      <use x="60.240234375" xlink:href="#BitstreamVeraSans-Roman-61"/>
      <use x="121.51953125" xlink:href="#BitstreamVeraSans-Roman-72"/>
      <use x="162.6328125" xlink:href="#BitstreamVeraSans-Roman-74"/>
      <use x="201.841796875" xlink:href="#BitstreamVeraSans-Roman-69"/>
      <use x="229.625" xlink:href="#BitstreamVeraSans-Roman-63"/>
      <use x="284.60546875" xlink:href="#BitstreamVeraSans-Roman-6c"/>
      <use x="312.388671875" xlink:href="#BitstreamVeraSans-Roman-65"/>
      <use x="373.912109375" xlink:href="#BitstreamVeraSans-Roman-20"/>
      <use x="405.69921875" xlink:href="#BitstreamVeraSans-Roman-44"/>
      <use x="482.701171875" xlink:href="#BitstreamVeraSans-Roman-69"/>
      <use x="510.484375" xlink:href="#BitstreamVeraSans-Roman-61"/>
      <use x="571.763671875" xlink:href="#BitstreamVeraSans-Roman-6d"/>
      <use x="669.17578125" xlink:href="#BitstreamVeraSans-Roman-65"/>
      <use x="730.69921875" xlink:href="#BitstreamVeraSans-Roman-74"/>
      <use x="769.908203125" xlink:href="#BitstreamVeraSans-Roman-65"/>
      <use x="831.431640625" xlink:href="#BitstreamVeraSans-Roman-72"/>
     </g>
    </g>
    <g id="line2d_176">
     <path d="M 193.403787 147.608014 
L 205.065787 147.608014 
" style="fill:none;stroke:#4daf4a;stroke-linecap:square;stroke-width:2.0;"/>
    </g>
    <g id="line2d_177"/>
    <g id="text_14">
     <!-- $60$ nm -->
     <defs>
      <path d="M 25 -2.203125 
Q 18.796875 -2.203125 14.640625 1.09375 
Q 10.5 4.390625 8.21875 9.640625 
Q 5.953125 14.890625 5.078125 20.65625 
Q 4.203125 26.421875 4.203125 32.328125 
Q 4.203125 40.234375 7.28125 48.1875 
Q 10.359375 56.15625 16.328125 61.375 
Q 22.3125 66.609375 30.515625 66.609375 
Q 33.9375 66.609375 36.890625 65.3125 
Q 39.84375 64.015625 41.53125 61.5 
Q 43.21875 58.984375 43.21875 55.421875 
Q 43.21875 53.375 41.828125 51.984375 
Q 40.4375 50.59375 38.375 50.59375 
Q 36.421875 50.59375 35 52 
Q 33.59375 53.421875 33.59375 55.421875 
Q 33.59375 57.375 35 58.78125 
Q 36.421875 60.203125 38.375 60.203125 
L 38.921875 60.203125 
Q 37.640625 62.015625 35.328125 62.859375 
Q 33.015625 63.71875 30.515625 63.71875 
Q 27.484375 63.71875 24.921875 62.390625 
Q 22.359375 61.078125 20.3125 58.828125 
Q 18.265625 56.59375 16.890625 53.875 
Q 15.53125 51.171875 14.765625 47.703125 
Q 14.015625 44.234375 13.8125 41.203125 
Q 13.625 38.1875 13.625 33.59375 
Q 15.375 37.703125 18.59375 40.3125 
Q 21.828125 42.921875 25.875 42.921875 
Q 30.328125 42.921875 33.984375 41.109375 
Q 37.640625 39.3125 40.28125 36.109375 
Q 42.921875 32.90625 44.3125 28.796875 
Q 45.703125 24.703125 45.703125 20.515625 
Q 45.703125 14.65625 43.09375 9.34375 
Q 40.484375 4.046875 35.734375 0.921875 
Q 31 -2.203125 25 -2.203125 
M 25 0.984375 
Q 28.859375 0.984375 31.203125 2.734375 
Q 33.546875 4.5 34.640625 7.390625 
Q 35.75 10.296875 36.015625 13.25 
Q 36.28125 16.21875 36.28125 20.515625 
Q 36.28125 26.171875 35.734375 30.171875 
Q 35.203125 34.1875 32.8125 37.234375 
Q 30.421875 40.28125 25.484375 40.28125 
Q 21.4375 40.28125 18.828125 37.546875 
Q 16.21875 34.8125 15.015625 30.640625 
Q 13.8125 26.46875 13.8125 22.609375 
Q 13.8125 21.296875 13.921875 20.609375 
Q 13.921875 20.453125 13.890625 20.359375 
Q 13.875 20.265625 13.8125 20.125 
Q 13.8125 15.828125 14.6875 11.421875 
Q 15.578125 7.03125 18.0625 4 
Q 20.5625 0.984375 25 0.984375 
" id="Cmr10-36"/>
      <path d="M 25 -2.203125 
Q 12.75 -2.203125 8.328125 7.875 
Q 3.90625 17.96875 3.90625 31.890625 
Q 3.90625 40.578125 5.484375 48.234375 
Q 7.078125 55.90625 11.78125 61.25 
Q 16.5 66.609375 25 66.609375 
Q 31.59375 66.609375 35.78125 63.375 
Q 39.984375 60.15625 42.1875 55.046875 
Q 44.390625 49.953125 45.1875 44.109375 
Q 46 38.28125 46 31.890625 
Q 46 23.296875 44.40625 15.796875 
Q 42.828125 8.296875 38.1875 3.046875 
Q 33.546875 -2.203125 25 -2.203125 
M 25 0.390625 
Q 30.5625 0.390625 33.296875 6.09375 
Q 36.03125 11.8125 36.671875 18.75 
Q 37.3125 25.6875 37.3125 33.5 
Q 37.3125 41.015625 36.671875 47.359375 
Q 36.03125 53.71875 33.3125 58.859375 
Q 30.609375 64.015625 25 64.015625 
Q 19.34375 64.015625 16.609375 58.828125 
Q 13.875 53.65625 13.234375 47.328125 
Q 12.59375 41.015625 12.59375 33.5 
Q 12.59375 27.9375 12.859375 23 
Q 13.140625 18.0625 14.3125 12.8125 
Q 15.484375 7.5625 18.09375 3.96875 
Q 20.703125 0.390625 25 0.390625 
" id="Cmr10-30"/>
      <path d="M 54.890625 33.015625 
L 54.890625 0 
L 45.90625 0 
L 45.90625 32.71875 
Q 45.90625 40.484375 42.875 44.328125 
Q 39.84375 48.1875 33.796875 48.1875 
Q 26.515625 48.1875 22.3125 43.546875 
Q 18.109375 38.921875 18.109375 30.90625 
L 18.109375 0 
L 9.078125 0 
L 9.078125 54.6875 
L 18.109375 54.6875 
L 18.109375 46.1875 
Q 21.34375 51.125 25.703125 53.5625 
Q 30.078125 56 35.796875 56 
Q 45.21875 56 50.046875 50.171875 
Q 54.890625 44.34375 54.890625 33.015625 
" id="BitstreamVeraSans-Roman-6e"/>
     </defs>
     <g transform="translate(214.2287875 150.523514063)scale(0.0833 -0.0833)">
      <use transform="translate(0.0 0.390625)" xlink:href="#Cmr10-36"/>
      <use transform="translate(50.0 0.390625)" xlink:href="#Cmr10-30"/>
      <use transform="translate(100.0 0.390625)" xlink:href="#BitstreamVeraSans-Roman-20"/>
      <use transform="translate(131.787109375 0.390625)" xlink:href="#BitstreamVeraSans-Roman-6e"/>
      <use transform="translate(195.166015625 0.390625)" xlink:href="#BitstreamVeraSans-Roman-6d"/>
     </g>
    </g>
    <g id="line2d_178">
     <path d="M 193.403787 159.834892 
L 205.065787 159.834892 
" style="fill:none;stroke:#984ea3;stroke-linecap:square;stroke-width:2.0;"/>
    </g>
    <g id="line2d_179"/>
    <g id="text_15">
     <!-- $95$ nm -->
     <defs>
      <path d="M 11.28125 4.203125 
Q 14.015625 0.984375 20.796875 0.984375 
Q 24.609375 0.984375 27.90625 3.5625 
Q 31.203125 6.15625 33.015625 9.90625 
Q 35.109375 14.15625 35.6875 18.96875 
Q 36.28125 23.78125 36.28125 30.90625 
Q 34.578125 26.859375 31.375 24.265625 
Q 28.171875 21.6875 24.03125 21.6875 
Q 18.21875 21.6875 13.640625 24.828125 
Q 9.078125 27.984375 6.640625 33.125 
Q 4.203125 38.28125 4.203125 44.09375 
Q 4.203125 50.09375 6.9375 55.296875 
Q 9.671875 60.5 14.5 63.546875 
Q 19.34375 66.609375 25.484375 66.609375 
Q 31.546875 66.609375 35.625 63.3125 
Q 39.703125 60.015625 41.84375 54.8125 
Q 44 49.609375 44.84375 43.796875 
Q 45.703125 37.984375 45.703125 32.328125 
Q 45.703125 24.609375 42.875 16.578125 
Q 40.046875 8.546875 34.40625 3.171875 
Q 28.765625 -2.203125 20.796875 -2.203125 
Q 14.890625 -2.203125 10.78125 0.578125 
Q 6.6875 3.375 6.6875 8.984375 
Q 6.6875 11.03125 8.078125 12.421875 
Q 9.46875 13.8125 11.53125 13.8125 
Q 13.53125 13.8125 14.921875 12.421875 
Q 16.3125 11.03125 16.3125 8.984375 
Q 16.3125 7.03125 14.890625 5.609375 
Q 13.484375 4.203125 11.53125 4.203125 
z
M 24.421875 24.3125 
Q 28.515625 24.3125 31.125 27.0625 
Q 33.734375 29.828125 34.90625 33.921875 
Q 36.078125 38.03125 36.078125 42.09375 
L 36.078125 44 
L 36.078125 44.390625 
Q 36.078125 51.90625 33.875 57.8125 
Q 31.6875 63.71875 25.484375 63.71875 
Q 21.53125 63.71875 19.0625 61.984375 
Q 16.609375 60.25 15.4375 57.375 
Q 14.265625 54.5 13.9375 51.21875 
Q 13.625 47.953125 13.625 44.09375 
Q 13.625 38.421875 14.15625 34.421875 
Q 14.703125 30.421875 17.09375 27.359375 
Q 19.484375 24.3125 24.421875 24.3125 
" id="Cmr10-39"/>
     </defs>
     <g transform="translate(214.2287875 162.750392188)scale(0.0833 -0.0833)">
      <use transform="translate(0.0 0.390625)" xlink:href="#Cmr10-39"/>
      <use transform="translate(50.0 0.390625)" xlink:href="#Cmr10-35"/>
      <use transform="translate(100.0 0.390625)" xlink:href="#BitstreamVeraSans-Roman-20"/>
      <use transform="translate(131.787109375 0.390625)" xlink:href="#BitstreamVeraSans-Roman-6e"/>
      <use transform="translate(195.166015625 0.390625)" xlink:href="#BitstreamVeraSans-Roman-6d"/>
     </g>
    </g>
    <g id="line2d_180">
     <path d="M 193.403787 172.06177 
L 205.065787 172.06177 
" style="fill:none;stroke:#ff7f00;stroke-linecap:square;stroke-width:2.0;"/>
    </g>
    <g id="line2d_181"/>
    <g id="text_16">
     <!-- $150$ nm -->
     <defs>
      <path d="M 9.28125 0 
L 9.28125 3.515625 
Q 21.78125 3.515625 21.78125 6.6875 
L 21.78125 59.1875 
Q 16.609375 56.6875 8.6875 56.6875 
L 8.6875 60.203125 
Q 20.953125 60.203125 27.203125 66.609375 
L 28.609375 66.609375 
Q 28.953125 66.609375 29.265625 66.328125 
Q 29.59375 66.0625 29.59375 65.71875 
L 29.59375 6.6875 
Q 29.59375 3.515625 42.09375 3.515625 
L 42.09375 0 
z
" id="Cmr10-31"/>
     </defs>
     <g transform="translate(214.2287875 174.977270313)scale(0.0833 -0.0833)">
      <use transform="translate(0.0 0.390625)" xlink:href="#Cmr10-31"/>
      <use transform="translate(50.0 0.390625)" xlink:href="#Cmr10-35"/>
      <use transform="translate(100.0 0.390625)" xlink:href="#Cmr10-30"/>
      <use transform="translate(150.0 0.390625)" xlink:href="#BitstreamVeraSans-Roman-20"/>
      <use transform="translate(181.787109375 0.390625)" xlink:href="#BitstreamVeraSans-Roman-6e"/>
      <use transform="translate(245.166015625 0.390625)" xlink:href="#BitstreamVeraSans-Roman-6d"/>
     </g>
    </g>
   </g>
  </g>
 </g>
 <defs>
  <clipPath id="pae8b5cd98f">
   <rect height="172.8" width="223.2" x="44.7763" y="11.40665"/>
  </clipPath>
 </defs>
</svg>
