<?xml version="1.0" encoding="utf-8" standalone="no"?>
<!DOCTYPE svg PUBLIC "-//W3C//DTD SVG 1.1//EN"
  "http://www.w3.org/Graphics/SVG/1.1/DTD/svg11.dtd">
<!-- Created with matplotlib (http://matplotlib.org/) -->
<svg height="227pt" version="1.1" viewBox="0 0 284 227" width="284pt" xmlns="http://www.w3.org/2000/svg" xmlns:xlink="http://www.w3.org/1999/xlink">
 <defs>
  <style type="text/css">
*{stroke-linecap:butt;stroke-linejoin:round;stroke-miterlimit:100000;}
  </style>
 </defs>
 <g id="figure_1">
  <g id="patch_1">
   <path d="M 0 227.20325 
L 284.1232 227.20325 
L 284.1232 0 
L 0 0 
z
" style="fill:#ffffff;"/>
  </g>
  <g id="axes_1">
   <g id="patch_2">
    <path d="M 45.9763 184.20665 
L 269.1763 184.20665 
L 269.1763 11.40665 
L 45.9763 11.40665 
z
" style="fill:#ffffff;"/>
   </g>
   <g id="line2d_1">
    <path clip-path="url(#p0d4c276854)" d="M 45.9763 44.931264 
L 269.1763 44.931264 
" style="fill:none;stroke:#000000;stroke-dasharray:1.000000,3.000000;stroke-dashoffset:0.0;stroke-width:2.0;"/>
   </g>
   <g id="line2d_2">
    <path clip-path="url(#p0d4c276854)" d="M 45.9763 81.840174 
L 269.1763 81.840174 
" style="fill:none;stroke:#000000;stroke-dasharray:1.000000,3.000000;stroke-dashoffset:0.0;stroke-width:2.0;"/>
   </g>
   <g id="line2d_3">
    <path clip-path="url(#p0d4c276854)" d="M 3.079732 194.468539 
L 218.003596 -1 
L 218.003596 -1 
" style="fill:none;stroke:#4daf4a;stroke-dasharray:1.000000,3.000000;stroke-dashoffset:0.0;"/>
   </g>
   <g id="line2d_4">
    <path clip-path="url(#p0d4c276854)" d="M 3.079732 213.335691 
L 9.05551 204.224368 
L 14.458289 196.364535 
L 19.716433 189.098885 
L 25.071965 182.110945 
L 29.777208 176.315799 
L 35.091823 170.135021 
L 40.423261 164.27063 
L 46.425215 157.996943 
L 53.768889 150.666349 
L 61.104062 143.616211 
L 69.769992 135.526161 
L 85.109714 121.657234 
L 113.786959 96.958058 
L 122.456487 89.749751 
L 125.790991 87.057993 
L 129.792363 83.792251 
L 132.460093 81.680859 
L 145.798194 71.320464 
L 147.13195 70.413902 
L 148.465767 69.426491 
L 155.134877 64.632629 
L 156.46874 63.669451 
L 159.803255 61.467844 
L 162.470918 59.8692 
L 163.804732 58.883269 
L 164.471663 58.608743 
L 165.805448 57.741291 
L 173.808356 53.380144 
L 177.809794 51.467943 
L 178.476727 51.359793 
L 179.810544 50.660382 
L 180.477432 50.494687 
L 181.144341 50.169033 
L 181.811261 50.040918 
L 182.478162 49.618723 
L 183.811982 49.536156 
L 184.478895 49.058895 
L 185.145805 48.825268 
L 185.812704 48.796325 
L 187.813432 48.159437 
L 188.480358 48.147968 
L 189.147253 47.804056 
L 189.814171 47.846038 
L 190.481083 47.409702 
L 191.147977 47.391435 
L 191.814893 47.108576 
L 193.148705 46.991547 
L 193.815617 46.7562 
L 194.482528 46.799695 
L 195.14943 46.977129 
L 195.81634 46.623023 
L 197.15016 46.342436 
L 197.817075 46.289492 
L 198.483977 46.361881 
L 199.150893 46.239675 
L 201.151608 46.357339 
L 202.485434 45.896088 
L 203.152343 46.14491 
L 204.486158 45.764989 
L 205.153062 45.920067 
L 205.819975 45.711459 
L 206.486879 45.998481 
L 207.820702 45.724137 
L 208.48761 46.014598 
L 209.154515 45.807134 
L 211.155247 45.96492 
L 211.822154 45.846237 
L 212.48906 46.045896 
L 213.155972 45.62047 
L 213.822879 45.856351 
L 214.48979 45.626925 
L 215.156695 46.191874 
L 215.823606 45.585028 
L 216.490516 45.6596 
L 217.157423 46.004603 
L 217.824329 46.128252 
L 218.491241 45.997663 
L 219.15815 45.606413 
L 219.825057 45.914321 
L 220.491965 45.436239 
L 221.158875 45.921608 
L 222.492693 46.381931 
L 223.159602 45.848811 
L 223.826509 46.297972 
L 225.827235 45.823865 
L 229.828686 46.099328 
L 230.495597 45.838852 
L 231.162504 46.287367 
L 231.829414 46.047217 
L 233.163232 46.206605 
L 233.830138 45.913471 
L 234.497047 45.942017 
L 235.163956 46.296906 
L 235.830865 45.695538 
L 236.497775 46.415595 
L 237.831591 45.380485 
L 239.165408 45.470599 
L 239.832318 46.423604 
L 240.499226 45.735106 
L 241.166134 46.009156 
L 241.833044 45.544056 
L 242.499952 46.195471 
L 243.166861 46.172866 
L 243.833769 45.507441 
L 244.500678 46.341277 
L 245.167587 46.597421 
L 245.834496 46.309543 
L 246.501404 45.616883 
L 247.168313 45.61657 
L 247.835222 46.096465 
L 248.50213 45.671462 
L 249.169039 46.09227 
L 249.835948 45.919515 
L 251.169765 45.955583 
L 251.836674 46.290475 
L 252.503583 45.847956 
L 253.8374 46.211811 
L 254.504309 45.013054 
L 255.171218 46.226617 
L 256.505035 46.525275 
L 257.171943 46.619231 
L 257.838852 46.200002 
L 258.505761 45.261677 
L 259.17267 46.704416 
L 259.839578 46.079374 
L 260.506487 47.129184 
L 261.173396 46.239763 
L 261.840304 44.691605 
L 262.507213 46.245831 
L 263.174122 46.167304 
L 263.841031 46.291914 
L 264.507939 46.984385 
L 265.174848 45.365377 
L 266.508665 46.437109 
L 267.175574 47.357505 
L 267.842483 46.015995 
L 268.509391 47.361764 
L 269.1763 45.879651 
L 269.1763 45.879651 
" style="fill:none;stroke:#4daf4a;stroke-linecap:square;stroke-width:2.0;"/>
   </g>
   <g id="line2d_5">
    <path clip-path="url(#p0d4c276854)" d="M 3.079732 220.333117 
L 246.442519 -1 
L 246.442519 -1 
" style="fill:none;stroke:#984ea3;stroke-dasharray:1.000000,3.000000;stroke-dashoffset:0.0;"/>
   </g>
   <g id="line2d_6">
    <path clip-path="url(#p0d4c276854)" d="M 10.326814 228.20325 
L 15.11323 221.305625 
L 20.440328 214.004782 
L 25.071965 207.992334 
L 29.777208 202.204174 
L 35.091823 196.030346 
L 40.423261 190.172236 
L 46.425215 183.906268 
L 53.768889 176.583832 
L 61.104062 169.540771 
L 69.769992 161.455589 
L 86.442812 146.404742 
L 100.44804 134.142081 
L 117.120808 119.987535 
L 125.790991 112.88231 
L 128.458521 110.6957 
L 135.127741 105.321401 
L 160.470195 85.460601 
L 163.137791 83.443739 
L 165.138562 81.829078 
L 174.475274 74.639117 
L 179.143634 71.250328 
L 179.810544 70.414909 
L 181.144341 69.686699 
L 183.145075 67.983948 
L 183.811982 67.64208 
L 185.145805 66.527514 
L 185.812704 66.144226 
L 187.813432 64.508539 
L 188.480358 64.200073 
L 189.147253 63.519389 
L 189.814171 63.246258 
L 190.481083 62.433033 
L 191.814893 61.689285 
L 197.817075 57.389588 
L 198.483977 57.184139 
L 200.484703 55.566968 
L 201.151608 55.133517 
L 201.81852 55.01422 
L 203.152343 53.734251 
L 203.819251 53.553464 
L 204.486158 52.880745 
L 205.153062 52.813294 
L 206.486879 51.690528 
L 209.154515 50.441955 
L 209.821425 49.922191 
L 210.488338 49.744039 
L 211.822154 48.67227 
L 212.48906 48.590403 
L 213.155972 48.178792 
L 214.48979 47.695306 
L 215.823606 46.730767 
L 216.490516 46.681862 
L 217.824329 46.236523 
L 218.491241 46.001793 
L 219.15815 45.416996 
L 219.825057 45.355392 
L 220.491965 44.734768 
L 221.158875 44.823195 
L 221.825782 44.353372 
L 223.159602 43.905342 
L 224.493418 44.141695 
L 225.827235 42.840995 
L 227.161051 42.669744 
L 229.161778 42.01148 
L 230.495597 42.081002 
L 231.162504 41.675812 
L 231.829414 41.555978 
L 232.496322 41.291991 
L 233.163232 41.213386 
L 233.830138 41.455293 
L 234.497047 41.333499 
L 235.163956 41.828261 
L 235.830865 41.437908 
L 236.497775 41.4949 
L 237.164684 41.314811 
L 237.831591 40.618874 
L 238.498501 40.777162 
L 239.165408 41.113482 
L 240.499226 40.930925 
L 241.166134 41.464012 
L 242.499952 40.606714 
L 243.166861 41.354358 
L 245.167587 40.588091 
L 246.501404 40.539172 
L 247.168313 40.447886 
L 247.835222 40.480443 
L 248.50213 39.902247 
L 249.169039 39.927632 
L 249.835948 40.220868 
L 250.502856 39.553836 
L 251.169765 39.949443 
L 253.170492 39.86331 
L 253.8374 39.905899 
L 254.504309 39.632241 
L 255.171218 39.667569 
L 255.838126 40.40587 
L 256.505035 40.481206 
L 257.171943 40.206398 
L 257.838852 40.781341 
L 258.505761 41.182472 
L 259.17267 40.925246 
L 259.839578 41.174997 
L 260.506487 41.2448 
L 261.173396 41.615581 
L 261.840304 40.455896 
L 262.507213 39.575058 
L 263.174122 39.083987 
L 263.841031 39.79589 
L 265.174848 40.017021 
L 265.841757 39.861129 
L 266.508665 39.579024 
L 267.175574 39.973101 
L 267.842483 39.395018 
L 268.509391 39.388307 
L 269.1763 39.70496 
L 269.1763 39.70496 
" style="fill:none;stroke:#984ea3;stroke-linecap:square;stroke-width:2.0;"/>
   </g>
   <g id="line2d_7">
    <path clip-path="url(#p0d4c276854)" d="M 22.693525 228.20325 
L 269.1763 4.032573 
L 269.1763 4.032573 
" style="fill:none;stroke:#ff7f00;stroke-dasharray:1.000000,3.000000;stroke-dashoffset:0.0;"/>
   </g>
   <g id="line2d_8">
    <path clip-path="url(#p0d4c276854)" d="M 29.429742 228.20325 
L 34.416571 222.36424 
L 39.084702 217.170001 
L 45.091166 210.804392 
L 53.093414 202.74216 
L 63.104405 193.093399 
L 73.76947 183.148515 
L 91.111474 167.441717 
L 106.450169 153.90291 
L 109.785094 151.002902 
L 116.454485 145.233693 
L 125.12396 137.853754 
L 130.459383 133.384739 
L 141.79682 124.023506 
L 146.465102 120.275847 
L 149.132671 118.096629 
L 150.466512 117.088338 
L 151.800409 115.991029 
L 153.801145 114.40998 
L 174.475274 98.542928 
L 175.142182 98.178904 
L 177.809794 96.04185 
L 187.813432 88.528406 
L 188.480358 88.214912 
L 189.147253 87.347306 
L 190.481083 86.447401 
L 192.481793 84.988066 
L 193.148705 84.346079 
L 193.815617 83.869087 
L 194.482528 83.561938 
L 195.81634 82.369934 
L 196.48325 82.039771 
L 197.817075 81.00762 
L 198.483977 80.584154 
L 199.8178 79.156535 
L 200.484703 78.950289 
L 201.151608 78.141611 
L 201.81852 77.878011 
L 202.485434 77.132428 
L 203.152343 76.946085 
L 205.819975 74.697115 
L 206.486879 74.408445 
L 207.153794 73.701061 
L 207.820702 73.540439 
L 208.48761 72.733592 
L 211.822154 70.040114 
L 212.48906 69.553595 
L 213.155972 69.265088 
L 213.822879 68.41557 
L 214.48979 68.232435 
L 215.156695 67.800993 
L 216.490516 66.445946 
L 219.15815 64.623953 
L 220.491965 63.431027 
L 221.158875 63.019205 
L 221.825782 62.365123 
L 222.492693 62.167069 
L 223.159602 61.74817 
L 223.826509 61.050233 
L 224.493418 60.546281 
L 225.160328 59.842557 
L 225.827235 59.824694 
L 226.494145 59.127199 
L 227.161051 59.075787 
L 227.827962 58.155122 
L 228.494869 57.450176 
L 229.161778 57.676462 
L 229.828686 56.535123 
L 230.495597 56.351448 
L 231.162504 55.476276 
L 232.496322 55.712316 
L 233.163232 55.146636 
L 233.830138 54.408268 
L 234.497047 53.867224 
L 235.163956 53.52653 
L 235.830865 52.874971 
L 236.497775 53.145179 
L 237.164684 52.516784 
L 240.499226 50.283524 
L 241.166134 50.789239 
L 241.833044 50.470601 
L 242.499952 49.74573 
L 243.166861 49.478138 
L 244.500678 47.923056 
L 245.167587 47.893593 
L 245.834496 47.525074 
L 247.168313 47.475635 
L 247.835222 47.575684 
L 248.50213 47.141859 
L 249.169039 46.481157 
L 250.502856 45.714271 
L 251.169765 45.316048 
L 251.836674 45.401601 
L 252.503583 44.25204 
L 253.8374 44.690055 
L 255.171218 43.415634 
L 255.838126 43.37249 
L 256.505035 42.629573 
L 257.171943 42.362197 
L 257.838852 42.499981 
L 258.505761 42.416243 
L 259.17267 42.112709 
L 260.506487 41.991557 
L 261.173396 41.681596 
L 261.840304 41.608593 
L 262.507213 41.160527 
L 263.174122 41.191984 
L 263.841031 40.488004 
L 264.507939 40.207709 
L 265.174848 40.535483 
L 266.508665 40.168293 
L 267.175574 40.215143 
L 267.842483 40.102148 
L 268.509391 39.707953 
L 269.1763 40.324425 
L 269.1763 40.324425 
" style="fill:none;stroke:#ff7f00;stroke-linecap:square;stroke-width:2.0;"/>
   </g>
   <g id="patch_3">
    <path d="M 45.9763 184.20665 
L 269.1763 184.20665 
" style="fill:none;stroke:#000000;stroke-linecap:square;stroke-linejoin:miter;"/>
   </g>
   <g id="patch_4">
    <path d="M 269.1763 184.20665 
L 269.1763 11.40665 
" style="fill:none;stroke:#000000;stroke-linecap:square;stroke-linejoin:miter;"/>
   </g>
   <g id="patch_5">
    <path d="M 45.9763 184.20665 
L 45.9763 11.40665 
" style="fill:none;stroke:#000000;stroke-linecap:square;stroke-linejoin:miter;"/>
   </g>
   <g id="patch_6">
    <path d="M 45.9763 11.40665 
L 269.1763 11.40665 
" style="fill:none;stroke:#000000;stroke-linecap:square;stroke-linejoin:miter;"/>
   </g>
   <g id="matplotlib.axis_1">
    <g id="xtick_1">
     <g id="line2d_9">
      <defs>
       <path d="M 0 0 
L 0 -4 
" id="maf5d13bd7a" style="stroke:#000000;stroke-width:0.5;"/>
      </defs>
      <g>
       <use style="stroke:#000000;stroke-width:0.5;" x="79.1772152695" xlink:href="#maf5d13bd7a" y="184.20665"/>
      </g>
     </g>
     <g id="line2d_10">
      <defs>
       <path d="M 0 0 
L 0 4 
" id="ma5a1f42ed1" style="stroke:#000000;stroke-width:0.5;"/>
      </defs>
      <g>
       <use style="stroke:#000000;stroke-width:0.5;" x="79.1772152695" xlink:href="#ma5a1f42ed1" y="11.40665"/>
      </g>
     </g>
     <g id="text_1">
      <!-- $\mathdefault{10^{0}}$ -->
      <defs>
       <path d="M 12.40625 8.296875 
L 28.515625 8.296875 
L 28.515625 63.921875 
L 10.984375 60.40625 
L 10.984375 69.390625 
L 28.421875 72.90625 
L 38.28125 72.90625 
L 38.28125 8.296875 
L 54.390625 8.296875 
L 54.390625 0 
L 12.40625 0 
z
" id="BitstreamVeraSans-Roman-31"/>
       <path d="M 31.78125 66.40625 
Q 24.171875 66.40625 20.328125 58.90625 
Q 16.5 51.421875 16.5 36.375 
Q 16.5 21.390625 20.328125 13.890625 
Q 24.171875 6.390625 31.78125 6.390625 
Q 39.453125 6.390625 43.28125 13.890625 
Q 47.125 21.390625 47.125 36.375 
Q 47.125 51.421875 43.28125 58.90625 
Q 39.453125 66.40625 31.78125 66.40625 
M 31.78125 74.21875 
Q 44.046875 74.21875 50.515625 64.515625 
Q 56.984375 54.828125 56.984375 36.375 
Q 56.984375 17.96875 50.515625 8.265625 
Q 44.046875 -1.421875 31.78125 -1.421875 
Q 19.53125 -1.421875 13.0625 8.265625 
Q 6.59375 17.96875 6.59375 36.375 
Q 6.59375 54.828125 13.0625 64.515625 
Q 19.53125 74.21875 31.78125 74.21875 
" id="BitstreamVeraSans-Roman-30"/>
      </defs>
      <g transform="translate(71.4303152695 194.970870313)scale(0.0833 -0.0833)">
       <use transform="translate(0.0 0.796875)" xlink:href="#BitstreamVeraSans-Roman-31"/>
       <use transform="translate(63.623046875 0.796875)" xlink:href="#BitstreamVeraSans-Roman-30"/>
       <use transform="translate(132.75859375 48.046875)scale(0.7)" xlink:href="#BitstreamVeraSans-Roman-30"/>
      </g>
     </g>
    </g>
    <g id="xtick_2">
     <g id="line2d_11">
      <g>
       <use style="stroke:#000000;stroke-width:0.5;" x="126.676986452" xlink:href="#maf5d13bd7a" y="184.20665"/>
      </g>
     </g>
     <g id="line2d_12">
      <g>
       <use style="stroke:#000000;stroke-width:0.5;" x="126.676986452" xlink:href="#ma5a1f42ed1" y="11.40665"/>
      </g>
     </g>
     <g id="text_2">
      <!-- $\mathdefault{10^{1}}$ -->
      <g transform="translate(118.930086452 194.887570313)scale(0.0833 -0.0833)">
       <use transform="translate(0.0 0.7156250000000028)" xlink:href="#BitstreamVeraSans-Roman-31"/>
       <use transform="translate(63.623046875 0.7156250000000028)" xlink:href="#BitstreamVeraSans-Roman-30"/>
       <use transform="translate(132.75859375 47.965625)scale(0.7)" xlink:href="#BitstreamVeraSans-Roman-31"/>
      </g>
     </g>
    </g>
    <g id="xtick_3">
     <g id="line2d_13">
      <g>
       <use style="stroke:#000000;stroke-width:0.5;" x="174.176757635" xlink:href="#maf5d13bd7a" y="184.20665"/>
      </g>
     </g>
     <g id="line2d_14">
      <g>
       <use style="stroke:#000000;stroke-width:0.5;" x="174.176757635" xlink:href="#ma5a1f42ed1" y="11.40665"/>
      </g>
     </g>
     <g id="text_3">
      <!-- $\mathdefault{10^{2}}$ -->
      <defs>
       <path d="M 19.1875 8.296875 
L 53.609375 8.296875 
L 53.609375 0 
L 7.328125 0 
L 7.328125 8.296875 
Q 12.9375 14.109375 22.625 23.890625 
Q 32.328125 33.6875 34.8125 36.53125 
Q 39.546875 41.84375 41.421875 45.53125 
Q 43.3125 49.21875 43.3125 52.78125 
Q 43.3125 58.59375 39.234375 62.25 
Q 35.15625 65.921875 28.609375 65.921875 
Q 23.96875 65.921875 18.8125 64.3125 
Q 13.671875 62.703125 7.8125 59.421875 
L 7.8125 69.390625 
Q 13.765625 71.78125 18.9375 73 
Q 24.125 74.21875 28.421875 74.21875 
Q 39.75 74.21875 46.484375 68.546875 
Q 53.21875 62.890625 53.21875 53.421875 
Q 53.21875 48.921875 51.53125 44.890625 
Q 49.859375 40.875 45.40625 35.40625 
Q 44.1875 33.984375 37.640625 27.21875 
Q 31.109375 20.453125 19.1875 8.296875 
" id="BitstreamVeraSans-Roman-32"/>
      </defs>
      <g transform="translate(166.429857635 194.970870313)scale(0.0833 -0.0833)">
       <use transform="translate(0.0 0.796875)" xlink:href="#BitstreamVeraSans-Roman-31"/>
       <use transform="translate(63.623046875 0.796875)" xlink:href="#BitstreamVeraSans-Roman-30"/>
       <use transform="translate(132.75859375 48.046875)scale(0.7)" xlink:href="#BitstreamVeraSans-Roman-32"/>
      </g>
     </g>
    </g>
    <g id="xtick_4">
     <g id="line2d_15">
      <g>
       <use style="stroke:#000000;stroke-width:0.5;" x="221.676528817" xlink:href="#maf5d13bd7a" y="184.20665"/>
      </g>
     </g>
     <g id="line2d_16">
      <g>
       <use style="stroke:#000000;stroke-width:0.5;" x="221.676528817" xlink:href="#ma5a1f42ed1" y="11.40665"/>
      </g>
     </g>
     <g id="text_4">
      <!-- $\mathdefault{10^{3}}$ -->
      <defs>
       <path d="M 40.578125 39.3125 
Q 47.65625 37.796875 51.625 33 
Q 55.609375 28.21875 55.609375 21.1875 
Q 55.609375 10.40625 48.1875 4.484375 
Q 40.765625 -1.421875 27.09375 -1.421875 
Q 22.515625 -1.421875 17.65625 -0.515625 
Q 12.796875 0.390625 7.625 2.203125 
L 7.625 11.71875 
Q 11.71875 9.328125 16.59375 8.109375 
Q 21.484375 6.890625 26.8125 6.890625 
Q 36.078125 6.890625 40.9375 10.546875 
Q 45.796875 14.203125 45.796875 21.1875 
Q 45.796875 27.640625 41.28125 31.265625 
Q 36.765625 34.90625 28.71875 34.90625 
L 20.21875 34.90625 
L 20.21875 43.015625 
L 29.109375 43.015625 
Q 36.375 43.015625 40.234375 45.921875 
Q 44.09375 48.828125 44.09375 54.296875 
Q 44.09375 59.90625 40.109375 62.90625 
Q 36.140625 65.921875 28.71875 65.921875 
Q 24.65625 65.921875 20.015625 65.03125 
Q 15.375 64.15625 9.8125 62.3125 
L 9.8125 71.09375 
Q 15.4375 72.65625 20.34375 73.4375 
Q 25.25 74.21875 29.59375 74.21875 
Q 40.828125 74.21875 47.359375 69.109375 
Q 53.90625 64.015625 53.90625 55.328125 
Q 53.90625 49.265625 50.4375 45.09375 
Q 46.96875 40.921875 40.578125 39.3125 
" id="BitstreamVeraSans-Roman-33"/>
      </defs>
      <g transform="translate(213.929628817 194.970870313)scale(0.0833 -0.0833)">
       <use transform="translate(0.0 0.796875)" xlink:href="#BitstreamVeraSans-Roman-31"/>
       <use transform="translate(63.623046875 0.796875)" xlink:href="#BitstreamVeraSans-Roman-30"/>
       <use transform="translate(132.75859375 48.046875)scale(0.7)" xlink:href="#BitstreamVeraSans-Roman-33"/>
      </g>
     </g>
    </g>
    <g id="xtick_5">
     <g id="line2d_17">
      <g>
       <use style="stroke:#000000;stroke-width:0.5;" x="269.1763" xlink:href="#maf5d13bd7a" y="184.20665"/>
      </g>
     </g>
     <g id="line2d_18">
      <g>
       <use style="stroke:#000000;stroke-width:0.5;" x="269.1763" xlink:href="#ma5a1f42ed1" y="11.40665"/>
      </g>
     </g>
     <g id="text_5">
      <!-- $\mathdefault{10^{4}}$ -->
      <defs>
       <path d="M 37.796875 64.3125 
L 12.890625 25.390625 
L 37.796875 25.390625 
z
M 35.203125 72.90625 
L 47.609375 72.90625 
L 47.609375 25.390625 
L 58.015625 25.390625 
L 58.015625 17.1875 
L 47.609375 17.1875 
L 47.609375 0 
L 37.796875 0 
L 37.796875 17.1875 
L 4.890625 17.1875 
L 4.890625 26.703125 
z
" id="BitstreamVeraSans-Roman-34"/>
      </defs>
      <g transform="translate(261.4294 194.887570313)scale(0.0833 -0.0833)">
       <use transform="translate(0.0 0.7156250000000028)" xlink:href="#BitstreamVeraSans-Roman-31"/>
       <use transform="translate(63.623046875 0.7156250000000028)" xlink:href="#BitstreamVeraSans-Roman-30"/>
       <use transform="translate(132.75859375 47.965625)scale(0.7)" xlink:href="#BitstreamVeraSans-Roman-34"/>
      </g>
     </g>
    </g>
    <g id="xtick_6">
     <g id="line2d_19">
      <defs>
       <path d="M 0 0 
L 0 -2 
" id="me9b1edb4c8" style="stroke:#000000;stroke-width:0.5;"/>
      </defs>
      <g>
       <use style="stroke:#000000;stroke-width:0.5;" x="45.9763" xlink:href="#me9b1edb4c8" y="184.20665"/>
      </g>
     </g>
     <g id="line2d_20">
      <defs>
       <path d="M 0 0 
L 0 2 
" id="m5b52aeeca9" style="stroke:#000000;stroke-width:0.5;"/>
      </defs>
      <g>
       <use style="stroke:#000000;stroke-width:0.5;" x="45.9763" xlink:href="#m5b52aeeca9" y="11.40665"/>
      </g>
     </g>
    </g>
    <g id="xtick_7">
     <g id="line2d_21">
      <g>
       <use style="stroke:#000000;stroke-width:0.5;" x="54.3405945124" xlink:href="#me9b1edb4c8" y="184.20665"/>
      </g>
     </g>
     <g id="line2d_22">
      <g>
       <use style="stroke:#000000;stroke-width:0.5;" x="54.3405945124" xlink:href="#m5b52aeeca9" y="11.40665"/>
      </g>
     </g>
    </g>
    <g id="xtick_8">
     <g id="line2d_23">
      <g>
       <use style="stroke:#000000;stroke-width:0.5;" x="60.2751559131" xlink:href="#me9b1edb4c8" y="184.20665"/>
      </g>
     </g>
     <g id="line2d_24">
      <g>
       <use style="stroke:#000000;stroke-width:0.5;" x="60.2751559131" xlink:href="#m5b52aeeca9" y="11.40665"/>
      </g>
     </g>
    </g>
    <g id="xtick_9">
     <g id="line2d_25">
      <g>
       <use style="stroke:#000000;stroke-width:0.5;" x="64.8783593563" xlink:href="#me9b1edb4c8" y="184.20665"/>
      </g>
     </g>
     <g id="line2d_26">
      <g>
       <use style="stroke:#000000;stroke-width:0.5;" x="64.8783593563" xlink:href="#m5b52aeeca9" y="11.40665"/>
      </g>
     </g>
    </g>
    <g id="xtick_10">
     <g id="line2d_27">
      <g>
       <use style="stroke:#000000;stroke-width:0.5;" x="68.6394504256" xlink:href="#me9b1edb4c8" y="184.20665"/>
      </g>
     </g>
     <g id="line2d_28">
      <g>
       <use style="stroke:#000000;stroke-width:0.5;" x="68.6394504256" xlink:href="#m5b52aeeca9" y="11.40665"/>
      </g>
     </g>
    </g>
    <g id="xtick_11">
     <g id="line2d_29">
      <g>
       <use style="stroke:#000000;stroke-width:0.5;" x="71.8194076144" xlink:href="#me9b1edb4c8" y="184.20665"/>
      </g>
     </g>
     <g id="line2d_30">
      <g>
       <use style="stroke:#000000;stroke-width:0.5;" x="71.8194076144" xlink:href="#m5b52aeeca9" y="11.40665"/>
      </g>
     </g>
    </g>
    <g id="xtick_12">
     <g id="line2d_31">
      <g>
       <use style="stroke:#000000;stroke-width:0.5;" x="74.5740118263" xlink:href="#me9b1edb4c8" y="184.20665"/>
      </g>
     </g>
     <g id="line2d_32">
      <g>
       <use style="stroke:#000000;stroke-width:0.5;" x="74.5740118263" xlink:href="#m5b52aeeca9" y="11.40665"/>
      </g>
     </g>
    </g>
    <g id="xtick_13">
     <g id="line2d_33">
      <g>
       <use style="stroke:#000000;stroke-width:0.5;" x="77.003744938" xlink:href="#me9b1edb4c8" y="184.20665"/>
      </g>
     </g>
     <g id="line2d_34">
      <g>
       <use style="stroke:#000000;stroke-width:0.5;" x="77.003744938" xlink:href="#m5b52aeeca9" y="11.40665"/>
      </g>
     </g>
    </g>
    <g id="xtick_14">
     <g id="line2d_35">
      <g>
       <use style="stroke:#000000;stroke-width:0.5;" x="93.4760711826" xlink:href="#me9b1edb4c8" y="184.20665"/>
      </g>
     </g>
     <g id="line2d_36">
      <g>
       <use style="stroke:#000000;stroke-width:0.5;" x="93.4760711826" xlink:href="#m5b52aeeca9" y="11.40665"/>
      </g>
     </g>
    </g>
    <g id="xtick_15">
     <g id="line2d_37">
      <g>
       <use style="stroke:#000000;stroke-width:0.5;" x="101.840365695" xlink:href="#me9b1edb4c8" y="184.20665"/>
      </g>
     </g>
     <g id="line2d_38">
      <g>
       <use style="stroke:#000000;stroke-width:0.5;" x="101.840365695" xlink:href="#m5b52aeeca9" y="11.40665"/>
      </g>
     </g>
    </g>
    <g id="xtick_16">
     <g id="line2d_39">
      <g>
       <use style="stroke:#000000;stroke-width:0.5;" x="107.774927096" xlink:href="#me9b1edb4c8" y="184.20665"/>
      </g>
     </g>
     <g id="line2d_40">
      <g>
       <use style="stroke:#000000;stroke-width:0.5;" x="107.774927096" xlink:href="#m5b52aeeca9" y="11.40665"/>
      </g>
     </g>
    </g>
    <g id="xtick_17">
     <g id="line2d_41">
      <g>
       <use style="stroke:#000000;stroke-width:0.5;" x="112.378130539" xlink:href="#me9b1edb4c8" y="184.20665"/>
      </g>
     </g>
     <g id="line2d_42">
      <g>
       <use style="stroke:#000000;stroke-width:0.5;" x="112.378130539" xlink:href="#m5b52aeeca9" y="11.40665"/>
      </g>
     </g>
    </g>
    <g id="xtick_18">
     <g id="line2d_43">
      <g>
       <use style="stroke:#000000;stroke-width:0.5;" x="116.139221608" xlink:href="#me9b1edb4c8" y="184.20665"/>
      </g>
     </g>
     <g id="line2d_44">
      <g>
       <use style="stroke:#000000;stroke-width:0.5;" x="116.139221608" xlink:href="#m5b52aeeca9" y="11.40665"/>
      </g>
     </g>
    </g>
    <g id="xtick_19">
     <g id="line2d_45">
      <g>
       <use style="stroke:#000000;stroke-width:0.5;" x="119.319178797" xlink:href="#me9b1edb4c8" y="184.20665"/>
      </g>
     </g>
     <g id="line2d_46">
      <g>
       <use style="stroke:#000000;stroke-width:0.5;" x="119.319178797" xlink:href="#m5b52aeeca9" y="11.40665"/>
      </g>
     </g>
    </g>
    <g id="xtick_20">
     <g id="line2d_47">
      <g>
       <use style="stroke:#000000;stroke-width:0.5;" x="122.073783009" xlink:href="#me9b1edb4c8" y="184.20665"/>
      </g>
     </g>
     <g id="line2d_48">
      <g>
       <use style="stroke:#000000;stroke-width:0.5;" x="122.073783009" xlink:href="#m5b52aeeca9" y="11.40665"/>
      </g>
     </g>
    </g>
    <g id="xtick_21">
     <g id="line2d_49">
      <g>
       <use style="stroke:#000000;stroke-width:0.5;" x="124.503516121" xlink:href="#me9b1edb4c8" y="184.20665"/>
      </g>
     </g>
     <g id="line2d_50">
      <g>
       <use style="stroke:#000000;stroke-width:0.5;" x="124.503516121" xlink:href="#m5b52aeeca9" y="11.40665"/>
      </g>
     </g>
    </g>
    <g id="xtick_22">
     <g id="line2d_51">
      <g>
       <use style="stroke:#000000;stroke-width:0.5;" x="140.975842365" xlink:href="#me9b1edb4c8" y="184.20665"/>
      </g>
     </g>
     <g id="line2d_52">
      <g>
       <use style="stroke:#000000;stroke-width:0.5;" x="140.975842365" xlink:href="#m5b52aeeca9" y="11.40665"/>
      </g>
     </g>
    </g>
    <g id="xtick_23">
     <g id="line2d_53">
      <g>
       <use style="stroke:#000000;stroke-width:0.5;" x="149.340136878" xlink:href="#me9b1edb4c8" y="184.20665"/>
      </g>
     </g>
     <g id="line2d_54">
      <g>
       <use style="stroke:#000000;stroke-width:0.5;" x="149.340136878" xlink:href="#m5b52aeeca9" y="11.40665"/>
      </g>
     </g>
    </g>
    <g id="xtick_24">
     <g id="line2d_55">
      <g>
       <use style="stroke:#000000;stroke-width:0.5;" x="155.274698278" xlink:href="#me9b1edb4c8" y="184.20665"/>
      </g>
     </g>
     <g id="line2d_56">
      <g>
       <use style="stroke:#000000;stroke-width:0.5;" x="155.274698278" xlink:href="#m5b52aeeca9" y="11.40665"/>
      </g>
     </g>
    </g>
    <g id="xtick_25">
     <g id="line2d_57">
      <g>
       <use style="stroke:#000000;stroke-width:0.5;" x="159.877901722" xlink:href="#me9b1edb4c8" y="184.20665"/>
      </g>
     </g>
     <g id="line2d_58">
      <g>
       <use style="stroke:#000000;stroke-width:0.5;" x="159.877901722" xlink:href="#m5b52aeeca9" y="11.40665"/>
      </g>
     </g>
    </g>
    <g id="xtick_26">
     <g id="line2d_59">
      <g>
       <use style="stroke:#000000;stroke-width:0.5;" x="163.638992791" xlink:href="#me9b1edb4c8" y="184.20665"/>
      </g>
     </g>
     <g id="line2d_60">
      <g>
       <use style="stroke:#000000;stroke-width:0.5;" x="163.638992791" xlink:href="#m5b52aeeca9" y="11.40665"/>
      </g>
     </g>
    </g>
    <g id="xtick_27">
     <g id="line2d_61">
      <g>
       <use style="stroke:#000000;stroke-width:0.5;" x="166.81894998" xlink:href="#me9b1edb4c8" y="184.20665"/>
      </g>
     </g>
     <g id="line2d_62">
      <g>
       <use style="stroke:#000000;stroke-width:0.5;" x="166.81894998" xlink:href="#m5b52aeeca9" y="11.40665"/>
      </g>
     </g>
    </g>
    <g id="xtick_28">
     <g id="line2d_63">
      <g>
       <use style="stroke:#000000;stroke-width:0.5;" x="169.573554192" xlink:href="#me9b1edb4c8" y="184.20665"/>
      </g>
     </g>
     <g id="line2d_64">
      <g>
       <use style="stroke:#000000;stroke-width:0.5;" x="169.573554192" xlink:href="#m5b52aeeca9" y="11.40665"/>
      </g>
     </g>
    </g>
    <g id="xtick_29">
     <g id="line2d_65">
      <g>
       <use style="stroke:#000000;stroke-width:0.5;" x="172.003287303" xlink:href="#me9b1edb4c8" y="184.20665"/>
      </g>
     </g>
     <g id="line2d_66">
      <g>
       <use style="stroke:#000000;stroke-width:0.5;" x="172.003287303" xlink:href="#m5b52aeeca9" y="11.40665"/>
      </g>
     </g>
    </g>
    <g id="xtick_30">
     <g id="line2d_67">
      <g>
       <use style="stroke:#000000;stroke-width:0.5;" x="188.475613548" xlink:href="#me9b1edb4c8" y="184.20665"/>
      </g>
     </g>
     <g id="line2d_68">
      <g>
       <use style="stroke:#000000;stroke-width:0.5;" x="188.475613548" xlink:href="#m5b52aeeca9" y="11.40665"/>
      </g>
     </g>
    </g>
    <g id="xtick_31">
     <g id="line2d_69">
      <g>
       <use style="stroke:#000000;stroke-width:0.5;" x="196.83990806" xlink:href="#me9b1edb4c8" y="184.20665"/>
      </g>
     </g>
     <g id="line2d_70">
      <g>
       <use style="stroke:#000000;stroke-width:0.5;" x="196.83990806" xlink:href="#m5b52aeeca9" y="11.40665"/>
      </g>
     </g>
    </g>
    <g id="xtick_32">
     <g id="line2d_71">
      <g>
       <use style="stroke:#000000;stroke-width:0.5;" x="202.774469461" xlink:href="#me9b1edb4c8" y="184.20665"/>
      </g>
     </g>
     <g id="line2d_72">
      <g>
       <use style="stroke:#000000;stroke-width:0.5;" x="202.774469461" xlink:href="#m5b52aeeca9" y="11.40665"/>
      </g>
     </g>
    </g>
    <g id="xtick_33">
     <g id="line2d_73">
      <g>
       <use style="stroke:#000000;stroke-width:0.5;" x="207.377672904" xlink:href="#me9b1edb4c8" y="184.20665"/>
      </g>
     </g>
     <g id="line2d_74">
      <g>
       <use style="stroke:#000000;stroke-width:0.5;" x="207.377672904" xlink:href="#m5b52aeeca9" y="11.40665"/>
      </g>
     </g>
    </g>
    <g id="xtick_34">
     <g id="line2d_75">
      <g>
       <use style="stroke:#000000;stroke-width:0.5;" x="211.138763973" xlink:href="#me9b1edb4c8" y="184.20665"/>
      </g>
     </g>
     <g id="line2d_76">
      <g>
       <use style="stroke:#000000;stroke-width:0.5;" x="211.138763973" xlink:href="#m5b52aeeca9" y="11.40665"/>
      </g>
     </g>
    </g>
    <g id="xtick_35">
     <g id="line2d_77">
      <g>
       <use style="stroke:#000000;stroke-width:0.5;" x="214.318721162" xlink:href="#me9b1edb4c8" y="184.20665"/>
      </g>
     </g>
     <g id="line2d_78">
      <g>
       <use style="stroke:#000000;stroke-width:0.5;" x="214.318721162" xlink:href="#m5b52aeeca9" y="11.40665"/>
      </g>
     </g>
    </g>
    <g id="xtick_36">
     <g id="line2d_79">
      <g>
       <use style="stroke:#000000;stroke-width:0.5;" x="217.073325374" xlink:href="#me9b1edb4c8" y="184.20665"/>
      </g>
     </g>
     <g id="line2d_80">
      <g>
       <use style="stroke:#000000;stroke-width:0.5;" x="217.073325374" xlink:href="#m5b52aeeca9" y="11.40665"/>
      </g>
     </g>
    </g>
    <g id="xtick_37">
     <g id="line2d_81">
      <g>
       <use style="stroke:#000000;stroke-width:0.5;" x="219.503058486" xlink:href="#me9b1edb4c8" y="184.20665"/>
      </g>
     </g>
     <g id="line2d_82">
      <g>
       <use style="stroke:#000000;stroke-width:0.5;" x="219.503058486" xlink:href="#m5b52aeeca9" y="11.40665"/>
      </g>
     </g>
    </g>
    <g id="xtick_38">
     <g id="line2d_83">
      <g>
       <use style="stroke:#000000;stroke-width:0.5;" x="235.975384731" xlink:href="#me9b1edb4c8" y="184.20665"/>
      </g>
     </g>
     <g id="line2d_84">
      <g>
       <use style="stroke:#000000;stroke-width:0.5;" x="235.975384731" xlink:href="#m5b52aeeca9" y="11.40665"/>
      </g>
     </g>
    </g>
    <g id="xtick_39">
     <g id="line2d_85">
      <g>
       <use style="stroke:#000000;stroke-width:0.5;" x="244.339679243" xlink:href="#me9b1edb4c8" y="184.20665"/>
      </g>
     </g>
     <g id="line2d_86">
      <g>
       <use style="stroke:#000000;stroke-width:0.5;" x="244.339679243" xlink:href="#m5b52aeeca9" y="11.40665"/>
      </g>
     </g>
    </g>
    <g id="xtick_40">
     <g id="line2d_87">
      <g>
       <use style="stroke:#000000;stroke-width:0.5;" x="250.274240644" xlink:href="#me9b1edb4c8" y="184.20665"/>
      </g>
     </g>
     <g id="line2d_88">
      <g>
       <use style="stroke:#000000;stroke-width:0.5;" x="250.274240644" xlink:href="#m5b52aeeca9" y="11.40665"/>
      </g>
     </g>
    </g>
    <g id="xtick_41">
     <g id="line2d_89">
      <g>
       <use style="stroke:#000000;stroke-width:0.5;" x="254.877444087" xlink:href="#me9b1edb4c8" y="184.20665"/>
      </g>
     </g>
     <g id="line2d_90">
      <g>
       <use style="stroke:#000000;stroke-width:0.5;" x="254.877444087" xlink:href="#m5b52aeeca9" y="11.40665"/>
      </g>
     </g>
    </g>
    <g id="xtick_42">
     <g id="line2d_91">
      <g>
       <use style="stroke:#000000;stroke-width:0.5;" x="258.638535156" xlink:href="#me9b1edb4c8" y="184.20665"/>
      </g>
     </g>
     <g id="line2d_92">
      <g>
       <use style="stroke:#000000;stroke-width:0.5;" x="258.638535156" xlink:href="#m5b52aeeca9" y="11.40665"/>
      </g>
     </g>
    </g>
    <g id="xtick_43">
     <g id="line2d_93">
      <g>
       <use style="stroke:#000000;stroke-width:0.5;" x="261.818492345" xlink:href="#me9b1edb4c8" y="184.20665"/>
      </g>
     </g>
     <g id="line2d_94">
      <g>
       <use style="stroke:#000000;stroke-width:0.5;" x="261.818492345" xlink:href="#m5b52aeeca9" y="11.40665"/>
      </g>
     </g>
    </g>
    <g id="xtick_44">
     <g id="line2d_95">
      <g>
       <use style="stroke:#000000;stroke-width:0.5;" x="264.573096557" xlink:href="#me9b1edb4c8" y="184.20665"/>
      </g>
     </g>
     <g id="line2d_96">
      <g>
       <use style="stroke:#000000;stroke-width:0.5;" x="264.573096557" xlink:href="#m5b52aeeca9" y="11.40665"/>
      </g>
     </g>
    </g>
    <g id="xtick_45">
     <g id="line2d_97">
      <g>
       <use style="stroke:#000000;stroke-width:0.5;" x="267.002829668" xlink:href="#me9b1edb4c8" y="184.20665"/>
      </g>
     </g>
     <g id="line2d_98">
      <g>
       <use style="stroke:#000000;stroke-width:0.5;" x="267.002829668" xlink:href="#m5b52aeeca9" y="11.40665"/>
      </g>
     </g>
    </g>
    <g id="text_6">
     <!-- Time $\left(\sqrt{\frac{\rho \mathrm{\AA}^5}{\epsilon}}\right)$ -->
     <defs>
      <path d="M 12.3125 14.109375 
Q 12.3125 10.75 13.53125 7.859375 
Q 14.75 4.984375 17.203125 3.25 
Q 19.671875 1.515625 23 1.515625 
Q 25.25 1.515625 27.78125 2.484375 
Q 30.328125 3.46875 32.5 4.640625 
Q 34.671875 5.8125 34.71875 5.8125 
Q 35.25 5.8125 35.5625 5.203125 
Q 35.890625 4.59375 35.890625 4 
Q 35.890625 3.46875 35.59375 3.328125 
Q 29.34375 -1.125 22.90625 -1.125 
Q 17.625 -1.125 13.375 1.34375 
Q 9.125 3.8125 6.8125 8.203125 
Q 4.5 12.59375 4.5 17.828125 
Q 4.5 23 6.59375 27.65625 
Q 8.6875 32.328125 12.390625 35.796875 
Q 16.109375 39.265625 20.796875 41.1875 
Q 25.484375 43.109375 30.609375 43.109375 
L 36.28125 43.109375 
Q 37.796875 43.109375 37.796875 41.609375 
Q 37.796875 40.765625 37.234375 40.171875 
Q 36.671875 39.59375 35.890625 39.59375 
L 30.421875 39.59375 
Q 26.421875 39.59375 23.171875 37.828125 
Q 19.921875 36.078125 17.71875 32.953125 
Q 15.53125 29.828125 14.3125 25.875 
L 31.984375 25.875 
Q 32.671875 25.875 33.078125 25.453125 
Q 33.5 25.046875 33.5 24.421875 
Q 33.5 23.578125 32.953125 22.984375 
Q 32.421875 22.40625 31.59375 22.40625 
L 13.375 22.40625 
Q 12.3125 17.234375 12.3125 14.109375 
" id="Cmmi10-b2"/>
      <path d="M 8.6875 11.375 
Q 9.71875 8.453125 11.84375 6.046875 
Q 13.96875 3.65625 16.875 2.3125 
Q 19.78125 0.984375 22.90625 0.984375 
Q 30.125 0.984375 32.859375 6.59375 
Q 35.59375 12.203125 35.59375 20.21875 
Q 35.59375 23.6875 35.46875 26.046875 
Q 35.359375 28.421875 34.8125 30.609375 
Q 33.890625 34.125 31.5625 36.765625 
Q 29.25 39.40625 25.875 39.40625 
Q 22.515625 39.40625 20.09375 38.375 
Q 17.671875 37.359375 16.15625 35.984375 
Q 14.65625 34.625 13.484375 33.109375 
Q 12.3125 31.59375 12.015625 31.5 
L 10.890625 31.5 
Q 10.640625 31.5 10.265625 31.8125 
Q 9.90625 32.125 9.90625 32.421875 
L 9.90625 65.828125 
Q 9.90625 66.0625 10.21875 66.328125 
Q 10.546875 66.609375 10.890625 66.609375 
L 11.1875 66.609375 
Q 17.921875 63.375 25.484375 63.375 
Q 32.90625 63.375 39.796875 66.609375 
L 40.09375 66.609375 
Q 40.4375 66.609375 40.71875 66.359375 
Q 41.015625 66.109375 41.015625 65.828125 
L 41.015625 64.890625 
Q 41.015625 64.40625 40.828125 64.40625 
Q 37.40625 59.859375 32.25 57.3125 
Q 27.09375 54.78125 21.578125 54.78125 
Q 17.578125 54.78125 13.375 55.90625 
L 13.375 37.015625 
Q 16.703125 39.703125 19.3125 40.84375 
Q 21.921875 42 25.984375 42 
Q 31.5 42 35.859375 38.8125 
Q 40.234375 35.640625 42.578125 30.53125 
Q 44.921875 25.4375 44.921875 20.125 
Q 44.921875 14.109375 41.96875 8.984375 
Q 39.015625 3.859375 33.9375 0.828125 
Q 28.859375 -2.203125 22.90625 -2.203125 
Q 17.96875 -2.203125 13.84375 0.328125 
Q 9.71875 2.875 7.34375 7.171875 
Q 4.984375 11.46875 4.984375 16.3125 
Q 4.984375 18.5625 6.4375 19.96875 
Q 7.90625 21.390625 10.109375 21.390625 
Q 12.3125 21.390625 13.796875 19.9375 
Q 15.28125 18.5 15.28125 16.3125 
Q 15.28125 14.15625 13.796875 12.671875 
Q 12.3125 11.1875 10.109375 11.1875 
Q 9.765625 11.1875 9.328125 11.25 
Q 8.890625 11.328125 8.6875 11.375 
" id="Cmr10-35"/>
      <path d="M 2.78125 -18.796875 
Q 2.78125 -18.21875 2.875 -18.015625 
L 12.796875 21.921875 
Q 14.203125 27.296875 17.640625 32.4375 
Q 21.09375 37.59375 25.96875 40.890625 
Q 30.859375 44.1875 36.28125 44.1875 
Q 40.625 44.1875 43.875 41.921875 
Q 47.125 39.65625 48.75 35.96875 
Q 50.390625 32.28125 50.390625 27.875 
Q 50.390625 23.046875 48.40625 17.875 
Q 46.4375 12.703125 42.9375 8.40625 
Q 39.453125 4.109375 34.90625 1.484375 
Q 30.375 -1.125 25.390625 -1.125 
Q 22.46875 -1.125 19.875 0.609375 
Q 17.28125 2.34375 15.828125 5.171875 
L 9.90625 -18.40625 
Q 9.625 -19.828125 8.453125 -20.703125 
Q 7.28125 -21.578125 5.8125 -21.578125 
Q 4.59375 -21.578125 3.6875 -20.8125 
Q 2.78125 -20.0625 2.78125 -18.796875 
M 25.59375 1.515625 
Q 30.90625 1.515625 34.828125 6.953125 
Q 38.765625 12.40625 40.84375 19.75 
Q 42.921875 27.09375 42.921875 32.171875 
Q 42.921875 35.984375 41.25 38.796875 
Q 39.59375 41.609375 36.078125 41.609375 
Q 31.734375 41.609375 28.40625 38.3125 
Q 25.09375 35.015625 23.09375 30.5625 
Q 21.09375 26.125 19.828125 21.296875 
L 17.09375 10.109375 
Q 17.71875 6.5 19.9375 4 
Q 22.171875 1.515625 25.59375 1.515625 
" id="Cmmi10-bd"/>
      <path d="M 4.296875 -235.890625 
Q 3.421875 -235.890625 3.421875 -235.015625 
Q 3.421875 -234.625 3.609375 -234.421875 
Q 15.046875 -223.140625 22.90625 -209.296875 
Q 30.765625 -195.453125 35.40625 -180.1875 
Q 40.046875 -164.9375 42.015625 -149 
Q 44 -133.0625 44 -115.921875 
Q 44 -98.578125 42.015625 -82.75 
Q 40.046875 -66.9375 35.453125 -51.75 
Q 30.859375 -36.578125 22.890625 -22.625 
Q 14.9375 -8.6875 3.609375 2.484375 
Q 3.421875 2.6875 3.421875 3.078125 
Q 3.421875 4 4.296875 4 
L 6.890625 4 
Q 7.234375 4 7.421875 3.8125 
Q 19.78125 -7.125 28.5625 -21.0625 
Q 37.359375 -35.015625 42.625 -50.484375 
Q 47.90625 -65.96875 50.296875 -82.46875 
Q 52.6875 -98.96875 52.6875 -116.015625 
Q 52.6875 -132.953125 50.296875 -149.40625 
Q 47.90625 -165.875 42.625 -181.375 
Q 37.359375 -196.875 28.5625 -210.8125 
Q 19.78125 -224.75 7.421875 -235.6875 
Q 7.234375 -235.890625 6.890625 -235.890625 
z
" id="Cmex10-b6"/>
      <path d="M 9.421875 54.6875 
L 18.40625 54.6875 
L 18.40625 0 
L 9.421875 0 
z
M 9.421875 75.984375 
L 18.40625 75.984375 
L 18.40625 64.59375 
L 9.421875 64.59375 
z
" id="BitstreamVeraSans-Roman-69"/>
      <path id="BitstreamVeraSans-Roman-20"/>
      <path d="M 56.203125 29.59375 
L 56.203125 25.203125 
L 14.890625 25.203125 
Q 15.484375 15.921875 20.484375 11.0625 
Q 25.484375 6.203125 34.421875 6.203125 
Q 39.59375 6.203125 44.453125 7.46875 
Q 49.3125 8.734375 54.109375 11.28125 
L 54.109375 2.78125 
Q 49.265625 0.734375 44.1875 -0.34375 
Q 39.109375 -1.421875 33.890625 -1.421875 
Q 20.796875 -1.421875 13.15625 6.1875 
Q 5.515625 13.8125 5.515625 26.8125 
Q 5.515625 40.234375 12.765625 48.109375 
Q 20.015625 56 32.328125 56 
Q 43.359375 56 49.78125 48.890625 
Q 56.203125 41.796875 56.203125 29.59375 
M 47.21875 32.234375 
Q 47.125 39.59375 43.09375 43.984375 
Q 39.0625 48.390625 32.421875 48.390625 
Q 24.90625 48.390625 20.390625 44.140625 
Q 15.875 39.890625 15.1875 32.171875 
z
" id="BitstreamVeraSans-Roman-65"/>
      <path d="M 40.09375 96.09375 
Q 45.90625 90.203125 45.90625 86.09375 
Q 45.90625 82 42.953125 79.09375 
Q 40 76.203125 35.796875 76.203125 
Q 31.703125 76.203125 28.84375 79.09375 
Q 26 82 26 86.203125 
Q 26 90.296875 28.953125 93.1875 
Q 31.90625 96.09375 36.09375 96.09375 
Q 40.09375 96.09375 45.90625 90.203125 
M 42.5 86.203125 
Q 42.5 88.90625 40.546875 90.796875 
Q 38.59375 92.703125 35.796875 92.703125 
Q 33.203125 92.703125 31.296875 90.75 
Q 29.40625 88.796875 29.40625 86.203125 
Q 29.40625 83.40625 31.296875 81.5 
Q 33.203125 79.59375 35.796875 79.59375 
Q 38.59375 79.59375 40.546875 81.5 
Q 42.5 83.40625 42.5 86.203125 
M 70.703125 0 
L 45.203125 0 
L 45.203125 1.90625 
Q 49.203125 1.90625 50.703125 2.796875 
Q 52.09375 3.5 52.09375 5.203125 
Q 52.09375 7.796875 50.203125 12.203125 
L 46.09375 21.59375 
L 19.90625 21.59375 
L 15.296875 10.203125 
Q 14.40625 7.90625 14.40625 6 
Q 14.40625 3.703125 16.046875 2.796875 
Q 17.703125 1.90625 21.40625 1.90625 
L 21.40625 0 
L 1.5 0 
L 1.5 1.90625 
Q 5.703125 2.296875 7.59375 4.9375 
Q 9.5 7.59375 14.09375 18.59375 
L 34.703125 67.40625 
L 36.703125 67.40625 
L 61.296875 11.09375 
Q 63.5 5.90625 65.25 4.09375 
Q 67 2.296875 70.703125 1.90625 
z
M 44.703125 25.703125 
L 33.09375 53.203125 
L 21.59375 25.703125 
z
" id="STIXGeneral-Regular-c5"/>
      <path d="M -0.296875 72.90625 
L 61.375 72.90625 
L 61.375 64.59375 
L 35.5 64.59375 
L 35.5 0 
L 25.59375 0 
L 25.59375 64.59375 
L -0.296875 64.59375 
z
" id="BitstreamVeraSans-Roman-54"/>
      <path d="M 66.21875 -235.6875 
Q 53.90625 -224.8125 45.109375 -210.890625 
Q 36.328125 -196.96875 31 -181.484375 
Q 25.6875 -166.015625 23.234375 -149.484375 
Q 20.796875 -132.953125 20.796875 -116.015625 
Q 20.796875 -98.96875 23.234375 -82.390625 
Q 25.6875 -65.828125 30.984375 -50.390625 
Q 36.28125 -34.96875 45.09375 -21.015625 
Q 53.90625 -7.078125 66.21875 3.8125 
Q 66.21875 4 66.703125 4 
L 69.28125 4 
Q 69.578125 4 69.84375 3.703125 
Q 70.125 3.421875 70.125 3.078125 
Q 70.125 2.6875 69.921875 2.484375 
Q 58.5 -8.796875 50.609375 -22.609375 
Q 42.71875 -36.421875 38.078125 -51.703125 
Q 33.453125 -67 31.46875 -83.109375 
Q 29.5 -99.21875 29.5 -116.015625 
Q 29.5 -132.765625 31.453125 -148.65625 
Q 33.40625 -164.546875 38.09375 -180.03125 
Q 42.78125 -195.515625 50.6875 -209.328125 
Q 58.59375 -223.140625 69.921875 -234.421875 
Q 70.125 -234.625 70.125 -235.015625 
Q 70.125 -235.296875 69.828125 -235.59375 
Q 69.53125 -235.890625 69.28125 -235.890625 
L 66.703125 -235.890625 
Q 66.21875 -235.890625 66.21875 -235.6875 
" id="Cmex10-b5"/>
      <path d="M 42.390625 -175.984375 
L 19.671875 -96.6875 
L 12.796875 -104.6875 
L 10.984375 -102.78125 
L 25.296875 -85.984375 
L 46.578125 -160.40625 
L 98.1875 2.78125 
Q 98.53125 4 100 4 
Q 100.828125 4 101.40625 3.40625 
Q 102 2.828125 102 2 
L 102 1.609375 
L 46.296875 -174.8125 
Q 45.703125 -175.984375 44.578125 -175.984375 
z
" id="Cmex10-71"/>
      <path d="M 52 44.1875 
Q 55.375 50.25 60.0625 53.125 
Q 64.75 56 71.09375 56 
Q 79.640625 56 84.28125 50.015625 
Q 88.921875 44.046875 88.921875 33.015625 
L 88.921875 0 
L 79.890625 0 
L 79.890625 32.71875 
Q 79.890625 40.578125 77.09375 44.375 
Q 74.3125 48.1875 68.609375 48.1875 
Q 61.625 48.1875 57.5625 43.546875 
Q 53.515625 38.921875 53.515625 30.90625 
L 53.515625 0 
L 44.484375 0 
L 44.484375 32.71875 
Q 44.484375 40.625 41.703125 44.40625 
Q 38.921875 48.1875 33.109375 48.1875 
Q 26.21875 48.1875 22.15625 43.53125 
Q 18.109375 38.875 18.109375 30.90625 
L 18.109375 0 
L 9.078125 0 
L 9.078125 54.6875 
L 18.109375 54.6875 
L 18.109375 46.1875 
Q 21.1875 51.21875 25.484375 53.609375 
Q 29.78125 56 35.6875 56 
Q 41.65625 56 45.828125 52.96875 
Q 50 49.953125 52 44.1875 
" id="BitstreamVeraSans-Roman-6d"/>
     </defs>
     <g transform="translate(125.2763 217.50325)scale(0.1 -0.1)">
      <use transform="translate(0.0 0.9015625000000114)" xlink:href="#BitstreamVeraSans-Roman-54"/>
      <use transform="translate(61.083984375 0.9015625000000114)" xlink:href="#BitstreamVeraSans-Roman-69"/>
      <use transform="translate(88.8671875 0.9015625000000114)" xlink:href="#BitstreamVeraSans-Roman-6d"/>
      <use transform="translate(186.279296875 0.9015625000000114)" xlink:href="#BitstreamVeraSans-Roman-65"/>
      <use transform="translate(247.802734375 0.9015625000000114)" xlink:href="#BitstreamVeraSans-Roman-20"/>
      <use transform="translate(279.58984375 154.953125)scale(0.7578974793200026)" xlink:href="#Cmex10-b5"/>
      <use transform="translate(335.3527069091797 148.09375)scale(0.9769424429203926)" xlink:href="#Cmex10-71"/>
      <use transform="translate(445.5402069091797 53.484375)scale(0.7)" xlink:href="#Cmmi10-bd"/>
      <use transform="translate(481.7364959716797 53.484375)scale(0.7)" xlink:href="#STIXGeneral-Regular-c5"/>
      <use transform="translate(535.4013815917968 80.26921875)scale(0.49)" xlink:href="#Cmr10-35"/>
      <use transform="translate(490.5402069091797 -23.046875)scale(0.7)" xlink:href="#Cmmi10-b2"/>
      <use transform="translate(589.3655222167969 154.953125)scale(0.7578974793200026)" xlink:href="#Cmex10-b6"/>
      <path d="M 433.040207 145.5 
L 433.040207 151.75 
L 589.365522 151.75 
L 589.365522 145.5 
L 433.040207 145.5 
z
"/>
      <path d="M 445.540207 13.379687 
L 445.540207 19.629687 
L 564.365522 19.629687 
L 564.365522 13.379687 
L 445.540207 13.379687 
z
"/>
     </g>
    </g>
   </g>
   <g id="matplotlib.axis_2">
    <g id="ytick_1">
     <g id="line2d_99">
      <defs>
       <path d="M 0 0 
L 4 0 
" id="m2f73b0fbd5" style="stroke:#000000;stroke-width:0.5;"/>
      </defs>
      <g>
       <use style="stroke:#000000;stroke-width:0.5;" x="45.9763" xlink:href="#m2f73b0fbd5" y="184.20665"/>
      </g>
     </g>
     <g id="line2d_100">
      <defs>
       <path d="M 0 0 
L -4 0 
" id="m5bbfe06b86" style="stroke:#000000;stroke-width:0.5;"/>
      </defs>
      <g>
       <use style="stroke:#000000;stroke-width:0.5;" x="269.1763" xlink:href="#m5bbfe06b86" y="184.20665"/>
      </g>
     </g>
     <g id="text_7">
      <!-- $\mathdefault{10^{-3}}$ -->
      <defs>
       <path d="M 4.890625 31.390625 
L 31.203125 31.390625 
L 31.203125 23.390625 
L 4.890625 23.390625 
z
" id="BitstreamVeraSans-Roman-2d"/>
      </defs>
      <g transform="translate(24.4 186.722570313)scale(0.0833 -0.0833)">
       <use transform="translate(0.0 0.796875)" xlink:href="#BitstreamVeraSans-Roman-31"/>
       <use transform="translate(63.623046875 0.796875)" xlink:href="#BitstreamVeraSans-Roman-30"/>
       <use transform="translate(132.75859375 48.046875)scale(0.7)" xlink:href="#BitstreamVeraSans-Roman-2d"/>
       <use transform="translate(158.0173828125 48.046875)scale(0.7)" xlink:href="#BitstreamVeraSans-Roman-33"/>
      </g>
     </g>
    </g>
    <g id="ytick_2">
     <g id="line2d_101">
      <g>
       <use style="stroke:#000000;stroke-width:0.5;" x="45.9763" xlink:href="#m2f73b0fbd5" y="141.00665"/>
      </g>
     </g>
     <g id="line2d_102">
      <g>
       <use style="stroke:#000000;stroke-width:0.5;" x="269.1763" xlink:href="#m5bbfe06b86" y="141.00665"/>
      </g>
     </g>
     <g id="text_8">
      <!-- $\mathdefault{10^{-2}}$ -->
      <g transform="translate(24.4 143.522570313)scale(0.0833 -0.0833)">
       <use transform="translate(0.0 0.796875)" xlink:href="#BitstreamVeraSans-Roman-31"/>
       <use transform="translate(63.623046875 0.796875)" xlink:href="#BitstreamVeraSans-Roman-30"/>
       <use transform="translate(132.75859375 48.046875)scale(0.7)" xlink:href="#BitstreamVeraSans-Roman-2d"/>
       <use transform="translate(158.0173828125 48.046875)scale(0.7)" xlink:href="#BitstreamVeraSans-Roman-32"/>
      </g>
     </g>
    </g>
    <g id="ytick_3">
     <g id="line2d_103">
      <g>
       <use style="stroke:#000000;stroke-width:0.5;" x="45.9763" xlink:href="#m2f73b0fbd5" y="97.80665"/>
      </g>
     </g>
     <g id="line2d_104">
      <g>
       <use style="stroke:#000000;stroke-width:0.5;" x="269.1763" xlink:href="#m5bbfe06b86" y="97.80665"/>
      </g>
     </g>
     <g id="text_9">
      <!-- $\mathdefault{10^{-1}}$ -->
      <g transform="translate(24.4 100.280920313)scale(0.0833 -0.0833)">
       <use transform="translate(0.0 0.7156250000000028)" xlink:href="#BitstreamVeraSans-Roman-31"/>
       <use transform="translate(63.623046875 0.7156250000000028)" xlink:href="#BitstreamVeraSans-Roman-30"/>
       <use transform="translate(132.75859375 47.965625)scale(0.7)" xlink:href="#BitstreamVeraSans-Roman-2d"/>
       <use transform="translate(158.0173828125 47.965625)scale(0.7)" xlink:href="#BitstreamVeraSans-Roman-31"/>
      </g>
     </g>
    </g>
    <g id="ytick_4">
     <g id="line2d_105">
      <g>
       <use style="stroke:#000000;stroke-width:0.5;" x="45.9763" xlink:href="#m2f73b0fbd5" y="54.60665"/>
      </g>
     </g>
     <g id="line2d_106">
      <g>
       <use style="stroke:#000000;stroke-width:0.5;" x="269.1763" xlink:href="#m5bbfe06b86" y="54.60665"/>
      </g>
     </g>
     <g id="text_10">
      <!-- $\mathdefault{10^{0}}$ -->
      <g transform="translate(26.4825 57.1225703125)scale(0.0833 -0.0833)">
       <use transform="translate(0.0 0.796875)" xlink:href="#BitstreamVeraSans-Roman-31"/>
       <use transform="translate(63.623046875 0.796875)" xlink:href="#BitstreamVeraSans-Roman-30"/>
       <use transform="translate(132.75859375 48.046875)scale(0.7)" xlink:href="#BitstreamVeraSans-Roman-30"/>
      </g>
     </g>
    </g>
    <g id="ytick_5">
     <g id="line2d_107">
      <g>
       <use style="stroke:#000000;stroke-width:0.5;" x="45.9763" xlink:href="#m2f73b0fbd5" y="11.40665"/>
      </g>
     </g>
     <g id="line2d_108">
      <g>
       <use style="stroke:#000000;stroke-width:0.5;" x="269.1763" xlink:href="#m5bbfe06b86" y="11.40665"/>
      </g>
     </g>
     <g id="text_11">
      <!-- $\mathdefault{10^{1}}$ -->
      <g transform="translate(26.4825 13.8809203125)scale(0.0833 -0.0833)">
       <use transform="translate(0.0 0.7156250000000028)" xlink:href="#BitstreamVeraSans-Roman-31"/>
       <use transform="translate(63.623046875 0.7156250000000028)" xlink:href="#BitstreamVeraSans-Roman-30"/>
       <use transform="translate(132.75859375 47.965625)scale(0.7)" xlink:href="#BitstreamVeraSans-Roman-31"/>
      </g>
     </g>
    </g>
    <g id="ytick_6">
     <g id="line2d_109">
      <defs>
       <path d="M 0 0 
L 2 0 
" id="m75e258c3e2" style="stroke:#000000;stroke-width:0.5;"/>
      </defs>
      <g>
       <use style="stroke:#000000;stroke-width:0.5;" x="45.9763" xlink:href="#m75e258c3e2" y="171.202154187"/>
      </g>
     </g>
     <g id="line2d_110">
      <defs>
       <path d="M 0 0 
L -2 0 
" id="m523d131d07" style="stroke:#000000;stroke-width:0.5;"/>
      </defs>
      <g>
       <use style="stroke:#000000;stroke-width:0.5;" x="269.1763" xlink:href="#m523d131d07" y="171.202154187"/>
      </g>
     </g>
    </g>
    <g id="ytick_7">
     <g id="line2d_111">
      <g>
       <use style="stroke:#000000;stroke-width:0.5;" x="45.9763" xlink:href="#m75e258c3e2" y="163.595011796"/>
      </g>
     </g>
     <g id="line2d_112">
      <g>
       <use style="stroke:#000000;stroke-width:0.5;" x="269.1763" xlink:href="#m523d131d07" y="163.595011796"/>
      </g>
     </g>
    </g>
    <g id="ytick_8">
     <g id="line2d_113">
      <g>
       <use style="stroke:#000000;stroke-width:0.5;" x="45.9763" xlink:href="#m75e258c3e2" y="158.197658375"/>
      </g>
     </g>
     <g id="line2d_114">
      <g>
       <use style="stroke:#000000;stroke-width:0.5;" x="269.1763" xlink:href="#m523d131d07" y="158.197658375"/>
      </g>
     </g>
    </g>
    <g id="ytick_9">
     <g id="line2d_115">
      <g>
       <use style="stroke:#000000;stroke-width:0.5;" x="45.9763" xlink:href="#m75e258c3e2" y="154.011145813"/>
      </g>
     </g>
     <g id="line2d_116">
      <g>
       <use style="stroke:#000000;stroke-width:0.5;" x="269.1763" xlink:href="#m523d131d07" y="154.011145813"/>
      </g>
     </g>
    </g>
    <g id="ytick_10">
     <g id="line2d_117">
      <g>
       <use style="stroke:#000000;stroke-width:0.5;" x="45.9763" xlink:href="#m75e258c3e2" y="150.590515983"/>
      </g>
     </g>
     <g id="line2d_118">
      <g>
       <use style="stroke:#000000;stroke-width:0.5;" x="269.1763" xlink:href="#m523d131d07" y="150.590515983"/>
      </g>
     </g>
    </g>
    <g id="ytick_11">
     <g id="line2d_119">
      <g>
       <use style="stroke:#000000;stroke-width:0.5;" x="45.9763" xlink:href="#m75e258c3e2" y="147.698414671"/>
      </g>
     </g>
     <g id="line2d_120">
      <g>
       <use style="stroke:#000000;stroke-width:0.5;" x="269.1763" xlink:href="#m523d131d07" y="147.698414671"/>
      </g>
     </g>
    </g>
    <g id="ytick_12">
     <g id="line2d_121">
      <g>
       <use style="stroke:#000000;stroke-width:0.5;" x="45.9763" xlink:href="#m75e258c3e2" y="145.193162562"/>
      </g>
     </g>
     <g id="line2d_122">
      <g>
       <use style="stroke:#000000;stroke-width:0.5;" x="269.1763" xlink:href="#m523d131d07" y="145.193162562"/>
      </g>
     </g>
    </g>
    <g id="ytick_13">
     <g id="line2d_123">
      <g>
       <use style="stroke:#000000;stroke-width:0.5;" x="45.9763" xlink:href="#m75e258c3e2" y="142.983373592"/>
      </g>
     </g>
     <g id="line2d_124">
      <g>
       <use style="stroke:#000000;stroke-width:0.5;" x="269.1763" xlink:href="#m523d131d07" y="142.983373592"/>
      </g>
     </g>
    </g>
    <g id="ytick_14">
     <g id="line2d_125">
      <g>
       <use style="stroke:#000000;stroke-width:0.5;" x="45.9763" xlink:href="#m75e258c3e2" y="128.002154187"/>
      </g>
     </g>
     <g id="line2d_126">
      <g>
       <use style="stroke:#000000;stroke-width:0.5;" x="269.1763" xlink:href="#m523d131d07" y="128.002154187"/>
      </g>
     </g>
    </g>
    <g id="ytick_15">
     <g id="line2d_127">
      <g>
       <use style="stroke:#000000;stroke-width:0.5;" x="45.9763" xlink:href="#m75e258c3e2" y="120.395011796"/>
      </g>
     </g>
     <g id="line2d_128">
      <g>
       <use style="stroke:#000000;stroke-width:0.5;" x="269.1763" xlink:href="#m523d131d07" y="120.395011796"/>
      </g>
     </g>
    </g>
    <g id="ytick_16">
     <g id="line2d_129">
      <g>
       <use style="stroke:#000000;stroke-width:0.5;" x="45.9763" xlink:href="#m75e258c3e2" y="114.997658375"/>
      </g>
     </g>
     <g id="line2d_130">
      <g>
       <use style="stroke:#000000;stroke-width:0.5;" x="269.1763" xlink:href="#m523d131d07" y="114.997658375"/>
      </g>
     </g>
    </g>
    <g id="ytick_17">
     <g id="line2d_131">
      <g>
       <use style="stroke:#000000;stroke-width:0.5;" x="45.9763" xlink:href="#m75e258c3e2" y="110.811145813"/>
      </g>
     </g>
     <g id="line2d_132">
      <g>
       <use style="stroke:#000000;stroke-width:0.5;" x="269.1763" xlink:href="#m523d131d07" y="110.811145813"/>
      </g>
     </g>
    </g>
    <g id="ytick_18">
     <g id="line2d_133">
      <g>
       <use style="stroke:#000000;stroke-width:0.5;" x="45.9763" xlink:href="#m75e258c3e2" y="107.390515983"/>
      </g>
     </g>
     <g id="line2d_134">
      <g>
       <use style="stroke:#000000;stroke-width:0.5;" x="269.1763" xlink:href="#m523d131d07" y="107.390515983"/>
      </g>
     </g>
    </g>
    <g id="ytick_19">
     <g id="line2d_135">
      <g>
       <use style="stroke:#000000;stroke-width:0.5;" x="45.9763" xlink:href="#m75e258c3e2" y="104.498414671"/>
      </g>
     </g>
     <g id="line2d_136">
      <g>
       <use style="stroke:#000000;stroke-width:0.5;" x="269.1763" xlink:href="#m523d131d07" y="104.498414671"/>
      </g>
     </g>
    </g>
    <g id="ytick_20">
     <g id="line2d_137">
      <g>
       <use style="stroke:#000000;stroke-width:0.5;" x="45.9763" xlink:href="#m75e258c3e2" y="101.993162562"/>
      </g>
     </g>
     <g id="line2d_138">
      <g>
       <use style="stroke:#000000;stroke-width:0.5;" x="269.1763" xlink:href="#m523d131d07" y="101.993162562"/>
      </g>
     </g>
    </g>
    <g id="ytick_21">
     <g id="line2d_139">
      <g>
       <use style="stroke:#000000;stroke-width:0.5;" x="45.9763" xlink:href="#m75e258c3e2" y="99.7833735922"/>
      </g>
     </g>
     <g id="line2d_140">
      <g>
       <use style="stroke:#000000;stroke-width:0.5;" x="269.1763" xlink:href="#m523d131d07" y="99.7833735922"/>
      </g>
     </g>
    </g>
    <g id="ytick_22">
     <g id="line2d_141">
      <g>
       <use style="stroke:#000000;stroke-width:0.5;" x="45.9763" xlink:href="#m75e258c3e2" y="84.8021541873"/>
      </g>
     </g>
     <g id="line2d_142">
      <g>
       <use style="stroke:#000000;stroke-width:0.5;" x="269.1763" xlink:href="#m523d131d07" y="84.8021541873"/>
      </g>
     </g>
    </g>
    <g id="ytick_23">
     <g id="line2d_143">
      <g>
       <use style="stroke:#000000;stroke-width:0.5;" x="45.9763" xlink:href="#m75e258c3e2" y="77.1950117961"/>
      </g>
     </g>
     <g id="line2d_144">
      <g>
       <use style="stroke:#000000;stroke-width:0.5;" x="269.1763" xlink:href="#m523d131d07" y="77.1950117961"/>
      </g>
     </g>
    </g>
    <g id="ytick_24">
     <g id="line2d_145">
      <g>
       <use style="stroke:#000000;stroke-width:0.5;" x="45.9763" xlink:href="#m75e258c3e2" y="71.7976583746"/>
      </g>
     </g>
     <g id="line2d_146">
      <g>
       <use style="stroke:#000000;stroke-width:0.5;" x="269.1763" xlink:href="#m523d131d07" y="71.7976583746"/>
      </g>
     </g>
    </g>
    <g id="ytick_25">
     <g id="line2d_147">
      <g>
       <use style="stroke:#000000;stroke-width:0.5;" x="45.9763" xlink:href="#m75e258c3e2" y="67.6111458127"/>
      </g>
     </g>
     <g id="line2d_148">
      <g>
       <use style="stroke:#000000;stroke-width:0.5;" x="269.1763" xlink:href="#m523d131d07" y="67.6111458127"/>
      </g>
     </g>
    </g>
    <g id="ytick_26">
     <g id="line2d_149">
      <g>
       <use style="stroke:#000000;stroke-width:0.5;" x="45.9763" xlink:href="#m75e258c3e2" y="64.1905159834"/>
      </g>
     </g>
     <g id="line2d_150">
      <g>
       <use style="stroke:#000000;stroke-width:0.5;" x="269.1763" xlink:href="#m523d131d07" y="64.1905159834"/>
      </g>
     </g>
    </g>
    <g id="ytick_27">
     <g id="line2d_151">
      <g>
       <use style="stroke:#000000;stroke-width:0.5;" x="45.9763" xlink:href="#m75e258c3e2" y="61.2984146714"/>
      </g>
     </g>
     <g id="line2d_152">
      <g>
       <use style="stroke:#000000;stroke-width:0.5;" x="269.1763" xlink:href="#m523d131d07" y="61.2984146714"/>
      </g>
     </g>
    </g>
    <g id="ytick_28">
     <g id="line2d_153">
      <g>
       <use style="stroke:#000000;stroke-width:0.5;" x="45.9763" xlink:href="#m75e258c3e2" y="58.7931625619"/>
      </g>
     </g>
     <g id="line2d_154">
      <g>
       <use style="stroke:#000000;stroke-width:0.5;" x="269.1763" xlink:href="#m523d131d07" y="58.7931625619"/>
      </g>
     </g>
    </g>
    <g id="ytick_29">
     <g id="line2d_155">
      <g>
       <use style="stroke:#000000;stroke-width:0.5;" x="45.9763" xlink:href="#m75e258c3e2" y="56.5833735922"/>
      </g>
     </g>
     <g id="line2d_156">
      <g>
       <use style="stroke:#000000;stroke-width:0.5;" x="269.1763" xlink:href="#m523d131d07" y="56.5833735922"/>
      </g>
     </g>
    </g>
    <g id="ytick_30">
     <g id="line2d_157">
      <g>
       <use style="stroke:#000000;stroke-width:0.5;" x="45.9763" xlink:href="#m75e258c3e2" y="41.6021541873"/>
      </g>
     </g>
     <g id="line2d_158">
      <g>
       <use style="stroke:#000000;stroke-width:0.5;" x="269.1763" xlink:href="#m523d131d07" y="41.6021541873"/>
      </g>
     </g>
    </g>
    <g id="ytick_31">
     <g id="line2d_159">
      <g>
       <use style="stroke:#000000;stroke-width:0.5;" x="45.9763" xlink:href="#m75e258c3e2" y="33.9950117961"/>
      </g>
     </g>
     <g id="line2d_160">
      <g>
       <use style="stroke:#000000;stroke-width:0.5;" x="269.1763" xlink:href="#m523d131d07" y="33.9950117961"/>
      </g>
     </g>
    </g>
    <g id="ytick_32">
     <g id="line2d_161">
      <g>
       <use style="stroke:#000000;stroke-width:0.5;" x="45.9763" xlink:href="#m75e258c3e2" y="28.5976583746"/>
      </g>
     </g>
     <g id="line2d_162">
      <g>
       <use style="stroke:#000000;stroke-width:0.5;" x="269.1763" xlink:href="#m523d131d07" y="28.5976583746"/>
      </g>
     </g>
    </g>
    <g id="ytick_33">
     <g id="line2d_163">
      <g>
       <use style="stroke:#000000;stroke-width:0.5;" x="45.9763" xlink:href="#m75e258c3e2" y="24.4111458127"/>
      </g>
     </g>
     <g id="line2d_164">
      <g>
       <use style="stroke:#000000;stroke-width:0.5;" x="269.1763" xlink:href="#m523d131d07" y="24.4111458127"/>
      </g>
     </g>
    </g>
    <g id="ytick_34">
     <g id="line2d_165">
      <g>
       <use style="stroke:#000000;stroke-width:0.5;" x="45.9763" xlink:href="#m75e258c3e2" y="20.9905159834"/>
      </g>
     </g>
     <g id="line2d_166">
      <g>
       <use style="stroke:#000000;stroke-width:0.5;" x="269.1763" xlink:href="#m523d131d07" y="20.9905159834"/>
      </g>
     </g>
    </g>
    <g id="ytick_35">
     <g id="line2d_167">
      <g>
       <use style="stroke:#000000;stroke-width:0.5;" x="45.9763" xlink:href="#m75e258c3e2" y="18.0984146714"/>
      </g>
     </g>
     <g id="line2d_168">
      <g>
       <use style="stroke:#000000;stroke-width:0.5;" x="269.1763" xlink:href="#m523d131d07" y="18.0984146714"/>
      </g>
     </g>
    </g>
    <g id="ytick_36">
     <g id="line2d_169">
      <g>
       <use style="stroke:#000000;stroke-width:0.5;" x="45.9763" xlink:href="#m75e258c3e2" y="15.5931625619"/>
      </g>
     </g>
     <g id="line2d_170">
      <g>
       <use style="stroke:#000000;stroke-width:0.5;" x="269.1763" xlink:href="#m523d131d07" y="15.5931625619"/>
      </g>
     </g>
    </g>
    <g id="ytick_37">
     <g id="line2d_171">
      <g>
       <use style="stroke:#000000;stroke-width:0.5;" x="45.9763" xlink:href="#m75e258c3e2" y="13.3833735922"/>
      </g>
     </g>
     <g id="line2d_172">
      <g>
       <use style="stroke:#000000;stroke-width:0.5;" x="269.1763" xlink:href="#m523d131d07" y="13.3833735922"/>
      </g>
     </g>
    </g>
    <g id="text_12">
     <!-- MSD $(\mathrm{\AA}^2)$ -->
     <defs>
      <path d="M 31 -24.8125 
Q 25.4375 -20.40625 21.40625 -14.71875 
Q 17.390625 -9.03125 14.8125 -2.578125 
Q 12.25 3.859375 10.984375 10.890625 
Q 9.71875 17.921875 9.71875 25 
Q 9.71875 32.171875 10.984375 39.203125 
Q 12.25 46.234375 14.859375 52.734375 
Q 17.484375 59.234375 21.53125 64.890625 
Q 25.59375 70.5625 31 74.8125 
Q 31 75 31.5 75 
L 32.421875 75 
Q 32.71875 75 32.953125 74.734375 
Q 33.203125 74.46875 33.203125 74.125 
Q 33.203125 73.6875 33.015625 73.484375 
Q 28.125 68.703125 24.875 63.234375 
Q 21.625 57.765625 19.640625 51.578125 
Q 17.671875 45.40625 16.796875 38.78125 
Q 15.921875 32.171875 15.921875 25 
Q 15.921875 -6.78125 32.90625 -23.296875 
Q 33.203125 -23.578125 33.203125 -24.125 
Q 33.203125 -24.359375 32.9375 -24.671875 
Q 32.671875 -25 32.421875 -25 
L 31.5 -25 
Q 31 -25 31 -24.8125 
" id="Cmr10-28"/>
      <path d="M 9.8125 72.90625 
L 24.515625 72.90625 
L 43.109375 23.296875 
L 61.8125 72.90625 
L 76.515625 72.90625 
L 76.515625 0 
L 66.890625 0 
L 66.890625 64.015625 
L 48.09375 14.015625 
L 38.1875 14.015625 
L 19.390625 64.015625 
L 19.390625 0 
L 9.8125 0 
z
" id="BitstreamVeraSans-Roman-4d"/>
      <path d="M 19.671875 64.796875 
L 19.671875 8.109375 
L 31.59375 8.109375 
Q 46.6875 8.109375 53.6875 14.9375 
Q 60.6875 21.78125 60.6875 36.53125 
Q 60.6875 51.171875 53.6875 57.984375 
Q 46.6875 64.796875 31.59375 64.796875 
z
M 9.8125 72.90625 
L 30.078125 72.90625 
Q 51.265625 72.90625 61.171875 64.09375 
Q 71.09375 55.28125 71.09375 36.53125 
Q 71.09375 17.671875 61.125 8.828125 
Q 51.171875 0 30.078125 0 
L 9.8125 0 
z
" id="BitstreamVeraSans-Roman-44"/>
      <path d="M 4.984375 0 
L 4.984375 2.6875 
Q 4.984375 2.9375 5.171875 3.21875 
L 20.703125 20.40625 
Q 24.21875 24.21875 26.40625 26.796875 
Q 28.609375 29.390625 30.75 32.765625 
Q 32.90625 36.140625 34.15625 39.625 
Q 35.40625 43.109375 35.40625 47.015625 
Q 35.40625 51.125 33.890625 54.859375 
Q 32.375 58.59375 29.375 60.84375 
Q 26.375 63.09375 22.125 63.09375 
Q 17.78125 63.09375 14.3125 60.46875 
Q 10.84375 57.859375 9.421875 53.71875 
Q 9.8125 53.8125 10.5 53.8125 
Q 12.75 53.8125 14.328125 52.296875 
Q 15.921875 50.78125 15.921875 48.390625 
Q 15.921875 46.09375 14.328125 44.5 
Q 12.75 42.921875 10.5 42.921875 
Q 8.15625 42.921875 6.5625 44.546875 
Q 4.984375 46.1875 4.984375 48.390625 
Q 4.984375 52.15625 6.390625 55.4375 
Q 7.8125 58.734375 10.46875 61.296875 
Q 13.140625 63.875 16.484375 65.234375 
Q 19.828125 66.609375 23.578125 66.609375 
Q 29.296875 66.609375 34.21875 64.1875 
Q 39.15625 61.765625 42.03125 57.34375 
Q 44.921875 52.9375 44.921875 47.015625 
Q 44.921875 42.671875 43.015625 38.765625 
Q 41.109375 34.859375 38.125 31.65625 
Q 35.15625 28.46875 30.515625 24.40625 
Q 25.875 20.359375 24.421875 19 
L 13.09375 8.109375 
L 22.703125 8.109375 
Q 29.78125 8.109375 34.546875 8.21875 
Q 39.3125 8.34375 39.59375 8.59375 
Q 40.765625 9.859375 42 17.828125 
L 44.921875 17.828125 
L 42.09375 0 
z
" id="Cmr10-32"/>
      <path d="M 6.5 -25 
Q 5.609375 -25 5.609375 -24.125 
Q 5.609375 -23.6875 5.8125 -23.484375 
Q 22.90625 -6.78125 22.90625 25 
Q 22.90625 56.78125 6 73.296875 
Q 5.609375 73.53125 5.609375 74.125 
Q 5.609375 74.46875 5.875 74.734375 
Q 6.15625 75 6.5 75 
L 7.421875 75 
Q 7.71875 75 7.90625 74.8125 
Q 15.09375 69.140625 19.875 61.03125 
Q 24.65625 52.9375 26.875 43.75 
Q 29.109375 34.578125 29.109375 25 
Q 29.109375 17.921875 27.90625 11.0625 
Q 26.703125 4.203125 24.09375 -2.453125 
Q 21.484375 -9.125 17.484375 -14.765625 
Q 13.484375 -20.40625 7.90625 -24.8125 
Q 7.71875 -25 7.421875 -25 
z
" id="Cmr10-29"/>
      <path d="M 53.515625 70.515625 
L 53.515625 60.890625 
Q 47.90625 63.578125 42.921875 64.890625 
Q 37.9375 66.21875 33.296875 66.21875 
Q 25.25 66.21875 20.875 63.09375 
Q 16.5 59.96875 16.5 54.203125 
Q 16.5 49.359375 19.40625 46.890625 
Q 22.3125 44.4375 30.421875 42.921875 
L 36.375 41.703125 
Q 47.40625 39.59375 52.65625 34.296875 
Q 57.90625 29 57.90625 20.125 
Q 57.90625 9.515625 50.796875 4.046875 
Q 43.703125 -1.421875 29.984375 -1.421875 
Q 24.8125 -1.421875 18.96875 -0.25 
Q 13.140625 0.921875 6.890625 3.21875 
L 6.890625 13.375 
Q 12.890625 10.015625 18.65625 8.296875 
Q 24.421875 6.59375 29.984375 6.59375 
Q 38.421875 6.59375 43.015625 9.90625 
Q 47.609375 13.234375 47.609375 19.390625 
Q 47.609375 24.75 44.3125 27.78125 
Q 41.015625 30.8125 33.5 32.328125 
L 27.484375 33.5 
Q 16.453125 35.6875 11.515625 40.375 
Q 6.59375 45.0625 6.59375 53.421875 
Q 6.59375 63.09375 13.40625 68.65625 
Q 20.21875 74.21875 32.171875 74.21875 
Q 37.3125 74.21875 42.625 73.28125 
Q 47.953125 72.359375 53.515625 70.515625 
" id="BitstreamVeraSans-Roman-53"/>
     </defs>
     <g transform="translate(16.9 120.55665)rotate(-90.0)scale(0.1 -0.1)">
      <use transform="translate(0.0 0.90625)" xlink:href="#BitstreamVeraSans-Roman-4d"/>
      <use transform="translate(86.279296875 0.90625)" xlink:href="#BitstreamVeraSans-Roman-53"/>
      <use transform="translate(149.755859375 0.90625)" xlink:href="#BitstreamVeraSans-Roman-44"/>
      <use transform="translate(226.7578125 0.90625)" xlink:href="#BitstreamVeraSans-Roman-20"/>
      <use transform="translate(258.544921875 0.90625)" xlink:href="#Cmr10-28"/>
      <use transform="translate(297.36328125 0.90625)" xlink:href="#STIXGeneral-Regular-c5"/>
      <use transform="translate(374.02740356445315 39.1703125)scale(0.7)" xlink:href="#Cmr10-32"/>
      <use transform="translate(415.4047473144531 0.90625)" xlink:href="#Cmr10-29"/>
     </g>
    </g>
   </g>
   <g id="legend_1">
    <g id="patch_7">
     <path d="M 167.8758 180.04165 
L 263.3453 180.04165 
Q 265.0113 180.04165 265.0113 178.37565 
L 265.0113 127.761453 
Q 265.0113 126.095453 263.3453 126.095453 
L 167.8758 126.095453 
Q 166.2098 126.095453 166.2098 127.761453 
L 166.2098 178.37565 
Q 166.2098 180.04165 167.8758 180.04165 
z
" style="fill:#ffffff;stroke:#000000;stroke-linejoin:miter;"/>
    </g>
    <g id="text_13">
     <!-- Particle Radius () -->
     <defs>
      <path d="M 41.609375 79.390625 
Q 41.609375 82.46875 39.421875 84.640625 
Q 37.25 86.8125 34.1875 86.8125 
Q 31.0625 86.8125 28.9375 84.6875 
Q 26.8125 82.5625 26.8125 79.390625 
Q 26.8125 76.3125 28.953125 74.15625 
Q 31.109375 72.015625 34.1875 72.015625 
Q 37.25 72.015625 39.421875 74.15625 
Q 41.609375 76.3125 41.609375 79.390625 
M 34.1875 63.1875 
L 20.90625 26.90625 
L 47.515625 26.90625 
z
M 26.8125 68.21875 
Q 23.828125 70.21875 22.3125 73.015625 
Q 20.796875 75.828125 20.796875 79.390625 
Q 20.796875 85.015625 24.671875 88.921875 
Q 28.5625 92.828125 34.1875 92.828125 
Q 39.75 92.828125 43.671875 88.890625 
Q 47.609375 84.96875 47.609375 79.390625 
Q 47.609375 75.984375 46.0625 73.09375 
Q 44.53125 70.21875 41.609375 68.21875 
L 67.578125 0 
L 57.328125 0 
L 50.6875 18.703125 
L 17.828125 18.703125 
L 11.1875 0 
L 0.78125 0 
z
" id="BitstreamVeraSans-Roman-c5"/>
      <path d="M 18.3125 70.21875 
L 18.3125 54.6875 
L 36.8125 54.6875 
L 36.8125 47.703125 
L 18.3125 47.703125 
L 18.3125 18.015625 
Q 18.3125 11.328125 20.140625 9.421875 
Q 21.96875 7.515625 27.59375 7.515625 
L 36.8125 7.515625 
L 36.8125 0 
L 27.59375 0 
Q 17.1875 0 13.234375 3.875 
Q 9.28125 7.765625 9.28125 18.015625 
L 9.28125 47.703125 
L 2.6875 47.703125 
L 2.6875 54.6875 
L 9.28125 54.6875 
L 9.28125 70.21875 
z
" id="BitstreamVeraSans-Roman-74"/>
      <path d="M 34.28125 27.484375 
Q 23.390625 27.484375 19.1875 25 
Q 14.984375 22.515625 14.984375 16.5 
Q 14.984375 11.71875 18.140625 8.90625 
Q 21.296875 6.109375 26.703125 6.109375 
Q 34.1875 6.109375 38.703125 11.40625 
Q 43.21875 16.703125 43.21875 25.484375 
L 43.21875 27.484375 
z
M 52.203125 31.203125 
L 52.203125 0 
L 43.21875 0 
L 43.21875 8.296875 
Q 40.140625 3.328125 35.546875 0.953125 
Q 30.953125 -1.421875 24.3125 -1.421875 
Q 15.921875 -1.421875 10.953125 3.296875 
Q 6 8.015625 6 15.921875 
Q 6 25.140625 12.171875 29.828125 
Q 18.359375 34.515625 30.609375 34.515625 
L 43.21875 34.515625 
L 43.21875 35.40625 
Q 43.21875 41.609375 39.140625 45 
Q 35.0625 48.390625 27.6875 48.390625 
Q 23 48.390625 18.546875 47.265625 
Q 14.109375 46.140625 10.015625 43.890625 
L 10.015625 52.203125 
Q 14.9375 54.109375 19.578125 55.046875 
Q 24.21875 56 28.609375 56 
Q 40.484375 56 46.34375 49.84375 
Q 52.203125 43.703125 52.203125 31.203125 
" id="BitstreamVeraSans-Roman-61"/>
      <path d="M 45.40625 46.390625 
L 45.40625 75.984375 
L 54.390625 75.984375 
L 54.390625 0 
L 45.40625 0 
L 45.40625 8.203125 
Q 42.578125 3.328125 38.25 0.953125 
Q 33.9375 -1.421875 27.875 -1.421875 
Q 17.96875 -1.421875 11.734375 6.484375 
Q 5.515625 14.40625 5.515625 27.296875 
Q 5.515625 40.1875 11.734375 48.09375 
Q 17.96875 56 27.875 56 
Q 33.9375 56 38.25 53.625 
Q 42.578125 51.265625 45.40625 46.390625 
M 14.796875 27.296875 
Q 14.796875 17.390625 18.875 11.75 
Q 22.953125 6.109375 30.078125 6.109375 
Q 37.203125 6.109375 41.296875 11.75 
Q 45.40625 17.390625 45.40625 27.296875 
Q 45.40625 37.203125 41.296875 42.84375 
Q 37.203125 48.484375 30.078125 48.484375 
Q 22.953125 48.484375 18.875 42.84375 
Q 14.796875 37.203125 14.796875 27.296875 
" id="BitstreamVeraSans-Roman-64"/>
      <path d="M 48.78125 52.59375 
L 48.78125 44.1875 
Q 44.96875 46.296875 41.140625 47.34375 
Q 37.3125 48.390625 33.40625 48.390625 
Q 24.65625 48.390625 19.8125 42.84375 
Q 14.984375 37.3125 14.984375 27.296875 
Q 14.984375 17.28125 19.8125 11.734375 
Q 24.65625 6.203125 33.40625 6.203125 
Q 37.3125 6.203125 41.140625 7.25 
Q 44.96875 8.296875 48.78125 10.40625 
L 48.78125 2.09375 
Q 45.015625 0.34375 40.984375 -0.53125 
Q 36.96875 -1.421875 32.421875 -1.421875 
Q 20.0625 -1.421875 12.78125 6.34375 
Q 5.515625 14.109375 5.515625 27.296875 
Q 5.515625 40.671875 12.859375 48.328125 
Q 20.21875 56 33.015625 56 
Q 37.15625 56 41.109375 55.140625 
Q 45.0625 54.296875 48.78125 52.59375 
" id="BitstreamVeraSans-Roman-63"/>
      <path d="M 44.390625 34.1875 
Q 47.5625 33.109375 50.5625 29.59375 
Q 53.5625 26.078125 56.59375 19.921875 
L 66.609375 0 
L 56 0 
L 46.6875 18.703125 
Q 43.0625 26.03125 39.671875 28.421875 
Q 36.28125 30.8125 30.421875 30.8125 
L 19.671875 30.8125 
L 19.671875 0 
L 9.8125 0 
L 9.8125 72.90625 
L 32.078125 72.90625 
Q 44.578125 72.90625 50.734375 67.671875 
Q 56.890625 62.453125 56.890625 51.90625 
Q 56.890625 45.015625 53.6875 40.46875 
Q 50.484375 35.9375 44.390625 34.1875 
M 19.671875 64.796875 
L 19.671875 38.921875 
L 32.078125 38.921875 
Q 39.203125 38.921875 42.84375 42.21875 
Q 46.484375 45.515625 46.484375 51.90625 
Q 46.484375 58.296875 42.84375 61.546875 
Q 39.203125 64.796875 32.078125 64.796875 
z
" id="BitstreamVeraSans-Roman-52"/>
      <path d="M 8.5 21.578125 
L 8.5 54.6875 
L 17.484375 54.6875 
L 17.484375 21.921875 
Q 17.484375 14.15625 20.5 10.265625 
Q 23.53125 6.390625 29.59375 6.390625 
Q 36.859375 6.390625 41.078125 11.03125 
Q 45.3125 15.671875 45.3125 23.6875 
L 45.3125 54.6875 
L 54.296875 54.6875 
L 54.296875 0 
L 45.3125 0 
L 45.3125 8.40625 
Q 42.046875 3.421875 37.71875 1 
Q 33.40625 -1.421875 27.6875 -1.421875 
Q 18.265625 -1.421875 13.375 4.4375 
Q 8.5 10.296875 8.5 21.578125 
" id="BitstreamVeraSans-Roman-75"/>
      <path d="M 44.28125 53.078125 
L 44.28125 44.578125 
Q 40.484375 46.53125 36.375 47.5 
Q 32.28125 48.484375 27.875 48.484375 
Q 21.1875 48.484375 17.84375 46.4375 
Q 14.5 44.390625 14.5 40.28125 
Q 14.5 37.15625 16.890625 35.375 
Q 19.28125 33.59375 26.515625 31.984375 
L 29.59375 31.296875 
Q 39.15625 29.25 43.1875 25.515625 
Q 47.21875 21.78125 47.21875 15.09375 
Q 47.21875 7.46875 41.1875 3.015625 
Q 35.15625 -1.421875 24.609375 -1.421875 
Q 20.21875 -1.421875 15.453125 -0.5625 
Q 10.6875 0.296875 5.421875 2 
L 5.421875 11.28125 
Q 10.40625 8.6875 15.234375 7.390625 
Q 20.0625 6.109375 24.8125 6.109375 
Q 31.15625 6.109375 34.5625 8.28125 
Q 37.984375 10.453125 37.984375 14.40625 
Q 37.984375 18.0625 35.515625 20.015625 
Q 33.0625 21.96875 24.703125 23.78125 
L 21.578125 24.515625 
Q 13.234375 26.265625 9.515625 29.90625 
Q 5.8125 33.546875 5.8125 39.890625 
Q 5.8125 47.609375 11.28125 51.796875 
Q 16.75 56 26.8125 56 
Q 31.78125 56 36.171875 55.265625 
Q 40.578125 54.546875 44.28125 53.078125 
" id="BitstreamVeraSans-Roman-73"/>
      <path d="M 19.671875 64.796875 
L 19.671875 37.40625 
L 32.078125 37.40625 
Q 38.96875 37.40625 42.71875 40.96875 
Q 46.484375 44.53125 46.484375 51.125 
Q 46.484375 57.671875 42.71875 61.234375 
Q 38.96875 64.796875 32.078125 64.796875 
z
M 9.8125 72.90625 
L 32.078125 72.90625 
Q 44.34375 72.90625 50.609375 67.359375 
Q 56.890625 61.8125 56.890625 51.125 
Q 56.890625 40.328125 50.609375 34.8125 
Q 44.34375 29.296875 32.078125 29.296875 
L 19.671875 29.296875 
L 19.671875 0 
L 9.8125 0 
z
" id="BitstreamVeraSans-Roman-50"/>
      <path d="M 8.015625 75.875 
L 15.828125 75.875 
Q 23.140625 64.359375 26.78125 53.3125 
Q 30.421875 42.28125 30.421875 31.390625 
Q 30.421875 20.453125 26.78125 9.375 
Q 23.140625 -1.703125 15.828125 -13.1875 
L 8.015625 -13.1875 
Q 14.5 -2 17.703125 9.0625 
Q 20.90625 20.125 20.90625 31.390625 
Q 20.90625 42.671875 17.703125 53.65625 
Q 14.5 64.65625 8.015625 75.875 
" id="BitstreamVeraSans-Roman-29"/>
      <path d="M 31 75.875 
Q 24.46875 64.65625 21.28125 53.65625 
Q 18.109375 42.671875 18.109375 31.390625 
Q 18.109375 20.125 21.3125 9.0625 
Q 24.515625 -2 31 -13.1875 
L 23.1875 -13.1875 
Q 15.875 -1.703125 12.234375 9.375 
Q 8.59375 20.453125 8.59375 31.390625 
Q 8.59375 42.28125 12.203125 53.3125 
Q 15.828125 64.359375 23.1875 75.875 
z
" id="BitstreamVeraSans-Roman-28"/>
      <path d="M 41.109375 46.296875 
Q 39.59375 47.171875 37.8125 47.578125 
Q 36.03125 48 33.890625 48 
Q 26.265625 48 22.1875 43.046875 
Q 18.109375 38.09375 18.109375 28.8125 
L 18.109375 0 
L 9.078125 0 
L 9.078125 54.6875 
L 18.109375 54.6875 
L 18.109375 46.1875 
Q 20.953125 51.171875 25.484375 53.578125 
Q 30.03125 56 36.53125 56 
Q 37.453125 56 38.578125 55.875 
Q 39.703125 55.765625 41.0625 55.515625 
z
" id="BitstreamVeraSans-Roman-72"/>
      <path d="M 9.421875 75.984375 
L 18.40625 75.984375 
L 18.40625 0 
L 9.421875 0 
z
" id="BitstreamVeraSans-Roman-6c"/>
     </defs>
     <g transform="translate(169.5418 137.949328125)scale(0.1 -0.1)">
      <use xlink:href="#BitstreamVeraSans-Roman-50"/>
      <use x="60.240234375" xlink:href="#BitstreamVeraSans-Roman-61"/>
      <use x="121.51953125" xlink:href="#BitstreamVeraSans-Roman-72"/>
      <use x="162.6328125" xlink:href="#BitstreamVeraSans-Roman-74"/>
      <use x="201.841796875" xlink:href="#BitstreamVeraSans-Roman-69"/>
      <use x="229.625" xlink:href="#BitstreamVeraSans-Roman-63"/>
      <use x="284.60546875" xlink:href="#BitstreamVeraSans-Roman-6c"/>
      <use x="312.388671875" xlink:href="#BitstreamVeraSans-Roman-65"/>
      <use x="373.912109375" xlink:href="#BitstreamVeraSans-Roman-20"/>
      <use x="405.69921875" xlink:href="#BitstreamVeraSans-Roman-52"/>
      <use x="475.150390625" xlink:href="#BitstreamVeraSans-Roman-61"/>
      <use x="536.4296875" xlink:href="#BitstreamVeraSans-Roman-64"/>
      <use x="599.90625" xlink:href="#BitstreamVeraSans-Roman-69"/>
      <use x="627.689453125" xlink:href="#BitstreamVeraSans-Roman-75"/>
      <use x="691.068359375" xlink:href="#BitstreamVeraSans-Roman-73"/>
      <use x="743.16796875" xlink:href="#BitstreamVeraSans-Roman-20"/>
      <use x="774.955078125" xlink:href="#BitstreamVeraSans-Roman-28"/>
      <use x="813.96875" xlink:href="#BitstreamVeraSans-Roman-c5"/>
      <use x="882.376953125" xlink:href="#BitstreamVeraSans-Roman-29"/>
     </g>
    </g>
    <g id="line2d_173">
     <path d="M 196.20165 147.608014 
L 207.86365 147.608014 
" style="fill:none;stroke:#4daf4a;stroke-linecap:square;stroke-width:2.0;"/>
    </g>
    <g id="line2d_174"/>
    <g id="text_14">
     <!-- $0.06$ -->
     <defs>
      <path d="M 8.40625 5.515625 
Q 8.40625 7.765625 10.0625 9.375 
Q 11.71875 10.984375 13.921875 10.984375 
Q 15.28125 10.984375 16.59375 10.25 
Q 17.921875 9.515625 18.65625 8.203125 
Q 19.390625 6.890625 19.390625 5.515625 
Q 19.390625 3.328125 17.765625 1.65625 
Q 16.15625 0 13.921875 0 
Q 11.71875 0 10.0625 1.65625 
Q 8.40625 3.328125 8.40625 5.515625 
" id="Cmmi10-3a"/>
      <path d="M 25 -2.203125 
Q 12.75 -2.203125 8.328125 7.875 
Q 3.90625 17.96875 3.90625 31.890625 
Q 3.90625 40.578125 5.484375 48.234375 
Q 7.078125 55.90625 11.78125 61.25 
Q 16.5 66.609375 25 66.609375 
Q 31.59375 66.609375 35.78125 63.375 
Q 39.984375 60.15625 42.1875 55.046875 
Q 44.390625 49.953125 45.1875 44.109375 
Q 46 38.28125 46 31.890625 
Q 46 23.296875 44.40625 15.796875 
Q 42.828125 8.296875 38.1875 3.046875 
Q 33.546875 -2.203125 25 -2.203125 
M 25 0.390625 
Q 30.5625 0.390625 33.296875 6.09375 
Q 36.03125 11.8125 36.671875 18.75 
Q 37.3125 25.6875 37.3125 33.5 
Q 37.3125 41.015625 36.671875 47.359375 
Q 36.03125 53.71875 33.3125 58.859375 
Q 30.609375 64.015625 25 64.015625 
Q 19.34375 64.015625 16.609375 58.828125 
Q 13.875 53.65625 13.234375 47.328125 
Q 12.59375 41.015625 12.59375 33.5 
Q 12.59375 27.9375 12.859375 23 
Q 13.140625 18.0625 14.3125 12.8125 
Q 15.484375 7.5625 18.09375 3.96875 
Q 20.703125 0.390625 25 0.390625 
" id="Cmr10-30"/>
      <path d="M 25 -2.203125 
Q 18.796875 -2.203125 14.640625 1.09375 
Q 10.5 4.390625 8.21875 9.640625 
Q 5.953125 14.890625 5.078125 20.65625 
Q 4.203125 26.421875 4.203125 32.328125 
Q 4.203125 40.234375 7.28125 48.1875 
Q 10.359375 56.15625 16.328125 61.375 
Q 22.3125 66.609375 30.515625 66.609375 
Q 33.9375 66.609375 36.890625 65.3125 
Q 39.84375 64.015625 41.53125 61.5 
Q 43.21875 58.984375 43.21875 55.421875 
Q 43.21875 53.375 41.828125 51.984375 
Q 40.4375 50.59375 38.375 50.59375 
Q 36.421875 50.59375 35 52 
Q 33.59375 53.421875 33.59375 55.421875 
Q 33.59375 57.375 35 58.78125 
Q 36.421875 60.203125 38.375 60.203125 
L 38.921875 60.203125 
Q 37.640625 62.015625 35.328125 62.859375 
Q 33.015625 63.71875 30.515625 63.71875 
Q 27.484375 63.71875 24.921875 62.390625 
Q 22.359375 61.078125 20.3125 58.828125 
Q 18.265625 56.59375 16.890625 53.875 
Q 15.53125 51.171875 14.765625 47.703125 
Q 14.015625 44.234375 13.8125 41.203125 
Q 13.625 38.1875 13.625 33.59375 
Q 15.375 37.703125 18.59375 40.3125 
Q 21.828125 42.921875 25.875 42.921875 
Q 30.328125 42.921875 33.984375 41.109375 
Q 37.640625 39.3125 40.28125 36.109375 
Q 42.921875 32.90625 44.3125 28.796875 
Q 45.703125 24.703125 45.703125 20.515625 
Q 45.703125 14.65625 43.09375 9.34375 
Q 40.484375 4.046875 35.734375 0.921875 
Q 31 -2.203125 25 -2.203125 
M 25 0.984375 
Q 28.859375 0.984375 31.203125 2.734375 
Q 33.546875 4.5 34.640625 7.390625 
Q 35.75 10.296875 36.015625 13.25 
Q 36.28125 16.21875 36.28125 20.515625 
Q 36.28125 26.171875 35.734375 30.171875 
Q 35.203125 34.1875 32.8125 37.234375 
Q 30.421875 40.28125 25.484375 40.28125 
Q 21.4375 40.28125 18.828125 37.546875 
Q 16.21875 34.8125 15.015625 30.640625 
Q 13.8125 26.46875 13.8125 22.609375 
Q 13.8125 21.296875 13.921875 20.609375 
Q 13.921875 20.453125 13.890625 20.359375 
Q 13.875 20.265625 13.8125 20.125 
Q 13.8125 15.828125 14.6875 11.421875 
Q 15.578125 7.03125 18.0625 4 
Q 20.5625 0.984375 25 0.984375 
" id="Cmr10-36"/>
     </defs>
     <g transform="translate(217.02665 150.523514063)scale(0.0833 -0.0833)">
      <use transform="translate(0.0 0.390625)" xlink:href="#Cmr10-30"/>
      <use transform="translate(50.0 0.390625)" xlink:href="#Cmmi10-3a"/>
      <use transform="translate(95.244140625 0.390625)" xlink:href="#Cmr10-30"/>
      <use transform="translate(145.244140625 0.390625)" xlink:href="#Cmr10-36"/>
     </g>
    </g>
    <g id="line2d_175">
     <path d="M 196.20165 159.834892 
L 207.86365 159.834892 
" style="fill:none;stroke:#984ea3;stroke-linecap:square;stroke-width:2.0;"/>
    </g>
    <g id="line2d_176"/>
    <g id="text_15">
     <!-- $0.095$ -->
     <defs>
      <path d="M 11.28125 4.203125 
Q 14.015625 0.984375 20.796875 0.984375 
Q 24.609375 0.984375 27.90625 3.5625 
Q 31.203125 6.15625 33.015625 9.90625 
Q 35.109375 14.15625 35.6875 18.96875 
Q 36.28125 23.78125 36.28125 30.90625 
Q 34.578125 26.859375 31.375 24.265625 
Q 28.171875 21.6875 24.03125 21.6875 
Q 18.21875 21.6875 13.640625 24.828125 
Q 9.078125 27.984375 6.640625 33.125 
Q 4.203125 38.28125 4.203125 44.09375 
Q 4.203125 50.09375 6.9375 55.296875 
Q 9.671875 60.5 14.5 63.546875 
Q 19.34375 66.609375 25.484375 66.609375 
Q 31.546875 66.609375 35.625 63.3125 
Q 39.703125 60.015625 41.84375 54.8125 
Q 44 49.609375 44.84375 43.796875 
Q 45.703125 37.984375 45.703125 32.328125 
Q 45.703125 24.609375 42.875 16.578125 
Q 40.046875 8.546875 34.40625 3.171875 
Q 28.765625 -2.203125 20.796875 -2.203125 
Q 14.890625 -2.203125 10.78125 0.578125 
Q 6.6875 3.375 6.6875 8.984375 
Q 6.6875 11.03125 8.078125 12.421875 
Q 9.46875 13.8125 11.53125 13.8125 
Q 13.53125 13.8125 14.921875 12.421875 
Q 16.3125 11.03125 16.3125 8.984375 
Q 16.3125 7.03125 14.890625 5.609375 
Q 13.484375 4.203125 11.53125 4.203125 
z
M 24.421875 24.3125 
Q 28.515625 24.3125 31.125 27.0625 
Q 33.734375 29.828125 34.90625 33.921875 
Q 36.078125 38.03125 36.078125 42.09375 
L 36.078125 44 
L 36.078125 44.390625 
Q 36.078125 51.90625 33.875 57.8125 
Q 31.6875 63.71875 25.484375 63.71875 
Q 21.53125 63.71875 19.0625 61.984375 
Q 16.609375 60.25 15.4375 57.375 
Q 14.265625 54.5 13.9375 51.21875 
Q 13.625 47.953125 13.625 44.09375 
Q 13.625 38.421875 14.15625 34.421875 
Q 14.703125 30.421875 17.09375 27.359375 
Q 19.484375 24.3125 24.421875 24.3125 
" id="Cmr10-39"/>
     </defs>
     <g transform="translate(217.02665 162.750392188)scale(0.0833 -0.0833)">
      <use transform="translate(0.0 0.390625)" xlink:href="#Cmr10-30"/>
      <use transform="translate(50.0 0.390625)" xlink:href="#Cmmi10-3a"/>
      <use transform="translate(95.244140625 0.390625)" xlink:href="#Cmr10-30"/>
      <use transform="translate(145.244140625 0.390625)" xlink:href="#Cmr10-39"/>
      <use transform="translate(195.244140625 0.390625)" xlink:href="#Cmr10-35"/>
     </g>
    </g>
    <g id="line2d_177">
     <path d="M 196.20165 172.06177 
L 207.86365 172.06177 
" style="fill:none;stroke:#ff7f00;stroke-linecap:square;stroke-width:2.0;"/>
    </g>
    <g id="line2d_178"/>
    <g id="text_16">
     <!-- $0.15$ -->
     <defs>
      <path d="M 9.28125 0 
L 9.28125 3.515625 
Q 21.78125 3.515625 21.78125 6.6875 
L 21.78125 59.1875 
Q 16.609375 56.6875 8.6875 56.6875 
L 8.6875 60.203125 
Q 20.953125 60.203125 27.203125 66.609375 
L 28.609375 66.609375 
Q 28.953125 66.609375 29.265625 66.328125 
Q 29.59375 66.0625 29.59375 65.71875 
L 29.59375 6.6875 
Q 29.59375 3.515625 42.09375 3.515625 
L 42.09375 0 
z
" id="Cmr10-31"/>
     </defs>
     <g transform="translate(217.02665 174.977270313)scale(0.0833 -0.0833)">
      <use transform="translate(0.0 0.390625)" xlink:href="#Cmr10-30"/>
      <use transform="translate(50.0 0.390625)" xlink:href="#Cmmi10-3a"/>
      <use transform="translate(95.244140625 0.390625)" xlink:href="#Cmr10-31"/>
      <use transform="translate(145.244140625 0.390625)" xlink:href="#Cmr10-35"/>
     </g>
    </g>
   </g>
  </g>
 </g>
 <defs>
  <clipPath id="p0d4c276854">
   <rect height="172.8" width="223.2" x="45.9763" y="11.40665"/>
  </clipPath>
 </defs>
</svg>
