<?xml version="1.0" encoding="utf-8" standalone="no"?>
<!DOCTYPE svg PUBLIC "-//W3C//DTD SVG 1.1//EN"
  "http://www.w3.org/Graphics/SVG/1.1/DTD/svg11.dtd">
<!-- Created with matplotlib (http://matplotlib.org/) -->
<svg height="172pt" version="1.1" viewBox="0 0 576 172" width="576pt" xmlns="http://www.w3.org/2000/svg" xmlns:xlink="http://www.w3.org/1999/xlink">
 <defs>
  <style type="text/css">
*{stroke-linecap:butt;stroke-linejoin:round;stroke-miterlimit:100000;}
  </style>
 </defs>
 <g id="figure_1">
  <g id="patch_1">
   <path d="M 0 172.618297 
L 576 172.618297 
L 576 0 
L 0 0 
z
" style="fill:#ffffff;"/>
  </g>
  <g id="axes_1">
   <g id="line2d_1">
    <path clip-path="url(#p530c673078)" d="M 485.736129 1.692336 
L 88.931437 1.702828 
L 86.267891 1.786743 
L 82.280827 2.069752 
L 78.311577 2.540732 
L 74.368997 3.198632 
L 70.461884 4.041985 
L 66.598958 5.068907 
L 62.788837 6.277109 
L 59.040024 7.663893 
L 55.360883 9.226165 
L 51.759625 10.96044 
L 48.244284 12.862847 
L 44.822706 14.929141 
L 41.502525 17.154712 
L 38.291149 19.534594 
L 35.195745 22.063476 
L 32.223219 24.735715 
L 29.380205 27.545349 
L 26.673046 30.486107 
L 24.107783 33.551429 
L 21.69014 36.734474 
L 19.425512 40.028139 
L 17.318952 43.425075 
L 15.375161 46.917702 
L 13.598476 50.498227 
L 11.992861 54.158661 
L 10.561899 57.890834 
L 9.308784 61.68642 
L 8.236311 65.536949 
L 7.346873 69.433829 
L 6.642456 73.368364 
L 6.124631 77.331775 
L 5.794554 81.315218 
L 5.65296 85.309805 
L 5.700167 89.306621 
L 5.936068 93.296749 
L 6.360138 97.271285 
L 6.971429 101.22136 
L 7.768579 105.13816 
L 8.749808 109.012946 
L 9.912926 112.83707 
L 11.255339 116.602 
L 12.774051 120.299335 
L 14.465673 123.920824 
L 16.326431 127.458387 
L 18.352172 130.90413 
L 20.538376 134.250364 
L 22.880164 137.489623 
L 25.372312 140.614678 
L 28.009259 143.618556 
L 30.78512 146.494554 
L 33.693701 149.236255 
L 36.728513 151.837541 
L 39.882783 154.292608 
L 43.149472 156.595977 
L 46.521293 158.742509 
L 49.99072 160.727413 
L 53.550012 162.546262 
L 57.191227 164.194995 
L 60.906241 165.669935 
L 64.686762 166.967789 
L 68.524356 168.085663 
L 72.41046 169.021062 
L 76.336401 169.771897 
L 80.29342 170.336495 
L 84.272687 170.713595 
L 88.265323 170.902355 
L 89.597633 170.923337 
L 489.066491 170.860396 
L 493.05566 170.608789 
L 497.028495 170.169075 
L 500.976133 169.542238 
L 504.889765 168.729674 
L 508.760657 167.733199 
L 512.580172 166.555034 
L 516.339788 165.19781 
L 520.031116 163.664554 
L 523.645917 161.958688 
L 527.176128 160.084018 
L 530.613869 158.044728 
L 533.95147 155.845367 
L 537.181485 153.490844 
L 540.296704 150.986413 
L 543.290178 148.337661 
L 546.155226 145.550499 
L 548.885455 142.631147 
L 551.474774 139.586118 
L 553.917404 136.422207 
L 556.207894 133.146475 
L 558.341135 129.76623 
L 560.312366 126.289016 
L 562.117188 122.722591 
L 563.751573 119.074913 
L 565.211876 115.354122 
L 566.494838 111.56852 
L 567.597595 107.726555 
L 568.517687 103.836799 
L 569.253061 99.907932 
L 569.802077 95.948721 
L 570.163508 91.968 
L 570.336549 87.974652 
L 570.320813 83.977588 
L 570.116335 79.985726 
L 569.723573 76.007974 
L 569.143401 72.053209 
L 568.377116 68.130254 
L 567.426426 64.247863 
L 566.293453 60.414699 
L 564.980725 56.639316 
L 563.491171 52.930138 
L 561.828116 49.295442 
L 559.995269 45.743338 
L 557.996722 42.281752 
L 555.836932 38.918408 
L 553.520721 35.660812 
L 551.053255 32.516231 
L 548.440042 29.491684 
L 545.686911 26.593919 
L 542.800007 23.829402 
L 539.785771 21.204301 
L 536.650929 18.724475 
L 533.402477 16.395457 
L 530.047662 14.222444 
L 526.59397 12.210284 
L 523.049109 10.363468 
L 519.420988 8.686116 
L 515.717703 7.181972 
L 511.947518 5.854391 
L 508.118844 4.706336 
L 504.240226 3.740369 
L 500.320318 2.958645 
L 496.367867 2.362909 
L 492.391692 1.95449 
L 488.400667 1.734299 
L 485.736129 1.692336 
L 485.736129 1.692336 
" style="fill:none;stroke:#000000;stroke-linecap:square;stroke-width:2.0;"/>
   </g>
   <g id="line2d_2">
    <path clip-path="url(#p530c673078)" d="M 271.604062 92.843851 
L 240.183929 155.23346 
L 198.538866 150.660847 
L 152.372429 157.852584 
L 193.055232 127.969266 
L 218.498175 62.689923 
L 184.816229 13.7274 
L 172.247933 28.282756 
L 196.749421 12.451767 
L 150.241756 51.023666 
L 118.658612 71.232708 
L 109.86763 47.119947 
L 96.306708 56.917568 
L 105.746166 63.455914 
L 85.702802 80.275779 
L 73.316705 43.926966 
L 103.836191 37.844445 
L 51.991145 88.99077 
L 38.738989 42.806306 
L 13.805243 93.474653 
L 62.335286 73.840299 
L 71.465771 29.357272 
L 103.094362 29.772932 
L 136.278426 35.14679 
L 135.532738 32.973321 
L 171.168191 62.570321 
L 200.414946 130.099723 
L 262.061783 114.65712 
L 235.425667 67.817412 
L 283.527174 77.722814 
L 280.541536 88.527436 
L 308.824954 97.939803 
L 291.197152 146.274636 
L 391.610642 120.549179 
L 394.453583 141.224116 
L 358.530432 92.614418 
L 427.138262 69.844189 
L 423.695629 80.054067 
L 458.75077 114.741848 
L 491.802349 131.257432 
L 505.269361 101.385494 
L 473.962949 59.30474 
L 425.13464 35.992487 
L 435.687173 79.67734 
L 474.381615 90.357882 
L 490.317567 73.633232 
L 498.942803 25.372055 
L 432.617113 79.772932 
L 461.175741 99.612952 
L 533.035188 119.307208 
L 494.782791 123.015613 
L 460.277913 125.988844 
L 446.750442 108.870376 
L 471.480888 108.246535 
L 514.244126 107.410263 
L 470.525487 106.17962 
L 479.850672 66.895016 
L 410.326054 123.084889 
L 466.949271 89.988676 
L 505.389867 72.004279 
L 467.981557 89.652899 
L 478.301988 62.905888 
L 454.750749 85.131728 
L 440.90625 108.497699 
L 438.390191 85.388354 
L 449.048137 102.680152 
L 502.797681 38.948251 
L 493.164219 49.706885 
L 499.027849 40.779846 
L 497.623295 57.814923 
L 447.117364 20.907191 
L 441.831976 7.440771 
L 420.423287 88.532549 
L 395.764647 26.977005 
L 399.96781 52.020066 
L 369.684776 67.942043 
L 396.744242 104.637628 
L 385.460568 101.604145 
L 369.190267 145.772536 
L 369.013543 94.128604 
L 386.915831 126.812307 
L 345.188552 96.572065 
L 300.881014 63.109241 
L 217.799195 76.976613 
L 227.927794 56.717932 
L 252.197864 56.44435 
L 177.624023 10.570764 
L 163.967404 99.629321 
L 189.197647 41.931334 
L 263.316652 85.918102 
L 233.451295 71.850968 
L 277.381972 84.805423 
L 299.482805 107.838319 
L 297.892774 135.860737 
L 292.109368 152.300834 
L 359.88552 155.217284 
L 384.421509 152.471123 
L 403.727247 160.119632 
L 407.629379 121.652508 
L 437.121717 139.632319 
L 458.382685 111.533863 
L 451.73451 76.252604 
L 385.294025 82.459116 
L 404.940523 79.993208 
L 333.119756 86.259623 
L 241.19143 105.848464 
L 292.00841 110.931865 
L 311.768169 114.454817 
L 343.753107 55.971144 
L 330.425203 132.162902 
L 320.847003 117.308243 
L 281.304647 141.827442 
L 306.676883 140.625194 
L 354.679367 150.124749 
L 410.789475 123.451011 
L 370.43249 125.321288 
L 297.354446 130.706948 
L 287.016875 135.413847 
L 304.014352 118.892876 
L 279.752473 95.796653 
L 337.045897 121.784465 
L 313.978614 162.72201 
L 306.65206 141.013718 
L 286.647783 100.124233 
L 249.187983 68.242044 
L 267.963318 60.665887 
L 237.469101 74.675593 
L 230.775417 26.541617 
L 209.051647 58.15807 
L 261.269701 103.27373 
L 287.997627 96.384213 
L 262.607745 47.417455 
L 338.089848 76.290713 
L 298.73956 130.857265 
L 331.040049 120.397373 
L 296.644311 67.174522 
L 245.633113 98.091248 
L 264.59089 107.920814 
L 278.713234 80.212472 
L 258.429616 97.792909 
L 285.011544 90.817101 
L 230.66906 83.431463 
L 178.710215 19.094803 
L 170.819261 9.913065 
L 175.475309 33.492793 
L 177.51435 48.177208 
L 134.893834 31.944545 
L 159.751561 68.775752 
L 192.332139 106.90319 
L 216.817755 81.098435 
L 157.043753 31.318789 
L 180.945807 53.923107 
L 157.411238 23.34636 
L 190.496241 89.901433 
L 135.373505 69.01739 
L 199.0436 53.56947 
L 152.907148 31.188143 
L 140.619842 37.461921 
L 166.49546 58.514549 
L 139.641183 38.257026 
L 81.350691 94.666261 
L 59.312721 142.696426 
L 112.313456 145.250734 
L 112.186428 123.362237 
L 95.402727 51.613602 
L 73.579709 13.635258 
L 95.108915 56.798804 
L 93.516193 49.980798 
L 66.970716 35.625171 
L 83.67009 41.267962 
L 44.431719 83.302182 
L 92.464204 80.112589 
L 100.39748 53.656687 
L 49.744654 67.610053 
L 42.488472 53.237315 
L 48.460904 30.4261 
L 55.303818 58.473355 
L 80.610045 68.484691 
L 38.099314 66.369047 
L 75.54291 111.285089 
L 92.214687 118.452637 
L 124.086721 101.924012 
L 79.380652 83.998202 
L 126.998433 41.857759 
L 189.964952 41.120348 
L 206.505092 57.585523 
L 223.032328 97.227369 
L 176.471977 101.010274 
L 175.789485 38.452617 
L 169.972856 57.15621 
L 159.073984 139.799347 
L 129.818354 117.13168 
L 123.893019 145.294744 
L 92.727077 108.486224 
L 68.176517 112.385069 
L 45.323961 109.626712 
L 31.999156 55.655469 
L 62.217128 102.505482 
L 102.032437 96.242248 
L 196.471689 131.652724 
L 226.562622 75.018424 
L 244.981697 56.73226 
L 239.785431 91.435187 
L 188.225445 102.596192 
L 184.997233 121.431901 
L 128.160931 91.111487 
L 127.630847 69.610647 
L 129.847355 81.759238 
L 148.509992 127.312198 
L 136.820924 81.891864 
L 134.376307 143.715233 
L 160.485014 98.523266 
L 176.946897 68.559711 
L 176.622156 104.503463 
L 184.545998 139.33798 
L 166.498081 119.747754 
L 166.111655 137.168775 
L 69.875057 122.409041 
L 90.134423 131.193748 
L 93.351172 140.374701 
L 105.512567 135.010796 
L 120.816209 84.791027 
L 94.016325 98.64481 
L 133.703672 71.892066 
L 106.586627 114.235546 
L 58.202883 53.303938 
L 78.253189 140.092294 
L 64.919466 94.180746 
L 155.484483 132.781321 
L 150.496628 114.273562 
L 152.890598 129.431856 
L 166.288812 121.489596 
L 171.301486 112.272029 
L 274.730834 57.214724 
L 308.831747 83.431919 
L 263.850573 98.28172 
L 239.234933 112.532326 
L 170.765667 67.999289 
L 152.571557 111.634662 
L 160.927708 49.833579 
L 124.892114 68.920536 
L 126.041322 78.83389 
L 194.994838 103.360326 
L 169.276413 150.946011 
L 189.531396 117.18823 
L 248.347254 110.511224 
L 144.365894 114.502347 
L 85.149722 99.056651 
L 26.803915 117.145528 
L 62.89213 92.208883 
L 122.13104 71.893383 
L 194.616189 83.110703 
L 208.511408 121.123635 
L 199.70029 145.438934 
L 182.405012 108.109504 
L 113.840843 101.021061 
L 154.680025 73.636059 
L 145.726258 48.340341 
L 95.494963 77.210139 
L 115.782805 53.128048 
L 95.264849 55.069857 
L 112.802388 73.783885 
L 61.412887 62.250229 
L 20.059263 102.261745 
L 21.086004 110.972909 
L 39.217778 81.37661 
L 35.496882 80.588712 
L 30.355702 116.661471 
L 31.332117 57.020556 
L 53.925372 79.880302 
L 71.676774 65.227216 
L 124.144898 100.704882 
L 116.825924 62.360532 
L 96.714195 121.547304 
L 96.175227 134.771202 
L 98.075644 115.399886 
L 136.563666 83.956166 
L 48.547485 57.212744 
L 105.178256 40.085519 
L 67.21246 24.532098 
L 105.323437 67.688482 
L 130.982309 64.871096 
L 223.478599 46.604694 
L 236.051295 47.942998 
L 244.545884 17.345867 
L 234.488285 48.458528 
L 165.088649 46.569546 
L 120.255253 66.877683 
L 126.435535 63.014567 
L 131.832964 110.532783 
L 104.817309 74.28358 
L 91.367166 99.533886 
L 54.648233 53.265387 
L 83.442066 58.64117 
L 69.625912 117.210753 
L 81.280151 147.393988 
L 125.973675 133.697364 
L 83.559481 90.837757 
L 19.862964 59.785386 
L 72.976221 89.369826 
L 125.478957 54.001852 
L 75.404368 43.094126 
L 118.04187 62.714413 
L 76.965418 61.646843 
L 58.964326 38.007951 
L 46.406954 78.397428 
L 98.729458 131.304902 
L 99.618072 161.026913 
L 186.818655 154.887082 
L 275.013631 150.263687 
L 243.553656 114.152582 
L 300.346572 91.91265 
L 327.177209 49.806934 
L 368.615667 19.529047 
L 425.227235 75.165971 
L 354.114704 56.185503 
L 339.252007 121.903155 
L 285.153651 70.591264 
L 276.814049 20.00149 
L 223.636268 38.976691 
L 297.423477 40.870604 
L 281.873403 54.027042 
L 244.642446 26.223226 
L 270.998057 26.068898 
L 242.090788 18.946776 
L 239.255683 28.576671 
L 211.910567 38.813929 
L 122.331104 46.874385 
L 93.92455 117.58584 
L 91.914997 107.159608 
L 29.52043 110.277774 
L 81.822568 82.153487 
L 109.143067 129.839939 
L 88.835703 126.645298 
L 61.040342 144.339756 
L 68.768746 84.062592 
L 68.198258 63.331286 
L 34.867422 111.625559 
L 30.247293 101.302183 
L 52.545383 93.426467 
L 68.139816 80.058742 
L 88.967673 26.488835 
L 68.380397 57.168773 
L 38.39761 99.019236 
L 133.277258 52.963585 
L 60.401237 51.605804 
L 92.460741 19.35236 
L 122.627253 125.052956 
L 62.590425 63.077593 
L 54.349382 147.889305 
L 99.894039 114.929258 
L 81.86768 135.222197 
L 58.911719 118.374646 
L 36.075316 115.290433 
L 39.949164 46.884898 
L 42.755488 89.789202 
L 58.548096 107.186943 
L 18.889926 81.418584 
L 80.605716 50.087166 
L 71.006871 91.311756 
L 48.193242 108.672648 
L 54.015697 100.575713 
L 52.275154 130.009759 
L 56.904076 140.861686 
L 67.188977 126.120665 
L 145.203061 96.259387 
L 148.090202 110.689075 
L 213.405618 110.87541 
L 170.887636 131.898548 
L 176.265088 121.563337 
L 140.428919 145.261516 
L 127.210989 155.992153 
L 96.289385 157.369743 
L 72.36032 153.502356 
L 110.990954 122.419297 
L 163.248037 148.156275 
L 152.56337 135.774774 
L 201.444358 100.263239 
L 230.348207 86.19981 
L 151.549946 127.003423 
L 243.484404 113.249571 
L 188.297133 81.907508 
L 169.930461 90.119537 
L 144.150307 47.136569 
L 102.296863 56.126118 
L 113.531198 127.863191 
L 155.474398 153.962271 
L 68.837444 152.670438 
L 63.212942 103.629567 
L 97.377989 67.090903 
L 83.25954 135.887396 
L 26.225469 119.560913 
L 122.882744 128.560154 
L 144.307888 162.164786 
L 129.673388 157.463874 
L 112.540685 144.231108 
L 91.892531 161.058243 
L 69.499321 140.747164 
L 91.580917 157.315278 
L 84.564946 87.640253 
L 100.685005 111.480558 
L 90.094585 92.789439 
L 153.429705 100.846389 
L 165.191631 64.303627 
L 174.236932 82.658859 
L 160.213695 120.683643 
L 172.6024 77.488055 
L 224.445503 92.823017 
L 284.01124 75.161879 
L 281.919566 34.489788 
L 321.368688 19.126646 
L 380.594198 61.878999 
L 334.400142 43.966926 
L 323.65912 67.691193 
L 276.647933 45.031152 
L 230.941344 29.591117 
L 261.335754 59.779831 
L 287.584299 81.461874 
L 308.763992 141.046443 
L 306.728248 101.555837 
L 216.087897 56.006032 
L 290.543892 56.046385 
L 360.733757 19.972635 
L 319.945406 47.023246 
L 374.157434 68.513893 
L 393.566482 63.472621 
L 361.873719 23.035283 
L 395.805066 14.750211 
L 365.363293 61.776127 
L 347.359893 94.640893 
L 332.205767 50.311714 
L 383.798727 110.458147 
L 413.999061 117.334349 
L 359.843493 122.767312 
L 336.788718 96.246255 
L 266.236838 157.669567 
L 259.526686 127.92621 
L 342.903104 140.157184 
L 383.542238 144.111496 
L 390.353168 132.369982 
L 423.403954 140.598987 
L 439.171309 150.900227 
L 486.930423 145.464333 
L 525.62788 45.149526 
L 537.634623 43.23886 
L 514.692131 41.831315 
L 486.868349 63.524406 
L 429.027036 16.945965 
L 490.295085 26.610138 
L 532.93963 27.154918 
L 509.247121 96.877633 
L 517.167926 106.211812 
L 525.690635 130.191461 
L 503.419465 93.405983 
L 491.017083 106.944287 
L 560.288019 80.751447 
L 535.085628 62.488889 
L 549.878983 110.571681 
L 496.874809 151.364129 
L 446.822308 157.71159 
L 445.425885 125.796442 
L 491.253523 77.526517 
L 489.949147 76.011249 
L 484.760101 114.375743 
L 467.689381 85.312014 
L 426.540886 121.337741 
L 395.442272 118.088327 
L 391.025766 132.097012 
L 426.524041 127.071828 
L 360.474505 107.888718 
L 387.41135 86.45578 
L 327.359327 33.007282 
L 332.261022 35.464714 
L 292.434862 52.265749 
L 289.154036 60.03381 
L 276.109959 120.227107 
L 285.376114 54.548275 
L 367.496327 84.418519 
L 332.813124 28.724976 
L 335.34314 38.058792 
L 330.790673 11.442289 
L 407.449192 45.947816 
L 441.813681 56.821133 
L 469.152969 127.614964 
L 421.473199 94.204708 
L 444.394832 140.818236 
L 438.532657 140.355904 
L 417.414335 146.132504 
L 432.934686 149.858651 
L 502.647668 150.740721 
L 442.543709 158.466605 
L 431.577171 111.707217 
L 411.527663 60.593529 
L 441.295698 71.220391 
L 473.244172 76.245451 
L 543.138284 39.927773 
L 507.697727 34.36848 
L 481.118727 77.0128 
L 506.980367 108.271551 
L 539.050549 125.216555 
L 509.709557 125.636558 
L 449.48582 72.068496 
L 477.839988 64.683909 
L 504.975711 38.674675 
L 507.838259 104.129871 
L 487.227492 59.971922 
L 478.621088 71.686914 
L 443.304242 114.672705 
L 448.891042 144.028545 
L 508.240911 156.478676 
L 556.500665 113.537828 
L 511.551285 121.869527 
L 459.970696 94.24278 
L 371.763392 103.423319 
L 379.919832 72.598702 
L 376.880012 30.150913 
L 393.711145 57.729943 
L 346.486655 18.891555 
L 326.425195 14.50604 
L 357.82108 15.508511 
L 365.386937 23.796756 
L 428.792709 73.035311 
L 420.331498 27.857745 
L 401.243169 54.047059 
L 429.690072 87.986368 
L 447.177108 22.357107 
L 496.072276 37.773428 
L 444.211138 128.634961 
L 485.907254 147.737146 
L 459.863342 104.239353 
L 467.76441 112.444918 
L 520.673917 108.478062 
L 519.437832 123.802228 
L 537.25002 65.236587 
L 539.651866 46.701143 
L 493.659047 89.087862 
L 436.936119 64.936243 
L 481.773513 50.650266 
L 442.723983 87.66213 
L 475.031059 110.824856 
L 451.434742 79.019552 
L 481.540683 84.477436 
L 524.195877 100.436004 
L 498.749314 73.792254 
L 503.955961 86.724157 
L 548.751239 115.788476 
L 535.26672 89.143705 
L 549.148618 77.035834 
L 553.136876 88.247419 
L 523.009147 94.957308 
L 510.781262 109.138049 
L 520.597633 121.260136 
L 522.504545 118.970929 
L 505.846779 116.414231 
L 441.819542 11.988381 
L 441.121857 42.495278 
L 433.068284 78.032444 
L 475.367852 108.43737 
L 447.595469 60.227149 
L 457.346624 53.389876 
L 443.752872 80.12217 
L 403.724579 63.07007 
L 400.467777 104.305131 
L 390.474031 93.763766 
L 349.102148 158.473415 
L 420.226088 117.524082 
L 474.616639 51.417037 
L 468.039107 34.664061 
L 458.175113 99.963112 
L 441.036113 83.583685 
L 484.361846 55.053145 
L 442.262088 70.04479 
L 442.593143 33.028905 
L 542.10431 86.940031 
L 528.437657 77.765341 
L 522.105638 85.503087 
L 473.434705 126.713057 
L 403.138625 129.64301 
L 422.916387 104.447576 
L 426.457686 126.06266 
L 512.707696 98.542098 
L 521.593051 43.097211 
L 540.476987 56.337112 
L 536.399854 62.091315 
L 521.800409 41.695926 
L 536.129939 52.891252 
L 490.968557 40.561971 
L 516.119438 115.832936 
L 505.985923 113.573265 
L 517.487117 114.172973 
L 538.039236 101.27972 
L 481.83564 118.271519 
L 386.148405 123.800205 
L 391.019012 149.936519 
L 433.397836 125.900906 
L 332.802227 150.696204 
L 290.920579 128.958881 
L 304.338913 99.105891 
L 304.661133 105.596129 
L 313.543778 142.040426 
L 325.249846 132.079104 
L 353.72571 53.678441 
L 389.045603 70.431531 
L 334.026442 83.27454 
L 307.933382 118.354643 
L 312.582017 70.464942 
L 307.892213 31.020941 
L 354.152465 79.356146 
L 342.906325 133.228898 
L 285.274601 97.171909 
L 249.685636 28.438892 
L 211.069108 57.927359 
L 211.361929 59.587212 
L 203.102301 89.620141 
L 200.61239 77.908845 
L 99.553858 68.837746 
L 114.226114 95.20206 
L 112.544363 57.956827 
L 109.815097 84.401699 
L 117.583101 85.463063 
L 49.58368 77.769299 
L 38.48327 91.124951 
L 26.910082 92.286886 
L 37.266654 109.331403 
L 31.837901 94.603641 
L 45.392452 104.194971 
L 74.596066 75.37714 
L 59.278975 53.197113 
L 53.243253 75.133733 
L 51.114981 118.775207 
L 65.133654 140.998779 
L 90.487363 92.096196 
L 92.491292 66.147385 
L 103.223337 27.90189 
L 95.87552 20.176001 
L 84.976576 26.215295 
L 91.539663 10.694374 
L 118.56489 9.317431 
L 69.831119 44.862364 
L 87.075888 66.41531 
L 46.169078 125.32786 
L 31.359249 97.509057 
L 52.822309 116.042545 
L 35.536001 49.219387 
L 57.182979 48.057351 
L 32.924922 57.694133 
L 27.280024 57.607919 
L 82.013378 71.358681 
L 99.692613 92.67627 
L 98.682536 49.924643 
L 85.809239 72.704382 
L 97.790768 80.390744 
L 159.470544 103.35401 
L 167.621282 55.109842 
L 146.186204 90.072595 
L 130.391794 97.27199 
L 143.464141 106.900668 
L 138.558008 112.682664 
L 104.649161 89.601327 
L 47.093259 42.813313 
L 36.064059 34.347923 
L 82.232635 46.830407 
L 143.978816 80.291879 
L 175.198281 123.876551 
L 224.493516 70.599811 
L 215.214185 97.944194 
L 271.43985 45.098166 
L 283.767306 55.975049 
L 292.316354 115.078631 
L 319.081518 125.62909 
L 363.345983 124.238478 
L 398.490211 129.502028 
L 393.518998 80.377813 
L 428.50654 84.799351 
L 509.072409 59.844181 
L 449.171813 90.979934 
L 515.371146 83.534562 
L 472.761483 114.12043 
L 497.694556 53.084187 
L 436.313221 78.288647 
L 442.948181 61.132774 
L 391.1624 64.536395 
L 362.608057 38.489602 
L 356.676827 24.682238 
L 288.145032 10.878697 
L 270.157959 38.378288 
L 286.576901 113.447891 
L 329.815104 134.191453 
L 309.484052 129.40511 
L 261.646593 147.113466 
L 197.268778 135.648878 
L 164.522042 127.940972 
L 221.234225 130.819049 
L 235.770496 116.062743 
L 194.281965 138.645998 
L 116.251726 116.151532 
L 114.279508 100.723599 
L 64.013081 129.490612 
L 105.724369 126.489666 
L 55.778751 102.749856 
L 66.2592 151.647876 
L 98.21277 68.096947 
L 88.988515 93.529692 
L 40.685064 111.311756 
L 69.408347 149.253023 
L 68.976311 146.693295 
L 52.446644 90.559708 
L 30.66148 118.342721 
L 43.335426 112.48392 
L 48.627246 93.281866 
L 65.747245 79.641001 
L 73.6143 128.099506 
L 93.58455 99.893152 
L 91.492107 30.266982 
L 81.357582 46.5725 
L 73.874873 69.443674 
L 99.314203 55.386689 
L 76.092753 19.380445 
L 35.877025 56.870447 
L 46.118344 52.184022 
L 68.587267 51.494809 
L 99.441221 57.269871 
L 96.600042 48.374122 
L 72.68184 31.727072 
L 62.88148 52.827386 
L 161.080244 87.6678 
L 183.873772 76.100653 
L 147.518614 84.741716 
L 172.123462 138.96727 
L 114.665681 113.592 
L 113.967853 136.723637 
L 63.916713 149.940259 
L 59.07452 91.483011 
L 74.231791 21.264754 
L 58.77124 50.437139 
L 100.003322 104.08066 
L 104.084619 52.521022 
L 103.306575 14.29606 
L 64.933049 57.503895 
L 127.330576 24.673914 
L 50.65159 32.458634 
L 59.413916 97.423624 
L 118.182485 95.968376 
L 131.545602 143.717163 
L 138.385695 144.444163 
L 111.309089 149.2768 
L 176.415582 93.440125 
L 145.857086 120.603777 
L 155.628428 75.293542 
L 158.279187 111.923635 
L 162.498014 77.876522 
L 207.703274 39.883636 
L 198.338184 78.903537 
L 246.026873 70.479645 
L 213.110046 47.069579 
L 208.155051 27.541531 
L 155.773067 35.709788 
L 231.040429 12.227834 
L 305.615836 14.620276 
L 395.618461 38.597212 
L 428.715801 16.824003 
L 405.022896 20.66277 
L 442.664557 30.768459 
L 525.30088 45.590235 
L 463.248256 143.48425 
L 475.141601 149.209966 
L 481.122564 147.972905 
L 463.436447 111.719426 
L 475.880811 108.501629 
L 509.354129 130.286385 
L 535.16838 127.099765 
L 494.294709 118.910966 
L 495.144555 55.936715 
L 492.200237 33.385426 
L 463.889187 85.000967 
L 445.993097 82.668436 
L 461.995702 39.648895 
L 495.66922 57.474078 
L 516.287443 110.514981 
L 550.24872 49.088207 
L 552.546758 79.675457 
L 523.20022 24.263669 
L 516.703693 16.818026 
L 552.091718 66.297426 
L 512.831591 24.648018 
L 538.668158 34.827461 
L 490.582393 24.814977 
L 540.584687 56.42683 
L 523.464107 74.727564 
L 484.729018 99.656754 
L 443.261979 34.298107 
L 445.514067 12.178033 
L 449.461124 12.890887 
L 503.614149 87.757258 
L 523.05379 97.718146 
L 542.138211 57.41056 
L 536.990511 83.936511 
L 532.593827 79.096005 
L 526.145317 109.517439 
L 464.593256 152.461617 
L 468.565283 128.334485 
L 418.424554 154.149395 
L 420.711746 57.584661 
L 462.175556 94.423879 
L 472.007767 67.952175 
L 525.307248 73.261264 
L 530.884086 37.271554 
L 485.432559 55.457179 
L 463.061471 60.245832 
L 494.979849 93.528574 
L 493.978273 125.113616 
L 461.760553 97.631893 
L 476.948196 74.090575 
L 398.458125 78.235862 
L 377.255016 119.295861 
L 342.053924 135.635105 
L 243.346863 112.605142 
L 306.162754 43.744804 
L 303.753013 110.916085 
L 226.197552 106.15703 
L 228.17586 88.525497 
L 225.724967 150.193599 
L 258.390568 135.381934 
L 303.394582 124.530703 
L 254.173164 142.514366 
L 262.995169 150.215772 
L 284.488713 95.590241 
L 268.115723 113.304619 
L 279.519201 124.125151 
L 311.850222 102.423746 
L 307.146264 46.545565 
L 259.439653 69.129838 
L 275.245455 38.403496 
L 296.471711 67.689486 
L 283.045039 84.700303 
L 252.402264 60.320441 
L 288.235785 16.506258 
L 332.384788 29.104636 
L 353.11137 30.631582 
L 305.538206 71.966912 
L 299.438932 104.309519 
L 289.094722 21.73829 
L 288.000555 55.175886 
L 320.337226 31.607278 
L 308.301954 7.326351 
L 292.235306 25.033384 
L 303.11162 26.944967 
L 285.887742 48.821514 
L 352.187983 8.732616 
L 367.40024 35.945557 
L 313.00648 51.060924 
L 328.931023 81.893255 
L 306.301581 47.590018 
L 303.31661 34.921861 
L 283.506587 69.252537 
L 281.493144 107.420178 
L 250.879352 117.173167 
L 159.867195 157.905945 
L 236.201311 118.916833 
L 253.315809 98.438464 
L 301.452956 92.538473 
L 301.273122 136.003134 
L 362.472375 111.891366 
L 338.539086 111.989581 
L 371.106622 149.125207 
L 360.688519 119.103732 
L 415.419317 121.609837 
L 351.411936 79.782637 
L 334.353427 97.127864 
L 310.465218 113.887308 
L 258.30665 161.758437 
L 305.221327 112.952404 
L 270.742603 134.915993 
L 264.334462 117.770806 
L 240.869587 149.768101 
L 237.195091 130.208343 
L 186.935746 118.375567 
L 208.264302 102.324401 
L 236.540516 112.6055 
L 191.793529 131.804659 
L 169.397728 121.039222 
L 114.982481 49.076536 
L 109.983159 17.292603 
L 120.889254 31.488235 
L 127.221647 34.847565 
L 89.311429 65.135692 
L 138.037927 59.897881 
L 163.927991 162.604948 
L 100.411389 121.140438 
L 38.486739 92.87243 
L 110.158048 62.563875 
L 54.004853 97.995541 
L 136.322737 105.756227 
L 156.997109 91.85443 
L 100.108425 36.564185 
L 46.957418 113.291682 
L 72.699601 60.752154 
L 93.271424 51.764876 
L 92.145979 19.825608 
L 134.871679 47.74714 
L 142.774035 80.20347 
L 119.282058 89.431656 
L 115.264164 69.117712 
L 130.05995 28.564684 
L 174.173241 41.93922 
L 161.475825 69.138825 
L 126.694026 89.165982 
L 114.219968 100.441971 
L 70.980251 115.18162 
L 63.212403 129.512186 
L 96.404557 90.950953 
L 159.982579 61.550271 
L 103.992733 30.70838 
L 138.531209 58.24236 
L 104.994744 35.540259 
L 74.531365 50.369183 
L 46.529951 34.719786 
L 33.76611 82.768924 
L 23.968533 107.978647 
L 41.057685 146.26565 
L 83.724566 57.033396 
L 104.14114 38.299616 
L 121.72865 39.5152 
L 51.318952 34.171075 
L 110.589138 58.727086 
L 157.45193 62.347096 
L 175.673562 29.294607 
L 198.727791 14.054353 
L 215.078002 71.398002 
L 175.106875 115.053406 
L 196.0347 106.850955 
L 246.9444 119.154809 
L 323.578406 71.67119 
L 329.364156 107.717123 
L 330.083257 120.77339 
L 324.950775 87.30966 
L 267.763663 104.33201 
L 351.076951 115.905918 
L 348.673997 148.166066 
L 306.346131 157.947779 
L 327.366717 109.405924 
L 322.677262 146.980955 
L 338.201749 137.282581 
L 308.975498 72.815178 
L 320.054599 51.223926 
L 336.991658 65.140084 
L 341.330081 78.324392 
L 366.482284 76.757108 
L 406.716082 49.808274 
L 409.954098 39.820448 
L 381.718775 10.407089 
L 347.000541 47.727773 
L 234.434281 43.910573 
L 276.594448 53.717575 
L 317.557388 119.451304 
L 334.003057 114.554086 
L 361.908511 39.922053 
L 347.465922 42.395538 
L 362.15377 47.574148 
L 316.721851 77.248885 
L 314.051636 72.095069 
L 348.52376 132.296399 
L 362.056755 116.969196 
L 366.00053 111.044443 
L 362.009149 97.50321 
L 344.477171 128.936985 
L 432.828998 104.397941 
L 513.836494 88.553934 
L 527.023649 37.193663 
L 485.328982 23.736588 
L 530.53405 89.490441 
L 530.743977 132.212964 
L 504.962328 135.265533 
L 477.292089 110.765083 
L 507.926319 103.812214 
L 512.5257 142.24368 
L 490.649516 158.921527 
L 441.068328 142.993511 
L 478.056332 154.079599 
L 459.817118 136.160006 
L 434.846409 151.602446 
L 429.948603 141.678898 
L 442.80608 127.305695 
L 402.421212 139.34678 
L 439.946312 146.828559 
L 521.697698 129.041105 
L 515.205125 82.726263 
L 511.594236 148.997322 
L 523.440549 141.190644 
L 518.946415 122.212685 
L 514.207294 103.987925 
L 524.383509 111.400625 
L 502.971761 123.310034 
L 490.997379 123.532845 
L 510.663344 98.840692 
L 537.65172 104.296342 
L 503.610695 59.395891 
L 537.664247 104.527737 
L 479.879828 120.165194 
L 511.855283 160.247598 
L 511.855283 160.247598 
" style="fill:none;opacity:0.7;stroke:#4daf4a;stroke-linecap:square;"/>
   </g>
   <g id="line2d_3">
    <path clip-path="url(#p530c673078)" d="M 456.935718 170.92596 
L 456.935718 1.692336 
" style="fill:none;stroke:#000000;stroke-dasharray:6.000000,6.000000;stroke-dashoffset:0.0;stroke-width:2.0;"/>
   </g>
   <g id="line2d_4">
    <path clip-path="url(#p530c673078)" d="M 119.064282 170.92596 
L 119.064282 1.692336 
" style="fill:none;stroke:#000000;stroke-dasharray:6.000000,6.000000;stroke-dashoffset:0.0;stroke-width:2.0;"/>
   </g>
   <g id="line2d_5">
    <path clip-path="url(#p530c673078)" d="M 495.018384 152.945178 
L 481.819983 127.749337 
L 491.861348 127.931499 
L 483.342514 116.087241 
L 517.174669 119.699453 
L 516.877645 135.457239 
L 505.534879 135.450973 
L 493.508697 129.98502 
L 491.894115 142.516423 
L 469.853134 147.04144 
L 481.040878 138.244623 
L 481.040878 138.244623 
L 481.040878 138.244623 
L 462.997734 152.524603 
L 457.435282 135.057199 
L 507.114069 138.753933 
L 523.000605 146.178473 
L 516.47354 112.319207 
L 518.018831 111.220475 
L 508.566484 115.175604 
L 512.599684 75.102529 
L 488.095568 81.603578 
L 490.371631 52.745861 
L 495.677148 55.835479 
L 511.139537 33.074327 
L 525.511417 52.835716 
L 507.595554 48.785289 
L 478.604541 27.494871 
L 521.844286 94.322738 
L 536.13889 92.824966 
L 516.176041 89.46369 
L 485.021365 101.491198 
L 485.493541 101.949845 
L 501.161823 112.229006 
L 477.738406 124.428228 
L 480.431804 128.327267 
L 487.373912 127.043764 
L 492.012817 119.747199 
L 464.925262 117.257344 
L 484.592423 91.916352 
L 467.220892 107.760381 
L 468.780231 111.253482 
L 461.30351 72.056172 
L 472.466955 83.169595 
L 455.784533 69.563438 
L 465.270856 103.329266 
L 472.842037 97.967033 
L 486.194404 108.318234 
L 486.912275 133.573894 
L 460.247318 139.659764 
L 463.736416 146.79645 
L 482.400234 161.282189 
L 475.956778 154.090023 
L 468.787301 144.733095 
L 398.622646 121.861366 
L 389.242096 102.677411 
L 414.767248 99.821849 
L 413.811375 119.401872 
L 440.264707 100.691328 
L 430.559451 80.922583 
L 433.998274 63.787325 
L 421.137782 34.242287 
L 419.258271 28.12597 
L 431.692042 40.476346 
L 434.66629 46.387499 
L 438.982867 78.966505 
L 418.035578 74.396568 
L 405.094039 80.458623 
L 408.573665 72.822583 
L 387.833163 74.445795 
L 383.853151 86.831795 
L 392.279907 72.620378 
L 396.315554 96.089612 
L 394.015341 77.836182 
L 391.317863 87.549162 
L 396.504719 141.628384 
L 402.786912 133.230686 
L 394.314383 108.568956 
L 417.592372 104.431447 
L 456.588722 110.087313 
L 440.861876 125.547421 
L 464.688371 119.438873 
L 462.774761 105.253296 
L 451.704299 123.373242 
L 432.947116 130.810942 
L 439.018679 108.230448 
L 436.918453 117.427174 
L 438.888358 105.887245 
L 452.191715 99.2967 
L 473.872649 76.632665 
L 434.325551 60.081834 
L 442.536246 81.826647 
L 472.008872 97.102291 
L 512.972646 103.669744 
L 508.56678 84.651981 
L 525.880977 79.23339 
L 523.166413 108.277939 
L 504.446009 104.397764 
L 518.579537 112.907512 
L 524.380947 128.311603 
L 531.410293 134.006393 
L 539.403895 130.988804 
L 537.580455 108.553074 
L 524.259299 99.269023 
L 523.538479 140.041339 
L 530.840437 131.427356 
L 515.340654 137.922415 
L 467.274101 108.647562 
L 487.193911 107.668681 
L 512.381041 106.285632 
L 517.731155 116.276676 
L 520.641178 100.866414 
L 552.875928 112.906224 
L 542.027976 109.247493 
L 533.361889 123.39807 
L 528.363835 140.714933 
L 531.233337 90.141381 
L 533.754499 107.618213 
L 551.619747 97.621052 
L 552.507029 70.853497 
L 547.788614 92.258568 
L 560.709303 73.228242 
L 531.634073 51.609456 
L 538.717286 80.576752 
L 543.315271 81.032787 
L 524.393858 74.638654 
L 521.246531 96.680795 
L 544.961912 102.133448 
L 557.473709 85.58262 
L 556.047072 75.277836 
L 538.538058 79.347204 
L 552.831628 105.677919 
L 551.640682 94.996907 
L 553.556378 108.286554 
L 558.910608 81.80447 
L 556.179962 69.623386 
L 544.135826 90.575165 
L 537.924215 108.934179 
L 551.016769 117.357752 
L 539.310306 95.12922 
L 536.463554 98.955029 
L 541.521479 116.92504 
L 515.275045 98.627656 
L 474.826265 76.980354 
L 489.042273 74.55418 
L 481.167454 83.505168 
L 498.416854 118.504359 
L 467.494852 131.842933 
L 448.541756 137.360915 
L 485.062438 128.2778 
L 461.55162 134.801774 
L 486.988066 152.574136 
L 489.236684 97.274226 
L 490.240188 117.830452 
L 498.640741 109.86445 
L 503.646568 96.947244 
L 533.980593 63.019042 
L 541.938251 69.401666 
L 550.266176 71.087724 
L 517.311464 86.38969 
L 553.426711 96.100816 
L 550.882201 82.9397 
L 554.838334 79.182579 
L 542.377315 55.913143 
L 555.18346 81.451724 
L 556.215221 105.575242 
L 557.1525 86.91738 
L 533.086382 95.905697 
L 512.014629 66.794683 
L 530.8513 85.069212 
L 510.766508 70.471254 
L 506.838209 100.187457 
L 530.013246 133.544351 
L 537.955555 115.735385 
L 526.692323 116.303732 
L 533.387575 134.684866 
L 515.910676 135.575092 
L 518.242701 131.629093 
L 527.530604 139.86648 
L 503.924396 133.213855 
L 512.479257 117.623544 
L 504.789065 90.693794 
L 492.80497 103.707392 
L 477.65651 118.648588 
L 469.222148 101.912066 
L 463.855574 88.625082 
L 424.417554 74.899443 
L 396.536769 91.581947 
L 408.402112 56.502412 
L 387.20191 34.677041 
L 403.838534 24.565381 
L 396.950086 24.092201 
L 382.361639 24.761034 
L 367.210595 38.212788 
L 374.124081 48.523548 
L 362.320466 80.274883 
L 391.860866 90.152194 
L 371.71995 73.697541 
L 388.573419 68.504665 
L 406.499126 51.809302 
L 416.369676 78.626054 
L 408.339217 95.317172 
L 411.868096 109.522659 
L 410.618877 137.947115 
L 411.409008 132.647551 
L 425.969241 155.249467 
L 400.338858 134.705469 
L 417.759875 146.727846 
L 413.234169 132.635101 
L 402.841674 116.470736 
L 398.27545 72.124532 
L 414.940622 66.259921 
L 389.190618 85.871229 
L 375.361753 67.581344 
L 374.059204 49.608353 
L 354.530357 48.083156 
L 354.117904 46.246878 
L 370.808243 56.386465 
L 377.304355 23.170112 
L 346.424625 32.96439 
L 342.057419 22.468063 
L 358.402985 45.73622 
L 376.009257 37.202991 
L 372.988558 63.732342 
L 363.64067 59.869651 
L 380.150479 26.881214 
L 414.773313 46.623068 
L 414.50976 31.233487 
L 398.380102 52.104857 
L 404.948705 68.37019 
L 384.694976 88.786065 
L 340.127271 97.733514 
L 334.964065 102.106604 
L 371.148629 75.398415 
L 407.400047 113.376984 
L 398.728542 103.975808 
L 362.58136 92.133131 
L 378.776364 96.156934 
L 385.273122 95.470682 
L 423.587229 108.595442 
L 405.578275 114.016429 
L 397.186563 143.903217 
L 423.325711 149.286184 
L 460.81286 138.939101 
L 485.904305 141.35219 
L 475.124435 113.857302 
L 478.531047 116.256482 
L 488.537959 101.083362 
L 478.473122 129.226328 
L 480.616291 126.336228 
L 509.456518 138.080224 
L 501.613643 113.659557 
L 488.358483 100.984852 
L 483.121866 135.007278 
L 507.326795 146.92373 
L 515.950094 142.189487 
L 497.6216 96.720896 
L 487.948736 89.35667 
L 521.66854 62.401114 
L 530.975726 58.297871 
L 498.816542 47.326443 
L 512.777045 62.579921 
L 530.699974 52.446606 
L 516.276256 29.147216 
L 490.233694 19.499562 
L 477.210127 10.039046 
L 483.233044 14.27843 
L 474.96652 26.712345 
L 503.494408 42.12523 
L 485.038093 45.303794 
L 475.53828 32.292703 
L 502.64633 36.408388 
L 504.773109 68.349819 
L 488.863762 51.081265 
L 484.820465 33.721278 
L 512.890359 27.520146 
L 527.377355 45.262257 
L 527.601331 55.339114 
L 519.077842 51.376737 
L 541.85866 74.972717 
L 544.820145 98.700233 
L 536.558577 70.648477 
L 520.890787 89.434849 
L 525.941362 75.04731 
L 535.451102 89.608238 
L 539.753018 86.760826 
L 558.54246 97.56426 
L 552.169226 82.911584 
L 541.186554 63.937363 
L 541.394735 53.890332 
L 540.304795 46.681273 
L 552.688207 68.992759 
L 552.27999 105.288743 
L 536.216018 122.710345 
L 539.267366 112.854558 
L 523.065651 90.651034 
L 531.471555 74.748536 
L 527.588818 86.893945 
L 533.134818 70.850357 
L 532.594588 81.231561 
L 522.571106 68.730662 
L 482.664302 53.527251 
L 486.752049 56.900372 
L 481.847245 51.1914 
L 490.547065 44.642048 
L 477.278202 72.734592 
L 499.596317 112.014363 
L 471.784909 133.208193 
L 454.64055 129.359589 
L 474.444041 106.518238 
L 459.969064 99.675764 
L 448.389422 82.371377 
L 437.210984 72.476821 
L 437.086041 77.143019 
L 451.396613 75.8948 
L 456.63845 76.101538 
L 473.328979 79.619604 
L 474.445109 53.449921 
L 507.777493 44.024449 
L 492.487243 19.04974 
L 501.538142 42.852032 
L 489.199193 36.36219 
L 505.225915 19.072676 
L 500.406549 45.612443 
L 515.912631 48.899884 
L 527.65457 60.093891 
L 508.279918 82.532724 
L 498.525731 51.077827 
L 532.193211 28.136904 
L 528.870859 44.579857 
L 527.775186 33.937258 
L 530.269447 49.607357 
L 546.259285 48.999613 
L 533.568231 95.700179 
L 552.902788 113.913844 
L 535.879112 86.140597 
L 542.245017 61.281279 
L 552.810586 68.277272 
L 554.752196 87.982059 
L 556.308025 84.9136 
L 535.937022 101.218141 
L 542.462292 118.618612 
L 547.192437 105.726085 
L 533.643966 124.922242 
L 529.675465 110.098384 
L 514.278225 107.04288 
L 489.005773 136.944208 
L 490.763593 145.118733 
L 504.272518 148.868392 
L 503.67125 125.188203 
L 530.610776 116.949735 
L 540.57814 122.57046 
L 525.472759 85.348472 
L 510.598489 92.548103 
L 475.175762 122.964779 
L 501.958005 61.443462 
L 465.801404 62.762213 
L 465.605404 46.178419 
L 464.216317 24.393109 
L 464.115743 40.016803 
L 469.857244 43.717471 
L 473.440893 35.39765 
L 477.321506 35.716777 
L 495.557819 31.453766 
L 498.308787 44.764099 
L 482.778798 42.330003 
L 483.910787 51.884157 
L 485.221907 41.973927 
L 445.931526 55.438228 
L 395.988643 79.812138 
L 383.023935 51.492408 
L 385.418218 61.516751 
L 423.095664 92.749988 
L 438.699045 104.565206 
L 421.681159 98.107612 
L 447.410848 93.185609 
L 418.910134 102.47366 
L 407.336014 83.58862 
L 399.56165 68.713446 
L 384.776116 52.652466 
L 383.845793 57.727898 
L 403.864245 71.48312 
L 419.375811 38.798606 
L 427.382723 18.563378 
L 423.147694 16.224548 
L 456.106315 21.782055 
L 423.789905 18.750757 
L 390.707384 29.857507 
L 359.169624 70.148994 
L 356.324789 51.811403 
L 355.614337 35.87657 
L 391.091858 28.586358 
L 351.745226 54.410964 
L 333.29721 47.344733 
L 351.39035 37.167366 
L 329.78496 36.176105 
L 340.098003 61.721365 
L 355.715764 39.64369 
L 369.809068 52.365587 
L 386.851781 77.030016 
L 395.031708 79.353913 
L 394.173394 94.034746 
L 368.570607 97.71311 
L 364.267629 98.489091 
L 352.717453 62.325299 
L 341.995989 76.385111 
L 319.20694 101.947574 
L 338.544889 39.764924 
L 317.883736 32.813961 
L 315.176816 51.452208 
L 335.728298 35.097189 
L 306.507216 49.647798 
L 300.355582 39.942918 
L 310.365122 67.504512 
L 290.867386 76.105923 
L 286.051773 85.907657 
L 299.302231 84.991523 
L 310.167031 95.864099 
L 302.583474 99.992131 
L 277.152957 122.303117 
L 275.727621 86.61542 
L 242.94052 92.098799 
L 251.429201 95.218625 
L 258.21496 103.344655 
L 249.552311 111.524661 
L 231.373487 137.913814 
L 208.21598 114.257541 
L 199.324853 133.970739 
L 187.317417 135.079631 
L 166.145564 134.330087 
L 120.191918 120.314201 
L 104.724065 107.329767 
L 106.597379 72.096417 
L 81.697039 89.194907 
L 77.133801 67.582133 
L 77.831732 47.232333 
L 82.834418 60.768659 
L 103.376433 53.523894 
L 94.577677 52.046582 
L 107.683261 51.583178 
L 118.073803 66.330055 
L 93.192609 53.799179 
L 62.590639 71.80534 
L 48.441155 72.332947 
L 51.604135 51.229443 
L 44.094253 53.438335 
L 27.640973 57.833123 
L 16.283671 83.007596 
L 50.923405 60.439455 
L 54.241141 29.919552 
L 66.473191 20.157699 
L 88.688854 53.305764 
L 96.003608 49.908713 
L 112.135189 63.95099 
L 120.110319 87.565441 
L 104.648095 90.473864 
L 109.590243 91.56919 
L 91.83815 72.825757 
L 74.309961 70.105463 
L 37.668241 73.859209 
L 61.786372 49.361391 
L 94.020432 61.99899 
L 99.755164 70.954834 
L 85.005559 65.121627 
L 88.354293 41.426821 
L 67.929115 69.746754 
L 50.471153 104.327422 
L 49.357225 127.979693 
L 55.240423 133.661234 
L 34.601088 134.858075 
L 38.106981 118.504149 
L 43.690528 132.004604 
L 55.632487 141.644241 
L 73.912889 118.021587 
L 53.067052 122.520381 
L 38.857451 116.33421 
L 31.440973 85.509889 
L 32.144946 54.743142 
L 28.830027 51.308578 
L 60.153145 72.993396 
L 35.420172 105.138154 
L 64.105107 109.923435 
L 57.183586 105.080537 
L 37.400774 104.953622 
L 88.859293 130.667326 
L 97.001878 112.670368 
L 78.823521 97.358716 
L 52.772139 107.167073 
L 48.208928 117.812322 
L 88.506004 95.32931 
L 102.300536 106.483696 
L 101.54208 98.498852 
L 97.943638 136.971519 
L 115.147556 161.769838 
L 90.10674 149.975202 
L 92.818289 134.695687 
L 100.764841 156.997102 
L 132.082207 145.865635 
L 122.544805 147.598001 
L 111.183654 132.667756 
L 100.629026 124.761444 
L 110.328116 135.380394 
L 110.097556 112.230963 
L 80.087639 131.574014 
L 86.919897 107.82392 
L 57.666488 130.49202 
L 48.487086 137.208795 
L 60.879272 112.959872 
L 32.285455 128.439503 
L 58.142136 114.100191 
L 74.663728 112.616682 
L 63.321154 82.587985 
L 74.270811 81.171805 
L 62.351051 53.363126 
L 86.411523 77.125468 
L 71.583017 57.492111 
L 68.607263 40.405839 
L 63.149778 18.528472 
L 88.780896 49.669483 
L 82.239668 49.270061 
L 76.198181 53.813257 
L 37.980047 47.054953 
L 58.209298 71.404528 
L 86.860967 56.805783 
L 57.358938 76.114602 
L 48.460646 67.626271 
L 57.887372 57.489569 
L 81.386971 57.866996 
L 91.031203 61.881855 
L 117.819967 43.532519 
L 112.672584 28.460894 
L 107.021338 84.36325 
L 81.72391 85.557102 
L 62.002348 69.448711 
L 38.117458 67.307832 
L 49.297369 61.369324 
L 33.746487 61.374967 
L 27.195272 62.853846 
L 37.140822 74.522209 
L 27.895343 69.922381 
L 15.505328 83.149501 
L 25.416539 85.912386 
L 47.786572 124.597442 
L 46.529546 133.423832 
L 62.486805 115.848878 
L 55.591 105.086706 
L 42.303609 63.117667 
L 40.59129 78.444415 
L 50.99017 79.760665 
L 47.636145 94.098265 
L 52.232802 99.834448 
L 77.366056 96.517085 
L 66.427307 94.705396 
L 66.825463 87.193627 
L 73.827157 91.916 
L 80.659812 106.490409 
L 67.187643 112.318673 
L 55.225084 99.378137 
L 44.552883 74.179697 
L 68.906063 34.024528 
L 75.678889 40.0978 
L 58.815664 31.198684 
L 55.779464 25.11881 
L 65.98759 62.201919 
L 63.436925 56.139851 
L 80.40555 77.160733 
L 62.108484 67.600186 
L 89.744281 54.555646 
L 104.756953 41.234643 
L 105.180698 44.567617 
L 79.186637 31.882022 
L 57.619504 37.267754 
L 44.725594 28.531021 
L 57.109643 23.185628 
L 25.144311 47.038323 
L 28.082152 67.334035 
L 25.942692 77.885655 
L 28.080456 63.071108 
L 30.392953 59.912112 
L 45.349193 66.835448 
L 43.261262 111.433477 
L 66.76554 124.969771 
L 88.36252 110.346572 
L 65.965095 105.367485 
L 72.39001 89.575177 
L 81.529617 68.911919 
L 87.043379 107.599028 
L 115.641087 116.785843 
L 103.296574 98.714006 
L 98.686278 65.509032 
L 73.243872 69.661748 
L 66.686913 88.315773 
L 65.217177 98.687269 
L 51.717158 98.94518 
L 45.406729 120.443108 
L 62.455134 146.855007 
L 48.581577 141.032188 
L 31.432633 131.66967 
L 69.552493 128.292348 
L 86.125227 96.688384 
L 97.957175 86.562936 
L 126.096 83.916447 
L 98.971431 76.896688 
L 86.401586 79.894371 
L 96.673298 76.277702 
L 96.14866 59.339785 
L 85.452489 68.10995 
L 64.220095 45.775528 
L 48.813668 59.266084 
L 63.101738 77.240467 
L 62.837423 47.011847 
L 72.071723 38.959069 
L 102.304773 42.390037 
L 110.399836 52.63581 
L 132.037159 62.877978 
L 83.871106 87.689029 
L 82.302318 72.278335 
L 75.572343 63.662229 
L 59.8188 69.666519 
L 53.892406 59.832906 
L 51.670081 76.465478 
L 60.617503 86.959993 
L 54.502047 85.75338 
L 33.640907 68.543713 
L 39.099874 71.089609 
L 62.580096 100.149663 
L 42.036547 78.242133 
L 34.012029 95.824335 
L 36.365003 108.017759 
L 53.302944 120.889772 
L 42.313615 116.857097 
L 29.322126 111.348347 
L 43.213979 93.957308 
L 27.798959 63.942565 
L 45.735736 90.342768 
L 66.504457 62.175256 
L 70.557523 39.599153 
L 71.003137 95.824679 
L 69.01684 122.663355 
L 70.849237 100.274403 
L 52.659162 104.681826 
L 70.249959 101.0508 
L 23.71178 115.260795 
L 50.97884 133.314321 
L 28.286247 123.514857 
L 43.677609 120.657796 
L 32.861422 80.389373 
L 59.661296 80.632184 
L 56.099684 77.365889 
L 69.002729 75.517199 
L 77.864999 45.545851 
L 79.263317 33.725028 
L 85.535688 57.841274 
L 51.776169 54.164308 
L 49.147866 55.165301 
L 47.224401 50.340544 
L 24.625303 71.660014 
L 33.476586 79.262839 
L 24.673849 79.460144 
L 25.983822 90.417613 
L 26.579128 77.026081 
L 34.686727 48.783446 
L 26.458824 58.449485 
L 36.951921 62.624668 
L 20.427611 56.985318 
L 17.407516 72.466767 
L 39.850152 72.223143 
L 55.958481 39.914225 
L 61.021882 60.182172 
L 65.26636 46.447292 
L 42.223577 35.378581 
L 73.118471 20.405784 
L 69.081411 38.398429 
L 72.932613 57.30277 
L 95.05262 17.052444 
L 81.628407 43.559926 
L 71.540815 17.232737 
L 77.720844 48.037979 
L 85.468242 20.902634 
L 89.014327 38.466182 
L 66.651256 29.054285 
L 83.599571 27.50467 
L 66.224717 23.903459 
L 52.992382 30.137172 
L 49.839178 61.659326 
L 53.890343 72.362117 
L 59.435653 75.900565 
L 49.519268 84.636217 
L 41.275493 88.78144 
L 61.003735 80.982802 
L 28.897789 84.004675 
L 43.870495 55.186318 
L 83.314509 43.8906 
L 57.94507 39.751053 
L 87.148386 20.240343 
L 84.008447 24.753836 
L 86.954125 46.271931 
L 109.820968 24.083119 
L 88.542205 27.548586 
L 110.384446 41.134764 
L 123.357183 42.683502 
L 116.204653 49.535149 
L 97.925824 73.687104 
L 76.813525 117.639858 
L 42.898862 140.267184 
L 24.928243 109.413425 
L 28.815335 90.319399 
L 38.658323 86.597235 
L 50.458811 86.302025 
L 42.759886 79.174845 
L 65.865248 113.671476 
L 61.269838 99.944471 
L 46.854311 52.405141 
L 32.459185 45.521466 
L 39.165013 77.142359 
L 55.446499 80.008091 
L 77.227654 106.423699 
L 79.223876 86.067118 
L 77.077797 75.701066 
L 74.009367 88.014413 
L 70.722354 95.508525 
L 32.20324 93.219771 
L 19.552381 62.456178 
L 47.371543 84.621033 
L 86.078599 36.531645 
L 94.516044 47.017068 
L 97.391891 47.89881 
L 92.252971 15.113376 
L 81.465162 21.241784 
L 64.76963 32.285238 
L 61.063372 17.916993 
L 35.037299 63.755427 
L 17.997481 78.579971 
L 41.379664 55.369812 
L 57.014064 69.540301 
L 89.134112 61.158431 
L 86.027454 59.817879 
L 79.246369 67.770679 
L 70.627019 31.163706 
L 71.139912 37.983771 
L 75.120649 53.003715 
L 68.666371 70.760715 
L 82.3293 36.632572 
L 78.704522 43.748769 
L 79.503878 50.564404 
L 57.749892 38.323796 
L 46.913411 35.485625 
L 70.206771 35.929066 
L 75.154193 39.807283 
L 106.589153 41.061816 
L 112.643286 14.801571 
L 100.598444 28.443147 
L 70.921975 25.516291 
L 62.534698 40.003983 
L 66.583442 52.938554 
L 88.333012 51.448839 
L 98.784521 61.474466 
L 92.314402 104.340702 
L 68.691932 112.800871 
L 49.592298 130.038711 
L 77.753357 133.876817 
L 82.764424 135.190479 
L 66.910745 122.874002 
L 75.480331 117.905994 
L 88.565894 119.106134 
L 64.290077 110.068201 
L 78.881935 97.825993 
L 74.876957 75.745934 
L 68.221196 70.473662 
L 89.132517 31.928944 
L 64.600521 29.609506 
L 55.306664 69.464063 
L 74.953903 25.575218 
L 70.735863 57.341157 
L 63.969851 86.792852 
L 56.508134 108.755153 
L 42.630793 60.122702 
L 50.686385 72.277124 
L 61.0392 71.107393 
L 56.783551 93.011177 
L 81.423829 101.987927 
L 92.965963 96.935196 
L 108.014 69.717335 
L 138.74206 108.457648 
L 123.089286 107.651215 
L 123.605095 117.867085 
L 132.952432 113.461768 
L 144.414948 106.267139 
L 161.459641 137.156779 
L 165.791898 146.37291 
L 167.04714 128.299889 
L 163.120529 135.013032 
L 137.628928 125.349871 
L 104.653077 151.967318 
L 120.309094 150.925198 
L 140.018347 128.609279 
L 156.914527 151.834264 
L 186.653564 139.1644 
L 184.46455 145.937176 
L 176.050095 161.629793 
L 179.289322 101.712629 
L 182.828568 75.148341 
L 188.107537 70.721781 
L 163.37872 58.615404 
L 168.725395 64.038899 
L 186.727211 69.387812 
L 175.645208 67.866035 
L 162.806239 65.594915 
L 158.660426 90.811491 
L 187.058269 103.112165 
L 173.594638 106.666098 
L 175.29606 106.259672 
L 207.052088 104.324417 
L 182.859739 88.939622 
L 139.605434 72.115912 
L 126.106414 52.317065 
L 125.852448 56.709175 
L 156.8624 55.533975 
L 176.196472 79.63153 
L 154.758854 57.04118 
L 128.397276 56.685467 
L 137.220908 57.210808 
L 158.73529 78.861414 
L 142.084909 77.979283 
L 158.230678 44.662369 
L 166.127585 29.24309 
L 139.852098 20.478419 
L 141.723514 38.949009 
L 152.95177 51.355372 
L 132.240846 45.41887 
L 130.55503 30.797792 
L 138.856886 30.363296 
L 103.188361 29.442975 
L 119.993653 24.457238 
L 105.587661 19.09046 
L 95.470352 19.006461 
L 72.797528 43.460406 
L 64.550864 78.05942 
L 82.886012 97.377325 
L 75.161322 81.992454 
L 104.311542 49.65539 
L 98.071748 70.120277 
L 80.662234 73.931997 
L 80.875123 85.054288 
L 65.826943 100.744041 
L 61.413949 74.999362 
L 62.445306 86.833445 
L 54.336681 79.733949 
L 35.540461 86.760449 
L 64.264089 58.371166 
L 87.14991 52.74405 
L 105.120398 60.909013 
L 106.881115 51.149791 
L 114.560709 52.727015 
L 109.358928 71.463834 
L 129.899601 53.173022 
L 116.788408 62.805001 
L 136.572742 80.738279 
L 140.337866 77.227196 
L 155.675025 102.506087 
L 148.67573 94.990077 
L 125.441143 82.6954 
L 129.770973 57.830821 
L 91.736242 80.56399 
L 92.104347 64.802127 
L 106.309036 53.159299 
L 156.634109 38.869461 
L 180.17522 56.320252 
L 204.735391 36.219592 
L 215.975202 39.194926 
L 171.87048 13.062548 
L 157.326 17.588548 
L 137.379807 21.730703 
L 145.629746 44.869905 
L 133.416166 28.514365 
L 137.506209 51.251672 
L 161.264969 24.933827 
L 141.549892 25.387642 
L 146.30167 33.309686 
L 120.974161 29.856285 
L 164.693834 22.360635 
L 162.429287 37.406821 
L 177.867533 38.968598 
L 172.02233 48.395078 
L 149.58442 37.746333 
L 132.165233 33.880413 
L 181.591554 39.093738 
L 177.226501 60.165319 
L 168.765444 94.90558 
L 215.122768 75.267434 
L 203.43263 91.719724 
L 198.668658 74.394235 
L 230.8357 102.015809 
L 213.610013 114.822558 
L 258.705956 101.852525 
L 263.066971 81.032999 
L 252.601757 61.338709 
L 245.810588 82.867499 
L 217.282556 113.741508 
L 233.808771 122.57053 
L 252.355585 123.092176 
L 290.81497 120.190112 
L 269.452569 127.417775 
L 278.249497 144.066715 
L 256.53023 125.118774 
L 254.047806 128.610937 
L 254.458129 157.038526 
L 299.178178 140.276818 
L 288.34951 135.665245 
L 306.018375 154.347596 
L 301.028693 119.144797 
L 331.260787 115.105241 
L 320.490054 102.975773 
L 350.726153 119.255915 
L 380.164506 143.299261 
L 376.165379 150.952273 
L 375.29693 143.667182 
L 401.89975 133.509712 
L 383.47122 150.008823 
L 394.161396 156.097416 
L 373.342477 146.324361 
L 345.447246 152.291108 
L 352.011041 140.377045 
L 353.148996 147.291894 
L 364.561165 140.495753 
L 351.739137 152.244979 
L 341.759036 159.189626 
L 357.446542 153.30034 
L 344.928799 150.006017 
L 342.704252 127.61263 
L 337.803739 129.681197 
L 309.09964 136.37849 
L 295.991597 113.509797 
L 307.061683 105.99237 
L 307.392115 120.922645 
L 295.274426 130.814913 
L 293.89809 149.526124 
L 265.595872 157.677135 
L 253.176348 149.192303 
L 234.779152 148.74039 
L 231.03625 148.076965 
L 249.277913 128.124917 
L 261.930539 135.512289 
L 198.102264 133.067372 
L 206.930269 118.18447 
L 214.753713 115.176165 
L 214.791092 136.096551 
L 243.718056 128.055701 
L 239.255999 112.191648 
L 270.929726 115.972899 
L 252.848204 100.236604 
L 246.224627 129.70437 
L 275.411834 113.121653 
L 266.184467 145.098075 
L 304.724997 144.955623 
L 303.870335 147.64986 
L 303.097388 140.941042 
L 322.471675 131.445772 
L 306.994269 151.951955 
L 262.244028 142.19697 
L 260.474307 132.178565 
L 240.701325 139.003523 
L 214.178195 126.23983 
L 201.123624 129.444717 
L 203.234822 119.210589 
L 209.384301 113.585356 
L 187.703717 125.729483 
L 200.015207 99.699075 
L 217.307238 82.311557 
L 187.360507 104.959156 
L 214.93433 121.232737 
L 222.33545 142.034533 
L 226.971413 140.250481 
L 229.524595 119.73032 
L 250.339703 136.811918 
L 246.195318 149.079315 
L 240.656232 143.973677 
L 236.849478 125.392593 
L 232.37577 128.017069 
L 241.70669 88.600268 
L 237.18081 117.547779 
L 234.69217 119.273505 
L 229.92969 129.598539 
L 269.335046 120.942856 
L 269.739067 138.470645 
L 281.59643 135.011444 
L 311.834742 125.072053 
L 293.556727 139.536378 
L 324.76782 146.602124 
L 337.481895 146.857468 
L 324.958503 157.060998 
L 344.158738 144.884392 
L 330.650843 158.254141 
L 317.120738 144.285188 
L 320.170629 97.231999 
L 326.645485 126.062579 
L 331.136815 148.686856 
L 342.45295 159.823558 
L 348.391796 144.686551 
L 377.795067 156.324913 
L 377.795067 156.324913 
" style="fill:none;opacity:0.7;stroke:#984ea3;stroke-linecap:square;"/>
   </g>
   <g id="line2d_6">
    <path clip-path="url(#p530c673078)" d="M 456.935718 170.92596 
L 456.935718 1.692336 
" style="fill:none;stroke:#000000;stroke-dasharray:6.000000,6.000000;stroke-dashoffset:0.0;stroke-width:2.0;"/>
   </g>
   <g id="line2d_7">
    <path clip-path="url(#p530c673078)" d="M 119.064282 170.92596 
L 119.064282 1.692336 
" style="fill:none;stroke:#000000;stroke-dasharray:6.000000,6.000000;stroke-dashoffset:0.0;stroke-width:2.0;"/>
   </g>
   <g id="line2d_8">
    <path clip-path="url(#p530c673078)" d="M 534.829048 90.938571 
L 536.917164 91.801572 
L 510.854652 86.176464 
L 498.464246 90.273947 
L 502.784412 88.273638 
L 505.413438 94.386935 
L 494.125514 84.820344 
L 493.229878 74.118433 
L 502.200803 82.961454 
L 507.927116 103.78719 
L 514.530538 103.469651 
L 519.961983 106.19292 
L 509.006641 113.690378 
L 525.364027 116.849199 
L 533.072644 107.224671 
L 533.887682 106.757293 
L 531.519312 119.900208 
L 531.571527 123.867953 
L 537.43792 121.498508 
L 533.787119 109.050832 
L 528.599268 122.153126 
L 508.662225 120.732283 
L 492.738348 112.96202 
L 489.391972 105.682221 
L 483.108821 92.307039 
L 496.499921 94.023742 
L 517.998847 97.393988 
L 521.224078 93.015574 
L 513.399733 95.159994 
L 516.413206 96.465085 
L 516.973464 112.832989 
L 527.265121 99.72826 
L 531.976717 103.248044 
L 516.547647 121.530351 
L 511.238407 101.4225 
L 515.324253 101.603687 
L 509.343834 100.648413 
L 526.246517 108.313493 
L 527.611317 122.115761 
L 522.836231 121.611579 
L 513.614363 119.373892 
L 520.055361 117.763203 
L 512.908554 126.581172 
L 509.253266 119.885681 
L 501.681474 118.762106 
L 494.052955 106.654468 
L 516.963942 107.396814 
L 524.085283 121.534155 
L 509.937222 118.77036 
L 506.008777 109.025167 
L 494.834252 112.689604 
L 500.796094 118.852969 
L 507.485276 122.718947 
L 492.156611 128.41834 
L 500.568322 130.137413 
L 495.913848 112.624321 
L 488.753282 107.507682 
L 480.040896 110.582503 
L 476.26537 109.304979 
L 484.546337 104.562166 
L 488.72085 96.763822 
L 495.667169 102.421387 
L 487.617792 98.265455 
L 504.399774 101.795423 
L 491.785706 93.464182 
L 505.35488 95.097719 
L 497.615025 83.901309 
L 500.318321 83.144371 
L 493.775679 93.024704 
L 498.21214 76.085508 
L 494.454642 85.206865 
L 498.725153 80.100848 
L 501.36614 70.981615 
L 498.552203 78.878435 
L 501.036955 87.208482 
L 501.745776 92.545006 
L 499.73023 99.670161 
L 499.749657 103.213278 
L 510.522434 100.505719 
L 488.299934 103.355135 
L 471.104046 97.116369 
L 482.228812 113.669858 
L 474.253438 100.932911 
L 476.999203 95.852905 
L 482.713 97.56733 
L 495.34856 84.970061 
L 501.221623 90.109488 
L 505.466732 94.891667 
L 512.597312 105.251449 
L 510.418471 90.026355 
L 521.97368 103.726319 
L 504.700365 93.141577 
L 491.884122 92.876941 
L 493.61016 87.251963 
L 519.599564 91.656779 
L 506.481357 84.17734 
L 508.891977 85.13405 
L 516.387025 74.987023 
L 516.637135 86.007475 
L 507.260954 86.460364 
L 510.590654 87.665111 
L 507.375138 77.346228 
L 510.142082 68.686121 
L 515.726309 83.588147 
L 504.11525 88.390333 
L 503.458363 82.688181 
L 507.693873 93.655771 
L 505.262489 85.400807 
L 516.650901 89.419082 
L 529.494994 82.81128 
L 529.473409 75.86376 
L 538.789779 88.619644 
L 531.194694 72.426736 
L 526.847912 60.296666 
L 507.832632 61.844531 
L 524.35207 71.908926 
L 511.177538 78.115939 
L 513.115967 72.375803 
L 518.413789 84.246254 
L 511.068483 82.147137 
L 518.814472 80.630727 
L 529.698002 90.068958 
L 510.239823 80.683937 
L 517.293518 78.550659 
L 523.551498 83.708295 
L 520.701111 102.00068 
L 510.494562 94.169708 
L 523.77171 89.020043 
L 528.52113 85.882412 
L 533.22508 88.263632 
L 547.030007 86.874814 
L 538.633394 71.284042 
L 533.76104 81.5355 
L 538.801682 76.383452 
L 546.428556 94.811789 
L 539.798261 94.937361 
L 532.580409 83.882086 
L 521.075519 63.232614 
L 524.056935 63.086738 
L 520.571711 60.383582 
L 518.345566 54.800769 
L 530.397905 62.205232 
L 519.034573 61.929258 
L 516.021456 69.21058 
L 523.655826 81.935541 
L 520.15457 93.811254 
L 504.892803 93.015773 
L 501.228833 79.939776 
L 508.295655 81.177361 
L 498.319988 82.653037 
L 502.741805 73.98111 
L 510.254003 74.700636 
L 499.722732 90.655323 
L 489.059203 85.403708 
L 486.587957 85.451276 
L 474.728861 87.823897 
L 485.14331 70.942189 
L 475.438122 73.158262 
L 473.21227 87.894741 
L 478.590925 95.235337 
L 487.441044 86.24722 
L 489.114287 86.245344 
L 499.901326 103.350495 
L 486.525849 98.649042 
L 481.439705 98.204011 
L 489.373762 117.489428 
L 488.301718 108.291244 
L 500.922508 87.519003 
L 511.249415 83.818489 
L 475.410178 77.857213 
L 477.731148 79.995972 
L 492.444353 76.92474 
L 501.884199 84.887298 
L 503.965662 70.372903 
L 520.547739 73.897248 
L 522.926884 82.142953 
L 524.005041 79.965193 
L 532.358917 60.5891 
L 544.595286 50.155571 
L 539.636451 59.923562 
L 542.895084 82.613586 
L 546.630677 72.242322 
L 545.611867 74.845858 
L 544.318904 71.031215 
L 542.229009 67.056639 
L 540.190237 65.919014 
L 536.63177 73.133137 
L 548.765619 64.917624 
L 546.359062 72.031276 
L 550.243182 82.384323 
L 533.7413 84.18624 
L 538.170291 79.585742 
L 538.734223 83.945617 
L 537.468653 69.148432 
L 543.452716 67.593629 
L 537.071861 89.787646 
L 525.136239 107.296637 
L 528.254153 114.668796 
L 529.841953 119.933375 
L 524.138565 134.24465 
L 517.197645 138.288448 
L 511.12722 146.575735 
L 513.480802 134.386527 
L 508.351478 133.282778 
L 513.544931 125.440936 
L 509.973474 137.048475 
L 518.719284 141.993055 
L 507.003298 130.785701 
L 507.128243 130.253217 
L 500.246651 125.214611 
L 497.679259 127.518212 
L 514.993684 129.470131 
L 515.659417 111.393476 
L 500.421965 111.169285 
L 504.628014 126.596253 
L 519.415098 120.861103 
L 512.488692 130.912348 
L 520.66124 134.564906 
L 519.115234 135.653018 
L 523.832584 130.078595 
L 534.196234 132.80346 
L 527.963959 126.667227 
L 530.030146 127.61389 
L 537.528922 115.885924 
L 538.641027 117.289772 
L 543.247276 111.554197 
L 549.023903 108.594173 
L 543.630597 102.925002 
L 547.16423 89.04055 
L 545.481016 83.435721 
L 539.790926 93.165241 
L 528.882359 94.402662 
L 526.212953 102.180941 
L 520.725189 106.827753 
L 522.142423 108.647474 
L 509.222359 119.808929 
L 506.081074 124.860467 
L 496.029451 126.186219 
L 500.719583 108.711159 
L 493.677961 103.662218 
L 491.425284 85.55615 
L 493.471169 102.090311 
L 479.856389 118.85735 
L 496.191736 131.358649 
L 491.083278 121.011839 
L 492.086854 117.444455 
L 486.672711 120.130839 
L 475.5227 124.242814 
L 476.940779 120.961522 
L 470.850923 133.748636 
L 488.725742 138.897655 
L 482.934365 136.806353 
L 499.467597 141.481235 
L 512.435505 131.24399 
L 505.271175 135.23284 
L 493.895625 127.408943 
L 503.480283 130.582102 
L 489.689243 144.115561 
L 512.805286 141.708351 
L 505.528953 130.016308 
L 509.124221 134.198736 
L 495.351823 137.724243 
L 479.776122 135.693485 
L 476.353252 140.529523 
L 470.643397 151.664 
L 454.736123 149.122485 
L 462.529733 149.876474 
L 466.252024 146.056461 
L 470.603908 145.768049 
L 475.195753 131.068939 
L 473.269804 131.269636 
L 475.43707 119.281504 
L 495.971423 123.173767 
L 500.553929 135.225482 
L 473.910288 140.175129 
L 475.887034 134.547909 
L 464.87288 128.196433 
L 453.959793 120.387607 
L 463.527246 112.731877 
L 468.613902 110.442823 
L 479.519257 125.681559 
L 479.517902 113.155852 
L 480.24708 105.959523 
L 476.556984 109.576212 
L 482.907437 102.217647 
L 497.938957 119.710737 
L 501.559106 114.55206 
L 491.88667 117.076349 
L 497.16964 130.986108 
L 491.63363 117.945591 
L 491.233044 130.93993 
L 484.668931 126.461339 
L 494.894112 112.199496 
L 498.674967 119.90725 
L 483.863446 124.858746 
L 493.256734 112.983282 
L 492.566494 114.124566 
L 501.081116 99.644192 
L 493.894153 102.249631 
L 491.118799 122.401255 
L 493.384125 117.141326 
L 495.901131 95.98297 
L 490.094128 93.556691 
L 498.436511 95.52366 
L 495.797085 95.39903 
L 499.625311 92.790468 
L 500.636668 94.04259 
L 511.297931 81.230438 
L 515.589921 85.356929 
L 507.273912 89.214894 
L 514.483109 75.060852 
L 511.749819 70.513775 
L 520.565094 73.184011 
L 520.432742 56.2266 
L 525.933581 58.675921 
L 522.107098 58.237147 
L 521.052458 78.324783 
L 530.034638 87.100764 
L 530.48738 84.979881 
L 535.565374 86.836692 
L 537.795146 79.193228 
L 550.182311 69.36356 
L 554.300475 65.863911 
L 546.615604 51.860729 
L 547.097902 57.653753 
L 538.039987 60.062026 
L 546.029546 64.021069 
L 548.707137 56.976105 
L 547.815998 65.281321 
L 550.022657 57.503975 
L 548.497044 64.231634 
L 531.984243 73.097778 
L 533.352426 60.476041 
L 547.079236 61.788241 
L 547.368573 60.378901 
L 526.662256 59.98733 
L 522.330386 53.147819 
L 528.842345 59.090742 
L 522.392411 56.627131 
L 512.382047 57.782895 
L 524.509383 43.440557 
L 513.413699 38.533461 
L 506.661568 54.518533 
L 505.685553 65.083711 
L 507.1044 71.231367 
L 515.691952 73.379351 
L 521.803379 78.322382 
L 538.066852 81.814845 
L 547.943689 95.338739 
L 547.318064 93.711243 
L 552.037125 95.666501 
L 540.674322 90.232646 
L 544.462475 88.761344 
L 550.649595 73.067296 
L 542.502125 70.411939 
L 549.602615 70.398301 
L 556.054546 75.533581 
L 545.957462 78.458064 
L 557.086747 74.647565 
L 544.986335 78.298806 
L 523.980845 71.539723 
L 531.910617 63.937279 
L 535.420452 59.539187 
L 527.522694 54.283674 
L 522.162357 58.439982 
L 537.652471 44.936546 
L 541.307103 46.455786 
L 539.301126 46.032647 
L 525.811925 42.937822 
L 519.623187 35.609993 
L 521.308579 33.367037 
L 529.313935 43.881644 
L 539.000211 40.905183 
L 542.563279 44.973282 
L 528.369035 62.899223 
L 538.079975 66.16845 
L 538.586362 66.477552 
L 544.498925 51.297771 
L 546.271639 67.110942 
L 546.42549 63.333268 
L 537.334749 77.452078 
L 537.653271 72.748973 
L 537.503876 77.572395 
L 551.00331 75.948569 
L 541.885298 81.499821 
L 537.349881 71.084944 
L 555.278921 76.968489 
L 542.573862 66.351618 
L 543.085363 76.360493 
L 545.898515 57.692566 
L 533.897587 70.612839 
L 535.999272 84.386067 
L 525.433739 102.560354 
L 513.614652 90.175009 
L 506.33558 98.343834 
L 506.662636 96.539528 
L 496.096634 94.315587 
L 485.269869 94.666772 
L 480.578793 82.081691 
L 491.297965 90.963958 
L 490.715143 117.684529 
L 492.520148 114.551211 
L 487.831609 109.95109 
L 480.668718 107.698748 
L 477.298357 101.99133 
L 482.512653 111.219012 
L 476.48215 112.670765 
L 473.601664 111.279291 
L 471.861039 101.166665 
L 459.740861 99.756307 
L 458.174269 89.529139 
L 467.547385 89.159163 
L 464.908839 79.450671 
L 477.039281 72.613186 
L 494.717054 85.18786 
L 476.449422 97.959634 
L 478.332355 103.448383 
L 491.973054 104.128967 
L 512.544331 126.387899 
L 501.024236 131.081295 
L 524.276015 117.049875 
L 524.787175 116.882927 
L 518.104238 123.200203 
L 509.423605 132.45292 
L 507.499445 128.070393 
L 522.228101 110.98528 
L 501.99745 112.915731 
L 530.005975 110.743791 
L 540.780926 93.50647 
L 529.020485 101.618854 
L 533.984991 101.425372 
L 507.952089 107.021344 
L 492.916621 119.050656 
L 496.695898 125.119637 
L 491.711318 131.898505 
L 488.609298 132.072618 
L 498.414447 114.811765 
L 478.919972 121.79072 
L 483.517418 118.957286 
L 494.654998 113.714873 
L 481.891335 119.254622 
L 494.740406 133.306901 
L 507.486568 125.172748 
L 515.0623 129.8655 
L 529.307271 125.721534 
L 530.999427 93.060995 
L 527.941089 84.003097 
L 540.842925 79.536954 
L 540.609084 75.08718 
L 552.188632 64.368932 
L 535.539063 65.18758 
L 530.078279 73.715162 
L 526.379248 75.932078 
L 525.61771 75.541324 
L 520.981311 78.084691 
L 522.576699 78.739331 
L 530.14563 68.155826 
L 521.69022 75.328284 
L 523.519491 78.7731 
L 527.714727 72.994606 
L 525.205101 65.294088 
L 518.710485 60.194372 
L 529.704995 70.999947 
L 542.147491 68.062246 
L 538.992229 63.502098 
L 528.963638 71.210784 
L 528.344263 66.542078 
L 536.870508 66.627232 
L 541.240615 57.777775 
L 541.120267 55.240379 
L 519.068959 61.101093 
L 524.80671 62.618362 
L 508.522769 52.994918 
L 519.79072 51.449632 
L 508.927171 48.066882 
L 504.427376 51.769032 
L 494.757969 43.810643 
L 492.227349 44.117587 
L 501.267208 43.30911 
L 510.171578 48.116174 
L 497.282898 45.578992 
L 495.626155 59.86755 
L 491.402611 65.776383 
L 509.864777 68.473294 
L 501.696868 65.432988 
L 498.31095 61.326604 
L 499.307565 71.439089 
L 480.771367 71.158123 
L 494.058085 76.273523 
L 506.800556 93.627489 
L 501.171701 102.18722 
L 505.220197 108.521585 
L 520.346862 95.211192 
L 527.066506 82.3656 
L 535.526882 67.690659 
L 519.119983 64.421335 
L 532.415935 59.109867 
L 532.770293 60.898744 
L 528.6776 60.480017 
L 534.040442 55.688273 
L 529.216987 67.830692 
L 524.437758 67.864243 
L 519.730878 71.402664 
L 532.579298 62.411336 
L 531.470427 59.468379 
L 528.456853 70.545326 
L 513.922372 70.491838 
L 523.441189 74.202158 
L 525.52725 82.442278 
L 520.097061 85.589912 
L 517.964917 100.546409 
L 533.204744 105.881835 
L 535.899252 94.817782 
L 534.245126 106.106749 
L 535.626957 93.535229 
L 541.14222 86.205358 
L 544.573762 83.378314 
L 546.894484 94.175395 
L 552.902683 92.938032 
L 549.267282 79.39301 
L 540.694369 73.806076 
L 546.472686 81.208066 
L 536.820564 68.563561 
L 520.369199 74.477181 
L 523.700155 73.885008 
L 538.828266 52.787425 
L 543.685104 60.051153 
L 544.470694 64.063994 
L 523.337682 67.770094 
L 519.804994 61.82454 
L 525.152291 67.49439 
L 539.294089 68.612097 
L 537.43705 71.956715 
L 533.849373 64.100324 
L 525.735719 63.785067 
L 498.641293 22.401899 
L 499.654452 32.09772 
L 505.827336 37.818231 
L 507.28348 36.101773 
L 500.951151 31.688554 
L 505.498308 38.878772 
L 503.066479 32.1887 
L 493.368911 40.345627 
L 488.9321 33.304339 
L 485.744838 28.830464 
L 474.768292 25.413731 
L 480.183218 38.963618 
L 481.399317 51.394239 
L 484.446785 36.441039 
L 480.837775 34.900884 
L 475.398539 42.602557 
L 480.099769 41.112379 
L 481.561047 39.28 
L 483.455168 22.744389 
L 475.775937 30.898215 
L 483.582915 29.801524 
L 490.845717 32.653236 
L 495.64074 53.648804 
L 488.293622 47.122211 
L 482.00974 46.083093 
L 490.496926 37.440603 
L 493.566591 34.099251 
L 503.613678 38.522371 
L 518.079823 51.568234 
L 512.382539 53.287087 
L 508.037538 42.204552 
L 510.09665 64.336523 
L 511.845305 56.511904 
L 504.63625 62.648903 
L 505.632338 64.576959 
L 515.906621 63.568847 
L 502.272558 52.840944 
L 499.431794 53.543806 
L 486.610669 46.66896 
L 493.928858 44.686064 
L 491.220844 44.192181 
L 506.186778 49.027987 
L 494.227476 50.594405 
L 489.841757 59.915942 
L 497.642913 50.582885 
L 493.496413 38.781532 
L 496.988183 42.657593 
L 495.518611 52.702677 
L 497.406944 55.155074 
L 480.270048 39.368272 
L 484.787172 29.995187 
L 497.451783 36.725786 
L 494.599208 46.065451 
L 489.772659 49.56226 
L 493.620571 51.012945 
L 468.545026 64.21477 
L 488.577199 67.024324 
L 491.494315 64.337968 
L 491.430354 55.568265 
L 497.767657 53.708444 
L 485.445163 59.234093 
L 476.675522 62.252768 
L 485.698035 54.21134 
L 478.083526 60.153968 
L 476.24951 60.105835 
L 479.027261 62.388212 
L 484.836098 77.027223 
L 491.725739 74.397998 
L 497.798657 78.053245 
L 507.853568 87.067952 
L 499.420488 102.532173 
L 490.530772 96.413525 
L 493.572677 90.407252 
L 492.328079 105.304396 
L 491.539924 99.354281 
L 507.957358 104.876441 
L 503.098466 100.298676 
L 508.294597 102.887582 
L 508.014147 115.011138 
L 499.949503 117.407698 
L 488.42062 131.698321 
L 489.803341 136.969084 
L 490.852785 137.43247 
L 484.603418 135.009276 
L 472.025432 136.196218 
L 462.39163 135.246834 
L 472.574755 136.93137 
L 490.15652 148.079714 
L 494.423343 154.087478 
L 505.448958 154.307553 
L 502.375103 154.230746 
L 490.022048 147.251456 
L 485.126453 147.24197 
L 477.772758 151.940091 
L 486.824597 156.727871 
L 478.658187 151.702226 
L 476.558314 148.944289 
L 460.12439 149.625841 
L 457.866637 147.317118 
L 434.097423 144.760311 
L 436.548408 149.289477 
L 425.758553 153.068364 
L 417.699524 150.92921 
L 410.906413 137.151039 
L 413.367023 141.146313 
L 400.57884 123.206486 
L 378.8103 118.278703 
L 380.852472 121.939106 
L 390.494957 118.540679 
L 382.638706 131.047503 
L 371.48318 132.262448 
L 368.793295 125.284692 
L 370.408365 126.635037 
L 378.999978 136.414734 
L 379.521237 134.555239 
L 377.754513 130.384411 
L 386.538482 142.260406 
L 404.814801 143.221173 
L 405.360756 150.146458 
L 417.980355 135.564098 
L 421.807664 142.444184 
L 406.799429 134.607163 
L 388.405894 121.21889 
L 381.871852 122.747189 
L 363.431841 113.748255 
L 373.590469 103.932052 
L 368.763643 108.578044 
L 375.059448 113.931116 
L 369.600215 106.869804 
L 364.537919 109.597527 
L 360.522877 123.275484 
L 373.154801 121.860238 
L 368.29657 96.260851 
L 374.88959 91.482335 
L 374.88959 91.482335 
L 374.88959 91.482335 
L 366.737191 97.349744 
L 359.682213 92.686681 
L 362.172053 81.124425 
L 357.245528 69.552544 
L 363.801018 64.549579 
L 360.202111 67.978942 
L 340.110036 49.739095 
L 347.92167 52.102258 
L 349.127092 42.924087 
L 357.753495 29.786642 
L 355.377653 36.841161 
L 355.098877 39.888849 
L 345.134509 49.129291 
L 352.431664 58.664858 
L 348.419784 68.679334 
L 363.275703 74.985124 
L 365.085677 76.137611 
L 345.732347 79.510197 
L 340.27296 77.34236 
L 339.64486 96.466463 
L 330.35394 94.398095 
L 322.56172 99.499079 
L 312.437011 101.786745 
L 316.25967 88.565777 
L 323.184416 78.932123 
L 305.248205 74.4762 
L 314.517131 82.610972 
L 313.538306 78.709077 
L 338.233 76.299998 
L 339.630566 78.570166 
L 334.389383 75.445815 
L 338.629217 63.872921 
L 351.513673 81.222259 
L 361.047293 73.213021 
L 356.452094 74.376191 
L 360.71052 77.493388 
L 385.03173 90.55436 
L 385.525085 77.211548 
L 372.673336 66.623992 
L 359.92052 70.387942 
L 364.57479 73.925494 
L 362.645368 79.755944 
L 360.719286 74.700076 
L 357.22583 88.521196 
L 352.949001 85.495658 
L 346.082953 96.21291 
L 339.613623 93.388202 
L 336.001211 83.383476 
L 356.74121 73.691389 
L 366.776271 70.270209 
L 360.084258 81.246244 
L 344.327719 73.682884 
L 349.199312 77.726005 
L 332.20704 88.659515 
L 346.948881 96.070862 
L 344.016205 88.357005 
L 356.464338 80.623606 
L 368.835058 93.23429 
L 367.557221 91.353407 
L 356.207309 95.276474 
L 347.077061 99.945704 
L 340.138426 85.476532 
L 355.121212 78.090334 
L 345.743799 80.325706 
L 352.030446 77.55305 
L 343.821129 63.593754 
L 356.385497 75.54081 
L 368.949357 64.777765 
L 364.863563 74.8467 
L 360.719483 80.599532 
L 367.485924 92.067934 
L 386.140848 64.537096 
L 386.269872 51.246241 
L 382.489776 65.215875 
L 384.675667 56.168879 
L 381.314406 73.34333 
L 379.144801 96.470701 
L 366.456857 109.163679 
L 360.099804 121.737249 
L 378.625627 133.056918 
L 375.726594 116.740409 
L 364.772982 123.258084 
L 363.400498 133.915881 
L 366.13172 132.348669 
L 348.433905 131.206275 
L 336.070686 126.206667 
L 347.153433 141.596274 
L 348.911502 134.739006 
L 329.269345 142.409514 
L 317.537252 134.29401 
L 323.74957 140.37301 
L 312.982773 127.899486 
L 313.293165 115.762597 
L 310.113311 117.766625 
L 318.36808 123.932601 
L 293.230343 125.134744 
L 288.114853 136.366213 
L 270.956418 139.239536 
L 275.312855 141.894361 
L 251.633385 143.067272 
L 257.68875 150.282225 
L 240.472986 149.129982 
L 241.814676 147.452002 
L 236.477464 146.617827 
L 219.442521 125.98416 
L 225.117477 133.500846 
L 220.959579 127.550604 
L 220.873014 138.735539 
L 214.18278 139.353623 
L 209.866988 129.719638 
L 205.49903 142.06168 
L 200.023567 131.437883 
L 208.552156 135.400307 
L 231.946929 129.334539 
L 222.898213 122.628401 
L 221.406413 107.417193 
L 228.924757 92.978692 
L 225.870027 94.970313 
L 229.972953 90.03751 
L 228.580333 89.789636 
L 245.974044 81.859448 
L 253.23877 81.670145 
L 268.684029 89.711864 
L 278.934172 82.257163 
L 284.289065 68.253776 
L 274.930455 34.718614 
L 277.237857 25.723499 
L 288.549706 34.467278 
L 284.976943 36.059661 
L 280.163763 43.036537 
L 265.79937 54.733698 
L 263.892346 44.585597 
L 271.349371 39.44261 
L 273.790159 23.541042 
L 283.639873 16.618764 
L 280.821816 16.802494 
L 298.13838 31.109275 
L 290.770817 25.330001 
L 294.278643 34.187276 
L 301.216266 30.119579 
L 304.671947 24.707911 
L 310.663888 35.130772 
L 314.900093 44.467018 
L 325.780353 39.280486 
L 336.550342 38.016378 
L 327.323112 29.635263 
L 336.608583 34.385042 
L 315.579335 37.650215 
L 322.771384 40.171791 
L 331.090849 52.814154 
L 338.817891 69.701846 
L 336.83987 57.543901 
L 334.951924 65.90576 
L 330.094788 55.727714 
L 326.185897 56.454239 
L 331.82711 61.659868 
L 354.404467 72.759232 
L 348.501377 79.458288 
L 370.684467 73.619755 
L 365.023973 70.666171 
L 377.55128 87.540083 
L 380.3702 71.826907 
L 383.762753 64.701772 
L 382.007695 77.213377 
L 390.37834 63.444977 
L 397.55359 62.283475 
L 400.221739 65.856132 
L 398.966416 63.303888 
L 404.022366 74.217729 
L 406.152966 69.610375 
L 410.991037 67.685295 
L 408.510164 75.623563 
L 420.484519 62.94536 
L 406.522585 67.981286 
L 411.422725 68.377688 
L 387.440531 87.324316 
L 391.238057 95.032046 
L 391.527458 82.30457 
L 414.115941 82.629418 
L 387.228065 89.863899 
L 396.287125 85.701577 
L 400.628023 77.40691 
L 393.773826 89.368509 
L 381.105889 80.904652 
L 385.381146 74.706423 
L 398.674734 72.312389 
L 408.514158 62.170802 
L 428.554757 47.245843 
L 433.55491 42.214525 
L 435.316659 33.125439 
L 431.071962 35.545565 
L 437.520733 34.096934 
L 439.51847 30.775596 
L 431.490225 30.995042 
L 416.026404 24.235673 
L 408.420004 34.216747 
L 404.792385 24.081251 
L 398.694561 36.513085 
L 399.964688 16.311991 
L 417.781843 17.57966 
L 412.316088 19.12227 
L 407.355268 25.249671 
L 400.678557 16.25599 
L 389.45649 17.917754 
L 380.585905 24.090842 
L 356.773476 30.322253 
L 368.39064 27.238288 
L 400.593734 30.112329 
L 400.741067 35.967772 
L 394.693114 46.537644 
L 393.223937 33.338095 
L 401.952807 37.275639 
L 414.810189 30.016918 
L 409.207443 27.946142 
L 408.846733 29.002634 
L 409.866995 28.566537 
L 405.069461 46.480943 
L 403.356007 58.184731 
L 395.849261 54.690829 
L 407.373494 52.224098 
L 423.067776 56.833092 
L 427.309813 56.01446 
L 435.300788 56.834254 
L 450.14513 66.5958 
L 456.578802 62.967697 
L 466.586727 63.081344 
L 453.235063 71.654614 
L 448.161255 63.850757 
L 466.250746 67.173239 
L 461.129707 64.067378 
L 466.990555 61.625966 
L 469.140633 71.925013 
L 440.483328 71.730574 
L 435.454441 93.611772 
L 423.546973 90.774918 
L 419.851284 98.155896 
L 435.796224 102.558592 
L 424.924106 107.996607 
L 429.598356 90.80142 
L 441.270671 84.944402 
L 442.284295 77.048891 
L 439.258008 94.459602 
L 426.232213 90.480784 
L 421.222177 96.497241 
L 424.635026 95.7643 
L 423.418418 100.115137 
L 415.331831 107.206736 
L 432.041475 118.239551 
L 439.867416 119.670099 
L 427.071439 102.98981 
L 415.233184 120.039682 
L 431.736071 131.960785 
L 430.987942 137.650502 
L 424.383557 138.45684 
L 443.037423 135.98087 
L 460.531195 131.297388 
L 467.229704 125.281156 
L 472.185345 126.863789 
L 464.24811 126.972717 
L 461.089438 116.644692 
L 448.899213 106.364784 
L 448.436086 100.071615 
L 449.1289 85.589174 
L 445.617434 91.144869 
L 463.552561 95.144263 
L 455.350657 101.0085 
L 453.83853 94.368429 
L 440.580317 89.401847 
L 454.248501 93.123785 
L 450.149573 93.408461 
L 468.210658 105.47744 
L 471.088258 98.767454 
L 464.227199 91.882223 
L 446.67151 97.89474 
L 437.624824 85.686917 
L 446.957341 80.113622 
L 435.818847 79.20056 
L 433.980778 83.569841 
L 434.029841 93.075747 
L 442.405895 102.383455 
L 454.451171 110.100075 
L 446.482682 118.151666 
L 436.316548 113.721123 
L 440.725659 124.614078 
L 446.67156 135.473455 
L 439.385504 134.769954 
L 436.622427 129.86049 
L 433.012125 119.047965 
L 433.090829 112.222897 
L 445.888968 116.249934 
L 451.682193 112.835185 
L 456.26101 109.779983 
L 454.183257 101.038882 
L 447.286994 90.608507 
L 456.840679 87.118934 
L 456.503819 82.208598 
L 448.516582 84.006855 
L 447.865664 85.953291 
L 456.04649 81.15268 
L 447.005503 67.647603 
L 454.368477 66.673492 
L 453.448107 82.104177 
L 439.575608 71.343529 
L 453.571735 64.686265 
L 448.405506 87.140439 
L 447.897452 81.59044 
L 438.362367 89.472096 
L 454.662329 97.794051 
L 452.664393 97.804078 
L 448.308678 79.468906 
L 450.581874 87.62179 
L 458.480778 91.964734 
L 470.831347 105.602648 
L 467.124451 103.460695 
L 480.582495 90.219445 
L 486.360569 90.024374 
L 489.530722 82.203098 
L 487.785091 80.895705 
L 483.617435 76.886956 
L 470.110984 84.542688 
L 476.117059 83.295675 
L 479.560992 87.566318 
L 479.137756 82.954043 
L 480.867746 99.747857 
L 486.910991 93.215264 
L 483.993752 91.318408 
L 483.797618 83.790385 
L 483.797618 83.790385 
" style="fill:none;opacity:0.7;stroke:#ff7f00;stroke-linecap:square;"/>
   </g>
   <g id="line2d_9">
    <path clip-path="url(#p530c673078)" d="M 456.935718 170.92596 
L 456.935718 1.692336 
" style="fill:none;stroke:#000000;stroke-dasharray:6.000000,6.000000;stroke-dashoffset:0.0;stroke-width:2.0;"/>
   </g>
   <g id="line2d_10">
    <path clip-path="url(#p530c673078)" d="M 119.064282 170.92596 
L 119.064282 1.692336 
" style="fill:none;stroke:#000000;stroke-dasharray:6.000000,6.000000;stroke-dashoffset:0.0;stroke-width:2.0;"/>
   </g>
  </g>
 </g>
 <defs>
  <clipPath id="p530c673078">
   <rect height="172.61829653" width="576.0" x="0.0" y="0.0"/>
  </clipPath>
 </defs>
</svg>
