<?xml version="1.0" encoding="utf-8" standalone="no"?>
<!DOCTYPE svg PUBLIC "-//W3C//DTD SVG 1.1//EN"
  "http://www.w3.org/Graphics/SVG/1.1/DTD/svg11.dtd">
<!-- Created with matplotlib (http://matplotlib.org/) -->
<svg height="217pt" version="1.1" viewBox="0 0 268 217" width="268pt" xmlns="http://www.w3.org/2000/svg" xmlns:xlink="http://www.w3.org/1999/xlink">
 <defs>
  <style type="text/css">
*{stroke-linecap:butt;stroke-linejoin:round;stroke-miterlimit:100000;}
  </style>
 </defs>
 <g id="figure_1">
  <g id="patch_1">
   <path d="M 0 217.970942 
L 268.523614 217.970942 
L 268.523614 0 
L 0 0 
z
" style="fill:#ffffff;"/>
  </g>
  <g id="axes_1">
   <g id="patch_2">
    <path d="M 31.499963 184.030939 
L 254.699962 184.030939 
L 254.699962 11.230939 
L 31.499963 11.230939 
z
" style="fill:#ffffff;"/>
   </g>
   <g id="line2d_1">
    <path clip-path="url(#p3b748eb75c)" d="M 254.699962 128.890834 
L 250.830811 128.890834 
L 250.830811 128.829309 
L 246.961659 128.829309 
L 246.961659 128.96858 
L 243.092508 128.96858 
L 243.092508 129.081004 
L 239.223356 129.081004 
L 239.223356 129.356189 
L 235.354205 129.356189 
L 235.354205 128.995427 
L 231.485053 128.995427 
L 231.485053 128.940614 
L 227.615902 128.940614 
L 227.615902 128.730869 
L 223.74675 128.730869 
L 223.74675 128.971377 
L 219.877599 128.971377 
L 219.877599 128.842173 
L 216.008447 128.842173 
L 216.008447 128.876292 
L 212.139296 128.876292 
L 212.139296 129.020597 
L 208.270144 129.020597 
L 208.270144 129.322071 
L 204.400993 129.322071 
L 204.400993 128.974173 
L 200.531841 128.974173 
L 200.531841 128.983122 
L 196.66269 128.983122 
L 196.66269 128.924394 
L 192.793538 128.924394 
L 192.793538 129.739324 
L 188.924387 129.739324 
L 188.924387 129.021156 
L 185.055235 129.021156 
L 185.055235 129.211885 
L 181.186084 129.211885 
L 181.186084 129.28124 
L 177.316932 129.28124 
L 177.316932 128.709614 
L 173.447781 128.709614 
L 173.447781 129.220274 
L 169.578629 129.220274 
L 169.578629 129.481477 
L 165.709478 129.481477 
L 165.709478 129.099461 
L 161.840326 129.099461 
L 161.840326 129.152037 
L 157.971175 129.152037 
L 157.971175 127.737514 
L 154.102023 127.737514 
L 154.102023 125.607061 
L 150.232871 125.607061 
L 150.232871 123.798216 
L 146.36372 123.798216 
L 146.36372 121.907152 
L 142.494568 121.907152 
L 142.494568 120.168782 
L 138.625417 120.168782 
L 138.625417 117.840888 
L 134.756265 117.840888 
L 134.756265 115.830129 
L 130.887114 115.830129 
L 130.887114 113.518455 
L 127.017962 113.518455 
L 127.017962 111.206222 
L 123.148811 111.206222 
L 123.148811 108.536583 
L 119.279659 108.536583 
L 119.279659 106.75962 
L 115.410508 106.75962 
L 115.410508 105.446893 
L 111.541356 105.446893 
L 111.541356 105.657198 
L 107.672205 105.657198 
L 107.672205 105.945808 
L 103.803053 105.945808 
L 103.803053 107.845821 
L 99.933902 107.845821 
L 99.933902 110.948934 
L 96.06475 110.948934 
L 96.06475 115.221588 
L 92.195599 115.221588 
L 92.195599 120.7639 
L 88.326447 120.7639 
L 88.326447 128.013819 
L 84.457296 128.013819 
L 84.457296 136.338753 
L 80.588144 136.338753 
L 80.588144 147.400445 
L 76.718993 147.400445 
L 76.718993 159.64622 
L 72.849841 159.64622 
L 72.849841 174.228279 
L 68.98069 174.228279 
L 68.98069 183.919075 
" style="fill:none;stroke:#4daf4a;stroke-linecap:square;stroke-width:1.4;"/>
   </g>
   <g id="line2d_2">
    <path clip-path="url(#p3b748eb75c)" d="M 254.699962 129.556516 
L 159.000263 129.506873 
L 150.994257 125.741935 
L 143.360623 121.910248 
L 135.913176 117.929405 
L 128.651914 113.802596 
L 118.225488 107.793014 
L 116.17744 107.012141 
L 114.129392 106.461703 
L 112.081344 106.153917 
L 110.219482 106.095302 
L 108.35762 106.25747 
L 106.495758 106.65053 
L 104.633896 107.284904 
L 102.772035 108.171336 
L 100.910173 109.320895 
L 99.048311 110.74499 
L 97.186449 112.455375 
L 95.324587 114.464158 
L 93.462725 116.78381 
L 91.414677 119.709822 
L 89.366629 123.045168 
L 87.318581 126.808054 
L 85.270533 131.017277 
L 83.036299 136.141022 
L 80.802065 141.845097 
L 78.56783 148.156454 
L 76.333596 155.102989 
L 73.913176 163.378679 
L 71.492755 172.471726 
L 69.072335 182.421563 
L 68.699962 184.030939 
L 68.699962 184.030939 
" style="fill:none;stroke:#4daf4a;stroke-dasharray:1.000000,3.000000;stroke-dashoffset:0.0;stroke-width:2.6;"/>
   </g>
   <g id="line2d_3">
    <defs>
     <path d="M 0 2 
C 0.530406 2 1.03916 1.789267 1.414214 1.414214 
C 1.789267 1.03916 2 0.530406 2 0 
C 2 -0.530406 1.789267 -1.03916 1.414214 -1.414214 
C 1.03916 -1.789267 0.530406 -2 0 -2 
C -0.530406 -2 -1.03916 -1.789267 -1.414214 -1.414214 
C -1.789267 -1.03916 -2 -0.530406 -2 0 
C -2 0.530406 -1.789267 1.03916 -1.414214 1.414214 
C -1.03916 1.789267 -0.530406 2 0 2 
z
" id="ma96f1404a2" style="stroke:#4daf4a;stroke-width:0.5;"/>
    </defs>
    <g clip-path="url(#p3b748eb75c)">
     <use style="fill:#4daf4a;stroke:#4daf4a;stroke-width:0.5;" x="252.191921601" xlink:href="#ma96f1404a2" y="132.428397311"/>
     <use style="fill:#4daf4a;stroke:#4daf4a;stroke-width:0.5;" x="247.210868322" xlink:href="#ma96f1404a2" y="131.281674161"/>
     <use style="fill:#4daf4a;stroke:#4daf4a;stroke-width:0.5;" x="242.229815043" xlink:href="#ma96f1404a2" y="133.957361511"/>
     <use style="fill:#4daf4a;stroke:#4daf4a;stroke-width:0.5;" x="237.248761765" xlink:href="#ma96f1404a2" y="123.636853161"/>
     <use style="fill:#4daf4a;stroke:#4daf4a;stroke-width:0.5;" x="232.267708486" xlink:href="#ma96f1404a2" y="124.783576311"/>
     <use style="fill:#4daf4a;stroke:#4daf4a;stroke-width:0.5;" x="227.286655208" xlink:href="#ma96f1404a2" y="128.988227861"/>
     <use style="fill:#4daf4a;stroke:#4daf4a;stroke-width:0.5;" x="222.305601929" xlink:href="#ma96f1404a2" y="127.841504711"/>
     <use style="fill:#4daf4a;stroke:#4daf4a;stroke-width:0.5;" x="217.32454865" xlink:href="#ma96f1404a2" y="127.841504711"/>
     <use style="fill:#4daf4a;stroke:#4daf4a;stroke-width:0.5;" x="212.343495372" xlink:href="#ma96f1404a2" y="131.663915211"/>
     <use style="fill:#4daf4a;stroke:#4daf4a;stroke-width:0.5;" x="207.362442093" xlink:href="#ma96f1404a2" y="129.752709961"/>
     <use style="fill:#4daf4a;stroke:#4daf4a;stroke-width:0.5;" x="202.381388815" xlink:href="#ma96f1404a2" y="132.428397311"/>
     <use style="fill:#4daf4a;stroke:#4daf4a;stroke-width:0.5;" x="197.400335536" xlink:href="#ma96f1404a2" y="138.162013061"/>
     <use style="fill:#4daf4a;stroke:#4daf4a;stroke-width:0.5;" x="192.419282257" xlink:href="#ma96f1404a2" y="134.339602561"/>
     <use style="fill:#4daf4a;stroke:#4daf4a;stroke-width:0.5;" x="187.438228979" xlink:href="#ma96f1404a2" y="135.868566761"/>
     <use style="fill:#4daf4a;stroke:#4daf4a;stroke-width:0.5;" x="182.4571757" xlink:href="#ma96f1404a2" y="127.459263661"/>
     <use style="fill:#4daf4a;stroke:#4daf4a;stroke-width:0.5;" x="177.476122422" xlink:href="#ma96f1404a2" y="138.544254111"/>
     <use style="fill:#4daf4a;stroke:#4daf4a;stroke-width:0.5;" x="172.495069143" xlink:href="#ma96f1404a2" y="134.721843611"/>
     <use style="fill:#4daf4a;stroke:#4daf4a;stroke-width:0.5;" x="167.514015864" xlink:href="#ma96f1404a2" y="129.752709961"/>
     <use style="fill:#4daf4a;stroke:#4daf4a;stroke-width:0.5;" x="162.532962586" xlink:href="#ma96f1404a2" y="123.636853161"/>
     <use style="fill:#4daf4a;stroke:#4daf4a;stroke-width:0.5;" x="157.551909307" xlink:href="#ma96f1404a2" y="122.107888961"/>
     <use style="fill:#4daf4a;stroke:#4daf4a;stroke-width:0.5;" x="152.570856029" xlink:href="#ma96f1404a2" y="124.401335261"/>
     <use style="fill:#4daf4a;stroke:#4daf4a;stroke-width:0.5;" x="147.58980275" xlink:href="#ma96f1404a2" y="134.339602561"/>
     <use style="fill:#4daf4a;stroke:#4daf4a;stroke-width:0.5;" x="142.608749471" xlink:href="#ma96f1404a2" y="115.992032161"/>
     <use style="fill:#4daf4a;stroke:#4daf4a;stroke-width:0.5;" x="137.627696193" xlink:href="#ma96f1404a2" y="128.605986811"/>
     <use style="fill:#4daf4a;stroke:#4daf4a;stroke-width:0.5;" x="132.646642914" xlink:href="#ma96f1404a2" y="105.289282761"/>
     <use style="fill:#4daf4a;stroke:#4daf4a;stroke-width:0.5;" x="127.665589635" xlink:href="#ma96f1404a2" y="105.289282761"/>
     <use style="fill:#4daf4a;stroke:#4daf4a;stroke-width:0.5;" x="122.684536357" xlink:href="#ma96f1404a2" y="104.907041711"/>
     <use style="fill:#4daf4a;stroke:#4daf4a;stroke-width:0.5;" x="117.703483078" xlink:href="#ma96f1404a2" y="98.7911849105"/>
     <use style="fill:#4daf4a;stroke:#4daf4a;stroke-width:0.5;" x="112.7224298" xlink:href="#ma96f1404a2" y="107.582729061"/>
     <use style="fill:#4daf4a;stroke:#4daf4a;stroke-width:0.5;" x="107.741376521" xlink:href="#ma96f1404a2" y="96.1154975605"/>
     <use style="fill:#4daf4a;stroke:#4daf4a;stroke-width:0.5;" x="102.760323242" xlink:href="#ma96f1404a2" y="101.849113311"/>
     <use style="fill:#4daf4a;stroke:#4daf4a;stroke-width:0.5;" x="97.7792699638" xlink:href="#ma96f1404a2" y="108.729452211"/>
     <use style="fill:#4daf4a;stroke:#4daf4a;stroke-width:0.5;" x="92.7982166852" xlink:href="#ma96f1404a2" y="115.609791111"/>
     <use style="fill:#4daf4a;stroke:#4daf4a;stroke-width:0.5;" x="87.8171634066" xlink:href="#ma96f1404a2" y="125.930299461"/>
     <use style="fill:#4daf4a;stroke:#4daf4a;stroke-width:0.5;" x="82.836110128" xlink:href="#ma96f1404a2" y="140.455459361"/>
     <use style="fill:#4daf4a;stroke:#4daf4a;stroke-width:0.5;" x="77.8550568494" xlink:href="#ma96f1404a2" y="151.922690862"/>
     <use style="fill:#4daf4a;stroke:#4daf4a;stroke-width:0.5;" x="72.8740035708" xlink:href="#ma96f1404a2" y="169.123538112"/>
     <use style="fill:#4daf4a;stroke:#4daf4a;stroke-width:0.5;" x="67.8929502922" xlink:href="#ma96f1404a2" y="176.386118062"/>
     <use style="fill:#4daf4a;stroke:#4daf4a;stroke-width:0.5;" x="62.9118970136" xlink:href="#ma96f1404a2" y="180.973010662"/>
     <use style="fill:#4daf4a;stroke:#4daf4a;stroke-width:0.5;" x="57.930843735" xlink:href="#ma96f1404a2" y="182.119733812"/>
    </g>
   </g>
   <g id="line2d_4">
    <path clip-path="url(#p3b748eb75c)" d="M 254.699962 148.459968 
L 250.786772 148.459968 
L 250.786772 148.595544 
L 246.873581 148.595544 
L 246.873581 148.647349 
L 242.960391 148.647349 
L 242.960391 148.306206 
L 239.0472 148.306206 
L 239.0472 148.155199 
L 235.134009 148.155199 
L 235.134009 148.114416 
L 231.220819 148.114416 
L 231.220819 148.397141 
L 227.307628 148.397141 
L 227.307628 148.482013 
L 223.394437 148.482013 
L 223.394437 148.281956 
L 219.481247 148.281956 
L 219.481247 148.483115 
L 215.568056 148.483115 
L 215.568056 148.353602 
L 211.654865 148.353602 
L 211.654865 148.570744 
L 207.741675 148.570744 
L 207.741675 147.972778 
L 203.828484 147.972778 
L 203.828484 147.999232 
L 199.915294 147.999232 
L 199.915294 148.139767 
L 196.002103 148.139767 
L 196.002103 148.002538 
L 192.088912 148.002538 
L 192.088912 148.026237 
L 188.175722 148.026237 
L 188.175722 148.172835 
L 184.262531 148.172835 
L 184.262531 147.871372 
L 180.34934 147.871372 
L 180.34934 148.020725 
L 176.43615 148.020725 
L 176.43615 148.099536 
L 172.522959 148.099536 
L 172.522959 147.785397 
L 168.609768 147.785397 
L 168.609768 147.616754 
L 164.696578 147.616754 
L 164.696578 147.616754 
L 160.783387 147.616754 
L 160.783387 147.725325 
L 156.870196 147.725325 
L 156.870196 144.869969 
L 152.957006 144.869969 
L 152.957006 141.116288 
L 149.043815 141.116288 
L 149.043815 136.914545 
L 145.130625 136.914545 
L 145.130625 132.515501 
L 141.217434 132.515501 
L 141.217434 127.481566 
L 137.304243 127.481566 
L 137.304243 122.027678 
L 133.391053 122.027678 
L 133.391053 116.15604 
L 129.477862 116.15604 
L 129.477862 109.409223 
L 125.564671 109.409223 
L 125.564671 102.027515 
L 121.651481 102.027515 
L 121.651481 94.579121 
L 117.73829 94.579121 
L 117.73829 86.069269 
L 113.825099 86.069269 
L 113.825099 78.19486 
L 109.911909 78.19486 
L 109.911909 71.758323 
L 105.998718 71.758323 
L 105.998718 66.081782 
L 102.085527 66.081782 
L 102.085527 62.443836 
L 98.172337 62.443836 
L 98.172337 60.7541 
L 94.259146 60.7541 
L 94.259146 61.947276 
L 90.345956 61.947276 
L 90.345956 66.570075 
L 86.432765 66.570075 
L 86.432765 75.346669 
L 82.519574 75.346669 
L 82.519574 90.026866 
L 78.606384 90.026866 
L 78.606384 110.845443 
L 74.693193 110.845443 
L 74.693193 140.58115 
L 70.780002 140.58115 
L 70.780002 176.268958 
L 66.866812 176.268958 
L 66.866812 184.030939 
" style="fill:none;stroke:#984ea3;stroke-linecap:square;stroke-width:1.4;"/>
   </g>
   <g id="line2d_5">
    <path clip-path="url(#p3b748eb75c)" d="M 254.699962 147.953827 
L 158.069332 147.953827 
L 157.324587 147.352428 
L 153.600863 143.964787 
L 149.87714 140.264262 
L 146.339602 136.432664 
L 142.802065 132.265624 
L 139.450713 127.981895 
L 136.099362 123.343676 
L 132.748011 118.32163 
L 129.396659 112.883996 
L 126.231494 107.335896 
L 123.066329 101.355151 
L 119.714978 94.529988 
L 115.246509 85.497416 
L 111.895158 79.19236 
L 109.102365 74.395931 
L 106.681944 70.680754 
L 104.633896 67.931059 
L 102.772035 65.801548 
L 101.096359 64.231328 
L 99.606869 63.145894 
L 98.303566 62.461446 
L 97.000263 62.048109 
L 95.883146 61.92762 
L 94.766029 62.039622 
L 93.648911 62.400746 
L 92.531794 63.028454 
L 91.414677 63.94108 
L 90.29756 65.157868 
L 89.180443 66.699002 
L 88.063326 68.585658 
L 86.760023 71.253135 
L 85.456719 74.458269 
L 84.153416 78.240246 
L 82.663926 83.322016 
L 81.174437 89.276748 
L 79.684947 96.173993 
L 78.195458 104.087654 
L 76.519782 114.303386 
L 74.844107 126.024128 
L 73.168431 139.377249 
L 71.492755 154.498867 
L 69.81708 171.534392 
L 68.699962 184.030939 
L 68.699962 184.030939 
" style="fill:none;stroke:#984ea3;stroke-dasharray:1.000000,3.000000;stroke-dashoffset:0.0;stroke-width:2.6;"/>
   </g>
   <g id="line2d_6">
    <defs>
     <path d="M 0 2 
C 0.530406 2 1.03916 1.789267 1.414214 1.414214 
C 1.789267 1.03916 2 0.530406 2 0 
C 2 -0.530406 1.789267 -1.03916 1.414214 -1.414214 
C 1.03916 -1.789267 0.530406 -2 0 -2 
C -0.530406 -2 -1.03916 -1.789267 -1.414214 -1.414214 
C -1.789267 -1.03916 -2 -0.530406 -2 0 
C -2 0.530406 -1.789267 1.03916 -1.414214 1.414214 
C -1.03916 1.789267 -0.530406 2 0 2 
z
" id="m8351a2c760" style="stroke:#984ea3;stroke-width:0.5;"/>
    </defs>
    <g clip-path="url(#p3b748eb75c)">
     <use style="fill:#984ea3;stroke:#984ea3;stroke-width:0.5;" x="252.172825313" xlink:href="#m8351a2c760" y="157.524901441"/>
     <use style="fill:#984ea3;stroke:#984ea3;stroke-width:0.5;" x="247.16737708" xlink:href="#m8351a2c760" y="152.183380551"/>
     <use style="fill:#984ea3;stroke:#984ea3;stroke-width:0.5;" x="242.161928847" xlink:href="#m8351a2c760" y="147.144209901"/>
     <use style="fill:#984ea3;stroke:#984ea3;stroke-width:0.5;" x="237.156480614" xlink:href="#m8351a2c760" y="142.004255837"/>
     <use style="fill:#984ea3;stroke:#984ea3;stroke-width:0.5;" x="232.151032381" xlink:href="#m8351a2c760" y="137.771352491"/>
     <use style="fill:#984ea3;stroke:#984ea3;stroke-width:0.5;" x="227.145584148" xlink:href="#m8351a2c760" y="143.11287338"/>
     <use style="fill:#984ea3;stroke:#984ea3;stroke-width:0.5;" x="222.140135915" xlink:href="#m8351a2c760" y="146.942643075"/>
     <use style="fill:#984ea3;stroke:#984ea3;stroke-width:0.5;" x="217.134687682" xlink:href="#m8351a2c760" y="147.950477205"/>
     <use style="fill:#984ea3;stroke:#984ea3;stroke-width:0.5;" x="212.129239449" xlink:href="#m8351a2c760" y="146.942643075"/>
     <use style="fill:#984ea3;stroke:#984ea3;stroke-width:0.5;" x="207.123791216" xlink:href="#m8351a2c760" y="146.741076249"/>
     <use style="fill:#984ea3;stroke:#984ea3;stroke-width:0.5;" x="202.118342983" xlink:href="#m8351a2c760" y="150.167712291"/>
     <use style="fill:#984ea3;stroke:#984ea3;stroke-width:0.5;" x="197.112894751" xlink:href="#m8351a2c760" y="152.082597138"/>
     <use style="fill:#984ea3;stroke:#984ea3;stroke-width:0.5;" x="192.107446518" xlink:href="#m8351a2c760" y="151.578680073"/>
     <use style="fill:#984ea3;stroke:#984ea3;stroke-width:0.5;" x="187.101998285" xlink:href="#m8351a2c760" y="152.284163964"/>
     <use style="fill:#984ea3;stroke:#984ea3;stroke-width:0.5;" x="182.096550052" xlink:href="#m8351a2c760" y="151.377113247"/>
     <use style="fill:#984ea3;stroke:#984ea3;stroke-width:0.5;" x="177.091101819" xlink:href="#m8351a2c760" y="151.47789666"/>
     <use style="fill:#984ea3;stroke:#984ea3;stroke-width:0.5;" x="172.085653586" xlink:href="#m8351a2c760" y="152.082597138"/>
     <use style="fill:#984ea3;stroke:#984ea3;stroke-width:0.5;" x="167.080205353" xlink:href="#m8351a2c760" y="152.384947377"/>
     <use style="fill:#984ea3;stroke:#984ea3;stroke-width:0.5;" x="162.07475712" xlink:href="#m8351a2c760" y="149.159878161"/>
     <use style="fill:#984ea3;stroke:#984ea3;stroke-width:0.5;" x="157.069308887" xlink:href="#m8351a2c760" y="145.531675292"/>
     <use style="fill:#984ea3;stroke:#984ea3;stroke-width:0.5;" x="152.063860654" xlink:href="#m8351a2c760" y="138.07370273"/>
     <use style="fill:#984ea3;stroke:#984ea3;stroke-width:0.5;" x="147.058412421" xlink:href="#m8351a2c760" y="140.290937816"/>
     <use style="fill:#984ea3;stroke:#984ea3;stroke-width:0.5;" x="142.052964188" xlink:href="#m8351a2c760" y="134.546283274"/>
     <use style="fill:#984ea3;stroke:#984ea3;stroke-width:0.5;" x="137.047515955" xlink:href="#m8351a2c760" y="134.7478501"/>
     <use style="fill:#984ea3;stroke:#984ea3;stroke-width:0.5;" x="132.042067722" xlink:href="#m8351a2c760" y="119.32798791"/>
     <use style="fill:#984ea3;stroke:#984ea3;stroke-width:0.5;" x="127.03661949" xlink:href="#m8351a2c760" y="113.280983129"/>
     <use style="fill:#984ea3;stroke:#984ea3;stroke-width:0.5;" x="122.031171257" xlink:href="#m8351a2c760" y="110.96296463"/>
     <use style="fill:#984ea3;stroke:#984ea3;stroke-width:0.5;" x="117.025723024" xlink:href="#m8351a2c760" y="101.993240872"/>
     <use style="fill:#984ea3;stroke:#984ea3;stroke-width:0.5;" x="112.020274791" xlink:href="#m8351a2c760" y="85.5655445511"/>
     <use style="fill:#984ea3;stroke:#984ea3;stroke-width:0.5;" x="107.014826558" xlink:href="#m8351a2c760" y="79.2161895314"/>
     <use style="fill:#984ea3;stroke:#984ea3;stroke-width:0.5;" x="102.009378325" xlink:href="#m8351a2c760" y="61.0751751895"/>
     <use style="fill:#984ea3;stroke:#984ea3;stroke-width:0.5;" x="97.003930092" xlink:href="#m8351a2c760" y="57.5477557341"/>
     <use style="fill:#984ea3;stroke:#984ea3;stroke-width:0.5;" x="91.998481859" xlink:href="#m8351a2c760" y="49.8882163453"/>
     <use style="fill:#984ea3;stroke:#984ea3;stroke-width:0.5;" x="86.9930336261" xlink:href="#m8351a2c760" y="59.5634239943"/>
     <use style="fill:#984ea3;stroke:#984ea3;stroke-width:0.5;" x="81.9875853932" xlink:href="#m8351a2c760" y="71.7582169686"/>
     <use style="fill:#984ea3;stroke:#984ea3;stroke-width:0.5;" x="76.9821371602" xlink:href="#m8351a2c760" y="99.2720887205"/>
     <use style="fill:#984ea3;stroke:#984ea3;stroke-width:0.5;" x="71.9766889273" xlink:href="#m8351a2c760" y="141.601122185"/>
     <use style="fill:#984ea3;stroke:#984ea3;stroke-width:0.5;" x="66.9712406944" xlink:href="#m8351a2c760" y="170.022044654"/>
     <use style="fill:#984ea3;stroke:#984ea3;stroke-width:0.5;" x="61.9657924615" xlink:href="#m8351a2c760" y="179.394902064"/>
     <use style="fill:#984ea3;stroke:#984ea3;stroke-width:0.5;" x="56.9603442285" xlink:href="#m8351a2c760" y="182.015270802"/>
    </g>
   </g>
   <g id="line2d_7">
    <path clip-path="url(#p3b748eb75c)" d="M 254.699962 156.079417 
L 250.715505 156.079417 
L 250.715505 155.753457 
L 246.731048 155.753457 
L 246.731048 155.848056 
L 242.74659 155.848056 
L 242.74659 155.974007 
L 238.762133 155.974007 
L 238.762133 155.96698 
L 234.777676 155.96698 
L 234.777676 155.778863 
L 230.793218 155.778863 
L 230.793218 155.857245 
L 226.808761 155.857245 
L 226.808761 156.083742 
L 222.824304 156.083742 
L 222.824304 155.856164 
L 218.839846 155.856164 
L 218.839846 156.30213 
L 214.855389 156.30213 
L 214.855389 155.867516 
L 210.870932 155.867516 
L 210.870932 155.959953 
L 206.886474 155.959953 
L 206.886474 155.755619 
L 202.902017 155.755619 
L 202.902017 155.768593 
L 198.917559 155.768593 
L 198.917559 155.78481 
L 194.933102 155.78481 
L 194.933102 155.885355 
L 190.948645 155.885355 
L 190.948645 155.878327 
L 186.964187 155.878327 
L 186.964187 155.688589 
L 182.97973 155.688589 
L 182.97973 156.188611 
L 178.995273 156.188611 
L 178.995273 155.721564 
L 175.010815 155.721564 
L 175.010815 155.938871 
L 171.026358 155.938871 
L 171.026358 155.885895 
L 167.041901 155.885895 
L 167.041901 155.922113 
L 163.057443 155.922113 
L 163.057443 155.969683 
L 159.072986 155.969683 
L 159.072986 155.841569 
L 155.088529 155.841569 
L 155.088529 153.299293 
L 151.104071 153.299293 
L 151.104071 148.968288 
L 147.119614 148.968288 
L 147.119614 143.944279 
L 143.135156 143.944279 
L 143.135156 138.675395 
L 139.150699 138.675395 
L 139.150699 132.689722 
L 135.166242 132.689722 
L 135.166242 125.591566 
L 131.181784 125.591566 
L 131.181784 118.283131 
L 127.197327 118.283131 
L 127.197327 109.637338 
L 123.21287 109.637338 
L 123.21287 100.381789 
L 119.228412 100.381789 
L 119.228412 89.16453 
L 115.243955 89.16453 
L 115.243955 77.724558 
L 111.259498 77.724558 
L 111.259498 66.404592 
L 107.27504 66.404592 
L 107.27504 55.347881 
L 103.290583 55.347881 
L 103.290583 46.291799 
L 99.306125 46.291799 
L 99.306125 38.114136 
L 95.321668 38.114136 
L 95.321668 33.281487 
L 91.337211 33.281487 
L 91.337211 32.014403 
L 87.352753 32.014403 
L 87.352753 37.652494 
L 83.368296 37.652494 
L 83.368296 51.248778 
L 79.383839 51.248778 
L 79.383839 74.561714 
L 75.399381 74.561714 
L 75.399381 111.542288 
L 71.414924 111.542288 
L 71.414924 164.253837 
L 67.430467 164.253837 
L 67.430467 184.030939 
L 63.446009 184.030939 
L 63.446009 184.030939 
" style="fill:none;stroke:#ff7f00;stroke-linecap:square;stroke-width:1.4;"/>
   </g>
   <g id="line2d_8">
    <path clip-path="url(#p3b748eb75c)" d="M 254.699962 155.98934 
L 156.20747 155.942453 
L 153.042305 153.012045 
L 149.87714 149.775913 
L 146.898161 146.422344 
L 143.919182 142.74046 
L 140.940203 138.69812 
L 137.961224 134.260034 
L 135.168431 129.705509 
L 132.375638 124.734201 
L 129.582845 119.307969 
L 126.790053 113.385184 
L 123.99726 106.920406 
L 121.204467 99.864038 
L 118.411674 92.161943 
L 105.378641 54.821707 
L 102.772035 48.295104 
L 100.5378 43.278101 
L 98.675938 39.62185 
L 97.000263 36.828601 
L 95.696959 35.036682 
L 94.393656 33.624344 
L 93.276539 32.75078 
L 92.345608 32.284155 
L 91.414677 32.075504 
L 90.669932 32.107875 
L 89.925188 32.329127 
L 89.180443 32.750589 
L 88.249512 33.577011 
L 87.318581 34.758955 
L 86.38765 36.321904 
L 85.456719 38.292692 
L 84.339602 41.23586 
L 83.222485 44.858699 
L 82.105368 49.21607 
L 80.802065 55.305977 
L 79.498761 62.573872 
L 78.195458 71.125588 
L 76.892155 81.074494 
L 75.402665 94.311612 
L 73.913176 109.727326 
L 72.423686 127.532083 
L 70.934197 147.953019 
L 69.444707 171.235154 
L 68.699962 184.030939 
L 68.699962 184.030939 
" style="fill:none;stroke:#ff7f00;stroke-dasharray:1.000000,3.000000;stroke-dashoffset:0.0;stroke-width:2.6;"/>
   </g>
   <g id="line2d_9">
    <defs>
     <path d="M 0 2 
C 0.530406 2 1.03916 1.789267 1.414214 1.414214 
C 1.789267 1.03916 2 0.530406 2 0 
C 2 -0.530406 1.789267 -1.03916 1.414214 -1.414214 
C 1.03916 -1.789267 0.530406 -2 0 -2 
C -0.530406 -2 -1.03916 -1.789267 -1.414214 -1.414214 
C -1.789267 -1.03916 -2 -0.530406 -2 0 
C -2 0.530406 -1.789267 1.03916 -1.414214 1.414214 
C -1.03916 1.789267 -0.530406 2 0 2 
z
" id="m59e8341964" style="stroke:#ff7f00;stroke-width:0.5;"/>
    </defs>
    <g clip-path="url(#p3b748eb75c)">
     <use style="fill:#ff7f00;stroke:#ff7f00;stroke-width:0.5;" x="252.170259087" xlink:href="#m59e8341964" y="165.450757939"/>
     <use style="fill:#ff7f00;stroke:#ff7f00;stroke-width:0.5;" x="247.154449624" xlink:href="#m59e8341964" y="164.601917177"/>
     <use style="fill:#ff7f00;stroke:#ff7f00;stroke-width:0.5;" x="242.138640161" xlink:href="#m59e8341964" y="156.96235032"/>
     <use style="fill:#ff7f00;stroke:#ff7f00;stroke-width:0.5;" x="237.122830699" xlink:href="#m59e8341964" y="150.360255504"/>
     <use style="fill:#ff7f00;stroke:#ff7f00;stroke-width:0.5;" x="232.107021236" xlink:href="#m59e8341964" y="148.75688962"/>
     <use style="fill:#ff7f00;stroke:#ff7f00;stroke-width:0.5;" x="227.091211773" xlink:href="#m59e8341964" y="147.436470657"/>
     <use style="fill:#ff7f00;stroke:#ff7f00;stroke-width:0.5;" x="222.07540231" xlink:href="#m59e8341964" y="151.586358827"/>
     <use style="fill:#ff7f00;stroke:#ff7f00;stroke-width:0.5;" x="217.059592848" xlink:href="#m59e8341964" y="148.75688962"/>
     <use style="fill:#ff7f00;stroke:#ff7f00;stroke-width:0.5;" x="212.043783385" xlink:href="#m59e8341964" y="153.755618552"/>
     <use style="fill:#ff7f00;stroke:#ff7f00;stroke-width:0.5;" x="207.027973922" xlink:href="#m59e8341964" y="156.96235032"/>
     <use style="fill:#ff7f00;stroke:#ff7f00;stroke-width:0.5;" x="202.012164459" xlink:href="#m59e8341964" y="158.377084923"/>
     <use style="fill:#ff7f00;stroke:#ff7f00;stroke-width:0.5;" x="196.996354997" xlink:href="#m59e8341964" y="159.791819526"/>
     <use style="fill:#ff7f00;stroke:#ff7f00;stroke-width:0.5;" x="191.980545534" xlink:href="#m59e8341964" y="160.546344648"/>
     <use style="fill:#ff7f00;stroke:#ff7f00;stroke-width:0.5;" x="186.964736071" xlink:href="#m59e8341964" y="162.526973092"/>
     <use style="fill:#ff7f00;stroke:#ff7f00;stroke-width:0.5;" x="181.948926608" xlink:href="#m59e8341964" y="162.904235653"/>
     <use style="fill:#ff7f00;stroke:#ff7f00;stroke-width:0.5;" x="176.933117145" xlink:href="#m59e8341964" y="161.112238489"/>
     <use style="fill:#ff7f00;stroke:#ff7f00;stroke-width:0.5;" x="171.917307683" xlink:href="#m59e8341964" y="160.923607209"/>
     <use style="fill:#ff7f00;stroke:#ff7f00;stroke-width:0.5;" x="166.90149822" xlink:href="#m59e8341964" y="158.188453642"/>
     <use style="fill:#ff7f00;stroke:#ff7f00;stroke-width:0.5;" x="161.885688757" xlink:href="#m59e8341964" y="155.358984436"/>
     <use style="fill:#ff7f00;stroke:#ff7f00;stroke-width:0.5;" x="156.869879294" xlink:href="#m59e8341964" y="158.565716203"/>
     <use style="fill:#ff7f00;stroke:#ff7f00;stroke-width:0.5;" x="151.854069832" xlink:href="#m59e8341964" y="153.284040351"/>
     <use style="fill:#ff7f00;stroke:#ff7f00;stroke-width:0.5;" x="146.838260369" xlink:href="#m59e8341964" y="151.303411906"/>
     <use style="fill:#ff7f00;stroke:#ff7f00;stroke-width:0.5;" x="141.822450906" xlink:href="#m59e8341964" y="140.457113281"/>
     <use style="fill:#ff7f00;stroke:#ff7f00;stroke-width:0.5;" x="136.806641443" xlink:href="#m59e8341964" y="133.760702826"/>
     <use style="fill:#ff7f00;stroke:#ff7f00;stroke-width:0.5;" x="131.790831981" xlink:href="#m59e8341964" y="123.197351121"/>
     <use style="fill:#ff7f00;stroke:#ff7f00;stroke-width:0.5;" x="126.775022518" xlink:href="#m59e8341964" y="116.029362464"/>
     <use style="fill:#ff7f00;stroke:#ff7f00;stroke-width:0.5;" x="121.759213055" xlink:href="#m59e8341964" y="103.485382315"/>
     <use style="fill:#ff7f00;stroke:#ff7f00;stroke-width:0.5;" x="116.743403592" xlink:href="#m59e8341964" y="86.8858296365"/>
     <use style="fill:#ff7f00;stroke:#ff7f00;stroke-width:0.5;" x="111.72759413" xlink:href="#m59e8341964" y="74.1532182069"/>
     <use style="fill:#ff7f00;stroke:#ff7f00;stroke-width:0.5;" x="106.711784667" xlink:href="#m59e8341964" y="64.721654185"/>
     <use style="fill:#ff7f00;stroke:#ff7f00;stroke-width:0.5;" x="101.695975204" xlink:href="#m59e8341964" y="49.6311517498"/>
     <use style="fill:#ff7f00;stroke:#ff7f00;stroke-width:0.5;" x="96.6801657412" xlink:href="#m59e8341964" y="30.3907611451"/>
     <use style="fill:#ff7f00;stroke:#ff7f00;stroke-width:0.5;" x="91.6643562784" xlink:href="#m59e8341964" y="22.5625630069"/>
     <use style="fill:#ff7f00;stroke:#ff7f00;stroke-width:0.5;" x="86.6485468157" xlink:href="#m59e8341964" y="22.5625630069"/>
     <use style="fill:#ff7f00;stroke:#ff7f00;stroke-width:0.5;" x="81.6327373529" xlink:href="#m59e8341964" y="48.405048427"/>
     <use style="fill:#ff7f00;stroke:#ff7f00;stroke-width:0.5;" x="76.6169278901" xlink:href="#m59e8341964" y="81.2268912233"/>
     <use style="fill:#ff7f00;stroke:#ff7f00;stroke-width:0.5;" x="71.6011184274" xlink:href="#m59e8341964" y="141.023007122"/>
     <use style="fill:#ff7f00;stroke:#ff7f00;stroke-width:0.5;" x="66.5853089646" xlink:href="#m59e8341964" y="169.600646109"/>
     <use style="fill:#ff7f00;stroke:#ff7f00;stroke-width:0.5;" x="61.5694995018" xlink:href="#m59e8341964" y="177.428844247"/>
     <use style="fill:#ff7f00;stroke:#ff7f00;stroke-width:0.5;" x="56.5536900391" xlink:href="#m59e8341964" y="181.861679337"/>
    </g>
   </g>
   <g id="line2d_10">
    <path clip-path="url(#p3b748eb75c)" d="M 68.699962 184.030939 
L 68.699962 11.230939 
" style="fill:none;stroke:#000000;stroke-linecap:square;"/>
   </g>
   <g id="patch_3">
    <path d="M 31.499963 11.230939 
L 254.699962 11.230939 
" style="fill:none;stroke:#000000;stroke-linecap:square;stroke-linejoin:miter;"/>
   </g>
   <g id="patch_4">
    <path d="M 31.499963 184.030939 
L 31.499963 11.230939 
" style="fill:none;stroke:#000000;stroke-linecap:square;stroke-linejoin:miter;"/>
   </g>
   <g id="patch_5">
    <path d="M 254.699962 184.030939 
L 254.699962 11.230939 
" style="fill:none;stroke:#000000;stroke-linecap:square;stroke-linejoin:miter;"/>
   </g>
   <g id="patch_6">
    <path d="M 31.499963 184.030939 
L 254.699962 184.030939 
" style="fill:none;stroke:#000000;stroke-linecap:square;stroke-linejoin:miter;"/>
   </g>
   <g id="matplotlib.axis_1">
    <g id="xtick_1">
     <g id="line2d_11">
      <defs>
       <path d="M 0 0 
L 0 -4 
" id="m3f5025eef8" style="stroke:#000000;stroke-width:0.5;"/>
      </defs>
      <g>
       <use style="stroke:#000000;stroke-width:0.5;" x="31.4999625" xlink:href="#m3f5025eef8" y="184.030939063"/>
      </g>
     </g>
     <g id="line2d_12">
      <defs>
       <path d="M 0 0 
L 0 4 
" id="m0e917a00fa" style="stroke:#000000;stroke-width:0.5;"/>
      </defs>
      <g>
       <use style="stroke:#000000;stroke-width:0.5;" x="31.4999625" xlink:href="#m0e917a00fa" y="11.2309390625"/>
      </g>
     </g>
     <g id="text_1">
      <!-- −0.1 -->
      <defs>
       <path d="M 31.78125 66.40625 
Q 24.171875 66.40625 20.328125 58.90625 
Q 16.5 51.421875 16.5 36.375 
Q 16.5 21.390625 20.328125 13.890625 
Q 24.171875 6.390625 31.78125 6.390625 
Q 39.453125 6.390625 43.28125 13.890625 
Q 47.125 21.390625 47.125 36.375 
Q 47.125 51.421875 43.28125 58.90625 
Q 39.453125 66.40625 31.78125 66.40625 
M 31.78125 74.21875 
Q 44.046875 74.21875 50.515625 64.515625 
Q 56.984375 54.828125 56.984375 36.375 
Q 56.984375 17.96875 50.515625 8.265625 
Q 44.046875 -1.421875 31.78125 -1.421875 
Q 19.53125 -1.421875 13.0625 8.265625 
Q 6.59375 17.96875 6.59375 36.375 
Q 6.59375 54.828125 13.0625 64.515625 
Q 19.53125 74.21875 31.78125 74.21875 
" id="BitstreamVeraSans-Roman-30"/>
       <path d="M 10.6875 12.40625 
L 21 12.40625 
L 21 0 
L 10.6875 0 
z
" id="BitstreamVeraSans-Roman-2e"/>
       <path d="M 12.40625 8.296875 
L 28.515625 8.296875 
L 28.515625 63.921875 
L 10.984375 60.40625 
L 10.984375 69.390625 
L 28.421875 72.90625 
L 38.28125 72.90625 
L 38.28125 8.296875 
L 54.390625 8.296875 
L 54.390625 0 
L 12.40625 0 
z
" id="BitstreamVeraSans-Roman-31"/>
       <path d="M 10.59375 35.5 
L 73.1875 35.5 
L 73.1875 27.203125 
L 10.59375 27.203125 
z
" id="BitstreamVeraSans-Roman-2212"/>
      </defs>
      <g transform="translate(21.3861710938 194.3604375)scale(0.0833 -0.0833)">
       <use xlink:href="#BitstreamVeraSans-Roman-2212"/>
       <use x="83.7890625" xlink:href="#BitstreamVeraSans-Roman-30"/>
       <use x="147.412109375" xlink:href="#BitstreamVeraSans-Roman-2e"/>
       <use x="179.19921875" xlink:href="#BitstreamVeraSans-Roman-31"/>
      </g>
     </g>
    </g>
    <g id="xtick_2">
     <g id="line2d_13">
      <g>
       <use style="stroke:#000000;stroke-width:0.5;" x="68.6999625" xlink:href="#m3f5025eef8" y="184.030939063"/>
      </g>
     </g>
     <g id="line2d_14">
      <g>
       <use style="stroke:#000000;stroke-width:0.5;" x="68.6999625" xlink:href="#m0e917a00fa" y="11.2309390625"/>
      </g>
     </g>
     <g id="text_2">
      <!-- 0.0 -->
      <g transform="translate(62.0763109375 194.3604375)scale(0.0833 -0.0833)">
       <use xlink:href="#BitstreamVeraSans-Roman-30"/>
       <use x="63.623046875" xlink:href="#BitstreamVeraSans-Roman-2e"/>
       <use x="95.41015625" xlink:href="#BitstreamVeraSans-Roman-30"/>
      </g>
     </g>
    </g>
    <g id="xtick_3">
     <g id="line2d_15">
      <g>
       <use style="stroke:#000000;stroke-width:0.5;" x="105.8999625" xlink:href="#m3f5025eef8" y="184.030939063"/>
      </g>
     </g>
     <g id="line2d_16">
      <g>
       <use style="stroke:#000000;stroke-width:0.5;" x="105.8999625" xlink:href="#m0e917a00fa" y="11.2309390625"/>
      </g>
     </g>
     <g id="text_3">
      <!-- 0.1 -->
      <g transform="translate(99.2763109375 194.3604375)scale(0.0833 -0.0833)">
       <use xlink:href="#BitstreamVeraSans-Roman-30"/>
       <use x="63.623046875" xlink:href="#BitstreamVeraSans-Roman-2e"/>
       <use x="95.41015625" xlink:href="#BitstreamVeraSans-Roman-31"/>
      </g>
     </g>
    </g>
    <g id="xtick_4">
     <g id="line2d_17">
      <g>
       <use style="stroke:#000000;stroke-width:0.5;" x="143.0999625" xlink:href="#m3f5025eef8" y="184.030939063"/>
      </g>
     </g>
     <g id="line2d_18">
      <g>
       <use style="stroke:#000000;stroke-width:0.5;" x="143.0999625" xlink:href="#m0e917a00fa" y="11.2309390625"/>
      </g>
     </g>
     <g id="text_4">
      <!-- 0.2 -->
      <defs>
       <path d="M 19.1875 8.296875 
L 53.609375 8.296875 
L 53.609375 0 
L 7.328125 0 
L 7.328125 8.296875 
Q 12.9375 14.109375 22.625 23.890625 
Q 32.328125 33.6875 34.8125 36.53125 
Q 39.546875 41.84375 41.421875 45.53125 
Q 43.3125 49.21875 43.3125 52.78125 
Q 43.3125 58.59375 39.234375 62.25 
Q 35.15625 65.921875 28.609375 65.921875 
Q 23.96875 65.921875 18.8125 64.3125 
Q 13.671875 62.703125 7.8125 59.421875 
L 7.8125 69.390625 
Q 13.765625 71.78125 18.9375 73 
Q 24.125 74.21875 28.421875 74.21875 
Q 39.75 74.21875 46.484375 68.546875 
Q 53.21875 62.890625 53.21875 53.421875 
Q 53.21875 48.921875 51.53125 44.890625 
Q 49.859375 40.875 45.40625 35.40625 
Q 44.1875 33.984375 37.640625 27.21875 
Q 31.109375 20.453125 19.1875 8.296875 
" id="BitstreamVeraSans-Roman-32"/>
      </defs>
      <g transform="translate(136.476310938 194.3604375)scale(0.0833 -0.0833)">
       <use xlink:href="#BitstreamVeraSans-Roman-30"/>
       <use x="63.623046875" xlink:href="#BitstreamVeraSans-Roman-2e"/>
       <use x="95.41015625" xlink:href="#BitstreamVeraSans-Roman-32"/>
      </g>
     </g>
    </g>
    <g id="xtick_5">
     <g id="line2d_19">
      <g>
       <use style="stroke:#000000;stroke-width:0.5;" x="180.2999625" xlink:href="#m3f5025eef8" y="184.030939063"/>
      </g>
     </g>
     <g id="line2d_20">
      <g>
       <use style="stroke:#000000;stroke-width:0.5;" x="180.2999625" xlink:href="#m0e917a00fa" y="11.2309390625"/>
      </g>
     </g>
     <g id="text_5">
      <!-- 0.3 -->
      <defs>
       <path d="M 40.578125 39.3125 
Q 47.65625 37.796875 51.625 33 
Q 55.609375 28.21875 55.609375 21.1875 
Q 55.609375 10.40625 48.1875 4.484375 
Q 40.765625 -1.421875 27.09375 -1.421875 
Q 22.515625 -1.421875 17.65625 -0.515625 
Q 12.796875 0.390625 7.625 2.203125 
L 7.625 11.71875 
Q 11.71875 9.328125 16.59375 8.109375 
Q 21.484375 6.890625 26.8125 6.890625 
Q 36.078125 6.890625 40.9375 10.546875 
Q 45.796875 14.203125 45.796875 21.1875 
Q 45.796875 27.640625 41.28125 31.265625 
Q 36.765625 34.90625 28.71875 34.90625 
L 20.21875 34.90625 
L 20.21875 43.015625 
L 29.109375 43.015625 
Q 36.375 43.015625 40.234375 45.921875 
Q 44.09375 48.828125 44.09375 54.296875 
Q 44.09375 59.90625 40.109375 62.90625 
Q 36.140625 65.921875 28.71875 65.921875 
Q 24.65625 65.921875 20.015625 65.03125 
Q 15.375 64.15625 9.8125 62.3125 
L 9.8125 71.09375 
Q 15.4375 72.65625 20.34375 73.4375 
Q 25.25 74.21875 29.59375 74.21875 
Q 40.828125 74.21875 47.359375 69.109375 
Q 53.90625 64.015625 53.90625 55.328125 
Q 53.90625 49.265625 50.4375 45.09375 
Q 46.96875 40.921875 40.578125 39.3125 
" id="BitstreamVeraSans-Roman-33"/>
      </defs>
      <g transform="translate(173.676310938 194.3604375)scale(0.0833 -0.0833)">
       <use xlink:href="#BitstreamVeraSans-Roman-30"/>
       <use x="63.623046875" xlink:href="#BitstreamVeraSans-Roman-2e"/>
       <use x="95.41015625" xlink:href="#BitstreamVeraSans-Roman-33"/>
      </g>
     </g>
    </g>
    <g id="xtick_6">
     <g id="line2d_21">
      <g>
       <use style="stroke:#000000;stroke-width:0.5;" x="217.4999625" xlink:href="#m3f5025eef8" y="184.030939063"/>
      </g>
     </g>
     <g id="line2d_22">
      <g>
       <use style="stroke:#000000;stroke-width:0.5;" x="217.4999625" xlink:href="#m0e917a00fa" y="11.2309390625"/>
      </g>
     </g>
     <g id="text_6">
      <!-- 0.4 -->
      <defs>
       <path d="M 37.796875 64.3125 
L 12.890625 25.390625 
L 37.796875 25.390625 
z
M 35.203125 72.90625 
L 47.609375 72.90625 
L 47.609375 25.390625 
L 58.015625 25.390625 
L 58.015625 17.1875 
L 47.609375 17.1875 
L 47.609375 0 
L 37.796875 0 
L 37.796875 17.1875 
L 4.890625 17.1875 
L 4.890625 26.703125 
z
" id="BitstreamVeraSans-Roman-34"/>
      </defs>
      <g transform="translate(210.876310937 194.3604375)scale(0.0833 -0.0833)">
       <use xlink:href="#BitstreamVeraSans-Roman-30"/>
       <use x="63.623046875" xlink:href="#BitstreamVeraSans-Roman-2e"/>
       <use x="95.41015625" xlink:href="#BitstreamVeraSans-Roman-34"/>
      </g>
     </g>
    </g>
    <g id="xtick_7">
     <g id="line2d_23">
      <g>
       <use style="stroke:#000000;stroke-width:0.5;" x="254.6999625" xlink:href="#m3f5025eef8" y="184.030939063"/>
      </g>
     </g>
     <g id="line2d_24">
      <g>
       <use style="stroke:#000000;stroke-width:0.5;" x="254.6999625" xlink:href="#m0e917a00fa" y="11.2309390625"/>
      </g>
     </g>
     <g id="text_7">
      <!-- 0.5 -->
      <defs>
       <path d="M 10.796875 72.90625 
L 49.515625 72.90625 
L 49.515625 64.59375 
L 19.828125 64.59375 
L 19.828125 46.734375 
Q 21.96875 47.46875 24.109375 47.828125 
Q 26.265625 48.1875 28.421875 48.1875 
Q 40.625 48.1875 47.75 41.5 
Q 54.890625 34.8125 54.890625 23.390625 
Q 54.890625 11.625 47.5625 5.09375 
Q 40.234375 -1.421875 26.90625 -1.421875 
Q 22.3125 -1.421875 17.546875 -0.640625 
Q 12.796875 0.140625 7.71875 1.703125 
L 7.71875 11.625 
Q 12.109375 9.234375 16.796875 8.0625 
Q 21.484375 6.890625 26.703125 6.890625 
Q 35.15625 6.890625 40.078125 11.328125 
Q 45.015625 15.765625 45.015625 23.390625 
Q 45.015625 31 40.078125 35.4375 
Q 35.15625 39.890625 26.703125 39.890625 
Q 22.75 39.890625 18.8125 39.015625 
Q 14.890625 38.140625 10.796875 36.28125 
z
" id="BitstreamVeraSans-Roman-35"/>
      </defs>
      <g transform="translate(248.076310938 194.3604375)scale(0.0833 -0.0833)">
       <use xlink:href="#BitstreamVeraSans-Roman-30"/>
       <use x="63.623046875" xlink:href="#BitstreamVeraSans-Roman-2e"/>
       <use x="95.41015625" xlink:href="#BitstreamVeraSans-Roman-35"/>
      </g>
     </g>
    </g>
    <g id="text_8">
     <!-- $x$ -->
     <defs>
      <path d="M 7.8125 2.875 
Q 9.578125 1.515625 12.796875 1.515625 
Q 15.921875 1.515625 18.3125 4.515625 
Q 20.703125 7.515625 21.578125 11.078125 
L 26.125 28.8125 
Q 27.203125 33.640625 27.203125 35.40625 
Q 27.203125 37.890625 25.8125 39.75 
Q 24.421875 41.609375 21.921875 41.609375 
Q 18.75 41.609375 15.96875 39.625 
Q 13.1875 37.640625 11.28125 34.59375 
Q 9.375 31.546875 8.59375 28.421875 
Q 8.40625 27.78125 7.8125 27.78125 
L 6.59375 27.78125 
Q 5.8125 27.78125 5.8125 28.71875 
L 5.8125 29 
Q 6.78125 32.71875 9.125 36.25 
Q 11.46875 39.796875 14.859375 41.984375 
Q 18.265625 44.1875 22.125 44.1875 
Q 25.78125 44.1875 28.734375 42.234375 
Q 31.6875 40.28125 32.90625 36.921875 
Q 34.625 39.984375 37.28125 42.078125 
Q 39.9375 44.1875 43.109375 44.1875 
Q 45.265625 44.1875 47.5 43.421875 
Q 49.75 42.671875 51.171875 41.109375 
Q 52.59375 39.546875 52.59375 37.203125 
Q 52.59375 34.671875 50.953125 32.828125 
Q 49.3125 31 46.78125 31 
Q 45.171875 31 44.09375 32.03125 
Q 43.015625 33.0625 43.015625 34.625 
Q 43.015625 36.71875 44.453125 38.296875 
Q 45.90625 39.890625 47.90625 40.1875 
Q 46.09375 41.609375 42.921875 41.609375 
Q 39.703125 41.609375 37.328125 38.625 
Q 34.96875 35.640625 33.984375 31.984375 
L 29.59375 14.3125 
Q 28.515625 10.296875 28.515625 7.71875 
Q 28.515625 5.171875 29.953125 3.34375 
Q 31.390625 1.515625 33.796875 1.515625 
Q 38.484375 1.515625 42.15625 5.640625 
Q 45.84375 9.765625 47.015625 14.703125 
Q 47.21875 15.28125 47.796875 15.28125 
L 49.03125 15.28125 
Q 49.421875 15.28125 49.65625 15.015625 
Q 49.90625 14.75 49.90625 14.40625 
Q 49.90625 14.3125 49.8125 14.109375 
Q 48.390625 8.15625 43.84375 3.515625 
Q 39.3125 -1.125 33.59375 -1.125 
Q 29.9375 -1.125 26.984375 0.84375 
Q 24.03125 2.828125 22.796875 6.203125 
Q 21.234375 3.265625 18.46875 1.0625 
Q 15.71875 -1.125 12.59375 -1.125 
Q 10.453125 -1.125 8.171875 -0.359375 
Q 5.90625 0.390625 4.484375 1.953125 
Q 3.078125 3.515625 3.078125 5.90625 
Q 3.078125 8.25 4.703125 10.171875 
Q 6.34375 12.109375 8.796875 12.109375 
Q 10.453125 12.109375 11.578125 11.109375 
Q 12.703125 10.109375 12.703125 8.5 
Q 12.703125 6.390625 11.296875 4.828125 
Q 9.90625 3.265625 7.8125 2.875 
" id="Cmmi10-78"/>
     </defs>
     <g transform="translate(140.1999625 208.691254688)scale(0.1 -0.1)">
      <use transform="translate(0.0 0.8125)" xlink:href="#Cmmi10-78"/>
     </g>
    </g>
   </g>
   <g id="matplotlib.axis_2">
    <g id="ytick_1">
     <g id="line2d_25">
      <defs>
       <path d="M 0 0 
L 4 0 
" id="m4fd408c267" style="stroke:#000000;stroke-width:0.5;"/>
      </defs>
      <g>
       <use style="stroke:#000000;stroke-width:0.5;" x="31.4999625" xlink:href="#m4fd408c267" y="184.030939063"/>
      </g>
     </g>
     <g id="line2d_26">
      <defs>
       <path d="M 0 0 
L -4 0 
" id="m0fbd83e6ae" style="stroke:#000000;stroke-width:0.5;"/>
      </defs>
      <g>
       <use style="stroke:#000000;stroke-width:0.5;" x="254.6999625" xlink:href="#m0fbd83e6ae" y="184.030939063"/>
      </g>
     </g>
     <g id="text_9">
      <!-- 0 -->
      <g transform="translate(22.2 186.329498438)scale(0.0833 -0.0833)">
       <use xlink:href="#BitstreamVeraSans-Roman-30"/>
      </g>
     </g>
    </g>
    <g id="ytick_2">
     <g id="line2d_27">
      <g>
       <use style="stroke:#000000;stroke-width:0.5;" x="31.4999625" xlink:href="#m4fd408c267" y="155.230939063"/>
      </g>
     </g>
     <g id="line2d_28">
      <g>
       <use style="stroke:#000000;stroke-width:0.5;" x="254.6999625" xlink:href="#m0fbd83e6ae" y="155.230939063"/>
      </g>
     </g>
     <g id="text_10">
      <!-- 1 -->
      <g transform="translate(22.2 157.529498438)scale(0.0833 -0.0833)">
       <use xlink:href="#BitstreamVeraSans-Roman-31"/>
      </g>
     </g>
    </g>
    <g id="ytick_3">
     <g id="line2d_29">
      <g>
       <use style="stroke:#000000;stroke-width:0.5;" x="31.4999625" xlink:href="#m4fd408c267" y="126.430939063"/>
      </g>
     </g>
     <g id="line2d_30">
      <g>
       <use style="stroke:#000000;stroke-width:0.5;" x="254.6999625" xlink:href="#m0fbd83e6ae" y="126.430939063"/>
      </g>
     </g>
     <g id="text_11">
      <!-- 2 -->
      <g transform="translate(22.2 128.729498438)scale(0.0833 -0.0833)">
       <use xlink:href="#BitstreamVeraSans-Roman-32"/>
      </g>
     </g>
    </g>
    <g id="ytick_4">
     <g id="line2d_31">
      <g>
       <use style="stroke:#000000;stroke-width:0.5;" x="31.4999625" xlink:href="#m4fd408c267" y="97.6309390625"/>
      </g>
     </g>
     <g id="line2d_32">
      <g>
       <use style="stroke:#000000;stroke-width:0.5;" x="254.6999625" xlink:href="#m0fbd83e6ae" y="97.6309390625"/>
      </g>
     </g>
     <g id="text_12">
      <!-- 3 -->
      <g transform="translate(22.2 99.9294984375)scale(0.0833 -0.0833)">
       <use xlink:href="#BitstreamVeraSans-Roman-33"/>
      </g>
     </g>
    </g>
    <g id="ytick_5">
     <g id="line2d_33">
      <g>
       <use style="stroke:#000000;stroke-width:0.5;" x="31.4999625" xlink:href="#m4fd408c267" y="68.8309390625"/>
      </g>
     </g>
     <g id="line2d_34">
      <g>
       <use style="stroke:#000000;stroke-width:0.5;" x="254.6999625" xlink:href="#m0fbd83e6ae" y="68.8309390625"/>
      </g>
     </g>
     <g id="text_13">
      <!-- 4 -->
      <g transform="translate(22.2 71.1294984375)scale(0.0833 -0.0833)">
       <use xlink:href="#BitstreamVeraSans-Roman-34"/>
      </g>
     </g>
    </g>
    <g id="ytick_6">
     <g id="line2d_35">
      <g>
       <use style="stroke:#000000;stroke-width:0.5;" x="31.4999625" xlink:href="#m4fd408c267" y="40.0309390625"/>
      </g>
     </g>
     <g id="line2d_36">
      <g>
       <use style="stroke:#000000;stroke-width:0.5;" x="254.6999625" xlink:href="#m0fbd83e6ae" y="40.0309390625"/>
      </g>
     </g>
     <g id="text_14">
      <!-- 5 -->
      <g transform="translate(22.2 42.3294984375)scale(0.0833 -0.0833)">
       <use xlink:href="#BitstreamVeraSans-Roman-35"/>
      </g>
     </g>
    </g>
    <g id="ytick_7">
     <g id="line2d_37">
      <g>
       <use style="stroke:#000000;stroke-width:0.5;" x="31.4999625" xlink:href="#m4fd408c267" y="11.2309390625"/>
      </g>
     </g>
     <g id="line2d_38">
      <g>
       <use style="stroke:#000000;stroke-width:0.5;" x="254.6999625" xlink:href="#m0fbd83e6ae" y="11.2309390625"/>
      </g>
     </g>
     <g id="text_15">
      <!-- 6 -->
      <defs>
       <path d="M 33.015625 40.375 
Q 26.375 40.375 22.484375 35.828125 
Q 18.609375 31.296875 18.609375 23.390625 
Q 18.609375 15.53125 22.484375 10.953125 
Q 26.375 6.390625 33.015625 6.390625 
Q 39.65625 6.390625 43.53125 10.953125 
Q 47.40625 15.53125 47.40625 23.390625 
Q 47.40625 31.296875 43.53125 35.828125 
Q 39.65625 40.375 33.015625 40.375 
M 52.59375 71.296875 
L 52.59375 62.3125 
Q 48.875 64.0625 45.09375 64.984375 
Q 41.3125 65.921875 37.59375 65.921875 
Q 27.828125 65.921875 22.671875 59.328125 
Q 17.53125 52.734375 16.796875 39.40625 
Q 19.671875 43.65625 24.015625 45.921875 
Q 28.375 48.1875 33.59375 48.1875 
Q 44.578125 48.1875 50.953125 41.515625 
Q 57.328125 34.859375 57.328125 23.390625 
Q 57.328125 12.15625 50.6875 5.359375 
Q 44.046875 -1.421875 33.015625 -1.421875 
Q 20.359375 -1.421875 13.671875 8.265625 
Q 6.984375 17.96875 6.984375 36.375 
Q 6.984375 53.65625 15.1875 63.9375 
Q 23.390625 74.21875 37.203125 74.21875 
Q 40.921875 74.21875 44.703125 73.484375 
Q 48.484375 72.75 52.59375 71.296875 
" id="BitstreamVeraSans-Roman-36"/>
      </defs>
      <g transform="translate(22.2 13.5294984375)scale(0.0833 -0.0833)">
       <use xlink:href="#BitstreamVeraSans-Roman-36"/>
      </g>
     </g>
    </g>
    <g id="text_16">
     <!-- $P(x)$ -->
     <defs>
      <path d="M 4.890625 0 
Q 3.90625 0 3.90625 1.3125 
Q 3.953125 1.5625 4.09375 2.171875 
Q 4.25 2.78125 4.515625 3.140625 
Q 4.78125 3.515625 5.171875 3.515625 
Q 11.28125 3.515625 13.71875 4.203125 
Q 14.984375 4.640625 15.578125 6.890625 
L 29.296875 61.8125 
Q 29.5 62.796875 29.5 63.1875 
Q 29.5 64.265625 28.328125 64.40625 
Q 26.421875 64.796875 21.09375 64.796875 
Q 20.125 64.796875 20.125 66.109375 
Q 20.171875 66.359375 20.3125 66.96875 
Q 20.453125 67.578125 20.71875 67.9375 
Q 21 68.3125 21.390625 68.3125 
L 55.90625 68.3125 
Q 60.640625 68.3125 65.078125 66.625 
Q 69.53125 64.9375 72.359375 61.46875 
Q 75.203125 58.015625 75.203125 53.078125 
Q 75.203125 46.734375 70.734375 41.75 
Q 66.265625 36.765625 59.59375 33.984375 
Q 52.9375 31.203125 46.6875 31.203125 
L 30.421875 31.203125 
L 24.3125 6.5 
Q 24.125 5.515625 24.125 5.078125 
Q 24.125 4.6875 24.234375 4.421875 
Q 24.359375 4.15625 24.578125 4.078125 
Q 24.8125 4 25.296875 3.90625 
Q 27.203125 3.515625 32.515625 3.515625 
Q 33.5 3.515625 33.5 2.203125 
Q 33.15625 0.78125 32.953125 0.390625 
Q 32.765625 0 31.78125 0 
z
M 30.90625 34.1875 
L 44.921875 34.1875 
Q 54.640625 34.1875 59.71875 39.40625 
Q 62.3125 42 63.9375 46.875 
Q 65.578125 51.765625 65.578125 55.71875 
Q 65.578125 60.640625 61.8125 62.71875 
Q 58.0625 64.796875 52.484375 64.796875 
L 42.921875 64.796875 
Q 40.1875 64.796875 39.296875 64.328125 
Q 38.421875 63.875 37.703125 61.375 
z
" id="Cmmi10-50"/>
      <path d="M 6.5 -25 
Q 5.609375 -25 5.609375 -24.125 
Q 5.609375 -23.6875 5.8125 -23.484375 
Q 22.90625 -6.78125 22.90625 25 
Q 22.90625 56.78125 6 73.296875 
Q 5.609375 73.53125 5.609375 74.125 
Q 5.609375 74.46875 5.875 74.734375 
Q 6.15625 75 6.5 75 
L 7.421875 75 
Q 7.71875 75 7.90625 74.8125 
Q 15.09375 69.140625 19.875 61.03125 
Q 24.65625 52.9375 26.875 43.75 
Q 29.109375 34.578125 29.109375 25 
Q 29.109375 17.921875 27.90625 11.0625 
Q 26.703125 4.203125 24.09375 -2.453125 
Q 21.484375 -9.125 17.484375 -14.765625 
Q 13.484375 -20.40625 7.90625 -24.8125 
Q 7.71875 -25 7.421875 -25 
z
" id="Cmr10-29"/>
      <path d="M 31 -24.8125 
Q 25.4375 -20.40625 21.40625 -14.71875 
Q 17.390625 -9.03125 14.8125 -2.578125 
Q 12.25 3.859375 10.984375 10.890625 
Q 9.71875 17.921875 9.71875 25 
Q 9.71875 32.171875 10.984375 39.203125 
Q 12.25 46.234375 14.859375 52.734375 
Q 17.484375 59.234375 21.53125 64.890625 
Q 25.59375 70.5625 31 74.8125 
Q 31 75 31.5 75 
L 32.421875 75 
Q 32.71875 75 32.953125 74.734375 
Q 33.203125 74.46875 33.203125 74.125 
Q 33.203125 73.6875 33.015625 73.484375 
Q 28.125 68.703125 24.875 63.234375 
Q 21.625 57.765625 19.640625 51.578125 
Q 17.671875 45.40625 16.796875 38.78125 
Q 15.921875 32.171875 15.921875 25 
Q 15.921875 -6.78125 32.90625 -23.296875 
Q 33.203125 -23.578125 33.203125 -24.125 
Q 33.203125 -24.359375 32.9375 -24.671875 
Q 32.671875 -25 32.421875 -25 
L 31.5 -25 
Q 31 -25 31 -24.8125 
" id="Cmr10-28"/>
     </defs>
     <g transform="translate(14.7 107.580939063)rotate(-90.0)scale(0.1 -0.1)">
      <use xlink:href="#Cmmi10-50"/>
      <use transform="translate(64.208984375 0.0)" xlink:href="#Cmr10-28"/>
      <use transform="translate(103.02734375 0.0)" xlink:href="#Cmmi10-78"/>
      <use transform="translate(160.107421875 0.0)" xlink:href="#Cmr10-29"/>
     </g>
    </g>
   </g>
   <g id="legend_1">
    <g id="patch_7">
     <path d="M 198.365734 68.539011 
L 248.868963 68.539011 
Q 250.534963 68.539011 250.534963 66.873011 
L 250.534963 17.061939 
Q 250.534963 15.395939 248.868963 15.395939 
L 198.365734 15.395939 
Q 196.699734 15.395939 196.699734 17.061939 
L 196.699734 66.873011 
Q 196.699734 68.539011 198.365734 68.539011 
z
" style="fill:#ffffff;stroke:#000000;stroke-linejoin:miter;"/>
    </g>
    <g id="text_17">
     <!-- $R$ $\left(\mathrm{\mu m}\right)$ -->
     <defs>
      <path id="BitstreamVeraSans-Roman-20"/>
      <path d="M 2.984375 0 
L 2.984375 3.515625 
Q 6.390625 3.515625 8.59375 4.046875 
Q 10.796875 4.59375 10.796875 6.6875 
L 10.796875 33.984375 
Q 10.796875 36.671875 9.984375 37.859375 
Q 9.1875 39.0625 7.671875 39.328125 
Q 6.15625 39.59375 2.984375 39.59375 
L 2.984375 43.109375 
L 17.484375 44.1875 
L 17.484375 34.421875 
Q 19.484375 38.71875 23.40625 41.453125 
Q 27.34375 44.1875 31.984375 44.1875 
Q 43.5 44.1875 45.515625 34.8125 
Q 47.515625 39.015625 51.359375 41.59375 
Q 55.21875 44.1875 59.8125 44.1875 
Q 64.359375 44.1875 67.453125 42.71875 
Q 70.5625 41.265625 72.125 38.25 
Q 73.6875 35.25 73.6875 30.71875 
L 73.6875 6.6875 
Q 73.6875 4.59375 75.90625 4.046875 
Q 78.125 3.515625 81.5 3.515625 
L 81.5 0 
L 58.59375 0 
L 58.59375 3.515625 
Q 62.015625 3.515625 64.203125 4.046875 
Q 66.40625 4.59375 66.40625 6.6875 
L 66.40625 30.421875 
Q 66.40625 35.453125 64.984375 38.53125 
Q 63.578125 41.609375 59.1875 41.609375 
Q 53.421875 41.609375 49.65625 36.96875 
Q 45.90625 32.328125 45.90625 26.421875 
L 45.90625 6.6875 
Q 45.90625 4.59375 48.09375 4.046875 
Q 50.296875 3.515625 53.71875 3.515625 
L 53.71875 0 
L 30.8125 0 
L 30.8125 3.515625 
Q 34.234375 3.515625 36.421875 4.046875 
Q 38.625 4.59375 38.625 6.6875 
L 38.625 30.421875 
Q 38.625 35.296875 37.203125 38.453125 
Q 35.796875 41.609375 31.390625 41.609375 
Q 25.59375 41.609375 21.84375 36.96875 
Q 18.109375 32.328125 18.109375 26.421875 
L 18.109375 6.6875 
Q 18.109375 4.59375 20.3125 4.046875 
Q 22.515625 3.515625 25.875 3.515625 
L 25.875 0 
z
" id="Cmr10-6d"/>
      <path d="M 4.890625 0 
Q 3.90625 0 3.90625 1.3125 
Q 3.953125 1.5625 4.09375 2.171875 
Q 4.25 2.78125 4.515625 3.140625 
Q 4.78125 3.515625 5.171875 3.515625 
Q 11.28125 3.515625 13.71875 4.203125 
Q 14.984375 4.640625 15.578125 6.890625 
L 29.296875 61.8125 
Q 29.5 62.796875 29.5 63.1875 
Q 29.5 64.265625 28.328125 64.40625 
Q 26.421875 64.796875 21.09375 64.796875 
Q 20.125 64.796875 20.125 66.109375 
Q 20.171875 66.359375 20.3125 66.96875 
Q 20.453125 67.578125 20.71875 67.9375 
Q 21 68.3125 21.390625 68.3125 
L 51.703125 68.3125 
Q 55.328125 68.3125 59.234375 67.484375 
Q 63.140625 66.65625 66.40625 64.875 
Q 69.671875 63.09375 71.765625 60.125 
Q 73.875 57.171875 73.875 53.21875 
Q 73.875 48.1875 70.546875 44.234375 
Q 67.234375 40.28125 62.15625 37.625 
Q 57.078125 34.96875 52.296875 33.890625 
Q 56.203125 32.46875 58.6875 29.359375 
Q 61.1875 26.265625 61.1875 22.21875 
Q 61.1875 21.6875 61.15625 21.40625 
Q 61.140625 21.140625 61.078125 20.796875 
L 60.296875 11.921875 
Q 60.203125 9.96875 60.109375 8.59375 
Q 60.015625 7.234375 60.015625 6.390625 
Q 60.015625 3.65625 60.8125 2.015625 
Q 61.625 0.390625 64.015625 0.390625 
Q 67.140625 0.390625 69.5 3.296875 
Q 71.875 6.203125 72.609375 9.625 
Q 73.046875 10.5 73.578125 10.5 
L 74.515625 10.5 
Q 75.484375 10.5 75.484375 9.1875 
Q 74.75 6.296875 73.15625 3.703125 
Q 71.578125 1.125 69.15625 -0.53125 
Q 66.75 -2.203125 63.921875 -2.203125 
Q 58.0625 -2.203125 53.9375 0.40625 
Q 49.8125 3.03125 49.8125 8.59375 
Q 49.8125 10.6875 50.203125 12.3125 
L 52.390625 21.1875 
Q 52.78125 22.40625 52.78125 24.03125 
Q 52.78125 28.171875 49.96875 30.53125 
Q 47.171875 32.90625 42.921875 32.90625 
L 30.609375 32.90625 
L 24.03125 6.5 
Q 23.78125 5.671875 23.78125 5.078125 
Q 23.78125 4.046875 25 3.90625 
Q 26.90625 3.515625 32.171875 3.515625 
Q 33.203125 3.515625 33.203125 2.203125 
Q 32.859375 0.78125 32.65625 0.390625 
Q 32.46875 0 31.5 0 
z
M 31.203125 35.5 
L 42.28125 35.5 
Q 53.171875 35.5 58.6875 41.015625 
Q 61.234375 43.5625 62.71875 47.484375 
Q 64.203125 51.421875 64.203125 55.328125 
Q 64.203125 59.03125 62.03125 61.125 
Q 59.859375 63.234375 56.65625 64.015625 
Q 53.46875 64.796875 49.609375 64.796875 
L 42.921875 64.796875 
Q 40.1875 64.796875 39.296875 64.328125 
Q 38.421875 63.875 37.703125 61.375 
z
" id="Cmmi10-52"/>
      <path d="M 2.78125 -18.796875 
Q 2.78125 -18.21875 2.875 -18.015625 
L 17.578125 41.015625 
Q 18.015625 42.4375 19.15625 43.3125 
Q 20.3125 44.1875 21.78125 44.1875 
Q 23.046875 44.1875 23.921875 43.421875 
Q 24.8125 42.671875 24.8125 41.40625 
Q 24.8125 41.109375 24.78125 40.9375 
Q 24.75 40.765625 24.703125 40.578125 
L 18.796875 17.1875 
Q 17.828125 13.03125 17.828125 10.015625 
Q 17.828125 6.296875 19.578125 3.90625 
Q 21.34375 1.515625 24.90625 1.515625 
Q 32.171875 1.515625 37.703125 10.59375 
Q 37.75 10.6875 37.765625 10.734375 
Q 37.796875 10.796875 37.796875 10.890625 
L 45.015625 39.890625 
Q 45.359375 41.21875 46.578125 42.15625 
Q 47.796875 43.109375 49.21875 43.109375 
Q 50.390625 43.109375 51.296875 42.328125 
Q 52.203125 41.546875 52.203125 40.28125 
Q 52.203125 39.703125 52.09375 39.5 
L 44.921875 10.6875 
Q 44.1875 7.859375 44.1875 5.8125 
Q 44.1875 1.515625 47.125 1.515625 
Q 50.25 1.515625 51.828125 5.375 
Q 53.421875 9.234375 54.59375 14.703125 
Q 54.78125 15.28125 55.421875 15.28125 
L 56.59375 15.28125 
Q 56.984375 15.28125 57.25 14.96875 
Q 57.515625 14.65625 57.515625 14.3125 
Q 55.765625 7.328125 53.6875 3.09375 
Q 51.609375 -1.125 46.921875 -1.125 
Q 43.609375 -1.125 41.046875 0.78125 
Q 38.484375 2.6875 37.703125 5.90625 
Q 35.203125 2.78125 31.859375 0.828125 
Q 28.515625 -1.125 24.8125 -1.125 
Q 18.5625 -1.125 14.984375 1.8125 
L 9.90625 -18.40625 
Q 9.625 -19.828125 8.453125 -20.703125 
Q 7.28125 -21.578125 5.8125 -21.578125 
Q 4.59375 -21.578125 3.6875 -20.8125 
Q 2.78125 -20.0625 2.78125 -18.796875 
" id="Cmmi10-b9"/>
     </defs>
     <g transform="translate(208.467348437 26.3263765625)scale(0.1 -0.1)">
      <use transform="translate(0.0 0.6875)" xlink:href="#Cmmi10-52"/>
      <use transform="translate(75.87890625 0.6875)" xlink:href="#BitstreamVeraSans-Roman-20"/>
      <use transform="translate(107.666015625 -4.453125)scale(0.65765625)" xlink:href="#Cmr10-28"/>
      <use transform="translate(133.1951446533203 0.6875)" xlink:href="#Cmmi10-b9"/>
      <use transform="translate(193.4002227783203 0.6875)" xlink:href="#Cmr10-6d"/>
      <use transform="translate(276.7010040283203 -4.453125)scale(0.65765625)" xlink:href="#Cmr10-29"/>
     </g>
    </g>
    <g id="line2d_39">
     <path d="M 202.530734 36.105375 
L 214.192734 36.105375 
" style="fill:none;stroke:#4daf4a;stroke-linecap:square;stroke-width:1.4;"/>
    </g>
    <g id="line2d_40"/>
    <g id="text_18">
     <!-- 0.06 -->
     <g transform="translate(223.355734375 39.020875)scale(0.0833 -0.0833)">
      <use xlink:href="#BitstreamVeraSans-Roman-30"/>
      <use x="63.623046875" xlink:href="#BitstreamVeraSans-Roman-2e"/>
      <use x="95.41015625" xlink:href="#BitstreamVeraSans-Roman-30"/>
      <use x="159.033203125" xlink:href="#BitstreamVeraSans-Roman-36"/>
     </g>
    </g>
    <g id="line2d_41">
     <path d="M 202.530734 48.332253 
L 214.192734 48.332253 
" style="fill:none;stroke:#984ea3;stroke-linecap:square;stroke-width:1.4;"/>
    </g>
    <g id="line2d_42"/>
    <g id="text_19">
     <!-- 0.095 -->
     <defs>
      <path d="M 10.984375 1.515625 
L 10.984375 10.5 
Q 14.703125 8.734375 18.5 7.8125 
Q 22.3125 6.890625 25.984375 6.890625 
Q 35.75 6.890625 40.890625 13.453125 
Q 46.046875 20.015625 46.78125 33.40625 
Q 43.953125 29.203125 39.59375 26.953125 
Q 35.25 24.703125 29.984375 24.703125 
Q 19.046875 24.703125 12.671875 31.3125 
Q 6.296875 37.9375 6.296875 49.421875 
Q 6.296875 60.640625 12.9375 67.421875 
Q 19.578125 74.21875 30.609375 74.21875 
Q 43.265625 74.21875 49.921875 64.515625 
Q 56.59375 54.828125 56.59375 36.375 
Q 56.59375 19.140625 48.40625 8.859375 
Q 40.234375 -1.421875 26.421875 -1.421875 
Q 22.703125 -1.421875 18.890625 -0.6875 
Q 15.09375 0.046875 10.984375 1.515625 
M 30.609375 32.421875 
Q 37.25 32.421875 41.125 36.953125 
Q 45.015625 41.5 45.015625 49.421875 
Q 45.015625 57.28125 41.125 61.84375 
Q 37.25 66.40625 30.609375 66.40625 
Q 23.96875 66.40625 20.09375 61.84375 
Q 16.21875 57.28125 16.21875 49.421875 
Q 16.21875 41.5 20.09375 36.953125 
Q 23.96875 32.421875 30.609375 32.421875 
" id="BitstreamVeraSans-Roman-39"/>
     </defs>
     <g transform="translate(223.355734375 51.247753125)scale(0.0833 -0.0833)">
      <use xlink:href="#BitstreamVeraSans-Roman-30"/>
      <use x="63.623046875" xlink:href="#BitstreamVeraSans-Roman-2e"/>
      <use x="95.41015625" xlink:href="#BitstreamVeraSans-Roman-30"/>
      <use x="159.033203125" xlink:href="#BitstreamVeraSans-Roman-39"/>
      <use x="222.65625" xlink:href="#BitstreamVeraSans-Roman-35"/>
     </g>
    </g>
    <g id="line2d_43">
     <path d="M 202.530734 60.559131 
L 214.192734 60.559131 
" style="fill:none;stroke:#ff7f00;stroke-linecap:square;stroke-width:1.4;"/>
    </g>
    <g id="line2d_44"/>
    <g id="text_20">
     <!-- 0.15 -->
     <g transform="translate(223.355734375 63.47463125)scale(0.0833 -0.0833)">
      <use xlink:href="#BitstreamVeraSans-Roman-30"/>
      <use x="63.623046875" xlink:href="#BitstreamVeraSans-Roman-2e"/>
      <use x="95.41015625" xlink:href="#BitstreamVeraSans-Roman-31"/>
      <use x="159.033203125" xlink:href="#BitstreamVeraSans-Roman-35"/>
     </g>
    </g>
   </g>
  </g>
 </g>
 <defs>
  <clipPath id="p3b748eb75c">
   <rect height="172.8" width="223.2" x="31.4999625" y="11.2309390625"/>
  </clipPath>
 </defs>
</svg>
