<?xml version="1.0" encoding="UTF-8" standalone="no"?>
<!-- Created with matplotlib (http://matplotlib.org/) -->

<svg
   xmlns:dc="http://purl.org/dc/elements/1.1/"
   xmlns:cc="http://creativecommons.org/ns#"
   xmlns:rdf="http://www.w3.org/1999/02/22-rdf-syntax-ns#"
   xmlns:svg="http://www.w3.org/2000/svg"
   xmlns="http://www.w3.org/2000/svg"
   xmlns:sodipodi="http://sodipodi.sourceforge.net/DTD/sodipodi-0.dtd"
   xmlns:inkscape="http://www.inkscape.org/namespaces/inkscape"
   height="172pt"
   version="1.1"
   viewBox="0 0 576 172"
   width="576pt"
   id="svg4350"
   inkscape:version="0.91 r13725"
   sodipodi:docname="SCinners-cartoon.svg">
  <metadata
     id="metadata4383">
    <rdf:RDF>
      <cc:Work
         rdf:about="">
        <dc:format>image/svg+xml</dc:format>
        <dc:type
           rdf:resource="http://purl.org/dc/dcmitype/StillImage" />
        <dc:title />
      </cc:Work>
    </rdf:RDF>
  </metadata>
  <sodipodi:namedview
     pagecolor="#ffffff"
     bordercolor="#666666"
     borderopacity="1"
     objecttolerance="10"
     gridtolerance="10"
     guidetolerance="10"
     inkscape:pageopacity="0"
     inkscape:pageshadow="2"
     inkscape:window-width="2560"
     inkscape:window-height="1545"
     id="namedview4381"
     showgrid="false"
     inkscape:zoom="3.9"
     inkscape:cx="300.09069"
     inkscape:cy="91.703273"
     inkscape:window-x="0"
     inkscape:window-y="55"
     inkscape:window-maximized="1"
     inkscape:current-layer="svg4350" />
  <defs
     id="defs4352">
    <style
       type="text/css"
       id="style4354">
*{stroke-linecap:butt;stroke-linejoin:round;stroke-miterlimit:100000;}
  </style>
  </defs>
  <g
     style="stroke-linecap:butt;stroke-linejoin:round;stroke-miterlimit:100000"
     id="patch_1">
    <path
       inkscape:connector-curvature="0"
       id="path4358"
       style="fill:#ffffff;stroke-linecap:butt;stroke-linejoin:round;stroke-miterlimit:100000"
       d="m 0,172.6183 576,0 L 576,0 0,0 Z" />
  </g>
  <g
     id="line2d_1"
     style="stroke-linecap:butt;stroke-linejoin:round;stroke-miterlimit:100000">
    <path
       clip-path="url(#p0e5613724d)"
       d="m 485.73613,1.692336 -396.804693,0.010492 -2.663546,0.083915 -3.987064,0.283009 -3.96925,0.47098 -3.94258,0.6579 -3.907113,0.843353 -3.862926,1.026922 -3.810121,1.208202 -3.748813,1.386784 -3.679141,1.562272 -3.601258,1.734275 -3.515341,1.902407 -3.421578,2.066294 -3.320181,2.225571 -3.211376,2.379882 -3.095404,2.528882 -2.972526,2.672239 -2.843014,2.809634 -2.707159,2.940758 -2.565263,3.065322 -2.417643,3.183045 -2.264628,3.293665 -2.10656,3.396936 -1.943791,3.492627 -1.776685,3.580525 -1.605615,3.660434 -1.430962,3.732173 -1.253115,3.795586 -1.072473,3.850529 -0.889438,3.89688 -0.704417,3.934535 -0.517825,3.963411 -0.330077,3.983443 -0.141594,3.994587 0.047207,3.996816 0.235901,3.990128 0.42407,3.974536 0.611291,3.950075 0.79715,3.9168 0.981229,3.87479 1.163118,3.82412 1.342413,3.76493 1.518712,3.69734 1.691622,3.62148 1.860758,3.53757 2.025741,3.44574 2.186204,3.34623 2.341788,3.23926 2.492148,3.12506 2.636947,3.00388 2.775861,2.87599 2.908581,2.7417 3.034812,2.60129 3.15427,2.45507 3.266689,2.30337 3.371821,2.14653 3.469427,1.9849 3.559292,1.81885 3.641215,1.64873 3.715014,1.47494 3.780521,1.29786 3.837594,1.11787 3.886104,0.9354 3.925941,0.75084 3.957019,0.5646 3.979267,0.37709 3.992636,0.18876 1.33231,0.021 399.468857,-0.0629 3.98917,-0.25161 3.97284,-0.43972 3.94763,-0.62683 3.91363,-0.81257 3.8709,-0.99647 3.81951,-1.17817 3.75962,-1.35722 3.69133,-1.53326 3.6148,-1.70586 3.53021,-1.87467 3.43774,-2.03929 3.3376,-2.19936 3.23001,-2.35453 3.11522,-2.50443 2.99348,-2.64875 2.86505,-2.78716 2.73022,-2.91935 2.58932,-3.04503 2.44263,-3.16391 2.29049,-3.27574 2.13324,-3.38024 1.97124,-3.47721 1.80482,-3.56643 1.63438,-3.64768 1.46031,-3.72079 1.28296,-3.7856 1.10275,-3.84196 0.9201,-3.88976 0.73537,-3.928868 0.54902,-3.959211 0.36143,-3.980721 0.17304,-3.993348 -0.0157,-3.997064 -0.20447,-3.991862 -0.39277,-3.977752 -0.58017,-3.954765 -0.76628,-3.922955 -0.95069,-3.882391 -1.13298,-3.833164 -1.31273,-3.775383 -1.48955,-3.709178 -1.66305,-3.634696 -1.83285,-3.552104 -1.99855,-3.461586 -2.15979,-3.363344 -2.31621,-3.257596 -2.46746,-3.144581 -2.61322,-3.024547 -2.75313,-2.897765 -2.8869,-2.764517 -3.01424,-2.625101 -3.13484,-2.479826 -3.24845,-2.329018 -3.35482,-2.173013 -3.45369,-2.01216 -3.54486,-1.846816 -3.62812,-1.677352 -3.70329,-1.504144 -3.77018,-1.327581 -3.82868,-1.148055 -3.87861,-0.965967 -3.91991,-0.781724 -3.95245,-0.595736 -3.97618,-0.408419 -3.99102,-0.220191 -2.66454,-0.041963 0,0"
       style="fill:none;stroke:#000000;stroke-width:3.2;stroke-linecap:square;stroke-linejoin:round;stroke-miterlimit:100;stroke-dasharray:none"
       id="path4362"
       inkscape:connector-curvature="0" />
  </g>
  <path
     inkscape:connector-curvature="0"
     id="path4365"
     style="fill:#723a7a;stroke:#000000;stroke-width:0;stroke-linecap:butt;stroke-linejoin:round;stroke-miterlimit:100;stroke-dasharray:0, 0;stroke-dashoffset:0;fill-opacity:1"
     d="m 404.81707,23.959918 -233.59029,0.0077 -1.96261,0.06183 -3.91453,0.308855 -3.88731,0.554652 -3.8447,0.79825 -3.78682,1.038682 -3.71392,1.274993 -3.62631,1.506248 -3.5243,1.731528 -3.40831,1.94994 -3.27881,2.160619 -3.1363,2.362728 -2.98136,2.555464 -2.81457,2.738067 -2.63665,2.909807 -2.44825,3.070007 -2.25014,3.218031 -2.04312,3.35329 -1.82798,3.475249 -1.60559,3.583424 -1.37685,3.677387 -1.14263,3.756762 -0.90388,3.821238 -0.66156,3.870558 -0.4166,3.904524 -0.16999,3.923006 0.0773,3.925926 0.32426,3.913275 0.56996,3.885103 0.81337,3.841529 1.05359,3.7827 1.2896,3.70888 1.52051,3.62034 1.74539,3.51746 1.96335,3.40061 2.1735,3.27028 2.37506,3.12697 2.56718,2.97127 2.74913,2.80378 2.92016,2.62517 3.07963,2.43614 3.22686,2.23746 3.36131,2.0299 3.48242,1.81428 3.58971,1.59148 3.68278,1.36236 3.76123,1.12783 3.82477,0.88883 3.87313,0.64631 3.90614,0.40123 3.92364,0.15455 238.7905,-0.0927 3.91197,-0.33967 3.88282,-0.58524 3.83829,-0.82849 3.77853,-1.06847 3.70377,-1.30419 3.61433,-1.53476 3.51056,-1.75922 3.39285,-1.97672 3.2617,-2.18636 3.1176,-2.38735 2.96114,-2.57886 2.79294,-2.76014 2.61365,-2.93048 2.424,-3.08919 2.22474,-3.23565 2.01665,-3.36927 1.80056,-3.48953 1.57733,-3.59596 1.34785,-3.68811 1.11301,-3.76564 0.87377,-3.828244 0.63106,-3.875647 0.38584,-3.907684 0.1391,-3.924222 -0.10819,-3.925196 -0.35507,-3.9106 -0.60052,-3.880495 -0.8436,-3.834998 -1.08334,-3.774289 -1.31876,-3.698611 -1.54897,-3.608263 -1.77303,-3.503603 -1.99006,-3.385046 -2.19919,-3.253064 -2.3996,-3.108179 -2.5905,-2.950965 -2.77112,-2.782047 -2.94074,-2.602094 -3.09871,-2.411821 -3.24438,-2.211981 -3.37719,-2.003369 -3.49659,-1.786809 -3.60214,-1.563164 -3.69339,-1.333317 -3.76999,-1.098182 -3.83165,-0.858692 -3.8781,-0.615796 -5.13994,-0.370457"
     clip-path="url(#p0e5613724d)"
     sodipodi:nodetypes="ccccccccccccccccccccccccccccccccccccccccccccccccccccccccccccccccccccccccccccccccccccccccccccccccccccc" />
  <defs
     id="defs4376">
    <clipPath
       id="p0e5613724d">
      <rect
         height="172.61829653"
         width="576.0"
         x="0.0"
         y="0.0"
         id="rect4379" />
    </clipPath>
  </defs>
</svg>
